<?xml version="1.0" encoding="utf-8" standalone="no"?>
<!DOCTYPE svg PUBLIC "-//W3C//DTD SVG 1.1//EN"
  "http://www.w3.org/Graphics/SVG/1.1/DTD/svg11.dtd">
<svg xmlns:xlink="http://www.w3.org/1999/xlink" width="855.435937pt" height="351.193625pt" viewBox="0 0 855.435937 351.193625" xmlns="http://www.w3.org/2000/svg" version="1.1">
 <metadata>
  <rdf:RDF xmlns:dc="http://purl.org/dc/elements/1.1/" xmlns:cc="http://creativecommons.org/ns#" xmlns:rdf="http://www.w3.org/1999/02/22-rdf-syntax-ns#">
   <cc:Work>
    <dc:type rdf:resource="http://purl.org/dc/dcmitype/StillImage"/>
    <dc:date>2025-06-25T14:23:48.104939</dc:date>
    <dc:format>image/svg+xml</dc:format>
    <dc:creator>
     <cc:Agent>
      <dc:title>Matplotlib v3.10.3, https://matplotlib.org/</dc:title>
     </cc:Agent>
    </dc:creator>
   </cc:Work>
  </rdf:RDF>
 </metadata>
 <defs>
  <style type="text/css">*{stroke-linejoin: round; stroke-linecap: butt}</style>
 </defs>
 <g id="figure_1">
  <g id="patch_1">
   <path d="M 0 351.193625 
L 855.435937 351.193625 
L 855.435937 0 
L 0 0 
z
" style="fill: #ffffff"/>
  </g>
  <g id="axes_1">
   <g id="patch_2">
    <path d="M 44.555937 311.70175 
L 421.095937 311.70175 
L 421.095937 24.14175 
L 44.555937 24.14175 
z
" style="fill: #e5e5e5"/>
   </g>
   <g id="matplotlib.axis_1">
    <g id="xtick_1">
     <g id="line2d_1">
      <path d="M 95.902301 311.70175 
L 95.902301 24.14175 
" clip-path="url(#pbad6d4f7ad)" style="fill: none; stroke: #ffffff; stroke-width: 0.8; stroke-linecap: square"/>
     </g>
     <g id="line2d_2">
      <defs>
       <path id="m9e607a6e1f" d="M 0 0 
L 0 3.5 
" style="stroke: #555555; stroke-width: 0.8"/>
      </defs>
      <g>
       <use xlink:href="#m9e607a6e1f" x="95.902301" y="311.70175" style="fill: #555555; stroke: #555555; stroke-width: 0.8"/>
      </g>
     </g>
     <g id="text_1">
      <!-- S‑learner -->
      <g style="fill: #555555" transform="translate(74.61601 337.831293) rotate(-15) scale(0.1 -0.1)">
       <defs>
        <path id="DejaVuSans-53" d="M 3425 4513 
L 3425 3897 
Q 3066 4069 2747 4153 
Q 2428 4238 2131 4238 
Q 1616 4238 1336 4038 
Q 1056 3838 1056 3469 
Q 1056 3159 1242 3001 
Q 1428 2844 1947 2747 
L 2328 2669 
Q 3034 2534 3370 2195 
Q 3706 1856 3706 1288 
Q 3706 609 3251 259 
Q 2797 -91 1919 -91 
Q 1588 -91 1214 -16 
Q 841 59 441 206 
L 441 856 
Q 825 641 1194 531 
Q 1563 422 1919 422 
Q 2459 422 2753 634 
Q 3047 847 3047 1241 
Q 3047 1584 2836 1778 
Q 2625 1972 2144 2069 
L 1759 2144 
Q 1053 2284 737 2584 
Q 422 2884 422 3419 
Q 422 4038 858 4394 
Q 1294 4750 2059 4750 
Q 2388 4750 2728 4690 
Q 3069 4631 3425 4513 
z
" transform="scale(0.015625)"/>
        <path id="DejaVuSans-2011" d="M 313 2009 
L 1997 2009 
L 1997 1497 
L 313 1497 
L 313 2009 
z
" transform="scale(0.015625)"/>
        <path id="DejaVuSans-6c" d="M 603 4863 
L 1178 4863 
L 1178 0 
L 603 0 
L 603 4863 
z
" transform="scale(0.015625)"/>
        <path id="DejaVuSans-65" d="M 3597 1894 
L 3597 1613 
L 953 1613 
Q 991 1019 1311 708 
Q 1631 397 2203 397 
Q 2534 397 2845 478 
Q 3156 559 3463 722 
L 3463 178 
Q 3153 47 2828 -22 
Q 2503 -91 2169 -91 
Q 1331 -91 842 396 
Q 353 884 353 1716 
Q 353 2575 817 3079 
Q 1281 3584 2069 3584 
Q 2775 3584 3186 3129 
Q 3597 2675 3597 1894 
z
M 3022 2063 
Q 3016 2534 2758 2815 
Q 2500 3097 2075 3097 
Q 1594 3097 1305 2825 
Q 1016 2553 972 2059 
L 3022 2063 
z
" transform="scale(0.015625)"/>
        <path id="DejaVuSans-61" d="M 2194 1759 
Q 1497 1759 1228 1600 
Q 959 1441 959 1056 
Q 959 750 1161 570 
Q 1363 391 1709 391 
Q 2188 391 2477 730 
Q 2766 1069 2766 1631 
L 2766 1759 
L 2194 1759 
z
M 3341 1997 
L 3341 0 
L 2766 0 
L 2766 531 
Q 2569 213 2275 61 
Q 1981 -91 1556 -91 
Q 1019 -91 701 211 
Q 384 513 384 1019 
Q 384 1609 779 1909 
Q 1175 2209 1959 2209 
L 2766 2209 
L 2766 2266 
Q 2766 2663 2505 2880 
Q 2244 3097 1772 3097 
Q 1472 3097 1187 3025 
Q 903 2953 641 2809 
L 641 3341 
Q 956 3463 1253 3523 
Q 1550 3584 1831 3584 
Q 2591 3584 2966 3190 
Q 3341 2797 3341 1997 
z
" transform="scale(0.015625)"/>
        <path id="DejaVuSans-72" d="M 2631 2963 
Q 2534 3019 2420 3045 
Q 2306 3072 2169 3072 
Q 1681 3072 1420 2755 
Q 1159 2438 1159 1844 
L 1159 0 
L 581 0 
L 581 3500 
L 1159 3500 
L 1159 2956 
Q 1341 3275 1631 3429 
Q 1922 3584 2338 3584 
Q 2397 3584 2469 3576 
Q 2541 3569 2628 3553 
L 2631 2963 
z
" transform="scale(0.015625)"/>
        <path id="DejaVuSans-6e" d="M 3513 2113 
L 3513 0 
L 2938 0 
L 2938 2094 
Q 2938 2591 2744 2837 
Q 2550 3084 2163 3084 
Q 1697 3084 1428 2787 
Q 1159 2491 1159 1978 
L 1159 0 
L 581 0 
L 581 3500 
L 1159 3500 
L 1159 2956 
Q 1366 3272 1645 3428 
Q 1925 3584 2291 3584 
Q 2894 3584 3203 3211 
Q 3513 2838 3513 2113 
z
" transform="scale(0.015625)"/>
       </defs>
       <use xlink:href="#DejaVuSans-53"/>
       <use xlink:href="#DejaVuSans-2011" transform="translate(63.476562 0)"/>
       <use xlink:href="#DejaVuSans-6c" transform="translate(99.560547 0)"/>
       <use xlink:href="#DejaVuSans-65" transform="translate(127.34375 0)"/>
       <use xlink:href="#DejaVuSans-61" transform="translate(188.867188 0)"/>
       <use xlink:href="#DejaVuSans-72" transform="translate(250.146484 0)"/>
       <use xlink:href="#DejaVuSans-6e" transform="translate(289.509766 0)"/>
       <use xlink:href="#DejaVuSans-65" transform="translate(352.888672 0)"/>
       <use xlink:href="#DejaVuSans-72" transform="translate(414.412109 0)"/>
      </g>
     </g>
    </g>
    <g id="xtick_2">
     <g id="line2d_3">
      <path d="M 232.825937 311.70175 
L 232.825937 24.14175 
" clip-path="url(#pbad6d4f7ad)" style="fill: none; stroke: #ffffff; stroke-width: 0.8; stroke-linecap: square"/>
     </g>
     <g id="line2d_4">
      <g>
       <use xlink:href="#m9e607a6e1f" x="232.825937" y="311.70175" style="fill: #555555; stroke: #555555; stroke-width: 0.8"/>
      </g>
     </g>
     <g id="text_2">
      <!-- T‑learner -->
      <g style="fill: #555555" transform="translate(211.655859 337.769015) rotate(-15) scale(0.1 -0.1)">
       <defs>
        <path id="DejaVuSans-54" d="M -19 4666 
L 3928 4666 
L 3928 4134 
L 2272 4134 
L 2272 0 
L 1638 0 
L 1638 4134 
L -19 4134 
L -19 4666 
z
" transform="scale(0.015625)"/>
       </defs>
       <use xlink:href="#DejaVuSans-54"/>
       <use xlink:href="#DejaVuSans-2011" transform="translate(61.083984 0)"/>
       <use xlink:href="#DejaVuSans-6c" transform="translate(97.167969 0)"/>
       <use xlink:href="#DejaVuSans-65" transform="translate(124.951172 0)"/>
       <use xlink:href="#DejaVuSans-61" transform="translate(186.474609 0)"/>
       <use xlink:href="#DejaVuSans-72" transform="translate(247.753906 0)"/>
       <use xlink:href="#DejaVuSans-6e" transform="translate(287.117188 0)"/>
       <use xlink:href="#DejaVuSans-65" transform="translate(350.496094 0)"/>
       <use xlink:href="#DejaVuSans-72" transform="translate(412.019531 0)"/>
      </g>
     </g>
    </g>
    <g id="xtick_3">
     <g id="line2d_5">
      <path d="M 369.749574 311.70175 
L 369.749574 24.14175 
" clip-path="url(#pbad6d4f7ad)" style="fill: none; stroke: #ffffff; stroke-width: 0.8; stroke-linecap: square"/>
     </g>
     <g id="line2d_6">
      <g>
       <use xlink:href="#m9e607a6e1f" x="369.749574" y="311.70175" style="fill: #555555; stroke: #555555; stroke-width: 0.8"/>
      </g>
     </g>
     <g id="text_3">
      <!-- IPW -->
      <g style="fill: #555555" transform="translate(361.351601 330.924464) rotate(-15) scale(0.1 -0.1)">
       <defs>
        <path id="DejaVuSans-49" d="M 628 4666 
L 1259 4666 
L 1259 0 
L 628 0 
L 628 4666 
z
" transform="scale(0.015625)"/>
        <path id="DejaVuSans-50" d="M 1259 4147 
L 1259 2394 
L 2053 2394 
Q 2494 2394 2734 2622 
Q 2975 2850 2975 3272 
Q 2975 3691 2734 3919 
Q 2494 4147 2053 4147 
L 1259 4147 
z
M 628 4666 
L 2053 4666 
Q 2838 4666 3239 4311 
Q 3641 3956 3641 3272 
Q 3641 2581 3239 2228 
Q 2838 1875 2053 1875 
L 1259 1875 
L 1259 0 
L 628 0 
L 628 4666 
z
" transform="scale(0.015625)"/>
        <path id="DejaVuSans-57" d="M 213 4666 
L 850 4666 
L 1831 722 
L 2809 4666 
L 3519 4666 
L 4500 722 
L 5478 4666 
L 6119 4666 
L 4947 0 
L 4153 0 
L 3169 4050 
L 2175 0 
L 1381 0 
L 213 4666 
z
" transform="scale(0.015625)"/>
       </defs>
       <use xlink:href="#DejaVuSans-49"/>
       <use xlink:href="#DejaVuSans-50" transform="translate(29.492188 0)"/>
       <use xlink:href="#DejaVuSans-57" transform="translate(89.794922 0)"/>
      </g>
     </g>
    </g>
   </g>
   <g id="matplotlib.axis_2">
    <g id="ytick_1">
     <g id="line2d_7">
      <path d="M 44.555937 273.145467 
L 421.095937 273.145467 
" clip-path="url(#pbad6d4f7ad)" style="fill: none; stroke: #ffffff; stroke-width: 0.8; stroke-linecap: square"/>
     </g>
     <g id="line2d_8">
      <defs>
       <path id="m943c80a88b" d="M 0 0 
L -3.5 0 
" style="stroke: #555555; stroke-width: 0.8"/>
      </defs>
      <g>
       <use xlink:href="#m943c80a88b" x="44.555937" y="273.145467" style="fill: #555555; stroke: #555555; stroke-width: 0.8"/>
      </g>
     </g>
     <g id="text_4">
      <!-- −4 -->
      <g style="fill: #555555" transform="translate(22.81375 276.944686) scale(0.1 -0.1)">
       <defs>
        <path id="DejaVuSans-2212" d="M 678 2272 
L 4684 2272 
L 4684 1741 
L 678 1741 
L 678 2272 
z
" transform="scale(0.015625)"/>
        <path id="DejaVuSans-34" d="M 2419 4116 
L 825 1625 
L 2419 1625 
L 2419 4116 
z
M 2253 4666 
L 3047 4666 
L 3047 1625 
L 3713 1625 
L 3713 1100 
L 3047 1100 
L 3047 0 
L 2419 0 
L 2419 1100 
L 313 1100 
L 313 1709 
L 2253 4666 
z
" transform="scale(0.015625)"/>
       </defs>
       <use xlink:href="#DejaVuSans-2212"/>
       <use xlink:href="#DejaVuSans-34" transform="translate(83.789062 0)"/>
      </g>
     </g>
    </g>
    <g id="ytick_2">
     <g id="line2d_9">
      <path d="M 44.555937 214.205877 
L 421.095937 214.205877 
" clip-path="url(#pbad6d4f7ad)" style="fill: none; stroke: #ffffff; stroke-width: 0.8; stroke-linecap: square"/>
     </g>
     <g id="line2d_10">
      <g>
       <use xlink:href="#m943c80a88b" x="44.555937" y="214.205877" style="fill: #555555; stroke: #555555; stroke-width: 0.8"/>
      </g>
     </g>
     <g id="text_5">
      <!-- −3 -->
      <g style="fill: #555555" transform="translate(22.81375 218.005096) scale(0.1 -0.1)">
       <defs>
        <path id="DejaVuSans-33" d="M 2597 2516 
Q 3050 2419 3304 2112 
Q 3559 1806 3559 1356 
Q 3559 666 3084 287 
Q 2609 -91 1734 -91 
Q 1441 -91 1130 -33 
Q 819 25 488 141 
L 488 750 
Q 750 597 1062 519 
Q 1375 441 1716 441 
Q 2309 441 2620 675 
Q 2931 909 2931 1356 
Q 2931 1769 2642 2001 
Q 2353 2234 1838 2234 
L 1294 2234 
L 1294 2753 
L 1863 2753 
Q 2328 2753 2575 2939 
Q 2822 3125 2822 3475 
Q 2822 3834 2567 4026 
Q 2313 4219 1838 4219 
Q 1578 4219 1281 4162 
Q 984 4106 628 3988 
L 628 4550 
Q 988 4650 1302 4700 
Q 1616 4750 1894 4750 
Q 2613 4750 3031 4423 
Q 3450 4097 3450 3541 
Q 3450 3153 3228 2886 
Q 3006 2619 2597 2516 
z
" transform="scale(0.015625)"/>
       </defs>
       <use xlink:href="#DejaVuSans-2212"/>
       <use xlink:href="#DejaVuSans-33" transform="translate(83.789062 0)"/>
      </g>
     </g>
    </g>
    <g id="ytick_3">
     <g id="line2d_11">
      <path d="M 44.555937 155.266286 
L 421.095937 155.266286 
" clip-path="url(#pbad6d4f7ad)" style="fill: none; stroke: #ffffff; stroke-width: 0.8; stroke-linecap: square"/>
     </g>
     <g id="line2d_12">
      <g>
       <use xlink:href="#m943c80a88b" x="44.555937" y="155.266286" style="fill: #555555; stroke: #555555; stroke-width: 0.8"/>
      </g>
     </g>
     <g id="text_6">
      <!-- −2 -->
      <g style="fill: #555555" transform="translate(22.81375 159.065505) scale(0.1 -0.1)">
       <defs>
        <path id="DejaVuSans-32" d="M 1228 531 
L 3431 531 
L 3431 0 
L 469 0 
L 469 531 
Q 828 903 1448 1529 
Q 2069 2156 2228 2338 
Q 2531 2678 2651 2914 
Q 2772 3150 2772 3378 
Q 2772 3750 2511 3984 
Q 2250 4219 1831 4219 
Q 1534 4219 1204 4116 
Q 875 4013 500 3803 
L 500 4441 
Q 881 4594 1212 4672 
Q 1544 4750 1819 4750 
Q 2544 4750 2975 4387 
Q 3406 4025 3406 3419 
Q 3406 3131 3298 2873 
Q 3191 2616 2906 2266 
Q 2828 2175 2409 1742 
Q 1991 1309 1228 531 
z
" transform="scale(0.015625)"/>
       </defs>
       <use xlink:href="#DejaVuSans-2212"/>
       <use xlink:href="#DejaVuSans-32" transform="translate(83.789062 0)"/>
      </g>
     </g>
    </g>
    <g id="ytick_4">
     <g id="line2d_13">
      <path d="M 44.555937 96.326695 
L 421.095937 96.326695 
" clip-path="url(#pbad6d4f7ad)" style="fill: none; stroke: #ffffff; stroke-width: 0.8; stroke-linecap: square"/>
     </g>
     <g id="line2d_14">
      <g>
       <use xlink:href="#m943c80a88b" x="44.555937" y="96.326695" style="fill: #555555; stroke: #555555; stroke-width: 0.8"/>
      </g>
     </g>
     <g id="text_7">
      <!-- −1 -->
      <g style="fill: #555555" transform="translate(22.81375 100.125914) scale(0.1 -0.1)">
       <defs>
        <path id="DejaVuSans-31" d="M 794 531 
L 1825 531 
L 1825 4091 
L 703 3866 
L 703 4441 
L 1819 4666 
L 2450 4666 
L 2450 531 
L 3481 531 
L 3481 0 
L 794 0 
L 794 531 
z
" transform="scale(0.015625)"/>
       </defs>
       <use xlink:href="#DejaVuSans-2212"/>
       <use xlink:href="#DejaVuSans-31" transform="translate(83.789062 0)"/>
      </g>
     </g>
    </g>
    <g id="ytick_5">
     <g id="line2d_15">
      <path d="M 44.555937 37.387105 
L 421.095937 37.387105 
" clip-path="url(#pbad6d4f7ad)" style="fill: none; stroke: #ffffff; stroke-width: 0.8; stroke-linecap: square"/>
     </g>
     <g id="line2d_16">
      <g>
       <use xlink:href="#m943c80a88b" x="44.555937" y="37.387105" style="fill: #555555; stroke: #555555; stroke-width: 0.8"/>
      </g>
     </g>
     <g id="text_8">
      <!-- 0 -->
      <g style="fill: #555555" transform="translate(31.193437 41.186323) scale(0.1 -0.1)">
       <defs>
        <path id="DejaVuSans-30" d="M 2034 4250 
Q 1547 4250 1301 3770 
Q 1056 3291 1056 2328 
Q 1056 1369 1301 889 
Q 1547 409 2034 409 
Q 2525 409 2770 889 
Q 3016 1369 3016 2328 
Q 3016 3291 2770 3770 
Q 2525 4250 2034 4250 
z
M 2034 4750 
Q 2819 4750 3233 4129 
Q 3647 3509 3647 2328 
Q 3647 1150 3233 529 
Q 2819 -91 2034 -91 
Q 1250 -91 836 529 
Q 422 1150 422 2328 
Q 422 3509 836 4129 
Q 1250 4750 2034 4750 
z
" transform="scale(0.015625)"/>
       </defs>
       <use xlink:href="#DejaVuSans-30"/>
      </g>
     </g>
    </g>
    <g id="text_9">
     <!-- ATE -->
     <g style="fill: #555555" transform="translate(16.318125 179.017062) rotate(-90) scale(0.12 -0.12)">
      <defs>
       <path id="DejaVuSans-41" d="M 2188 4044 
L 1331 1722 
L 3047 1722 
L 2188 4044 
z
M 1831 4666 
L 2547 4666 
L 4325 0 
L 3669 0 
L 3244 1197 
L 1141 1197 
L 716 0 
L 50 0 
L 1831 4666 
z
" transform="scale(0.015625)"/>
       <path id="DejaVuSans-45" d="M 628 4666 
L 3578 4666 
L 3578 4134 
L 1259 4134 
L 1259 2753 
L 3481 2753 
L 3481 2222 
L 1259 2222 
L 1259 531 
L 3634 531 
L 3634 0 
L 628 0 
L 628 4666 
z
" transform="scale(0.015625)"/>
      </defs>
      <use xlink:href="#DejaVuSans-41"/>
      <use xlink:href="#DejaVuSans-54" transform="translate(60.658203 0)"/>
      <use xlink:href="#DejaVuSans-45" transform="translate(121.742188 0)"/>
     </g>
    </g>
   </g>
   <g id="FillBetweenPolyCollection_1">
    <path d="M 103.444227 37.403285 
L 88.360376 37.403285 
L 87.945068 37.403036 
L 87.533032 37.402787 
L 87.125597 37.402538 
L 86.723917 37.402289 
L 86.328965 37.402039 
L 85.941531 37.40179 
L 85.562229 37.401541 
L 85.191503 37.401292 
L 84.829628 37.401043 
L 84.476719 37.400793 
L 84.132735 37.400544 
L 83.797474 37.400295 
L 83.470569 37.400046 
L 83.151484 37.399797 
L 82.839492 37.399547 
L 82.533671 37.399298 
L 82.232876 37.399049 
L 81.935735 37.3988 
L 81.640625 37.398551 
L 81.345676 37.398302 
L 81.048763 37.398052 
L 80.74752 37.397803 
L 80.439359 37.397554 
L 80.121506 37.397305 
L 79.791042 37.397056 
L 79.444964 37.396806 
L 79.080256 37.396557 
L 78.69396 37.396308 
L 78.283274 37.396059 
L 77.845632 37.39581 
L 77.378805 37.39556 
L 76.88099 37.395311 
L 76.3509 37.395062 
L 75.787839 37.394813 
L 75.191776 37.394564 
L 74.563401 37.394315 
L 73.904163 37.394065 
L 73.216295 37.393816 
L 72.502818 37.393567 
L 71.767528 37.393318 
L 71.014958 37.393069 
L 70.250328 37.392819 
L 69.47947 37.39257 
L 68.708736 37.392321 
L 67.944898 37.392072 
L 67.195026 37.391823 
L 66.466357 37.391574 
L 65.766167 37.391324 
L 65.101623 37.391075 
L 64.479652 37.390826 
L 63.906807 37.390577 
L 63.38914 37.390328 
L 62.932094 37.390078 
L 62.540408 37.389829 
L 62.218042 37.38958 
L 61.968123 37.389331 
L 61.792918 37.389082 
L 61.693825 37.388832 
L 61.671392 37.388583 
L 61.725356 37.388334 
L 61.854701 37.388085 
L 62.057729 37.387836 
L 62.332151 37.387587 
L 62.675173 37.387337 
L 63.083594 37.387088 
L 63.553897 37.386839 
L 64.082337 37.38659 
L 64.665019 37.386341 
L 65.29796 37.386091 
L 65.977143 37.385842 
L 66.698555 37.385593 
L 67.458208 37.385344 
L 68.252151 37.385095 
L 69.076473 37.384845 
L 69.927295 37.384596 
L 70.800762 37.384347 
L 71.693029 37.384098 
L 72.600256 37.383849 
L 73.518602 37.3836 
L 74.444226 37.38335 
L 75.373305 37.383101 
L 76.302044 37.382852 
L 77.226714 37.382603 
L 78.143679 37.382354 
L 79.049443 37.382104 
L 79.940689 37.381855 
L 80.814326 37.381606 
L 81.667531 37.381357 
L 82.497787 37.381108 
L 83.30291 37.380858 
L 84.081073 37.380609 
L 84.83082 37.38036 
L 85.551061 37.380111 
L 86.241066 37.379862 
L 86.900442 37.379613 
L 87.529109 37.379363 
L 88.127257 37.379114 
L 88.695312 37.378865 
L 89.233886 37.378616 
L 102.570716 37.378616 
L 102.570716 37.378616 
L 103.109291 37.378865 
L 103.677345 37.379114 
L 104.275493 37.379363 
L 104.90416 37.379613 
L 105.563536 37.379862 
L 106.253541 37.380111 
L 106.973782 37.38036 
L 107.723529 37.380609 
L 108.501693 37.380858 
L 109.306815 37.381108 
L 110.137071 37.381357 
L 110.990276 37.381606 
L 111.863914 37.381855 
L 112.755159 37.382104 
L 113.660923 37.382354 
L 114.577888 37.382603 
L 115.502558 37.382852 
L 116.431297 37.383101 
L 117.360376 37.38335 
L 118.286001 37.3836 
L 119.204346 37.383849 
L 120.111573 37.384098 
L 121.003841 37.384347 
L 121.877307 37.384596 
L 122.728129 37.384845 
L 123.552451 37.385095 
L 124.346394 37.385344 
L 125.106047 37.385593 
L 125.827459 37.385842 
L 126.506643 37.386091 
L 127.139584 37.386341 
L 127.722265 37.38659 
L 128.250706 37.386839 
L 128.721008 37.387088 
L 129.129429 37.387337 
L 129.472451 37.387587 
L 129.746873 37.387836 
L 129.949902 37.388085 
L 130.079246 37.388334 
L 130.13321 37.388583 
L 130.110777 37.388832 
L 130.011684 37.389082 
L 129.836479 37.389331 
L 129.58656 37.38958 
L 129.264194 37.389829 
L 128.872508 37.390078 
L 128.415463 37.390328 
L 127.897795 37.390577 
L 127.32495 37.390826 
L 126.70298 37.391075 
L 126.038436 37.391324 
L 125.338245 37.391574 
L 124.609577 37.391823 
L 123.859704 37.392072 
L 123.095866 37.392321 
L 122.325133 37.39257 
L 121.554274 37.392819 
L 120.789644 37.393069 
L 120.037074 37.393318 
L 119.301784 37.393567 
L 118.588307 37.393816 
L 117.900439 37.394065 
L 117.241201 37.394315 
L 116.612826 37.394564 
L 116.016764 37.394813 
L 115.453702 37.395062 
L 114.923612 37.395311 
L 114.425797 37.39556 
L 113.958971 37.39581 
L 113.521329 37.396059 
L 113.110642 37.396308 
L 112.724347 37.396557 
L 112.359638 37.396806 
L 112.01356 37.397056 
L 111.683096 37.397305 
L 111.365243 37.397554 
L 111.057082 37.397803 
L 110.755839 37.398052 
L 110.458926 37.398302 
L 110.163977 37.398551 
L 109.868868 37.3988 
L 109.571726 37.399049 
L 109.270932 37.399298 
L 108.96511 37.399547 
L 108.653119 37.399797 
L 108.334033 37.400046 
L 108.007129 37.400295 
L 107.671867 37.400544 
L 107.327883 37.400793 
L 106.974975 37.401043 
L 106.613099 37.401292 
L 106.242373 37.401541 
L 105.863072 37.40179 
L 105.475638 37.402039 
L 105.080685 37.402289 
L 104.679005 37.402538 
L 104.27157 37.402787 
L 103.859534 37.403036 
L 103.444227 37.403285 
z
" clip-path="url(#pbad6d4f7ad)" style="fill: #e24a33; fill-opacity: 0.3"/>
   </g>
   <g id="FillBetweenPolyCollection_2">
    <path d="M 240.759309 37.525015 
L 224.892566 37.525015 
L 224.278002 37.52186 
L 223.661999 37.518705 
L 223.0475 37.51555 
L 222.436859 37.512395 
L 221.831774 37.509239 
L 221.233258 37.506084 
L 220.641637 37.502929 
L 220.056593 37.499774 
L 219.477219 37.496619 
L 218.902105 37.493464 
L 218.329424 37.490309 
L 217.757023 37.487154 
L 217.182502 37.483999 
L 216.603291 37.480843 
L 216.016704 37.477688 
L 215.419985 37.474533 
L 214.810349 37.471378 
L 214.185019 37.468223 
L 213.541278 37.465068 
L 212.876539 37.461913 
L 212.188437 37.458758 
L 211.474969 37.455603 
L 210.734652 37.452447 
L 209.966732 37.449292 
L 209.171406 37.446137 
L 208.350059 37.442982 
L 207.505498 37.439827 
L 206.642156 37.436672 
L 205.76625 37.433517 
L 204.885869 37.430362 
L 204.010972 37.427207 
L 203.153291 37.424051 
L 202.326119 37.420896 
L 201.543996 37.417741 
L 200.822299 37.414586 
L 200.176745 37.411431 
L 199.622846 37.408276 
L 199.175333 37.405121 
L 198.847585 37.401966 
L 198.651098 37.398811 
L 198.595028 37.395655 
L 198.685825 37.3925 
L 198.926987 37.389345 
L 199.318947 37.38619 
L 199.859084 37.383035 
L 200.541873 37.37988 
L 201.359138 37.376725 
L 202.300398 37.37357 
L 203.353291 37.370415 
L 204.50402 37.367259 
L 205.737825 37.364104 
L 207.039432 37.360949 
L 208.393466 37.357794 
L 209.784815 37.354639 
L 211.198926 37.351484 
L 212.622038 37.348329 
L 214.041347 37.345174 
L 215.445113 37.342019 
L 216.82272 37.338863 
L 218.164693 37.335708 
L 219.462691 37.332553 
L 220.709483 37.329398 
L 221.898918 37.326243 
L 223.025888 37.323088 
L 224.086298 37.319933 
L 225.077026 37.316778 
L 225.995898 37.313623 
L 226.841643 37.310468 
L 227.613855 37.307312 
L 228.312937 37.304157 
L 228.940035 37.301002 
L 229.496965 37.297847 
L 229.986121 37.294692 
L 230.410379 37.291537 
L 230.772999 37.288382 
L 231.07752 37.285227 
L 231.327669 37.282072 
L 231.527278 37.278916 
L 231.68021 37.275761 
L 231.790312 37.272606 
L 231.861383 37.269451 
L 231.897161 37.266296 
L 231.901332 37.263141 
L 231.877541 37.259986 
L 231.829429 37.256831 
L 231.760656 37.253676 
L 231.674929 37.25052 
L 231.576021 37.247365 
L 231.467774 37.24421 
L 231.354079 37.241055 
L 231.238844 37.2379 
L 231.125937 37.234745 
L 231.019106 37.23159 
L 230.921897 37.228435 
L 230.837548 37.22528 
L 230.768896 37.222124 
L 230.718278 37.218969 
L 230.687451 37.215814 
L 230.677532 37.212659 
L 234.974343 37.212659 
L 234.974343 37.212659 
L 234.964424 37.215814 
L 234.933597 37.218969 
L 234.882979 37.222124 
L 234.814327 37.22528 
L 234.729978 37.228435 
L 234.632769 37.23159 
L 234.525938 37.234745 
L 234.413031 37.2379 
L 234.297796 37.241055 
L 234.184101 37.24421 
L 234.075854 37.247365 
L 233.976946 37.25052 
L 233.891219 37.253676 
L 233.822446 37.256831 
L 233.774334 37.259986 
L 233.750543 37.263141 
L 233.754714 37.266296 
L 233.790492 37.269451 
L 233.861563 37.272606 
L 233.971665 37.275761 
L 234.124597 37.278916 
L 234.324206 37.282072 
L 234.574355 37.285227 
L 234.878876 37.288382 
L 235.241496 37.291537 
L 235.665754 37.294692 
L 236.15491 37.297847 
L 236.71184 37.301002 
L 237.338938 37.304157 
L 238.03802 37.307312 
L 238.810232 37.310468 
L 239.655977 37.313623 
L 240.574849 37.316778 
L 241.565577 37.319933 
L 242.625987 37.323088 
L 243.752957 37.326243 
L 244.942392 37.329398 
L 246.189184 37.332553 
L 247.487182 37.335708 
L 248.829155 37.338863 
L 250.206762 37.342019 
L 251.610528 37.345174 
L 253.029837 37.348329 
L 254.452949 37.351484 
L 255.86706 37.354639 
L 257.258409 37.357794 
L 258.612443 37.360949 
L 259.91405 37.364104 
L 261.147855 37.367259 
L 262.298584 37.370415 
L 263.351477 37.37357 
L 264.292737 37.376725 
L 265.110002 37.37988 
L 265.792791 37.383035 
L 266.332928 37.38619 
L 266.724888 37.389345 
L 266.96605 37.3925 
L 267.056847 37.395655 
L 267.000777 37.398811 
L 266.80429 37.401966 
L 266.476542 37.405121 
L 266.029029 37.408276 
L 265.47513 37.411431 
L 264.829576 37.414586 
L 264.107879 37.417741 
L 263.325756 37.420896 
L 262.498584 37.424051 
L 261.640903 37.427207 
L 260.766006 37.430362 
L 259.885625 37.433517 
L 259.009719 37.436672 
L 258.146377 37.439827 
L 257.301816 37.442982 
L 256.480469 37.446137 
L 255.685143 37.449292 
L 254.917223 37.452447 
L 254.176906 37.455603 
L 253.463438 37.458758 
L 252.775336 37.461913 
L 252.110597 37.465068 
L 251.466856 37.468223 
L 250.841526 37.471378 
L 250.23189 37.474533 
L 249.635171 37.477688 
L 249.048584 37.480843 
L 248.469373 37.483999 
L 247.894852 37.487154 
L 247.322451 37.490309 
L 246.74977 37.493464 
L 246.174656 37.496619 
L 245.595282 37.499774 
L 245.010238 37.502929 
L 244.418617 37.506084 
L 243.820101 37.509239 
L 243.215016 37.512395 
L 242.604375 37.51555 
L 241.989876 37.518705 
L 241.373873 37.52186 
L 240.759309 37.525015 
z
" clip-path="url(#pbad6d4f7ad)" style="fill: #e24a33; fill-opacity: 0.3"/>
   </g>
   <g id="FillBetweenPolyCollection_3">
    <path d="M 380.060791 298.630841 
L 359.438357 298.630841 
L 358.879684 297.969757 
L 358.326395 297.308673 
L 357.779835 296.64759 
L 357.240903 295.986506 
L 356.71003 295.325422 
L 356.187173 294.664338 
L 355.671821 294.003255 
L 355.163026 293.342171 
L 354.659441 292.681087 
L 354.159375 292.020003 
L 353.66086 291.358919 
L 353.161726 290.697836 
L 352.659677 290.036752 
L 352.152382 289.375668 
L 351.637551 288.714584 
L 351.113017 288.053501 
L 350.576814 287.392417 
L 350.02724 286.731333 
L 349.462922 286.070249 
L 348.882859 285.409166 
L 348.286471 284.748082 
L 347.673622 284.086998 
L 347.044649 283.425914 
L 346.400375 282.764831 
L 345.742114 282.103747 
L 345.071678 281.442663 
L 344.391375 280.781579 
L 343.704 280.120496 
L 343.012831 279.459412 
L 342.321611 278.798328 
L 341.634537 278.137244 
L 340.956231 277.47616 
L 340.291721 276.815077 
L 339.646394 276.153993 
L 339.025959 275.492909 
L 338.436382 274.831825 
L 337.883821 274.170742 
L 337.374538 273.509658 
L 336.914802 272.848574 
L 336.51078 272.18749 
L 336.168407 271.526407 
L 335.893264 270.865323 
L 335.690428 270.204239 
L 335.564341 269.543155 
L 335.518665 268.882072 
L 335.556158 268.220988 
L 335.678559 267.559904 
L 335.886487 266.89882 
L 336.179375 266.237736 
L 336.555427 265.576653 
L 337.011606 264.915569 
L 337.543662 264.254485 
L 338.146192 263.593401 
L 338.812735 262.932318 
L 339.535901 262.271234 
L 340.307531 261.61015 
L 341.118879 260.949066 
L 341.960812 260.287983 
L 342.824025 259.626899 
L 343.699257 258.965815 
L 344.577506 258.304731 
L 345.450229 257.643648 
L 346.30953 256.982564 
L 347.14832 256.32148 
L 347.960451 255.660396 
L 348.740813 254.999312 
L 349.485401 254.338229 
L 350.191344 253.677145 
L 350.8569 253.016061 
L 351.481418 252.354977 
L 352.065264 251.693894 
L 352.609736 251.03281 
L 353.11694 250.371726 
L 353.589668 249.710642 
L 354.031251 249.049559 
L 354.44542 248.388475 
L 354.836159 247.727391 
L 355.207574 247.066307 
L 355.563759 246.405224 
L 355.908684 245.74414 
L 356.246101 245.083056 
L 356.579457 244.421972 
L 356.911834 243.760888 
L 357.245899 243.099805 
L 357.583883 242.438721 
L 357.92756 241.777637 
L 358.278252 241.116553 
L 358.636841 240.45547 
L 359.003791 239.794386 
L 359.379178 239.133302 
L 359.762728 238.472218 
L 360.153852 237.811135 
L 360.551688 237.150051 
L 360.955147 236.488967 
L 361.362946 235.827883 
L 361.773654 235.1668 
L 362.185727 234.505716 
L 362.597541 233.844632 
L 363.007428 233.183548 
L 376.491719 233.183548 
L 376.491719 233.183548 
L 376.901606 233.844632 
L 377.313421 234.505716 
L 377.725493 235.1668 
L 378.136202 235.827883 
L 378.544001 236.488967 
L 378.94746 237.150051 
L 379.345296 237.811135 
L 379.73642 238.472218 
L 380.11997 239.133302 
L 380.495357 239.794386 
L 380.862307 240.45547 
L 381.220896 241.116553 
L 381.571588 241.777637 
L 381.915265 242.438721 
L 382.253248 243.099805 
L 382.587314 243.760888 
L 382.91969 244.421972 
L 383.253046 245.083056 
L 383.590464 245.74414 
L 383.935389 246.405224 
L 384.291574 247.066307 
L 384.662988 247.727391 
L 385.053728 248.388475 
L 385.467897 249.049559 
L 385.90948 249.710642 
L 386.382208 250.371726 
L 386.889412 251.03281 
L 387.433884 251.693894 
L 388.01773 252.354977 
L 388.642247 253.016061 
L 389.307804 253.677145 
L 390.013747 254.338229 
L 390.758335 254.999312 
L 391.538697 255.660396 
L 392.350827 256.32148 
L 393.189618 256.982564 
L 394.048919 257.643648 
L 394.921642 258.304731 
L 395.79989 258.965815 
L 396.675123 259.626899 
L 397.538336 260.287983 
L 398.380269 260.949066 
L 399.191617 261.61015 
L 399.963247 262.271234 
L 400.686413 262.932318 
L 401.352956 263.593401 
L 401.955486 264.254485 
L 402.487542 264.915569 
L 402.943721 265.576653 
L 403.319773 266.237736 
L 403.612661 266.89882 
L 403.820589 267.559904 
L 403.942989 268.220988 
L 403.980483 268.882072 
L 403.934807 269.543155 
L 403.808719 270.204239 
L 403.605884 270.865323 
L 403.33074 271.526407 
L 402.988368 272.18749 
L 402.584345 272.848574 
L 402.12461 273.509658 
L 401.615327 274.170742 
L 401.062766 274.831825 
L 400.473189 275.492909 
L 399.852754 276.153993 
L 399.207427 276.815077 
L 398.542916 277.47616 
L 397.864611 278.137244 
L 397.177536 278.798328 
L 396.486317 279.459412 
L 395.795147 280.120496 
L 395.107773 280.781579 
L 394.42747 281.442663 
L 393.757034 282.103747 
L 393.098773 282.764831 
L 392.454498 283.425914 
L 391.825526 284.086998 
L 391.212677 284.748082 
L 390.616289 285.409166 
L 390.036226 286.070249 
L 389.471907 286.731333 
L 388.922334 287.392417 
L 388.38613 288.053501 
L 387.861597 288.714584 
L 387.346765 289.375668 
L 386.83947 290.036752 
L 386.337422 290.697836 
L 385.838288 291.358919 
L 385.339773 292.020003 
L 384.839707 292.681087 
L 384.336122 293.342171 
L 383.827327 294.003255 
L 383.311975 294.664338 
L 382.789117 295.325422 
L 382.258245 295.986506 
L 381.719313 296.64759 
L 381.172753 297.308673 
L 380.619464 297.969757 
L 380.060791 298.630841 
z
" clip-path="url(#pbad6d4f7ad)" style="fill: #e24a33; fill-opacity: 0.3"/>
   </g>
   <g id="line2d_17">
    <path d="M 44.555937 37.387105 
L 421.095937 37.387105 
" clip-path="url(#pbad6d4f7ad)" style="fill: none; stroke-dasharray: 2.96,1.28; stroke-dashoffset: 0; stroke: #000000; stroke-width: 0.8"/>
   </g>
   <g id="LineCollection_1">
    <path d="M 95.902301 37.402401 
L 95.902301 37.380656 
" clip-path="url(#pbad6d4f7ad)" style="fill: none; stroke: #8b0000; stroke-width: 1.5"/>
   </g>
   <g id="LineCollection_2">
    <path d="M 232.825937 37.511312 
L 232.825937 37.300012 
" clip-path="url(#pbad6d4f7ad)" style="fill: none; stroke: #8b0000; stroke-width: 1.5"/>
   </g>
   <g id="LineCollection_3">
    <path d="M 369.749574 296.169683 
L 369.749574 237.593563 
" clip-path="url(#pbad6d4f7ad)" style="fill: none; stroke: #8b0000; stroke-width: 1.5"/>
   </g>
   <g id="line2d_18">
    <defs>
     <path id="mf51ce9110f" d="M 0 3 
C 0.795609 3 1.55874 2.683901 2.12132 2.12132 
C 2.683901 1.55874 3 0.795609 3 0 
C 3 -0.795609 2.683901 -1.55874 2.12132 -2.12132 
C 1.55874 -2.683901 0.795609 -3 0 -3 
C -0.795609 -3 -1.55874 -2.683901 -2.12132 -2.12132 
C -2.683901 -1.55874 -3 -0.795609 -3 0 
C -3 0.795609 -2.683901 1.55874 -2.12132 2.12132 
C -1.55874 2.683901 -0.795609 3 0 3 
z
" style="stroke: #8b0000"/>
    </defs>
    <g clip-path="url(#pbad6d4f7ad)">
     <use xlink:href="#mf51ce9110f" x="95.902301" y="37.390349" style="fill: #8b0000; stroke: #8b0000"/>
    </g>
   </g>
   <g id="line2d_19">
    <g clip-path="url(#pbad6d4f7ad)">
     <use xlink:href="#mf51ce9110f" x="232.825937" y="37.40899" style="fill: #8b0000; stroke: #8b0000"/>
    </g>
   </g>
   <g id="line2d_20">
    <g clip-path="url(#pbad6d4f7ad)">
     <use xlink:href="#mf51ce9110f" x="369.749574" y="268.672951" style="fill: #8b0000; stroke: #8b0000"/>
    </g>
   </g>
   <g id="patch_3">
    <path d="M 44.555937 311.70175 
L 44.555937 24.14175 
" style="fill: none; stroke: #ffffff; stroke-linejoin: miter; stroke-linecap: square"/>
   </g>
   <g id="patch_4">
    <path d="M 421.095937 311.70175 
L 421.095937 24.14175 
" style="fill: none; stroke: #ffffff; stroke-linejoin: miter; stroke-linecap: square"/>
   </g>
   <g id="patch_5">
    <path d="M 44.555937 311.70175 
L 421.095937 311.70175 
" style="fill: none; stroke: #ffffff; stroke-linejoin: miter; stroke-linecap: square"/>
   </g>
   <g id="patch_6">
    <path d="M 44.555937 24.14175 
L 421.095937 24.14175 
" style="fill: none; stroke: #ffffff; stroke-linejoin: miter; stroke-linecap: square"/>
   </g>
   <g id="text_10">
    <!-- Bootstrap distributions of ATE estimates -->
    <g transform="translate(88.114937 18.14175) scale(0.144 -0.144)">
     <defs>
      <path id="DejaVuSans-42" d="M 1259 2228 
L 1259 519 
L 2272 519 
Q 2781 519 3026 730 
Q 3272 941 3272 1375 
Q 3272 1813 3026 2020 
Q 2781 2228 2272 2228 
L 1259 2228 
z
M 1259 4147 
L 1259 2741 
L 2194 2741 
Q 2656 2741 2882 2914 
Q 3109 3088 3109 3444 
Q 3109 3797 2882 3972 
Q 2656 4147 2194 4147 
L 1259 4147 
z
M 628 4666 
L 2241 4666 
Q 2963 4666 3353 4366 
Q 3744 4066 3744 3513 
Q 3744 3084 3544 2831 
Q 3344 2578 2956 2516 
Q 3422 2416 3680 2098 
Q 3938 1781 3938 1306 
Q 3938 681 3513 340 
Q 3088 0 2303 0 
L 628 0 
L 628 4666 
z
" transform="scale(0.015625)"/>
      <path id="DejaVuSans-6f" d="M 1959 3097 
Q 1497 3097 1228 2736 
Q 959 2375 959 1747 
Q 959 1119 1226 758 
Q 1494 397 1959 397 
Q 2419 397 2687 759 
Q 2956 1122 2956 1747 
Q 2956 2369 2687 2733 
Q 2419 3097 1959 3097 
z
M 1959 3584 
Q 2709 3584 3137 3096 
Q 3566 2609 3566 1747 
Q 3566 888 3137 398 
Q 2709 -91 1959 -91 
Q 1206 -91 779 398 
Q 353 888 353 1747 
Q 353 2609 779 3096 
Q 1206 3584 1959 3584 
z
" transform="scale(0.015625)"/>
      <path id="DejaVuSans-74" d="M 1172 4494 
L 1172 3500 
L 2356 3500 
L 2356 3053 
L 1172 3053 
L 1172 1153 
Q 1172 725 1289 603 
Q 1406 481 1766 481 
L 2356 481 
L 2356 0 
L 1766 0 
Q 1100 0 847 248 
Q 594 497 594 1153 
L 594 3053 
L 172 3053 
L 172 3500 
L 594 3500 
L 594 4494 
L 1172 4494 
z
" transform="scale(0.015625)"/>
      <path id="DejaVuSans-73" d="M 2834 3397 
L 2834 2853 
Q 2591 2978 2328 3040 
Q 2066 3103 1784 3103 
Q 1356 3103 1142 2972 
Q 928 2841 928 2578 
Q 928 2378 1081 2264 
Q 1234 2150 1697 2047 
L 1894 2003 
Q 2506 1872 2764 1633 
Q 3022 1394 3022 966 
Q 3022 478 2636 193 
Q 2250 -91 1575 -91 
Q 1294 -91 989 -36 
Q 684 19 347 128 
L 347 722 
Q 666 556 975 473 
Q 1284 391 1588 391 
Q 1994 391 2212 530 
Q 2431 669 2431 922 
Q 2431 1156 2273 1281 
Q 2116 1406 1581 1522 
L 1381 1569 
Q 847 1681 609 1914 
Q 372 2147 372 2553 
Q 372 3047 722 3315 
Q 1072 3584 1716 3584 
Q 2034 3584 2315 3537 
Q 2597 3491 2834 3397 
z
" transform="scale(0.015625)"/>
      <path id="DejaVuSans-70" d="M 1159 525 
L 1159 -1331 
L 581 -1331 
L 581 3500 
L 1159 3500 
L 1159 2969 
Q 1341 3281 1617 3432 
Q 1894 3584 2278 3584 
Q 2916 3584 3314 3078 
Q 3713 2572 3713 1747 
Q 3713 922 3314 415 
Q 2916 -91 2278 -91 
Q 1894 -91 1617 61 
Q 1341 213 1159 525 
z
M 3116 1747 
Q 3116 2381 2855 2742 
Q 2594 3103 2138 3103 
Q 1681 3103 1420 2742 
Q 1159 2381 1159 1747 
Q 1159 1113 1420 752 
Q 1681 391 2138 391 
Q 2594 391 2855 752 
Q 3116 1113 3116 1747 
z
" transform="scale(0.015625)"/>
      <path id="DejaVuSans-20" transform="scale(0.015625)"/>
      <path id="DejaVuSans-64" d="M 2906 2969 
L 2906 4863 
L 3481 4863 
L 3481 0 
L 2906 0 
L 2906 525 
Q 2725 213 2448 61 
Q 2172 -91 1784 -91 
Q 1150 -91 751 415 
Q 353 922 353 1747 
Q 353 2572 751 3078 
Q 1150 3584 1784 3584 
Q 2172 3584 2448 3432 
Q 2725 3281 2906 2969 
z
M 947 1747 
Q 947 1113 1208 752 
Q 1469 391 1925 391 
Q 2381 391 2643 752 
Q 2906 1113 2906 1747 
Q 2906 2381 2643 2742 
Q 2381 3103 1925 3103 
Q 1469 3103 1208 2742 
Q 947 2381 947 1747 
z
" transform="scale(0.015625)"/>
      <path id="DejaVuSans-69" d="M 603 3500 
L 1178 3500 
L 1178 0 
L 603 0 
L 603 3500 
z
M 603 4863 
L 1178 4863 
L 1178 4134 
L 603 4134 
L 603 4863 
z
" transform="scale(0.015625)"/>
      <path id="DejaVuSans-62" d="M 3116 1747 
Q 3116 2381 2855 2742 
Q 2594 3103 2138 3103 
Q 1681 3103 1420 2742 
Q 1159 2381 1159 1747 
Q 1159 1113 1420 752 
Q 1681 391 2138 391 
Q 2594 391 2855 752 
Q 3116 1113 3116 1747 
z
M 1159 2969 
Q 1341 3281 1617 3432 
Q 1894 3584 2278 3584 
Q 2916 3584 3314 3078 
Q 3713 2572 3713 1747 
Q 3713 922 3314 415 
Q 2916 -91 2278 -91 
Q 1894 -91 1617 61 
Q 1341 213 1159 525 
L 1159 0 
L 581 0 
L 581 4863 
L 1159 4863 
L 1159 2969 
z
" transform="scale(0.015625)"/>
      <path id="DejaVuSans-75" d="M 544 1381 
L 544 3500 
L 1119 3500 
L 1119 1403 
Q 1119 906 1312 657 
Q 1506 409 1894 409 
Q 2359 409 2629 706 
Q 2900 1003 2900 1516 
L 2900 3500 
L 3475 3500 
L 3475 0 
L 2900 0 
L 2900 538 
Q 2691 219 2414 64 
Q 2138 -91 1772 -91 
Q 1169 -91 856 284 
Q 544 659 544 1381 
z
M 1991 3584 
L 1991 3584 
z
" transform="scale(0.015625)"/>
      <path id="DejaVuSans-66" d="M 2375 4863 
L 2375 4384 
L 1825 4384 
Q 1516 4384 1395 4259 
Q 1275 4134 1275 3809 
L 1275 3500 
L 2222 3500 
L 2222 3053 
L 1275 3053 
L 1275 0 
L 697 0 
L 697 3053 
L 147 3053 
L 147 3500 
L 697 3500 
L 697 3744 
Q 697 4328 969 4595 
Q 1241 4863 1831 4863 
L 2375 4863 
z
" transform="scale(0.015625)"/>
      <path id="DejaVuSans-6d" d="M 3328 2828 
Q 3544 3216 3844 3400 
Q 4144 3584 4550 3584 
Q 5097 3584 5394 3201 
Q 5691 2819 5691 2113 
L 5691 0 
L 5113 0 
L 5113 2094 
Q 5113 2597 4934 2840 
Q 4756 3084 4391 3084 
Q 3944 3084 3684 2787 
Q 3425 2491 3425 1978 
L 3425 0 
L 2847 0 
L 2847 2094 
Q 2847 2600 2669 2842 
Q 2491 3084 2119 3084 
Q 1678 3084 1418 2786 
Q 1159 2488 1159 1978 
L 1159 0 
L 581 0 
L 581 3500 
L 1159 3500 
L 1159 2956 
Q 1356 3278 1631 3431 
Q 1906 3584 2284 3584 
Q 2666 3584 2933 3390 
Q 3200 3197 3328 2828 
z
" transform="scale(0.015625)"/>
     </defs>
     <use xlink:href="#DejaVuSans-42"/>
     <use xlink:href="#DejaVuSans-6f" transform="translate(68.603516 0)"/>
     <use xlink:href="#DejaVuSans-6f" transform="translate(129.785156 0)"/>
     <use xlink:href="#DejaVuSans-74" transform="translate(190.966797 0)"/>
     <use xlink:href="#DejaVuSans-73" transform="translate(230.175781 0)"/>
     <use xlink:href="#DejaVuSans-74" transform="translate(282.275391 0)"/>
     <use xlink:href="#DejaVuSans-72" transform="translate(321.484375 0)"/>
     <use xlink:href="#DejaVuSans-61" transform="translate(362.597656 0)"/>
     <use xlink:href="#DejaVuSans-70" transform="translate(423.876953 0)"/>
     <use xlink:href="#DejaVuSans-20" transform="translate(487.353516 0)"/>
     <use xlink:href="#DejaVuSans-64" transform="translate(519.140625 0)"/>
     <use xlink:href="#DejaVuSans-69" transform="translate(582.617188 0)"/>
     <use xlink:href="#DejaVuSans-73" transform="translate(610.400391 0)"/>
     <use xlink:href="#DejaVuSans-74" transform="translate(662.5 0)"/>
     <use xlink:href="#DejaVuSans-72" transform="translate(701.708984 0)"/>
     <use xlink:href="#DejaVuSans-69" transform="translate(742.822266 0)"/>
     <use xlink:href="#DejaVuSans-62" transform="translate(770.605469 0)"/>
     <use xlink:href="#DejaVuSans-75" transform="translate(834.082031 0)"/>
     <use xlink:href="#DejaVuSans-74" transform="translate(897.460938 0)"/>
     <use xlink:href="#DejaVuSans-69" transform="translate(936.669922 0)"/>
     <use xlink:href="#DejaVuSans-6f" transform="translate(964.453125 0)"/>
     <use xlink:href="#DejaVuSans-6e" transform="translate(1025.634766 0)"/>
     <use xlink:href="#DejaVuSans-73" transform="translate(1089.013672 0)"/>
     <use xlink:href="#DejaVuSans-20" transform="translate(1141.113281 0)"/>
     <use xlink:href="#DejaVuSans-6f" transform="translate(1172.900391 0)"/>
     <use xlink:href="#DejaVuSans-66" transform="translate(1234.082031 0)"/>
     <use xlink:href="#DejaVuSans-20" transform="translate(1269.287109 0)"/>
     <use xlink:href="#DejaVuSans-41" transform="translate(1301.074219 0)"/>
     <use xlink:href="#DejaVuSans-54" transform="translate(1361.732422 0)"/>
     <use xlink:href="#DejaVuSans-45" transform="translate(1422.816406 0)"/>
     <use xlink:href="#DejaVuSans-20" transform="translate(1486 0)"/>
     <use xlink:href="#DejaVuSans-65" transform="translate(1517.787109 0)"/>
     <use xlink:href="#DejaVuSans-73" transform="translate(1579.310547 0)"/>
     <use xlink:href="#DejaVuSans-74" transform="translate(1631.410156 0)"/>
     <use xlink:href="#DejaVuSans-69" transform="translate(1670.619141 0)"/>
     <use xlink:href="#DejaVuSans-6d" transform="translate(1698.402344 0)"/>
     <use xlink:href="#DejaVuSans-61" transform="translate(1795.814453 0)"/>
     <use xlink:href="#DejaVuSans-74" transform="translate(1857.09375 0)"/>
     <use xlink:href="#DejaVuSans-65" transform="translate(1896.302734 0)"/>
     <use xlink:href="#DejaVuSans-73" transform="translate(1957.826172 0)"/>
    </g>
   </g>
  </g>
  <g id="axes_2">
   <g id="patch_7">
    <path d="M 471.695938 311.70175 
L 848.235937 311.70175 
L 848.235937 24.14175 
L 471.695938 24.14175 
z
" style="fill: #e5e5e5"/>
   </g>
   <g id="matplotlib.axis_3">
    <g id="xtick_4">
     <g id="line2d_21">
      <path d="M 482.672923 311.70175 
L 482.672923 24.14175 
" clip-path="url(#pc9cde5f8f6)" style="fill: none; stroke: #ffffff; stroke-width: 0.8; stroke-linecap: square"/>
     </g>
     <g id="line2d_22">
      <g>
       <use xlink:href="#m9e607a6e1f" x="482.672923" y="311.70175" style="fill: #555555; stroke: #555555; stroke-width: 0.8"/>
      </g>
     </g>
     <g id="text_11">
      <!-- 0.0 -->
      <g style="fill: #555555" transform="translate(474.72136 326.300187) scale(0.1 -0.1)">
       <defs>
        <path id="DejaVuSans-2e" d="M 684 794 
L 1344 794 
L 1344 0 
L 684 0 
L 684 794 
z
" transform="scale(0.015625)"/>
       </defs>
       <use xlink:href="#DejaVuSans-30"/>
       <use xlink:href="#DejaVuSans-2e" transform="translate(63.623047 0)"/>
       <use xlink:href="#DejaVuSans-30" transform="translate(95.410156 0)"/>
      </g>
     </g>
    </g>
    <g id="xtick_5">
     <g id="line2d_23">
      <path d="M 557.414621 311.70175 
L 557.414621 24.14175 
" clip-path="url(#pc9cde5f8f6)" style="fill: none; stroke: #ffffff; stroke-width: 0.8; stroke-linecap: square"/>
     </g>
     <g id="line2d_24">
      <g>
       <use xlink:href="#m9e607a6e1f" x="557.414621" y="311.70175" style="fill: #555555; stroke: #555555; stroke-width: 0.8"/>
      </g>
     </g>
     <g id="text_12">
      <!-- 0.2 -->
      <g style="fill: #555555" transform="translate(549.463059 326.300187) scale(0.1 -0.1)">
       <use xlink:href="#DejaVuSans-30"/>
       <use xlink:href="#DejaVuSans-2e" transform="translate(63.623047 0)"/>
       <use xlink:href="#DejaVuSans-32" transform="translate(95.410156 0)"/>
      </g>
     </g>
    </g>
    <g id="xtick_6">
     <g id="line2d_25">
      <path d="M 632.15632 311.70175 
L 632.15632 24.14175 
" clip-path="url(#pc9cde5f8f6)" style="fill: none; stroke: #ffffff; stroke-width: 0.8; stroke-linecap: square"/>
     </g>
     <g id="line2d_26">
      <g>
       <use xlink:href="#m9e607a6e1f" x="632.15632" y="311.70175" style="fill: #555555; stroke: #555555; stroke-width: 0.8"/>
      </g>
     </g>
     <g id="text_13">
      <!-- 0.4 -->
      <g style="fill: #555555" transform="translate(624.204758 326.300187) scale(0.1 -0.1)">
       <use xlink:href="#DejaVuSans-30"/>
       <use xlink:href="#DejaVuSans-2e" transform="translate(63.623047 0)"/>
       <use xlink:href="#DejaVuSans-34" transform="translate(95.410156 0)"/>
      </g>
     </g>
    </g>
    <g id="xtick_7">
     <g id="line2d_27">
      <path d="M 706.898019 311.70175 
L 706.898019 24.14175 
" clip-path="url(#pc9cde5f8f6)" style="fill: none; stroke: #ffffff; stroke-width: 0.8; stroke-linecap: square"/>
     </g>
     <g id="line2d_28">
      <g>
       <use xlink:href="#m9e607a6e1f" x="706.898019" y="311.70175" style="fill: #555555; stroke: #555555; stroke-width: 0.8"/>
      </g>
     </g>
     <g id="text_14">
      <!-- 0.6 -->
      <g style="fill: #555555" transform="translate(698.946457 326.300187) scale(0.1 -0.1)">
       <defs>
        <path id="DejaVuSans-36" d="M 2113 2584 
Q 1688 2584 1439 2293 
Q 1191 2003 1191 1497 
Q 1191 994 1439 701 
Q 1688 409 2113 409 
Q 2538 409 2786 701 
Q 3034 994 3034 1497 
Q 3034 2003 2786 2293 
Q 2538 2584 2113 2584 
z
M 3366 4563 
L 3366 3988 
Q 3128 4100 2886 4159 
Q 2644 4219 2406 4219 
Q 1781 4219 1451 3797 
Q 1122 3375 1075 2522 
Q 1259 2794 1537 2939 
Q 1816 3084 2150 3084 
Q 2853 3084 3261 2657 
Q 3669 2231 3669 1497 
Q 3669 778 3244 343 
Q 2819 -91 2113 -91 
Q 1303 -91 875 529 
Q 447 1150 447 2328 
Q 447 3434 972 4092 
Q 1497 4750 2381 4750 
Q 2619 4750 2861 4703 
Q 3103 4656 3366 4563 
z
" transform="scale(0.015625)"/>
       </defs>
       <use xlink:href="#DejaVuSans-30"/>
       <use xlink:href="#DejaVuSans-2e" transform="translate(63.623047 0)"/>
       <use xlink:href="#DejaVuSans-36" transform="translate(95.410156 0)"/>
      </g>
     </g>
    </g>
    <g id="xtick_8">
     <g id="line2d_29">
      <path d="M 781.639718 311.70175 
L 781.639718 24.14175 
" clip-path="url(#pc9cde5f8f6)" style="fill: none; stroke: #ffffff; stroke-width: 0.8; stroke-linecap: square"/>
     </g>
     <g id="line2d_30">
      <g>
       <use xlink:href="#m9e607a6e1f" x="781.639718" y="311.70175" style="fill: #555555; stroke: #555555; stroke-width: 0.8"/>
      </g>
     </g>
     <g id="text_15">
      <!-- 0.8 -->
      <g style="fill: #555555" transform="translate(773.688155 326.300187) scale(0.1 -0.1)">
       <defs>
        <path id="DejaVuSans-38" d="M 2034 2216 
Q 1584 2216 1326 1975 
Q 1069 1734 1069 1313 
Q 1069 891 1326 650 
Q 1584 409 2034 409 
Q 2484 409 2743 651 
Q 3003 894 3003 1313 
Q 3003 1734 2745 1975 
Q 2488 2216 2034 2216 
z
M 1403 2484 
Q 997 2584 770 2862 
Q 544 3141 544 3541 
Q 544 4100 942 4425 
Q 1341 4750 2034 4750 
Q 2731 4750 3128 4425 
Q 3525 4100 3525 3541 
Q 3525 3141 3298 2862 
Q 3072 2584 2669 2484 
Q 3125 2378 3379 2068 
Q 3634 1759 3634 1313 
Q 3634 634 3220 271 
Q 2806 -91 2034 -91 
Q 1263 -91 848 271 
Q 434 634 434 1313 
Q 434 1759 690 2068 
Q 947 2378 1403 2484 
z
M 1172 3481 
Q 1172 3119 1398 2916 
Q 1625 2713 2034 2713 
Q 2441 2713 2670 2916 
Q 2900 3119 2900 3481 
Q 2900 3844 2670 4047 
Q 2441 4250 2034 4250 
Q 1625 4250 1398 4047 
Q 1172 3844 1172 3481 
z
" transform="scale(0.015625)"/>
       </defs>
       <use xlink:href="#DejaVuSans-30"/>
       <use xlink:href="#DejaVuSans-2e" transform="translate(63.623047 0)"/>
       <use xlink:href="#DejaVuSans-38" transform="translate(95.410156 0)"/>
      </g>
     </g>
    </g>
    <g id="text_16">
     <!-- Propensity score -->
     <g style="fill: #555555" transform="translate(610.424688 341.498) scale(0.12 -0.12)">
      <defs>
       <path id="DejaVuSans-79" d="M 2059 -325 
Q 1816 -950 1584 -1140 
Q 1353 -1331 966 -1331 
L 506 -1331 
L 506 -850 
L 844 -850 
Q 1081 -850 1212 -737 
Q 1344 -625 1503 -206 
L 1606 56 
L 191 3500 
L 800 3500 
L 1894 763 
L 2988 3500 
L 3597 3500 
L 2059 -325 
z
" transform="scale(0.015625)"/>
       <path id="DejaVuSans-63" d="M 3122 3366 
L 3122 2828 
Q 2878 2963 2633 3030 
Q 2388 3097 2138 3097 
Q 1578 3097 1268 2742 
Q 959 2388 959 1747 
Q 959 1106 1268 751 
Q 1578 397 2138 397 
Q 2388 397 2633 464 
Q 2878 531 3122 666 
L 3122 134 
Q 2881 22 2623 -34 
Q 2366 -91 2075 -91 
Q 1284 -91 818 406 
Q 353 903 353 1747 
Q 353 2603 823 3093 
Q 1294 3584 2113 3584 
Q 2378 3584 2631 3529 
Q 2884 3475 3122 3366 
z
" transform="scale(0.015625)"/>
      </defs>
      <use xlink:href="#DejaVuSans-50"/>
      <use xlink:href="#DejaVuSans-72" transform="translate(58.552734 0)"/>
      <use xlink:href="#DejaVuSans-6f" transform="translate(97.416016 0)"/>
      <use xlink:href="#DejaVuSans-70" transform="translate(158.597656 0)"/>
      <use xlink:href="#DejaVuSans-65" transform="translate(222.074219 0)"/>
      <use xlink:href="#DejaVuSans-6e" transform="translate(283.597656 0)"/>
      <use xlink:href="#DejaVuSans-73" transform="translate(346.976562 0)"/>
      <use xlink:href="#DejaVuSans-69" transform="translate(399.076172 0)"/>
      <use xlink:href="#DejaVuSans-74" transform="translate(426.859375 0)"/>
      <use xlink:href="#DejaVuSans-79" transform="translate(466.068359 0)"/>
      <use xlink:href="#DejaVuSans-20" transform="translate(525.248047 0)"/>
      <use xlink:href="#DejaVuSans-73" transform="translate(557.035156 0)"/>
      <use xlink:href="#DejaVuSans-63" transform="translate(609.134766 0)"/>
      <use xlink:href="#DejaVuSans-6f" transform="translate(664.115234 0)"/>
      <use xlink:href="#DejaVuSans-72" transform="translate(725.296875 0)"/>
      <use xlink:href="#DejaVuSans-65" transform="translate(764.160156 0)"/>
     </g>
    </g>
   </g>
   <g id="matplotlib.axis_4">
    <g id="ytick_6">
     <g id="line2d_31">
      <path d="M 471.695938 311.70175 
L 848.235937 311.70175 
" clip-path="url(#pc9cde5f8f6)" style="fill: none; stroke: #ffffff; stroke-width: 0.8; stroke-linecap: square"/>
     </g>
     <g id="line2d_32">
      <g>
       <use xlink:href="#m943c80a88b" x="471.695938" y="311.70175" style="fill: #555555; stroke: #555555; stroke-width: 0.8"/>
      </g>
     </g>
     <g id="text_17">
      <!-- 0.0 -->
      <g style="fill: #555555" transform="translate(448.792813 315.500969) scale(0.1 -0.1)">
       <use xlink:href="#DejaVuSans-30"/>
       <use xlink:href="#DejaVuSans-2e" transform="translate(63.623047 0)"/>
       <use xlink:href="#DejaVuSans-30" transform="translate(95.410156 0)"/>
      </g>
     </g>
    </g>
    <g id="ytick_7">
     <g id="line2d_33">
      <path d="M 471.695938 277.911775 
L 848.235937 277.911775 
" clip-path="url(#pc9cde5f8f6)" style="fill: none; stroke: #ffffff; stroke-width: 0.8; stroke-linecap: square"/>
     </g>
     <g id="line2d_34">
      <g>
       <use xlink:href="#m943c80a88b" x="471.695938" y="277.911775" style="fill: #555555; stroke: #555555; stroke-width: 0.8"/>
      </g>
     </g>
     <g id="text_18">
      <!-- 0.5 -->
      <g style="fill: #555555" transform="translate(448.792813 281.710994) scale(0.1 -0.1)">
       <defs>
        <path id="DejaVuSans-35" d="M 691 4666 
L 3169 4666 
L 3169 4134 
L 1269 4134 
L 1269 2991 
Q 1406 3038 1543 3061 
Q 1681 3084 1819 3084 
Q 2600 3084 3056 2656 
Q 3513 2228 3513 1497 
Q 3513 744 3044 326 
Q 2575 -91 1722 -91 
Q 1428 -91 1123 -41 
Q 819 9 494 109 
L 494 744 
Q 775 591 1075 516 
Q 1375 441 1709 441 
Q 2250 441 2565 725 
Q 2881 1009 2881 1497 
Q 2881 1984 2565 2268 
Q 2250 2553 1709 2553 
Q 1456 2553 1204 2497 
Q 953 2441 691 2322 
L 691 4666 
z
" transform="scale(0.015625)"/>
       </defs>
       <use xlink:href="#DejaVuSans-30"/>
       <use xlink:href="#DejaVuSans-2e" transform="translate(63.623047 0)"/>
       <use xlink:href="#DejaVuSans-35" transform="translate(95.410156 0)"/>
      </g>
     </g>
    </g>
    <g id="ytick_8">
     <g id="line2d_35">
      <path d="M 471.695938 244.1218 
L 848.235937 244.1218 
" clip-path="url(#pc9cde5f8f6)" style="fill: none; stroke: #ffffff; stroke-width: 0.8; stroke-linecap: square"/>
     </g>
     <g id="line2d_36">
      <g>
       <use xlink:href="#m943c80a88b" x="471.695938" y="244.1218" style="fill: #555555; stroke: #555555; stroke-width: 0.8"/>
      </g>
     </g>
     <g id="text_19">
      <!-- 1.0 -->
      <g style="fill: #555555" transform="translate(448.792813 247.921019) scale(0.1 -0.1)">
       <use xlink:href="#DejaVuSans-31"/>
       <use xlink:href="#DejaVuSans-2e" transform="translate(63.623047 0)"/>
       <use xlink:href="#DejaVuSans-30" transform="translate(95.410156 0)"/>
      </g>
     </g>
    </g>
    <g id="ytick_9">
     <g id="line2d_37">
      <path d="M 471.695938 210.331825 
L 848.235937 210.331825 
" clip-path="url(#pc9cde5f8f6)" style="fill: none; stroke: #ffffff; stroke-width: 0.8; stroke-linecap: square"/>
     </g>
     <g id="line2d_38">
      <g>
       <use xlink:href="#m943c80a88b" x="471.695938" y="210.331825" style="fill: #555555; stroke: #555555; stroke-width: 0.8"/>
      </g>
     </g>
     <g id="text_20">
      <!-- 1.5 -->
      <g style="fill: #555555" transform="translate(448.792813 214.131044) scale(0.1 -0.1)">
       <use xlink:href="#DejaVuSans-31"/>
       <use xlink:href="#DejaVuSans-2e" transform="translate(63.623047 0)"/>
       <use xlink:href="#DejaVuSans-35" transform="translate(95.410156 0)"/>
      </g>
     </g>
    </g>
    <g id="ytick_10">
     <g id="line2d_39">
      <path d="M 471.695938 176.54185 
L 848.235937 176.54185 
" clip-path="url(#pc9cde5f8f6)" style="fill: none; stroke: #ffffff; stroke-width: 0.8; stroke-linecap: square"/>
     </g>
     <g id="line2d_40">
      <g>
       <use xlink:href="#m943c80a88b" x="471.695938" y="176.54185" style="fill: #555555; stroke: #555555; stroke-width: 0.8"/>
      </g>
     </g>
     <g id="text_21">
      <!-- 2.0 -->
      <g style="fill: #555555" transform="translate(448.792813 180.341069) scale(0.1 -0.1)">
       <use xlink:href="#DejaVuSans-32"/>
       <use xlink:href="#DejaVuSans-2e" transform="translate(63.623047 0)"/>
       <use xlink:href="#DejaVuSans-30" transform="translate(95.410156 0)"/>
      </g>
     </g>
    </g>
    <g id="ytick_11">
     <g id="line2d_41">
      <path d="M 471.695938 142.751875 
L 848.235937 142.751875 
" clip-path="url(#pc9cde5f8f6)" style="fill: none; stroke: #ffffff; stroke-width: 0.8; stroke-linecap: square"/>
     </g>
     <g id="line2d_42">
      <g>
       <use xlink:href="#m943c80a88b" x="471.695938" y="142.751875" style="fill: #555555; stroke: #555555; stroke-width: 0.8"/>
      </g>
     </g>
     <g id="text_22">
      <!-- 2.5 -->
      <g style="fill: #555555" transform="translate(448.792813 146.551094) scale(0.1 -0.1)">
       <use xlink:href="#DejaVuSans-32"/>
       <use xlink:href="#DejaVuSans-2e" transform="translate(63.623047 0)"/>
       <use xlink:href="#DejaVuSans-35" transform="translate(95.410156 0)"/>
      </g>
     </g>
    </g>
    <g id="ytick_12">
     <g id="line2d_43">
      <path d="M 471.695938 108.9619 
L 848.235937 108.9619 
" clip-path="url(#pc9cde5f8f6)" style="fill: none; stroke: #ffffff; stroke-width: 0.8; stroke-linecap: square"/>
     </g>
     <g id="line2d_44">
      <g>
       <use xlink:href="#m943c80a88b" x="471.695938" y="108.9619" style="fill: #555555; stroke: #555555; stroke-width: 0.8"/>
      </g>
     </g>
     <g id="text_23">
      <!-- 3.0 -->
      <g style="fill: #555555" transform="translate(448.792813 112.761119) scale(0.1 -0.1)">
       <use xlink:href="#DejaVuSans-33"/>
       <use xlink:href="#DejaVuSans-2e" transform="translate(63.623047 0)"/>
       <use xlink:href="#DejaVuSans-30" transform="translate(95.410156 0)"/>
      </g>
     </g>
    </g>
    <g id="ytick_13">
     <g id="line2d_45">
      <path d="M 471.695938 75.171925 
L 848.235937 75.171925 
" clip-path="url(#pc9cde5f8f6)" style="fill: none; stroke: #ffffff; stroke-width: 0.8; stroke-linecap: square"/>
     </g>
     <g id="line2d_46">
      <g>
       <use xlink:href="#m943c80a88b" x="471.695938" y="75.171925" style="fill: #555555; stroke: #555555; stroke-width: 0.8"/>
      </g>
     </g>
     <g id="text_24">
      <!-- 3.5 -->
      <g style="fill: #555555" transform="translate(448.792813 78.971144) scale(0.1 -0.1)">
       <use xlink:href="#DejaVuSans-33"/>
       <use xlink:href="#DejaVuSans-2e" transform="translate(63.623047 0)"/>
       <use xlink:href="#DejaVuSans-35" transform="translate(95.410156 0)"/>
      </g>
     </g>
    </g>
    <g id="ytick_14">
     <g id="line2d_47">
      <path d="M 471.695938 41.38195 
L 848.235937 41.38195 
" clip-path="url(#pc9cde5f8f6)" style="fill: none; stroke: #ffffff; stroke-width: 0.8; stroke-linecap: square"/>
     </g>
     <g id="line2d_48">
      <g>
       <use xlink:href="#m943c80a88b" x="471.695938" y="41.38195" style="fill: #555555; stroke: #555555; stroke-width: 0.8"/>
      </g>
     </g>
     <g id="text_25">
      <!-- 4.0 -->
      <g style="fill: #555555" transform="translate(448.792813 45.181169) scale(0.1 -0.1)">
       <use xlink:href="#DejaVuSans-34"/>
       <use xlink:href="#DejaVuSans-2e" transform="translate(63.623047 0)"/>
       <use xlink:href="#DejaVuSans-30" transform="translate(95.410156 0)"/>
      </g>
     </g>
    </g>
    <g id="text_26">
     <!-- Density -->
     <g style="fill: #555555" transform="translate(442.297188 190.732062) rotate(-90) scale(0.12 -0.12)">
      <defs>
       <path id="DejaVuSans-44" d="M 1259 4147 
L 1259 519 
L 2022 519 
Q 2988 519 3436 956 
Q 3884 1394 3884 2338 
Q 3884 3275 3436 3711 
Q 2988 4147 2022 4147 
L 1259 4147 
z
M 628 4666 
L 1925 4666 
Q 3281 4666 3915 4102 
Q 4550 3538 4550 2338 
Q 4550 1131 3912 565 
Q 3275 0 1925 0 
L 628 0 
L 628 4666 
z
" transform="scale(0.015625)"/>
      </defs>
      <use xlink:href="#DejaVuSans-44"/>
      <use xlink:href="#DejaVuSans-65" transform="translate(77.001953 0)"/>
      <use xlink:href="#DejaVuSans-6e" transform="translate(138.525391 0)"/>
      <use xlink:href="#DejaVuSans-73" transform="translate(201.904297 0)"/>
      <use xlink:href="#DejaVuSans-69" transform="translate(254.003906 0)"/>
      <use xlink:href="#DejaVuSans-74" transform="translate(281.787109 0)"/>
      <use xlink:href="#DejaVuSans-79" transform="translate(320.996094 0)"/>
     </g>
    </g>
   </g>
   <g id="patch_8">
    <path d="M 495.573697 311.70175 
L 506.758589 311.70175 
L 506.758589 298.385081 
L 495.573697 298.385081 
z
" clip-path="url(#pc9cde5f8f6)" style="fill: #e24a33; opacity: 0.6"/>
   </g>
   <g id="patch_9">
    <path d="M 506.758589 311.70175 
L 517.943482 311.70175 
L 517.943482 284.535746 
L 506.758589 284.535746 
z
" clip-path="url(#pc9cde5f8f6)" style="fill: #e24a33; opacity: 0.6"/>
   </g>
   <g id="patch_10">
    <path d="M 517.943482 311.70175 
L 529.128375 311.70175 
L 529.128375 270.68641 
L 517.943482 270.68641 
z
" clip-path="url(#pc9cde5f8f6)" style="fill: #e24a33; opacity: 0.6"/>
   </g>
   <g id="patch_11">
    <path d="M 529.128375 311.70175 
L 540.313268 311.70175 
L 540.313268 274.415077 
L 529.128375 274.415077 
z
" clip-path="url(#pc9cde5f8f6)" style="fill: #e24a33; opacity: 0.6"/>
   </g>
   <g id="patch_12">
    <path d="M 540.313268 311.70175 
L 551.498161 311.70175 
L 551.498161 261.098409 
L 540.313268 261.098409 
z
" clip-path="url(#pc9cde5f8f6)" style="fill: #e24a33; opacity: 0.6"/>
   </g>
   <g id="patch_13">
    <path d="M 551.498161 311.70175 
L 562.683054 311.70175 
L 562.683054 263.229076 
L 551.498161 263.229076 
z
" clip-path="url(#pc9cde5f8f6)" style="fill: #e24a33; opacity: 0.6"/>
   </g>
   <g id="patch_14">
    <path d="M 562.683054 311.70175 
L 573.867947 311.70175 
L 573.867947 245.118406 
L 562.683054 245.118406 
z
" clip-path="url(#pc9cde5f8f6)" style="fill: #e24a33; opacity: 0.6"/>
   </g>
   <g id="patch_15">
    <path d="M 573.867947 311.70175 
L 585.05284 311.70175 
L 585.05284 239.259072 
L 573.867947 239.259072 
z
" clip-path="url(#pc9cde5f8f6)" style="fill: #e24a33; opacity: 0.6"/>
   </g>
   <g id="patch_16">
    <path d="M 585.05284 311.70175 
L 596.237732 311.70175 
L 596.237732 231.801737 
L 585.05284 231.801737 
z
" clip-path="url(#pc9cde5f8f6)" style="fill: #e24a33; opacity: 0.6"/>
   </g>
   <g id="patch_17">
    <path d="M 596.237732 311.70175 
L 607.422625 311.70175 
L 607.422625 237.661072 
L 596.237732 237.661072 
z
" clip-path="url(#pc9cde5f8f6)" style="fill: #e24a33; opacity: 0.6"/>
   </g>
   <g id="patch_18">
    <path d="M 607.422625 311.70175 
L 618.607518 311.70175 
L 618.607518 227.007736 
L 607.422625 227.007736 
z
" clip-path="url(#pc9cde5f8f6)" style="fill: #e24a33; opacity: 0.6"/>
   </g>
   <g id="patch_19">
    <path d="M 618.607518 311.70175 
L 629.792411 311.70175 
L 629.792411 225.409736 
L 618.607518 225.409736 
z
" clip-path="url(#pc9cde5f8f6)" style="fill: #e24a33; opacity: 0.6"/>
   </g>
   <g id="patch_20">
    <path d="M 629.792411 311.70175 
L 640.977304 311.70175 
L 640.977304 221.148402 
L 629.792411 221.148402 
z
" clip-path="url(#pc9cde5f8f6)" style="fill: #e24a33; opacity: 0.6"/>
   </g>
   <g id="patch_21">
    <path d="M 640.977304 311.70175 
L 652.162197 311.70175 
L 652.162197 210.495067 
L 640.977304 210.495067 
z
" clip-path="url(#pc9cde5f8f6)" style="fill: #e24a33; opacity: 0.6"/>
   </g>
   <g id="patch_22">
    <path d="M 652.162197 311.70175 
L 663.34709 311.70175 
L 663.34709 212.093067 
L 652.162197 212.093067 
z
" clip-path="url(#pc9cde5f8f6)" style="fill: #e24a33; opacity: 0.6"/>
   </g>
   <g id="patch_23">
    <path d="M 663.34709 311.70175 
L 674.531983 311.70175 
L 674.531983 216.354401 
L 663.34709 216.354401 
z
" clip-path="url(#pc9cde5f8f6)" style="fill: #e24a33; opacity: 0.6"/>
   </g>
   <g id="patch_24">
    <path d="M 674.531983 311.70175 
L 685.716876 311.70175 
L 685.716876 204.635733 
L 674.531983 204.635733 
z
" clip-path="url(#pc9cde5f8f6)" style="fill: #e24a33; opacity: 0.6"/>
   </g>
   <g id="patch_25">
    <path d="M 685.716876 311.70175 
L 696.901768 311.70175 
L 696.901768 201.972399 
L 685.716876 201.972399 
z
" clip-path="url(#pc9cde5f8f6)" style="fill: #e24a33; opacity: 0.6"/>
   </g>
   <g id="patch_26">
    <path d="M 696.901768 311.70175 
L 708.086661 311.70175 
L 708.086661 210.495067 
L 696.901768 210.495067 
z
" clip-path="url(#pc9cde5f8f6)" style="fill: #e24a33; opacity: 0.6"/>
   </g>
   <g id="patch_27">
    <path d="M 708.086661 311.70175 
L 719.271554 311.70175 
L 719.271554 212.093067 
L 708.086661 212.093067 
z
" clip-path="url(#pc9cde5f8f6)" style="fill: #e24a33; opacity: 0.6"/>
   </g>
   <g id="patch_28">
    <path d="M 719.271554 311.70175 
L 730.456447 311.70175 
L 730.456447 213.158401 
L 719.271554 213.158401 
z
" clip-path="url(#pc9cde5f8f6)" style="fill: #e24a33; opacity: 0.6"/>
   </g>
   <g id="patch_29">
    <path d="M 730.456447 311.70175 
L 741.64134 311.70175 
L 741.64134 222.213736 
L 730.456447 222.213736 
z
" clip-path="url(#pc9cde5f8f6)" style="fill: #e24a33; opacity: 0.6"/>
   </g>
   <g id="patch_30">
    <path d="M 741.64134 311.70175 
L 752.826233 311.70175 
L 752.826233 232.334404 
L 741.64134 232.334404 
z
" clip-path="url(#pc9cde5f8f6)" style="fill: #e24a33; opacity: 0.6"/>
   </g>
   <g id="patch_31">
    <path d="M 752.826233 311.70175 
L 764.011126 311.70175 
L 764.011126 204.635733 
L 752.826233 204.635733 
z
" clip-path="url(#pc9cde5f8f6)" style="fill: #e24a33; opacity: 0.6"/>
   </g>
   <g id="patch_32">
    <path d="M 764.011126 311.70175 
L 775.196019 311.70175 
L 775.196019 229.138404 
L 764.011126 229.138404 
z
" clip-path="url(#pc9cde5f8f6)" style="fill: #e24a33; opacity: 0.6"/>
   </g>
   <g id="patch_33">
    <path d="M 775.196019 311.70175 
L 786.380911 311.70175 
L 786.380911 226.47507 
L 775.196019 226.47507 
z
" clip-path="url(#pc9cde5f8f6)" style="fill: #e24a33; opacity: 0.6"/>
   </g>
   <g id="patch_34">
    <path d="M 786.380911 311.70175 
L 797.565804 311.70175 
L 797.565804 225.409736 
L 786.380911 225.409736 
z
" clip-path="url(#pc9cde5f8f6)" style="fill: #e24a33; opacity: 0.6"/>
   </g>
   <g id="patch_35">
    <path d="M 797.565804 311.70175 
L 808.750697 311.70175 
L 808.750697 240.857072 
L 797.565804 240.857072 
z
" clip-path="url(#pc9cde5f8f6)" style="fill: #e24a33; opacity: 0.6"/>
   </g>
   <g id="patch_36">
    <path d="M 808.750697 311.70175 
L 819.93559 311.70175 
L 819.93559 254.706408 
L 808.750697 254.706408 
z
" clip-path="url(#pc9cde5f8f6)" style="fill: #e24a33; opacity: 0.6"/>
   </g>
   <g id="patch_37">
    <path d="M 819.93559 311.70175 
L 831.120483 311.70175 
L 831.120483 296.254414 
L 819.93559 296.254414 
z
" clip-path="url(#pc9cde5f8f6)" style="fill: #e24a33; opacity: 0.6"/>
   </g>
   <g id="patch_38">
    <path d="M 488.811392 311.70175 
L 499.607707 311.70175 
L 499.607707 117.607528 
L 488.811392 117.607528 
z
" clip-path="url(#pc9cde5f8f6)" style="fill: #348abd; opacity: 0.6"/>
   </g>
   <g id="patch_39">
    <path d="M 499.607707 311.70175 
L 510.404023 311.70175 
L 510.404023 37.835083 
L 499.607707 37.835083 
z
" clip-path="url(#pc9cde5f8f6)" style="fill: #348abd; opacity: 0.6"/>
   </g>
   <g id="patch_40">
    <path d="M 510.404023 311.70175 
L 521.200338 311.70175 
L 521.200338 95.979083 
L 510.404023 95.979083 
z
" clip-path="url(#pc9cde5f8f6)" style="fill: #348abd; opacity: 0.6"/>
   </g>
   <g id="patch_41">
    <path d="M 521.200338 311.70175 
L 531.996653 311.70175 
L 531.996653 124.348861 
L 521.200338 124.348861 
z
" clip-path="url(#pc9cde5f8f6)" style="fill: #348abd; opacity: 0.6"/>
   </g>
   <g id="patch_42">
    <path d="M 531.996653 311.70175 
L 542.792968 311.70175 
L 542.792968 165.639528 
L 531.996653 165.639528 
z
" clip-path="url(#pc9cde5f8f6)" style="fill: #348abd; opacity: 0.6"/>
   </g>
   <g id="patch_43">
    <path d="M 542.792968 311.70175 
L 553.589284 311.70175 
L 553.589284 187.548861 
L 542.792968 187.548861 
z
" clip-path="url(#pc9cde5f8f6)" style="fill: #348abd; opacity: 0.6"/>
   </g>
   <g id="patch_44">
    <path d="M 553.589284 311.70175 
L 564.385599 311.70175 
L 564.385599 180.807528 
L 553.589284 180.807528 
z
" clip-path="url(#pc9cde5f8f6)" style="fill: #348abd; opacity: 0.6"/>
   </g>
   <g id="patch_45">
    <path d="M 564.385599 311.70175 
L 575.181914 311.70175 
L 575.181914 187.267972 
L 564.385599 187.267972 
z
" clip-path="url(#pc9cde5f8f6)" style="fill: #348abd; opacity: 0.6"/>
   </g>
   <g id="patch_46">
    <path d="M 575.181914 311.70175 
L 585.97823 311.70175 
L 585.97823 197.94175 
L 575.181914 197.94175 
z
" clip-path="url(#pc9cde5f8f6)" style="fill: #348abd; opacity: 0.6"/>
   </g>
   <g id="patch_47">
    <path d="M 585.97823 311.70175 
L 596.774545 311.70175 
L 596.774545 220.131972 
L 585.97823 220.131972 
z
" clip-path="url(#pc9cde5f8f6)" style="fill: #348abd; opacity: 0.6"/>
   </g>
   <g id="patch_48">
    <path d="M 596.774545 311.70175 
L 607.57086 311.70175 
L 607.57086 217.042194 
L 596.774545 217.042194 
z
" clip-path="url(#pc9cde5f8f6)" style="fill: #348abd; opacity: 0.6"/>
   </g>
   <g id="patch_49">
    <path d="M 607.57086 311.70175 
L 618.367175 311.70175 
L 618.367175 228.558639 
L 607.57086 228.558639 
z
" clip-path="url(#pc9cde5f8f6)" style="fill: #348abd; opacity: 0.6"/>
   </g>
   <g id="patch_50">
    <path d="M 618.367175 311.70175 
L 629.163491 311.70175 
L 629.163491 238.951528 
L 618.367175 238.951528 
z
" clip-path="url(#pc9cde5f8f6)" style="fill: #348abd; opacity: 0.6"/>
   </g>
   <g id="patch_51">
    <path d="M 629.163491 311.70175 
L 639.959806 311.70175 
L 639.959806 243.164861 
L 629.163491 243.164861 
z
" clip-path="url(#pc9cde5f8f6)" style="fill: #348abd; opacity: 0.6"/>
   </g>
   <g id="patch_52">
    <path d="M 639.959806 311.70175 
L 650.756121 311.70175 
L 650.756121 252.153306 
L 639.959806 252.153306 
z
" clip-path="url(#pc9cde5f8f6)" style="fill: #348abd; opacity: 0.6"/>
   </g>
   <g id="patch_53">
    <path d="M 650.756121 311.70175 
L 661.552436 311.70175 
L 661.552436 259.737306 
L 650.756121 259.737306 
z
" clip-path="url(#pc9cde5f8f6)" style="fill: #348abd; opacity: 0.6"/>
   </g>
   <g id="patch_54">
    <path d="M 661.552436 311.70175 
L 672.348752 311.70175 
L 672.348752 261.703528 
L 661.552436 261.703528 
z
" clip-path="url(#pc9cde5f8f6)" style="fill: #348abd; opacity: 0.6"/>
   </g>
   <g id="patch_55">
    <path d="M 672.348752 311.70175 
L 683.145067 311.70175 
L 683.145067 268.72575 
L 672.348752 268.72575 
z
" clip-path="url(#pc9cde5f8f6)" style="fill: #348abd; opacity: 0.6"/>
   </g>
   <g id="patch_56">
    <path d="M 683.145067 311.70175 
L 693.941382 311.70175 
L 693.941382 273.500861 
L 683.145067 273.500861 
z
" clip-path="url(#pc9cde5f8f6)" style="fill: #348abd; opacity: 0.6"/>
   </g>
   <g id="patch_57">
    <path d="M 693.941382 311.70175 
L 704.737698 311.70175 
L 704.737698 281.646639 
L 693.941382 281.646639 
z
" clip-path="url(#pc9cde5f8f6)" style="fill: #348abd; opacity: 0.6"/>
   </g>
   <g id="patch_58">
    <path d="M 704.737698 311.70175 
L 715.534013 311.70175 
L 715.534013 278.83775 
L 704.737698 278.83775 
z
" clip-path="url(#pc9cde5f8f6)" style="fill: #348abd; opacity: 0.6"/>
   </g>
   <g id="patch_59">
    <path d="M 715.534013 311.70175 
L 726.330328 311.70175 
L 726.330328 284.455528 
L 715.534013 284.455528 
z
" clip-path="url(#pc9cde5f8f6)" style="fill: #348abd; opacity: 0.6"/>
   </g>
   <g id="patch_60">
    <path d="M 726.330328 311.70175 
L 737.126643 311.70175 
L 737.126643 293.163083 
L 726.330328 293.163083 
z
" clip-path="url(#pc9cde5f8f6)" style="fill: #348abd; opacity: 0.6"/>
   </g>
   <g id="patch_61">
    <path d="M 737.126643 311.70175 
L 747.922959 311.70175 
L 747.922959 292.320417 
L 737.126643 292.320417 
z
" clip-path="url(#pc9cde5f8f6)" style="fill: #348abd; opacity: 0.6"/>
   </g>
   <g id="patch_62">
    <path d="M 747.922959 311.70175 
L 758.719274 311.70175 
L 758.719274 298.780861 
L 747.922959 298.780861 
z
" clip-path="url(#pc9cde5f8f6)" style="fill: #348abd; opacity: 0.6"/>
   </g>
   <g id="patch_63">
    <path d="M 758.719274 311.70175 
L 769.515589 311.70175 
L 769.515589 299.342639 
L 758.719274 299.342639 
z
" clip-path="url(#pc9cde5f8f6)" style="fill: #348abd; opacity: 0.6"/>
   </g>
   <g id="patch_64">
    <path d="M 769.515589 311.70175 
L 780.311905 311.70175 
L 780.311905 302.432417 
L 769.515589 302.432417 
z
" clip-path="url(#pc9cde5f8f6)" style="fill: #348abd; opacity: 0.6"/>
   </g>
   <g id="patch_65">
    <path d="M 780.311905 311.70175 
L 791.10822 311.70175 
L 791.10822 304.679528 
L 780.311905 304.679528 
z
" clip-path="url(#pc9cde5f8f6)" style="fill: #348abd; opacity: 0.6"/>
   </g>
   <g id="patch_66">
    <path d="M 791.10822 311.70175 
L 801.904535 311.70175 
L 801.904535 308.331083 
L 791.10822 308.331083 
z
" clip-path="url(#pc9cde5f8f6)" style="fill: #348abd; opacity: 0.6"/>
   </g>
   <g id="patch_67">
    <path d="M 801.904535 311.70175 
L 812.70085 311.70175 
L 812.70085 309.17375 
L 801.904535 309.17375 
z
" clip-path="url(#pc9cde5f8f6)" style="fill: #348abd; opacity: 0.6"/>
   </g>
   <g id="patch_68">
    <path d="M 471.695938 311.70175 
L 471.695938 24.14175 
" style="fill: none; stroke: #ffffff; stroke-linejoin: miter; stroke-linecap: square"/>
   </g>
   <g id="patch_69">
    <path d="M 848.235937 311.70175 
L 848.235937 24.14175 
" style="fill: none; stroke: #ffffff; stroke-linejoin: miter; stroke-linecap: square"/>
   </g>
   <g id="patch_70">
    <path d="M 471.695938 311.70175 
L 848.235937 311.70175 
" style="fill: none; stroke: #ffffff; stroke-linejoin: miter; stroke-linecap: square"/>
   </g>
   <g id="patch_71">
    <path d="M 471.695938 24.14175 
L 848.235937 24.14175 
" style="fill: none; stroke: #ffffff; stroke-linejoin: miter; stroke-linecap: square"/>
   </g>
   <g id="text_27">
    <!-- Propensity score overlap -->
    <g transform="translate(571.187688 18.14175) scale(0.144 -0.144)">
     <defs>
      <path id="DejaVuSans-76" d="M 191 3500 
L 800 3500 
L 1894 563 
L 2988 3500 
L 3597 3500 
L 2284 0 
L 1503 0 
L 191 3500 
z
" transform="scale(0.015625)"/>
     </defs>
     <use xlink:href="#DejaVuSans-50"/>
     <use xlink:href="#DejaVuSans-72" transform="translate(58.552734 0)"/>
     <use xlink:href="#DejaVuSans-6f" transform="translate(97.416016 0)"/>
     <use xlink:href="#DejaVuSans-70" transform="translate(158.597656 0)"/>
     <use xlink:href="#DejaVuSans-65" transform="translate(222.074219 0)"/>
     <use xlink:href="#DejaVuSans-6e" transform="translate(283.597656 0)"/>
     <use xlink:href="#DejaVuSans-73" transform="translate(346.976562 0)"/>
     <use xlink:href="#DejaVuSans-69" transform="translate(399.076172 0)"/>
     <use xlink:href="#DejaVuSans-74" transform="translate(426.859375 0)"/>
     <use xlink:href="#DejaVuSans-79" transform="translate(466.068359 0)"/>
     <use xlink:href="#DejaVuSans-20" transform="translate(525.248047 0)"/>
     <use xlink:href="#DejaVuSans-73" transform="translate(557.035156 0)"/>
     <use xlink:href="#DejaVuSans-63" transform="translate(609.134766 0)"/>
     <use xlink:href="#DejaVuSans-6f" transform="translate(664.115234 0)"/>
     <use xlink:href="#DejaVuSans-72" transform="translate(725.296875 0)"/>
     <use xlink:href="#DejaVuSans-65" transform="translate(764.160156 0)"/>
     <use xlink:href="#DejaVuSans-20" transform="translate(825.683594 0)"/>
     <use xlink:href="#DejaVuSans-6f" transform="translate(857.470703 0)"/>
     <use xlink:href="#DejaVuSans-76" transform="translate(918.652344 0)"/>
     <use xlink:href="#DejaVuSans-65" transform="translate(977.832031 0)"/>
     <use xlink:href="#DejaVuSans-72" transform="translate(1039.355469 0)"/>
     <use xlink:href="#DejaVuSans-6c" transform="translate(1080.46875 0)"/>
     <use xlink:href="#DejaVuSans-61" transform="translate(1108.251953 0)"/>
     <use xlink:href="#DejaVuSans-70" transform="translate(1169.53125 0)"/>
    </g>
   </g>
   <g id="legend_1">
    <g id="patch_72">
     <path d="M 772.014062 61.498 
L 841.235937 61.498 
Q 843.235937 61.498 843.235937 59.498 
L 843.235937 31.14175 
Q 843.235937 29.14175 841.235937 29.14175 
L 772.014062 29.14175 
Q 770.014062 29.14175 770.014062 31.14175 
L 770.014062 59.498 
Q 770.014062 61.498 772.014062 61.498 
z
" style="fill: #e5e5e5; opacity: 0.8; stroke: #cccccc; stroke-width: 0.5; stroke-linejoin: miter"/>
    </g>
    <g id="patch_73">
     <path d="M 774.014062 40.740187 
L 794.014062 40.740187 
L 794.014062 33.740187 
L 774.014062 33.740187 
z
" style="fill: #e24a33; opacity: 0.6"/>
    </g>
    <g id="text_28">
     <!-- Treated -->
     <g transform="translate(802.014062 40.740187) scale(0.1 -0.1)">
      <use xlink:href="#DejaVuSans-54"/>
      <use xlink:href="#DejaVuSans-72" transform="translate(46.333984 0)"/>
      <use xlink:href="#DejaVuSans-65" transform="translate(85.197266 0)"/>
      <use xlink:href="#DejaVuSans-61" transform="translate(146.720703 0)"/>
      <use xlink:href="#DejaVuSans-74" transform="translate(208 0)"/>
      <use xlink:href="#DejaVuSans-65" transform="translate(247.208984 0)"/>
      <use xlink:href="#DejaVuSans-64" transform="translate(308.732422 0)"/>
     </g>
    </g>
    <g id="patch_74">
     <path d="M 774.014062 55.418312 
L 794.014062 55.418312 
L 794.014062 48.418312 
L 774.014062 48.418312 
z
" style="fill: #348abd; opacity: 0.6"/>
    </g>
    <g id="text_29">
     <!-- Control -->
     <g transform="translate(802.014062 55.418312) scale(0.1 -0.1)">
      <defs>
       <path id="DejaVuSans-43" d="M 4122 4306 
L 4122 3641 
Q 3803 3938 3442 4084 
Q 3081 4231 2675 4231 
Q 1875 4231 1450 3742 
Q 1025 3253 1025 2328 
Q 1025 1406 1450 917 
Q 1875 428 2675 428 
Q 3081 428 3442 575 
Q 3803 722 4122 1019 
L 4122 359 
Q 3791 134 3420 21 
Q 3050 -91 2638 -91 
Q 1578 -91 968 557 
Q 359 1206 359 2328 
Q 359 3453 968 4101 
Q 1578 4750 2638 4750 
Q 3056 4750 3426 4639 
Q 3797 4528 4122 4306 
z
" transform="scale(0.015625)"/>
      </defs>
      <use xlink:href="#DejaVuSans-43"/>
      <use xlink:href="#DejaVuSans-6f" transform="translate(69.824219 0)"/>
      <use xlink:href="#DejaVuSans-6e" transform="translate(131.005859 0)"/>
      <use xlink:href="#DejaVuSans-74" transform="translate(194.384766 0)"/>
      <use xlink:href="#DejaVuSans-72" transform="translate(233.59375 0)"/>
      <use xlink:href="#DejaVuSans-6f" transform="translate(272.457031 0)"/>
      <use xlink:href="#DejaVuSans-6c" transform="translate(333.638672 0)"/>
     </g>
    </g>
   </g>
  </g>
 </g>
 <defs>
  <clipPath id="pbad6d4f7ad">
   <rect x="44.555937" y="24.14175" width="376.54" height="287.56"/>
  </clipPath>
  <clipPath id="pc9cde5f8f6">
   <rect x="471.695938" y="24.14175" width="376.54" height="287.56"/>
  </clipPath>
 </defs>
</svg>
