<?xml version="1.0" encoding="utf-8" standalone="no"?>
<!DOCTYPE svg PUBLIC "-//W3C//DTD SVG 1.1//EN"
  "http://www.w3.org/Graphics/SVG/1.1/DTD/svg11.dtd">
<svg xmlns:xlink="http://www.w3.org/1999/xlink" width="855.589062pt" height="351.193625pt" viewBox="0 0 855.589062 351.193625" xmlns="http://www.w3.org/2000/svg" version="1.1">
 <metadata>
  <rdf:RDF xmlns:dc="http://purl.org/dc/elements/1.1/" xmlns:cc="http://creativecommons.org/ns#" xmlns:rdf="http://www.w3.org/1999/02/22-rdf-syntax-ns#">
   <cc:Work>
    <dc:type rdf:resource="http://purl.org/dc/dcmitype/StillImage"/>
    <dc:date>2025-06-25T13:56:34.046826</dc:date>
    <dc:format>image/svg+xml</dc:format>
    <dc:creator>
     <cc:Agent>
      <dc:title>Matplotlib v3.10.3, https://matplotlib.org/</dc:title>
     </cc:Agent>
    </dc:creator>
   </cc:Work>
  </rdf:RDF>
 </metadata>
 <defs>
  <style type="text/css">*{stroke-linejoin: round; stroke-linecap: butt}</style>
 </defs>
 <g id="figure_1">
  <g id="patch_1">
   <path d="M 0 351.193625 
L 855.589062 351.193625 
L 855.589062 0 
L 0 0 
z
" style="fill: #ffffff"/>
  </g>
  <g id="axes_1">
   <g id="patch_2">
    <path d="M 60.459063 311.70175 
L 433.849063 311.70175 
L 433.849063 24.14175 
L 60.459063 24.14175 
z
" style="fill: #e5e5e5"/>
   </g>
   <g id="matplotlib.axis_1">
    <g id="xtick_1">
     <g id="line2d_1">
      <path d="M 111.375881 311.70175 
L 111.375881 24.14175 
" clip-path="url(#pfe3cec6b36)" style="fill: none; stroke: #ffffff; stroke-width: 0.8; stroke-linecap: square"/>
     </g>
     <g id="line2d_2">
      <defs>
       <path id="m862e2460d9" d="M 0 0 
L 0 3.5 
" style="stroke: #555555; stroke-width: 0.8"/>
      </defs>
      <g>
       <use xlink:href="#m862e2460d9" x="111.375881" y="311.70175" style="fill: #555555; stroke: #555555; stroke-width: 0.8"/>
      </g>
     </g>
     <g id="text_1">
      <!-- S‑learner -->
      <g style="fill: #555555" transform="translate(90.08959 337.831293) rotate(-15) scale(0.1 -0.1)">
       <defs>
        <path id="DejaVuSans-53" d="M 3425 4513 
L 3425 3897 
Q 3066 4069 2747 4153 
Q 2428 4238 2131 4238 
Q 1616 4238 1336 4038 
Q 1056 3838 1056 3469 
Q 1056 3159 1242 3001 
Q 1428 2844 1947 2747 
L 2328 2669 
Q 3034 2534 3370 2195 
Q 3706 1856 3706 1288 
Q 3706 609 3251 259 
Q 2797 -91 1919 -91 
Q 1588 -91 1214 -16 
Q 841 59 441 206 
L 441 856 
Q 825 641 1194 531 
Q 1563 422 1919 422 
Q 2459 422 2753 634 
Q 3047 847 3047 1241 
Q 3047 1584 2836 1778 
Q 2625 1972 2144 2069 
L 1759 2144 
Q 1053 2284 737 2584 
Q 422 2884 422 3419 
Q 422 4038 858 4394 
Q 1294 4750 2059 4750 
Q 2388 4750 2728 4690 
Q 3069 4631 3425 4513 
z
" transform="scale(0.015625)"/>
        <path id="DejaVuSans-2011" d="M 313 2009 
L 1997 2009 
L 1997 1497 
L 313 1497 
L 313 2009 
z
" transform="scale(0.015625)"/>
        <path id="DejaVuSans-6c" d="M 603 4863 
L 1178 4863 
L 1178 0 
L 603 0 
L 603 4863 
z
" transform="scale(0.015625)"/>
        <path id="DejaVuSans-65" d="M 3597 1894 
L 3597 1613 
L 953 1613 
Q 991 1019 1311 708 
Q 1631 397 2203 397 
Q 2534 397 2845 478 
Q 3156 559 3463 722 
L 3463 178 
Q 3153 47 2828 -22 
Q 2503 -91 2169 -91 
Q 1331 -91 842 396 
Q 353 884 353 1716 
Q 353 2575 817 3079 
Q 1281 3584 2069 3584 
Q 2775 3584 3186 3129 
Q 3597 2675 3597 1894 
z
M 3022 2063 
Q 3016 2534 2758 2815 
Q 2500 3097 2075 3097 
Q 1594 3097 1305 2825 
Q 1016 2553 972 2059 
L 3022 2063 
z
" transform="scale(0.015625)"/>
        <path id="DejaVuSans-61" d="M 2194 1759 
Q 1497 1759 1228 1600 
Q 959 1441 959 1056 
Q 959 750 1161 570 
Q 1363 391 1709 391 
Q 2188 391 2477 730 
Q 2766 1069 2766 1631 
L 2766 1759 
L 2194 1759 
z
M 3341 1997 
L 3341 0 
L 2766 0 
L 2766 531 
Q 2569 213 2275 61 
Q 1981 -91 1556 -91 
Q 1019 -91 701 211 
Q 384 513 384 1019 
Q 384 1609 779 1909 
Q 1175 2209 1959 2209 
L 2766 2209 
L 2766 2266 
Q 2766 2663 2505 2880 
Q 2244 3097 1772 3097 
Q 1472 3097 1187 3025 
Q 903 2953 641 2809 
L 641 3341 
Q 956 3463 1253 3523 
Q 1550 3584 1831 3584 
Q 2591 3584 2966 3190 
Q 3341 2797 3341 1997 
z
" transform="scale(0.015625)"/>
        <path id="DejaVuSans-72" d="M 2631 2963 
Q 2534 3019 2420 3045 
Q 2306 3072 2169 3072 
Q 1681 3072 1420 2755 
Q 1159 2438 1159 1844 
L 1159 0 
L 581 0 
L 581 3500 
L 1159 3500 
L 1159 2956 
Q 1341 3275 1631 3429 
Q 1922 3584 2338 3584 
Q 2397 3584 2469 3576 
Q 2541 3569 2628 3553 
L 2631 2963 
z
" transform="scale(0.015625)"/>
        <path id="DejaVuSans-6e" d="M 3513 2113 
L 3513 0 
L 2938 0 
L 2938 2094 
Q 2938 2591 2744 2837 
Q 2550 3084 2163 3084 
Q 1697 3084 1428 2787 
Q 1159 2491 1159 1978 
L 1159 0 
L 581 0 
L 581 3500 
L 1159 3500 
L 1159 2956 
Q 1366 3272 1645 3428 
Q 1925 3584 2291 3584 
Q 2894 3584 3203 3211 
Q 3513 2838 3513 2113 
z
" transform="scale(0.015625)"/>
       </defs>
       <use xlink:href="#DejaVuSans-53"/>
       <use xlink:href="#DejaVuSans-2011" transform="translate(63.476562 0)"/>
       <use xlink:href="#DejaVuSans-6c" transform="translate(99.560547 0)"/>
       <use xlink:href="#DejaVuSans-65" transform="translate(127.34375 0)"/>
       <use xlink:href="#DejaVuSans-61" transform="translate(188.867188 0)"/>
       <use xlink:href="#DejaVuSans-72" transform="translate(250.146484 0)"/>
       <use xlink:href="#DejaVuSans-6e" transform="translate(289.509766 0)"/>
       <use xlink:href="#DejaVuSans-65" transform="translate(352.888672 0)"/>
       <use xlink:href="#DejaVuSans-72" transform="translate(414.412109 0)"/>
      </g>
     </g>
    </g>
    <g id="xtick_2">
     <g id="line2d_3">
      <path d="M 247.154063 311.70175 
L 247.154063 24.14175 
" clip-path="url(#pfe3cec6b36)" style="fill: none; stroke: #ffffff; stroke-width: 0.8; stroke-linecap: square"/>
     </g>
     <g id="line2d_4">
      <g>
       <use xlink:href="#m862e2460d9" x="247.154063" y="311.70175" style="fill: #555555; stroke: #555555; stroke-width: 0.8"/>
      </g>
     </g>
     <g id="text_2">
      <!-- T‑learner -->
      <g style="fill: #555555" transform="translate(225.983984 337.769015) rotate(-15) scale(0.1 -0.1)">
       <defs>
        <path id="DejaVuSans-54" d="M -19 4666 
L 3928 4666 
L 3928 4134 
L 2272 4134 
L 2272 0 
L 1638 0 
L 1638 4134 
L -19 4134 
L -19 4666 
z
" transform="scale(0.015625)"/>
       </defs>
       <use xlink:href="#DejaVuSans-54"/>
       <use xlink:href="#DejaVuSans-2011" transform="translate(61.083984 0)"/>
       <use xlink:href="#DejaVuSans-6c" transform="translate(97.167969 0)"/>
       <use xlink:href="#DejaVuSans-65" transform="translate(124.951172 0)"/>
       <use xlink:href="#DejaVuSans-61" transform="translate(186.474609 0)"/>
       <use xlink:href="#DejaVuSans-72" transform="translate(247.753906 0)"/>
       <use xlink:href="#DejaVuSans-6e" transform="translate(287.117188 0)"/>
       <use xlink:href="#DejaVuSans-65" transform="translate(350.496094 0)"/>
       <use xlink:href="#DejaVuSans-72" transform="translate(412.019531 0)"/>
      </g>
     </g>
    </g>
    <g id="xtick_3">
     <g id="line2d_5">
      <path d="M 382.932244 311.70175 
L 382.932244 24.14175 
" clip-path="url(#pfe3cec6b36)" style="fill: none; stroke: #ffffff; stroke-width: 0.8; stroke-linecap: square"/>
     </g>
     <g id="line2d_6">
      <g>
       <use xlink:href="#m862e2460d9" x="382.932244" y="311.70175" style="fill: #555555; stroke: #555555; stroke-width: 0.8"/>
      </g>
     </g>
     <g id="text_3">
      <!-- IPW -->
      <g style="fill: #555555" transform="translate(374.534271 330.924464) rotate(-15) scale(0.1 -0.1)">
       <defs>
        <path id="DejaVuSans-49" d="M 628 4666 
L 1259 4666 
L 1259 0 
L 628 0 
L 628 4666 
z
" transform="scale(0.015625)"/>
        <path id="DejaVuSans-50" d="M 1259 4147 
L 1259 2394 
L 2053 2394 
Q 2494 2394 2734 2622 
Q 2975 2850 2975 3272 
Q 2975 3691 2734 3919 
Q 2494 4147 2053 4147 
L 1259 4147 
z
M 628 4666 
L 2053 4666 
Q 2838 4666 3239 4311 
Q 3641 3956 3641 3272 
Q 3641 2581 3239 2228 
Q 2838 1875 2053 1875 
L 1259 1875 
L 1259 0 
L 628 0 
L 628 4666 
z
" transform="scale(0.015625)"/>
        <path id="DejaVuSans-57" d="M 213 4666 
L 850 4666 
L 1831 722 
L 2809 4666 
L 3519 4666 
L 4500 722 
L 5478 4666 
L 6119 4666 
L 4947 0 
L 4153 0 
L 3169 4050 
L 2175 0 
L 1381 0 
L 213 4666 
z
" transform="scale(0.015625)"/>
       </defs>
       <use xlink:href="#DejaVuSans-49"/>
       <use xlink:href="#DejaVuSans-50" transform="translate(29.492188 0)"/>
       <use xlink:href="#DejaVuSans-57" transform="translate(89.794922 0)"/>
      </g>
     </g>
    </g>
   </g>
   <g id="matplotlib.axis_2">
    <g id="ytick_1">
     <g id="line2d_7">
      <path d="M 60.459063 281.494043 
L 433.849063 281.494043 
" clip-path="url(#pfe3cec6b36)" style="fill: none; stroke: #ffffff; stroke-width: 0.8; stroke-linecap: square"/>
     </g>
     <g id="line2d_8">
      <defs>
       <path id="mc0913f5200" d="M 0 0 
L -3.5 0 
" style="stroke: #555555; stroke-width: 0.8"/>
      </defs>
      <g>
       <use xlink:href="#mc0913f5200" x="60.459063" y="281.494043" style="fill: #555555; stroke: #555555; stroke-width: 0.8"/>
      </g>
     </g>
     <g id="text_4">
      <!-- −17.5 -->
      <g style="fill: #555555" transform="translate(22.81375 285.293262) scale(0.1 -0.1)">
       <defs>
        <path id="DejaVuSans-2212" d="M 678 2272 
L 4684 2272 
L 4684 1741 
L 678 1741 
L 678 2272 
z
" transform="scale(0.015625)"/>
        <path id="DejaVuSans-31" d="M 794 531 
L 1825 531 
L 1825 4091 
L 703 3866 
L 703 4441 
L 1819 4666 
L 2450 4666 
L 2450 531 
L 3481 531 
L 3481 0 
L 794 0 
L 794 531 
z
" transform="scale(0.015625)"/>
        <path id="DejaVuSans-37" d="M 525 4666 
L 3525 4666 
L 3525 4397 
L 1831 0 
L 1172 0 
L 2766 4134 
L 525 4134 
L 525 4666 
z
" transform="scale(0.015625)"/>
        <path id="DejaVuSans-2e" d="M 684 794 
L 1344 794 
L 1344 0 
L 684 0 
L 684 794 
z
" transform="scale(0.015625)"/>
        <path id="DejaVuSans-35" d="M 691 4666 
L 3169 4666 
L 3169 4134 
L 1269 4134 
L 1269 2991 
Q 1406 3038 1543 3061 
Q 1681 3084 1819 3084 
Q 2600 3084 3056 2656 
Q 3513 2228 3513 1497 
Q 3513 744 3044 326 
Q 2575 -91 1722 -91 
Q 1428 -91 1123 -41 
Q 819 9 494 109 
L 494 744 
Q 775 591 1075 516 
Q 1375 441 1709 441 
Q 2250 441 2565 725 
Q 2881 1009 2881 1497 
Q 2881 1984 2565 2268 
Q 2250 2553 1709 2553 
Q 1456 2553 1204 2497 
Q 953 2441 691 2322 
L 691 4666 
z
" transform="scale(0.015625)"/>
       </defs>
       <use xlink:href="#DejaVuSans-2212"/>
       <use xlink:href="#DejaVuSans-31" transform="translate(83.789062 0)"/>
       <use xlink:href="#DejaVuSans-37" transform="translate(147.412109 0)"/>
       <use xlink:href="#DejaVuSans-2e" transform="translate(211.035156 0)"/>
       <use xlink:href="#DejaVuSans-35" transform="translate(242.822266 0)"/>
      </g>
     </g>
    </g>
    <g id="ytick_2">
     <g id="line2d_9">
      <path d="M 60.459063 246.601936 
L 433.849063 246.601936 
" clip-path="url(#pfe3cec6b36)" style="fill: none; stroke: #ffffff; stroke-width: 0.8; stroke-linecap: square"/>
     </g>
     <g id="line2d_10">
      <g>
       <use xlink:href="#mc0913f5200" x="60.459063" y="246.601936" style="fill: #555555; stroke: #555555; stroke-width: 0.8"/>
      </g>
     </g>
     <g id="text_5">
      <!-- −15.0 -->
      <g style="fill: #555555" transform="translate(22.81375 250.401154) scale(0.1 -0.1)">
       <defs>
        <path id="DejaVuSans-30" d="M 2034 4250 
Q 1547 4250 1301 3770 
Q 1056 3291 1056 2328 
Q 1056 1369 1301 889 
Q 1547 409 2034 409 
Q 2525 409 2770 889 
Q 3016 1369 3016 2328 
Q 3016 3291 2770 3770 
Q 2525 4250 2034 4250 
z
M 2034 4750 
Q 2819 4750 3233 4129 
Q 3647 3509 3647 2328 
Q 3647 1150 3233 529 
Q 2819 -91 2034 -91 
Q 1250 -91 836 529 
Q 422 1150 422 2328 
Q 422 3509 836 4129 
Q 1250 4750 2034 4750 
z
" transform="scale(0.015625)"/>
       </defs>
       <use xlink:href="#DejaVuSans-2212"/>
       <use xlink:href="#DejaVuSans-31" transform="translate(83.789062 0)"/>
       <use xlink:href="#DejaVuSans-35" transform="translate(147.412109 0)"/>
       <use xlink:href="#DejaVuSans-2e" transform="translate(211.035156 0)"/>
       <use xlink:href="#DejaVuSans-30" transform="translate(242.822266 0)"/>
      </g>
     </g>
    </g>
    <g id="ytick_3">
     <g id="line2d_11">
      <path d="M 60.459063 211.709828 
L 433.849063 211.709828 
" clip-path="url(#pfe3cec6b36)" style="fill: none; stroke: #ffffff; stroke-width: 0.8; stroke-linecap: square"/>
     </g>
     <g id="line2d_12">
      <g>
       <use xlink:href="#mc0913f5200" x="60.459063" y="211.709828" style="fill: #555555; stroke: #555555; stroke-width: 0.8"/>
      </g>
     </g>
     <g id="text_6">
      <!-- −12.5 -->
      <g style="fill: #555555" transform="translate(22.81375 215.509047) scale(0.1 -0.1)">
       <defs>
        <path id="DejaVuSans-32" d="M 1228 531 
L 3431 531 
L 3431 0 
L 469 0 
L 469 531 
Q 828 903 1448 1529 
Q 2069 2156 2228 2338 
Q 2531 2678 2651 2914 
Q 2772 3150 2772 3378 
Q 2772 3750 2511 3984 
Q 2250 4219 1831 4219 
Q 1534 4219 1204 4116 
Q 875 4013 500 3803 
L 500 4441 
Q 881 4594 1212 4672 
Q 1544 4750 1819 4750 
Q 2544 4750 2975 4387 
Q 3406 4025 3406 3419 
Q 3406 3131 3298 2873 
Q 3191 2616 2906 2266 
Q 2828 2175 2409 1742 
Q 1991 1309 1228 531 
z
" transform="scale(0.015625)"/>
       </defs>
       <use xlink:href="#DejaVuSans-2212"/>
       <use xlink:href="#DejaVuSans-31" transform="translate(83.789062 0)"/>
       <use xlink:href="#DejaVuSans-32" transform="translate(147.412109 0)"/>
       <use xlink:href="#DejaVuSans-2e" transform="translate(211.035156 0)"/>
       <use xlink:href="#DejaVuSans-35" transform="translate(242.822266 0)"/>
      </g>
     </g>
    </g>
    <g id="ytick_4">
     <g id="line2d_13">
      <path d="M 60.459063 176.817721 
L 433.849063 176.817721 
" clip-path="url(#pfe3cec6b36)" style="fill: none; stroke: #ffffff; stroke-width: 0.8; stroke-linecap: square"/>
     </g>
     <g id="line2d_14">
      <g>
       <use xlink:href="#mc0913f5200" x="60.459063" y="176.817721" style="fill: #555555; stroke: #555555; stroke-width: 0.8"/>
      </g>
     </g>
     <g id="text_7">
      <!-- −10.0 -->
      <g style="fill: #555555" transform="translate(22.81375 180.61694) scale(0.1 -0.1)">
       <use xlink:href="#DejaVuSans-2212"/>
       <use xlink:href="#DejaVuSans-31" transform="translate(83.789062 0)"/>
       <use xlink:href="#DejaVuSans-30" transform="translate(147.412109 0)"/>
       <use xlink:href="#DejaVuSans-2e" transform="translate(211.035156 0)"/>
       <use xlink:href="#DejaVuSans-30" transform="translate(242.822266 0)"/>
      </g>
     </g>
    </g>
    <g id="ytick_5">
     <g id="line2d_15">
      <path d="M 60.459063 141.925614 
L 433.849063 141.925614 
" clip-path="url(#pfe3cec6b36)" style="fill: none; stroke: #ffffff; stroke-width: 0.8; stroke-linecap: square"/>
     </g>
     <g id="line2d_16">
      <g>
       <use xlink:href="#mc0913f5200" x="60.459063" y="141.925614" style="fill: #555555; stroke: #555555; stroke-width: 0.8"/>
      </g>
     </g>
     <g id="text_8">
      <!-- −7.5 -->
      <g style="fill: #555555" transform="translate(29.17625 145.724833) scale(0.1 -0.1)">
       <use xlink:href="#DejaVuSans-2212"/>
       <use xlink:href="#DejaVuSans-37" transform="translate(83.789062 0)"/>
       <use xlink:href="#DejaVuSans-2e" transform="translate(147.412109 0)"/>
       <use xlink:href="#DejaVuSans-35" transform="translate(179.199219 0)"/>
      </g>
     </g>
    </g>
    <g id="ytick_6">
     <g id="line2d_17">
      <path d="M 60.459063 107.033507 
L 433.849063 107.033507 
" clip-path="url(#pfe3cec6b36)" style="fill: none; stroke: #ffffff; stroke-width: 0.8; stroke-linecap: square"/>
     </g>
     <g id="line2d_18">
      <g>
       <use xlink:href="#mc0913f5200" x="60.459063" y="107.033507" style="fill: #555555; stroke: #555555; stroke-width: 0.8"/>
      </g>
     </g>
     <g id="text_9">
      <!-- −5.0 -->
      <g style="fill: #555555" transform="translate(29.17625 110.832725) scale(0.1 -0.1)">
       <use xlink:href="#DejaVuSans-2212"/>
       <use xlink:href="#DejaVuSans-35" transform="translate(83.789062 0)"/>
       <use xlink:href="#DejaVuSans-2e" transform="translate(147.412109 0)"/>
       <use xlink:href="#DejaVuSans-30" transform="translate(179.199219 0)"/>
      </g>
     </g>
    </g>
    <g id="ytick_7">
     <g id="line2d_19">
      <path d="M 60.459063 72.141399 
L 433.849063 72.141399 
" clip-path="url(#pfe3cec6b36)" style="fill: none; stroke: #ffffff; stroke-width: 0.8; stroke-linecap: square"/>
     </g>
     <g id="line2d_20">
      <g>
       <use xlink:href="#mc0913f5200" x="60.459063" y="72.141399" style="fill: #555555; stroke: #555555; stroke-width: 0.8"/>
      </g>
     </g>
     <g id="text_10">
      <!-- −2.5 -->
      <g style="fill: #555555" transform="translate(29.17625 75.940618) scale(0.1 -0.1)">
       <use xlink:href="#DejaVuSans-2212"/>
       <use xlink:href="#DejaVuSans-32" transform="translate(83.789062 0)"/>
       <use xlink:href="#DejaVuSans-2e" transform="translate(147.412109 0)"/>
       <use xlink:href="#DejaVuSans-35" transform="translate(179.199219 0)"/>
      </g>
     </g>
    </g>
    <g id="ytick_8">
     <g id="line2d_21">
      <path d="M 60.459063 37.249292 
L 433.849063 37.249292 
" clip-path="url(#pfe3cec6b36)" style="fill: none; stroke: #ffffff; stroke-width: 0.8; stroke-linecap: square"/>
     </g>
     <g id="line2d_22">
      <g>
       <use xlink:href="#mc0913f5200" x="60.459063" y="37.249292" style="fill: #555555; stroke: #555555; stroke-width: 0.8"/>
      </g>
     </g>
     <g id="text_11">
      <!-- 0.0 -->
      <g style="fill: #555555" transform="translate(37.555937 41.048511) scale(0.1 -0.1)">
       <use xlink:href="#DejaVuSans-30"/>
       <use xlink:href="#DejaVuSans-2e" transform="translate(63.623047 0)"/>
       <use xlink:href="#DejaVuSans-30" transform="translate(95.410156 0)"/>
      </g>
     </g>
    </g>
    <g id="text_12">
     <!-- ATE -->
     <g style="fill: #555555" transform="translate(16.318125 179.017062) rotate(-90) scale(0.12 -0.12)">
      <defs>
       <path id="DejaVuSans-41" d="M 2188 4044 
L 1331 1722 
L 3047 1722 
L 2188 4044 
z
M 1831 4666 
L 2547 4666 
L 4325 0 
L 3669 0 
L 3244 1197 
L 1141 1197 
L 716 0 
L 50 0 
L 1831 4666 
z
" transform="scale(0.015625)"/>
       <path id="DejaVuSans-45" d="M 628 4666 
L 3578 4666 
L 3578 4134 
L 1259 4134 
L 1259 2753 
L 3481 2753 
L 3481 2222 
L 1259 2222 
L 1259 531 
L 3634 531 
L 3634 0 
L 628 0 
L 628 4666 
z
" transform="scale(0.015625)"/>
      </defs>
      <use xlink:href="#DejaVuSans-41"/>
      <use xlink:href="#DejaVuSans-54" transform="translate(60.658203 0)"/>
      <use xlink:href="#DejaVuSans-45" transform="translate(121.742188 0)"/>
     </g>
    </g>
   </g>
   <g id="FillBetweenPolyCollection_1">
    <path d="M 119.897449 37.252663 
L 102.854313 37.252663 
L 102.484902 37.2526 
L 102.123222 37.252537 
L 101.767058 37.252474 
L 101.413402 37.252412 
L 101.058512 37.252349 
L 100.698013 37.252286 
L 100.327022 37.252223 
L 99.940293 37.252161 
L 99.532383 37.252098 
L 99.097836 37.252035 
L 98.631363 37.251972 
L 98.12803 37.25191 
L 97.583439 37.251847 
L 96.993895 37.251784 
L 96.356565 37.251721 
L 95.669607 37.251658 
L 94.932281 37.251596 
L 94.145036 37.251533 
L 93.30956 37.25147 
L 92.428811 37.251407 
L 91.50701 37.251345 
L 90.549607 37.251282 
L 89.563218 37.251219 
L 88.555528 37.251156 
L 87.535179 37.251094 
L 86.511618 37.251031 
L 85.494938 37.250968 
L 84.495688 37.250905 
L 83.524678 37.250843 
L 82.592767 37.25078 
L 81.710647 37.250717 
L 80.888629 37.250654 
L 80.136428 37.250591 
L 79.462961 37.250529 
L 78.876157 37.250466 
L 78.382791 37.250403 
L 77.988333 37.25034 
L 77.696835 37.250278 
L 77.510842 37.250215 
L 77.431335 37.250152 
L 77.457715 37.250089 
L 77.587819 37.250027 
L 77.817968 37.249964 
L 78.143058 37.249901 
L 78.556676 37.249838 
L 79.051252 37.249776 
L 79.618231 37.249713 
L 80.248275 37.24965 
L 80.931478 37.249587 
L 81.657597 37.249524 
L 82.41629 37.249462 
L 83.197352 37.249399 
L 83.99095 37.249336 
L 84.787841 37.249273 
L 85.579582 37.249211 
L 86.358702 37.249148 
L 87.118859 37.249085 
L 87.854949 37.249022 
L 88.563187 37.24896 
L 89.241139 37.248897 
L 89.887714 37.248834 
L 90.503116 37.248771 
L 91.088745 37.248708 
L 91.647073 37.248646 
L 92.181467 37.248583 
L 92.696007 37.24852 
L 93.195262 37.248457 
L 93.684065 37.248395 
L 94.167288 37.248332 
L 94.649607 37.248269 
L 95.135302 37.248206 
L 95.628064 37.248144 
L 96.130842 37.248081 
L 96.645724 37.248018 
L 97.173862 37.247955 
L 97.715434 37.247893 
L 98.269662 37.24783 
L 98.834862 37.247767 
L 99.408541 37.247704 
L 99.987522 37.247641 
L 100.568101 37.247579 
L 101.146217 37.247516 
L 101.717639 37.247453 
L 102.278144 37.24739 
L 102.823699 37.247328 
L 103.350612 37.247265 
L 103.855676 37.247202 
L 104.336269 37.247139 
L 104.790434 37.247077 
L 105.216916 37.247014 
L 105.61517 37.246951 
L 105.985335 37.246888 
L 106.328176 37.246826 
L 106.645006 37.246763 
L 106.937588 37.2467 
L 107.208022 37.246637 
L 107.458629 37.246574 
L 107.691834 37.246512 
L 107.910057 37.246449 
L 114.841704 37.246449 
L 114.841704 37.246449 
L 115.059927 37.246512 
L 115.293133 37.246574 
L 115.543739 37.246637 
L 115.814173 37.2467 
L 116.106755 37.246763 
L 116.423586 37.246826 
L 116.766427 37.246888 
L 117.136591 37.246951 
L 117.534846 37.247014 
L 117.961328 37.247077 
L 118.415493 37.247139 
L 118.896086 37.247202 
L 119.401149 37.247265 
L 119.928063 37.247328 
L 120.473617 37.24739 
L 121.034123 37.247453 
L 121.605544 37.247516 
L 122.183661 37.247579 
L 122.76424 37.247641 
L 123.343221 37.247704 
L 123.916899 37.247767 
L 124.4821 37.24783 
L 125.036328 37.247893 
L 125.5779 37.247955 
L 126.106037 37.248018 
L 126.62092 37.248081 
L 127.123698 37.248144 
L 127.61646 37.248206 
L 128.102154 37.248269 
L 128.584474 37.248332 
L 129.067696 37.248395 
L 129.5565 37.248457 
L 130.055754 37.24852 
L 130.570294 37.248583 
L 131.104689 37.248646 
L 131.663016 37.248708 
L 132.248646 37.248771 
L 132.864047 37.248834 
L 133.510623 37.248897 
L 134.188574 37.24896 
L 134.896812 37.249022 
L 135.632902 37.249085 
L 136.393059 37.249148 
L 137.17218 37.249211 
L 137.96392 37.249273 
L 138.760812 37.249336 
L 139.554409 37.249399 
L 140.335471 37.249462 
L 141.094164 37.249524 
L 141.820284 37.249587 
L 142.503487 37.24965 
L 143.13353 37.249713 
L 143.700509 37.249776 
L 144.195085 37.249838 
L 144.608704 37.249901 
L 144.933794 37.249964 
L 145.163943 37.250027 
L 145.294046 37.250089 
L 145.320426 37.250152 
L 145.240919 37.250215 
L 145.054926 37.250278 
L 144.763429 37.25034 
L 144.368971 37.250403 
L 143.875604 37.250466 
L 143.2888 37.250529 
L 142.615333 37.250591 
L 141.863132 37.250654 
L 141.041114 37.250717 
L 140.158995 37.25078 
L 139.227083 37.250843 
L 138.256073 37.250905 
L 137.256824 37.250968 
L 136.240143 37.251031 
L 135.216583 37.251094 
L 134.196233 37.251156 
L 133.188544 37.251219 
L 132.202154 37.251282 
L 131.244751 37.251345 
L 130.32295 37.251407 
L 129.442201 37.25147 
L 128.606726 37.251533 
L 127.81948 37.251596 
L 127.082154 37.251658 
L 126.395196 37.251721 
L 125.757866 37.251784 
L 125.168323 37.251847 
L 124.623731 37.25191 
L 124.120398 37.251972 
L 123.653925 37.252035 
L 123.219378 37.252098 
L 122.811469 37.252161 
L 122.424739 37.252223 
L 122.053748 37.252286 
L 121.69325 37.252349 
L 121.33836 37.252412 
L 120.984703 37.252474 
L 120.62854 37.252537 
L 120.266859 37.2526 
L 119.897449 37.252663 
z
" clip-path="url(#pfe3cec6b36)" style="fill: #e24a33; fill-opacity: 0.3"/>
   </g>
   <g id="FillBetweenPolyCollection_2">
    <path d="M 257.461614 37.28055 
L 236.846511 37.28055 
L 236.262141 37.279864 
L 235.697994 37.279178 
L 235.157426 37.278492 
L 234.643077 37.277807 
L 234.156797 37.277121 
L 233.699604 37.276435 
L 233.271649 37.275749 
L 232.872206 37.275064 
L 232.499677 37.274378 
L 232.15162 37.273692 
L 231.824783 37.273006 
L 231.515167 37.272321 
L 231.218092 37.271635 
L 230.928289 37.270949 
L 230.640007 37.270263 
L 230.347135 37.269578 
L 230.043341 37.268892 
L 229.722229 37.268206 
L 229.377502 37.26752 
L 229.003143 37.266834 
L 228.593593 37.266149 
L 228.143937 37.265463 
L 227.650081 37.264777 
L 227.108923 37.264091 
L 226.518505 37.263406 
L 225.878149 37.26272 
L 225.188569 37.262034 
L 224.451956 37.261348 
L 223.672029 37.260663 
L 222.85406 37.259977 
L 222.004859 37.259291 
L 221.132728 37.258605 
L 220.247372 37.25792 
L 219.359778 37.257234 
L 218.482049 37.256548 
L 217.627209 37.255862 
L 216.808956 37.255176 
L 216.041397 37.254491 
L 215.338741 37.253805 
L 214.714969 37.253119 
L 214.183496 37.252433 
L 213.756812 37.251748 
L 213.446146 37.251062 
L 213.261131 37.250376 
L 213.209517 37.24969 
L 213.296919 37.249005 
L 213.526629 37.248319 
L 213.899488 37.247633 
L 214.413845 37.246947 
L 215.065579 37.246262 
L 215.848212 37.245576 
L 216.753088 37.24489 
L 217.769615 37.244204 
L 218.885571 37.243518 
L 220.087439 37.242833 
L 221.360772 37.242147 
L 222.690568 37.241461 
L 224.061633 37.240775 
L 225.458931 37.24009 
L 226.867898 37.239404 
L 228.27471 37.238718 
L 229.666513 37.238032 
L 231.031596 37.237347 
L 232.359513 37.236661 
L 233.641158 37.235975 
L 234.868791 37.235289 
L 236.036034 37.234604 
L 237.137822 37.233918 
L 238.170338 37.233232 
L 239.130922 37.232546 
L 240.017977 37.23186 
L 240.830857 37.231175 
L 241.569763 37.230489 
L 242.235636 37.229803 
L 242.830061 37.229117 
L 243.355171 37.228432 
L 243.813568 37.227746 
L 244.208252 37.22706 
L 244.542557 37.226374 
L 244.820101 37.225689 
L 245.04474 37.225003 
L 245.220536 37.224317 
L 245.351721 37.223631 
L 245.442674 37.222946 
L 245.497891 37.22226 
L 245.521958 37.221574 
L 245.519522 37.220888 
L 245.495253 37.220202 
L 245.453804 37.219517 
L 245.399761 37.218831 
L 245.33759 37.218145 
L 245.271572 37.217459 
L 245.205744 37.216774 
L 245.143825 37.216088 
L 245.089158 37.215402 
L 245.044643 37.214716 
L 245.012687 37.214031 
L 244.995163 37.213345 
L 244.993382 37.212659 
L 249.314743 37.212659 
L 249.314743 37.212659 
L 249.312962 37.213345 
L 249.295438 37.214031 
L 249.263482 37.214716 
L 249.218967 37.215402 
L 249.1643 37.216088 
L 249.102381 37.216774 
L 249.036553 37.217459 
L 248.970535 37.218145 
L 248.908364 37.218831 
L 248.854321 37.219517 
L 248.812872 37.220202 
L 248.788603 37.220888 
L 248.786167 37.221574 
L 248.810234 37.22226 
L 248.865451 37.222946 
L 248.956404 37.223631 
L 249.087589 37.224317 
L 249.263385 37.225003 
L 249.488024 37.225689 
L 249.765568 37.226374 
L 250.099873 37.22706 
L 250.494557 37.227746 
L 250.952954 37.228432 
L 251.478064 37.229117 
L 252.072489 37.229803 
L 252.738362 37.230489 
L 253.477268 37.231175 
L 254.290148 37.23186 
L 255.177203 37.232546 
L 256.137787 37.233232 
L 257.170303 37.233918 
L 258.272091 37.234604 
L 259.439334 37.235289 
L 260.666967 37.235975 
L 261.948612 37.236661 
L 263.276529 37.237347 
L 264.641612 37.238032 
L 266.033415 37.238718 
L 267.440227 37.239404 
L 268.849194 37.24009 
L 270.246492 37.240775 
L 271.617557 37.241461 
L 272.947353 37.242147 
L 274.220686 37.242833 
L 275.422554 37.243518 
L 276.53851 37.244204 
L 277.555037 37.24489 
L 278.459913 37.245576 
L 279.242546 37.246262 
L 279.89428 37.246947 
L 280.408637 37.247633 
L 280.781496 37.248319 
L 281.011206 37.249005 
L 281.098608 37.24969 
L 281.046994 37.250376 
L 280.861979 37.251062 
L 280.551313 37.251748 
L 280.124629 37.252433 
L 279.593156 37.253119 
L 278.969384 37.253805 
L 278.266728 37.254491 
L 277.499169 37.255176 
L 276.680916 37.255862 
L 275.826076 37.256548 
L 274.948347 37.257234 
L 274.060753 37.25792 
L 273.175397 37.258605 
L 272.303266 37.259291 
L 271.454065 37.259977 
L 270.636096 37.260663 
L 269.856169 37.261348 
L 269.119556 37.262034 
L 268.429976 37.26272 
L 267.78962 37.263406 
L 267.199202 37.264091 
L 266.658044 37.264777 
L 266.164188 37.265463 
L 265.714532 37.266149 
L 265.304982 37.266834 
L 264.930623 37.26752 
L 264.585896 37.268206 
L 264.264784 37.268892 
L 263.96099 37.269578 
L 263.668118 37.270263 
L 263.379836 37.270949 
L 263.090033 37.271635 
L 262.792958 37.272321 
L 262.483342 37.273006 
L 262.156505 37.273692 
L 261.808448 37.274378 
L 261.435919 37.275064 
L 261.036476 37.275749 
L 260.608521 37.276435 
L 260.151328 37.277121 
L 259.665048 37.277807 
L 259.150699 37.278492 
L 258.610131 37.279178 
L 258.045984 37.279864 
L 257.461614 37.28055 
z
" clip-path="url(#pfe3cec6b36)" style="fill: #e24a33; fill-opacity: 0.3"/>
   </g>
   <g id="FillBetweenPolyCollection_3">
    <path d="M 389.539067 298.630841 
L 376.325422 298.630841 
L 375.918623 298.357438 
L 375.513119 298.084036 
L 375.10921 297.810633 
L 374.706649 297.53723 
L 374.304626 297.263828 
L 373.901801 296.990425 
L 373.496353 296.717022 
L 373.086062 296.44362 
L 372.668411 296.170217 
L 372.240709 295.896814 
L 371.800222 295.623411 
L 371.344312 295.350009 
L 370.870565 295.076606 
L 370.376919 294.803203 
L 369.861752 294.529801 
L 369.323965 294.256398 
L 368.76302 293.982995 
L 368.17895 293.709593 
L 367.572337 293.43619 
L 366.944254 293.162787 
L 366.29619 292.889385 
L 365.629946 292.615982 
L 364.947527 292.342579 
L 364.25103 292.069177 
L 363.542541 291.795774 
L 362.824047 291.522371 
L 362.097376 291.248969 
L 361.364167 290.975566 
L 360.625874 290.702163 
L 359.883806 290.428761 
L 359.139205 290.155358 
L 358.393347 289.881955 
L 357.647672 289.608553 
L 356.903925 289.33515 
L 356.164293 289.061747 
L 355.431544 288.788345 
L 354.709131 288.514942 
L 354.001276 288.241539 
L 353.313001 287.968137 
L 352.650116 287.694734 
L 352.019154 287.421331 
L 351.427253 287.147929 
L 350.881982 286.874526 
L 350.391131 286.601123 
L 349.962461 286.327721 
L 349.60344 286.054318 
L 349.320962 285.780915 
L 349.121082 285.507513 
L 349.008768 285.23411 
L 348.987699 284.960707 
L 349.060104 284.687305 
L 349.226663 284.413902 
L 349.486474 284.140499 
L 349.837084 283.867097 
L 350.274585 283.593694 
L 350.793769 283.320291 
L 351.388332 283.046888 
L 352.051116 282.773486 
L 352.774369 282.500083 
L 353.550021 282.22668 
L 354.369949 281.953278 
L 355.22622 281.679875 
L 356.111308 281.406472 
L 357.018258 281.13307 
L 357.940818 280.859667 
L 358.873502 280.586264 
L 359.811612 280.312862 
L 360.751211 280.039459 
L 361.689049 279.766056 
L 362.622463 279.492654 
L 363.549246 279.219251 
L 364.467511 278.945848 
L 365.375545 278.672446 
L 366.271682 278.399043 
L 367.154191 278.12564 
L 368.021184 277.852238 
L 368.870568 277.578835 
L 369.700023 277.305432 
L 370.507018 277.03203 
L 371.28886 276.758627 
L 372.042771 276.485224 
L 372.765992 276.211822 
L 373.455891 275.938419 
L 374.110093 275.665016 
L 374.726593 275.391614 
L 375.303866 275.118211 
L 375.840958 274.844808 
L 376.337549 274.571406 
L 376.793989 274.298003 
L 377.211302 274.0246 
L 377.591159 273.751198 
L 377.935815 273.477795 
L 378.248028 273.204392 
L 378.530951 272.93099 
L 378.788003 272.657587 
L 379.022745 272.384184 
L 379.238743 272.110782 
L 379.439442 271.837379 
L 379.628051 271.563976 
L 386.236438 271.563976 
L 386.236438 271.563976 
L 386.425047 271.837379 
L 386.625746 272.110782 
L 386.841744 272.384184 
L 387.076486 272.657587 
L 387.333538 272.93099 
L 387.61646 273.204392 
L 387.928674 273.477795 
L 388.27333 273.751198 
L 388.653186 274.0246 
L 389.0705 274.298003 
L 389.52694 274.571406 
L 390.023531 274.844808 
L 390.560623 275.118211 
L 391.137896 275.391614 
L 391.754396 275.665016 
L 392.408598 275.938419 
L 393.098497 276.211822 
L 393.821717 276.485224 
L 394.575629 276.758627 
L 395.357471 277.03203 
L 396.164466 277.305432 
L 396.993921 277.578835 
L 397.843305 277.852238 
L 398.710298 278.12564 
L 399.592806 278.399043 
L 400.488944 278.672446 
L 401.396978 278.945848 
L 402.315242 279.219251 
L 403.242026 279.492654 
L 404.17544 279.766056 
L 405.113278 280.039459 
L 406.052877 280.312862 
L 406.990987 280.586264 
L 407.92367 280.859667 
L 408.84623 281.13307 
L 409.753181 281.406472 
L 410.638268 281.679875 
L 411.494539 281.953278 
L 412.314467 282.22668 
L 413.09012 282.500083 
L 413.813373 282.773486 
L 414.476156 283.046888 
L 415.07072 283.320291 
L 415.589904 283.593694 
L 416.027405 283.867097 
L 416.378014 284.140499 
L 416.637826 284.413902 
L 416.804385 284.687305 
L 416.87679 284.960707 
L 416.855721 285.23411 
L 416.743407 285.507513 
L 416.543526 285.780915 
L 416.261048 286.054318 
L 415.902027 286.327721 
L 415.473358 286.601123 
L 414.982507 286.874526 
L 414.437235 287.147929 
L 413.845334 287.421331 
L 413.214373 287.694734 
L 412.551488 287.968137 
L 411.863212 288.241539 
L 411.155357 288.514942 
L 410.432945 288.788345 
L 409.700196 289.061747 
L 408.960564 289.33515 
L 408.216816 289.608553 
L 407.471142 289.881955 
L 406.725284 290.155358 
L 405.980682 290.428761 
L 405.238615 290.702163 
L 404.500321 290.975566 
L 403.767113 291.248969 
L 403.040442 291.522371 
L 402.321948 291.795774 
L 401.613459 292.069177 
L 400.916962 292.342579 
L 400.234543 292.615982 
L 399.568298 292.889385 
L 398.920234 293.162787 
L 398.292152 293.43619 
L 397.685538 293.709593 
L 397.101469 293.982995 
L 396.540524 294.256398 
L 396.002737 294.529801 
L 395.48757 294.803203 
L 394.993923 295.076606 
L 394.520177 295.350009 
L 394.064266 295.623411 
L 393.623779 295.896814 
L 393.196077 296.170217 
L 392.778426 296.44362 
L 392.368136 296.717022 
L 391.962688 296.990425 
L 391.559863 297.263828 
L 391.15784 297.53723 
L 390.755278 297.810633 
L 390.35137 298.084036 
L 389.945865 298.357438 
L 389.539067 298.630841 
z
" clip-path="url(#pfe3cec6b36)" style="fill: #e24a33; fill-opacity: 0.3"/>
   </g>
   <g id="line2d_23">
    <path d="M 60.459063 37.249292 
L 433.849063 37.249292 
" clip-path="url(#pfe3cec6b36)" style="fill: none; stroke-dasharray: 2.96,1.28; stroke-dashoffset: 0; stroke: #000000; stroke-width: 0.8"/>
   </g>
   <g id="LineCollection_1">
    <path d="M 111.375881 37.252647 
L 111.375881 37.247455 
" clip-path="url(#pfe3cec6b36)" style="fill: none; stroke: #8b0000; stroke-width: 1.5"/>
   </g>
   <g id="LineCollection_2">
    <path d="M 247.154063 37.279543 
L 247.154063 37.229568 
" clip-path="url(#pfe3cec6b36)" style="fill: none; stroke: #8b0000; stroke-width: 1.5"/>
   </g>
   <g id="LineCollection_3">
    <path d="M 382.932244 297.129612 
L 382.932244 275.606458 
" clip-path="url(#pfe3cec6b36)" style="fill: none; stroke: #8b0000; stroke-width: 1.5"/>
   </g>
   <g id="line2d_24">
    <defs>
     <path id="mb509855287" d="M 0 3 
C 0.795609 3 1.55874 2.683901 2.12132 2.12132 
C 2.683901 1.55874 3 0.795609 3 0 
C 3 -0.795609 2.683901 -1.55874 2.12132 -2.12132 
C 1.55874 -2.683901 0.795609 -3 0 -3 
C -0.795609 -3 -1.55874 -2.683901 -2.12132 -2.12132 
C -2.683901 -1.55874 -3 -0.795609 -3 0 
C -3 0.795609 -2.683901 1.55874 -2.12132 2.12132 
C -1.55874 2.683901 -0.795609 3 0 3 
z
" style="stroke: #8b0000"/>
    </defs>
    <g clip-path="url(#pfe3cec6b36)">
     <use xlink:href="#mb509855287" x="111.375881" y="37.249945" style="fill: #8b0000; stroke: #8b0000"/>
    </g>
   </g>
   <g id="line2d_25">
    <g clip-path="url(#pfe3cec6b36)">
     <use xlink:href="#mb509855287" x="247.154063" y="37.254523" style="fill: #8b0000; stroke: #8b0000"/>
    </g>
   </g>
   <g id="line2d_26">
    <g clip-path="url(#pfe3cec6b36)">
     <use xlink:href="#mb509855287" x="382.932244" y="285.886348" style="fill: #8b0000; stroke: #8b0000"/>
    </g>
   </g>
   <g id="patch_3">
    <path d="M 60.459063 311.70175 
L 60.459063 24.14175 
" style="fill: none; stroke: #ffffff; stroke-linejoin: miter; stroke-linecap: square"/>
   </g>
   <g id="patch_4">
    <path d="M 433.849063 311.70175 
L 433.849063 24.14175 
" style="fill: none; stroke: #ffffff; stroke-linejoin: miter; stroke-linecap: square"/>
   </g>
   <g id="patch_5">
    <path d="M 60.459063 311.70175 
L 433.849063 311.70175 
" style="fill: none; stroke: #ffffff; stroke-linejoin: miter; stroke-linecap: square"/>
   </g>
   <g id="patch_6">
    <path d="M 60.459063 24.14175 
L 433.849063 24.14175 
" style="fill: none; stroke: #ffffff; stroke-linejoin: miter; stroke-linecap: square"/>
   </g>
   <g id="text_13">
    <!-- Bootstrap distributions of ATE estimates -->
    <g transform="translate(102.443063 18.14175) scale(0.144 -0.144)">
     <defs>
      <path id="DejaVuSans-42" d="M 1259 2228 
L 1259 519 
L 2272 519 
Q 2781 519 3026 730 
Q 3272 941 3272 1375 
Q 3272 1813 3026 2020 
Q 2781 2228 2272 2228 
L 1259 2228 
z
M 1259 4147 
L 1259 2741 
L 2194 2741 
Q 2656 2741 2882 2914 
Q 3109 3088 3109 3444 
Q 3109 3797 2882 3972 
Q 2656 4147 2194 4147 
L 1259 4147 
z
M 628 4666 
L 2241 4666 
Q 2963 4666 3353 4366 
Q 3744 4066 3744 3513 
Q 3744 3084 3544 2831 
Q 3344 2578 2956 2516 
Q 3422 2416 3680 2098 
Q 3938 1781 3938 1306 
Q 3938 681 3513 340 
Q 3088 0 2303 0 
L 628 0 
L 628 4666 
z
" transform="scale(0.015625)"/>
      <path id="DejaVuSans-6f" d="M 1959 3097 
Q 1497 3097 1228 2736 
Q 959 2375 959 1747 
Q 959 1119 1226 758 
Q 1494 397 1959 397 
Q 2419 397 2687 759 
Q 2956 1122 2956 1747 
Q 2956 2369 2687 2733 
Q 2419 3097 1959 3097 
z
M 1959 3584 
Q 2709 3584 3137 3096 
Q 3566 2609 3566 1747 
Q 3566 888 3137 398 
Q 2709 -91 1959 -91 
Q 1206 -91 779 398 
Q 353 888 353 1747 
Q 353 2609 779 3096 
Q 1206 3584 1959 3584 
z
" transform="scale(0.015625)"/>
      <path id="DejaVuSans-74" d="M 1172 4494 
L 1172 3500 
L 2356 3500 
L 2356 3053 
L 1172 3053 
L 1172 1153 
Q 1172 725 1289 603 
Q 1406 481 1766 481 
L 2356 481 
L 2356 0 
L 1766 0 
Q 1100 0 847 248 
Q 594 497 594 1153 
L 594 3053 
L 172 3053 
L 172 3500 
L 594 3500 
L 594 4494 
L 1172 4494 
z
" transform="scale(0.015625)"/>
      <path id="DejaVuSans-73" d="M 2834 3397 
L 2834 2853 
Q 2591 2978 2328 3040 
Q 2066 3103 1784 3103 
Q 1356 3103 1142 2972 
Q 928 2841 928 2578 
Q 928 2378 1081 2264 
Q 1234 2150 1697 2047 
L 1894 2003 
Q 2506 1872 2764 1633 
Q 3022 1394 3022 966 
Q 3022 478 2636 193 
Q 2250 -91 1575 -91 
Q 1294 -91 989 -36 
Q 684 19 347 128 
L 347 722 
Q 666 556 975 473 
Q 1284 391 1588 391 
Q 1994 391 2212 530 
Q 2431 669 2431 922 
Q 2431 1156 2273 1281 
Q 2116 1406 1581 1522 
L 1381 1569 
Q 847 1681 609 1914 
Q 372 2147 372 2553 
Q 372 3047 722 3315 
Q 1072 3584 1716 3584 
Q 2034 3584 2315 3537 
Q 2597 3491 2834 3397 
z
" transform="scale(0.015625)"/>
      <path id="DejaVuSans-70" d="M 1159 525 
L 1159 -1331 
L 581 -1331 
L 581 3500 
L 1159 3500 
L 1159 2969 
Q 1341 3281 1617 3432 
Q 1894 3584 2278 3584 
Q 2916 3584 3314 3078 
Q 3713 2572 3713 1747 
Q 3713 922 3314 415 
Q 2916 -91 2278 -91 
Q 1894 -91 1617 61 
Q 1341 213 1159 525 
z
M 3116 1747 
Q 3116 2381 2855 2742 
Q 2594 3103 2138 3103 
Q 1681 3103 1420 2742 
Q 1159 2381 1159 1747 
Q 1159 1113 1420 752 
Q 1681 391 2138 391 
Q 2594 391 2855 752 
Q 3116 1113 3116 1747 
z
" transform="scale(0.015625)"/>
      <path id="DejaVuSans-20" transform="scale(0.015625)"/>
      <path id="DejaVuSans-64" d="M 2906 2969 
L 2906 4863 
L 3481 4863 
L 3481 0 
L 2906 0 
L 2906 525 
Q 2725 213 2448 61 
Q 2172 -91 1784 -91 
Q 1150 -91 751 415 
Q 353 922 353 1747 
Q 353 2572 751 3078 
Q 1150 3584 1784 3584 
Q 2172 3584 2448 3432 
Q 2725 3281 2906 2969 
z
M 947 1747 
Q 947 1113 1208 752 
Q 1469 391 1925 391 
Q 2381 391 2643 752 
Q 2906 1113 2906 1747 
Q 2906 2381 2643 2742 
Q 2381 3103 1925 3103 
Q 1469 3103 1208 2742 
Q 947 2381 947 1747 
z
" transform="scale(0.015625)"/>
      <path id="DejaVuSans-69" d="M 603 3500 
L 1178 3500 
L 1178 0 
L 603 0 
L 603 3500 
z
M 603 4863 
L 1178 4863 
L 1178 4134 
L 603 4134 
L 603 4863 
z
" transform="scale(0.015625)"/>
      <path id="DejaVuSans-62" d="M 3116 1747 
Q 3116 2381 2855 2742 
Q 2594 3103 2138 3103 
Q 1681 3103 1420 2742 
Q 1159 2381 1159 1747 
Q 1159 1113 1420 752 
Q 1681 391 2138 391 
Q 2594 391 2855 752 
Q 3116 1113 3116 1747 
z
M 1159 2969 
Q 1341 3281 1617 3432 
Q 1894 3584 2278 3584 
Q 2916 3584 3314 3078 
Q 3713 2572 3713 1747 
Q 3713 922 3314 415 
Q 2916 -91 2278 -91 
Q 1894 -91 1617 61 
Q 1341 213 1159 525 
L 1159 0 
L 581 0 
L 581 4863 
L 1159 4863 
L 1159 2969 
z
" transform="scale(0.015625)"/>
      <path id="DejaVuSans-75" d="M 544 1381 
L 544 3500 
L 1119 3500 
L 1119 1403 
Q 1119 906 1312 657 
Q 1506 409 1894 409 
Q 2359 409 2629 706 
Q 2900 1003 2900 1516 
L 2900 3500 
L 3475 3500 
L 3475 0 
L 2900 0 
L 2900 538 
Q 2691 219 2414 64 
Q 2138 -91 1772 -91 
Q 1169 -91 856 284 
Q 544 659 544 1381 
z
M 1991 3584 
L 1991 3584 
z
" transform="scale(0.015625)"/>
      <path id="DejaVuSans-66" d="M 2375 4863 
L 2375 4384 
L 1825 4384 
Q 1516 4384 1395 4259 
Q 1275 4134 1275 3809 
L 1275 3500 
L 2222 3500 
L 2222 3053 
L 1275 3053 
L 1275 0 
L 697 0 
L 697 3053 
L 147 3053 
L 147 3500 
L 697 3500 
L 697 3744 
Q 697 4328 969 4595 
Q 1241 4863 1831 4863 
L 2375 4863 
z
" transform="scale(0.015625)"/>
      <path id="DejaVuSans-6d" d="M 3328 2828 
Q 3544 3216 3844 3400 
Q 4144 3584 4550 3584 
Q 5097 3584 5394 3201 
Q 5691 2819 5691 2113 
L 5691 0 
L 5113 0 
L 5113 2094 
Q 5113 2597 4934 2840 
Q 4756 3084 4391 3084 
Q 3944 3084 3684 2787 
Q 3425 2491 3425 1978 
L 3425 0 
L 2847 0 
L 2847 2094 
Q 2847 2600 2669 2842 
Q 2491 3084 2119 3084 
Q 1678 3084 1418 2786 
Q 1159 2488 1159 1978 
L 1159 0 
L 581 0 
L 581 3500 
L 1159 3500 
L 1159 2956 
Q 1356 3278 1631 3431 
Q 1906 3584 2284 3584 
Q 2666 3584 2933 3390 
Q 3200 3197 3328 2828 
z
" transform="scale(0.015625)"/>
     </defs>
     <use xlink:href="#DejaVuSans-42"/>
     <use xlink:href="#DejaVuSans-6f" transform="translate(68.603516 0)"/>
     <use xlink:href="#DejaVuSans-6f" transform="translate(129.785156 0)"/>
     <use xlink:href="#DejaVuSans-74" transform="translate(190.966797 0)"/>
     <use xlink:href="#DejaVuSans-73" transform="translate(230.175781 0)"/>
     <use xlink:href="#DejaVuSans-74" transform="translate(282.275391 0)"/>
     <use xlink:href="#DejaVuSans-72" transform="translate(321.484375 0)"/>
     <use xlink:href="#DejaVuSans-61" transform="translate(362.597656 0)"/>
     <use xlink:href="#DejaVuSans-70" transform="translate(423.876953 0)"/>
     <use xlink:href="#DejaVuSans-20" transform="translate(487.353516 0)"/>
     <use xlink:href="#DejaVuSans-64" transform="translate(519.140625 0)"/>
     <use xlink:href="#DejaVuSans-69" transform="translate(582.617188 0)"/>
     <use xlink:href="#DejaVuSans-73" transform="translate(610.400391 0)"/>
     <use xlink:href="#DejaVuSans-74" transform="translate(662.5 0)"/>
     <use xlink:href="#DejaVuSans-72" transform="translate(701.708984 0)"/>
     <use xlink:href="#DejaVuSans-69" transform="translate(742.822266 0)"/>
     <use xlink:href="#DejaVuSans-62" transform="translate(770.605469 0)"/>
     <use xlink:href="#DejaVuSans-75" transform="translate(834.082031 0)"/>
     <use xlink:href="#DejaVuSans-74" transform="translate(897.460938 0)"/>
     <use xlink:href="#DejaVuSans-69" transform="translate(936.669922 0)"/>
     <use xlink:href="#DejaVuSans-6f" transform="translate(964.453125 0)"/>
     <use xlink:href="#DejaVuSans-6e" transform="translate(1025.634766 0)"/>
     <use xlink:href="#DejaVuSans-73" transform="translate(1089.013672 0)"/>
     <use xlink:href="#DejaVuSans-20" transform="translate(1141.113281 0)"/>
     <use xlink:href="#DejaVuSans-6f" transform="translate(1172.900391 0)"/>
     <use xlink:href="#DejaVuSans-66" transform="translate(1234.082031 0)"/>
     <use xlink:href="#DejaVuSans-20" transform="translate(1269.287109 0)"/>
     <use xlink:href="#DejaVuSans-41" transform="translate(1301.074219 0)"/>
     <use xlink:href="#DejaVuSans-54" transform="translate(1361.732422 0)"/>
     <use xlink:href="#DejaVuSans-45" transform="translate(1422.816406 0)"/>
     <use xlink:href="#DejaVuSans-20" transform="translate(1486 0)"/>
     <use xlink:href="#DejaVuSans-65" transform="translate(1517.787109 0)"/>
     <use xlink:href="#DejaVuSans-73" transform="translate(1579.310547 0)"/>
     <use xlink:href="#DejaVuSans-74" transform="translate(1631.410156 0)"/>
     <use xlink:href="#DejaVuSans-69" transform="translate(1670.619141 0)"/>
     <use xlink:href="#DejaVuSans-6d" transform="translate(1698.402344 0)"/>
     <use xlink:href="#DejaVuSans-61" transform="translate(1795.814453 0)"/>
     <use xlink:href="#DejaVuSans-74" transform="translate(1857.09375 0)"/>
     <use xlink:href="#DejaVuSans-65" transform="translate(1896.302734 0)"/>
     <use xlink:href="#DejaVuSans-73" transform="translate(1957.826172 0)"/>
    </g>
   </g>
  </g>
  <g id="axes_2">
   <g id="patch_7">
    <path d="M 474.999062 311.70175 
L 848.389063 311.70175 
L 848.389063 24.14175 
L 474.999062 24.14175 
z
" style="fill: #e5e5e5"/>
   </g>
   <g id="matplotlib.axis_3">
    <g id="xtick_4">
     <g id="line2d_27">
      <path d="M 491.971335 311.70175 
L 491.971335 24.14175 
" clip-path="url(#pfb0b359dcb)" style="fill: none; stroke: #ffffff; stroke-width: 0.8; stroke-linecap: square"/>
     </g>
     <g id="line2d_28">
      <g>
       <use xlink:href="#m862e2460d9" x="491.971335" y="311.70175" style="fill: #555555; stroke: #555555; stroke-width: 0.8"/>
      </g>
     </g>
     <g id="text_14">
      <!-- 0.0 -->
      <g style="fill: #555555" transform="translate(484.019773 326.300187) scale(0.1 -0.1)">
       <use xlink:href="#DejaVuSans-30"/>
       <use xlink:href="#DejaVuSans-2e" transform="translate(63.623047 0)"/>
       <use xlink:href="#DejaVuSans-30" transform="translate(95.410156 0)"/>
      </g>
     </g>
    </g>
    <g id="xtick_5">
     <g id="line2d_29">
      <path d="M 560.546175 311.70175 
L 560.546175 24.14175 
" clip-path="url(#pfb0b359dcb)" style="fill: none; stroke: #ffffff; stroke-width: 0.8; stroke-linecap: square"/>
     </g>
     <g id="line2d_30">
      <g>
       <use xlink:href="#m862e2460d9" x="560.546175" y="311.70175" style="fill: #555555; stroke: #555555; stroke-width: 0.8"/>
      </g>
     </g>
     <g id="text_15">
      <!-- 0.2 -->
      <g style="fill: #555555" transform="translate(552.594612 326.300187) scale(0.1 -0.1)">
       <use xlink:href="#DejaVuSans-30"/>
       <use xlink:href="#DejaVuSans-2e" transform="translate(63.623047 0)"/>
       <use xlink:href="#DejaVuSans-32" transform="translate(95.410156 0)"/>
      </g>
     </g>
    </g>
    <g id="xtick_6">
     <g id="line2d_31">
      <path d="M 629.121014 311.70175 
L 629.121014 24.14175 
" clip-path="url(#pfb0b359dcb)" style="fill: none; stroke: #ffffff; stroke-width: 0.8; stroke-linecap: square"/>
     </g>
     <g id="line2d_32">
      <g>
       <use xlink:href="#m862e2460d9" x="629.121014" y="311.70175" style="fill: #555555; stroke: #555555; stroke-width: 0.8"/>
      </g>
     </g>
     <g id="text_16">
      <!-- 0.4 -->
      <g style="fill: #555555" transform="translate(621.169451 326.300187) scale(0.1 -0.1)">
       <defs>
        <path id="DejaVuSans-34" d="M 2419 4116 
L 825 1625 
L 2419 1625 
L 2419 4116 
z
M 2253 4666 
L 3047 4666 
L 3047 1625 
L 3713 1625 
L 3713 1100 
L 3047 1100 
L 3047 0 
L 2419 0 
L 2419 1100 
L 313 1100 
L 313 1709 
L 2253 4666 
z
" transform="scale(0.015625)"/>
       </defs>
       <use xlink:href="#DejaVuSans-30"/>
       <use xlink:href="#DejaVuSans-2e" transform="translate(63.623047 0)"/>
       <use xlink:href="#DejaVuSans-34" transform="translate(95.410156 0)"/>
      </g>
     </g>
    </g>
    <g id="xtick_7">
     <g id="line2d_33">
      <path d="M 697.695853 311.70175 
L 697.695853 24.14175 
" clip-path="url(#pfb0b359dcb)" style="fill: none; stroke: #ffffff; stroke-width: 0.8; stroke-linecap: square"/>
     </g>
     <g id="line2d_34">
      <g>
       <use xlink:href="#m862e2460d9" x="697.695853" y="311.70175" style="fill: #555555; stroke: #555555; stroke-width: 0.8"/>
      </g>
     </g>
     <g id="text_17">
      <!-- 0.6 -->
      <g style="fill: #555555" transform="translate(689.744291 326.300187) scale(0.1 -0.1)">
       <defs>
        <path id="DejaVuSans-36" d="M 2113 2584 
Q 1688 2584 1439 2293 
Q 1191 2003 1191 1497 
Q 1191 994 1439 701 
Q 1688 409 2113 409 
Q 2538 409 2786 701 
Q 3034 994 3034 1497 
Q 3034 2003 2786 2293 
Q 2538 2584 2113 2584 
z
M 3366 4563 
L 3366 3988 
Q 3128 4100 2886 4159 
Q 2644 4219 2406 4219 
Q 1781 4219 1451 3797 
Q 1122 3375 1075 2522 
Q 1259 2794 1537 2939 
Q 1816 3084 2150 3084 
Q 2853 3084 3261 2657 
Q 3669 2231 3669 1497 
Q 3669 778 3244 343 
Q 2819 -91 2113 -91 
Q 1303 -91 875 529 
Q 447 1150 447 2328 
Q 447 3434 972 4092 
Q 1497 4750 2381 4750 
Q 2619 4750 2861 4703 
Q 3103 4656 3366 4563 
z
" transform="scale(0.015625)"/>
       </defs>
       <use xlink:href="#DejaVuSans-30"/>
       <use xlink:href="#DejaVuSans-2e" transform="translate(63.623047 0)"/>
       <use xlink:href="#DejaVuSans-36" transform="translate(95.410156 0)"/>
      </g>
     </g>
    </g>
    <g id="xtick_8">
     <g id="line2d_35">
      <path d="M 766.270692 311.70175 
L 766.270692 24.14175 
" clip-path="url(#pfb0b359dcb)" style="fill: none; stroke: #ffffff; stroke-width: 0.8; stroke-linecap: square"/>
     </g>
     <g id="line2d_36">
      <g>
       <use xlink:href="#m862e2460d9" x="766.270692" y="311.70175" style="fill: #555555; stroke: #555555; stroke-width: 0.8"/>
      </g>
     </g>
     <g id="text_18">
      <!-- 0.8 -->
      <g style="fill: #555555" transform="translate(758.31913 326.300187) scale(0.1 -0.1)">
       <defs>
        <path id="DejaVuSans-38" d="M 2034 2216 
Q 1584 2216 1326 1975 
Q 1069 1734 1069 1313 
Q 1069 891 1326 650 
Q 1584 409 2034 409 
Q 2484 409 2743 651 
Q 3003 894 3003 1313 
Q 3003 1734 2745 1975 
Q 2488 2216 2034 2216 
z
M 1403 2484 
Q 997 2584 770 2862 
Q 544 3141 544 3541 
Q 544 4100 942 4425 
Q 1341 4750 2034 4750 
Q 2731 4750 3128 4425 
Q 3525 4100 3525 3541 
Q 3525 3141 3298 2862 
Q 3072 2584 2669 2484 
Q 3125 2378 3379 2068 
Q 3634 1759 3634 1313 
Q 3634 634 3220 271 
Q 2806 -91 2034 -91 
Q 1263 -91 848 271 
Q 434 634 434 1313 
Q 434 1759 690 2068 
Q 947 2378 1403 2484 
z
M 1172 3481 
Q 1172 3119 1398 2916 
Q 1625 2713 2034 2713 
Q 2441 2713 2670 2916 
Q 2900 3119 2900 3481 
Q 2900 3844 2670 4047 
Q 2441 4250 2034 4250 
Q 1625 4250 1398 4047 
Q 1172 3844 1172 3481 
z
" transform="scale(0.015625)"/>
       </defs>
       <use xlink:href="#DejaVuSans-30"/>
       <use xlink:href="#DejaVuSans-2e" transform="translate(63.623047 0)"/>
       <use xlink:href="#DejaVuSans-38" transform="translate(95.410156 0)"/>
      </g>
     </g>
    </g>
    <g id="xtick_9">
     <g id="line2d_37">
      <path d="M 834.845532 311.70175 
L 834.845532 24.14175 
" clip-path="url(#pfb0b359dcb)" style="fill: none; stroke: #ffffff; stroke-width: 0.8; stroke-linecap: square"/>
     </g>
     <g id="line2d_38">
      <g>
       <use xlink:href="#m862e2460d9" x="834.845532" y="311.70175" style="fill: #555555; stroke: #555555; stroke-width: 0.8"/>
      </g>
     </g>
     <g id="text_19">
      <!-- 1.0 -->
      <g style="fill: #555555" transform="translate(826.893969 326.300187) scale(0.1 -0.1)">
       <use xlink:href="#DejaVuSans-31"/>
       <use xlink:href="#DejaVuSans-2e" transform="translate(63.623047 0)"/>
       <use xlink:href="#DejaVuSans-30" transform="translate(95.410156 0)"/>
      </g>
     </g>
    </g>
    <g id="text_20">
     <!-- Propensity score -->
     <g style="fill: #555555" transform="translate(612.152812 341.498) scale(0.12 -0.12)">
      <defs>
       <path id="DejaVuSans-79" d="M 2059 -325 
Q 1816 -950 1584 -1140 
Q 1353 -1331 966 -1331 
L 506 -1331 
L 506 -850 
L 844 -850 
Q 1081 -850 1212 -737 
Q 1344 -625 1503 -206 
L 1606 56 
L 191 3500 
L 800 3500 
L 1894 763 
L 2988 3500 
L 3597 3500 
L 2059 -325 
z
" transform="scale(0.015625)"/>
       <path id="DejaVuSans-63" d="M 3122 3366 
L 3122 2828 
Q 2878 2963 2633 3030 
Q 2388 3097 2138 3097 
Q 1578 3097 1268 2742 
Q 959 2388 959 1747 
Q 959 1106 1268 751 
Q 1578 397 2138 397 
Q 2388 397 2633 464 
Q 2878 531 3122 666 
L 3122 134 
Q 2881 22 2623 -34 
Q 2366 -91 2075 -91 
Q 1284 -91 818 406 
Q 353 903 353 1747 
Q 353 2603 823 3093 
Q 1294 3584 2113 3584 
Q 2378 3584 2631 3529 
Q 2884 3475 3122 3366 
z
" transform="scale(0.015625)"/>
      </defs>
      <use xlink:href="#DejaVuSans-50"/>
      <use xlink:href="#DejaVuSans-72" transform="translate(58.552734 0)"/>
      <use xlink:href="#DejaVuSans-6f" transform="translate(97.416016 0)"/>
      <use xlink:href="#DejaVuSans-70" transform="translate(158.597656 0)"/>
      <use xlink:href="#DejaVuSans-65" transform="translate(222.074219 0)"/>
      <use xlink:href="#DejaVuSans-6e" transform="translate(283.597656 0)"/>
      <use xlink:href="#DejaVuSans-73" transform="translate(346.976562 0)"/>
      <use xlink:href="#DejaVuSans-69" transform="translate(399.076172 0)"/>
      <use xlink:href="#DejaVuSans-74" transform="translate(426.859375 0)"/>
      <use xlink:href="#DejaVuSans-79" transform="translate(466.068359 0)"/>
      <use xlink:href="#DejaVuSans-20" transform="translate(525.248047 0)"/>
      <use xlink:href="#DejaVuSans-73" transform="translate(557.035156 0)"/>
      <use xlink:href="#DejaVuSans-63" transform="translate(609.134766 0)"/>
      <use xlink:href="#DejaVuSans-6f" transform="translate(664.115234 0)"/>
      <use xlink:href="#DejaVuSans-72" transform="translate(725.296875 0)"/>
      <use xlink:href="#DejaVuSans-65" transform="translate(764.160156 0)"/>
     </g>
    </g>
   </g>
   <g id="matplotlib.axis_4">
    <g id="ytick_9">
     <g id="line2d_39">
      <path d="M 474.999062 311.70175 
L 848.389063 311.70175 
" clip-path="url(#pfb0b359dcb)" style="fill: none; stroke: #ffffff; stroke-width: 0.8; stroke-linecap: square"/>
     </g>
     <g id="line2d_40">
      <g>
       <use xlink:href="#mc0913f5200" x="474.999062" y="311.70175" style="fill: #555555; stroke: #555555; stroke-width: 0.8"/>
      </g>
     </g>
     <g id="text_21">
      <!-- 0 -->
      <g style="fill: #555555" transform="translate(461.636562 315.500969) scale(0.1 -0.1)">
       <use xlink:href="#DejaVuSans-30"/>
      </g>
     </g>
    </g>
    <g id="ytick_10">
     <g id="line2d_41">
      <path d="M 474.999062 274.243986 
L 848.389063 274.243986 
" clip-path="url(#pfb0b359dcb)" style="fill: none; stroke: #ffffff; stroke-width: 0.8; stroke-linecap: square"/>
     </g>
     <g id="line2d_42">
      <g>
       <use xlink:href="#mc0913f5200" x="474.999062" y="274.243986" style="fill: #555555; stroke: #555555; stroke-width: 0.8"/>
      </g>
     </g>
     <g id="text_22">
      <!-- 1 -->
      <g style="fill: #555555" transform="translate(461.636562 278.043205) scale(0.1 -0.1)">
       <use xlink:href="#DejaVuSans-31"/>
      </g>
     </g>
    </g>
    <g id="ytick_11">
     <g id="line2d_43">
      <path d="M 474.999062 236.786223 
L 848.389063 236.786223 
" clip-path="url(#pfb0b359dcb)" style="fill: none; stroke: #ffffff; stroke-width: 0.8; stroke-linecap: square"/>
     </g>
     <g id="line2d_44">
      <g>
       <use xlink:href="#mc0913f5200" x="474.999062" y="236.786223" style="fill: #555555; stroke: #555555; stroke-width: 0.8"/>
      </g>
     </g>
     <g id="text_23">
      <!-- 2 -->
      <g style="fill: #555555" transform="translate(461.636562 240.585442) scale(0.1 -0.1)">
       <use xlink:href="#DejaVuSans-32"/>
      </g>
     </g>
    </g>
    <g id="ytick_12">
     <g id="line2d_45">
      <path d="M 474.999062 199.328459 
L 848.389063 199.328459 
" clip-path="url(#pfb0b359dcb)" style="fill: none; stroke: #ffffff; stroke-width: 0.8; stroke-linecap: square"/>
     </g>
     <g id="line2d_46">
      <g>
       <use xlink:href="#mc0913f5200" x="474.999062" y="199.328459" style="fill: #555555; stroke: #555555; stroke-width: 0.8"/>
      </g>
     </g>
     <g id="text_24">
      <!-- 3 -->
      <g style="fill: #555555" transform="translate(461.636562 203.127678) scale(0.1 -0.1)">
       <defs>
        <path id="DejaVuSans-33" d="M 2597 2516 
Q 3050 2419 3304 2112 
Q 3559 1806 3559 1356 
Q 3559 666 3084 287 
Q 2609 -91 1734 -91 
Q 1441 -91 1130 -33 
Q 819 25 488 141 
L 488 750 
Q 750 597 1062 519 
Q 1375 441 1716 441 
Q 2309 441 2620 675 
Q 2931 909 2931 1356 
Q 2931 1769 2642 2001 
Q 2353 2234 1838 2234 
L 1294 2234 
L 1294 2753 
L 1863 2753 
Q 2328 2753 2575 2939 
Q 2822 3125 2822 3475 
Q 2822 3834 2567 4026 
Q 2313 4219 1838 4219 
Q 1578 4219 1281 4162 
Q 984 4106 628 3988 
L 628 4550 
Q 988 4650 1302 4700 
Q 1616 4750 1894 4750 
Q 2613 4750 3031 4423 
Q 3450 4097 3450 3541 
Q 3450 3153 3228 2886 
Q 3006 2619 2597 2516 
z
" transform="scale(0.015625)"/>
       </defs>
       <use xlink:href="#DejaVuSans-33"/>
      </g>
     </g>
    </g>
    <g id="ytick_13">
     <g id="line2d_47">
      <path d="M 474.999062 161.870696 
L 848.389063 161.870696 
" clip-path="url(#pfb0b359dcb)" style="fill: none; stroke: #ffffff; stroke-width: 0.8; stroke-linecap: square"/>
     </g>
     <g id="line2d_48">
      <g>
       <use xlink:href="#mc0913f5200" x="474.999062" y="161.870696" style="fill: #555555; stroke: #555555; stroke-width: 0.8"/>
      </g>
     </g>
     <g id="text_25">
      <!-- 4 -->
      <g style="fill: #555555" transform="translate(461.636562 165.669915) scale(0.1 -0.1)">
       <use xlink:href="#DejaVuSans-34"/>
      </g>
     </g>
    </g>
    <g id="ytick_14">
     <g id="line2d_49">
      <path d="M 474.999062 124.412932 
L 848.389063 124.412932 
" clip-path="url(#pfb0b359dcb)" style="fill: none; stroke: #ffffff; stroke-width: 0.8; stroke-linecap: square"/>
     </g>
     <g id="line2d_50">
      <g>
       <use xlink:href="#mc0913f5200" x="474.999062" y="124.412932" style="fill: #555555; stroke: #555555; stroke-width: 0.8"/>
      </g>
     </g>
     <g id="text_26">
      <!-- 5 -->
      <g style="fill: #555555" transform="translate(461.636562 128.212151) scale(0.1 -0.1)">
       <use xlink:href="#DejaVuSans-35"/>
      </g>
     </g>
    </g>
    <g id="ytick_15">
     <g id="line2d_51">
      <path d="M 474.999062 86.955169 
L 848.389063 86.955169 
" clip-path="url(#pfb0b359dcb)" style="fill: none; stroke: #ffffff; stroke-width: 0.8; stroke-linecap: square"/>
     </g>
     <g id="line2d_52">
      <g>
       <use xlink:href="#mc0913f5200" x="474.999062" y="86.955169" style="fill: #555555; stroke: #555555; stroke-width: 0.8"/>
      </g>
     </g>
     <g id="text_27">
      <!-- 6 -->
      <g style="fill: #555555" transform="translate(461.636562 90.754388) scale(0.1 -0.1)">
       <use xlink:href="#DejaVuSans-36"/>
      </g>
     </g>
    </g>
    <g id="ytick_16">
     <g id="line2d_53">
      <path d="M 474.999062 49.497405 
L 848.389063 49.497405 
" clip-path="url(#pfb0b359dcb)" style="fill: none; stroke: #ffffff; stroke-width: 0.8; stroke-linecap: square"/>
     </g>
     <g id="line2d_54">
      <g>
       <use xlink:href="#mc0913f5200" x="474.999062" y="49.497405" style="fill: #555555; stroke: #555555; stroke-width: 0.8"/>
      </g>
     </g>
     <g id="text_28">
      <!-- 7 -->
      <g style="fill: #555555" transform="translate(461.636562 53.296624) scale(0.1 -0.1)">
       <use xlink:href="#DejaVuSans-37"/>
      </g>
     </g>
    </g>
    <g id="text_29">
     <!-- Density -->
     <g style="fill: #555555" transform="translate(455.140937 190.732062) rotate(-90) scale(0.12 -0.12)">
      <defs>
       <path id="DejaVuSans-44" d="M 1259 4147 
L 1259 519 
L 2022 519 
Q 2988 519 3436 956 
Q 3884 1394 3884 2338 
Q 3884 3275 3436 3711 
Q 2988 4147 2022 4147 
L 1259 4147 
z
M 628 4666 
L 1925 4666 
Q 3281 4666 3915 4102 
Q 4550 3538 4550 2338 
Q 4550 1131 3912 565 
Q 3275 0 1925 0 
L 628 0 
L 628 4666 
z
" transform="scale(0.015625)"/>
      </defs>
      <use xlink:href="#DejaVuSans-44"/>
      <use xlink:href="#DejaVuSans-65" transform="translate(77.001953 0)"/>
      <use xlink:href="#DejaVuSans-6e" transform="translate(138.525391 0)"/>
      <use xlink:href="#DejaVuSans-73" transform="translate(201.904297 0)"/>
      <use xlink:href="#DejaVuSans-69" transform="translate(254.003906 0)"/>
      <use xlink:href="#DejaVuSans-74" transform="translate(281.787109 0)"/>
      <use xlink:href="#DejaVuSans-79" transform="translate(320.996094 0)"/>
     </g>
    </g>
   </g>
   <g id="patch_8">
    <path d="M 692.55274 311.70175 
L 697.181542 311.70175 
L 697.181542 309.738092 
L 692.55274 309.738092 
z
" clip-path="url(#pfb0b359dcb)" style="fill: #e24a33; opacity: 0.6"/>
   </g>
   <g id="patch_9">
    <path d="M 697.181542 311.70175 
L 701.810343 311.70175 
L 701.810343 305.156222 
L 697.181542 305.156222 
z
" clip-path="url(#pfb0b359dcb)" style="fill: #e24a33; opacity: 0.6"/>
   </g>
   <g id="patch_10">
    <path d="M 701.810343 311.70175 
L 706.439145 311.70175 
L 706.439145 307.119881 
L 701.810343 307.119881 
z
" clip-path="url(#pfb0b359dcb)" style="fill: #e24a33; opacity: 0.6"/>
   </g>
   <g id="patch_11">
    <path d="M 706.439145 311.70175 
L 711.067947 311.70175 
L 711.067947 304.50167 
L 706.439145 304.50167 
z
" clip-path="url(#pfb0b359dcb)" style="fill: #e24a33; opacity: 0.6"/>
   </g>
   <g id="patch_12">
    <path d="M 711.067947 311.70175 
L 715.696748 311.70175 
L 715.696748 290.101509 
L 711.067947 290.101509 
z
" clip-path="url(#pfb0b359dcb)" style="fill: #e24a33; opacity: 0.6"/>
   </g>
   <g id="patch_13">
    <path d="M 715.696748 311.70175 
L 720.32555 311.70175 
L 720.32555 285.51964 
L 715.696748 285.51964 
z
" clip-path="url(#pfb0b359dcb)" style="fill: #e24a33; opacity: 0.6"/>
   </g>
   <g id="patch_14">
    <path d="M 720.32555 311.70175 
L 724.954352 311.70175 
L 724.954352 278.319559 
L 720.32555 278.319559 
z
" clip-path="url(#pfb0b359dcb)" style="fill: #e24a33; opacity: 0.6"/>
   </g>
   <g id="patch_15">
    <path d="M 724.954352 311.70175 
L 729.583153 311.70175 
L 729.583153 242.97371 
L 724.954352 242.97371 
z
" clip-path="url(#pfb0b359dcb)" style="fill: #e24a33; opacity: 0.6"/>
   </g>
   <g id="patch_16">
    <path d="M 729.583153 311.70175 
L 734.211955 311.70175 
L 734.211955 218.100705 
L 729.583153 218.100705 
z
" clip-path="url(#pfb0b359dcb)" style="fill: #e24a33; opacity: 0.6"/>
   </g>
   <g id="patch_17">
    <path d="M 734.211955 311.70175 
L 738.840757 311.70175 
L 738.840757 242.97371 
L 734.211955 242.97371 
z
" clip-path="url(#pfb0b359dcb)" style="fill: #e24a33; opacity: 0.6"/>
   </g>
   <g id="patch_18">
    <path d="M 738.840757 311.70175 
L 743.469558 311.70175 
L 743.469558 201.082334 
L 738.840757 201.082334 
z
" clip-path="url(#pfb0b359dcb)" style="fill: #e24a33; opacity: 0.6"/>
   </g>
   <g id="patch_19">
    <path d="M 743.469558 311.70175 
L 748.09836 311.70175 
L 748.09836 180.136645 
L 743.469558 180.136645 
z
" clip-path="url(#pfb0b359dcb)" style="fill: #e24a33; opacity: 0.6"/>
   </g>
   <g id="patch_20">
    <path d="M 748.09836 311.70175 
L 752.727162 311.70175 
L 752.727162 157.881851 
L 748.09836 157.881851 
z
" clip-path="url(#pfb0b359dcb)" style="fill: #e24a33; opacity: 0.6"/>
   </g>
   <g id="patch_21">
    <path d="M 752.727162 311.70175 
L 757.355963 311.70175 
L 757.355963 211.555178 
L 752.727162 211.555178 
z
" clip-path="url(#pfb0b359dcb)" style="fill: #e24a33; opacity: 0.6"/>
   </g>
   <g id="patch_22">
    <path d="M 757.355963 311.70175 
L 761.984765 311.70175 
L 761.984765 136.28161 
L 757.355963 136.28161 
z
" clip-path="url(#pfb0b359dcb)" style="fill: #e24a33; opacity: 0.6"/>
   </g>
   <g id="patch_23">
    <path d="M 761.984765 311.70175 
L 766.613567 311.70175 
L 766.613567 108.790394 
L 761.984765 108.790394 
z
" clip-path="url(#pfb0b359dcb)" style="fill: #e24a33; opacity: 0.6"/>
   </g>
   <g id="patch_24">
    <path d="M 766.613567 311.70175 
L 771.242368 311.70175 
L 771.242368 187.336726 
L 766.613567 187.336726 
z
" clip-path="url(#pfb0b359dcb)" style="fill: #e24a33; opacity: 0.6"/>
   </g>
   <g id="patch_25">
    <path d="M 771.242368 311.70175 
L 775.87117 311.70175 
L 775.87117 109.444947 
L 771.242368 109.444947 
z
" clip-path="url(#pfb0b359dcb)" style="fill: #e24a33; opacity: 0.6"/>
   </g>
   <g id="patch_26">
    <path d="M 775.87117 311.70175 
L 780.499972 311.70175 
L 780.499972 117.954133 
L 775.87117 117.954133 
z
" clip-path="url(#pfb0b359dcb)" style="fill: #e24a33; opacity: 0.6"/>
   </g>
   <g id="patch_27">
    <path d="M 780.499972 311.70175 
L 785.128773 311.70175 
L 785.128773 184.718515 
L 780.499972 184.718515 
z
" clip-path="url(#pfb0b359dcb)" style="fill: #e24a33; opacity: 0.6"/>
   </g>
   <g id="patch_28">
    <path d="M 785.128773 311.70175 
L 789.757575 311.70175 
L 789.757575 138.899821 
L 785.128773 138.899821 
z
" clip-path="url(#pfb0b359dcb)" style="fill: #e24a33; opacity: 0.6"/>
   </g>
   <g id="patch_29">
    <path d="M 789.757575 311.70175 
L 794.386377 311.70175 
L 794.386377 168.354696 
L 789.757575 168.354696 
z
" clip-path="url(#pfb0b359dcb)" style="fill: #e24a33; opacity: 0.6"/>
   </g>
   <g id="patch_30">
    <path d="M 794.386377 311.70175 
L 799.015178 311.70175 
L 799.015178 167.04559 
L 794.386377 167.04559 
z
" clip-path="url(#pfb0b359dcb)" style="fill: #e24a33; opacity: 0.6"/>
   </g>
   <g id="patch_31">
    <path d="M 799.015178 311.70175 
L 803.64398 311.70175 
L 803.64398 224.646233 
L 799.015178 224.646233 
z
" clip-path="url(#pfb0b359dcb)" style="fill: #e24a33; opacity: 0.6"/>
   </g>
   <g id="patch_32">
    <path d="M 803.64398 311.70175 
L 808.272782 311.70175 
L 808.272782 198.464123 
L 803.64398 198.464123 
z
" clip-path="url(#pfb0b359dcb)" style="fill: #e24a33; opacity: 0.6"/>
   </g>
   <g id="patch_33">
    <path d="M 808.272782 311.70175 
L 812.901583 311.70175 
L 812.901583 216.137047 
L 808.272782 216.137047 
z
" clip-path="url(#pfb0b359dcb)" style="fill: #e24a33; opacity: 0.6"/>
   </g>
   <g id="patch_34">
    <path d="M 812.901583 311.70175 
L 817.530385 311.70175 
L 817.530385 263.264846 
L 812.901583 263.264846 
z
" clip-path="url(#pfb0b359dcb)" style="fill: #e24a33; opacity: 0.6"/>
   </g>
   <g id="patch_35">
    <path d="M 817.530385 311.70175 
L 822.159186 311.70175 
L 822.159186 248.210132 
L 817.530385 248.210132 
z
" clip-path="url(#pfb0b359dcb)" style="fill: #e24a33; opacity: 0.6"/>
   </g>
   <g id="patch_36">
    <path d="M 822.159186 311.70175 
L 826.787988 311.70175 
L 826.787988 277.665006 
L 822.159186 277.665006 
z
" clip-path="url(#pfb0b359dcb)" style="fill: #e24a33; opacity: 0.6"/>
   </g>
   <g id="patch_37">
    <path d="M 826.787988 311.70175 
L 831.41679 311.70175 
L 831.41679 294.028825 
L 826.787988 294.028825 
z
" clip-path="url(#pfb0b359dcb)" style="fill: #e24a33; opacity: 0.6"/>
   </g>
   <g id="patch_38">
    <path d="M 491.971335 311.70175 
L 496.600137 311.70175 
L 496.600137 192.093315 
L 491.971335 192.093315 
z
" clip-path="url(#pfb0b359dcb)" style="fill: #348abd; opacity: 0.6"/>
   </g>
   <g id="patch_39">
    <path d="M 496.600137 311.70175 
L 501.228939 311.70175 
L 501.228939 53.827297 
L 496.600137 53.827297 
z
" clip-path="url(#pfb0b359dcb)" style="fill: #348abd; opacity: 0.6"/>
   </g>
   <g id="patch_40">
    <path d="M 501.228939 311.70175 
L 505.85774 311.70175 
L 505.85774 37.835083 
L 501.228939 37.835083 
z
" clip-path="url(#pfb0b359dcb)" style="fill: #348abd; opacity: 0.6"/>
   </g>
   <g id="patch_41">
    <path d="M 505.85774 311.70175 
L 510.486542 311.70175 
L 510.486542 117.129812 
L 505.85774 117.129812 
z
" clip-path="url(#pfb0b359dcb)" style="fill: #348abd; opacity: 0.6"/>
   </g>
   <g id="patch_42">
    <path d="M 510.486542 311.70175 
L 515.115343 311.70175 
L 515.115343 46.830704 
L 510.486542 46.830704 
z
" clip-path="url(#pfb0b359dcb)" style="fill: #348abd; opacity: 0.6"/>
   </g>
   <g id="patch_43">
    <path d="M 515.115343 311.70175 
L 519.744145 311.70175 
L 519.744145 69.819512 
L 515.115343 69.819512 
z
" clip-path="url(#pfb0b359dcb)" style="fill: #348abd; opacity: 0.6"/>
   </g>
   <g id="patch_44">
    <path d="M 519.744145 311.70175 
L 524.372947 311.70175 
L 524.372947 166.77231 
L 519.744145 166.77231 
z
" clip-path="url(#pfb0b359dcb)" style="fill: #348abd; opacity: 0.6"/>
   </g>
   <g id="patch_45">
    <path d="M 524.372947 311.70175 
L 529.001748 311.70175 
L 529.001748 122.46055 
L 524.372947 122.46055 
z
" clip-path="url(#pfb0b359dcb)" style="fill: #348abd; opacity: 0.6"/>
   </g>
   <g id="patch_46">
    <path d="M 529.001748 311.70175 
L 533.63055 311.70175 
L 533.63055 120.794694 
L 529.001748 120.794694 
z
" clip-path="url(#pfb0b359dcb)" style="fill: #348abd; opacity: 0.6"/>
   </g>
   <g id="patch_47">
    <path d="M 533.63055 311.70175 
L 538.259352 311.70175 
L 538.259352 205.753332 
L 533.63055 205.753332 
z
" clip-path="url(#pfb0b359dcb)" style="fill: #348abd; opacity: 0.6"/>
   </g>
   <g id="patch_48">
    <path d="M 538.259352 311.70175 
L 542.888153 311.70175 
L 542.888153 161.1084 
L 538.259352 161.1084 
z
" clip-path="url(#pfb0b359dcb)" style="fill: #348abd; opacity: 0.6"/>
   </g>
   <g id="patch_49">
    <path d="M 542.888153 311.70175 
L 547.516955 311.70175 
L 547.516955 177.766957 
L 542.888153 177.766957 
z
" clip-path="url(#pfb0b359dcb)" style="fill: #348abd; opacity: 0.6"/>
   </g>
   <g id="patch_50">
    <path d="M 547.516955 311.70175 
L 552.145757 311.70175 
L 552.145757 195.758198 
L 547.516955 195.758198 
z
" clip-path="url(#pfb0b359dcb)" style="fill: #348abd; opacity: 0.6"/>
   </g>
   <g id="patch_51">
    <path d="M 552.145757 311.70175 
L 556.774558 311.70175 
L 556.774558 243.401669 
L 552.145757 243.401669 
z
" clip-path="url(#pfb0b359dcb)" style="fill: #348abd; opacity: 0.6"/>
   </g>
   <g id="patch_52">
    <path d="M 556.774558 311.70175 
L 561.40336 311.70175 
L 561.40336 228.075797 
L 556.774558 228.075797 
z
" clip-path="url(#pfb0b359dcb)" style="fill: #348abd; opacity: 0.6"/>
   </g>
   <g id="patch_53">
    <path d="M 561.40336 311.70175 
L 566.032162 311.70175 
L 566.032162 242.402156 
L 561.40336 242.402156 
z
" clip-path="url(#pfb0b359dcb)" style="fill: #348abd; opacity: 0.6"/>
   </g>
   <g id="patch_54">
    <path d="M 566.032162 311.70175 
L 570.660963 311.70175 
L 570.660963 278.051466 
L 566.032162 278.051466 
z
" clip-path="url(#pfb0b359dcb)" style="fill: #348abd; opacity: 0.6"/>
   </g>
   <g id="patch_55">
    <path d="M 570.660963 311.70175 
L 575.289765 311.70175 
L 575.289765 274.386584 
L 570.660963 274.386584 
z
" clip-path="url(#pfb0b359dcb)" style="fill: #348abd; opacity: 0.6"/>
   </g>
   <g id="patch_56">
    <path d="M 575.289765 311.70175 
L 579.918567 311.70175 
L 579.918567 276.052439 
L 575.289765 276.052439 
z
" clip-path="url(#pfb0b359dcb)" style="fill: #348abd; opacity: 0.6"/>
   </g>
   <g id="patch_57">
    <path d="M 579.918567 311.70175 
L 584.547368 311.70175 
L 584.547368 294.710023 
L 579.918567 294.710023 
z
" clip-path="url(#pfb0b359dcb)" style="fill: #348abd; opacity: 0.6"/>
   </g>
   <g id="patch_58">
    <path d="M 584.547368 311.70175 
L 589.17617 311.70175 
L 589.17617 295.043194 
L 584.547368 295.043194 
z
" clip-path="url(#pfb0b359dcb)" style="fill: #348abd; opacity: 0.6"/>
   </g>
   <g id="patch_59">
    <path d="M 589.17617 311.70175 
L 593.804972 311.70175 
L 593.804972 301.373445 
L 589.17617 301.373445 
z
" clip-path="url(#pfb0b359dcb)" style="fill: #348abd; opacity: 0.6"/>
   </g>
   <g id="patch_60">
    <path d="M 593.804972 311.70175 
L 598.433773 311.70175 
L 598.433773 303.705643 
L 593.804972 303.705643 
z
" clip-path="url(#pfb0b359dcb)" style="fill: #348abd; opacity: 0.6"/>
   </g>
   <g id="patch_61">
    <path d="M 598.433773 311.70175 
L 603.062575 311.70175 
L 603.062575 307.370525 
L 598.433773 307.370525 
z
" clip-path="url(#pfb0b359dcb)" style="fill: #348abd; opacity: 0.6"/>
   </g>
   <g id="patch_62">
    <path d="M 603.062575 311.70175 
L 607.691377 311.70175 
L 607.691377 309.036381 
L 603.062575 309.036381 
z
" clip-path="url(#pfb0b359dcb)" style="fill: #348abd; opacity: 0.6"/>
   </g>
   <g id="patch_63">
    <path d="M 607.691377 311.70175 
L 612.320178 311.70175 
L 612.320178 310.369065 
L 607.691377 310.369065 
z
" clip-path="url(#pfb0b359dcb)" style="fill: #348abd; opacity: 0.6"/>
   </g>
   <g id="patch_64">
    <path d="M 612.320178 311.70175 
L 616.94898 311.70175 
L 616.94898 311.368579 
L 612.320178 311.368579 
z
" clip-path="url(#pfb0b359dcb)" style="fill: #348abd; opacity: 0.6"/>
   </g>
   <g id="patch_65">
    <path d="M 616.94898 311.70175 
L 621.577782 311.70175 
L 621.577782 310.035894 
L 616.94898 310.035894 
z
" clip-path="url(#pfb0b359dcb)" style="fill: #348abd; opacity: 0.6"/>
   </g>
   <g id="patch_66">
    <path d="M 621.577782 311.70175 
L 626.206583 311.70175 
L 626.206583 311.70175 
L 621.577782 311.70175 
z
" clip-path="url(#pfb0b359dcb)" style="fill: #348abd; opacity: 0.6"/>
   </g>
   <g id="patch_67">
    <path d="M 626.206583 311.70175 
L 630.835385 311.70175 
L 630.835385 311.368579 
L 626.206583 311.368579 
z
" clip-path="url(#pfb0b359dcb)" style="fill: #348abd; opacity: 0.6"/>
   </g>
   <g id="patch_68">
    <path d="M 474.999062 311.70175 
L 474.999062 24.14175 
" style="fill: none; stroke: #ffffff; stroke-linejoin: miter; stroke-linecap: square"/>
   </g>
   <g id="patch_69">
    <path d="M 848.389063 311.70175 
L 848.389063 24.14175 
" style="fill: none; stroke: #ffffff; stroke-linejoin: miter; stroke-linecap: square"/>
   </g>
   <g id="patch_70">
    <path d="M 474.999062 311.70175 
L 848.389063 311.70175 
" style="fill: none; stroke: #ffffff; stroke-linejoin: miter; stroke-linecap: square"/>
   </g>
   <g id="patch_71">
    <path d="M 474.999062 24.14175 
L 848.389063 24.14175 
" style="fill: none; stroke: #ffffff; stroke-linejoin: miter; stroke-linecap: square"/>
   </g>
   <g id="text_30">
    <!-- Propensity score overlap -->
    <g transform="translate(572.915813 18.14175) scale(0.144 -0.144)">
     <defs>
      <path id="DejaVuSans-76" d="M 191 3500 
L 800 3500 
L 1894 563 
L 2988 3500 
L 3597 3500 
L 2284 0 
L 1503 0 
L 191 3500 
z
" transform="scale(0.015625)"/>
     </defs>
     <use xlink:href="#DejaVuSans-50"/>
     <use xlink:href="#DejaVuSans-72" transform="translate(58.552734 0)"/>
     <use xlink:href="#DejaVuSans-6f" transform="translate(97.416016 0)"/>
     <use xlink:href="#DejaVuSans-70" transform="translate(158.597656 0)"/>
     <use xlink:href="#DejaVuSans-65" transform="translate(222.074219 0)"/>
     <use xlink:href="#DejaVuSans-6e" transform="translate(283.597656 0)"/>
     <use xlink:href="#DejaVuSans-73" transform="translate(346.976562 0)"/>
     <use xlink:href="#DejaVuSans-69" transform="translate(399.076172 0)"/>
     <use xlink:href="#DejaVuSans-74" transform="translate(426.859375 0)"/>
     <use xlink:href="#DejaVuSans-79" transform="translate(466.068359 0)"/>
     <use xlink:href="#DejaVuSans-20" transform="translate(525.248047 0)"/>
     <use xlink:href="#DejaVuSans-73" transform="translate(557.035156 0)"/>
     <use xlink:href="#DejaVuSans-63" transform="translate(609.134766 0)"/>
     <use xlink:href="#DejaVuSans-6f" transform="translate(664.115234 0)"/>
     <use xlink:href="#DejaVuSans-72" transform="translate(725.296875 0)"/>
     <use xlink:href="#DejaVuSans-65" transform="translate(764.160156 0)"/>
     <use xlink:href="#DejaVuSans-20" transform="translate(825.683594 0)"/>
     <use xlink:href="#DejaVuSans-6f" transform="translate(857.470703 0)"/>
     <use xlink:href="#DejaVuSans-76" transform="translate(918.652344 0)"/>
     <use xlink:href="#DejaVuSans-65" transform="translate(977.832031 0)"/>
     <use xlink:href="#DejaVuSans-72" transform="translate(1039.355469 0)"/>
     <use xlink:href="#DejaVuSans-6c" transform="translate(1080.46875 0)"/>
     <use xlink:href="#DejaVuSans-61" transform="translate(1108.251953 0)"/>
     <use xlink:href="#DejaVuSans-70" transform="translate(1169.53125 0)"/>
    </g>
   </g>
   <g id="legend_1">
    <g id="patch_72">
     <path d="M 772.167187 61.498 
L 841.389062 61.498 
Q 843.389062 61.498 843.389062 59.498 
L 843.389062 31.14175 
Q 843.389062 29.14175 841.389062 29.14175 
L 772.167187 29.14175 
Q 770.167187 29.14175 770.167187 31.14175 
L 770.167187 59.498 
Q 770.167187 61.498 772.167187 61.498 
z
" style="fill: #e5e5e5; opacity: 0.8; stroke: #cccccc; stroke-width: 0.5; stroke-linejoin: miter"/>
    </g>
    <g id="patch_73">
     <path d="M 774.167187 40.740187 
L 794.167187 40.740187 
L 794.167187 33.740187 
L 774.167187 33.740187 
z
" style="fill: #e24a33; opacity: 0.6"/>
    </g>
    <g id="text_31">
     <!-- Treated -->
     <g transform="translate(802.167187 40.740187) scale(0.1 -0.1)">
      <use xlink:href="#DejaVuSans-54"/>
      <use xlink:href="#DejaVuSans-72" transform="translate(46.333984 0)"/>
      <use xlink:href="#DejaVuSans-65" transform="translate(85.197266 0)"/>
      <use xlink:href="#DejaVuSans-61" transform="translate(146.720703 0)"/>
      <use xlink:href="#DejaVuSans-74" transform="translate(208 0)"/>
      <use xlink:href="#DejaVuSans-65" transform="translate(247.208984 0)"/>
      <use xlink:href="#DejaVuSans-64" transform="translate(308.732422 0)"/>
     </g>
    </g>
    <g id="patch_74">
     <path d="M 774.167187 55.418312 
L 794.167187 55.418312 
L 794.167187 48.418312 
L 774.167187 48.418312 
z
" style="fill: #348abd; opacity: 0.6"/>
    </g>
    <g id="text_32">
     <!-- Control -->
     <g transform="translate(802.167187 55.418312) scale(0.1 -0.1)">
      <defs>
       <path id="DejaVuSans-43" d="M 4122 4306 
L 4122 3641 
Q 3803 3938 3442 4084 
Q 3081 4231 2675 4231 
Q 1875 4231 1450 3742 
Q 1025 3253 1025 2328 
Q 1025 1406 1450 917 
Q 1875 428 2675 428 
Q 3081 428 3442 575 
Q 3803 722 4122 1019 
L 4122 359 
Q 3791 134 3420 21 
Q 3050 -91 2638 -91 
Q 1578 -91 968 557 
Q 359 1206 359 2328 
Q 359 3453 968 4101 
Q 1578 4750 2638 4750 
Q 3056 4750 3426 4639 
Q 3797 4528 4122 4306 
z
" transform="scale(0.015625)"/>
      </defs>
      <use xlink:href="#DejaVuSans-43"/>
      <use xlink:href="#DejaVuSans-6f" transform="translate(69.824219 0)"/>
      <use xlink:href="#DejaVuSans-6e" transform="translate(131.005859 0)"/>
      <use xlink:href="#DejaVuSans-74" transform="translate(194.384766 0)"/>
      <use xlink:href="#DejaVuSans-72" transform="translate(233.59375 0)"/>
      <use xlink:href="#DejaVuSans-6f" transform="translate(272.457031 0)"/>
      <use xlink:href="#DejaVuSans-6c" transform="translate(333.638672 0)"/>
     </g>
    </g>
   </g>
  </g>
 </g>
 <defs>
  <clipPath id="pfe3cec6b36">
   <rect x="60.459063" y="24.14175" width="373.39" height="287.56"/>
  </clipPath>
  <clipPath id="pfb0b359dcb">
   <rect x="474.999062" y="24.14175" width="373.39" height="287.56"/>
  </clipPath>
 </defs>
</svg>
