<?xml version="1.0" encoding="utf-8" standalone="no"?>
<!DOCTYPE svg PUBLIC "-//W3C//DTD SVG 1.1//EN"
  "http://www.w3.org/Graphics/SVG/1.1/DTD/svg11.dtd">
<svg xmlns:xlink="http://www.w3.org/1999/xlink" width="2119.172188pt" height="679.741844pt" viewBox="0 0 2119.172188 679.741844" xmlns="http://www.w3.org/2000/svg" version="1.1">
 <metadata>
  <rdf:RDF xmlns:dc="http://purl.org/dc/elements/1.1/" xmlns:cc="http://creativecommons.org/ns#" xmlns:rdf="http://www.w3.org/1999/02/22-rdf-syntax-ns#">
   <cc:Work>
    <dc:type rdf:resource="http://purl.org/dc/dcmitype/StillImage"/>
    <dc:date>2025-09-02T20:08:30.072320</dc:date>
    <dc:format>image/svg+xml</dc:format>
    <dc:creator>
     <cc:Agent>
      <dc:title>Matplotlib v3.10.3, https://matplotlib.org/</dc:title>
     </cc:Agent>
    </dc:creator>
   </cc:Work>
  </rdf:RDF>
 </metadata>
 <defs>
  <style type="text/css">*{stroke-linejoin: round; stroke-linecap: butt}</style>
 </defs>
 <g id="figure_1">
  <g id="patch_1">
   <path d="M 0 679.741844 
L 2119.172188 679.741844 
L 2119.172188 0 
L 0 0 
z
" style="fill: #ffffff"/>
  </g>
  <g id="axes_1">
   <g id="patch_2">
    <path d="M 86.992188 613.352 
L 2111.972188 613.352 
L 2111.972188 7.2 
L 86.992188 7.2 
z
" style="fill: #e5e5e5"/>
   </g>
   <g id="matplotlib.axis_1">
    <g id="xtick_1">
     <g id="line2d_1">
      <defs>
       <path id="mdc95919df8" d="M 0 0 
L 0 3.5 
" style="stroke: #555555; stroke-width: 0.8"/>
      </defs>
      <g>
       <use xlink:href="#mdc95919df8" x="255.740521" y="613.352" style="fill: #555555; stroke: #555555; stroke-width: 0.8"/>
      </g>
     </g>
     <g id="text_1">
      <!-- Prop. Score Matching -->
      <g style="fill: #555555" transform="translate(123.586224 639.348094) scale(0.25 -0.25)">
       <defs>
        <path id="DejaVuSans-50" d="M 1259 4147 
L 1259 2394 
L 2053 2394 
Q 2494 2394 2734 2622 
Q 2975 2850 2975 3272 
Q 2975 3691 2734 3919 
Q 2494 4147 2053 4147 
L 1259 4147 
z
M 628 4666 
L 2053 4666 
Q 2838 4666 3239 4311 
Q 3641 3956 3641 3272 
Q 3641 2581 3239 2228 
Q 2838 1875 2053 1875 
L 1259 1875 
L 1259 0 
L 628 0 
L 628 4666 
z
" transform="scale(0.015625)"/>
        <path id="DejaVuSans-72" d="M 2631 2963 
Q 2534 3019 2420 3045 
Q 2306 3072 2169 3072 
Q 1681 3072 1420 2755 
Q 1159 2438 1159 1844 
L 1159 0 
L 581 0 
L 581 3500 
L 1159 3500 
L 1159 2956 
Q 1341 3275 1631 3429 
Q 1922 3584 2338 3584 
Q 2397 3584 2469 3576 
Q 2541 3569 2628 3553 
L 2631 2963 
z
" transform="scale(0.015625)"/>
        <path id="DejaVuSans-6f" d="M 1959 3097 
Q 1497 3097 1228 2736 
Q 959 2375 959 1747 
Q 959 1119 1226 758 
Q 1494 397 1959 397 
Q 2419 397 2687 759 
Q 2956 1122 2956 1747 
Q 2956 2369 2687 2733 
Q 2419 3097 1959 3097 
z
M 1959 3584 
Q 2709 3584 3137 3096 
Q 3566 2609 3566 1747 
Q 3566 888 3137 398 
Q 2709 -91 1959 -91 
Q 1206 -91 779 398 
Q 353 888 353 1747 
Q 353 2609 779 3096 
Q 1206 3584 1959 3584 
z
" transform="scale(0.015625)"/>
        <path id="DejaVuSans-70" d="M 1159 525 
L 1159 -1331 
L 581 -1331 
L 581 3500 
L 1159 3500 
L 1159 2969 
Q 1341 3281 1617 3432 
Q 1894 3584 2278 3584 
Q 2916 3584 3314 3078 
Q 3713 2572 3713 1747 
Q 3713 922 3314 415 
Q 2916 -91 2278 -91 
Q 1894 -91 1617 61 
Q 1341 213 1159 525 
z
M 3116 1747 
Q 3116 2381 2855 2742 
Q 2594 3103 2138 3103 
Q 1681 3103 1420 2742 
Q 1159 2381 1159 1747 
Q 1159 1113 1420 752 
Q 1681 391 2138 391 
Q 2594 391 2855 752 
Q 3116 1113 3116 1747 
z
" transform="scale(0.015625)"/>
        <path id="DejaVuSans-2e" d="M 684 794 
L 1344 794 
L 1344 0 
L 684 0 
L 684 794 
z
" transform="scale(0.015625)"/>
        <path id="DejaVuSans-20" transform="scale(0.015625)"/>
        <path id="DejaVuSans-53" d="M 3425 4513 
L 3425 3897 
Q 3066 4069 2747 4153 
Q 2428 4238 2131 4238 
Q 1616 4238 1336 4038 
Q 1056 3838 1056 3469 
Q 1056 3159 1242 3001 
Q 1428 2844 1947 2747 
L 2328 2669 
Q 3034 2534 3370 2195 
Q 3706 1856 3706 1288 
Q 3706 609 3251 259 
Q 2797 -91 1919 -91 
Q 1588 -91 1214 -16 
Q 841 59 441 206 
L 441 856 
Q 825 641 1194 531 
Q 1563 422 1919 422 
Q 2459 422 2753 634 
Q 3047 847 3047 1241 
Q 3047 1584 2836 1778 
Q 2625 1972 2144 2069 
L 1759 2144 
Q 1053 2284 737 2584 
Q 422 2884 422 3419 
Q 422 4038 858 4394 
Q 1294 4750 2059 4750 
Q 2388 4750 2728 4690 
Q 3069 4631 3425 4513 
z
" transform="scale(0.015625)"/>
        <path id="DejaVuSans-63" d="M 3122 3366 
L 3122 2828 
Q 2878 2963 2633 3030 
Q 2388 3097 2138 3097 
Q 1578 3097 1268 2742 
Q 959 2388 959 1747 
Q 959 1106 1268 751 
Q 1578 397 2138 397 
Q 2388 397 2633 464 
Q 2878 531 3122 666 
L 3122 134 
Q 2881 22 2623 -34 
Q 2366 -91 2075 -91 
Q 1284 -91 818 406 
Q 353 903 353 1747 
Q 353 2603 823 3093 
Q 1294 3584 2113 3584 
Q 2378 3584 2631 3529 
Q 2884 3475 3122 3366 
z
" transform="scale(0.015625)"/>
        <path id="DejaVuSans-65" d="M 3597 1894 
L 3597 1613 
L 953 1613 
Q 991 1019 1311 708 
Q 1631 397 2203 397 
Q 2534 397 2845 478 
Q 3156 559 3463 722 
L 3463 178 
Q 3153 47 2828 -22 
Q 2503 -91 2169 -91 
Q 1331 -91 842 396 
Q 353 884 353 1716 
Q 353 2575 817 3079 
Q 1281 3584 2069 3584 
Q 2775 3584 3186 3129 
Q 3597 2675 3597 1894 
z
M 3022 2063 
Q 3016 2534 2758 2815 
Q 2500 3097 2075 3097 
Q 1594 3097 1305 2825 
Q 1016 2553 972 2059 
L 3022 2063 
z
" transform="scale(0.015625)"/>
        <path id="DejaVuSans-4d" d="M 628 4666 
L 1569 4666 
L 2759 1491 
L 3956 4666 
L 4897 4666 
L 4897 0 
L 4281 0 
L 4281 4097 
L 3078 897 
L 2444 897 
L 1241 4097 
L 1241 0 
L 628 0 
L 628 4666 
z
" transform="scale(0.015625)"/>
        <path id="DejaVuSans-61" d="M 2194 1759 
Q 1497 1759 1228 1600 
Q 959 1441 959 1056 
Q 959 750 1161 570 
Q 1363 391 1709 391 
Q 2188 391 2477 730 
Q 2766 1069 2766 1631 
L 2766 1759 
L 2194 1759 
z
M 3341 1997 
L 3341 0 
L 2766 0 
L 2766 531 
Q 2569 213 2275 61 
Q 1981 -91 1556 -91 
Q 1019 -91 701 211 
Q 384 513 384 1019 
Q 384 1609 779 1909 
Q 1175 2209 1959 2209 
L 2766 2209 
L 2766 2266 
Q 2766 2663 2505 2880 
Q 2244 3097 1772 3097 
Q 1472 3097 1187 3025 
Q 903 2953 641 2809 
L 641 3341 
Q 956 3463 1253 3523 
Q 1550 3584 1831 3584 
Q 2591 3584 2966 3190 
Q 3341 2797 3341 1997 
z
" transform="scale(0.015625)"/>
        <path id="DejaVuSans-74" d="M 1172 4494 
L 1172 3500 
L 2356 3500 
L 2356 3053 
L 1172 3053 
L 1172 1153 
Q 1172 725 1289 603 
Q 1406 481 1766 481 
L 2356 481 
L 2356 0 
L 1766 0 
Q 1100 0 847 248 
Q 594 497 594 1153 
L 594 3053 
L 172 3053 
L 172 3500 
L 594 3500 
L 594 4494 
L 1172 4494 
z
" transform="scale(0.015625)"/>
        <path id="DejaVuSans-68" d="M 3513 2113 
L 3513 0 
L 2938 0 
L 2938 2094 
Q 2938 2591 2744 2837 
Q 2550 3084 2163 3084 
Q 1697 3084 1428 2787 
Q 1159 2491 1159 1978 
L 1159 0 
L 581 0 
L 581 4863 
L 1159 4863 
L 1159 2956 
Q 1366 3272 1645 3428 
Q 1925 3584 2291 3584 
Q 2894 3584 3203 3211 
Q 3513 2838 3513 2113 
z
" transform="scale(0.015625)"/>
        <path id="DejaVuSans-69" d="M 603 3500 
L 1178 3500 
L 1178 0 
L 603 0 
L 603 3500 
z
M 603 4863 
L 1178 4863 
L 1178 4134 
L 603 4134 
L 603 4863 
z
" transform="scale(0.015625)"/>
        <path id="DejaVuSans-6e" d="M 3513 2113 
L 3513 0 
L 2938 0 
L 2938 2094 
Q 2938 2591 2744 2837 
Q 2550 3084 2163 3084 
Q 1697 3084 1428 2787 
Q 1159 2491 1159 1978 
L 1159 0 
L 581 0 
L 581 3500 
L 1159 3500 
L 1159 2956 
Q 1366 3272 1645 3428 
Q 1925 3584 2291 3584 
Q 2894 3584 3203 3211 
Q 3513 2838 3513 2113 
z
" transform="scale(0.015625)"/>
        <path id="DejaVuSans-67" d="M 2906 1791 
Q 2906 2416 2648 2759 
Q 2391 3103 1925 3103 
Q 1463 3103 1205 2759 
Q 947 2416 947 1791 
Q 947 1169 1205 825 
Q 1463 481 1925 481 
Q 2391 481 2648 825 
Q 2906 1169 2906 1791 
z
M 3481 434 
Q 3481 -459 3084 -895 
Q 2688 -1331 1869 -1331 
Q 1566 -1331 1297 -1286 
Q 1028 -1241 775 -1147 
L 775 -588 
Q 1028 -725 1275 -790 
Q 1522 -856 1778 -856 
Q 2344 -856 2625 -561 
Q 2906 -266 2906 331 
L 2906 616 
Q 2728 306 2450 153 
Q 2172 0 1784 0 
Q 1141 0 747 490 
Q 353 981 353 1791 
Q 353 2603 747 3093 
Q 1141 3584 1784 3584 
Q 2172 3584 2450 3431 
Q 2728 3278 2906 2969 
L 2906 3500 
L 3481 3500 
L 3481 434 
z
" transform="scale(0.015625)"/>
       </defs>
       <use xlink:href="#DejaVuSans-50"/>
       <use xlink:href="#DejaVuSans-72" transform="translate(58.552734 0)"/>
       <use xlink:href="#DejaVuSans-6f" transform="translate(97.416016 0)"/>
       <use xlink:href="#DejaVuSans-70" transform="translate(158.597656 0)"/>
       <use xlink:href="#DejaVuSans-2e" transform="translate(222.074219 0)"/>
       <use xlink:href="#DejaVuSans-20" transform="translate(253.861328 0)"/>
       <use xlink:href="#DejaVuSans-53" transform="translate(285.648438 0)"/>
       <use xlink:href="#DejaVuSans-63" transform="translate(349.125 0)"/>
       <use xlink:href="#DejaVuSans-6f" transform="translate(404.105469 0)"/>
       <use xlink:href="#DejaVuSans-72" transform="translate(465.287109 0)"/>
       <use xlink:href="#DejaVuSans-65" transform="translate(504.150391 0)"/>
       <use xlink:href="#DejaVuSans-20" transform="translate(565.673828 0)"/>
       <use xlink:href="#DejaVuSans-4d" transform="translate(597.460938 0)"/>
       <use xlink:href="#DejaVuSans-61" transform="translate(683.740234 0)"/>
       <use xlink:href="#DejaVuSans-74" transform="translate(745.019531 0)"/>
       <use xlink:href="#DejaVuSans-63" transform="translate(784.228516 0)"/>
       <use xlink:href="#DejaVuSans-68" transform="translate(839.208984 0)"/>
       <use xlink:href="#DejaVuSans-69" transform="translate(902.587891 0)"/>
       <use xlink:href="#DejaVuSans-6e" transform="translate(930.371094 0)"/>
       <use xlink:href="#DejaVuSans-67" transform="translate(993.75 0)"/>
      </g>
     </g>
    </g>
    <g id="xtick_2">
     <g id="line2d_2">
      <g>
       <use xlink:href="#mdc95919df8" x="593.237188" y="613.352" style="fill: #555555; stroke: #555555; stroke-width: 0.8"/>
      </g>
     </g>
     <g id="text_2">
      <!-- Prop. Score Weighting -->
      <g style="fill: #555555" transform="translate(455.676641 639.348094) scale(0.25 -0.25)">
       <defs>
        <path id="DejaVuSans-57" d="M 213 4666 
L 850 4666 
L 1831 722 
L 2809 4666 
L 3519 4666 
L 4500 722 
L 5478 4666 
L 6119 4666 
L 4947 0 
L 4153 0 
L 3169 4050 
L 2175 0 
L 1381 0 
L 213 4666 
z
" transform="scale(0.015625)"/>
       </defs>
       <use xlink:href="#DejaVuSans-50"/>
       <use xlink:href="#DejaVuSans-72" transform="translate(58.552734 0)"/>
       <use xlink:href="#DejaVuSans-6f" transform="translate(97.416016 0)"/>
       <use xlink:href="#DejaVuSans-70" transform="translate(158.597656 0)"/>
       <use xlink:href="#DejaVuSans-2e" transform="translate(222.074219 0)"/>
       <use xlink:href="#DejaVuSans-20" transform="translate(253.861328 0)"/>
       <use xlink:href="#DejaVuSans-53" transform="translate(285.648438 0)"/>
       <use xlink:href="#DejaVuSans-63" transform="translate(349.125 0)"/>
       <use xlink:href="#DejaVuSans-6f" transform="translate(404.105469 0)"/>
       <use xlink:href="#DejaVuSans-72" transform="translate(465.287109 0)"/>
       <use xlink:href="#DejaVuSans-65" transform="translate(504.150391 0)"/>
       <use xlink:href="#DejaVuSans-20" transform="translate(565.673828 0)"/>
       <use xlink:href="#DejaVuSans-57" transform="translate(597.460938 0)"/>
       <use xlink:href="#DejaVuSans-65" transform="translate(690.462891 0)"/>
       <use xlink:href="#DejaVuSans-69" transform="translate(751.986328 0)"/>
       <use xlink:href="#DejaVuSans-67" transform="translate(779.769531 0)"/>
       <use xlink:href="#DejaVuSans-68" transform="translate(843.246094 0)"/>
       <use xlink:href="#DejaVuSans-74" transform="translate(906.625 0)"/>
       <use xlink:href="#DejaVuSans-69" transform="translate(945.833984 0)"/>
       <use xlink:href="#DejaVuSans-6e" transform="translate(973.617188 0)"/>
       <use xlink:href="#DejaVuSans-67" transform="translate(1036.996094 0)"/>
      </g>
     </g>
    </g>
    <g id="xtick_3">
     <g id="line2d_3">
      <g>
       <use xlink:href="#mdc95919df8" x="930.733854" y="613.352" style="fill: #555555; stroke: #555555; stroke-width: 0.8"/>
      </g>
     </g>
     <g id="text_3">
      <!-- Prop. Score Stratification -->
      <g style="fill: #555555" transform="translate(775.692839 639.348094) scale(0.25 -0.25)">
       <defs>
        <path id="DejaVuSans-66" d="M 2375 4863 
L 2375 4384 
L 1825 4384 
Q 1516 4384 1395 4259 
Q 1275 4134 1275 3809 
L 1275 3500 
L 2222 3500 
L 2222 3053 
L 1275 3053 
L 1275 0 
L 697 0 
L 697 3053 
L 147 3053 
L 147 3500 
L 697 3500 
L 697 3744 
Q 697 4328 969 4595 
Q 1241 4863 1831 4863 
L 2375 4863 
z
" transform="scale(0.015625)"/>
       </defs>
       <use xlink:href="#DejaVuSans-50"/>
       <use xlink:href="#DejaVuSans-72" transform="translate(58.552734 0)"/>
       <use xlink:href="#DejaVuSans-6f" transform="translate(97.416016 0)"/>
       <use xlink:href="#DejaVuSans-70" transform="translate(158.597656 0)"/>
       <use xlink:href="#DejaVuSans-2e" transform="translate(222.074219 0)"/>
       <use xlink:href="#DejaVuSans-20" transform="translate(253.861328 0)"/>
       <use xlink:href="#DejaVuSans-53" transform="translate(285.648438 0)"/>
       <use xlink:href="#DejaVuSans-63" transform="translate(349.125 0)"/>
       <use xlink:href="#DejaVuSans-6f" transform="translate(404.105469 0)"/>
       <use xlink:href="#DejaVuSans-72" transform="translate(465.287109 0)"/>
       <use xlink:href="#DejaVuSans-65" transform="translate(504.150391 0)"/>
       <use xlink:href="#DejaVuSans-20" transform="translate(565.673828 0)"/>
       <use xlink:href="#DejaVuSans-53" transform="translate(597.460938 0)"/>
       <use xlink:href="#DejaVuSans-74" transform="translate(660.9375 0)"/>
       <use xlink:href="#DejaVuSans-72" transform="translate(700.146484 0)"/>
       <use xlink:href="#DejaVuSans-61" transform="translate(741.259766 0)"/>
       <use xlink:href="#DejaVuSans-74" transform="translate(802.539062 0)"/>
       <use xlink:href="#DejaVuSans-69" transform="translate(841.748047 0)"/>
       <use xlink:href="#DejaVuSans-66" transform="translate(869.53125 0)"/>
       <use xlink:href="#DejaVuSans-69" transform="translate(904.736328 0)"/>
       <use xlink:href="#DejaVuSans-63" transform="translate(932.519531 0)"/>
       <use xlink:href="#DejaVuSans-61" transform="translate(987.5 0)"/>
       <use xlink:href="#DejaVuSans-74" transform="translate(1048.779297 0)"/>
       <use xlink:href="#DejaVuSans-69" transform="translate(1087.988281 0)"/>
       <use xlink:href="#DejaVuSans-6f" transform="translate(1115.771484 0)"/>
       <use xlink:href="#DejaVuSans-6e" transform="translate(1176.953125 0)"/>
      </g>
     </g>
    </g>
    <g id="xtick_4">
     <g id="line2d_4">
      <g>
       <use xlink:href="#mdc95919df8" x="1268.230521" y="613.352" style="fill: #555555; stroke: #555555; stroke-width: 0.8"/>
      </g>
     </g>
     <g id="text_4">
      <!-- S-Learner -->
      <g style="fill: #555555" transform="translate(1208.015677 639.348094) scale(0.25 -0.25)">
       <defs>
        <path id="DejaVuSans-2d" d="M 313 2009 
L 1997 2009 
L 1997 1497 
L 313 1497 
L 313 2009 
z
" transform="scale(0.015625)"/>
        <path id="DejaVuSans-4c" d="M 628 4666 
L 1259 4666 
L 1259 531 
L 3531 531 
L 3531 0 
L 628 0 
L 628 4666 
z
" transform="scale(0.015625)"/>
       </defs>
       <use xlink:href="#DejaVuSans-53"/>
       <use xlink:href="#DejaVuSans-2d" transform="translate(63.476562 0)"/>
       <use xlink:href="#DejaVuSans-4c" transform="translate(99.560547 0)"/>
       <use xlink:href="#DejaVuSans-65" transform="translate(153.523438 0)"/>
       <use xlink:href="#DejaVuSans-61" transform="translate(215.046875 0)"/>
       <use xlink:href="#DejaVuSans-72" transform="translate(276.326172 0)"/>
       <use xlink:href="#DejaVuSans-6e" transform="translate(315.689453 0)"/>
       <use xlink:href="#DejaVuSans-65" transform="translate(379.068359 0)"/>
       <use xlink:href="#DejaVuSans-72" transform="translate(440.591797 0)"/>
      </g>
     </g>
    </g>
    <g id="xtick_5">
     <g id="line2d_5">
      <g>
       <use xlink:href="#mdc95919df8" x="1605.727188" y="613.352" style="fill: #555555; stroke: #555555; stroke-width: 0.8"/>
      </g>
     </g>
     <g id="text_5">
      <!-- Distance Matching -->
      <g style="fill: #555555" transform="translate(1489.627578 639.348094) scale(0.25 -0.25)">
       <defs>
        <path id="DejaVuSans-44" d="M 1259 4147 
L 1259 519 
L 2022 519 
Q 2988 519 3436 956 
Q 3884 1394 3884 2338 
Q 3884 3275 3436 3711 
Q 2988 4147 2022 4147 
L 1259 4147 
z
M 628 4666 
L 1925 4666 
Q 3281 4666 3915 4102 
Q 4550 3538 4550 2338 
Q 4550 1131 3912 565 
Q 3275 0 1925 0 
L 628 0 
L 628 4666 
z
" transform="scale(0.015625)"/>
        <path id="DejaVuSans-73" d="M 2834 3397 
L 2834 2853 
Q 2591 2978 2328 3040 
Q 2066 3103 1784 3103 
Q 1356 3103 1142 2972 
Q 928 2841 928 2578 
Q 928 2378 1081 2264 
Q 1234 2150 1697 2047 
L 1894 2003 
Q 2506 1872 2764 1633 
Q 3022 1394 3022 966 
Q 3022 478 2636 193 
Q 2250 -91 1575 -91 
Q 1294 -91 989 -36 
Q 684 19 347 128 
L 347 722 
Q 666 556 975 473 
Q 1284 391 1588 391 
Q 1994 391 2212 530 
Q 2431 669 2431 922 
Q 2431 1156 2273 1281 
Q 2116 1406 1581 1522 
L 1381 1569 
Q 847 1681 609 1914 
Q 372 2147 372 2553 
Q 372 3047 722 3315 
Q 1072 3584 1716 3584 
Q 2034 3584 2315 3537 
Q 2597 3491 2834 3397 
z
" transform="scale(0.015625)"/>
       </defs>
       <use xlink:href="#DejaVuSans-44"/>
       <use xlink:href="#DejaVuSans-69" transform="translate(77.001953 0)"/>
       <use xlink:href="#DejaVuSans-73" transform="translate(104.785156 0)"/>
       <use xlink:href="#DejaVuSans-74" transform="translate(156.884766 0)"/>
       <use xlink:href="#DejaVuSans-61" transform="translate(196.09375 0)"/>
       <use xlink:href="#DejaVuSans-6e" transform="translate(257.373047 0)"/>
       <use xlink:href="#DejaVuSans-63" transform="translate(320.751953 0)"/>
       <use xlink:href="#DejaVuSans-65" transform="translate(375.732422 0)"/>
       <use xlink:href="#DejaVuSans-20" transform="translate(437.255859 0)"/>
       <use xlink:href="#DejaVuSans-4d" transform="translate(469.042969 0)"/>
       <use xlink:href="#DejaVuSans-61" transform="translate(555.322266 0)"/>
       <use xlink:href="#DejaVuSans-74" transform="translate(616.601562 0)"/>
       <use xlink:href="#DejaVuSans-63" transform="translate(655.810547 0)"/>
       <use xlink:href="#DejaVuSans-68" transform="translate(710.791016 0)"/>
       <use xlink:href="#DejaVuSans-69" transform="translate(774.169922 0)"/>
       <use xlink:href="#DejaVuSans-6e" transform="translate(801.953125 0)"/>
       <use xlink:href="#DejaVuSans-67" transform="translate(865.332031 0)"/>
      </g>
      <!-- (Gower's Distance) -->
      <g style="fill: #555555" transform="translate(1487.010391 667.342625) scale(0.25 -0.25)">
       <defs>
        <path id="DejaVuSans-28" d="M 1984 4856 
Q 1566 4138 1362 3434 
Q 1159 2731 1159 2009 
Q 1159 1288 1364 580 
Q 1569 -128 1984 -844 
L 1484 -844 
Q 1016 -109 783 600 
Q 550 1309 550 2009 
Q 550 2706 781 3412 
Q 1013 4119 1484 4856 
L 1984 4856 
z
" transform="scale(0.015625)"/>
        <path id="DejaVuSans-47" d="M 3809 666 
L 3809 1919 
L 2778 1919 
L 2778 2438 
L 4434 2438 
L 4434 434 
Q 4069 175 3628 42 
Q 3188 -91 2688 -91 
Q 1594 -91 976 548 
Q 359 1188 359 2328 
Q 359 3472 976 4111 
Q 1594 4750 2688 4750 
Q 3144 4750 3555 4637 
Q 3966 4525 4313 4306 
L 4313 3634 
Q 3963 3931 3569 4081 
Q 3175 4231 2741 4231 
Q 1884 4231 1454 3753 
Q 1025 3275 1025 2328 
Q 1025 1384 1454 906 
Q 1884 428 2741 428 
Q 3075 428 3337 486 
Q 3600 544 3809 666 
z
" transform="scale(0.015625)"/>
        <path id="DejaVuSans-77" d="M 269 3500 
L 844 3500 
L 1563 769 
L 2278 3500 
L 2956 3500 
L 3675 769 
L 4391 3500 
L 4966 3500 
L 4050 0 
L 3372 0 
L 2619 2869 
L 1863 0 
L 1184 0 
L 269 3500 
z
" transform="scale(0.015625)"/>
        <path id="DejaVuSans-27" d="M 1147 4666 
L 1147 2931 
L 616 2931 
L 616 4666 
L 1147 4666 
z
" transform="scale(0.015625)"/>
        <path id="DejaVuSans-29" d="M 513 4856 
L 1013 4856 
Q 1481 4119 1714 3412 
Q 1947 2706 1947 2009 
Q 1947 1309 1714 600 
Q 1481 -109 1013 -844 
L 513 -844 
Q 928 -128 1133 580 
Q 1338 1288 1338 2009 
Q 1338 2731 1133 3434 
Q 928 4138 513 4856 
z
" transform="scale(0.015625)"/>
       </defs>
       <use xlink:href="#DejaVuSans-28"/>
       <use xlink:href="#DejaVuSans-47" transform="translate(39.013672 0)"/>
       <use xlink:href="#DejaVuSans-6f" transform="translate(116.503906 0)"/>
       <use xlink:href="#DejaVuSans-77" transform="translate(177.685547 0)"/>
       <use xlink:href="#DejaVuSans-65" transform="translate(259.472656 0)"/>
       <use xlink:href="#DejaVuSans-72" transform="translate(320.996094 0)"/>
       <use xlink:href="#DejaVuSans-27" transform="translate(362.109375 0)"/>
       <use xlink:href="#DejaVuSans-73" transform="translate(389.599609 0)"/>
       <use xlink:href="#DejaVuSans-20" transform="translate(441.699219 0)"/>
       <use xlink:href="#DejaVuSans-44" transform="translate(473.486328 0)"/>
       <use xlink:href="#DejaVuSans-69" transform="translate(550.488281 0)"/>
       <use xlink:href="#DejaVuSans-73" transform="translate(578.271484 0)"/>
       <use xlink:href="#DejaVuSans-74" transform="translate(630.371094 0)"/>
       <use xlink:href="#DejaVuSans-61" transform="translate(669.580078 0)"/>
       <use xlink:href="#DejaVuSans-6e" transform="translate(730.859375 0)"/>
       <use xlink:href="#DejaVuSans-63" transform="translate(794.238281 0)"/>
       <use xlink:href="#DejaVuSans-65" transform="translate(849.21875 0)"/>
       <use xlink:href="#DejaVuSans-29" transform="translate(910.742188 0)"/>
      </g>
     </g>
    </g>
    <g id="xtick_6">
     <g id="line2d_6">
      <g>
       <use xlink:href="#mdc95919df8" x="1943.223854" y="613.352" style="fill: #555555; stroke: #555555; stroke-width: 0.8"/>
      </g>
     </g>
     <g id="text_6">
      <!-- T-Learner -->
      <g style="fill: #555555" transform="translate(1884.450417 639.348094) scale(0.25 -0.25)">
       <defs>
        <path id="DejaVuSans-54" d="M -19 4666 
L 3928 4666 
L 3928 4134 
L 2272 4134 
L 2272 0 
L 1638 0 
L 1638 4134 
L -19 4134 
L -19 4666 
z
" transform="scale(0.015625)"/>
       </defs>
       <use xlink:href="#DejaVuSans-54"/>
       <use xlink:href="#DejaVuSans-2d" transform="translate(51.958984 0)"/>
       <use xlink:href="#DejaVuSans-4c" transform="translate(88.042969 0)"/>
       <use xlink:href="#DejaVuSans-65" transform="translate(142.005859 0)"/>
       <use xlink:href="#DejaVuSans-61" transform="translate(203.529297 0)"/>
       <use xlink:href="#DejaVuSans-72" transform="translate(264.808594 0)"/>
       <use xlink:href="#DejaVuSans-6e" transform="translate(304.171875 0)"/>
       <use xlink:href="#DejaVuSans-65" transform="translate(367.550781 0)"/>
       <use xlink:href="#DejaVuSans-72" transform="translate(429.074219 0)"/>
      </g>
     </g>
    </g>
   </g>
   <g id="matplotlib.axis_2">
    <g id="ytick_1">
     <g id="line2d_7">
      <path d="M 86.992188 590.980593 
L 2111.972188 590.980593 
" clip-path="url(#pc0f16d4a47)" style="fill: none; stroke: #ffffff; stroke-width: 0.8; stroke-linecap: square"/>
     </g>
     <g id="line2d_8">
      <defs>
       <path id="m6275cf7e15" d="M 0 0 
L -3.5 0 
" style="stroke: #555555; stroke-width: 0.8"/>
      </defs>
      <g>
       <use xlink:href="#m6275cf7e15" x="86.992188" y="590.980593" style="fill: #555555; stroke: #555555; stroke-width: 0.8"/>
      </g>
     </g>
     <g id="text_7">
      <!-- 5.0 -->
      <g style="fill: #555555" transform="translate(40.234375 600.47864) scale(0.25 -0.25)">
       <defs>
        <path id="DejaVuSans-35" d="M 691 4666 
L 3169 4666 
L 3169 4134 
L 1269 4134 
L 1269 2991 
Q 1406 3038 1543 3061 
Q 1681 3084 1819 3084 
Q 2600 3084 3056 2656 
Q 3513 2228 3513 1497 
Q 3513 744 3044 326 
Q 2575 -91 1722 -91 
Q 1428 -91 1123 -41 
Q 819 9 494 109 
L 494 744 
Q 775 591 1075 516 
Q 1375 441 1709 441 
Q 2250 441 2565 725 
Q 2881 1009 2881 1497 
Q 2881 1984 2565 2268 
Q 2250 2553 1709 2553 
Q 1456 2553 1204 2497 
Q 953 2441 691 2322 
L 691 4666 
z
" transform="scale(0.015625)"/>
        <path id="DejaVuSans-30" d="M 2034 4250 
Q 1547 4250 1301 3770 
Q 1056 3291 1056 2328 
Q 1056 1369 1301 889 
Q 1547 409 2034 409 
Q 2525 409 2770 889 
Q 3016 1369 3016 2328 
Q 3016 3291 2770 3770 
Q 2525 4250 2034 4250 
z
M 2034 4750 
Q 2819 4750 3233 4129 
Q 3647 3509 3647 2328 
Q 3647 1150 3233 529 
Q 2819 -91 2034 -91 
Q 1250 -91 836 529 
Q 422 1150 422 2328 
Q 422 3509 836 4129 
Q 1250 4750 2034 4750 
z
" transform="scale(0.015625)"/>
       </defs>
       <use xlink:href="#DejaVuSans-35"/>
       <use xlink:href="#DejaVuSans-2e" transform="translate(63.623047 0)"/>
       <use xlink:href="#DejaVuSans-30" transform="translate(95.410156 0)"/>
      </g>
     </g>
    </g>
    <g id="ytick_2">
     <g id="line2d_9">
      <path d="M 86.992188 496.129648 
L 2111.972188 496.129648 
" clip-path="url(#pc0f16d4a47)" style="fill: none; stroke: #ffffff; stroke-width: 0.8; stroke-linecap: square"/>
     </g>
     <g id="line2d_10">
      <g>
       <use xlink:href="#m6275cf7e15" x="86.992188" y="496.129648" style="fill: #555555; stroke: #555555; stroke-width: 0.8"/>
      </g>
     </g>
     <g id="text_8">
      <!-- 5.5 -->
      <g style="fill: #555555" transform="translate(40.234375 505.627694) scale(0.25 -0.25)">
       <use xlink:href="#DejaVuSans-35"/>
       <use xlink:href="#DejaVuSans-2e" transform="translate(63.623047 0)"/>
       <use xlink:href="#DejaVuSans-35" transform="translate(95.410156 0)"/>
      </g>
     </g>
    </g>
    <g id="ytick_3">
     <g id="line2d_11">
      <path d="M 86.992188 401.278702 
L 2111.972188 401.278702 
" clip-path="url(#pc0f16d4a47)" style="fill: none; stroke: #ffffff; stroke-width: 0.8; stroke-linecap: square"/>
     </g>
     <g id="line2d_12">
      <g>
       <use xlink:href="#m6275cf7e15" x="86.992188" y="401.278702" style="fill: #555555; stroke: #555555; stroke-width: 0.8"/>
      </g>
     </g>
     <g id="text_9">
      <!-- 6.0 -->
      <g style="fill: #555555" transform="translate(40.234375 410.776749) scale(0.25 -0.25)">
       <defs>
        <path id="DejaVuSans-36" d="M 2113 2584 
Q 1688 2584 1439 2293 
Q 1191 2003 1191 1497 
Q 1191 994 1439 701 
Q 1688 409 2113 409 
Q 2538 409 2786 701 
Q 3034 994 3034 1497 
Q 3034 2003 2786 2293 
Q 2538 2584 2113 2584 
z
M 3366 4563 
L 3366 3988 
Q 3128 4100 2886 4159 
Q 2644 4219 2406 4219 
Q 1781 4219 1451 3797 
Q 1122 3375 1075 2522 
Q 1259 2794 1537 2939 
Q 1816 3084 2150 3084 
Q 2853 3084 3261 2657 
Q 3669 2231 3669 1497 
Q 3669 778 3244 343 
Q 2819 -91 2113 -91 
Q 1303 -91 875 529 
Q 447 1150 447 2328 
Q 447 3434 972 4092 
Q 1497 4750 2381 4750 
Q 2619 4750 2861 4703 
Q 3103 4656 3366 4563 
z
" transform="scale(0.015625)"/>
       </defs>
       <use xlink:href="#DejaVuSans-36"/>
       <use xlink:href="#DejaVuSans-2e" transform="translate(63.623047 0)"/>
       <use xlink:href="#DejaVuSans-30" transform="translate(95.410156 0)"/>
      </g>
     </g>
    </g>
    <g id="ytick_4">
     <g id="line2d_13">
      <path d="M 86.992188 306.427756 
L 2111.972188 306.427756 
" clip-path="url(#pc0f16d4a47)" style="fill: none; stroke: #ffffff; stroke-width: 0.8; stroke-linecap: square"/>
     </g>
     <g id="line2d_14">
      <g>
       <use xlink:href="#m6275cf7e15" x="86.992188" y="306.427756" style="fill: #555555; stroke: #555555; stroke-width: 0.8"/>
      </g>
     </g>
     <g id="text_10">
      <!-- 6.5 -->
      <g style="fill: #555555" transform="translate(40.234375 315.925803) scale(0.25 -0.25)">
       <use xlink:href="#DejaVuSans-36"/>
       <use xlink:href="#DejaVuSans-2e" transform="translate(63.623047 0)"/>
       <use xlink:href="#DejaVuSans-35" transform="translate(95.410156 0)"/>
      </g>
     </g>
    </g>
    <g id="ytick_5">
     <g id="line2d_15">
      <path d="M 86.992188 211.576811 
L 2111.972188 211.576811 
" clip-path="url(#pc0f16d4a47)" style="fill: none; stroke: #ffffff; stroke-width: 0.8; stroke-linecap: square"/>
     </g>
     <g id="line2d_16">
      <g>
       <use xlink:href="#m6275cf7e15" x="86.992188" y="211.576811" style="fill: #555555; stroke: #555555; stroke-width: 0.8"/>
      </g>
     </g>
     <g id="text_11">
      <!-- 7.0 -->
      <g style="fill: #555555" transform="translate(40.234375 221.074858) scale(0.25 -0.25)">
       <defs>
        <path id="DejaVuSans-37" d="M 525 4666 
L 3525 4666 
L 3525 4397 
L 1831 0 
L 1172 0 
L 2766 4134 
L 525 4134 
L 525 4666 
z
" transform="scale(0.015625)"/>
       </defs>
       <use xlink:href="#DejaVuSans-37"/>
       <use xlink:href="#DejaVuSans-2e" transform="translate(63.623047 0)"/>
       <use xlink:href="#DejaVuSans-30" transform="translate(95.410156 0)"/>
      </g>
     </g>
    </g>
    <g id="ytick_6">
     <g id="line2d_17">
      <path d="M 86.992188 116.725865 
L 2111.972188 116.725865 
" clip-path="url(#pc0f16d4a47)" style="fill: none; stroke: #ffffff; stroke-width: 0.8; stroke-linecap: square"/>
     </g>
     <g id="line2d_18">
      <g>
       <use xlink:href="#m6275cf7e15" x="86.992188" y="116.725865" style="fill: #555555; stroke: #555555; stroke-width: 0.8"/>
      </g>
     </g>
     <g id="text_12">
      <!-- 7.5 -->
      <g style="fill: #555555" transform="translate(40.234375 126.223912) scale(0.25 -0.25)">
       <use xlink:href="#DejaVuSans-37"/>
       <use xlink:href="#DejaVuSans-2e" transform="translate(63.623047 0)"/>
       <use xlink:href="#DejaVuSans-35" transform="translate(95.410156 0)"/>
      </g>
     </g>
    </g>
    <g id="ytick_7">
     <g id="line2d_19">
      <path d="M 86.992188 21.87492 
L 2111.972188 21.87492 
" clip-path="url(#pc0f16d4a47)" style="fill: none; stroke: #ffffff; stroke-width: 0.8; stroke-linecap: square"/>
     </g>
     <g id="line2d_20">
      <g>
       <use xlink:href="#m6275cf7e15" x="86.992188" y="21.87492" style="fill: #555555; stroke: #555555; stroke-width: 0.8"/>
      </g>
     </g>
     <g id="text_13">
      <!-- 8.0 -->
      <g style="fill: #555555" transform="translate(40.234375 31.372966) scale(0.25 -0.25)">
       <defs>
        <path id="DejaVuSans-38" d="M 2034 2216 
Q 1584 2216 1326 1975 
Q 1069 1734 1069 1313 
Q 1069 891 1326 650 
Q 1584 409 2034 409 
Q 2484 409 2743 651 
Q 3003 894 3003 1313 
Q 3003 1734 2745 1975 
Q 2488 2216 2034 2216 
z
M 1403 2484 
Q 997 2584 770 2862 
Q 544 3141 544 3541 
Q 544 4100 942 4425 
Q 1341 4750 2034 4750 
Q 2731 4750 3128 4425 
Q 3525 4100 3525 3541 
Q 3525 3141 3298 2862 
Q 3072 2584 2669 2484 
Q 3125 2378 3379 2068 
Q 3634 1759 3634 1313 
Q 3634 634 3220 271 
Q 2806 -91 2034 -91 
Q 1263 -91 848 271 
Q 434 634 434 1313 
Q 434 1759 690 2068 
Q 947 2378 1403 2484 
z
M 1172 3481 
Q 1172 3119 1398 2916 
Q 1625 2713 2034 2713 
Q 2441 2713 2670 2916 
Q 2900 3119 2900 3481 
Q 2900 3844 2670 4047 
Q 2441 4250 2034 4250 
Q 1625 4250 1398 4047 
Q 1172 3844 1172 3481 
z
" transform="scale(0.015625)"/>
       </defs>
       <use xlink:href="#DejaVuSans-38"/>
       <use xlink:href="#DejaVuSans-2e" transform="translate(63.623047 0)"/>
       <use xlink:href="#DejaVuSans-30" transform="translate(95.410156 0)"/>
      </g>
     </g>
    </g>
    <g id="text_14">
     <!-- ATE -->
     <g style="fill: #555555" transform="translate(29.995313 338.014281) rotate(-90) scale(0.3 -0.3)">
      <defs>
       <path id="DejaVuSans-41" d="M 2188 4044 
L 1331 1722 
L 3047 1722 
L 2188 4044 
z
M 1831 4666 
L 2547 4666 
L 4325 0 
L 3669 0 
L 3244 1197 
L 1141 1197 
L 716 0 
L 50 0 
L 1831 4666 
z
" transform="scale(0.015625)"/>
       <path id="DejaVuSans-45" d="M 628 4666 
L 3578 4666 
L 3578 4134 
L 1259 4134 
L 1259 2753 
L 3481 2753 
L 3481 2222 
L 1259 2222 
L 1259 531 
L 3634 531 
L 3634 0 
L 628 0 
L 628 4666 
z
" transform="scale(0.015625)"/>
      </defs>
      <use xlink:href="#DejaVuSans-41"/>
      <use xlink:href="#DejaVuSans-54" transform="translate(60.658203 0)"/>
      <use xlink:href="#DejaVuSans-45" transform="translate(121.742188 0)"/>
     </g>
    </g>
   </g>
   <g id="FillBetweenPolyCollection_1">
    <defs>
     <path id="m00827717e4" d="M 256.136463 -150.073258 
L 255.344579 -150.073258 
L 255.150244 -154.581507 
L 254.891764 -159.089755 
L 254.562385 -163.598004 
L 254.159952 -168.106252 
L 253.6877 -172.614501 
L 253.153691 -177.122749 
L 252.568538 -181.630998 
L 251.941558 -186.139247 
L 251.276052 -190.647495 
L 250.564865 -195.155744 
L 249.787569 -199.663992 
L 248.910304 -204.172241 
L 247.888707 -208.680489 
L 246.67348 -213.188738 
L 245.217444 -217.696986 
L 243.482589 -222.205235 
L 241.44577 -226.713483 
L 239.102196 -231.221732 
L 236.466463 -235.72998 
L 233.571296 -240.238229 
L 230.46428 -244.746477 
L 227.202785 -249.254726 
L 223.84719 -253.762974 
L 220.452752 -258.271223 
L 217.060947 -262.779472 
L 213.69177 -267.28772 
L 210.338937 -271.795969 
L 206.969754 -276.304217 
L 203.530588 -280.812466 
L 199.957439 -285.320714 
L 196.189547 -289.828963 
L 192.182828 -294.337211 
L 187.919695 -298.84546 
L 183.412627 -303.353708 
L 178.700625 -307.861957 
L 173.839831 -312.370205 
L 168.891451 -316.878454 
L 163.911047 -321.386702 
L 158.942819 -325.894951 
L 154.020799 -330.403199 
L 149.176396 -334.911448 
L 144.449399 -339.419697 
L 139.898095 -343.927945 
L 135.604276 -348.436194 
L 131.670517 -352.944442 
L 128.209653 -357.452691 
L 125.328986 -361.960939 
L 123.113478 -366.469188 
L 121.612435 -370.977436 
L 120.833022 -375.485685 
L 120.741854 -379.993933 
L 121.273783 -384.502182 
L 122.345474 -389.01043 
L 123.87087 -393.518679 
L 125.775922 -398.026927 
L 128.010542 -402.535176 
L 130.556199 -407.043424 
L 133.427752 -411.551673 
L 136.66838 -416.059922 
L 140.337244 -420.56817 
L 144.491143 -425.076419 
L 149.163523 -429.584667 
L 154.346005 -434.092916 
L 159.977992 -438.601164 
L 165.948307 -443.109413 
L 172.109424 -447.617661 
L 178.300773 -452.12591 
L 184.374489 -456.634158 
L 190.216111 -461.142407 
L 195.754632 -465.650655 
L 200.960149 -470.158904 
L 205.831679 -474.667152 
L 210.380736 -479.175401 
L 214.616927 -483.683649 
L 218.540121 -488.191898 
L 222.140528 -492.700147 
L 225.404916 -497.208395 
L 228.325215 -501.716644 
L 230.905711 -506.224892 
L 233.166367 -510.733141 
L 235.141857 -515.241389 
L 236.877512 -519.749638 
L 238.42406 -524.257886 
L 239.832686 -528.766135 
L 241.151102 -533.274383 
L 242.42046 -537.782632 
L 243.672686 -542.29088 
L 244.928047 -546.799129 
L 246.193285 -551.307377 
L 247.461076 -555.815626 
L 248.711476 -560.323874 
L 249.915577 -564.832123 
L 251.040835 -569.340372 
L 252.056945 -573.84862 
L 252.94095 -578.356869 
L 253.680491 -582.865117 
L 254.274706 -587.373366 
L 254.732949 -591.881614 
L 255.071993 -596.389863 
L 256.409049 -596.389863 
L 256.409049 -596.389863 
L 256.748093 -591.881614 
L 257.206336 -587.373366 
L 257.800551 -582.865117 
L 258.540092 -578.356869 
L 259.424097 -573.84862 
L 260.440207 -569.340372 
L 261.565464 -564.832123 
L 262.769566 -560.323874 
L 264.019966 -555.815626 
L 265.287756 -551.307377 
L 266.552995 -546.799129 
L 267.808356 -542.29088 
L 269.060582 -537.782632 
L 270.32994 -533.274383 
L 271.648356 -528.766135 
L 273.056982 -524.257886 
L 274.603529 -519.749638 
L 276.339185 -515.241389 
L 278.314675 -510.733141 
L 280.575331 -506.224892 
L 283.155827 -501.716644 
L 286.076126 -497.208395 
L 289.340513 -492.700147 
L 292.940921 -488.191898 
L 296.864114 -483.683649 
L 301.100306 -479.175401 
L 305.649362 -474.667152 
L 310.520893 -470.158904 
L 315.72641 -465.650655 
L 321.264931 -461.142407 
L 327.106553 -456.634158 
L 333.180269 -452.12591 
L 339.371618 -447.617661 
L 345.532735 -443.109413 
L 351.50305 -438.601164 
L 357.135037 -434.092916 
L 362.317519 -429.584667 
L 366.989898 -425.076419 
L 371.143797 -420.56817 
L 374.812662 -416.059922 
L 378.053289 -411.551673 
L 380.924843 -407.043424 
L 383.470499 -402.535176 
L 385.705119 -398.026927 
L 387.610171 -393.518679 
L 389.135567 -389.01043 
L 390.207258 -384.502182 
L 390.739188 -379.993933 
L 390.64802 -375.485685 
L 389.868606 -370.977436 
L 388.367564 -366.469188 
L 386.152056 -361.960939 
L 383.271389 -357.452691 
L 379.810525 -352.944442 
L 375.876766 -348.436194 
L 371.582947 -343.927945 
L 367.031642 -339.419697 
L 362.304646 -334.911448 
L 357.460243 -330.403199 
L 352.538223 -325.894951 
L 347.569995 -321.386702 
L 342.58959 -316.878454 
L 337.64121 -312.370205 
L 332.780416 -307.861957 
L 328.068415 -303.353708 
L 323.561347 -298.84546 
L 319.298214 -294.337211 
L 315.291495 -289.828963 
L 311.523602 -285.320714 
L 307.950454 -280.812466 
L 304.511288 -276.304217 
L 301.142104 -271.795969 
L 297.789272 -267.28772 
L 294.420095 -262.779472 
L 291.028289 -258.271223 
L 287.633852 -253.762974 
L 284.278257 -249.254726 
L 281.016762 -244.746477 
L 277.909746 -240.238229 
L 275.014578 -235.72998 
L 272.378845 -231.221732 
L 270.035271 -226.713483 
L 267.998452 -222.205235 
L 266.263597 -217.696986 
L 264.807562 -213.188738 
L 263.592335 -208.680489 
L 262.570738 -204.172241 
L 261.693473 -199.663992 
L 260.916176 -195.155744 
L 260.20499 -190.647495 
L 259.539484 -186.139247 
L 258.912504 -181.630998 
L 258.327351 -177.122749 
L 257.793342 -172.614501 
L 257.32109 -168.106252 
L 256.918656 -163.598004 
L 256.589278 -159.089755 
L 256.330797 -154.581507 
L 256.136463 -150.073258 
z
" style="stroke: #474747; stroke-width: 0.625"/>
    </defs>
    <g clip-path="url(#pc0f16d4a47)">
     <use xlink:href="#m00827717e4" x="0" y="679.741844" style="fill: #cc5a49; stroke: #474747; stroke-width: 0.625"/>
    </g>
   </g>
   <g id="FillBetweenPolyCollection_2">
    <defs>
     <path id="mba53633bcd" d="M 593.480671 -269.872269 
L 592.993704 -269.872269 
L 592.850502 -273.661332 
L 592.65927 -277.450395 
L 592.424373 -281.239458 
L 592.161372 -285.02852 
L 591.897181 -288.817583 
L 591.666437 -292.606646 
L 591.504344 -296.395709 
L 591.437827 -300.184771 
L 591.477942 -303.973834 
L 591.61629 -307.762897 
L 591.826681 -311.551959 
L 592.071226 -315.341022 
L 592.308314 -319.130085 
L 592.499662 -322.919148 
L 592.614548 -326.70821 
L 592.631071 -330.497273 
L 592.535654 -334.286336 
L 592.322445 -338.075399 
L 591.99362 -341.864461 
L 591.560437 -345.653524 
L 591.043882 -349.442587 
L 590.473388 -353.23165 
L 589.882552 -357.020712 
L 589.301584 -360.809775 
L 588.747093 -364.598838 
L 588.210514 -368.387901 
L 587.647111 -372.176963 
L 586.968326 -375.966026 
L 586.041019 -379.755089 
L 584.697358 -383.544151 
L 582.757813 -387.333214 
L 580.066377 -391.122277 
L 576.532286 -394.91134 
L 572.167493 -398.700402 
L 567.106446 -402.489465 
L 561.596281 -406.278528 
L 555.952464 -410.067591 
L 550.486035 -413.856653 
L 545.420373 -417.645716 
L 540.822908 -421.434779 
L 536.576168 -425.223842 
L 532.401801 -429.012904 
L 527.933982 -432.801967 
L 522.821526 -436.59103 
L 516.828177 -440.380092 
L 509.901769 -444.169155 
L 502.194637 -447.958218 
L 494.0345 -451.747281 
L 485.860205 -455.536343 
L 478.144548 -459.325406 
L 471.324735 -463.114469 
L 465.752298 -466.903532 
L 461.663798 -470.692594 
L 459.16716 -474.481657 
L 458.238521 -478.27072 
L 458.729152 -482.059783 
L 460.386354 -485.848845 
L 462.891422 -489.637908 
L 465.911379 -493.426971 
L 469.152924 -497.216033 
L 472.403257 -501.005096 
L 475.546926 -504.794159 
L 478.558944 -508.583222 
L 481.485399 -512.372284 
L 484.425953 -516.161347 
L 487.525141 -519.95041 
L 490.966485 -523.739473 
L 494.955071 -527.528535 
L 499.678405 -531.317598 
L 505.25071 -535.106661 
L 511.662215 -538.895724 
L 518.75985 -542.684786 
L 526.27392 -546.473849 
L 533.883086 -550.262912 
L 541.290773 -554.051974 
L 548.2816 -557.841037 
L 554.738341 -561.6301 
L 560.620524 -565.419163 
L 565.922995 -569.208225 
L 570.638428 -572.997288 
L 574.74098 -576.786351 
L 578.194808 -580.575414 
L 580.978543 -584.364476 
L 583.110772 -588.153539 
L 584.663281 -591.942602 
L 585.755984 -595.731665 
L 586.535942 -599.520727 
L 587.14884 -603.30979 
L 587.712934 -607.098853 
L 588.302981 -610.887916 
L 588.947046 -614.676978 
L 589.634468 -618.466041 
L 590.330445 -622.255104 
L 590.992002 -626.044166 
L 591.581171 -629.833229 
L 592.073075 -633.622292 
L 592.458547 -637.411355 
L 592.742341 -641.200417 
L 592.938761 -644.98948 
L 593.535614 -644.98948 
L 593.535614 -644.98948 
L 593.732034 -641.200417 
L 594.015828 -637.411355 
L 594.4013 -633.622292 
L 594.893204 -629.833229 
L 595.482373 -626.044166 
L 596.14393 -622.255104 
L 596.839907 -618.466041 
L 597.527329 -614.676978 
L 598.171394 -610.887916 
L 598.761441 -607.098853 
L 599.325535 -603.30979 
L 599.938433 -599.520727 
L 600.718391 -595.731665 
L 601.811094 -591.942602 
L 603.363603 -588.153539 
L 605.495832 -584.364476 
L 608.279567 -580.575414 
L 611.733395 -576.786351 
L 615.835947 -572.997288 
L 620.55138 -569.208225 
L 625.853851 -565.419163 
L 631.736034 -561.6301 
L 638.192775 -557.841037 
L 645.183602 -554.051974 
L 652.591289 -550.262912 
L 660.200455 -546.473849 
L 667.714525 -542.684786 
L 674.81216 -538.895724 
L 681.223665 -535.106661 
L 686.79597 -531.317598 
L 691.519304 -527.528535 
L 695.50789 -523.739473 
L 698.949234 -519.95041 
L 702.048422 -516.161347 
L 704.988976 -512.372284 
L 707.915431 -508.583222 
L 710.927449 -504.794159 
L 714.071118 -501.005096 
L 717.321451 -497.216033 
L 720.562996 -493.426971 
L 723.582953 -489.637908 
L 726.088021 -485.848845 
L 727.745223 -482.059783 
L 728.235854 -478.27072 
L 727.307215 -474.481657 
L 724.810577 -470.692594 
L 720.722077 -466.903532 
L 715.14964 -463.114469 
L 708.329827 -459.325406 
L 700.61417 -455.536343 
L 692.439875 -451.747281 
L 684.279738 -447.958218 
L 676.572606 -444.169155 
L 669.646198 -440.380092 
L 663.652849 -436.59103 
L 658.540393 -432.801967 
L 654.072574 -429.012904 
L 649.898207 -425.223842 
L 645.651467 -421.434779 
L 641.054002 -417.645716 
L 635.98834 -413.856653 
L 630.521911 -410.067591 
L 624.878094 -406.278528 
L 619.367929 -402.489465 
L 614.306882 -398.700402 
L 609.942089 -394.91134 
L 606.407998 -391.122277 
L 603.716562 -387.333214 
L 601.777017 -383.544151 
L 600.433356 -379.755089 
L 599.506049 -375.966026 
L 598.827264 -372.176963 
L 598.263861 -368.387901 
L 597.727282 -364.598838 
L 597.172791 -360.809775 
L 596.591823 -357.020712 
L 596.000987 -353.23165 
L 595.430493 -349.442587 
L 594.913938 -345.653524 
L 594.480755 -341.864461 
L 594.15193 -338.075399 
L 593.938721 -334.286336 
L 593.843304 -330.497273 
L 593.859827 -326.70821 
L 593.974713 -322.919148 
L 594.166061 -319.130085 
L 594.403149 -315.341022 
L 594.647694 -311.551959 
L 594.858085 -307.762897 
L 594.996433 -303.973834 
L 595.036548 -300.184771 
L 594.970031 -296.395709 
L 594.807938 -292.606646 
L 594.577194 -288.817583 
L 594.313003 -285.02852 
L 594.050002 -281.239458 
L 593.815105 -277.450395 
L 593.623873 -273.661332 
L 593.480671 -269.872269 
z
" style="stroke: #474747; stroke-width: 0.625"/>
    </defs>
    <g clip-path="url(#pc0f16d4a47)">
     <use xlink:href="#mba53633bcd" x="0" y="679.741844" style="fill: #4586ac; stroke: #474747; stroke-width: 0.625"/>
    </g>
   </g>
   <g id="FillBetweenPolyCollection_3">
    <defs>
     <path id="mcef8a67419" d="M 930.98072 -178.958608 
L 930.486988 -178.958608 
L 930.334773 -183.209458 
L 930.129822 -187.460308 
L 929.877884 -191.711158 
L 929.598173 -195.962007 
L 929.323091 -200.212857 
L 929.09307 -204.463707 
L 928.947158 -208.714557 
L 928.912237 -212.965406 
L 928.994897 -217.216256 
L 929.179295 -221.467106 
L 929.431842 -225.717956 
L 929.710591 -229.968805 
L 929.975355 -234.219655 
L 930.194706 -238.470505 
L 930.347882 -242.721355 
L 930.422106 -246.972204 
L 930.407748 -251.223054 
L 930.294448 -255.473904 
L 930.070727 -259.724754 
L 929.728027 -263.975604 
L 929.26804 -268.226453 
L 928.710129 -272.477303 
L 928.094631 -276.728153 
L 927.478573 -280.979003 
L 926.92314 -285.229852 
L 926.476001 -289.480702 
L 926.154448 -293.731552 
L 925.935303 -297.982402 
L 925.754569 -302.233251 
L 925.515536 -306.484101 
L 925.101191 -310.734951 
L 924.386824 -314.985801 
L 923.250914 -319.23665 
L 921.584297 -323.4875 
L 919.297391 -327.73835 
L 916.323331 -331.9892 
L 912.614078 -336.240049 
L 908.12944 -340.490899 
L 902.825382 -344.741749 
L 896.653696 -348.992599 
L 889.584373 -353.243448 
L 881.651638 -357.494298 
L 873.008065 -361.745148 
L 863.957873 -365.995998 
L 854.940936 -370.246847 
L 846.45714 -374.497697 
L 838.949416 -378.748547 
L 832.687697 -382.999397 
L 827.700464 -387.250246 
L 823.781547 -391.501096 
L 820.567541 -395.751946 
L 817.653305 -400.002796 
L 814.703465 -404.253645 
L 811.528233 -408.504495 
L 808.112352 -412.755345 
L 804.603432 -417.006195 
L 801.273019 -421.257044 
L 798.462039 -425.507894 
L 796.518529 -429.758744 
L 795.735188 -434.009594 
L 796.297277 -438.260444 
L 798.253074 -442.511293 
L 801.515127 -446.762143 
L 805.89079 -451.012993 
L 811.129773 -455.263843 
L 816.971107 -459.514692 
L 823.17525 -463.765542 
L 829.537167 -468.016392 
L 835.887012 -472.267242 
L 842.09044 -476.518091 
L 848.057619 -480.768941 
L 853.760679 -485.019791 
L 859.249176 -489.270641 
L 864.648403 -493.52149 
L 870.129934 -497.77234 
L 875.856319 -502.02319 
L 881.916464 -506.27404 
L 888.27663 -510.524889 
L 894.768601 -514.775739 
L 901.121987 -519.026589 
L 907.02915 -523.277439 
L 912.218471 -527.528288 
L 916.511026 -531.779138 
L 919.846009 -536.029988 
L 922.274562 -540.280838 
L 923.932084 -544.531687 
L 925.001924 -548.782537 
L 925.680171 -553.033387 
L 926.146457 -557.284237 
L 926.542666 -561.535086 
L 926.960687 -565.785936 
L 927.440213 -570.036786 
L 927.976465 -574.287636 
L 928.535437 -578.538485 
L 929.072112 -582.789335 
L 929.546443 -587.040185 
L 929.933313 -591.291035 
L 930.225314 -595.541884 
L 930.42977 -599.792734 
L 931.037939 -599.792734 
L 931.037939 -599.792734 
L 931.242394 -595.541884 
L 931.534395 -591.291035 
L 931.921265 -587.040185 
L 932.395597 -582.789335 
L 932.932271 -578.538485 
L 933.491244 -574.287636 
L 934.027495 -570.036786 
L 934.507021 -565.785936 
L 934.925042 -561.535086 
L 935.321251 -557.284237 
L 935.787537 -553.033387 
L 936.465784 -548.782537 
L 937.535624 -544.531687 
L 939.193147 -540.280838 
L 941.6217 -536.029988 
L 944.956683 -531.779138 
L 949.249237 -527.528288 
L 954.438558 -523.277439 
L 960.345721 -519.026589 
L 966.699107 -514.775739 
L 973.191078 -510.524889 
L 979.551245 -506.27404 
L 985.61139 -502.02319 
L 991.337774 -497.77234 
L 996.819305 -493.52149 
L 1002.218532 -489.270641 
L 1007.707029 -485.019791 
L 1013.410089 -480.768941 
L 1019.377268 -476.518091 
L 1025.580697 -472.267242 
L 1031.930541 -468.016392 
L 1038.292458 -463.765542 
L 1044.496602 -459.514692 
L 1050.337936 -455.263843 
L 1055.576919 -451.012993 
L 1059.952581 -446.762143 
L 1063.214635 -442.511293 
L 1065.170432 -438.260444 
L 1065.732521 -434.009594 
L 1064.94918 -429.758744 
L 1063.005669 -425.507894 
L 1060.19469 -421.257044 
L 1056.864276 -417.006195 
L 1053.355356 -412.755345 
L 1049.939476 -408.504495 
L 1046.764243 -404.253645 
L 1043.814403 -400.002796 
L 1040.900167 -395.751946 
L 1037.686161 -391.501096 
L 1033.767245 -387.250246 
L 1028.780012 -382.999397 
L 1022.518293 -378.748547 
L 1015.010568 -374.497697 
L 1006.526772 -370.246847 
L 997.509835 -365.995998 
L 988.459643 -361.745148 
L 979.81607 -357.494298 
L 971.883336 -353.243448 
L 964.814013 -348.992599 
L 958.642327 -344.741749 
L 953.338268 -340.490899 
L 948.85363 -336.240049 
L 945.144377 -331.9892 
L 942.170317 -327.73835 
L 939.883411 -323.4875 
L 938.216794 -319.23665 
L 937.080884 -314.985801 
L 936.366517 -310.734951 
L 935.952172 -306.484101 
L 935.713139 -302.233251 
L 935.532405 -297.982402 
L 935.31326 -293.731552 
L 934.991708 -289.480702 
L 934.544569 -285.229852 
L 933.989136 -280.979003 
L 933.373078 -276.728153 
L 932.757579 -272.477303 
L 932.199668 -268.226453 
L 931.739682 -263.975604 
L 931.396982 -259.724754 
L 931.17326 -255.473904 
L 931.05996 -251.223054 
L 931.045602 -246.972204 
L 931.119827 -242.721355 
L 931.273003 -238.470505 
L 931.492353 -234.219655 
L 931.757117 -229.968805 
L 932.035866 -225.717956 
L 932.288414 -221.467106 
L 932.472812 -217.216256 
L 932.555471 -212.965406 
L 932.52055 -208.714557 
L 932.374638 -204.463707 
L 932.144617 -200.212857 
L 931.869536 -195.962007 
L 931.589825 -191.711158 
L 931.337887 -187.460308 
L 931.132935 -183.209458 
L 930.98072 -178.958608 
z
" style="stroke: #474747; stroke-width: 0.625"/>
    </defs>
    <g clip-path="url(#pc0f16d4a47)">
     <use xlink:href="#mcef8a67419" x="0" y="679.741844" style="fill: #9e97cc; stroke: #474747; stroke-width: 0.625"/>
    </g>
   </g>
   <g id="FillBetweenPolyCollection_4">
    <defs>
     <path id="m9e88517793" d="M 1268.474453 -224.27307 
L 1267.986588 -224.27307 
L 1267.843836 -227.967005 
L 1267.653371 -231.660941 
L 1267.419443 -235.354877 
L 1267.157322 -239.048813 
L 1266.893484 -242.742749 
L 1266.662119 -246.436684 
L 1266.498169 -250.13062 
L 1266.428679 -253.824556 
L 1266.465299 -257.518492 
L 1266.600647 -261.212427 
L 1266.809796 -264.906363 
L 1267.056118 -268.600299 
L 1267.299015 -272.294235 
L 1267.50072 -275.988171 
L 1267.63025 -279.682106 
L 1267.664348 -283.376042 
L 1267.586748 -287.069978 
L 1267.387642 -290.763914 
L 1267.064586 -294.45785 
L 1266.62465 -298.151785 
L 1266.086169 -301.845721 
L 1265.477903 -305.539657 
L 1264.834139 -309.233593 
L 1264.186105 -312.927529 
L 1263.552089 -316.621464 
L 1262.929682 -320.3154 
L 1262.292756 -324.009336 
L 1261.59353 -327.703272 
L 1260.767634 -331.397208 
L 1259.739081 -335.091143 
L 1258.423367 -338.785079 
L 1256.729784 -342.479015 
L 1254.566475 -346.172951 
L 1251.851832 -349.866887 
L 1248.532814 -353.560822 
L 1244.605883 -357.254758 
L 1240.13209 -360.948694 
L 1235.236916 -364.64263 
L 1230.089092 -368.336565 
L 1224.859969 -372.030501 
L 1219.673522 -375.724437 
L 1214.563311 -379.418373 
L 1209.453573 -383.112309 
L 1204.175809 -386.806244 
L 1198.521005 -390.50018 
L 1192.314595 -394.194116 
L 1185.491376 -397.888052 
L 1178.144918 -401.581988 
L 1170.532463 -405.275923 
L 1163.030154 -408.969859 
L 1156.050165 -412.663795 
L 1149.94486 -416.357731 
L 1144.928446 -420.051667 
L 1141.041428 -423.745602 
L 1138.169198 -427.439538 
L 1136.107931 -431.133474 
L 1134.654901 -434.82741 
L 1133.691822 -438.521346 
L 1133.231854 -442.215281 
L 1133.413202 -445.909217 
L 1134.441018 -449.603153 
L 1136.49856 -453.297089 
L 1139.661252 -456.991025 
L 1143.847944 -460.68496 
L 1148.830567 -464.378896 
L 1154.300308 -468.072832 
L 1159.964496 -471.766768 
L 1165.634449 -475.460703 
L 1171.26821 -479.154639 
L 1176.952442 -482.848575 
L 1182.835146 -486.542511 
L 1189.041425 -490.236447 
L 1195.608324 -493.930382 
L 1202.461543 -497.624318 
L 1209.435295 -501.318254 
L 1216.318955 -505.01219 
L 1222.907901 -508.706126 
L 1229.04102 -512.400061 
L 1234.617732 -516.093997 
L 1239.596438 -519.787933 
L 1243.980835 -523.481869 
L 1247.801184 -527.175805 
L 1251.09667 -530.86974 
L 1253.903688 -534.563676 
L 1256.25294 -538.257612 
L 1258.175117 -541.951548 
L 1259.711143 -545.645484 
L 1260.920436 -549.339419 
L 1261.881181 -553.033355 
L 1262.6806 -556.727291 
L 1263.398456 -560.421227 
L 1264.090814 -564.115163 
L 1264.781063 -567.809098 
L 1265.461631 -571.503034 
L 1266.104858 -575.19697 
L 1266.677807 -578.890906 
L 1267.155101 -582.584841 
L 1267.525926 -586.278777 
L 1267.794499 -589.972713 
L 1268.666543 -589.972713 
L 1268.666543 -589.972713 
L 1268.935116 -586.278777 
L 1269.30594 -582.584841 
L 1269.783235 -578.890906 
L 1270.356184 -575.19697 
L 1270.999411 -571.503034 
L 1271.679978 -567.809098 
L 1272.370227 -564.115163 
L 1273.062586 -560.421227 
L 1273.780442 -556.727291 
L 1274.57986 -553.033355 
L 1275.540606 -549.339419 
L 1276.749898 -545.645484 
L 1278.285925 -541.951548 
L 1280.208101 -538.257612 
L 1282.557353 -534.563676 
L 1285.364372 -530.86974 
L 1288.659858 -527.175805 
L 1292.480206 -523.481869 
L 1296.864604 -519.787933 
L 1301.84331 -516.093997 
L 1307.420022 -512.400061 
L 1313.553141 -508.706126 
L 1320.142087 -505.01219 
L 1327.025747 -501.318254 
L 1333.999498 -497.624318 
L 1340.852718 -493.930382 
L 1347.419617 -490.236447 
L 1353.625895 -486.542511 
L 1359.5086 -482.848575 
L 1365.192832 -479.154639 
L 1370.826593 -475.460703 
L 1376.496546 -471.766768 
L 1382.160733 -468.072832 
L 1387.630475 -464.378896 
L 1392.613098 -460.68496 
L 1396.79979 -456.991025 
L 1399.962482 -453.297089 
L 1402.020024 -449.603153 
L 1403.04784 -445.909217 
L 1403.229188 -442.215281 
L 1402.76922 -438.521346 
L 1401.80614 -434.82741 
L 1400.353111 -431.133474 
L 1398.291844 -427.439538 
L 1395.419614 -423.745602 
L 1391.532596 -420.051667 
L 1386.516181 -416.357731 
L 1380.410877 -412.663795 
L 1373.430887 -408.969859 
L 1365.928578 -405.275923 
L 1358.316123 -401.581988 
L 1350.969666 -397.888052 
L 1344.146447 -394.194116 
L 1337.940037 -390.50018 
L 1332.285233 -386.806244 
L 1327.007469 -383.112309 
L 1321.89773 -379.418373 
L 1316.787519 -375.724437 
L 1311.601073 -372.030501 
L 1306.37195 -368.336565 
L 1301.224126 -364.64263 
L 1296.328951 -360.948694 
L 1291.855159 -357.254758 
L 1287.928228 -353.560822 
L 1284.60921 -349.866887 
L 1281.894566 -346.172951 
L 1279.731257 -342.479015 
L 1278.037674 -338.785079 
L 1276.721961 -335.091143 
L 1275.693408 -331.397208 
L 1274.867512 -327.703272 
L 1274.168286 -324.009336 
L 1273.531359 -320.3154 
L 1272.908953 -316.621464 
L 1272.274937 -312.927529 
L 1271.626902 -309.233593 
L 1270.983139 -305.539657 
L 1270.374873 -301.845721 
L 1269.836391 -298.151785 
L 1269.396455 -294.45785 
L 1269.0734 -290.763914 
L 1268.874294 -287.069978 
L 1268.796694 -283.376042 
L 1268.830792 -279.682106 
L 1268.960321 -275.988171 
L 1269.162026 -272.294235 
L 1269.404924 -268.600299 
L 1269.651245 -264.906363 
L 1269.860395 -261.212427 
L 1269.995742 -257.518492 
L 1270.032363 -253.824556 
L 1269.962873 -250.13062 
L 1269.798923 -246.436684 
L 1269.567557 -242.742749 
L 1269.303719 -239.048813 
L 1269.041598 -235.354877 
L 1268.80767 -231.660941 
L 1268.617206 -227.967005 
L 1268.474453 -224.27307 
z
" style="stroke: #474747; stroke-width: 0.625"/>
    </defs>
    <g clip-path="url(#pc0f16d4a47)">
     <use xlink:href="#m9e88517793" x="0" y="679.741844" style="fill: #777777; stroke: #474747; stroke-width: 0.625"/>
    </g>
   </g>
   <g id="FillBetweenPolyCollection_5">
    <defs>
     <path id="mf32df269a2" d="M 1605.951953 -93.942207 
L 1605.502422 -93.942207 
L 1605.391937 -98.525738 
L 1605.248923 -103.109268 
L 1605.074618 -107.692799 
L 1604.875563 -112.276329 
L 1604.664166 -116.859859 
L 1604.458 -121.44339 
L 1604.277611 -126.02692 
L 1604.143096 -130.610451 
L 1604.070093 -135.193981 
L 1604.066073 -139.777512 
L 1604.127803 -144.361042 
L 1604.240429 -148.944572 
L 1604.378104 -153.528103 
L 1604.505601 -158.111633 
L 1604.580133 -162.695164 
L 1604.552812 -167.278694 
L 1604.369693 -171.862225 
L 1603.972944 -176.445755 
L 1603.303114 -181.029285 
L 1602.303399 -185.612816 
L 1600.926267 -190.196346 
L 1599.141852 -194.779877 
L 1596.946564 -199.363407 
L 1594.369688 -203.946937 
L 1591.475721 -208.530468 
L 1588.360772 -213.113998 
L 1585.142437 -217.697529 
L 1581.943753 -222.281059 
L 1578.872863 -226.86459 
L 1576.000848 -231.44812 
L 1573.340877 -236.03165 
L 1570.832397 -240.615181 
L 1568.334595 -245.198711 
L 1565.633127 -249.782242 
L 1562.462741 -254.365772 
L 1558.545447 -258.949303 
L 1553.639735 -263.532833 
L 1547.592124 -268.116363 
L 1540.379696 -272.699894 
L 1532.132689 -277.283424 
L 1523.130084 -281.866955 
L 1513.767654 -286.450485 
L 1504.505059 -291.034016 
L 1495.803842 -295.617546 
L 1488.069895 -300.201076 
L 1481.61166 -304.784607 
L 1476.62007 -309.368137 
L 1473.170032 -313.951668 
L 1471.238112 -318.535198 
L 1470.728521 -323.118728 
L 1471.499546 -327.702259 
L 1473.384846 -332.285789 
L 1476.207227 -336.86932 
L 1479.785584 -341.45285 
L 1483.937825 -346.036381 
L 1488.483378 -350.619911 
L 1493.248202 -355.203441 
L 1498.073505 -359.786972 
L 1502.827105 -364.370502 
L 1507.414405 -368.954033 
L 1511.785089 -373.537563 
L 1515.932297 -378.121094 
L 1519.883238 -382.704624 
L 1523.683026 -387.288154 
L 1527.376072 -391.871685 
L 1530.990359 -396.455215 
L 1534.529076 -401.038746 
L 1537.971613 -405.622276 
L 1541.28286 -410.205806 
L 1544.427276 -414.789337 
L 1547.38307 -419.372867 
L 1550.152267 -423.956398 
L 1552.764019 -428.539928 
L 1555.27048 -433.123459 
L 1557.73648 -437.706989 
L 1560.22561 -442.290519 
L 1562.786137 -446.87405 
L 1565.440284 -451.45758 
L 1568.179771 -456.041111 
L 1570.969044 -460.624641 
L 1573.755547 -465.208172 
L 1576.48423 -469.791702 
L 1579.111983 -474.375232 
L 1581.61751 -478.958763 
L 1584.003567 -483.542293 
L 1586.291065 -488.125824 
L 1588.507337 -492.709354 
L 1590.672821 -497.292884 
L 1592.790736 -501.876415 
L 1594.843013 -506.459945 
L 1596.793334 -511.043476 
L 1598.595723 -515.627006 
L 1600.205515 -520.210537 
L 1601.58926 -524.794067 
L 1602.730989 -529.377597 
L 1603.633831 -533.961128 
L 1604.31747 -538.544658 
L 1604.812941 -543.128189 
L 1605.156587 -547.711719 
L 1606.297788 -547.711719 
L 1606.297788 -547.711719 
L 1606.641434 -543.128189 
L 1607.136905 -538.544658 
L 1607.820544 -533.961128 
L 1608.723386 -529.377597 
L 1609.865115 -524.794067 
L 1611.24886 -520.210537 
L 1612.858652 -515.627006 
L 1614.661041 -511.043476 
L 1616.611362 -506.459945 
L 1618.663639 -501.876415 
L 1620.781554 -497.292884 
L 1622.947038 -492.709354 
L 1625.16331 -488.125824 
L 1627.450808 -483.542293 
L 1629.836865 -478.958763 
L 1632.342392 -474.375232 
L 1634.970145 -469.791702 
L 1637.698828 -465.208172 
L 1640.485331 -460.624641 
L 1643.274604 -456.041111 
L 1646.014091 -451.45758 
L 1648.668238 -446.87405 
L 1651.228765 -442.290519 
L 1653.717895 -437.706989 
L 1656.183895 -433.123459 
L 1658.690356 -428.539928 
L 1661.302108 -423.956398 
L 1664.071305 -419.372867 
L 1667.027099 -414.789337 
L 1670.171515 -410.205806 
L 1673.482762 -405.622276 
L 1676.925299 -401.038746 
L 1680.464016 -396.455215 
L 1684.078303 -391.871685 
L 1687.771349 -387.288154 
L 1691.571137 -382.704624 
L 1695.522078 -378.121094 
L 1699.669286 -373.537563 
L 1704.03997 -368.954033 
L 1708.62727 -364.370502 
L 1713.38087 -359.786972 
L 1718.206173 -355.203441 
L 1722.970997 -350.619911 
L 1727.51655 -346.036381 
L 1731.668791 -341.45285 
L 1735.247148 -336.86932 
L 1738.069529 -332.285789 
L 1739.954829 -327.702259 
L 1740.725854 -323.118728 
L 1740.216263 -318.535198 
L 1738.284343 -313.951668 
L 1734.834305 -309.368137 
L 1729.842715 -304.784607 
L 1723.38448 -300.201076 
L 1715.650533 -295.617546 
L 1706.949316 -291.034016 
L 1697.686721 -286.450485 
L 1688.324291 -281.866955 
L 1679.321686 -277.283424 
L 1671.074679 -272.699894 
L 1663.862251 -268.116363 
L 1657.81464 -263.532833 
L 1652.908928 -258.949303 
L 1648.991634 -254.365772 
L 1645.821248 -249.782242 
L 1643.11978 -245.198711 
L 1640.621978 -240.615181 
L 1638.113498 -236.03165 
L 1635.453527 -231.44812 
L 1632.581512 -226.86459 
L 1629.510622 -222.281059 
L 1626.311938 -217.697529 
L 1623.093603 -213.113998 
L 1619.978654 -208.530468 
L 1617.084687 -203.946937 
L 1614.507811 -199.363407 
L 1612.312523 -194.779877 
L 1610.528108 -190.196346 
L 1609.150976 -185.612816 
L 1608.151261 -181.029285 
L 1607.481431 -176.445755 
L 1607.084682 -171.862225 
L 1606.901563 -167.278694 
L 1606.874242 -162.695164 
L 1606.948774 -158.111633 
L 1607.076271 -153.528103 
L 1607.213946 -148.944572 
L 1607.326572 -144.361042 
L 1607.388302 -139.777512 
L 1607.384282 -135.193981 
L 1607.311279 -130.610451 
L 1607.176764 -126.02692 
L 1606.996375 -121.44339 
L 1606.790209 -116.859859 
L 1606.578812 -112.276329 
L 1606.379757 -107.692799 
L 1606.205452 -103.109268 
L 1606.062438 -98.525738 
L 1605.951953 -93.942207 
z
" style="stroke: #474747; stroke-width: 0.625"/>
    </defs>
    <g clip-path="url(#pc0f16d4a47)">
     <use xlink:href="#mf32df269a2" x="0" y="679.741844" style="fill: #e7bc72; stroke: #474747; stroke-width: 0.625"/>
    </g>
   </g>
   <g id="FillBetweenPolyCollection_6">
    <defs>
     <path id="m36495a3a7f" d="M 1943.468828 -260.872273 
L 1942.978881 -260.872273 
L 1942.841646 -264.585205 
L 1942.6598 -268.298137 
L 1942.436354 -272.011069 
L 1942.183419 -275.724002 
L 1941.922342 -279.436934 
L 1941.680797 -283.149866 
L 1941.486807 -286.862798 
L 1941.360969 -290.575731 
L 1941.309199 -294.288663 
L 1941.318604 -298.001595 
L 1941.358363 -301.714527 
L 1941.38595 -305.42746 
L 1941.357235 -309.140392 
L 1941.237638 -312.853324 
L 1941.010958 -316.566256 
L 1940.682964 -320.279189 
L 1940.278145 -323.992121 
L 1939.829869 -327.705053 
L 1939.36627 -331.417985 
L 1938.895814 -335.130918 
L 1938.397069 -338.84385 
L 1937.816305 -342.556782 
L 1937.074085 -346.269714 
L 1936.078921 -349.982646 
L 1934.743593 -353.695579 
L 1932.999198 -357.408511 
L 1930.803748 -361.121443 
L 1928.145189 -364.834375 
L 1925.041217 -368.547308 
L 1921.538471 -372.26024 
L 1917.711477 -375.973172 
L 1913.658542 -379.686104 
L 1909.490431 -383.399037 
L 1905.309647 -387.111969 
L 1901.183132 -390.824901 
L 1897.116479 -394.537833 
L 1893.039914 -398.250766 
L 1888.813799 -401.963698 
L 1884.254879 -405.67663 
L 1879.177314 -409.389562 
L 1873.43775 -413.102495 
L 1866.973331 -416.815427 
L 1859.824918 -420.528359 
L 1852.142875 -424.241291 
L 1844.176945 -427.954224 
L 1836.253705 -431.667156 
L 1828.74468 -435.380088 
L 1822.02684 -439.09302 
L 1816.436921 -442.805953 
L 1812.223119 -446.518885 
L 1809.502124 -450.231817 
L 1808.233662 -453.944749 
L 1808.225187 -457.657681 
L 1809.173237 -461.370614 
L 1810.735811 -465.083546 
L 1812.616671 -468.796478 
L 1814.634423 -472.50941 
L 1816.752129 -476.222343 
L 1819.057118 -479.935275 
L 1821.700105 -483.648207 
L 1824.818925 -487.361139 
L 1828.477546 -491.074072 
L 1832.643249 -494.787004 
L 1837.207645 -498.499936 
L 1842.038584 -502.212868 
L 1847.037942 -505.925801 
L 1852.179711 -509.638733 
L 1857.51299 -513.351665 
L 1863.130345 -517.064597 
L 1869.116302 -520.77753 
L 1875.49765 -524.490462 
L 1882.214472 -528.203394 
L 1889.120739 -531.916326 
L 1896.011012 -535.629259 
L 1902.660803 -539.342191 
L 1908.865751 -543.055123 
L 1914.468768 -546.768055 
L 1919.371539 -550.480988 
L 1923.533319 -554.19392 
L 1926.962963 -557.906852 
L 1929.709285 -561.619784 
L 1931.851883 -565.332716 
L 1933.491955 -569.045649 
L 1934.741879 -572.758581 
L 1935.713501 -576.471513 
L 1936.506722 -580.184445 
L 1937.200855 -583.897378 
L 1937.850545 -587.61031 
L 1938.486462 -591.323242 
L 1939.119402 -595.036174 
L 1939.745834 -598.749107 
L 1940.353331 -602.462039 
L 1940.925225 -606.174971 
L 1941.444475 -609.887903 
L 1941.896887 -613.600836 
L 1942.27356 -617.313768 
L 1942.572191 -621.0267 
L 1942.797001 -624.739632 
L 1942.957341 -628.452565 
L 1943.490367 -628.452565 
L 1943.490367 -628.452565 
L 1943.650707 -624.739632 
L 1943.875517 -621.0267 
L 1944.174149 -617.313768 
L 1944.550821 -613.600836 
L 1945.003234 -609.887903 
L 1945.522483 -606.174971 
L 1946.094377 -602.462039 
L 1946.701874 -598.749107 
L 1947.328306 -595.036174 
L 1947.961246 -591.323242 
L 1948.597163 -587.61031 
L 1949.246853 -583.897378 
L 1949.940986 -580.184445 
L 1950.734208 -576.471513 
L 1951.705829 -572.758581 
L 1952.955754 -569.045649 
L 1954.595825 -565.332716 
L 1956.738424 -561.619784 
L 1959.484745 -557.906852 
L 1962.914389 -554.19392 
L 1967.076169 -550.480988 
L 1971.97894 -546.768055 
L 1977.581957 -543.055123 
L 1983.786905 -539.342191 
L 1990.436696 -535.629259 
L 1997.32697 -531.916326 
L 2004.233236 -528.203394 
L 2010.950058 -524.490462 
L 2017.331406 -520.77753 
L 2023.317364 -517.064597 
L 2028.934718 -513.351665 
L 2034.267998 -509.638733 
L 2039.409766 -505.925801 
L 2044.409124 -502.212868 
L 2049.240063 -498.499936 
L 2053.80446 -494.787004 
L 2057.970162 -491.074072 
L 2061.628784 -487.361139 
L 2064.747603 -483.648207 
L 2067.39059 -479.935275 
L 2069.695579 -476.222343 
L 2071.813286 -472.50941 
L 2073.831037 -468.796478 
L 2075.711897 -465.083546 
L 2077.274471 -461.370614 
L 2078.222521 -457.657681 
L 2078.214047 -453.944749 
L 2076.945584 -450.231817 
L 2074.224589 -446.518885 
L 2070.010787 -442.805953 
L 2064.420868 -439.09302 
L 2057.703029 -435.380088 
L 2050.194004 -431.667156 
L 2042.270764 -427.954224 
L 2034.304833 -424.241291 
L 2026.62279 -420.528359 
L 2019.474378 -416.815427 
L 2013.009958 -413.102495 
L 2007.270395 -409.389562 
L 2002.19283 -405.67663 
L 1997.63391 -401.963698 
L 1993.407794 -398.250766 
L 1989.331229 -394.537833 
L 1985.264576 -390.824901 
L 1981.138062 -387.111969 
L 1976.957277 -383.399037 
L 1972.789166 -379.686104 
L 1968.736231 -375.973172 
L 1964.909237 -372.26024 
L 1961.406491 -368.547308 
L 1958.302519 -364.834375 
L 1955.643961 -361.121443 
L 1953.448511 -357.408511 
L 1951.704116 -353.695579 
L 1950.368787 -349.982646 
L 1949.373623 -346.269714 
L 1948.631403 -342.556782 
L 1948.050639 -338.84385 
L 1947.551894 -335.130918 
L 1947.081438 -331.417985 
L 1946.61784 -327.705053 
L 1946.169563 -323.992121 
L 1945.764744 -320.279189 
L 1945.436751 -316.566256 
L 1945.21007 -312.853324 
L 1945.090473 -309.140392 
L 1945.061758 -305.42746 
L 1945.089345 -301.714527 
L 1945.129105 -298.001595 
L 1945.138509 -294.288663 
L 1945.086739 -290.575731 
L 1944.960901 -286.862798 
L 1944.766912 -283.149866 
L 1944.525367 -279.436934 
L 1944.26429 -275.724002 
L 1944.011354 -272.011069 
L 1943.787908 -268.298137 
L 1943.606062 -264.585205 
L 1943.468828 -260.872273 
z
" style="stroke: #474747; stroke-width: 0.625"/>
    </defs>
    <g clip-path="url(#pc0f16d4a47)">
     <use xlink:href="#m36495a3a7f" x="0" y="679.741844" style="fill: #8aab51; stroke: #474747; stroke-width: 0.625"/>
    </g>
   </g>
   <g id="line2d_21">
    <path d="M 255.740521 483.970681 
L 255.740521 129.049886 
" clip-path="url(#pc0f16d4a47)" style="fill: none; stroke: #474747; stroke-width: 0.9375; stroke-linecap: square"/>
   </g>
   <g id="line2d_22">
    <path d="M 255.740521 346.72382 
L 255.740521 253.633449 
" clip-path="url(#pc0f16d4a47)" style="fill: none; stroke: #474747; stroke-width: 2.8125; stroke-linecap: square"/>
   </g>
   <g id="line2d_23">
    <path d="M 255.740521 302.072169 
" clip-path="url(#pc0f16d4a47)" style="fill: none; stroke: #474747; stroke-width: 1.5; stroke-linecap: square"/>
    <defs>
     <path id="m512f89431a" d="M 1.171875 0 
L -1.171875 -0 
" style="stroke: #ffffff; stroke-width: 0.5625"/>
    </defs>
    <g clip-path="url(#pc0f16d4a47)">
     <use xlink:href="#m512f89431a" x="255.740521" y="302.072169" style="fill: #ffffff; stroke: #ffffff; stroke-width: 0.5625"/>
    </g>
   </g>
   <g id="line2d_24">
    <path d="M 593.237188 306.917354 
L 593.237188 77.467543 
" clip-path="url(#pc0f16d4a47)" style="fill: none; stroke: #474747; stroke-width: 0.9375; stroke-linecap: square"/>
   </g>
   <g id="line2d_25">
    <path d="M 593.237188 221.371884 
L 593.237188 162.915299 
" clip-path="url(#pc0f16d4a47)" style="fill: none; stroke: #474747; stroke-width: 2.8125; stroke-linecap: square"/>
   </g>
   <g id="line2d_26">
    <path d="M 593.237188 194.302609 
" clip-path="url(#pc0f16d4a47)" style="fill: none; stroke: #474747; stroke-width: 1.5; stroke-linecap: square"/>
    <g clip-path="url(#pc0f16d4a47)">
     <use xlink:href="#m512f89431a" x="593.237188" y="194.302609" style="fill: #ffffff; stroke: #ffffff; stroke-width: 0.5625"/>
    </g>
   </g>
   <g id="line2d_27">
    <path d="M 930.733854 364.703232 
L 930.733854 123.610325 
" clip-path="url(#pc0f16d4a47)" style="fill: none; stroke: #474747; stroke-width: 0.9375; stroke-linecap: square"/>
   </g>
   <g id="line2d_28">
    <path d="M 930.733854 284.670656 
L 930.733854 217.909547 
" clip-path="url(#pc0f16d4a47)" style="fill: none; stroke: #474747; stroke-width: 2.8125; stroke-linecap: square"/>
   </g>
   <g id="line2d_29">
    <path d="M 930.733854 249.498278 
" clip-path="url(#pc0f16d4a47)" style="fill: none; stroke: #474747; stroke-width: 1.5; stroke-linecap: square"/>
    <g clip-path="url(#pc0f16d4a47)">
     <use xlink:href="#m512f89431a" x="930.733854" y="249.498278" style="fill: #ffffff; stroke: #ffffff; stroke-width: 0.5625"/>
    </g>
   </g>
   <g id="line2d_30">
    <path d="M 1268.230521 340.658848 
L 1268.230521 145.189407 
" clip-path="url(#pc0f16d4a47)" style="fill: none; stroke: #474747; stroke-width: 0.9375; stroke-linecap: square"/>
   </g>
   <g id="line2d_31">
    <path d="M 1268.230521 266.915616 
L 1268.230521 212.789446 
" clip-path="url(#pc0f16d4a47)" style="fill: none; stroke: #474747; stroke-width: 2.8125; stroke-linecap: square"/>
   </g>
   <g id="line2d_32">
    <path d="M 1268.230521 237.231165 
" clip-path="url(#pc0f16d4a47)" style="fill: none; stroke: #474747; stroke-width: 1.5; stroke-linecap: square"/>
    <g clip-path="url(#pc0f16d4a47)">
     <use xlink:href="#m512f89431a" x="1268.230521" y="237.231165" style="fill: #ffffff; stroke: #ffffff; stroke-width: 0.5625"/>
    </g>
   </g>
   <g id="line2d_33">
    <path d="M 1605.727188 464.035843 
L 1605.727188 175.466696 
" clip-path="url(#pc0f16d4a47)" style="fill: none; stroke: #474747; stroke-width: 0.9375; stroke-linecap: square"/>
   </g>
   <g id="line2d_34">
    <path d="M 1605.727188 377.102898 
L 1605.727188 291.517892 
" clip-path="url(#pc0f16d4a47)" style="fill: none; stroke: #474747; stroke-width: 2.8125; stroke-linecap: square"/>
   </g>
   <g id="line2d_35">
    <path d="M 1605.727188 340.988199 
" clip-path="url(#pc0f16d4a47)" style="fill: none; stroke: #474747; stroke-width: 1.5; stroke-linecap: square"/>
    <g clip-path="url(#pc0f16d4a47)">
     <use xlink:href="#m512f89431a" x="1605.727188" y="340.988199" style="fill: #ffffff; stroke: #ffffff; stroke-width: 0.5625"/>
    </g>
   </g>
   <g id="line2d_36">
    <path d="M 1943.223854 313.951935 
L 1943.223854 100.44781 
" clip-path="url(#pc0f16d4a47)" style="fill: none; stroke: #474747; stroke-width: 0.9375; stroke-linecap: square"/>
   </g>
   <g id="line2d_37">
    <path d="M 1943.223854 244.048707 
L 1943.223854 184.024186 
" clip-path="url(#pc0f16d4a47)" style="fill: none; stroke: #474747; stroke-width: 2.8125; stroke-linecap: square"/>
   </g>
   <g id="line2d_38">
    <path d="M 1943.223854 216.812051 
" clip-path="url(#pc0f16d4a47)" style="fill: none; stroke: #474747; stroke-width: 1.5; stroke-linecap: square"/>
    <g clip-path="url(#pc0f16d4a47)">
     <use xlink:href="#m512f89431a" x="1943.223854" y="216.812051" style="fill: #ffffff; stroke: #ffffff; stroke-width: 0.5625"/>
    </g>
   </g>
   <g id="patch_3">
    <path d="M 86.992188 613.352 
L 86.992188 7.2 
" style="fill: none; stroke: #ffffff; stroke-linejoin: miter; stroke-linecap: square"/>
   </g>
   <g id="patch_4">
    <path d="M 2111.972188 613.352 
L 2111.972188 7.2 
" style="fill: none; stroke: #ffffff; stroke-linejoin: miter; stroke-linecap: square"/>
   </g>
   <g id="patch_5">
    <path d="M 86.992188 613.352 
L 2111.972188 613.352 
" style="fill: none; stroke: #ffffff; stroke-linejoin: miter; stroke-linecap: square"/>
   </g>
   <g id="patch_6">
    <path d="M 86.992188 7.2 
L 2111.972188 7.2 
" style="fill: none; stroke: #ffffff; stroke-linejoin: miter; stroke-linecap: square"/>
   </g>
  </g>
 </g>
 <defs>
  <clipPath id="pc0f16d4a47">
   <rect x="86.992188" y="7.2" width="2024.98" height="606.152"/>
  </clipPath>
 </defs>
</svg>
