<?xml version="1.0" encoding="utf-8" standalone="no"?>
<!DOCTYPE svg PUBLIC "-//W3C//DTD SVG 1.1//EN"
  "http://www.w3.org/Graphics/SVG/1.1/DTD/svg11.dtd">
<svg xmlns:xlink="http://www.w3.org/1999/xlink" width="2119.172188pt" height="679.741844pt" viewBox="0 0 2119.172188 679.741844" xmlns="http://www.w3.org/2000/svg" version="1.1">
 <metadata>
  <rdf:RDF xmlns:dc="http://purl.org/dc/elements/1.1/" xmlns:cc="http://creativecommons.org/ns#" xmlns:rdf="http://www.w3.org/1999/02/22-rdf-syntax-ns#">
   <cc:Work>
    <dc:type rdf:resource="http://purl.org/dc/dcmitype/StillImage"/>
    <dc:date>2025-08-28T11:23:07.602202</dc:date>
    <dc:format>image/svg+xml</dc:format>
    <dc:creator>
     <cc:Agent>
      <dc:title>Matplotlib v3.10.3, https://matplotlib.org/</dc:title>
     </cc:Agent>
    </dc:creator>
   </cc:Work>
  </rdf:RDF>
 </metadata>
 <defs>
  <style type="text/css">*{stroke-linejoin: round; stroke-linecap: butt}</style>
 </defs>
 <g id="figure_1">
  <g id="patch_1">
   <path d="M 0 679.741844 
L 2119.172188 679.741844 
L 2119.172188 0 
L 0 0 
z
" style="fill: #ffffff"/>
  </g>
  <g id="axes_1">
   <g id="patch_2">
    <path d="M 86.992188 613.352 
L 2111.972188 613.352 
L 2111.972188 7.2 
L 86.992188 7.2 
z
" style="fill: #e5e5e5"/>
   </g>
   <g id="matplotlib.axis_1">
    <g id="xtick_1">
     <g id="line2d_1">
      <defs>
       <path id="m7820f71951" d="M 0 0 
L 0 3.5 
" style="stroke: #555555; stroke-width: 0.8"/>
      </defs>
      <g>
       <use xlink:href="#m7820f71951" x="255.740521" y="613.352" style="fill: #555555; stroke: #555555; stroke-width: 0.8"/>
      </g>
     </g>
     <g id="text_1">
      <!-- Prop. Score Matching -->
      <g style="fill: #555555" transform="translate(123.586224 639.348094) scale(0.25 -0.25)">
       <defs>
        <path id="DejaVuSans-50" d="M 1259 4147 
L 1259 2394 
L 2053 2394 
Q 2494 2394 2734 2622 
Q 2975 2850 2975 3272 
Q 2975 3691 2734 3919 
Q 2494 4147 2053 4147 
L 1259 4147 
z
M 628 4666 
L 2053 4666 
Q 2838 4666 3239 4311 
Q 3641 3956 3641 3272 
Q 3641 2581 3239 2228 
Q 2838 1875 2053 1875 
L 1259 1875 
L 1259 0 
L 628 0 
L 628 4666 
z
" transform="scale(0.015625)"/>
        <path id="DejaVuSans-72" d="M 2631 2963 
Q 2534 3019 2420 3045 
Q 2306 3072 2169 3072 
Q 1681 3072 1420 2755 
Q 1159 2438 1159 1844 
L 1159 0 
L 581 0 
L 581 3500 
L 1159 3500 
L 1159 2956 
Q 1341 3275 1631 3429 
Q 1922 3584 2338 3584 
Q 2397 3584 2469 3576 
Q 2541 3569 2628 3553 
L 2631 2963 
z
" transform="scale(0.015625)"/>
        <path id="DejaVuSans-6f" d="M 1959 3097 
Q 1497 3097 1228 2736 
Q 959 2375 959 1747 
Q 959 1119 1226 758 
Q 1494 397 1959 397 
Q 2419 397 2687 759 
Q 2956 1122 2956 1747 
Q 2956 2369 2687 2733 
Q 2419 3097 1959 3097 
z
M 1959 3584 
Q 2709 3584 3137 3096 
Q 3566 2609 3566 1747 
Q 3566 888 3137 398 
Q 2709 -91 1959 -91 
Q 1206 -91 779 398 
Q 353 888 353 1747 
Q 353 2609 779 3096 
Q 1206 3584 1959 3584 
z
" transform="scale(0.015625)"/>
        <path id="DejaVuSans-70" d="M 1159 525 
L 1159 -1331 
L 581 -1331 
L 581 3500 
L 1159 3500 
L 1159 2969 
Q 1341 3281 1617 3432 
Q 1894 3584 2278 3584 
Q 2916 3584 3314 3078 
Q 3713 2572 3713 1747 
Q 3713 922 3314 415 
Q 2916 -91 2278 -91 
Q 1894 -91 1617 61 
Q 1341 213 1159 525 
z
M 3116 1747 
Q 3116 2381 2855 2742 
Q 2594 3103 2138 3103 
Q 1681 3103 1420 2742 
Q 1159 2381 1159 1747 
Q 1159 1113 1420 752 
Q 1681 391 2138 391 
Q 2594 391 2855 752 
Q 3116 1113 3116 1747 
z
" transform="scale(0.015625)"/>
        <path id="DejaVuSans-2e" d="M 684 794 
L 1344 794 
L 1344 0 
L 684 0 
L 684 794 
z
" transform="scale(0.015625)"/>
        <path id="DejaVuSans-20" transform="scale(0.015625)"/>
        <path id="DejaVuSans-53" d="M 3425 4513 
L 3425 3897 
Q 3066 4069 2747 4153 
Q 2428 4238 2131 4238 
Q 1616 4238 1336 4038 
Q 1056 3838 1056 3469 
Q 1056 3159 1242 3001 
Q 1428 2844 1947 2747 
L 2328 2669 
Q 3034 2534 3370 2195 
Q 3706 1856 3706 1288 
Q 3706 609 3251 259 
Q 2797 -91 1919 -91 
Q 1588 -91 1214 -16 
Q 841 59 441 206 
L 441 856 
Q 825 641 1194 531 
Q 1563 422 1919 422 
Q 2459 422 2753 634 
Q 3047 847 3047 1241 
Q 3047 1584 2836 1778 
Q 2625 1972 2144 2069 
L 1759 2144 
Q 1053 2284 737 2584 
Q 422 2884 422 3419 
Q 422 4038 858 4394 
Q 1294 4750 2059 4750 
Q 2388 4750 2728 4690 
Q 3069 4631 3425 4513 
z
" transform="scale(0.015625)"/>
        <path id="DejaVuSans-63" d="M 3122 3366 
L 3122 2828 
Q 2878 2963 2633 3030 
Q 2388 3097 2138 3097 
Q 1578 3097 1268 2742 
Q 959 2388 959 1747 
Q 959 1106 1268 751 
Q 1578 397 2138 397 
Q 2388 397 2633 464 
Q 2878 531 3122 666 
L 3122 134 
Q 2881 22 2623 -34 
Q 2366 -91 2075 -91 
Q 1284 -91 818 406 
Q 353 903 353 1747 
Q 353 2603 823 3093 
Q 1294 3584 2113 3584 
Q 2378 3584 2631 3529 
Q 2884 3475 3122 3366 
z
" transform="scale(0.015625)"/>
        <path id="DejaVuSans-65" d="M 3597 1894 
L 3597 1613 
L 953 1613 
Q 991 1019 1311 708 
Q 1631 397 2203 397 
Q 2534 397 2845 478 
Q 3156 559 3463 722 
L 3463 178 
Q 3153 47 2828 -22 
Q 2503 -91 2169 -91 
Q 1331 -91 842 396 
Q 353 884 353 1716 
Q 353 2575 817 3079 
Q 1281 3584 2069 3584 
Q 2775 3584 3186 3129 
Q 3597 2675 3597 1894 
z
M 3022 2063 
Q 3016 2534 2758 2815 
Q 2500 3097 2075 3097 
Q 1594 3097 1305 2825 
Q 1016 2553 972 2059 
L 3022 2063 
z
" transform="scale(0.015625)"/>
        <path id="DejaVuSans-4d" d="M 628 4666 
L 1569 4666 
L 2759 1491 
L 3956 4666 
L 4897 4666 
L 4897 0 
L 4281 0 
L 4281 4097 
L 3078 897 
L 2444 897 
L 1241 4097 
L 1241 0 
L 628 0 
L 628 4666 
z
" transform="scale(0.015625)"/>
        <path id="DejaVuSans-61" d="M 2194 1759 
Q 1497 1759 1228 1600 
Q 959 1441 959 1056 
Q 959 750 1161 570 
Q 1363 391 1709 391 
Q 2188 391 2477 730 
Q 2766 1069 2766 1631 
L 2766 1759 
L 2194 1759 
z
M 3341 1997 
L 3341 0 
L 2766 0 
L 2766 531 
Q 2569 213 2275 61 
Q 1981 -91 1556 -91 
Q 1019 -91 701 211 
Q 384 513 384 1019 
Q 384 1609 779 1909 
Q 1175 2209 1959 2209 
L 2766 2209 
L 2766 2266 
Q 2766 2663 2505 2880 
Q 2244 3097 1772 3097 
Q 1472 3097 1187 3025 
Q 903 2953 641 2809 
L 641 3341 
Q 956 3463 1253 3523 
Q 1550 3584 1831 3584 
Q 2591 3584 2966 3190 
Q 3341 2797 3341 1997 
z
" transform="scale(0.015625)"/>
        <path id="DejaVuSans-74" d="M 1172 4494 
L 1172 3500 
L 2356 3500 
L 2356 3053 
L 1172 3053 
L 1172 1153 
Q 1172 725 1289 603 
Q 1406 481 1766 481 
L 2356 481 
L 2356 0 
L 1766 0 
Q 1100 0 847 248 
Q 594 497 594 1153 
L 594 3053 
L 172 3053 
L 172 3500 
L 594 3500 
L 594 4494 
L 1172 4494 
z
" transform="scale(0.015625)"/>
        <path id="DejaVuSans-68" d="M 3513 2113 
L 3513 0 
L 2938 0 
L 2938 2094 
Q 2938 2591 2744 2837 
Q 2550 3084 2163 3084 
Q 1697 3084 1428 2787 
Q 1159 2491 1159 1978 
L 1159 0 
L 581 0 
L 581 4863 
L 1159 4863 
L 1159 2956 
Q 1366 3272 1645 3428 
Q 1925 3584 2291 3584 
Q 2894 3584 3203 3211 
Q 3513 2838 3513 2113 
z
" transform="scale(0.015625)"/>
        <path id="DejaVuSans-69" d="M 603 3500 
L 1178 3500 
L 1178 0 
L 603 0 
L 603 3500 
z
M 603 4863 
L 1178 4863 
L 1178 4134 
L 603 4134 
L 603 4863 
z
" transform="scale(0.015625)"/>
        <path id="DejaVuSans-6e" d="M 3513 2113 
L 3513 0 
L 2938 0 
L 2938 2094 
Q 2938 2591 2744 2837 
Q 2550 3084 2163 3084 
Q 1697 3084 1428 2787 
Q 1159 2491 1159 1978 
L 1159 0 
L 581 0 
L 581 3500 
L 1159 3500 
L 1159 2956 
Q 1366 3272 1645 3428 
Q 1925 3584 2291 3584 
Q 2894 3584 3203 3211 
Q 3513 2838 3513 2113 
z
" transform="scale(0.015625)"/>
        <path id="DejaVuSans-67" d="M 2906 1791 
Q 2906 2416 2648 2759 
Q 2391 3103 1925 3103 
Q 1463 3103 1205 2759 
Q 947 2416 947 1791 
Q 947 1169 1205 825 
Q 1463 481 1925 481 
Q 2391 481 2648 825 
Q 2906 1169 2906 1791 
z
M 3481 434 
Q 3481 -459 3084 -895 
Q 2688 -1331 1869 -1331 
Q 1566 -1331 1297 -1286 
Q 1028 -1241 775 -1147 
L 775 -588 
Q 1028 -725 1275 -790 
Q 1522 -856 1778 -856 
Q 2344 -856 2625 -561 
Q 2906 -266 2906 331 
L 2906 616 
Q 2728 306 2450 153 
Q 2172 0 1784 0 
Q 1141 0 747 490 
Q 353 981 353 1791 
Q 353 2603 747 3093 
Q 1141 3584 1784 3584 
Q 2172 3584 2450 3431 
Q 2728 3278 2906 2969 
L 2906 3500 
L 3481 3500 
L 3481 434 
z
" transform="scale(0.015625)"/>
       </defs>
       <use xlink:href="#DejaVuSans-50"/>
       <use xlink:href="#DejaVuSans-72" transform="translate(58.552734 0)"/>
       <use xlink:href="#DejaVuSans-6f" transform="translate(97.416016 0)"/>
       <use xlink:href="#DejaVuSans-70" transform="translate(158.597656 0)"/>
       <use xlink:href="#DejaVuSans-2e" transform="translate(222.074219 0)"/>
       <use xlink:href="#DejaVuSans-20" transform="translate(253.861328 0)"/>
       <use xlink:href="#DejaVuSans-53" transform="translate(285.648438 0)"/>
       <use xlink:href="#DejaVuSans-63" transform="translate(349.125 0)"/>
       <use xlink:href="#DejaVuSans-6f" transform="translate(404.105469 0)"/>
       <use xlink:href="#DejaVuSans-72" transform="translate(465.287109 0)"/>
       <use xlink:href="#DejaVuSans-65" transform="translate(504.150391 0)"/>
       <use xlink:href="#DejaVuSans-20" transform="translate(565.673828 0)"/>
       <use xlink:href="#DejaVuSans-4d" transform="translate(597.460938 0)"/>
       <use xlink:href="#DejaVuSans-61" transform="translate(683.740234 0)"/>
       <use xlink:href="#DejaVuSans-74" transform="translate(745.019531 0)"/>
       <use xlink:href="#DejaVuSans-63" transform="translate(784.228516 0)"/>
       <use xlink:href="#DejaVuSans-68" transform="translate(839.208984 0)"/>
       <use xlink:href="#DejaVuSans-69" transform="translate(902.587891 0)"/>
       <use xlink:href="#DejaVuSans-6e" transform="translate(930.371094 0)"/>
       <use xlink:href="#DejaVuSans-67" transform="translate(993.75 0)"/>
      </g>
     </g>
    </g>
    <g id="xtick_2">
     <g id="line2d_2">
      <g>
       <use xlink:href="#m7820f71951" x="593.237188" y="613.352" style="fill: #555555; stroke: #555555; stroke-width: 0.8"/>
      </g>
     </g>
     <g id="text_2">
      <!-- Prop. Score Weighting -->
      <g style="fill: #555555" transform="translate(455.676641 639.348094) scale(0.25 -0.25)">
       <defs>
        <path id="DejaVuSans-57" d="M 213 4666 
L 850 4666 
L 1831 722 
L 2809 4666 
L 3519 4666 
L 4500 722 
L 5478 4666 
L 6119 4666 
L 4947 0 
L 4153 0 
L 3169 4050 
L 2175 0 
L 1381 0 
L 213 4666 
z
" transform="scale(0.015625)"/>
       </defs>
       <use xlink:href="#DejaVuSans-50"/>
       <use xlink:href="#DejaVuSans-72" transform="translate(58.552734 0)"/>
       <use xlink:href="#DejaVuSans-6f" transform="translate(97.416016 0)"/>
       <use xlink:href="#DejaVuSans-70" transform="translate(158.597656 0)"/>
       <use xlink:href="#DejaVuSans-2e" transform="translate(222.074219 0)"/>
       <use xlink:href="#DejaVuSans-20" transform="translate(253.861328 0)"/>
       <use xlink:href="#DejaVuSans-53" transform="translate(285.648438 0)"/>
       <use xlink:href="#DejaVuSans-63" transform="translate(349.125 0)"/>
       <use xlink:href="#DejaVuSans-6f" transform="translate(404.105469 0)"/>
       <use xlink:href="#DejaVuSans-72" transform="translate(465.287109 0)"/>
       <use xlink:href="#DejaVuSans-65" transform="translate(504.150391 0)"/>
       <use xlink:href="#DejaVuSans-20" transform="translate(565.673828 0)"/>
       <use xlink:href="#DejaVuSans-57" transform="translate(597.460938 0)"/>
       <use xlink:href="#DejaVuSans-65" transform="translate(690.462891 0)"/>
       <use xlink:href="#DejaVuSans-69" transform="translate(751.986328 0)"/>
       <use xlink:href="#DejaVuSans-67" transform="translate(779.769531 0)"/>
       <use xlink:href="#DejaVuSans-68" transform="translate(843.246094 0)"/>
       <use xlink:href="#DejaVuSans-74" transform="translate(906.625 0)"/>
       <use xlink:href="#DejaVuSans-69" transform="translate(945.833984 0)"/>
       <use xlink:href="#DejaVuSans-6e" transform="translate(973.617188 0)"/>
       <use xlink:href="#DejaVuSans-67" transform="translate(1036.996094 0)"/>
      </g>
     </g>
    </g>
    <g id="xtick_3">
     <g id="line2d_3">
      <g>
       <use xlink:href="#m7820f71951" x="930.733854" y="613.352" style="fill: #555555; stroke: #555555; stroke-width: 0.8"/>
      </g>
     </g>
     <g id="text_3">
      <!-- Prop. Score Stratification -->
      <g style="fill: #555555" transform="translate(775.692839 639.348094) scale(0.25 -0.25)">
       <defs>
        <path id="DejaVuSans-66" d="M 2375 4863 
L 2375 4384 
L 1825 4384 
Q 1516 4384 1395 4259 
Q 1275 4134 1275 3809 
L 1275 3500 
L 2222 3500 
L 2222 3053 
L 1275 3053 
L 1275 0 
L 697 0 
L 697 3053 
L 147 3053 
L 147 3500 
L 697 3500 
L 697 3744 
Q 697 4328 969 4595 
Q 1241 4863 1831 4863 
L 2375 4863 
z
" transform="scale(0.015625)"/>
       </defs>
       <use xlink:href="#DejaVuSans-50"/>
       <use xlink:href="#DejaVuSans-72" transform="translate(58.552734 0)"/>
       <use xlink:href="#DejaVuSans-6f" transform="translate(97.416016 0)"/>
       <use xlink:href="#DejaVuSans-70" transform="translate(158.597656 0)"/>
       <use xlink:href="#DejaVuSans-2e" transform="translate(222.074219 0)"/>
       <use xlink:href="#DejaVuSans-20" transform="translate(253.861328 0)"/>
       <use xlink:href="#DejaVuSans-53" transform="translate(285.648438 0)"/>
       <use xlink:href="#DejaVuSans-63" transform="translate(349.125 0)"/>
       <use xlink:href="#DejaVuSans-6f" transform="translate(404.105469 0)"/>
       <use xlink:href="#DejaVuSans-72" transform="translate(465.287109 0)"/>
       <use xlink:href="#DejaVuSans-65" transform="translate(504.150391 0)"/>
       <use xlink:href="#DejaVuSans-20" transform="translate(565.673828 0)"/>
       <use xlink:href="#DejaVuSans-53" transform="translate(597.460938 0)"/>
       <use xlink:href="#DejaVuSans-74" transform="translate(660.9375 0)"/>
       <use xlink:href="#DejaVuSans-72" transform="translate(700.146484 0)"/>
       <use xlink:href="#DejaVuSans-61" transform="translate(741.259766 0)"/>
       <use xlink:href="#DejaVuSans-74" transform="translate(802.539062 0)"/>
       <use xlink:href="#DejaVuSans-69" transform="translate(841.748047 0)"/>
       <use xlink:href="#DejaVuSans-66" transform="translate(869.53125 0)"/>
       <use xlink:href="#DejaVuSans-69" transform="translate(904.736328 0)"/>
       <use xlink:href="#DejaVuSans-63" transform="translate(932.519531 0)"/>
       <use xlink:href="#DejaVuSans-61" transform="translate(987.5 0)"/>
       <use xlink:href="#DejaVuSans-74" transform="translate(1048.779297 0)"/>
       <use xlink:href="#DejaVuSans-69" transform="translate(1087.988281 0)"/>
       <use xlink:href="#DejaVuSans-6f" transform="translate(1115.771484 0)"/>
       <use xlink:href="#DejaVuSans-6e" transform="translate(1176.953125 0)"/>
      </g>
     </g>
    </g>
    <g id="xtick_4">
     <g id="line2d_4">
      <g>
       <use xlink:href="#m7820f71951" x="1268.230521" y="613.352" style="fill: #555555; stroke: #555555; stroke-width: 0.8"/>
      </g>
     </g>
     <g id="text_4">
      <!-- S-Learner -->
      <g style="fill: #555555" transform="translate(1208.015677 639.348094) scale(0.25 -0.25)">
       <defs>
        <path id="DejaVuSans-2d" d="M 313 2009 
L 1997 2009 
L 1997 1497 
L 313 1497 
L 313 2009 
z
" transform="scale(0.015625)"/>
        <path id="DejaVuSans-4c" d="M 628 4666 
L 1259 4666 
L 1259 531 
L 3531 531 
L 3531 0 
L 628 0 
L 628 4666 
z
" transform="scale(0.015625)"/>
       </defs>
       <use xlink:href="#DejaVuSans-53"/>
       <use xlink:href="#DejaVuSans-2d" transform="translate(63.476562 0)"/>
       <use xlink:href="#DejaVuSans-4c" transform="translate(99.560547 0)"/>
       <use xlink:href="#DejaVuSans-65" transform="translate(153.523438 0)"/>
       <use xlink:href="#DejaVuSans-61" transform="translate(215.046875 0)"/>
       <use xlink:href="#DejaVuSans-72" transform="translate(276.326172 0)"/>
       <use xlink:href="#DejaVuSans-6e" transform="translate(315.689453 0)"/>
       <use xlink:href="#DejaVuSans-65" transform="translate(379.068359 0)"/>
       <use xlink:href="#DejaVuSans-72" transform="translate(440.591797 0)"/>
      </g>
     </g>
    </g>
    <g id="xtick_5">
     <g id="line2d_5">
      <g>
       <use xlink:href="#m7820f71951" x="1605.727188" y="613.352" style="fill: #555555; stroke: #555555; stroke-width: 0.8"/>
      </g>
     </g>
     <g id="text_5">
      <!-- Distance Matching -->
      <g style="fill: #555555" transform="translate(1489.627578 639.348094) scale(0.25 -0.25)">
       <defs>
        <path id="DejaVuSans-44" d="M 1259 4147 
L 1259 519 
L 2022 519 
Q 2988 519 3436 956 
Q 3884 1394 3884 2338 
Q 3884 3275 3436 3711 
Q 2988 4147 2022 4147 
L 1259 4147 
z
M 628 4666 
L 1925 4666 
Q 3281 4666 3915 4102 
Q 4550 3538 4550 2338 
Q 4550 1131 3912 565 
Q 3275 0 1925 0 
L 628 0 
L 628 4666 
z
" transform="scale(0.015625)"/>
        <path id="DejaVuSans-73" d="M 2834 3397 
L 2834 2853 
Q 2591 2978 2328 3040 
Q 2066 3103 1784 3103 
Q 1356 3103 1142 2972 
Q 928 2841 928 2578 
Q 928 2378 1081 2264 
Q 1234 2150 1697 2047 
L 1894 2003 
Q 2506 1872 2764 1633 
Q 3022 1394 3022 966 
Q 3022 478 2636 193 
Q 2250 -91 1575 -91 
Q 1294 -91 989 -36 
Q 684 19 347 128 
L 347 722 
Q 666 556 975 473 
Q 1284 391 1588 391 
Q 1994 391 2212 530 
Q 2431 669 2431 922 
Q 2431 1156 2273 1281 
Q 2116 1406 1581 1522 
L 1381 1569 
Q 847 1681 609 1914 
Q 372 2147 372 2553 
Q 372 3047 722 3315 
Q 1072 3584 1716 3584 
Q 2034 3584 2315 3537 
Q 2597 3491 2834 3397 
z
" transform="scale(0.015625)"/>
       </defs>
       <use xlink:href="#DejaVuSans-44"/>
       <use xlink:href="#DejaVuSans-69" transform="translate(77.001953 0)"/>
       <use xlink:href="#DejaVuSans-73" transform="translate(104.785156 0)"/>
       <use xlink:href="#DejaVuSans-74" transform="translate(156.884766 0)"/>
       <use xlink:href="#DejaVuSans-61" transform="translate(196.09375 0)"/>
       <use xlink:href="#DejaVuSans-6e" transform="translate(257.373047 0)"/>
       <use xlink:href="#DejaVuSans-63" transform="translate(320.751953 0)"/>
       <use xlink:href="#DejaVuSans-65" transform="translate(375.732422 0)"/>
       <use xlink:href="#DejaVuSans-20" transform="translate(437.255859 0)"/>
       <use xlink:href="#DejaVuSans-4d" transform="translate(469.042969 0)"/>
       <use xlink:href="#DejaVuSans-61" transform="translate(555.322266 0)"/>
       <use xlink:href="#DejaVuSans-74" transform="translate(616.601562 0)"/>
       <use xlink:href="#DejaVuSans-63" transform="translate(655.810547 0)"/>
       <use xlink:href="#DejaVuSans-68" transform="translate(710.791016 0)"/>
       <use xlink:href="#DejaVuSans-69" transform="translate(774.169922 0)"/>
       <use xlink:href="#DejaVuSans-6e" transform="translate(801.953125 0)"/>
       <use xlink:href="#DejaVuSans-67" transform="translate(865.332031 0)"/>
      </g>
      <!-- (Gower's Distance) -->
      <g style="fill: #555555" transform="translate(1487.010391 667.342625) scale(0.25 -0.25)">
       <defs>
        <path id="DejaVuSans-28" d="M 1984 4856 
Q 1566 4138 1362 3434 
Q 1159 2731 1159 2009 
Q 1159 1288 1364 580 
Q 1569 -128 1984 -844 
L 1484 -844 
Q 1016 -109 783 600 
Q 550 1309 550 2009 
Q 550 2706 781 3412 
Q 1013 4119 1484 4856 
L 1984 4856 
z
" transform="scale(0.015625)"/>
        <path id="DejaVuSans-47" d="M 3809 666 
L 3809 1919 
L 2778 1919 
L 2778 2438 
L 4434 2438 
L 4434 434 
Q 4069 175 3628 42 
Q 3188 -91 2688 -91 
Q 1594 -91 976 548 
Q 359 1188 359 2328 
Q 359 3472 976 4111 
Q 1594 4750 2688 4750 
Q 3144 4750 3555 4637 
Q 3966 4525 4313 4306 
L 4313 3634 
Q 3963 3931 3569 4081 
Q 3175 4231 2741 4231 
Q 1884 4231 1454 3753 
Q 1025 3275 1025 2328 
Q 1025 1384 1454 906 
Q 1884 428 2741 428 
Q 3075 428 3337 486 
Q 3600 544 3809 666 
z
" transform="scale(0.015625)"/>
        <path id="DejaVuSans-77" d="M 269 3500 
L 844 3500 
L 1563 769 
L 2278 3500 
L 2956 3500 
L 3675 769 
L 4391 3500 
L 4966 3500 
L 4050 0 
L 3372 0 
L 2619 2869 
L 1863 0 
L 1184 0 
L 269 3500 
z
" transform="scale(0.015625)"/>
        <path id="DejaVuSans-27" d="M 1147 4666 
L 1147 2931 
L 616 2931 
L 616 4666 
L 1147 4666 
z
" transform="scale(0.015625)"/>
        <path id="DejaVuSans-29" d="M 513 4856 
L 1013 4856 
Q 1481 4119 1714 3412 
Q 1947 2706 1947 2009 
Q 1947 1309 1714 600 
Q 1481 -109 1013 -844 
L 513 -844 
Q 928 -128 1133 580 
Q 1338 1288 1338 2009 
Q 1338 2731 1133 3434 
Q 928 4138 513 4856 
z
" transform="scale(0.015625)"/>
       </defs>
       <use xlink:href="#DejaVuSans-28"/>
       <use xlink:href="#DejaVuSans-47" transform="translate(39.013672 0)"/>
       <use xlink:href="#DejaVuSans-6f" transform="translate(116.503906 0)"/>
       <use xlink:href="#DejaVuSans-77" transform="translate(177.685547 0)"/>
       <use xlink:href="#DejaVuSans-65" transform="translate(259.472656 0)"/>
       <use xlink:href="#DejaVuSans-72" transform="translate(320.996094 0)"/>
       <use xlink:href="#DejaVuSans-27" transform="translate(362.109375 0)"/>
       <use xlink:href="#DejaVuSans-73" transform="translate(389.599609 0)"/>
       <use xlink:href="#DejaVuSans-20" transform="translate(441.699219 0)"/>
       <use xlink:href="#DejaVuSans-44" transform="translate(473.486328 0)"/>
       <use xlink:href="#DejaVuSans-69" transform="translate(550.488281 0)"/>
       <use xlink:href="#DejaVuSans-73" transform="translate(578.271484 0)"/>
       <use xlink:href="#DejaVuSans-74" transform="translate(630.371094 0)"/>
       <use xlink:href="#DejaVuSans-61" transform="translate(669.580078 0)"/>
       <use xlink:href="#DejaVuSans-6e" transform="translate(730.859375 0)"/>
       <use xlink:href="#DejaVuSans-63" transform="translate(794.238281 0)"/>
       <use xlink:href="#DejaVuSans-65" transform="translate(849.21875 0)"/>
       <use xlink:href="#DejaVuSans-29" transform="translate(910.742188 0)"/>
      </g>
     </g>
    </g>
    <g id="xtick_6">
     <g id="line2d_6">
      <g>
       <use xlink:href="#m7820f71951" x="1943.223854" y="613.352" style="fill: #555555; stroke: #555555; stroke-width: 0.8"/>
      </g>
     </g>
     <g id="text_6">
      <!-- T-Learner -->
      <g style="fill: #555555" transform="translate(1884.450417 639.348094) scale(0.25 -0.25)">
       <defs>
        <path id="DejaVuSans-54" d="M -19 4666 
L 3928 4666 
L 3928 4134 
L 2272 4134 
L 2272 0 
L 1638 0 
L 1638 4134 
L -19 4134 
L -19 4666 
z
" transform="scale(0.015625)"/>
       </defs>
       <use xlink:href="#DejaVuSans-54"/>
       <use xlink:href="#DejaVuSans-2d" transform="translate(51.958984 0)"/>
       <use xlink:href="#DejaVuSans-4c" transform="translate(88.042969 0)"/>
       <use xlink:href="#DejaVuSans-65" transform="translate(142.005859 0)"/>
       <use xlink:href="#DejaVuSans-61" transform="translate(203.529297 0)"/>
       <use xlink:href="#DejaVuSans-72" transform="translate(264.808594 0)"/>
       <use xlink:href="#DejaVuSans-6e" transform="translate(304.171875 0)"/>
       <use xlink:href="#DejaVuSans-65" transform="translate(367.550781 0)"/>
       <use xlink:href="#DejaVuSans-72" transform="translate(429.074219 0)"/>
      </g>
     </g>
    </g>
   </g>
   <g id="matplotlib.axis_2">
    <g id="ytick_1">
     <g id="line2d_7">
      <path d="M 86.992188 542.124497 
L 2111.972188 542.124497 
" clip-path="url(#p592a3cf047)" style="fill: none; stroke: #ffffff; stroke-width: 0.8; stroke-linecap: square"/>
     </g>
     <g id="line2d_8">
      <defs>
       <path id="m1865ee453e" d="M 0 0 
L -3.5 0 
" style="stroke: #555555; stroke-width: 0.8"/>
      </defs>
      <g>
       <use xlink:href="#m1865ee453e" x="86.992188" y="542.124497" style="fill: #555555; stroke: #555555; stroke-width: 0.8"/>
      </g>
     </g>
     <g id="text_7">
      <!-- 5.5 -->
      <g style="fill: #555555" transform="translate(40.234375 551.622544) scale(0.25 -0.25)">
       <defs>
        <path id="DejaVuSans-35" d="M 691 4666 
L 3169 4666 
L 3169 4134 
L 1269 4134 
L 1269 2991 
Q 1406 3038 1543 3061 
Q 1681 3084 1819 3084 
Q 2600 3084 3056 2656 
Q 3513 2228 3513 1497 
Q 3513 744 3044 326 
Q 2575 -91 1722 -91 
Q 1428 -91 1123 -41 
Q 819 9 494 109 
L 494 744 
Q 775 591 1075 516 
Q 1375 441 1709 441 
Q 2250 441 2565 725 
Q 2881 1009 2881 1497 
Q 2881 1984 2565 2268 
Q 2250 2553 1709 2553 
Q 1456 2553 1204 2497 
Q 953 2441 691 2322 
L 691 4666 
z
" transform="scale(0.015625)"/>
       </defs>
       <use xlink:href="#DejaVuSans-35"/>
       <use xlink:href="#DejaVuSans-2e" transform="translate(63.623047 0)"/>
       <use xlink:href="#DejaVuSans-35" transform="translate(95.410156 0)"/>
      </g>
     </g>
    </g>
    <g id="ytick_2">
     <g id="line2d_9">
      <path d="M 86.992188 434.39579 
L 2111.972188 434.39579 
" clip-path="url(#p592a3cf047)" style="fill: none; stroke: #ffffff; stroke-width: 0.8; stroke-linecap: square"/>
     </g>
     <g id="line2d_10">
      <g>
       <use xlink:href="#m1865ee453e" x="86.992188" y="434.39579" style="fill: #555555; stroke: #555555; stroke-width: 0.8"/>
      </g>
     </g>
     <g id="text_8">
      <!-- 6.0 -->
      <g style="fill: #555555" transform="translate(40.234375 443.893836) scale(0.25 -0.25)">
       <defs>
        <path id="DejaVuSans-36" d="M 2113 2584 
Q 1688 2584 1439 2293 
Q 1191 2003 1191 1497 
Q 1191 994 1439 701 
Q 1688 409 2113 409 
Q 2538 409 2786 701 
Q 3034 994 3034 1497 
Q 3034 2003 2786 2293 
Q 2538 2584 2113 2584 
z
M 3366 4563 
L 3366 3988 
Q 3128 4100 2886 4159 
Q 2644 4219 2406 4219 
Q 1781 4219 1451 3797 
Q 1122 3375 1075 2522 
Q 1259 2794 1537 2939 
Q 1816 3084 2150 3084 
Q 2853 3084 3261 2657 
Q 3669 2231 3669 1497 
Q 3669 778 3244 343 
Q 2819 -91 2113 -91 
Q 1303 -91 875 529 
Q 447 1150 447 2328 
Q 447 3434 972 4092 
Q 1497 4750 2381 4750 
Q 2619 4750 2861 4703 
Q 3103 4656 3366 4563 
z
" transform="scale(0.015625)"/>
        <path id="DejaVuSans-30" d="M 2034 4250 
Q 1547 4250 1301 3770 
Q 1056 3291 1056 2328 
Q 1056 1369 1301 889 
Q 1547 409 2034 409 
Q 2525 409 2770 889 
Q 3016 1369 3016 2328 
Q 3016 3291 2770 3770 
Q 2525 4250 2034 4250 
z
M 2034 4750 
Q 2819 4750 3233 4129 
Q 3647 3509 3647 2328 
Q 3647 1150 3233 529 
Q 2819 -91 2034 -91 
Q 1250 -91 836 529 
Q 422 1150 422 2328 
Q 422 3509 836 4129 
Q 1250 4750 2034 4750 
z
" transform="scale(0.015625)"/>
       </defs>
       <use xlink:href="#DejaVuSans-36"/>
       <use xlink:href="#DejaVuSans-2e" transform="translate(63.623047 0)"/>
       <use xlink:href="#DejaVuSans-30" transform="translate(95.410156 0)"/>
      </g>
     </g>
    </g>
    <g id="ytick_3">
     <g id="line2d_11">
      <path d="M 86.992188 326.667082 
L 2111.972188 326.667082 
" clip-path="url(#p592a3cf047)" style="fill: none; stroke: #ffffff; stroke-width: 0.8; stroke-linecap: square"/>
     </g>
     <g id="line2d_12">
      <g>
       <use xlink:href="#m1865ee453e" x="86.992188" y="326.667082" style="fill: #555555; stroke: #555555; stroke-width: 0.8"/>
      </g>
     </g>
     <g id="text_9">
      <!-- 6.5 -->
      <g style="fill: #555555" transform="translate(40.234375 336.165129) scale(0.25 -0.25)">
       <use xlink:href="#DejaVuSans-36"/>
       <use xlink:href="#DejaVuSans-2e" transform="translate(63.623047 0)"/>
       <use xlink:href="#DejaVuSans-35" transform="translate(95.410156 0)"/>
      </g>
     </g>
    </g>
    <g id="ytick_4">
     <g id="line2d_13">
      <path d="M 86.992188 218.938374 
L 2111.972188 218.938374 
" clip-path="url(#p592a3cf047)" style="fill: none; stroke: #ffffff; stroke-width: 0.8; stroke-linecap: square"/>
     </g>
     <g id="line2d_14">
      <g>
       <use xlink:href="#m1865ee453e" x="86.992188" y="218.938374" style="fill: #555555; stroke: #555555; stroke-width: 0.8"/>
      </g>
     </g>
     <g id="text_10">
      <!-- 7.0 -->
      <g style="fill: #555555" transform="translate(40.234375 228.436421) scale(0.25 -0.25)">
       <defs>
        <path id="DejaVuSans-37" d="M 525 4666 
L 3525 4666 
L 3525 4397 
L 1831 0 
L 1172 0 
L 2766 4134 
L 525 4134 
L 525 4666 
z
" transform="scale(0.015625)"/>
       </defs>
       <use xlink:href="#DejaVuSans-37"/>
       <use xlink:href="#DejaVuSans-2e" transform="translate(63.623047 0)"/>
       <use xlink:href="#DejaVuSans-30" transform="translate(95.410156 0)"/>
      </g>
     </g>
    </g>
    <g id="ytick_5">
     <g id="line2d_15">
      <path d="M 86.992188 111.209666 
L 2111.972188 111.209666 
" clip-path="url(#p592a3cf047)" style="fill: none; stroke: #ffffff; stroke-width: 0.8; stroke-linecap: square"/>
     </g>
     <g id="line2d_16">
      <g>
       <use xlink:href="#m1865ee453e" x="86.992188" y="111.209666" style="fill: #555555; stroke: #555555; stroke-width: 0.8"/>
      </g>
     </g>
     <g id="text_11">
      <!-- 7.5 -->
      <g style="fill: #555555" transform="translate(40.234375 120.707713) scale(0.25 -0.25)">
       <use xlink:href="#DejaVuSans-37"/>
       <use xlink:href="#DejaVuSans-2e" transform="translate(63.623047 0)"/>
       <use xlink:href="#DejaVuSans-35" transform="translate(95.410156 0)"/>
      </g>
     </g>
    </g>
    <g id="text_12">
     <!-- ATE -->
     <g style="fill: #555555" transform="translate(29.995313 338.014281) rotate(-90) scale(0.3 -0.3)">
      <defs>
       <path id="DejaVuSans-41" d="M 2188 4044 
L 1331 1722 
L 3047 1722 
L 2188 4044 
z
M 1831 4666 
L 2547 4666 
L 4325 0 
L 3669 0 
L 3244 1197 
L 1141 1197 
L 716 0 
L 50 0 
L 1831 4666 
z
" transform="scale(0.015625)"/>
       <path id="DejaVuSans-45" d="M 628 4666 
L 3578 4666 
L 3578 4134 
L 1259 4134 
L 1259 2753 
L 3481 2753 
L 3481 2222 
L 1259 2222 
L 1259 531 
L 3634 531 
L 3634 0 
L 628 0 
L 628 4666 
z
" transform="scale(0.015625)"/>
      </defs>
      <use xlink:href="#DejaVuSans-41"/>
      <use xlink:href="#DejaVuSans-54" transform="translate(60.658203 0)"/>
      <use xlink:href="#DejaVuSans-45" transform="translate(121.742188 0)"/>
     </g>
    </g>
   </g>
   <g id="FillBetweenPolyCollection_1">
    <defs>
     <path id="m14aac4b7db" d="M 256.554502 -158.529293 
L 254.92654 -158.529293 
L 254.597078 -162.565755 
L 254.170617 -166.602216 
L 253.633269 -170.638678 
L 252.974192 -174.675139 
L 252.187175 -178.711601 
L 251.27188 -182.748062 
L 250.23442 -186.784524 
L 249.086949 -190.820985 
L 247.846121 -194.857447 
L 246.530445 -198.893908 
L 245.156846 -202.93037 
L 243.736981 -206.966832 
L 242.274066 -211.003293 
L 240.760979 -215.039755 
L 239.180293 -219.076216 
L 237.506546 -223.112678 
L 235.710587 -227.149139 
L 233.76531 -231.185601 
L 231.651643 -235.222062 
L 229.363428 -239.258524 
L 226.909861 -243.294985 
L 224.31455 -247.331447 
L 221.610911 -251.367908 
L 218.834403 -255.40437 
L 216.012896 -259.440832 
L 213.157035 -263.477293 
L 210.25267 -267.513755 
L 207.257211 -271.550216 
L 204.101192 -275.586678 
L 200.69537 -279.623139 
L 196.942735 -283.659601 
L 192.753812 -287.696062 
L 188.062986 -291.732524 
L 182.843263 -295.768985 
L 177.11699 -299.805447 
L 170.960651 -303.841909 
L 164.502676 -307.87837 
L 157.914326 -311.914832 
L 151.394765 -315.951293 
L 145.152399 -319.987755 
L 139.385131 -324.024216 
L 134.262347 -328.060678 
L 129.911121 -332.097139 
L 126.408316 -336.133601 
L 123.779239 -340.170062 
L 122.002307 -344.206524 
L 121.018265 -348.242985 
L 120.741854 -352.279447 
L 121.073762 -356.315909 
L 121.911049 -360.35237 
L 123.155011 -364.388832 
L 124.716304 -368.425293 
L 126.517902 -372.461755 
L 128.496853 -376.498216 
L 130.605818 -380.534678 
L 132.814908 -384.571139 
L 135.11373 -388.607601 
L 137.512913 -392.644062 
L 140.043999 -396.680524 
L 142.756633 -400.716985 
L 145.712439 -404.753447 
L 148.975757 -408.789909 
L 152.602311 -412.82637 
L 156.627586 -416.862832 
L 161.057038 -420.899293 
L 165.860124 -424.935755 
L 170.96947 -428.972216 
L 176.285591 -433.008678 
L 181.686463 -437.045139 
L 187.040418 -441.081601 
L 192.220214 -445.118062 
L 197.116089 -449.154524 
L 201.645911 -453.190985 
L 205.761193 -457.227447 
L 209.448562 -461.263909 
L 212.727005 -465.30037 
L 215.641834 -469.336832 
L 218.256587 -473.373293 
L 220.644174 -477.409755 
L 222.878388 -481.446216 
L 225.026612 -485.482678 
L 227.144237 -489.519139 
L 229.271016 -493.555601 
L 231.429338 -497.592062 
L 233.624279 -501.628524 
L 235.845203 -505.664985 
L 238.068586 -509.701447 
L 240.261733 -513.737909 
L 242.38698 -517.77437 
L 244.405969 -521.810832 
L 246.283564 -525.847293 
L 247.991056 -529.883755 
L 249.508368 -533.920216 
L 250.825129 -537.956678 
L 251.940638 -541.993139 
L 252.862854 -546.029601 
L 253.606689 -550.066062 
L 254.191909 -554.102524 
L 254.640956 -558.138985 
L 256.840086 -558.138985 
L 256.840086 -558.138985 
L 257.289132 -554.102524 
L 257.874352 -550.066062 
L 258.618187 -546.029601 
L 259.540403 -541.993139 
L 260.655912 -537.956678 
L 261.972674 -533.920216 
L 263.489985 -529.883755 
L 265.197478 -525.847293 
L 267.075073 -521.810832 
L 269.094061 -517.77437 
L 271.219309 -513.737909 
L 273.412455 -509.701447 
L 275.635839 -505.664985 
L 277.856763 -501.628524 
L 280.051704 -497.592062 
L 282.210025 -493.555601 
L 284.336805 -489.519139 
L 286.45443 -485.482678 
L 288.602654 -481.446216 
L 290.836868 -477.409755 
L 293.224455 -473.373293 
L 295.839208 -469.336832 
L 298.754036 -465.30037 
L 302.03248 -461.263909 
L 305.719848 -457.227447 
L 309.835131 -453.190985 
L 314.364953 -449.154524 
L 319.260828 -445.118062 
L 324.440624 -441.081601 
L 329.794579 -437.045139 
L 335.195451 -433.008678 
L 340.511571 -428.972216 
L 345.620918 -424.935755 
L 350.424004 -420.899293 
L 354.853456 -416.862832 
L 358.878731 -412.82637 
L 362.505285 -408.789909 
L 365.768603 -404.753447 
L 368.724409 -400.716985 
L 371.437043 -396.680524 
L 373.968129 -392.644062 
L 376.367312 -388.607601 
L 378.666134 -384.571139 
L 380.875223 -380.534678 
L 382.984188 -376.498216 
L 384.96314 -372.461755 
L 386.764737 -368.425293 
L 388.326031 -364.388832 
L 389.569993 -360.35237 
L 390.407279 -356.315909 
L 390.739188 -352.279447 
L 390.462777 -348.242985 
L 389.478735 -344.206524 
L 387.701802 -340.170062 
L 385.072725 -336.133601 
L 381.569921 -332.097139 
L 377.218694 -328.060678 
L 372.095911 -324.024216 
L 366.328642 -319.987755 
L 360.086277 -315.951293 
L 353.566716 -311.914832 
L 346.978366 -307.87837 
L 340.520391 -303.841909 
L 334.364052 -299.805447 
L 328.637779 -295.768985 
L 323.418055 -291.732524 
L 318.72723 -287.696062 
L 314.538306 -283.659601 
L 310.785671 -279.623139 
L 307.37985 -275.586678 
L 304.223831 -271.550216 
L 301.228372 -267.513755 
L 298.324006 -263.477293 
L 295.468146 -259.440832 
L 292.646639 -255.40437 
L 289.87013 -251.367908 
L 287.166491 -247.331447 
L 284.571181 -243.294985 
L 282.117614 -239.258524 
L 279.829399 -235.222062 
L 277.715732 -231.185601 
L 275.770455 -227.149139 
L 273.974496 -223.112678 
L 272.300749 -219.076216 
L 270.720062 -215.039755 
L 269.206975 -211.003293 
L 267.744061 -206.966832 
L 266.324196 -202.93037 
L 264.950597 -198.893908 
L 263.634921 -194.857447 
L 262.394093 -190.820985 
L 261.246622 -186.784524 
L 260.209161 -182.748062 
L 259.293867 -178.711601 
L 258.506849 -174.675139 
L 257.847773 -170.638678 
L 257.310425 -166.602216 
L 256.883963 -162.565755 
L 256.554502 -158.529293 
z
" style="stroke: #474747; stroke-width: 0.625"/>
    </defs>
    <g clip-path="url(#p592a3cf047)">
     <use xlink:href="#m14aac4b7db" x="0" y="679.741844" style="fill: #cc5a49; stroke: #474747; stroke-width: 0.625"/>
    </g>
   </g>
   <g id="FillBetweenPolyCollection_2">
    <defs>
     <path id="m7d4d144106" d="M 593.760517 -315.158455 
L 592.713858 -315.158455 
L 592.499508 -318.490081 
L 592.229451 -321.821708 
L 591.902578 -325.153334 
L 591.522837 -328.484961 
L 591.099742 -331.816587 
L 590.647773 -335.148214 
L 590.184406 -338.47984 
L 589.726755 -341.811467 
L 589.287198 -345.143093 
L 588.868645 -348.47472 
L 588.460401 -351.806346 
L 588.035585 -355.137973 
L 587.550925 -358.469599 
L 586.949301 -361.801226 
L 586.164896 -365.132852 
L 585.13023 -368.464479 
L 583.783929 -371.796105 
L 582.077883 -375.127732 
L 579.982525 -378.459358 
L 577.489358 -381.790985 
L 574.610379 -385.122611 
L 571.374687 -388.454238 
L 567.82307 -391.785864 
L 564.001717 -395.117491 
L 559.956244 -398.449118 
L 555.72707 -401.780744 
L 551.346782 -405.112371 
L 546.839702 -408.443997 
L 542.223423 -411.775624 
L 537.511748 -415.10725 
L 532.718274 -418.438877 
L 527.859834 -421.770503 
L 522.959059 -425.10213 
L 518.045561 -428.433756 
L 513.155495 -431.765383 
L 508.329647 -435.097009 
L 503.610554 -438.428636 
L 499.039415 -441.760262 
L 494.653685 -445.091889 
L 490.48597 -448.423515 
L 486.564411 -451.755142 
L 482.914063 -455.086768 
L 479.558243 -458.418395 
L 476.518592 -461.750021 
L 473.812916 -465.081648 
L 471.450691 -468.413274 
L 469.427232 -471.744901 
L 467.718511 -475.076528 
L 466.27908 -478.408154 
L 465.045142 -481.739781 
L 463.943586 -485.071407 
L 462.906072 -488.403034 
L 461.885456 -491.73466 
L 460.870798 -495.066287 
L 459.897104 -498.397913 
L 459.047089 -501.72954 
L 458.444224 -505.061166 
L 458.238521 -508.392793 
L 458.588219 -511.724419 
L 459.641257 -515.056046 
L 461.519879 -518.387672 
L 464.310323 -521.719299 
L 468.057773 -525.050925 
L 472.765327 -528.382552 
L 478.395173 -531.714178 
L 484.870444 -535.045805 
L 492.077212 -538.377431 
L 499.867167 -541.709058 
L 508.062166 -545.040684 
L 516.46185 -548.372311 
L 524.85474 -551.703938 
L 533.032175 -555.035564 
L 540.803349 -558.367191 
L 548.009155 -561.698817 
L 554.532549 -565.030444 
L 560.303888 -568.36207 
L 565.300687 -571.693697 
L 569.542418 -575.025323 
L 573.081779 -578.35695 
L 575.994313 -581.688576 
L 578.368163 -585.020203 
L 580.29528 -588.351829 
L 581.864763 -591.683456 
L 583.158361 -595.015082 
L 584.247753 -598.346709 
L 585.19304 -601.678335 
L 586.04198 -605.009962 
L 586.829726 -608.341588 
L 587.579082 -611.673215 
L 588.301406 -615.004841 
L 588.998278 -618.336468 
L 589.663926 -621.668094 
L 590.288157 -624.999721 
L 590.859407 -628.331348 
L 591.367447 -631.662974 
L 591.805361 -634.994601 
L 592.170587 -638.326227 
L 592.465009 -641.657854 
L 592.694285 -644.98948 
L 593.78009 -644.98948 
L 593.78009 -644.98948 
L 594.009366 -641.657854 
L 594.303788 -638.326227 
L 594.669014 -634.994601 
L 595.106928 -631.662974 
L 595.614968 -628.331348 
L 596.186218 -624.999721 
L 596.810449 -621.668094 
L 597.476097 -618.336468 
L 598.172969 -615.004841 
L 598.895293 -611.673215 
L 599.644649 -608.341588 
L 600.432395 -605.009962 
L 601.281335 -601.678335 
L 602.226622 -598.346709 
L 603.316014 -595.015082 
L 604.609612 -591.683456 
L 606.179095 -588.351829 
L 608.106212 -585.020203 
L 610.480062 -581.688576 
L 613.392596 -578.35695 
L 616.931957 -575.025323 
L 621.173688 -571.693697 
L 626.170487 -568.36207 
L 631.941826 -565.030444 
L 638.46522 -561.698817 
L 645.671026 -558.367191 
L 653.4422 -555.035564 
L 661.619635 -551.703938 
L 670.012525 -548.372311 
L 678.412209 -545.040684 
L 686.607208 -541.709058 
L 694.397163 -538.377431 
L 701.603931 -535.045805 
L 708.079202 -531.714178 
L 713.709048 -528.382552 
L 718.416602 -525.050925 
L 722.164052 -521.719299 
L 724.954496 -518.387672 
L 726.833118 -515.056046 
L 727.886156 -511.724419 
L 728.235854 -508.392793 
L 728.030151 -505.061166 
L 727.427286 -501.72954 
L 726.577271 -498.397913 
L 725.603577 -495.066287 
L 724.588919 -491.73466 
L 723.568303 -488.403034 
L 722.530789 -485.071407 
L 721.429233 -481.739781 
L 720.195295 -478.408154 
L 718.755864 -475.076528 
L 717.047143 -471.744901 
L 715.023684 -468.413274 
L 712.661459 -465.081648 
L 709.955783 -461.750021 
L 706.916132 -458.418395 
L 703.560312 -455.086768 
L 699.909964 -451.755142 
L 695.988405 -448.423515 
L 691.82069 -445.091889 
L 687.43496 -441.760262 
L 682.863821 -438.428636 
L 678.144728 -435.097009 
L 673.31888 -431.765383 
L 668.428814 -428.433756 
L 663.515316 -425.10213 
L 658.614541 -421.770503 
L 653.756101 -418.438877 
L 648.962627 -415.10725 
L 644.250952 -411.775624 
L 639.634673 -408.443997 
L 635.127593 -405.112371 
L 630.747305 -401.780744 
L 626.518131 -398.449118 
L 622.472658 -395.117491 
L 618.651305 -391.785864 
L 615.099688 -388.454238 
L 611.863996 -385.122611 
L 608.985017 -381.790985 
L 606.49185 -378.459358 
L 604.396492 -375.127732 
L 602.690446 -371.796105 
L 601.344145 -368.464479 
L 600.309479 -365.132852 
L 599.525074 -361.801226 
L 598.92345 -358.469599 
L 598.43879 -355.137973 
L 598.013974 -351.806346 
L 597.60573 -348.47472 
L 597.187177 -345.143093 
L 596.74762 -341.811467 
L 596.289969 -338.47984 
L 595.826602 -335.148214 
L 595.374633 -331.816587 
L 594.951538 -328.484961 
L 594.571797 -325.153334 
L 594.244924 -321.821708 
L 593.974867 -318.490081 
L 593.760517 -315.158455 
z
" style="stroke: #474747; stroke-width: 0.625"/>
    </defs>
    <g clip-path="url(#p592a3cf047)">
     <use xlink:href="#m7d4d144106" x="0" y="679.741844" style="fill: #4586ac; stroke: #474747; stroke-width: 0.625"/>
    </g>
   </g>
   <g id="FillBetweenPolyCollection_3">
    <defs>
     <path id="m919178487e" d="M 931.243228 -247.70664 
L 930.224481 -247.70664 
L 930.008489 -251.209307 
L 929.726481 -254.711973 
L 929.368041 -258.21464 
L 928.923779 -261.717306 
L 928.385687 -265.219973 
L 927.747118 -268.722639 
L 927.002351 -272.225306 
L 926.145804 -275.727972 
L 925.171114 -279.230639 
L 924.070371 -282.733305 
L 922.833857 -286.235972 
L 921.450516 -289.738638 
L 919.909212 -293.241305 
L 918.200585 -296.743971 
L 916.319073 -300.246638 
L 914.264524 -303.749304 
L 912.042871 -307.251971 
L 909.665503 -310.754638 
L 907.147346 -314.257304 
L 904.504029 -317.759971 
L 901.748859 -321.262637 
L 898.890463 -324.765304 
L 895.931854 -328.26797 
L 892.871323 -331.770637 
L 889.705053 -335.273303 
L 886.430796 -338.77597 
L 883.051554 -342.278636 
L 879.578082 -345.781303 
L 876.029206 -349.283969 
L 872.429483 -352.786636 
L 868.804398 -356.289302 
L 865.174004 -359.791969 
L 861.5464 -363.294635 
L 857.91269 -366.797302 
L 854.24488 -370.299968 
L 850.497704 -373.802635 
L 846.614681 -377.305301 
L 842.537932 -380.807968 
L 838.220576 -384.310634 
L 833.639976 -387.813301 
L 828.809789 -391.315967 
L 823.788714 -394.818634 
L 818.684092 -398.3213 
L 813.649053 -401.823967 
L 808.872782 -405.326633 
L 804.564524 -408.8293 
L 800.933151 -412.331966 
L 798.165069 -415.834633 
L 796.403887 -419.337299 
L 795.735188 -422.839966 
L 796.178996 -426.342632 
L 797.691133 -429.845299 
L 800.172913 -433.347965 
L 803.486987 -436.850632 
L 807.47605 -440.353298 
L 811.980794 -443.855965 
L 816.854146 -447.358631 
L 821.970062 -450.861298 
L 827.226727 -454.363964 
L 832.545341 -457.866631 
L 837.86643 -461.369297 
L 843.145651 -464.871964 
L 848.350468 -468.37463 
L 853.45814 -471.877297 
L 858.454658 -475.379963 
L 863.333753 -478.88263 
L 868.095151 -482.385297 
L 872.741713 -485.887963 
L 877.27569 -489.39063 
L 881.694907 -492.893296 
L 885.989876 -496.395963 
L 890.142678 -499.898629 
L 894.127952 -503.401296 
L 897.915755 -506.903962 
L 901.475531 -510.406629 
L 904.780218 -513.909295 
L 907.809613 -517.411962 
L 910.552421 -520.914628 
L 913.006896 -524.417295 
L 915.180303 -527.919961 
L 917.08765 -531.422628 
L 918.750115 -534.925294 
L 920.193435 -538.427961 
L 921.446321 -541.930627 
L 922.53884 -545.433294 
L 923.500667 -548.93596 
L 924.359249 -552.438627 
L 925.138024 -555.941293 
L 925.855 -559.44396 
L 926.521968 -562.946626 
L 927.144573 -566.449293 
L 927.723234 -569.951959 
L 928.254746 -573.454626 
L 928.734219 -576.957292 
L 929.156966 -580.459959 
L 929.519987 -583.962625 
L 929.82286 -587.465292 
L 930.067969 -590.967958 
L 930.260183 -594.470625 
L 931.207525 -594.470625 
L 931.207525 -594.470625 
L 931.399739 -590.967958 
L 931.644849 -587.465292 
L 931.947721 -583.962625 
L 932.310742 -580.459959 
L 932.733489 -576.957292 
L 933.212963 -573.454626 
L 933.744475 -569.951959 
L 934.323135 -566.449293 
L 934.94574 -562.946626 
L 935.612709 -559.44396 
L 936.329684 -555.941293 
L 937.10846 -552.438627 
L 937.967041 -548.93596 
L 938.928868 -545.433294 
L 940.021387 -541.930627 
L 941.274274 -538.427961 
L 942.717593 -534.925294 
L 944.380058 -531.422628 
L 946.287405 -527.919961 
L 948.460812 -524.417295 
L 950.915288 -520.914628 
L 953.658096 -517.411962 
L 956.68749 -513.909295 
L 959.992178 -510.406629 
L 963.551953 -506.903962 
L 967.339756 -503.401296 
L 971.32503 -499.898629 
L 975.477832 -496.395963 
L 979.772802 -492.893296 
L 984.192018 -489.39063 
L 988.725995 -485.887963 
L 993.372557 -482.385297 
L 998.133956 -478.88263 
L 1003.01305 -475.379963 
L 1008.009568 -471.877297 
L 1013.11724 -468.37463 
L 1018.322057 -464.871964 
L 1023.601279 -461.369297 
L 1028.922368 -457.866631 
L 1034.240982 -454.363964 
L 1039.497647 -450.861298 
L 1044.613562 -447.358631 
L 1049.486914 -443.855965 
L 1053.991658 -440.353298 
L 1057.980721 -436.850632 
L 1061.294795 -433.347965 
L 1063.776575 -429.845299 
L 1065.288713 -426.342632 
L 1065.732521 -422.839966 
L 1065.063821 -419.337299 
L 1063.30264 -415.834633 
L 1060.534557 -412.331966 
L 1056.903184 -408.8293 
L 1052.594927 -405.326633 
L 1047.818655 -401.823967 
L 1042.783617 -398.3213 
L 1037.678994 -394.818634 
L 1032.657919 -391.315967 
L 1027.827732 -387.813301 
L 1023.247133 -384.310634 
L 1018.929777 -380.807968 
L 1014.853028 -377.305301 
L 1010.970004 -373.802635 
L 1007.222828 -370.299968 
L 1003.555018 -366.797302 
L 999.921308 -363.294635 
L 996.293704 -359.791969 
L 992.66331 -356.289302 
L 989.038226 -352.786636 
L 985.438502 -349.283969 
L 981.889626 -345.781303 
L 978.416154 -342.278636 
L 975.036912 -338.77597 
L 971.762655 -335.273303 
L 968.596385 -331.770637 
L 965.535854 -328.26797 
L 962.577245 -324.765304 
L 959.71885 -321.262637 
L 956.963679 -317.759971 
L 954.320362 -314.257304 
L 951.802205 -310.754638 
L 949.424837 -307.251971 
L 947.203184 -303.749304 
L 945.148635 -300.246638 
L 943.267123 -296.743971 
L 941.558497 -293.241305 
L 940.017193 -289.738638 
L 938.633851 -286.235972 
L 937.397337 -282.733305 
L 936.296594 -279.230639 
L 935.321904 -275.727972 
L 934.465358 -272.225306 
L 933.72059 -268.722639 
L 933.082021 -265.219973 
L 932.543929 -261.717306 
L 932.099668 -258.21464 
L 931.741227 -254.711973 
L 931.459219 -251.209307 
L 931.243228 -247.70664 
z
" style="stroke: #474747; stroke-width: 0.625"/>
    </defs>
    <g clip-path="url(#p592a3cf047)">
     <use xlink:href="#m919178487e" x="0" y="679.741844" style="fill: #9e97cc; stroke: #474747; stroke-width: 0.625"/>
    </g>
   </g>
   <g id="FillBetweenPolyCollection_4">
    <defs>
     <path id="m1736adb6eb" d="M 1268.730766 -259.785162 
L 1267.730276 -259.785162 
L 1267.526273 -262.935341 
L 1267.269076 -266.085519 
L 1266.957269 -269.235697 
L 1266.594156 -272.385875 
L 1266.188442 -275.536053 
L 1265.754067 -278.686231 
L 1265.308999 -281.836409 
L 1264.872994 -284.986587 
L 1264.464602 -288.136765 
L 1264.097904 -291.286944 
L 1263.779603 -294.437122 
L 1263.507002 -297.5873 
L 1263.26724 -300.737478 
L 1263.037791 -303.887656 
L 1262.787928 -307.037834 
L 1262.480675 -310.188012 
L 1262.074742 -313.33819 
L 1261.526191 -316.488368 
L 1260.789906 -319.638547 
L 1259.821222 -322.788725 
L 1258.578227 -325.938903 
L 1257.025031 -329.089081 
L 1255.135875 -332.239259 
L 1252.899371 -335.389437 
L 1250.321725 -338.539615 
L 1247.427615 -341.689793 
L 1244.257806 -344.839971 
L 1240.863263 -347.99015 
L 1237.296607 -351.140328 
L 1233.602569 -354.290506 
L 1229.8097 -357.440684 
L 1225.925429 -360.590862 
L 1221.935936 -363.74104 
L 1217.811167 -366.891218 
L 1213.514127 -370.041396 
L 1209.012556 -373.191574 
L 1204.290573 -376.341752 
L 1199.357828 -379.491931 
L 1194.254257 -382.642109 
L 1189.049362 -385.792287 
L 1183.835988 -388.942465 
L 1178.71958 -392.092643 
L 1173.804716 -395.242821 
L 1169.181249 -398.392999 
L 1164.912509 -401.543177 
L 1161.027745 -404.693355 
L 1157.520291 -407.843534 
L 1154.351944 -410.993712 
L 1151.462914 -414.14389 
L 1148.785646 -417.294068 
L 1146.260029 -420.444246 
L 1143.847236 -423.594424 
L 1141.539639 -426.744602 
L 1139.365006 -429.89478 
L 1137.384295 -433.044958 
L 1135.683572 -436.195137 
L 1134.361744 -439.345315 
L 1133.516589 -442.495493 
L 1133.231854 -445.645671 
L 1133.567937 -448.795849 
L 1134.557836 -451.946027 
L 1136.20881 -455.096205 
L 1138.508864 -458.246383 
L 1141.435902 -461.396561 
L 1144.966764 -464.54674 
L 1149.08331 -467.696918 
L 1153.773564 -470.847096 
L 1159.027342 -473.997274 
L 1164.827434 -477.147452 
L 1171.138805 -480.29763 
L 1177.899013 -483.447808 
L 1185.012795 -486.597986 
L 1192.352701 -489.748164 
L 1199.766085 -492.898343 
L 1207.087128 -496.048521 
L 1214.151464 -499.198699 
L 1220.810631 -502.348877 
L 1226.943939 -505.499055 
L 1232.466324 -508.649233 
L 1237.33177 -511.799411 
L 1241.532737 -514.949589 
L 1245.096448 -518.099767 
L 1248.078933 -521.249946 
L 1250.557526 -524.400124 
L 1252.622373 -527.550302 
L 1254.367446 -530.70048 
L 1255.88177 -533.850658 
L 1257.241719 -537.000836 
L 1258.505342 -540.151014 
L 1259.709506 -543.301192 
L 1260.870214 -546.45137 
L 1261.985848 -549.601549 
L 1263.042538 -552.751727 
L 1264.020461 -555.901905 
L 1264.899829 -559.052083 
L 1265.665538 -562.202261 
L 1266.309909 -565.352439 
L 1266.833438 -568.502617 
L 1267.243909 -571.652795 
L 1269.217133 -571.652795 
L 1269.217133 -571.652795 
L 1269.627603 -568.502617 
L 1270.151133 -565.352439 
L 1270.795504 -562.202261 
L 1271.561213 -559.052083 
L 1272.440581 -555.901905 
L 1273.418504 -552.751727 
L 1274.475193 -549.601549 
L 1275.590828 -546.45137 
L 1276.751536 -543.301192 
L 1277.9557 -540.151014 
L 1279.219323 -537.000836 
L 1280.579272 -533.850658 
L 1282.093596 -530.70048 
L 1283.838669 -527.550302 
L 1285.903515 -524.400124 
L 1288.382109 -521.249946 
L 1291.364593 -518.099767 
L 1294.928304 -514.949589 
L 1299.129271 -511.799411 
L 1303.994718 -508.649233 
L 1309.517103 -505.499055 
L 1315.650411 -502.348877 
L 1322.309577 -499.198699 
L 1329.373914 -496.048521 
L 1336.694957 -492.898343 
L 1344.108341 -489.748164 
L 1351.448247 -486.597986 
L 1358.562028 -483.447808 
L 1365.322237 -480.29763 
L 1371.633608 -477.147452 
L 1377.433699 -473.997274 
L 1382.687478 -470.847096 
L 1387.377732 -467.696918 
L 1391.494277 -464.54674 
L 1395.02514 -461.396561 
L 1397.952178 -458.246383 
L 1400.252231 -455.096205 
L 1401.903206 -451.946027 
L 1402.893104 -448.795849 
L 1403.229188 -445.645671 
L 1402.944452 -442.495493 
L 1402.099297 -439.345315 
L 1400.77747 -436.195137 
L 1399.076747 -433.044958 
L 1397.096036 -429.89478 
L 1394.921403 -426.744602 
L 1392.613805 -423.594424 
L 1390.201013 -420.444246 
L 1387.675396 -417.294068 
L 1384.998128 -414.14389 
L 1382.109098 -410.993712 
L 1378.940751 -407.843534 
L 1375.433297 -404.693355 
L 1371.548533 -401.543177 
L 1367.279793 -398.392999 
L 1362.656325 -395.242821 
L 1357.741462 -392.092643 
L 1352.625053 -388.942465 
L 1347.411679 -385.792287 
L 1342.206785 -382.642109 
L 1337.103214 -379.491931 
L 1332.170469 -376.341752 
L 1327.448485 -373.191574 
L 1322.946915 -370.041396 
L 1318.649874 -366.891218 
L 1314.525106 -363.74104 
L 1310.535613 -360.590862 
L 1306.651342 -357.440684 
L 1302.858473 -354.290506 
L 1299.164435 -351.140328 
L 1295.597778 -347.99015 
L 1292.203236 -344.839971 
L 1289.033426 -341.689793 
L 1286.139317 -338.539615 
L 1283.56167 -335.389437 
L 1281.325167 -332.239259 
L 1279.43601 -329.089081 
L 1277.882815 -325.938903 
L 1276.63982 -322.788725 
L 1275.671136 -319.638547 
L 1274.93485 -316.488368 
L 1274.3863 -313.33819 
L 1273.980366 -310.188012 
L 1273.673113 -307.037834 
L 1273.423251 -303.887656 
L 1273.193802 -300.737478 
L 1272.95404 -297.5873 
L 1272.681439 -294.437122 
L 1272.363137 -291.286944 
L 1271.99644 -288.136765 
L 1271.588047 -284.986587 
L 1271.152042 -281.836409 
L 1270.706974 -278.686231 
L 1270.2726 -275.536053 
L 1269.866885 -272.385875 
L 1269.503772 -269.235697 
L 1269.191965 -266.085519 
L 1268.934769 -262.935341 
L 1268.730766 -259.785162 
z
" style="stroke: #474747; stroke-width: 0.625"/>
    </defs>
    <g clip-path="url(#p592a3cf047)">
     <use xlink:href="#m1736adb6eb" x="0" y="679.741844" style="fill: #777777; stroke: #474747; stroke-width: 0.625"/>
    </g>
   </g>
   <g id="FillBetweenPolyCollection_5">
    <defs>
     <path id="mbcf49722e5" d="M 1606.606675 -93.942207 
L 1604.8477 -93.942207 
L 1604.50345 -98.315636 
L 1604.072601 -102.689065 
L 1603.553103 -107.062494 
L 1602.95059 -111.435923 
L 1602.279764 -115.809352 
L 1601.564603 -120.182781 
L 1600.836963 -124.55621 
L 1600.133443 -128.929639 
L 1599.490671 -133.303068 
L 1598.939628 -137.676497 
L 1598.499909 -142.049926 
L 1598.17502 -146.423355 
L 1597.949771 -150.796784 
L 1597.790507 -155.170213 
L 1597.648432 -159.543642 
L 1597.46566 -163.917071 
L 1597.183025 -168.2905 
L 1596.748269 -172.663929 
L 1596.123026 -177.037358 
L 1595.287165 -181.410787 
L 1594.239531 -185.784216 
L 1592.994762 -190.157645 
L 1591.576666 -194.531074 
L 1590.009382 -198.904503 
L 1588.308012 -203.277932 
L 1586.470642 -207.651361 
L 1584.473386 -212.024789 
L 1582.269537 -216.398218 
L 1579.793077 -220.771647 
L 1576.965922 -225.145076 
L 1573.707629 -229.518505 
L 1569.945897 -233.891934 
L 1565.626268 -238.265363 
L 1560.719832 -242.638792 
L 1555.228292 -247.012221 
L 1549.186344 -251.38565 
L 1542.661656 -255.759079 
L 1535.75286 -260.132508 
L 1528.585786 -264.505937 
L 1521.307956 -268.879366 
L 1514.0812 -273.252795 
L 1507.072354 -277.626224 
L 1500.442395 -281.999653 
L 1494.334946 -286.373082 
L 1488.865638 -290.746511 
L 1484.114153 -295.11994 
L 1480.12061 -299.493369 
L 1476.887331 -303.866798 
L 1474.385975 -308.240227 
L 1472.568861 -312.613656 
L 1471.382295 -316.987085 
L 1470.779206 -321.360514 
L 1470.728521 -325.733943 
L 1471.21944 -330.107372 
L 1472.25995 -334.480801 
L 1473.870204 -338.85423 
L 1476.072446 -343.227659 
L 1478.879811 -347.601087 
L 1482.286357 -351.974516 
L 1486.260213 -356.347945 
L 1490.740937 -360.721374 
L 1495.641205 -365.094803 
L 1500.852188 -369.468232 
L 1506.251406 -373.841661 
L 1511.711694 -378.21509 
L 1517.110043 -382.588519 
L 1522.335438 -386.961948 
L 1527.29522 -391.335377 
L 1531.91983 -395.708806 
L 1536.166008 -400.082235 
L 1540.018483 -404.455664 
L 1543.490091 -408.829093 
L 1546.620143 -413.202522 
L 1549.470788 -417.575951 
L 1552.121273 -421.94938 
L 1554.660276 -426.322809 
L 1557.1769 -430.696238 
L 1559.751291 -435.069667 
L 1562.446104 -439.443096 
L 1565.300009 -443.816525 
L 1568.324188 -448.189954 
L 1571.502297 -452.563383 
L 1574.793746 -456.936812 
L 1578.139644 -461.310241 
L 1581.470352 -465.68367 
L 1584.713439 -470.057099 
L 1587.800928 -474.430528 
L 1590.675012 -478.803956 
L 1593.291787 -483.177385 
L 1595.622937 -487.550814 
L 1597.65562 -491.924243 
L 1599.390961 -496.297672 
L 1600.841676 -500.671101 
L 1602.029246 -505.04453 
L 1602.981051 -509.417959 
L 1603.727698 -513.791388 
L 1604.300723 -518.164817 
L 1604.730749 -522.538246 
L 1605.046121 -526.911675 
L 1606.408254 -526.911675 
L 1606.408254 -526.911675 
L 1606.723626 -522.538246 
L 1607.153652 -518.164817 
L 1607.726677 -513.791388 
L 1608.473324 -509.417959 
L 1609.425129 -505.04453 
L 1610.612699 -500.671101 
L 1612.063414 -496.297672 
L 1613.798755 -491.924243 
L 1615.831438 -487.550814 
L 1618.162588 -483.177385 
L 1620.779363 -478.803956 
L 1623.653447 -474.430528 
L 1626.740936 -470.057099 
L 1629.984023 -465.68367 
L 1633.314731 -461.310241 
L 1636.660629 -456.936812 
L 1639.952078 -452.563383 
L 1643.130187 -448.189954 
L 1646.154366 -443.816525 
L 1649.008271 -439.443096 
L 1651.703084 -435.069667 
L 1654.277475 -430.696238 
L 1656.794099 -426.322809 
L 1659.333102 -421.94938 
L 1661.983587 -417.575951 
L 1664.834232 -413.202522 
L 1667.964284 -408.829093 
L 1671.435892 -404.455664 
L 1675.288367 -400.082235 
L 1679.534545 -395.708806 
L 1684.159155 -391.335377 
L 1689.118937 -386.961948 
L 1694.344332 -382.588519 
L 1699.742681 -378.21509 
L 1705.202969 -373.841661 
L 1710.602187 -369.468232 
L 1715.81317 -365.094803 
L 1720.713438 -360.721374 
L 1725.194162 -356.347945 
L 1729.168018 -351.974516 
L 1732.574564 -347.601087 
L 1735.381929 -343.227659 
L 1737.584171 -338.85423 
L 1739.194425 -334.480801 
L 1740.234935 -330.107372 
L 1740.725854 -325.733943 
L 1740.675169 -321.360514 
L 1740.07208 -316.987085 
L 1738.885514 -312.613656 
L 1737.0684 -308.240227 
L 1734.567044 -303.866798 
L 1731.333765 -299.493369 
L 1727.340222 -295.11994 
L 1722.588737 -290.746511 
L 1717.119429 -286.373082 
L 1711.01198 -281.999653 
L 1704.382021 -277.626224 
L 1697.373175 -273.252795 
L 1690.146419 -268.879366 
L 1682.868589 -264.505937 
L 1675.701515 -260.132508 
L 1668.792719 -255.759079 
L 1662.268031 -251.38565 
L 1656.226083 -247.012221 
L 1650.734543 -242.638792 
L 1645.828107 -238.265363 
L 1641.508478 -233.891934 
L 1637.746746 -229.518505 
L 1634.488453 -225.145076 
L 1631.661298 -220.771647 
L 1629.184838 -216.398218 
L 1626.980989 -212.024789 
L 1624.983733 -207.651361 
L 1623.146363 -203.277932 
L 1621.444993 -198.904503 
L 1619.877709 -194.531074 
L 1618.459613 -190.157645 
L 1617.214844 -185.784216 
L 1616.16721 -181.410787 
L 1615.331349 -177.037358 
L 1614.706106 -172.663929 
L 1614.27135 -168.2905 
L 1613.988715 -163.917071 
L 1613.805943 -159.543642 
L 1613.663868 -155.170213 
L 1613.504604 -150.796784 
L 1613.279355 -146.423355 
L 1612.954466 -142.049926 
L 1612.514747 -137.676497 
L 1611.963704 -133.303068 
L 1611.320932 -128.929639 
L 1610.617412 -124.55621 
L 1609.889772 -120.182781 
L 1609.174611 -115.809352 
L 1608.503785 -111.435923 
L 1607.901272 -107.062494 
L 1607.381774 -102.689065 
L 1606.950925 -98.315636 
L 1606.606675 -93.942207 
z
" style="stroke: #474747; stroke-width: 0.625"/>
    </defs>
    <g clip-path="url(#p592a3cf047)">
     <use xlink:href="#mbcf49722e5" x="0" y="679.741844" style="fill: #e7bc72; stroke: #474747; stroke-width: 0.625"/>
    </g>
   </g>
   <g id="FillBetweenPolyCollection_6">
    <defs>
     <path id="mb34eb12159" d="M 1943.734197 -279.012451 
L 1942.713511 -279.012451 
L 1942.496416 -282.471975 
L 1942.22025 -285.931499 
L 1941.883089 -289.391023 
L 1941.48834 -292.850547 
L 1941.045421 -296.31007 
L 1940.569355 -299.769594 
L 1940.07906 -303.229118 
L 1939.594402 -306.688642 
L 1939.13243 -310.148166 
L 1938.703486 -313.607689 
L 1938.308004 -317.067213 
L 1937.934705 -320.526737 
L 1937.560601 -323.986261 
L 1937.152778 -327.445785 
L 1936.67152 -330.905308 
L 1936.07409 -334.364832 
L 1935.318409 -337.824356 
L 1934.366052 -341.28388 
L 1933.184239 -344.743404 
L 1931.746771 -348.202927 
L 1930.034069 -351.662451 
L 1928.032602 -355.121975 
L 1925.73403 -358.581499 
L 1923.134425 -362.041023 
L 1920.233916 -365.500546 
L 1917.037054 -368.96007 
L 1913.553967 -372.419594 
L 1909.802032 -375.879118 
L 1905.807363 -379.338642 
L 1901.605125 -382.798165 
L 1897.23767 -386.257689 
L 1892.749936 -389.717213 
L 1888.182393 -393.176737 
L 1883.562871 -396.636261 
L 1878.899429 -400.095784 
L 1874.176782 -403.555308 
L 1869.358409 -407.014832 
L 1864.395276 -410.474356 
L 1859.240479 -413.93388 
L 1853.867354 -417.393403 
L 1848.287183 -420.852927 
L 1842.562072 -424.312451 
L 1836.808981 -427.771975 
L 1831.192439 -431.231499 
L 1825.905878 -434.691022 
L 1821.144267 -438.150546 
L 1817.073256 -441.61007 
L 1813.801484 -445.069594 
L 1811.362658 -448.529118 
L 1809.712173 -451.988641 
L 1808.739765 -455.448165 
L 1808.295789 -458.907689 
L 1808.225187 -462.367213 
L 1808.401193 -465.826737 
L 1808.750894 -469.28626 
L 1809.266991 -472.745784 
L 1810.003832 -476.205308 
L 1811.059922 -479.664832 
L 1812.552447 -483.124356 
L 1814.590869 -486.583879 
L 1817.256074 -490.043403 
L 1820.589168 -493.502927 
L 1824.5907 -496.962451 
L 1829.227987 -500.421975 
L 1834.446285 -503.881499 
L 1840.179287 -507.341022 
L 1846.355698 -510.800546 
L 1852.90079 -514.26007 
L 1859.734053 -517.719594 
L 1866.765431 -521.179118 
L 1873.892888 -524.638641 
L 1881.003227 -528.098165 
L 1887.976644 -531.557689 
L 1894.694099 -535.017213 
L 1901.045721 -538.476737 
L 1906.938339 -541.93626 
L 1912.300798 -545.395784 
L 1917.086539 -548.855308 
L 1921.273758 -552.314832 
L 1924.863905 -555.774356 
L 1927.879313 -559.233879 
L 1930.360452 -562.693403 
L 1932.362911 -566.152927 
L 1933.953869 -569.612451 
L 1935.207815 -573.071975 
L 1936.201434 -576.531498 
L 1937.007991 -579.991022 
L 1937.691889 -583.450546 
L 1938.304258 -586.91007 
L 1938.880383 -590.369594 
L 1939.439393 -593.829117 
L 1939.986206 -597.288641 
L 1940.51518 -600.748165 
L 1941.014635 -604.207689 
L 1941.4713 -607.667213 
L 1941.873903 -611.126736 
L 1942.215427 -614.58626 
L 1942.493949 -618.045784 
L 1942.712283 -621.505308 
L 1943.735425 -621.505308 
L 1943.735425 -621.505308 
L 1943.953759 -618.045784 
L 1944.232282 -614.58626 
L 1944.573805 -611.126736 
L 1944.976408 -607.667213 
L 1945.433074 -604.207689 
L 1945.932528 -600.748165 
L 1946.461502 -597.288641 
L 1947.008315 -593.829117 
L 1947.567325 -590.369594 
L 1948.14345 -586.91007 
L 1948.75582 -583.450546 
L 1949.439717 -579.991022 
L 1950.246274 -576.531498 
L 1951.239893 -573.071975 
L 1952.493839 -569.612451 
L 1954.084797 -566.152927 
L 1956.087256 -562.693403 
L 1958.568396 -559.233879 
L 1961.583803 -555.774356 
L 1965.173951 -552.314832 
L 1969.36117 -548.855308 
L 1974.14691 -545.395784 
L 1979.509369 -541.93626 
L 1985.401988 -538.476737 
L 1991.753609 -535.017213 
L 1998.471065 -531.557689 
L 2005.444482 -528.098165 
L 2012.554821 -524.638641 
L 2019.682278 -521.179118 
L 2026.713656 -517.719594 
L 2033.546919 -514.26007 
L 2040.09201 -510.800546 
L 2046.268421 -507.341022 
L 2052.001424 -503.881499 
L 2057.219722 -500.421975 
L 2061.857008 -496.962451 
L 2065.858541 -493.502927 
L 2069.191635 -490.043403 
L 2071.856839 -486.583879 
L 2073.895261 -483.124356 
L 2075.387787 -479.664832 
L 2076.443877 -476.205308 
L 2077.180717 -472.745784 
L 2077.696815 -469.28626 
L 2078.046515 -465.826737 
L 2078.222521 -462.367213 
L 2078.151919 -458.907689 
L 2077.707944 -455.448165 
L 2076.735536 -451.988641 
L 2075.08505 -448.529118 
L 2072.646224 -445.069594 
L 2069.374452 -441.61007 
L 2065.303441 -438.150546 
L 2060.541831 -434.691022 
L 2055.255269 -431.231499 
L 2049.638728 -427.771975 
L 2043.885636 -424.312451 
L 2038.160526 -420.852927 
L 2032.580354 -417.393403 
L 2027.207229 -413.93388 
L 2022.052432 -410.474356 
L 2017.089299 -407.014832 
L 2012.270926 -403.555308 
L 2007.548279 -400.095784 
L 2002.884837 -396.636261 
L 1998.265316 -393.176737 
L 1993.697773 -389.717213 
L 1989.210038 -386.257689 
L 1984.842584 -382.798165 
L 1980.640346 -379.338642 
L 1976.645676 -375.879118 
L 1972.893741 -372.419594 
L 1969.410655 -368.96007 
L 1966.213792 -365.500546 
L 1963.313283 -362.041023 
L 1960.713678 -358.581499 
L 1958.415107 -355.121975 
L 1956.413639 -351.662451 
L 1954.700937 -348.202927 
L 1953.263469 -344.743404 
L 1952.081657 -341.28388 
L 1951.1293 -337.824356 
L 1950.373618 -334.364832 
L 1949.776188 -330.905308 
L 1949.294931 -327.445785 
L 1948.887107 -323.986261 
L 1948.513003 -320.526737 
L 1948.139704 -317.067213 
L 1947.744222 -313.607689 
L 1947.315278 -310.148166 
L 1946.853306 -306.688642 
L 1946.368648 -303.229118 
L 1945.878353 -299.769594 
L 1945.402288 -296.31007 
L 1944.959368 -292.850547 
L 1944.564619 -289.391023 
L 1944.227458 -285.931499 
L 1943.951293 -282.471975 
L 1943.734197 -279.012451 
z
" style="stroke: #474747; stroke-width: 0.625"/>
    </defs>
    <g clip-path="url(#p592a3cf047)">
     <use xlink:href="#mb34eb12159" x="0" y="679.741844" style="fill: #8aab51; stroke: #474747; stroke-width: 0.625"/>
    </g>
   </g>
   <g id="line2d_17">
    <path d="M 255.740521 470.409505 
L 255.740521 172.405904 
" clip-path="url(#p592a3cf047)" style="fill: none; stroke: #474747; stroke-width: 0.9375; stroke-linecap: square"/>
   </g>
   <g id="line2d_18">
    <path d="M 255.740521 353.776307 
L 255.740521 268.631677 
" clip-path="url(#p592a3cf047)" style="fill: none; stroke: #474747; stroke-width: 2.8125; stroke-linecap: square"/>
   </g>
   <g id="line2d_19">
    <path d="M 255.740521 314.919404 
" clip-path="url(#p592a3cf047)" style="fill: none; stroke: #474747; stroke-width: 1.5; stroke-linecap: square"/>
    <defs>
     <path id="m62e18fd604" d="M 1.171875 0 
L -1.171875 -0 
" style="stroke: #ffffff; stroke-width: 0.5625"/>
    </defs>
    <g clip-path="url(#p592a3cf047)">
     <use xlink:href="#m62e18fd604" x="255.740521" y="314.919404" style="fill: #ffffff; stroke: #ffffff; stroke-width: 0.5625"/>
    </g>
   </g>
   <g id="line2d_20">
    <path d="M 593.237188 289.629579 
L 593.237188 71.988797 
" clip-path="url(#p592a3cf047)" style="fill: none; stroke: #474747; stroke-width: 0.9375; stroke-linecap: square"/>
   </g>
   <g id="line2d_21">
    <path d="M 593.237188 228.003392 
L 593.237188 163.576572 
" clip-path="url(#p592a3cf047)" style="fill: none; stroke: #474747; stroke-width: 2.8125; stroke-linecap: square"/>
   </g>
   <g id="line2d_22">
    <path d="M 593.237188 191.20749 
" clip-path="url(#p592a3cf047)" style="fill: none; stroke: #474747; stroke-width: 1.5; stroke-linecap: square"/>
    <g clip-path="url(#p592a3cf047)">
     <use xlink:href="#m62e18fd604" x="593.237188" y="191.20749" style="fill: #ffffff; stroke: #ffffff; stroke-width: 0.5625"/>
    </g>
   </g>
   <g id="line2d_23">
    <path d="M 930.733854 371.32301 
L 930.733854 154.917796 
" clip-path="url(#p592a3cf047)" style="fill: none; stroke: #474747; stroke-width: 0.9375; stroke-linecap: square"/>
   </g>
   <g id="line2d_24">
    <path d="M 930.733854 293.043093 
L 930.733854 227.629482 
" clip-path="url(#p592a3cf047)" style="fill: none; stroke: #474747; stroke-width: 2.8125; stroke-linecap: square"/>
   </g>
   <g id="line2d_25">
    <path d="M 930.733854 259.137115 
" clip-path="url(#p592a3cf047)" style="fill: none; stroke: #474747; stroke-width: 1.5; stroke-linecap: square"/>
    <g clip-path="url(#p592a3cf047)">
     <use xlink:href="#m62e18fd604" x="930.733854" y="259.137115" style="fill: #ffffff; stroke: #ffffff; stroke-width: 0.5625"/>
    </g>
   </g>
   <g id="line2d_26">
    <path d="M 1268.230521 353.448173 
L 1268.230521 143.537657 
" clip-path="url(#p592a3cf047)" style="fill: none; stroke: #474747; stroke-width: 0.9375; stroke-linecap: square"/>
   </g>
   <g id="line2d_27">
    <path d="M 1268.230521 276.321169 
L 1268.230521 214.208956 
" clip-path="url(#p592a3cf047)" style="fill: none; stroke: #474747; stroke-width: 2.8125; stroke-linecap: square"/>
   </g>
   <g id="line2d_28">
    <path d="M 1268.230521 241.8779 
" clip-path="url(#p592a3cf047)" style="fill: none; stroke: #474747; stroke-width: 1.5; stroke-linecap: square"/>
    <g clip-path="url(#p592a3cf047)">
     <use xlink:href="#m62e18fd604" x="1268.230521" y="241.8779" style="fill: #ffffff; stroke: #ffffff; stroke-width: 0.5625"/>
    </g>
   </g>
   <g id="line2d_29">
    <path d="M 1605.727188 475.929247 
L 1605.727188 204.274605 
" clip-path="url(#p592a3cf047)" style="fill: none; stroke: #474747; stroke-width: 0.9375; stroke-linecap: square"/>
   </g>
   <g id="line2d_30">
    <path d="M 1605.727188 386.670847 
L 1605.727188 307.681251 
" clip-path="url(#p592a3cf047)" style="fill: none; stroke: #474747; stroke-width: 2.8125; stroke-linecap: square"/>
   </g>
   <g id="line2d_31">
    <path d="M 1605.727188 350.152023 
" clip-path="url(#p592a3cf047)" style="fill: none; stroke: #474747; stroke-width: 1.5; stroke-linecap: square"/>
    <g clip-path="url(#p592a3cf047)">
     <use xlink:href="#m62e18fd604" x="1605.727188" y="350.152023" style="fill: #ffffff; stroke: #ffffff; stroke-width: 0.5625"/>
    </g>
   </g>
   <g id="line2d_32">
    <path d="M 1943.223854 332.095375 
L 1943.223854 126.275332 
" clip-path="url(#p592a3cf047)" style="fill: none; stroke: #474747; stroke-width: 0.9375; stroke-linecap: square"/>
   </g>
   <g id="line2d_33">
    <path d="M 1943.223854 247.403966 
L 1943.223854 187.401738 
" clip-path="url(#p592a3cf047)" style="fill: none; stroke: #474747; stroke-width: 2.8125; stroke-linecap: square"/>
   </g>
   <g id="line2d_34">
    <path d="M 1943.223854 218.673784 
" clip-path="url(#p592a3cf047)" style="fill: none; stroke: #474747; stroke-width: 1.5; stroke-linecap: square"/>
    <g clip-path="url(#p592a3cf047)">
     <use xlink:href="#m62e18fd604" x="1943.223854" y="218.673784" style="fill: #ffffff; stroke: #ffffff; stroke-width: 0.5625"/>
    </g>
   </g>
   <g id="patch_3">
    <path d="M 86.992188 613.352 
L 86.992188 7.2 
" style="fill: none; stroke: #ffffff; stroke-linejoin: miter; stroke-linecap: square"/>
   </g>
   <g id="patch_4">
    <path d="M 2111.972188 613.352 
L 2111.972188 7.2 
" style="fill: none; stroke: #ffffff; stroke-linejoin: miter; stroke-linecap: square"/>
   </g>
   <g id="patch_5">
    <path d="M 86.992188 613.352 
L 2111.972188 613.352 
" style="fill: none; stroke: #ffffff; stroke-linejoin: miter; stroke-linecap: square"/>
   </g>
   <g id="patch_6">
    <path d="M 86.992188 7.2 
L 2111.972188 7.2 
" style="fill: none; stroke: #ffffff; stroke-linejoin: miter; stroke-linecap: square"/>
   </g>
  </g>
 </g>
 <defs>
  <clipPath id="p592a3cf047">
   <rect x="86.992188" y="7.2" width="2024.98" height="606.152"/>
  </clipPath>
 </defs>
</svg>
