<?xml version="1.0" encoding="UTF-8" standalone="no"?>
<!DOCTYPE svg PUBLIC "-//W3C//DTD SVG 1.1//EN"
 "http://www.w3.org/Graphics/SVG/1.1/DTD/svg11.dtd">
<!-- Generated by graphviz version 2.43.0 (0)
 -->
<!-- Pages: 1 -->
<svg width="464pt" height="548pt"
 viewBox="0.00 0.00 464.48 548.00" xmlns="http://www.w3.org/2000/svg" xmlns:xlink="http://www.w3.org/1999/xlink">
<g id="graph0" class="graph" transform="scale(1 1) rotate(0) translate(4 544)">
<polygon fill="white" stroke="transparent" points="-4,4 -4,-544 460.48,-544 460.48,4 -4,4"/>
<!-- Satisfaction -->
<g id="node1" class="node">
<title>Satisfaction</title>
<ellipse fill="none" stroke="black" cx="171" cy="-90" rx="65.79" ry="18"/>
<text text-anchor="middle" x="171" y="-86.3" font-family="Times,serif" font-size="14.00">Satisfaction</text>
</g>
<!-- Y -->
<g id="node2" class="node">
<title>Y</title>
<ellipse fill="none" stroke="black" cx="171" cy="-18" rx="27" ry="18"/>
<text text-anchor="middle" x="171" y="-14.3" font-family="Times,serif" font-size="14.00">Y</text>
</g>
<!-- Satisfaction&#45;&gt;Y -->
<g id="edge1" class="edge">
<title>Satisfaction&#45;&gt;Y</title>
<path fill="none" stroke="black" d="M171,-71.7C171,-63.98 171,-54.71 171,-46.11"/>
<polygon fill="black" stroke="black" points="174.5,-46.1 171,-36.1 167.5,-46.1 174.5,-46.1"/>
</g>
<!-- Health -->
<g id="node3" class="node">
<title>Health</title>
<ellipse fill="none" stroke="black" cx="165" cy="-450" rx="42.49" ry="18"/>
<text text-anchor="middle" x="165" y="-446.3" font-family="Times,serif" font-size="14.00">Health</text>
</g>
<!-- Health&#45;&gt;Satisfaction -->
<g id="edge2" class="edge">
<title>Health&#45;&gt;Satisfaction</title>
<path fill="none" stroke="black" d="M153.11,-432.56C146.31,-422.46 138.14,-408.99 133,-396 118.12,-358.39 114,-347.45 114,-307 114,-307 114,-307 114,-233 114,-189.8 137,-144.19 153.78,-116.66"/>
<polygon fill="black" stroke="black" points="156.83,-118.37 159.19,-108.04 150.91,-114.65 156.83,-118.37"/>
</g>
<!-- Health&#45;&gt;Y -->
<g id="edge3" class="edge">
<title>Health&#45;&gt;Y</title>
<path fill="none" stroke="black" d="M145.99,-433.89C135.3,-424.25 122.77,-410.82 116,-396 62.7,-279.29 97.78,-236.3 96,-108 95.78,-92 88.64,-86.21 96,-72 105.13,-54.37 123.13,-41.34 139.21,-32.62"/>
<polygon fill="black" stroke="black" points="141.03,-35.62 148.37,-27.98 137.87,-29.38 141.03,-35.62"/>
</g>
<!-- Education -->
<g id="node4" class="node">
<title>Education</title>
<ellipse fill="none" stroke="black" cx="200" cy="-378" rx="57.69" ry="18"/>
<text text-anchor="middle" x="200" y="-374.3" font-family="Times,serif" font-size="14.00">Education</text>
</g>
<!-- Health&#45;&gt;Education -->
<g id="edge4" class="edge">
<title>Health&#45;&gt;Education</title>
<path fill="none" stroke="black" d="M173.47,-432.05C177.5,-424.01 182.4,-414.2 186.89,-405.23"/>
<polygon fill="black" stroke="black" points="190.02,-406.78 191.36,-396.28 183.76,-403.65 190.02,-406.78"/>
</g>
<!-- Employment -->
<g id="node5" class="node">
<title>Employment</title>
<ellipse fill="none" stroke="black" cx="264" cy="-306" rx="69.59" ry="18"/>
<text text-anchor="middle" x="264" y="-302.3" font-family="Times,serif" font-size="14.00">Employment</text>
</g>
<!-- Health&#45;&gt;Employment -->
<g id="edge5" class="edge">
<title>Health&#45;&gt;Employment</title>
<path fill="none" stroke="black" d="M201.18,-440.52C224.39,-433 252.76,-419.45 267,-396 278.24,-377.49 276.28,-352.6 272.2,-333.84"/>
<polygon fill="black" stroke="black" points="275.6,-332.99 269.79,-324.13 268.81,-334.68 275.6,-332.99"/>
</g>
<!-- Education&#45;&gt;Satisfaction -->
<g id="edge6" class="edge">
<title>Education&#45;&gt;Satisfaction</title>
<path fill="none" stroke="black" d="M194.19,-360.03C190.91,-349.73 187.08,-336.26 185,-324 172.51,-250.33 170.75,-161.92 170.74,-118.21"/>
<polygon fill="black" stroke="black" points="174.24,-118.11 170.77,-108.1 167.24,-118.09 174.24,-118.11"/>
</g>
<!-- Education&#45;&gt;Employment -->
<g id="edge7" class="edge">
<title>Education&#45;&gt;Employment</title>
<path fill="none" stroke="black" d="M215.17,-360.41C223.1,-351.73 232.96,-340.95 241.74,-331.34"/>
<polygon fill="black" stroke="black" points="244.33,-333.7 248.5,-323.96 239.17,-328.97 244.33,-333.7"/>
</g>
<!-- Employment&#45;&gt;Satisfaction -->
<g id="edge8" class="edge">
<title>Employment&#45;&gt;Satisfaction</title>
<path fill="none" stroke="black" d="M256.47,-288.04C245.82,-264.03 225.78,-218.72 209,-180 199.95,-159.12 189.84,-135.43 182.33,-117.74"/>
<polygon fill="black" stroke="black" points="185.36,-115.92 178.23,-108.09 178.91,-118.66 185.36,-115.92"/>
</g>
<!-- Living Environment -->
<g id="node6" class="node">
<title>Living Environment</title>
<ellipse fill="none" stroke="black" cx="321" cy="-162" rx="102.88" ry="18"/>
<text text-anchor="middle" x="321" y="-158.3" font-family="Times,serif" font-size="14.00">Living Environment</text>
</g>
<!-- Employment&#45;&gt;Living Environment -->
<g id="edge9" class="edge">
<title>Employment&#45;&gt;Living Environment</title>
<path fill="none" stroke="black" d="M270.88,-287.87C280.68,-263.46 298.75,-218.43 310.31,-189.64"/>
<polygon fill="black" stroke="black" points="313.62,-190.77 314.1,-180.19 307.13,-188.17 313.62,-190.77"/>
</g>
<!-- T -->
<g id="node7" class="node">
<title>T</title>
<ellipse fill="none" stroke="black" cx="417" cy="-234" rx="27" ry="18"/>
<text text-anchor="middle" x="417" y="-230.3" font-family="Times,serif" font-size="14.00">T</text>
</g>
<!-- Employment&#45;&gt;T -->
<g id="edge10" class="edge">
<title>Employment&#45;&gt;T</title>
<path fill="none" stroke="black" d="M296.82,-289.98C323.14,-277.94 359.83,-261.16 385.72,-249.31"/>
<polygon fill="black" stroke="black" points="387.44,-252.37 395.08,-245.03 384.53,-246.01 387.44,-252.37"/>
</g>
<!-- Living Environment&#45;&gt;Satisfaction -->
<g id="edge11" class="edge">
<title>Living Environment&#45;&gt;Satisfaction</title>
<path fill="none" stroke="black" d="M286.59,-144.94C264.39,-134.58 235.4,-121.05 212.01,-110.14"/>
<polygon fill="black" stroke="black" points="213.24,-106.85 202.69,-105.79 210.28,-113.19 213.24,-106.85"/>
</g>
<!-- Living Environment&#45;&gt;Y -->
<g id="edge12" class="edge">
<title>Living Environment&#45;&gt;Y</title>
<path fill="none" stroke="black" d="M308.62,-143.81C294.61,-125.01 270.56,-94.55 246,-72 231.61,-58.78 213.81,-46.07 199.16,-36.41"/>
<polygon fill="black" stroke="black" points="200.8,-33.31 190.5,-30.82 197,-39.19 200.8,-33.31"/>
</g>
<!-- T&#45;&gt;Satisfaction -->
<g id="edge13" class="edge">
<title>T&#45;&gt;Satisfaction</title>
<path fill="none" stroke="black" d="M426.74,-216.95C437.15,-197.51 450,-164.78 433,-144 409.55,-115.33 313.45,-101.8 244.44,-95.69"/>
<polygon fill="black" stroke="black" points="244.72,-92.2 234.46,-94.84 244.13,-99.17 244.72,-92.2"/>
</g>
<!-- T&#45;&gt;Y -->
<g id="edge14" class="edge">
<title>T&#45;&gt;Y</title>
<path fill="none" stroke="black" d="M430.58,-218.25C445.81,-199.84 466.48,-167.87 451,-144 396.5,-59.98 270.9,-31.95 208.13,-22.98"/>
<polygon fill="black" stroke="black" points="208.26,-19.47 197.89,-21.61 207.33,-26.41 208.26,-19.47"/>
</g>
<!-- T&#45;&gt;Living Environment -->
<g id="edge15" class="edge">
<title>T&#45;&gt;Living Environment</title>
<path fill="none" stroke="black" d="M399.39,-220.16C386.24,-210.57 367.91,-197.21 352.29,-185.81"/>
<polygon fill="black" stroke="black" points="354.08,-182.79 343.93,-179.72 349.95,-188.44 354.08,-182.79"/>
</g>
<!-- Demographics -->
<g id="node8" class="node">
<title>Demographics</title>
<ellipse fill="none" stroke="black" cx="235" cy="-522" rx="77.19" ry="18"/>
<text text-anchor="middle" x="235" y="-518.3" font-family="Times,serif" font-size="14.00">Demographics</text>
</g>
<!-- Demographics&#45;&gt;Satisfaction -->
<g id="edge16" class="edge">
<title>Demographics&#45;&gt;Satisfaction</title>
<path fill="none" stroke="black" d="M184.52,-508.35C126.16,-490.35 38,-451.2 38,-379 38,-379 38,-379 38,-305 38,-225.57 104.92,-151.15 143.82,-114.6"/>
<polygon fill="black" stroke="black" points="146.67,-116.73 151.66,-107.39 141.93,-111.58 146.67,-116.73"/>
</g>
<!-- Demographics&#45;&gt;Y -->
<g id="edge17" class="edge">
<title>Demographics&#45;&gt;Y</title>
<path fill="none" stroke="black" d="M167.7,-513.06C131.4,-506.02 87.5,-492.8 55,-468 18.03,-439.79 0,-425.5 0,-379 0,-379 0,-379 0,-161 0,-90.42 87.29,-48.21 137.13,-29.86"/>
<polygon fill="black" stroke="black" points="138.61,-33.05 146.86,-26.4 136.27,-26.45 138.61,-33.05"/>
</g>
<!-- Demographics&#45;&gt;Health -->
<g id="edge18" class="edge">
<title>Demographics&#45;&gt;Health</title>
<path fill="none" stroke="black" d="M218.41,-504.41C209.39,-495.39 198.09,-484.09 188.21,-474.21"/>
<polygon fill="black" stroke="black" points="190.53,-471.58 180.99,-466.99 185.58,-476.53 190.53,-471.58"/>
</g>
<!-- Demographics&#45;&gt;Education -->
<g id="edge19" class="edge">
<title>Demographics&#45;&gt;Education</title>
<path fill="none" stroke="black" d="M231.78,-503.84C228.29,-485.84 222.38,-456.79 216,-432 213.79,-423.4 211.09,-414.1 208.54,-405.73"/>
<polygon fill="black" stroke="black" points="211.85,-404.6 205.55,-396.08 205.17,-406.67 211.85,-404.6"/>
</g>
<!-- Demographics&#45;&gt;Employment -->
<g id="edge20" class="edge">
<title>Demographics&#45;&gt;Employment</title>
<path fill="none" stroke="black" d="M244.5,-503.87C256.93,-480.38 278.06,-436.48 286,-396 289.08,-380.3 289.13,-375.69 286,-360 284.21,-351.01 280.86,-341.64 277.31,-333.32"/>
<polygon fill="black" stroke="black" points="280.46,-331.77 273.13,-324.12 274.08,-334.67 280.46,-331.77"/>
</g>
<!-- Demographics&#45;&gt;Living Environment -->
<g id="edge21" class="edge">
<title>Demographics&#45;&gt;Living Environment</title>
<path fill="none" stroke="black" d="M264.14,-505.31C301.63,-482.76 362,-437.38 362,-379 362,-379 362,-379 362,-305 362,-263.41 345.56,-217.56 333.5,-189.51"/>
<polygon fill="black" stroke="black" points="336.55,-187.75 329.3,-180.03 330.15,-190.59 336.55,-187.75"/>
</g>
<!-- Demographics&#45;&gt;T -->
<g id="edge22" class="edge">
<title>Demographics&#45;&gt;T</title>
<path fill="none" stroke="black" d="M298.36,-511.63C326.13,-504.3 356.71,-491.24 376,-468 425.64,-408.18 424.29,-309.46 420.22,-262.06"/>
<polygon fill="black" stroke="black" points="423.68,-261.57 419.24,-251.95 416.72,-262.25 423.68,-261.57"/>
</g>
</g>
</svg>
