<?xml version="1.0" encoding="UTF-8" standalone="no"?>
<!DOCTYPE svg PUBLIC "-//W3C//DTD SVG 1.1//EN"
 "http://www.w3.org/Graphics/SVG/1.1/DTD/svg11.dtd">
<!-- Generated by graphviz version 2.43.0 (0)
 -->
<!-- Pages: 1 -->
<svg width="292pt" height="360pt"
 viewBox="0.00 0.00 291.51 360.00" xmlns="http://www.w3.org/2000/svg" xmlns:xlink="http://www.w3.org/1999/xlink">
<g id="graph0" class="graph" transform="scale(0.05 0.05) rotate(0) translate(4 6790.9)">
<polygon fill="white" stroke="transparent" points="-4,4 -4,-6790.9 5498.22,-6790.9 5498.22,4 -4,4"/>
<!-- Y11_Q57 -->
<g id="node1" class="node">
<title>Y11_Q57</title>
<ellipse fill="none" stroke="black" cx="3303.22" cy="-3393" rx="171.24" ry="44.6"/>
<text text-anchor="middle" x="3303.22" y="-3380.5" font-family="Times,serif" font-size="50.00">Y11_Q57</text>
</g>
<!-- Y11_MWIndex -->
<g id="node2" class="node">
<title>Y11_MWIndex</title>
<ellipse fill="none" stroke="black" cx="2621.22" cy="-360" rx="270.23" ry="44.6"/>
<text text-anchor="middle" x="2621.22" y="-347.5" font-family="Times,serif" font-size="50.00">Y11_MWIndex</text>
</g>
<!-- Y11_Q57&#45;&gt;Y11_MWIndex -->
<g id="edge1" class="edge">
<title>Y11_Q57&#45;&gt;Y11_MWIndex</title>
<path fill="none" stroke="black" d="M3296.1,-3348.37C3272.31,-3203.83 3192.29,-2727.63 3108.22,-2337.45 2942.65,-1568.98 2697.12,-643.73 2635.6,-414.36"/>
<polygon fill="black" stroke="black" points="2638.95,-413.35 2632.98,-404.6 2632.19,-415.17 2638.95,-413.35"/>
</g>
<!-- Y11_Q18 -->
<g id="node3" class="node">
<title>Y11_Q18</title>
<ellipse fill="none" stroke="black" cx="3455.22" cy="-2382" rx="171.24" ry="44.6"/>
<text text-anchor="middle" x="3455.22" y="-2369.5" font-family="Times,serif" font-size="50.00">Y11_Q18</text>
</g>
<!-- Y11_Q57&#45;&gt;Y11_Q18 -->
<g id="edge2" class="edge">
<title>Y11_Q57&#45;&gt;Y11_Q18</title>
<path fill="none" stroke="black" d="M3309.8,-3348.32C3334.32,-3185.61 3420.28,-2614.95 3447.14,-2436.65"/>
<polygon fill="black" stroke="black" points="3450.61,-2437.12 3448.64,-2426.71 3443.69,-2436.08 3450.61,-2437.12"/>
</g>
<!-- Y11_Accommproblems -->
<g id="node4" class="node">
<title>Y11_Accommproblems</title>
<ellipse fill="none" stroke="black" cx="4099.22" cy="-2382" rx="417.39" ry="44.6"/>
<text text-anchor="middle" x="4099.22" y="-2369.5" font-family="Times,serif" font-size="50.00">Y11_Accommproblems</text>
</g>
<!-- Y11_Q57&#45;&gt;Y11_Accommproblems -->
<g id="edge3" class="edge">
<title>Y11_Q57&#45;&gt;Y11_Accommproblems</title>
<path fill="none" stroke="black" d="M3336.92,-3349.29C3464.72,-3187.29 3919.34,-2611.02 4058.47,-2434.66"/>
<polygon fill="black" stroke="black" points="4061.41,-2436.59 4064.85,-2426.57 4055.91,-2432.25 4061.41,-2436.59"/>
</g>
<!-- Y11_Q40a -->
<g id="node5" class="node">
<title>Y11_Q40a</title>
<ellipse fill="none" stroke="black" cx="2511.22" cy="-1371" rx="192.17" ry="44.6"/>
<text text-anchor="middle" x="2511.22" y="-1358.5" font-family="Times,serif" font-size="50.00">Y11_Q40a</text>
</g>
<!-- Y11_Q57&#45;&gt;Y11_Q40a -->
<g id="edge4" class="edge">
<title>Y11_Q57&#45;&gt;Y11_Q40a</title>
<path fill="none" stroke="black" d="M3299.11,-3348.38C3284.17,-3201.39 3225.89,-2712.49 3080.22,-2337.45 2934.47,-1962.19 2652.6,-1562.82 2549.88,-1423.48"/>
<polygon fill="black" stroke="black" points="2552.42,-1421.03 2543.66,-1415.07 2546.79,-1425.19 2552.42,-1421.03"/>
</g>
<!-- Y11_Q40c -->
<g id="node6" class="node">
<title>Y11_Q40c</title>
<ellipse fill="none" stroke="black" cx="3654.22" cy="-1371" rx="190.42" ry="44.6"/>
<text text-anchor="middle" x="3654.22" y="-1358.5" font-family="Times,serif" font-size="50.00">Y11_Q40c</text>
</g>
<!-- Y11_Q57&#45;&gt;Y11_Q40c -->
<g id="edge5" class="edge">
<title>Y11_Q57&#45;&gt;Y11_Q40c</title>
<path fill="none" stroke="black" d="M3292.78,-3348.48C3259.62,-3203.32 3163.38,-2723.07 3242.22,-2337.45 3317.77,-1967.94 3540.43,-1564.91 3622.97,-1424.04"/>
<polygon fill="black" stroke="black" points="3626.15,-1425.54 3628.2,-1415.14 3620.12,-1421.99 3626.15,-1425.54"/>
</g>
<!-- Y11_Q40d -->
<g id="node7" class="node">
<title>Y11_Q40d</title>
<ellipse fill="none" stroke="black" cx="4582.22" cy="-1371" rx="193.99" ry="44.6"/>
<text text-anchor="middle" x="4582.22" y="-1358.5" font-family="Times,serif" font-size="50.00">Y11_Q40d</text>
</g>
<!-- Y11_Q57&#45;&gt;Y11_Q40d -->
<g id="edge6" class="edge">
<title>Y11_Q57&#45;&gt;Y11_Q40d</title>
<path fill="none" stroke="black" d="M3296.69,-3348.39C3271.16,-3172.76 3184.06,-2518.13 3275.22,-2337.45 3533.5,-1825.58 4205.46,-1517.95 4471.47,-1412.9"/>
<polygon fill="black" stroke="black" points="4473.12,-1416.01 4481.14,-1409.09 4470.55,-1409.49 4473.12,-1416.01"/>
</g>
<!-- Y11_Q40e -->
<g id="node8" class="node">
<title>Y11_Q40e</title>
<ellipse fill="none" stroke="black" cx="558.22" cy="-1371" rx="191.75" ry="44.6"/>
<text text-anchor="middle" x="558.22" y="-1358.5" font-family="Times,serif" font-size="50.00">Y11_Q40e</text>
</g>
<!-- Y11_Q57&#45;&gt;Y11_Q40e -->
<g id="edge7" class="edge">
<title>Y11_Q57&#45;&gt;Y11_Q40e</title>
<path fill="none" stroke="black" d="M3283.72,-3348.54C3223.12,-3213.06 3033.56,-2785.96 2890.22,-2426.55 2874.58,-2387.32 2886.44,-2367.94 2857.22,-2337.45 2246.95,-1700.44 1151.49,-1465.82 729.99,-1396.61"/>
<polygon fill="black" stroke="black" points="730.28,-1393.11 719.85,-1394.95 729.15,-1400.02 730.28,-1393.11"/>
</g>
<!-- Y11_Q40f -->
<g id="node9" class="node">
<title>Y11_Q40f</title>
<ellipse fill="none" stroke="black" cx="1274.22" cy="-1371" rx="183.7" ry="44.6"/>
<text text-anchor="middle" x="1274.22" y="-1358.5" font-family="Times,serif" font-size="50.00">Y11_Q40f</text>
</g>
<!-- Y11_Q57&#45;&gt;Y11_Q40f -->
<g id="edge8" class="edge">
<title>Y11_Q57&#45;&gt;Y11_Q40f</title>
<path fill="none" stroke="black" d="M3296.55,-3348.43C3270.88,-3193.75 3165.84,-2662.84 2890.22,-2337.45 2457.37,-1826.43 1682.02,-1514.9 1389.85,-1410.93"/>
<polygon fill="black" stroke="black" points="1390.68,-1407.51 1380.09,-1407.47 1388.34,-1414.11 1390.68,-1407.51"/>
</g>
<!-- Y11_Q40g -->
<g id="node10" class="node">
<title>Y11_Q40g</title>
<ellipse fill="none" stroke="black" cx="2107.22" cy="-1371" rx="193.99" ry="44.6"/>
<text text-anchor="middle" x="2107.22" y="-1358.5" font-family="Times,serif" font-size="50.00">Y11_Q40g</text>
</g>
<!-- Y11_Q57&#45;&gt;Y11_Q40g -->
<g id="edge9" class="edge">
<title>Y11_Q57&#45;&gt;Y11_Q40g</title>
<path fill="none" stroke="black" d="M3298.27,-3348.27C3279.81,-3198.4 3205.42,-2695.07 3004.22,-2337.45 2772.69,-1925.91 2331.45,-1550.42 2169.14,-1420.35"/>
<polygon fill="black" stroke="black" points="2171.16,-1417.48 2161.16,-1413.97 2166.79,-1422.95 2171.16,-1417.48"/>
</g>
<!-- Y11_RuralUrban -->
<g id="node11" class="node">
<title>Y11_RuralUrban</title>
<ellipse fill="none" stroke="black" cx="2539.22" cy="-2382" rx="309.01" ry="44.6"/>
<text text-anchor="middle" x="2539.22" y="-2369.5" font-family="Times,serif" font-size="50.00">Y11_RuralUrban</text>
</g>
<!-- Y11_Q57&#45;&gt;Y11_RuralUrban -->
<g id="edge10" class="edge">
<title>Y11_Q57&#45;&gt;Y11_RuralUrban</title>
<path fill="none" stroke="black" d="M3270.64,-3348.97C3147.63,-3186.51 2711.7,-2610.78 2578.3,-2434.61"/>
<polygon fill="black" stroke="black" points="2581.01,-2432.38 2572.18,-2426.52 2575.43,-2436.61 2581.01,-2432.38"/>
</g>
<!-- Y11_Q50d -->
<g id="node12" class="node">
<title>Y11_Q50d</title>
<ellipse fill="none" stroke="black" cx="1274.22" cy="-2382" rx="193.99" ry="44.6"/>
<text text-anchor="middle" x="1274.22" y="-2369.5" font-family="Times,serif" font-size="50.00">Y11_Q50d</text>
</g>
<!-- Y11_Q57&#45;&gt;Y11_Q50d -->
<g id="edge11" class="edge">
<title>Y11_Q57&#45;&gt;Y11_Q50d</title>
<path fill="none" stroke="black" d="M3225.24,-3353.22C2906.26,-3194.6 1701.84,-2595.65 1363.26,-2427.27"/>
<polygon fill="black" stroke="black" points="1364.49,-2423.98 1353.97,-2422.66 1361.37,-2430.25 1364.49,-2423.98"/>
</g>
<!-- Y11_Q53a -->
<g id="node13" class="node">
<title>Y11_Q53a</title>
<ellipse fill="none" stroke="black" cx="1830.22" cy="-2382" rx="192.17" ry="44.6"/>
<text text-anchor="middle" x="1830.22" y="-2369.5" font-family="Times,serif" font-size="50.00">Y11_Q53a</text>
</g>
<!-- Y11_Q57&#45;&gt;Y11_Q53a -->
<g id="edge12" class="edge">
<title>Y11_Q57&#45;&gt;Y11_Q53a</title>
<path fill="none" stroke="black" d="M3243.66,-3351.2C3008.96,-3190.43 2148.84,-2601.25 1898.81,-2429.98"/>
<polygon fill="black" stroke="black" points="1900.76,-2427.08 1890.53,-2424.31 1896.81,-2432.85 1900.76,-2427.08"/>
</g>
<!-- Y11_Q18&#45;&gt;Y11_MWIndex -->
<g id="edge102" class="edge">
<title>Y11_Q18&#45;&gt;Y11_MWIndex</title>
<path fill="none" stroke="black" d="M3449.12,-2337.39C3427.59,-2190.44 3348.06,-1701.64 3194.22,-1326.45 3041.22,-953.3 2761.21,-552.63 2659.46,-412.71"/>
<polygon fill="black" stroke="black" points="2662.03,-410.29 2653.31,-404.27 2656.37,-414.41 2662.03,-410.29"/>
</g>
<!-- Y11_Q18&#45;&gt;Y11_Q40a -->
<g id="edge103" class="edge">
<title>Y11_Q18&#45;&gt;Y11_Q40a</title>
<path fill="none" stroke="black" d="M3415.56,-2338.61C3264.02,-2176.63 2721.85,-1597.13 2558.28,-1422.29"/>
<polygon fill="black" stroke="black" points="2560.62,-1419.68 2551.24,-1414.77 2555.51,-1424.46 2560.62,-1419.68"/>
</g>
<!-- Y11_Q18&#45;&gt;Y11_Q40c -->
<g id="edge104" class="edge">
<title>Y11_Q18&#45;&gt;Y11_Q40c</title>
<path fill="none" stroke="black" d="M3463.84,-2337.32C3495.93,-2174.61 3608.48,-1603.95 3643.64,-1425.65"/>
<polygon fill="black" stroke="black" points="3647.1,-1426.2 3645.6,-1415.71 3640.23,-1424.85 3647.1,-1426.2"/>
</g>
<!-- Y11_Q18&#45;&gt;Y11_Q40d -->
<g id="edge105" class="edge">
<title>Y11_Q18&#45;&gt;Y11_Q40d</title>
<path fill="none" stroke="black" d="M3502.22,-2338.93C3683.1,-2176.99 4333.91,-1594.32 4527.52,-1420.98"/>
<polygon fill="black" stroke="black" points="4529.92,-1423.53 4535.03,-1414.25 4525.25,-1418.31 4529.92,-1423.53"/>
</g>
<!-- Y11_Q18&#45;&gt;Y11_Q40e -->
<g id="edge106" class="edge">
<title>Y11_Q18&#45;&gt;Y11_Q40e</title>
<path fill="none" stroke="black" d="M3354.24,-2345.83C2911.11,-2191.49 1140.08,-1574.66 672.11,-1411.67"/>
<polygon fill="black" stroke="black" points="673.23,-1408.35 662.64,-1408.37 670.93,-1414.96 673.23,-1408.35"/>
</g>
<!-- Y11_Q18&#45;&gt;Y11_Q40f -->
<g id="edge107" class="edge">
<title>Y11_Q18&#45;&gt;Y11_Q40f</title>
<path fill="none" stroke="black" d="M3372.72,-2342.83C3031.01,-2184.75 1727.77,-1581.82 1367.18,-1415"/>
<polygon fill="black" stroke="black" points="1368.61,-1411.81 1358.06,-1410.79 1365.67,-1418.16 1368.61,-1411.81"/>
</g>
<!-- Y11_Q18&#45;&gt;Y11_Q40g -->
<g id="edge108" class="edge">
<title>Y11_Q18&#45;&gt;Y11_Q40g</title>
<path fill="none" stroke="black" d="M3399.87,-2339.56C3184.3,-2178.21 2401.53,-1592.29 2171.32,-1419.98"/>
<polygon fill="black" stroke="black" points="2173.14,-1416.97 2163.04,-1413.78 2168.95,-1422.57 2173.14,-1416.97"/>
</g>
<!-- Y11_Accommproblems&#45;&gt;Y11_MWIndex -->
<g id="edge141" class="edge">
<title>Y11_Accommproblems&#45;&gt;Y11_MWIndex</title>
<path fill="none" stroke="black" d="M4099.08,-2337.41C4096.64,-2185.39 4071.8,-1669.24 3853.22,-1326.45 3555.51,-859.55 2951.13,-524.23 2716.94,-406.85"/>
<polygon fill="black" stroke="black" points="2718.27,-403.6 2707.76,-402.26 2715.14,-409.86 2718.27,-403.6"/>
</g>
<!-- Y11_Accommproblems&#45;&gt;Y11_Q40a -->
<g id="edge142" class="edge">
<title>Y11_Accommproblems&#45;&gt;Y11_Q40a</title>
<path fill="none" stroke="black" d="M4031.5,-2337.97C3773.23,-2173.87 2851.32,-1588.09 2584.23,-1418.39"/>
<polygon fill="black" stroke="black" points="2586.08,-1415.41 2575.76,-1413 2582.32,-1421.32 2586.08,-1415.41"/>
</g>
<!-- Y11_Accommproblems&#45;&gt;Y11_Q40c -->
<g id="edge143" class="edge">
<title>Y11_Accommproblems&#45;&gt;Y11_Q40c</title>
<path fill="none" stroke="black" d="M4079.96,-2337.32C4008.09,-2174.36 3755.73,-1602.16 3677.52,-1424.81"/>
<polygon fill="black" stroke="black" points="3680.62,-1423.17 3673.38,-1415.43 3674.21,-1425.99 3680.62,-1423.17"/>
</g>
<!-- Y11_Accommproblems&#45;&gt;Y11_Q40d -->
<g id="edge144" class="edge">
<title>Y11_Accommproblems&#45;&gt;Y11_Q40d</title>
<path fill="none" stroke="black" d="M4120.13,-2337.32C4198.18,-2174.28 4472.32,-1601.59 4557.07,-1424.55"/>
<polygon fill="black" stroke="black" points="4560.27,-1425.96 4561.43,-1415.43 4553.96,-1422.94 4560.27,-1425.96"/>
</g>
<!-- Y11_Accommproblems&#45;&gt;Y11_Q40e -->
<g id="edge145" class="edge">
<title>Y11_Accommproblems&#45;&gt;Y11_Q40e</title>
<path fill="none" stroke="black" d="M3955.75,-2340.12C3379.37,-2175.88 1237.08,-1565.44 687.41,-1408.81"/>
<polygon fill="black" stroke="black" points="688.04,-1405.35 677.47,-1405.98 686.12,-1412.08 688.04,-1405.35"/>
</g>
<!-- Y11_Accommproblems&#45;&gt;Y11_Q40f -->
<g id="edge146" class="edge">
<title>Y11_Accommproblems&#45;&gt;Y11_Q40f</title>
<path fill="none" stroke="black" d="M3981.88,-2339.09C3520.49,-2174.3 1834.38,-1572.07 1384.94,-1411.54"/>
<polygon fill="black" stroke="black" points="1386.11,-1408.24 1375.51,-1408.18 1383.75,-1414.84 1386.11,-1408.24"/>
</g>
<!-- Y11_Accommproblems&#45;&gt;Y11_Q40g -->
<g id="edge147" class="edge">
<title>Y11_Accommproblems&#45;&gt;Y11_Q40g</title>
<path fill="none" stroke="black" d="M4014.9,-2338.29C3690.54,-2173.99 2524.93,-1583.58 2194.88,-1416.4"/>
<polygon fill="black" stroke="black" points="2196.33,-1413.21 2185.83,-1411.81 2193.16,-1419.45 2196.33,-1413.21"/>
</g>
<!-- Y11_Q40a&#45;&gt;Y11_MWIndex -->
<g id="edge148" class="edge">
<title>Y11_Q40a&#45;&gt;Y11_MWIndex</title>
<path fill="none" stroke="black" d="M2515.99,-1326.32C2533.72,-1163.7 2595.88,-593.52 2615.35,-414.91"/>
<polygon fill="black" stroke="black" points="2618.85,-415.03 2616.46,-404.71 2611.9,-414.28 2618.85,-415.03"/>
</g>
<!-- Y11_Q40c&#45;&gt;Y11_MWIndex -->
<g id="edge149" class="edge">
<title>Y11_Q40c&#45;&gt;Y11_MWIndex</title>
<path fill="none" stroke="black" d="M3610.83,-1327.61C3444.92,-1165.56 2851.21,-585.64 2672.49,-411.07"/>
<polygon fill="black" stroke="black" points="2674.9,-408.53 2665.3,-404.05 2670.01,-413.54 2674.9,-408.53"/>
</g>
<!-- Y11_Q40d&#45;&gt;Y11_MWIndex -->
<g id="edge150" class="edge">
<title>Y11_Q40d&#45;&gt;Y11_MWIndex</title>
<path fill="none" stroke="black" d="M4504.75,-1330.14C4194.52,-1170.52 3042.83,-577.93 2711.14,-407.27"/>
<polygon fill="black" stroke="black" points="2712.53,-404.05 2702.04,-402.58 2709.33,-410.27 2712.53,-404.05"/>
</g>
<!-- Y11_Q40e&#45;&gt;Y11_MWIndex -->
<g id="edge151" class="edge">
<title>Y11_Q40e&#45;&gt;Y11_MWIndex</title>
<path fill="none" stroke="black" d="M639.1,-1330.45C964.83,-1171.13 2179.81,-576.89 2527.64,-406.77"/>
<polygon fill="black" stroke="black" points="2529.24,-409.89 2536.69,-402.35 2526.16,-403.6 2529.24,-409.89"/>
</g>
<!-- Y11_Q40f&#45;&gt;Y11_MWIndex -->
<g id="edge152" class="edge">
<title>Y11_Q40f&#45;&gt;Y11_MWIndex</title>
<path fill="none" stroke="black" d="M1329.96,-1328.25C1545.63,-1166.7 2324.78,-583.06 2556.06,-409.81"/>
<polygon fill="black" stroke="black" points="2558.48,-412.37 2564.39,-403.58 2554.28,-406.77 2558.48,-412.37"/>
</g>
<!-- Y11_Q40g&#45;&gt;Y11_MWIndex -->
<g id="edge153" class="edge">
<title>Y11_Q40g&#45;&gt;Y11_MWIndex</title>
<path fill="none" stroke="black" d="M2129.31,-1326.64C2212.14,-1164.06 2504.15,-590.83 2594.43,-413.6"/>
<polygon fill="black" stroke="black" points="2597.66,-414.98 2599.08,-404.48 2591.42,-411.8 2597.66,-414.98"/>
</g>
<!-- Y11_RuralUrban&#45;&gt;Y11_MWIndex -->
<g id="edge178" class="edge">
<title>Y11_RuralUrban&#45;&gt;Y11_MWIndex</title>
<path fill="none" stroke="black" d="M2549.97,-2337.11C2582.6,-2201.25 2680.26,-1775.13 2712.22,-1415.55 2746.3,-1032.19 2663.71,-570.27 2632.54,-414.92"/>
<polygon fill="black" stroke="black" points="2635.89,-413.81 2630.48,-404.7 2629.03,-415.2 2635.89,-413.81"/>
</g>
<!-- Y11_RuralUrban&#45;&gt;Y11_Q40a -->
<g id="edge179" class="edge">
<title>Y11_RuralUrban&#45;&gt;Y11_Q40a</title>
<path fill="none" stroke="black" d="M2538.01,-2337.32C2533.5,-2174.7 2517.68,-1604.52 2512.72,-1425.91"/>
<polygon fill="black" stroke="black" points="2516.21,-1425.61 2512.44,-1415.71 2509.22,-1425.81 2516.21,-1425.61"/>
</g>
<!-- Y11_RuralUrban&#45;&gt;Y11_Q40c -->
<g id="edge180" class="edge">
<title>Y11_RuralUrban&#45;&gt;Y11_Q40c</title>
<path fill="none" stroke="black" d="M2586.78,-2337.97C2767.16,-2174.74 3408.59,-1594.29 3599.95,-1421.12"/>
<polygon fill="black" stroke="black" points="3602.31,-1423.7 3607.37,-1414.4 3597.61,-1418.51 3602.31,-1423.7"/>
</g>
<!-- Y11_RuralUrban&#45;&gt;Y11_Q40d -->
<g id="edge181" class="edge">
<title>Y11_RuralUrban&#45;&gt;Y11_Q40d</title>
<path fill="none" stroke="black" d="M2624.09,-2339.09C2954.67,-2175.82 4154.65,-1583.17 4492.91,-1416.11"/>
<polygon fill="black" stroke="black" points="4494.53,-1419.21 4501.95,-1411.65 4491.43,-1412.94 4494.53,-1419.21"/>
</g>
<!-- Y11_RuralUrban&#45;&gt;Y11_Q40e -->
<g id="edge182" class="edge">
<title>Y11_RuralUrban&#45;&gt;Y11_Q40e</title>
<path fill="none" stroke="black" d="M2456.63,-2338.93C2135.79,-2175.51 973.83,-1583.69 645.3,-1416.35"/>
<polygon fill="black" stroke="black" points="646.79,-1413.18 636.29,-1411.76 643.61,-1419.42 646.79,-1413.18"/>
</g>
<!-- Y11_RuralUrban&#45;&gt;Y11_Q40f -->
<g id="edge183" class="edge">
<title>Y11_RuralUrban&#45;&gt;Y11_Q40f</title>
<path fill="none" stroke="black" d="M2485.27,-2337.97C2280.29,-2174.47 1550.53,-1592.39 1334.74,-1420.27"/>
<polygon fill="black" stroke="black" points="1336.68,-1417.34 1326.68,-1413.84 1332.31,-1422.81 1336.68,-1417.34"/>
</g>
<!-- Y11_RuralUrban&#45;&gt;Y11_Q40g -->
<g id="edge184" class="edge">
<title>Y11_RuralUrban&#45;&gt;Y11_Q40g</title>
<path fill="none" stroke="black" d="M2520.52,-2337.32C2450.75,-2174.36 2205.77,-1602.16 2129.84,-1424.81"/>
<polygon fill="black" stroke="black" points="2132.97,-1423.25 2125.82,-1415.43 2126.54,-1426 2132.97,-1423.25"/>
</g>
<!-- Y11_Q50d&#45;&gt;Y11_MWIndex -->
<g id="edge185" class="edge">
<title>Y11_Q50d&#45;&gt;Y11_MWIndex</title>
<path fill="none" stroke="black" d="M1296.08,-2337.5C1370.31,-2190.93 1622.17,-1703.15 1873.22,-1326.45 2117.31,-960.21 2457.35,-553.15 2577.26,-412.25"/>
<polygon fill="black" stroke="black" points="2580,-414.43 2583.82,-404.55 2574.67,-409.89 2580,-414.43"/>
</g>
<!-- Y11_Q50d&#45;&gt;Y11_Q40a -->
<g id="edge186" class="edge">
<title>Y11_Q50d&#45;&gt;Y11_Q40a</title>
<path fill="none" stroke="black" d="M1325.8,-2338.93C1524.55,-2176.81 2240.19,-1593.08 2451.86,-1420.43"/>
<polygon fill="black" stroke="black" points="2454.23,-1423 2459.77,-1413.97 2449.81,-1417.58 2454.23,-1423"/>
</g>
<!-- Y11_Q50d&#45;&gt;Y11_Q40c -->
<g id="edge187" class="edge">
<title>Y11_Q50d&#45;&gt;Y11_Q40c</title>
<path fill="none" stroke="black" d="M1364.98,-2342.53C1739.51,-2183.74 3163.61,-1579.99 3554.47,-1414.29"/>
<polygon fill="black" stroke="black" points="3555.95,-1417.47 3563.79,-1410.34 3553.22,-1411.02 3555.95,-1417.47"/>
</g>
<!-- Y11_Q50d&#45;&gt;Y11_Q40d -->
<g id="edge188" class="edge">
<title>Y11_Q50d&#45;&gt;Y11_Q40d</title>
<path fill="none" stroke="black" d="M1389.05,-2345.97C1896.03,-2191.34 3931.96,-1570.34 4457.78,-1409.96"/>
<polygon fill="black" stroke="black" points="4459.13,-1413.2 4467.68,-1406.94 4457.09,-1406.51 4459.13,-1413.2"/>
</g>
<!-- Y11_Q50d&#45;&gt;Y11_Q40e -->
<g id="edge189" class="edge">
<title>Y11_Q50d&#45;&gt;Y11_Q40e</title>
<path fill="none" stroke="black" d="M1243.69,-2337.97C1128.4,-2175.5 719.8,-1599.7 594.82,-1423.57"/>
<polygon fill="black" stroke="black" points="597.55,-1421.37 588.91,-1415.24 591.84,-1425.42 597.55,-1421.37"/>
</g>
<!-- Y11_Q50d&#45;&gt;Y11_Q40f -->
<g id="edge190" class="edge">
<title>Y11_Q50d&#45;&gt;Y11_Q40f</title>
<path fill="none" stroke="black" d="M1274.22,-2337.32C1274.22,-2174.7 1274.22,-1604.52 1274.22,-1425.91"/>
<polygon fill="black" stroke="black" points="1277.72,-1425.71 1274.22,-1415.71 1270.72,-1425.71 1277.72,-1425.71"/>
</g>
<!-- Y11_Q50d&#45;&gt;Y11_Q40g -->
<g id="edge191" class="edge">
<title>Y11_Q50d&#45;&gt;Y11_Q40g</title>
<path fill="none" stroke="black" d="M1309.75,-2337.97C1444.09,-2175.24 1920.73,-1597.9 2065.33,-1422.75"/>
<polygon fill="black" stroke="black" points="2068.09,-1424.9 2071.76,-1414.96 2062.69,-1420.44 2068.09,-1424.9"/>
</g>
<!-- Y11_Q53a&#45;&gt;Y11_MWIndex -->
<g id="edge192" class="edge">
<title>Y11_Q53a&#45;&gt;Y11_MWIndex</title>
<path fill="none" stroke="black" d="M1824.8,-2337.25C1808.21,-2189.37 1767.2,-1696.74 1904.22,-1326.45 2053.53,-922.97 2427.03,-543.51 2567.06,-410.82"/>
<polygon fill="black" stroke="black" points="2569.49,-413.35 2574.35,-403.93 2564.68,-408.26 2569.49,-413.35"/>
</g>
<!-- Y11_Q53a&#45;&gt;Y11_Q40a -->
<g id="edge193" class="edge">
<title>Y11_Q53a&#45;&gt;Y11_Q40a</title>
<path fill="none" stroke="black" d="M1859.49,-2337.64C1969.45,-2174.72 2357.7,-1599.46 2476.46,-1423.51"/>
<polygon fill="black" stroke="black" points="2479.38,-1425.44 2482.07,-1415.19 2473.58,-1421.52 2479.38,-1425.44"/>
</g>
<!-- Y11_Q53a&#45;&gt;Y11_Q40c -->
<g id="edge194" class="edge">
<title>Y11_Q53a&#45;&gt;Y11_Q40c</title>
<path fill="none" stroke="black" d="M1903.14,-2340.67C2193.56,-2180.01 3267.09,-1586.16 3572.61,-1417.15"/>
<polygon fill="black" stroke="black" points="3574.37,-1420.17 3581.43,-1412.27 3570.98,-1414.05 3574.37,-1420.17"/>
</g>
<!-- Y11_Q53a&#45;&gt;Y11_Q40d -->
<g id="edge195" class="edge">
<title>Y11_Q53a&#45;&gt;Y11_Q40d</title>
<path fill="none" stroke="black" d="M1931.02,-2344.04C2359.08,-2187.1 4024.71,-1576.41 4471.45,-1412.62"/>
<polygon fill="black" stroke="black" points="4472.95,-1415.79 4481.13,-1409.06 4470.54,-1409.22 4472.95,-1415.79"/>
</g>
<!-- Y11_Q53a&#45;&gt;Y11_Q40e -->
<g id="edge196" class="edge">
<title>Y11_Q53a&#45;&gt;Y11_Q40e</title>
<path fill="none" stroke="black" d="M1777.19,-2338.93C1572.82,-2176.81 836.93,-1593.08 619.27,-1420.43"/>
<polygon fill="black" stroke="black" points="621.14,-1417.44 611.13,-1413.97 616.79,-1422.93 621.14,-1417.44"/>
</g>
<!-- Y11_Q53a&#45;&gt;Y11_Q40f -->
<g id="edge197" class="edge">
<title>Y11_Q53a&#45;&gt;Y11_Q40f</title>
<path fill="none" stroke="black" d="M1806.33,-2337.64C1716.64,-2174.88 1400.19,-1600.6 1302.9,-1424.04"/>
<polygon fill="black" stroke="black" points="1305.92,-1422.26 1298.03,-1415.19 1299.79,-1425.64 1305.92,-1422.26"/>
</g>
<!-- Y11_Q53a&#45;&gt;Y11_Q40g -->
<g id="edge198" class="edge">
<title>Y11_Q53a&#45;&gt;Y11_Q40g</title>
<path fill="none" stroke="black" d="M1842.22,-2337.32C1886.91,-2174.53 2043.7,-1603.38 2092.57,-1425.38"/>
<polygon fill="black" stroke="black" points="2095.95,-1426.28 2095.22,-1415.71 2089.2,-1424.43 2095.95,-1426.28"/>
</g>
<!-- Y11_Country -->
<g id="node14" class="node">
<title>Y11_Country</title>
<ellipse fill="none" stroke="black" cx="696.22" cy="-6427" rx="242.58" ry="44.6"/>
<text text-anchor="middle" x="696.22" y="-6414.5" font-family="Times,serif" font-size="50.00">Y11_Country</text>
</g>
<!-- Y11_Country&#45;&gt;Y11_Q57 -->
<g id="edge14" class="edge">
<title>Y11_Country&#45;&gt;Y11_Q57</title>
<path fill="none" stroke="black" d="M761.66,-6384.02C1051.61,-6194.94 2234.96,-5390.54 2887.22,-4449.55 3124.63,-4107.05 3253.76,-3609.71 3291.44,-3447.4"/>
<polygon fill="black" stroke="black" points="3294.85,-3448.18 3293.68,-3437.65 3288.03,-3446.61 3294.85,-3448.18"/>
</g>
<!-- Y11_Country&#45;&gt;Y11_MWIndex -->
<g id="edge13" class="edge">
<title>Y11_Country&#45;&gt;Y11_MWIndex</title>
<path fill="none" stroke="black" d="M658.64,-6382.71C549.01,-6253.47 229.29,-5854.84 102.22,-5460.55 -41.91,-5013.29 26.22,-4875.9 26.22,-4406 26.22,-4406 26.22,-4406 26.22,-2381 26.22,-1905.97 -97.52,-1696.58 200.22,-1326.45 754.44,-637.49 1873.13,-437.8 2371.67,-381.87"/>
<polygon fill="black" stroke="black" points="2372.32,-385.31 2381.87,-380.73 2371.55,-378.36 2372.32,-385.31"/>
</g>
<!-- Y11_Country&#45;&gt;Y11_Q18 -->
<g id="edge16" class="edge">
<title>Y11_Country&#45;&gt;Y11_Q18</title>
<path fill="none" stroke="black" d="M811.8,-6387.78C1256.64,-6233.37 2859.73,-5607.72 3391.22,-4449.55 3726.99,-3717.87 3523.56,-2682.08 3467.99,-2436.62"/>
<polygon fill="black" stroke="black" points="3471.32,-2435.51 3465.69,-2426.54 3464.5,-2437.07 3471.32,-2435.51"/>
</g>
<!-- Y11_Country&#45;&gt;Y11_Accommproblems -->
<g id="edge17" class="edge">
<title>Y11_Country&#45;&gt;Y11_Accommproblems</title>
<path fill="none" stroke="black" d="M813.25,-6387.98C1130.67,-6280.79 2024.49,-5951.68 2627.22,-5460.55 3691.73,-4593.14 4035.44,-2772.63 4090.82,-2436.85"/>
<polygon fill="black" stroke="black" points="4094.28,-2437.33 4092.44,-2426.89 4087.38,-2436.2 4094.28,-2437.33"/>
</g>
<!-- Y11_Country&#45;&gt;Y11_Q40a -->
<g id="edge18" class="edge">
<title>Y11_Country&#45;&gt;Y11_Q40a</title>
<path fill="none" stroke="black" d="M686.37,-6382.44C611.72,-6041.47 161.58,-3776.15 1034.22,-2337.45 1356.85,-1805.56 2097,-1510.01 2389.28,-1410.54"/>
<polygon fill="black" stroke="black" points="2390.72,-1413.75 2399.07,-1407.22 2388.47,-1407.12 2390.72,-1413.75"/>
</g>
<!-- Y11_Country&#45;&gt;Y11_Q40c -->
<g id="edge19" class="edge">
<title>Y11_Country&#45;&gt;Y11_Q40c</title>
<path fill="none" stroke="black" d="M818.41,-6388.4C1146.5,-6283.13 2063.48,-5960.03 2679.22,-5460.55 3121.24,-5102 3157.26,-4928.18 3465.22,-4449.55 4014.47,-3595.92 4282.64,-3412.19 4525.22,-2426.55 4643.99,-1943.98 3986.42,-1545.62 3742.5,-1416.32"/>
<polygon fill="black" stroke="black" points="3744.13,-1413.22 3733.65,-1411.65 3740.86,-1419.41 3744.13,-1413.22"/>
</g>
<!-- Y11_Country&#45;&gt;Y11_Q40d -->
<g id="edge20" class="edge">
<title>Y11_Country&#45;&gt;Y11_Q40d</title>
<path fill="none" stroke="black" d="M825.36,-6389.25C1167.48,-6287.14 2114.02,-5973.25 2743.22,-5460.55 3969.38,-4461.43 4347.09,-3987.34 4603.22,-2426.55 4665.4,-2047.65 4611.64,-1581.97 4590.14,-1425.86"/>
<polygon fill="black" stroke="black" points="4593.56,-1425.02 4588.72,-1415.6 4586.63,-1425.98 4593.56,-1425.02"/>
</g>
<!-- Y11_Country&#45;&gt;Y11_Q40e -->
<g id="edge21" class="edge">
<title>Y11_Country&#45;&gt;Y11_Q40e</title>
<path fill="none" stroke="black" d="M659.26,-6382.68C551.59,-6253.36 238.68,-5854.54 126.22,-5460.55 -2.45,-5009.74 102.22,-4874.81 102.22,-4406 102.22,-4406 102.22,-4406 102.22,-3392 102.22,-2921.21 97.69,-2796.49 202.22,-2337.45 284.33,-1976.9 466.41,-1568.21 533.11,-1424.95"/>
<polygon fill="black" stroke="black" points="536.46,-1426.05 537.52,-1415.5 530.12,-1423.08 536.46,-1426.05"/>
</g>
<!-- Y11_Country&#45;&gt;Y11_Q40f -->
<g id="edge22" class="edge">
<title>Y11_Country&#45;&gt;Y11_Q40f</title>
<path fill="none" stroke="black" d="M661.66,-6382.78C560.3,-6252.95 264.72,-5851.15 164.22,-5460.55 154.36,-5422.2 163.11,-5411.03 164.22,-5371.45 202.49,-4013.01 11.43,-3587.63 544.22,-2337.45 714.22,-1938.56 1084.46,-1555.45 1221.68,-1421.85"/>
<polygon fill="black" stroke="black" points="1224.47,-1424.02 1229.21,-1414.54 1219.6,-1418.99 1224.47,-1424.02"/>
</g>
<!-- Y11_Country&#45;&gt;Y11_Q40g -->
<g id="edge23" class="edge">
<title>Y11_Country&#45;&gt;Y11_Q40g</title>
<path fill="none" stroke="black" d="M681.28,-6382.45C635.85,-6247.56 499.44,-5823.92 450.22,-5460.55 324.2,-4530.17 237.57,-4271.32 410.22,-3348.45 498.85,-2874.74 509.85,-2720.56 802.22,-2337.45 1153.59,-1877.05 1781.79,-1533.68 2015.95,-1416.13"/>
<polygon fill="black" stroke="black" points="2017.74,-1419.15 2025.12,-1411.54 2014.61,-1412.89 2017.74,-1419.15"/>
</g>
<!-- Y11_Country&#45;&gt;Y11_RuralUrban -->
<g id="edge26" class="edge">
<title>Y11_Country&#45;&gt;Y11_RuralUrban</title>
<path fill="none" stroke="black" d="M709.46,-6382.35C754.03,-6236.77 904.95,-5755.38 1066.22,-5371.45 1578.71,-4151.48 2351.53,-2725.45 2510.16,-2435.85"/>
<polygon fill="black" stroke="black" points="2513.37,-2437.27 2515.11,-2426.82 2507.23,-2433.9 2513.37,-2437.27"/>
</g>
<!-- Y11_Country&#45;&gt;Y11_Q50d -->
<g id="edge27" class="edge">
<title>Y11_Country&#45;&gt;Y11_Q50d</title>
<path fill="none" stroke="black" d="M677.5,-6382.35C618.18,-6239.62 439.16,-5772.91 454.22,-5371.45 471.13,-4921.17 441.68,-4802.27 530.22,-4360.45 623.35,-3895.77 699.19,-3791.96 866.22,-3348.45 999.27,-2995.2 1184.6,-2580.5 1250.12,-2435.89"/>
<polygon fill="black" stroke="black" points="1253.32,-2437.32 1254.26,-2426.76 1246.94,-2434.43 1253.32,-2437.32"/>
</g>
<!-- Y11_Country&#45;&gt;Y11_Q53a -->
<g id="edge28" class="edge">
<title>Y11_Country&#45;&gt;Y11_Q53a</title>
<path fill="none" stroke="black" d="M687.82,-6382.23C661.29,-6237.25 584.58,-5759.86 644.22,-5371.45 837.83,-4110.66 1630.83,-2719.49 1798.85,-2435.33"/>
<polygon fill="black" stroke="black" points="1802.02,-2436.86 1804.1,-2426.47 1795.99,-2433.29 1802.02,-2436.86"/>
</g>
<!-- Y11_Q42 -->
<g id="node15" class="node">
<title>Y11_Q42</title>
<ellipse fill="none" stroke="black" cx="2265.22" cy="-5416" rx="171.24" ry="44.6"/>
<text text-anchor="middle" x="2265.22" y="-5403.5" font-family="Times,serif" font-size="50.00">Y11_Q42</text>
</g>
<!-- Y11_Country&#45;&gt;Y11_Q42 -->
<g id="edge15" class="edge">
<title>Y11_Country&#45;&gt;Y11_Q42</title>
<path fill="none" stroke="black" d="M761.64,-6383.93C1014.83,-6221.11 1929.32,-5633.02 2193.37,-5463.21"/>
<polygon fill="black" stroke="black" points="2195.6,-5465.94 2202.12,-5457.58 2191.81,-5460.05 2195.6,-5465.94"/>
</g>
<!-- Y11_Q7 -->
<g id="node16" class="node">
<title>Y11_Q7</title>
<ellipse fill="none" stroke="black" cx="3234.22" cy="-4405" rx="148.48" ry="44.6"/>
<text text-anchor="middle" x="3234.22" y="-4392.5" font-family="Times,serif" font-size="50.00">Y11_Q7</text>
</g>
<!-- Y11_Country&#45;&gt;Y11_Q7 -->
<g id="edge24" class="edge">
<title>Y11_Country&#45;&gt;Y11_Q7</title>
<path fill="none" stroke="black" d="M749.82,-6383.34C1079.49,-6120.96 2829.57,-4728.06 3174.99,-4453.15"/>
<polygon fill="black" stroke="black" points="3177.24,-4455.83 3182.88,-4446.86 3172.88,-4450.35 3177.24,-4455.83"/>
</g>
<!-- Y11_EmploymentStatus -->
<g id="node17" class="node">
<title>Y11_EmploymentStatus</title>
<ellipse fill="none" stroke="black" cx="2440.22" cy="-4405" rx="438.31" ry="44.6"/>
<text text-anchor="middle" x="2440.22" y="-4392.5" font-family="Times,serif" font-size="50.00">Y11_EmploymentStatus</text>
</g>
<!-- Y11_Country&#45;&gt;Y11_EmploymentStatus -->
<g id="edge25" class="edge">
<title>Y11_Country&#45;&gt;Y11_EmploymentStatus</title>
<path fill="none" stroke="black" d="M704.93,-6382.27C737.14,-6229.23 861.53,-5708.75 1124.22,-5371.45 1478.99,-4915.94 2102.69,-4573.93 2342.49,-4453.3"/>
<polygon fill="black" stroke="black" points="2344.18,-4456.37 2351.55,-4448.76 2341.04,-4450.12 2344.18,-4456.37"/>
</g>
<!-- Y11_Q42&#45;&gt;Y11_MWIndex -->
<g id="edge93" class="edge">
<title>Y11_Q42&#45;&gt;Y11_MWIndex</title>
<path fill="none" stroke="black" d="M2233.16,-5372.13C1946.19,-4986.2 -158.09,-2106.42 357.22,-1326.45 815.16,-633.34 1883.26,-436.16 2370.68,-381.4"/>
<polygon fill="black" stroke="black" points="2371.11,-384.88 2380.66,-380.29 2370.33,-377.92 2371.11,-384.88"/>
</g>
<!-- Y11_Q42&#45;&gt;Y11_Q40a -->
<g id="edge94" class="edge">
<title>Y11_Q42&#45;&gt;Y11_Q40a</title>
<path fill="none" stroke="black" d="M2248.36,-5371.65C2197.13,-5237.36 2043.76,-4815.25 1993.22,-4449.55 1823.19,-3219.02 2373.2,-1724.15 2489.9,-1425.4"/>
<polygon fill="black" stroke="black" points="2493.32,-1426.27 2493.71,-1415.69 2486.8,-1423.72 2493.32,-1426.27"/>
</g>
<!-- Y11_Q42&#45;&gt;Y11_Q40c -->
<g id="edge95" class="edge">
<title>Y11_Q42&#45;&gt;Y11_Q40c</title>
<path fill="none" stroke="black" d="M2341.74,-5376.12C2551.77,-5264.84 3138.37,-4922.44 3391.22,-4449.55 3686.59,-3897.15 3661.89,-1789.82 3655.32,-1425.74"/>
<polygon fill="black" stroke="black" points="3658.82,-1425.66 3655.13,-1415.73 3651.82,-1425.79 3658.82,-1425.66"/>
</g>
<!-- Y11_Q42&#45;&gt;Y11_Q40d -->
<g id="edge96" class="edge">
<title>Y11_Q42&#45;&gt;Y11_Q40d</title>
<path fill="none" stroke="black" d="M2325.77,-5374.19C2506.75,-5250.28 3053.75,-4861.6 3420.22,-4449.55 4109.3,-3674.77 4346.2,-3436.21 4582.22,-2426.55 4669.66,-2052.52 4613.78,-1583.26 4590.77,-1426.09"/>
<polygon fill="black" stroke="black" points="4594.16,-1425.13 4589.23,-1415.75 4587.24,-1426.16 4594.16,-1425.13"/>
</g>
<!-- Y11_Q42&#45;&gt;Y11_Q40e -->
<g id="edge97" class="edge">
<title>Y11_Q42&#45;&gt;Y11_Q40e</title>
<path fill="none" stroke="black" d="M2235.94,-5372.04C2144.99,-5238.01 1860.81,-4814.68 1649.22,-4449.55 1394.67,-4010.25 1309.9,-3908.11 1119.22,-3437.55 943.25,-3003.27 943.19,-2878.7 820.22,-2426.55 716.38,-2044.69 606.8,-1580.57 570.61,-1425.39"/>
<polygon fill="black" stroke="black" points="574.01,-1424.57 568.33,-1415.62 567.2,-1426.16 574.01,-1424.57"/>
</g>
<!-- Y11_Q42&#45;&gt;Y11_Q40f -->
<g id="edge98" class="edge">
<title>Y11_Q42&#45;&gt;Y11_Q40f</title>
<path fill="none" stroke="black" d="M2239.22,-5371.49C2158.31,-5235.86 1904.3,-4808.39 1702.22,-4449.55 1451.04,-4003.5 1323.81,-3919.85 1152.22,-3437.55 998.98,-3006.8 1004.63,-2881.78 962.22,-2426.55 925.15,-2028.54 1157.4,-1576.2 1243.25,-1424.61"/>
<polygon fill="black" stroke="black" points="1246.53,-1425.91 1248.44,-1415.49 1240.45,-1422.44 1246.53,-1425.91"/>
</g>
<!-- Y11_Q42&#45;&gt;Y11_Q40g -->
<g id="edge99" class="edge">
<title>Y11_Q42&#45;&gt;Y11_Q40g</title>
<path fill="none" stroke="black" d="M2232.16,-5371.92C2134.35,-5241.68 1846.11,-4837.14 1732.22,-4449.55 1467.05,-3547.05 1369.52,-3250.38 1596.22,-2337.45 1690.68,-1957.06 1965.67,-1561.62 2068.14,-1423.35"/>
<polygon fill="black" stroke="black" points="2071.19,-1425.12 2074.35,-1415.01 2065.57,-1420.94 2071.19,-1425.12"/>
</g>
<!-- Y11_Q42&#45;&gt;Y11_Q7 -->
<g id="edge100" class="edge">
<title>Y11_Q42&#45;&gt;Y11_Q7</title>
<path fill="none" stroke="black" d="M2305.93,-5372.61C2461.84,-5210.27 3020.47,-4628.58 3187.03,-4455.14"/>
<polygon fill="black" stroke="black" points="3189.56,-4457.56 3193.96,-4447.93 3184.51,-4452.71 3189.56,-4457.56"/>
</g>
<!-- Y11_Q42&#45;&gt;Y11_EmploymentStatus -->
<g id="edge101" class="edge">
<title>Y11_Q42&#45;&gt;Y11_EmploymentStatus</title>
<path fill="none" stroke="black" d="M2272.8,-5371.32C2301.02,-5208.61 2400,-4637.95 2430.92,-4459.65"/>
<polygon fill="black" stroke="black" points="2434.38,-4460.16 2432.64,-4449.71 2427.49,-4458.97 2434.38,-4460.16"/>
</g>
<!-- Y11_Q7&#45;&gt;Y11_Q57 -->
<g id="edge154" class="edge">
<title>Y11_Q7&#45;&gt;Y11_Q57</title>
<path fill="none" stroke="black" d="M3237.21,-4360.28C3248.33,-4197.49 3287.32,-3626.75 3299.54,-3447.97"/>
<polygon fill="black" stroke="black" points="3303.05,-3447.97 3300.23,-3437.76 3296.06,-3447.5 3303.05,-3447.97"/>
</g>
<!-- Y11_Q7&#45;&gt;Y11_Q18 -->
<g id="edge155" class="edge">
<title>Y11_Q7&#45;&gt;Y11_Q18</title>
<path fill="none" stroke="black" d="M3249.67,-4360.46C3296.58,-4225.6 3437.03,-3801.96 3483.22,-3437.55 3531.49,-3056.79 3481.97,-2592.76 3462.42,-2436.93"/>
<polygon fill="black" stroke="black" points="3465.85,-2436.16 3461.12,-2426.68 3458.91,-2437.04 3465.85,-2436.16"/>
</g>
<!-- Y11_Q7&#45;&gt;Y11_Accommproblems -->
<g id="edge156" class="edge">
<title>Y11_Q7&#45;&gt;Y11_Accommproblems</title>
<path fill="none" stroke="black" d="M3252.89,-4360.38C3365.49,-4097.3 3953.36,-2723.79 4076.57,-2435.94"/>
<polygon fill="black" stroke="black" points="4079.86,-2437.13 4080.58,-2426.56 4073.43,-2434.37 4079.86,-2437.13"/>
</g>
<!-- Y11_Q7&#45;&gt;Y11_Q40a -->
<g id="edge157" class="edge">
<title>Y11_Q7&#45;&gt;Y11_Q40a</title>
<path fill="none" stroke="black" d="M3228.41,-4360.22C3210.37,-4223.79 3154.19,-3794.18 3114.22,-3437.55 3059.5,-2949.23 3142.8,-2808.88 3004.22,-2337.45 2894.4,-1963.84 2640.03,-1563.45 2546.53,-1423.66"/>
<polygon fill="black" stroke="black" points="2549.35,-1421.58 2540.87,-1415.22 2543.54,-1425.48 2549.35,-1421.58"/>
</g>
<!-- Y11_Q7&#45;&gt;Y11_Q40c -->
<g id="edge158" class="edge">
<title>Y11_Q7&#45;&gt;Y11_Q40c</title>
<path fill="none" stroke="black" d="M3227.4,-4360.33C3206.53,-4224.22 3143.71,-3795.43 3123.22,-3437.55 3099.97,-3031.22 3095.25,-2819.99 3223.22,-2337.45 3320.6,-1970.26 3542.21,-1565.79 3623.55,-1424.3"/>
<polygon fill="black" stroke="black" points="3626.74,-1425.77 3628.7,-1415.36 3620.68,-1422.27 3626.74,-1425.77"/>
</g>
<!-- Y11_Q7&#45;&gt;Y11_Q40d -->
<g id="edge159" class="edge">
<title>Y11_Q7&#45;&gt;Y11_Q40d</title>
<path fill="none" stroke="black" d="M3276.4,-4362.05C3470.26,-4165.88 4278.32,-3311.38 4558.22,-2426.55 4674.42,-2059.22 4615.85,-1583.44 4591.28,-1425.53"/>
<polygon fill="black" stroke="black" points="4594.73,-1424.93 4589.71,-1415.6 4587.81,-1426.02 4594.73,-1424.93"/>
</g>
<!-- Y11_Q7&#45;&gt;Y11_Q40e -->
<g id="edge160" class="edge">
<title>Y11_Q7&#45;&gt;Y11_Q40e</title>
<path fill="none" stroke="black" d="M3175.99,-4363.75C2905.43,-4174.37 1755.48,-3342.76 1071.22,-2426.55 813.63,-2081.63 631.58,-1587.06 576.02,-1425.36"/>
<polygon fill="black" stroke="black" points="579.25,-1423.98 572.7,-1415.65 572.62,-1426.24 579.25,-1423.98"/>
</g>
<!-- Y11_Q7&#45;&gt;Y11_Q40f -->
<g id="edge161" class="edge">
<title>Y11_Q7&#45;&gt;Y11_Q40f</title>
<path fill="none" stroke="black" d="M3211.97,-4360.84C3097.56,-4140.13 2560.55,-3117.73 2031.22,-2337.45 1782.43,-1970.71 1438,-1562.36 1317.74,-1422.3"/>
<polygon fill="black" stroke="black" points="1320.33,-1419.94 1311.16,-1414.64 1315.02,-1424.51 1320.33,-1419.94"/>
</g>
<!-- Y11_Q7&#45;&gt;Y11_Q40g -->
<g id="edge162" class="edge">
<title>Y11_Q7&#45;&gt;Y11_Q40g</title>
<path fill="none" stroke="black" d="M3227.53,-4360.3C3184.33,-4079.2 2943.8,-2531.07 2857.22,-2337.45 2678.28,-1937.23 2299.84,-1554.33 2160.33,-1421.35"/>
<polygon fill="black" stroke="black" points="2162.73,-1418.8 2153.07,-1414.45 2157.91,-1423.88 2162.73,-1418.8"/>
</g>
<!-- Y11_Q7&#45;&gt;Y11_RuralUrban -->
<g id="edge163" class="edge">
<title>Y11_Q7&#45;&gt;Y11_RuralUrban</title>
<path fill="none" stroke="black" d="M3220.65,-4360.59C3175.41,-4216.24 3024.93,-3739.32 2890.22,-3348.45 2769.66,-2998.61 2613.96,-2581.66 2559.28,-2436.19"/>
<polygon fill="black" stroke="black" points="2562.46,-2434.72 2555.67,-2426.6 2555.91,-2437.19 2562.46,-2434.72"/>
</g>
<!-- Y11_Q7&#45;&gt;Y11_Q50d -->
<g id="edge164" class="edge">
<title>Y11_Q7&#45;&gt;Y11_Q50d</title>
<path fill="none" stroke="black" d="M3193.29,-4361.79C2940.73,-4101.37 1596.23,-2715.03 1322.78,-2433.07"/>
<polygon fill="black" stroke="black" points="1325.24,-2430.57 1315.76,-2425.83 1320.21,-2435.45 1325.24,-2430.57"/>
</g>
<!-- Y11_Q7&#45;&gt;Y11_Q53a -->
<g id="edge165" class="edge">
<title>Y11_Q7&#45;&gt;Y11_Q53a</title>
<path fill="none" stroke="black" d="M3204.58,-4361.32C3023.19,-4100.23 2064.53,-2720.27 1866.17,-2434.74"/>
<polygon fill="black" stroke="black" points="1868.83,-2432.43 1860.25,-2426.22 1863.08,-2436.43 1868.83,-2432.43"/>
</g>
<!-- Y11_EmploymentStatus&#45;&gt;Y11_Q57 -->
<g id="edge166" class="edge">
<title>Y11_EmploymentStatus&#45;&gt;Y11_Q57</title>
<path fill="none" stroke="black" d="M2477.31,-4360.6C2616.95,-4197.17 3110.78,-3619.23 3260.12,-3444.44"/>
<polygon fill="black" stroke="black" points="3262.93,-3446.55 3266.76,-3436.67 3257.6,-3442 3262.93,-3446.55"/>
</g>
<!-- Y11_EmploymentStatus&#45;&gt;Y11_Q18 -->
<g id="edge167" class="edge">
<title>Y11_EmploymentStatus&#45;&gt;Y11_Q18</title>
<path fill="none" stroke="black" d="M2462.13,-4360.38C2594.32,-4097.17 3284.75,-2722.43 3428.85,-2435.51"/>
<polygon fill="black" stroke="black" points="3431.99,-2437.06 3433.35,-2426.56 3425.73,-2433.92 3431.99,-2437.06"/>
</g>
<!-- Y11_EmploymentStatus&#45;&gt;Y11_Accommproblems -->
<g id="edge168" class="edge">
<title>Y11_EmploymentStatus&#45;&gt;Y11_Accommproblems</title>
<path fill="none" stroke="black" d="M2497.73,-4360.77C2664.8,-4233.21 3158.84,-3841.93 3483.22,-3437.55 3763.88,-3087.69 4001.32,-2595.98 4075.33,-2435.72"/>
<polygon fill="black" stroke="black" points="4078.55,-2437.09 4079.56,-2426.55 4072.2,-2434.16 4078.55,-2437.09"/>
</g>
<!-- Y11_EmploymentStatus&#45;&gt;Y11_Q40a -->
<g id="edge169" class="edge">
<title>Y11_EmploymentStatus&#45;&gt;Y11_Q40a</title>
<path fill="none" stroke="black" d="M2427.44,-4360.21C2365.28,-4141.5 2102.42,-3145.95 2221.22,-2337.45 2273.89,-1979.04 2430.99,-1569.03 2489.2,-1425.19"/>
<polygon fill="black" stroke="black" points="2492.54,-1426.28 2493.06,-1415.7 2486.05,-1423.65 2492.54,-1426.28"/>
</g>
<!-- Y11_EmploymentStatus&#45;&gt;Y11_Q40c -->
<g id="edge170" class="edge">
<title>Y11_EmploymentStatus&#45;&gt;Y11_Q40c</title>
<path fill="none" stroke="black" d="M2454.67,-4360.17C2527.46,-4140.29 2863.84,-3136.34 3198.22,-2337.45 3346.7,-1982.73 3553.97,-1568.94 3627.26,-1424.74"/>
<polygon fill="black" stroke="black" points="3630.48,-1426.13 3631.89,-1415.63 3624.24,-1422.96 3630.48,-1426.13"/>
</g>
<!-- Y11_EmploymentStatus&#45;&gt;Y11_Q40d -->
<g id="edge171" class="edge">
<title>Y11_EmploymentStatus&#45;&gt;Y11_Q40d</title>
<path fill="none" stroke="black" d="M2518.99,-4361.15C2843.15,-4179.73 4078.08,-3437.42 4525.22,-2426.55 4605.62,-2244.81 4590.73,-1614.7 4584.28,-1425.88"/>
<polygon fill="black" stroke="black" points="4587.77,-1425.52 4583.93,-1415.65 4580.78,-1425.77 4587.77,-1425.52"/>
</g>
<!-- Y11_EmploymentStatus&#45;&gt;Y11_Q40e -->
<g id="edge172" class="edge">
<title>Y11_EmploymentStatus&#45;&gt;Y11_Q40e</title>
<path fill="none" stroke="black" d="M2370.97,-4360.82C2180.53,-4238.82 1643.22,-3872 1342.22,-3437.55 851.53,-2729.3 618.32,-1673.57 568.55,-1425.52"/>
<polygon fill="black" stroke="black" points="571.97,-1424.8 566.58,-1415.68 565.11,-1426.17 571.97,-1424.8"/>
</g>
<!-- Y11_EmploymentStatus&#45;&gt;Y11_Q40f -->
<g id="edge173" class="edge">
<title>Y11_EmploymentStatus&#45;&gt;Y11_Q40f</title>
<path fill="none" stroke="black" d="M2421.04,-4360.22C2328.61,-4148.73 1921.77,-3210.97 1629.22,-2426.55 1487.54,-2046.65 1339.55,-1580.81 1290.84,-1425.33"/>
<polygon fill="black" stroke="black" points="1294.1,-1424.04 1287.77,-1415.55 1287.42,-1426.13 1294.1,-1424.04"/>
</g>
<!-- Y11_EmploymentStatus&#45;&gt;Y11_Q40g -->
<g id="edge174" class="edge">
<title>Y11_EmploymentStatus&#45;&gt;Y11_Q40g</title>
<path fill="none" stroke="black" d="M2427.86,-4360.15C2390.18,-4224.38 2276.24,-3798.42 2226.22,-3437.55 2116.16,-2643.48 2107.56,-1664.05 2107.16,-1425.98"/>
<polygon fill="black" stroke="black" points="2110.66,-1425.86 2107.15,-1415.86 2103.66,-1425.86 2110.66,-1425.86"/>
</g>
<!-- Y11_EmploymentStatus&#45;&gt;Y11_RuralUrban -->
<g id="edge175" class="edge">
<title>Y11_EmploymentStatus&#45;&gt;Y11_RuralUrban</title>
<path fill="none" stroke="black" d="M2442.36,-4360.38C2455.24,-4097.56 2522.4,-2726.5 2536.59,-2436.8"/>
<polygon fill="black" stroke="black" points="2540.1,-2436.72 2537.09,-2426.56 2533.11,-2436.37 2540.1,-2436.72"/>
</g>
<!-- Y11_EmploymentStatus&#45;&gt;Y11_Q50d -->
<g id="edge176" class="edge">
<title>Y11_EmploymentStatus&#45;&gt;Y11_Q50d</title>
<path fill="none" stroke="black" d="M2394.7,-4360.54C2261.94,-4231.58 1870.48,-3835.24 1646.22,-3437.55 1445.26,-3081.16 1323.07,-2596.87 1286.15,-2436.8"/>
<polygon fill="black" stroke="black" points="1289.49,-2435.69 1283.84,-2426.73 1282.66,-2437.25 1289.49,-2435.69"/>
</g>
<!-- Y11_EmploymentStatus&#45;&gt;Y11_Q53a -->
<g id="edge177" class="edge">
<title>Y11_EmploymentStatus&#45;&gt;Y11_Q53a</title>
<path fill="none" stroke="black" d="M2421.3,-4360.42C2363.2,-4225.44 2184.7,-3801.51 2074.22,-3437.55 1959.78,-3060.5 1869.12,-2593.64 1840.06,-2437.04"/>
<polygon fill="black" stroke="black" points="1843.41,-2435.94 1838.15,-2426.75 1836.53,-2437.22 1843.41,-2435.94"/>
</g>
<!-- Y11_Q31 -->
<g id="node18" class="node">
<title>Y11_Q31</title>
<ellipse fill="none" stroke="black" cx="2356.22" cy="-6427" rx="171.24" ry="44.6"/>
<text text-anchor="middle" x="2356.22" y="-6414.5" font-family="Times,serif" font-size="50.00">Y11_Q31</text>
</g>
<!-- Y11_Q31&#45;&gt;Y11_Q57 -->
<g id="edge30" class="edge">
<title>Y11_Q31&#45;&gt;Y11_Q57</title>
<path fill="none" stroke="black" d="M2392.48,-6383.27C2559.74,-6182.79 3257.32,-5309.19 3462.22,-4449.55 3552.56,-4070.57 3387.31,-3602.21 3325.32,-3446.83"/>
<polygon fill="black" stroke="black" points="3328.54,-3445.46 3321.57,-3437.48 3322.05,-3448.07 3328.54,-3445.46"/>
</g>
<!-- Y11_Q31&#45;&gt;Y11_MWIndex -->
<g id="edge29" class="edge">
<title>Y11_Q31&#45;&gt;Y11_MWIndex</title>
<path fill="none" stroke="black" d="M2250.79,-6391.86C1967.1,-6294.57 1181.47,-5988.33 772.22,-5460.55 484.39,-5089.35 559.58,-4909.49 464.22,-4449.55 323.17,-3769.21 -69.69,-1904.9 315.22,-1326.45 782.52,-624.21 1869.36,-431.78 2365.73,-379.83"/>
<polygon fill="black" stroke="black" points="2366.31,-383.29 2375.9,-378.77 2365.59,-376.32 2366.31,-383.29"/>
</g>
<!-- Y11_Q31&#45;&gt;Y11_Q18 -->
<g id="edge32" class="edge">
<title>Y11_Q31&#45;&gt;Y11_Q18</title>
<path fill="none" stroke="black" d="M2423.5,-6385.9C2614.65,-6268.54 3166.04,-5905.8 3458.22,-5460.55 3717.1,-5066.06 3709.35,-4915.73 3782.22,-4449.55 3857.81,-3966.04 3861.78,-3831.32 3782.22,-3348.45 3722.68,-2987.02 3545.64,-2578.87 3480.04,-2435.86"/>
<polygon fill="black" stroke="black" points="3483.06,-2434.04 3475.7,-2426.42 3476.7,-2436.97 3483.06,-2434.04"/>
</g>
<!-- Y11_Q31&#45;&gt;Y11_Accommproblems -->
<g id="edge33" class="edge">
<title>Y11_Q31&#45;&gt;Y11_Accommproblems</title>
<path fill="none" stroke="black" d="M2427.22,-6386.45C2627.49,-6271.22 3201.6,-5914.97 3499.22,-5460.55 4186.71,-4410.86 4122.6,-2756.36 4103.01,-2437.25"/>
<polygon fill="black" stroke="black" points="4106.48,-2436.66 4102.36,-2426.9 4099.5,-2437.1 4106.48,-2436.66"/>
</g>
<!-- Y11_Q31&#45;&gt;Y11_Q40a -->
<g id="edge34" class="edge">
<title>Y11_Q31&#45;&gt;Y11_Q40a</title>
<path fill="none" stroke="black" d="M2302.67,-6384.46C2150.28,-6262.56 1714.61,-5887.44 1548.22,-5460.55 1384.87,-5041.44 1511.67,-4899.25 1501.22,-4449.55 1479.4,-3510.14 1227.93,-3201.93 1596.22,-2337.45 1782.22,-1900.89 2259.16,-1543.12 2440.14,-1418.94"/>
<polygon fill="black" stroke="black" points="2442.25,-1421.74 2448.53,-1413.2 2438.3,-1415.96 2442.25,-1421.74"/>
</g>
<!-- Y11_Q31&#45;&gt;Y11_Q40c -->
<g id="edge35" class="edge">
<title>Y11_Q31&#45;&gt;Y11_Q40c</title>
<path fill="none" stroke="black" d="M2426.28,-6386.14C2626.33,-6269.09 3207.01,-5906.39 3537.22,-5460.55 3807.55,-5095.56 4611.13,-2973.42 4710.22,-2426.55 4806.31,-1896.23 4049.04,-1531.48 3761.76,-1413.37"/>
<polygon fill="black" stroke="black" points="3762.74,-1409.99 3752.15,-1409.44 3760.09,-1416.47 3762.74,-1409.99"/>
</g>
<!-- Y11_Q31&#45;&gt;Y11_Q40d -->
<g id="edge36" class="edge">
<title>Y11_Q31&#45;&gt;Y11_Q40d</title>
<path fill="none" stroke="black" d="M2417.44,-6385.34C2603.28,-6260.35 3172.8,-5865.61 3575.22,-5460.55 4319.95,-4710.93 4488.01,-4439.3 4824.22,-3437.55 4983.1,-2964.18 5164.37,-2824.02 5052.22,-2337.45 4965.69,-1962.02 4712.55,-1563.53 4618.21,-1423.9"/>
<polygon fill="black" stroke="black" points="4621.01,-1421.79 4612.5,-1415.48 4615.21,-1425.72 4621.01,-1421.79"/>
</g>
<!-- Y11_Q31&#45;&gt;Y11_Q40e -->
<g id="edge37" class="edge">
<title>Y11_Q31&#45;&gt;Y11_Q40e</title>
<path fill="none" stroke="black" d="M2257.2,-6390.52C1987.94,-6289.07 1235.8,-5971.76 834.22,-5460.55 400.47,-4908.37 281.25,-3035.82 354.22,-2337.45 391.09,-1984.7 501.75,-1571.07 542.73,-1425.74"/>
<polygon fill="black" stroke="black" points="546.21,-1426.32 545.56,-1415.75 539.47,-1424.41 546.21,-1426.32"/>
</g>
<!-- Y11_Q31&#45;&gt;Y11_Q40f -->
<g id="edge38" class="edge">
<title>Y11_Q31&#45;&gt;Y11_Q40f</title>
<path fill="none" stroke="black" d="M2303.17,-6384.62C2147.42,-6260.63 1685.9,-5874.97 1423.22,-5460.55 908.62,-4648.65 848.77,-4379.72 658.22,-3437.55 561.25,-2958.03 476.72,-2805.16 620.22,-2337.45 742.76,-1938.07 1092.67,-1555.26 1223.79,-1421.79"/>
<polygon fill="black" stroke="black" points="1226.46,-1424.07 1230.99,-1414.49 1221.48,-1419.16 1226.46,-1424.07"/>
</g>
<!-- Y11_Q31&#45;&gt;Y11_Q40g -->
<g id="edge39" class="edge">
<title>Y11_Q31&#45;&gt;Y11_Q40g</title>
<path fill="none" stroke="black" d="M2302.82,-6384.56C2147.98,-6261.5 1695.18,-5880.51 1463.22,-5460.55 1139.36,-4874.17 853.48,-2489.03 848.22,-2426.55 798.85,-1839.95 1648.02,-1513.61 1978.5,-1409.28"/>
<polygon fill="black" stroke="black" points="1979.63,-1412.6 1988.13,-1406.26 1977.54,-1405.92 1979.63,-1412.6"/>
</g>
<!-- Y11_Q31&#45;&gt;Y11_RuralUrban -->
<g id="edge42" class="edge">
<title>Y11_Q31&#45;&gt;Y11_RuralUrban</title>
<path fill="none" stroke="black" d="M2372.58,-6382.35C2450.23,-6172.37 2782.38,-5243.86 2887.22,-4449.55 2941.51,-4038.25 2622.9,-2719.73 2552.7,-2436.79"/>
<polygon fill="black" stroke="black" points="2556.02,-2435.64 2550.21,-2426.78 2549.23,-2437.33 2556.02,-2435.64"/>
</g>
<!-- Y11_Q31&#45;&gt;Y11_Q50d -->
<g id="edge43" class="edge">
<title>Y11_Q31&#45;&gt;Y11_Q50d</title>
<path fill="none" stroke="black" d="M2305.32,-6384.42C2157.31,-6260.63 1723.92,-5877.06 1508.22,-5460.55 940.84,-4364.92 1204.82,-2750.44 1263.64,-2436.85"/>
<polygon fill="black" stroke="black" points="1267.14,-2437.15 1265.56,-2426.68 1260.26,-2435.85 1267.14,-2437.15"/>
</g>
<!-- Y11_Q31&#45;&gt;Y11_Q53a -->
<g id="edge44" class="edge">
<title>Y11_Q31&#45;&gt;Y11_Q53a</title>
<path fill="none" stroke="black" d="M2301.01,-6384.71C2144.62,-6263.85 1699.82,-5891.97 1542.22,-5460.55 1118.71,-4301.22 1688.68,-2740.86 1808.81,-2435.9"/>
<polygon fill="black" stroke="black" points="1812.14,-2437 1812.57,-2426.41 1805.63,-2434.43 1812.14,-2437"/>
</g>
<!-- Y11_Q31&#45;&gt;Y11_Q42 -->
<g id="edge31" class="edge">
<title>Y11_Q31&#45;&gt;Y11_Q42</title>
<path fill="none" stroke="black" d="M2352.28,-6382.32C2337.62,-6219.7 2286.19,-5649.52 2270.09,-5470.91"/>
<polygon fill="black" stroke="black" points="2273.55,-5470.36 2269.17,-5460.71 2266.58,-5470.99 2273.55,-5470.36"/>
</g>
<!-- Y11_Q31&#45;&gt;Y11_Q7 -->
<g id="edge40" class="edge">
<title>Y11_Q31&#45;&gt;Y11_Q7</title>
<path fill="none" stroke="black" d="M2386.62,-6382.77C2478.49,-6250.48 2756.93,-5837.24 2920.22,-5460.55 3080.07,-5091.82 3189.25,-4616.94 3223.09,-4459.4"/>
<polygon fill="black" stroke="black" points="3226.54,-4460 3225.21,-4449.49 3219.7,-4458.53 3226.54,-4460"/>
</g>
<!-- Y11_Q31&#45;&gt;Y11_EmploymentStatus -->
<g id="edge41" class="edge">
<title>Y11_Q31&#45;&gt;Y11_EmploymentStatus</title>
<path fill="none" stroke="black" d="M2361.7,-6382.32C2378.43,-6246.19 2428.81,-5817.44 2445.22,-5460.55 2462.84,-5077.51 2448.29,-4615.39 2442.41,-4459.95"/>
<polygon fill="black" stroke="black" points="2445.9,-4459.59 2442.02,-4449.73 2438.9,-4459.86 2445.9,-4459.59"/>
</g>
<!-- Y11_Agecategory -->
<g id="node19" class="node">
<title>Y11_Agecategory</title>
<ellipse fill="none" stroke="black" cx="1373.22" cy="-6427" rx="323.3" ry="44.6"/>
<text text-anchor="middle" x="1373.22" y="-6414.5" font-family="Times,serif" font-size="50.00">Y11_Agecategory</text>
</g>
<!-- Y11_Agecategory&#45;&gt;Y11_Q57 -->
<g id="edge46" class="edge">
<title>Y11_Agecategory&#45;&gt;Y11_Q57</title>
<path fill="none" stroke="black" d="M1451.47,-6383.77C1774.49,-6204.14 3005.35,-5465.9 3391.22,-4449.55 3528.84,-4087.09 3380.09,-3605.7 3323.32,-3447.12"/>
<polygon fill="black" stroke="black" points="3326.57,-3445.81 3319.88,-3437.59 3319.99,-3448.19 3326.57,-3445.81"/>
</g>
<!-- Y11_Agecategory&#45;&gt;Y11_MWIndex -->
<g id="edge45" class="edge">
<title>Y11_Agecategory&#45;&gt;Y11_MWIndex</title>
<path fill="none" stroke="black" d="M1315.22,-6383.07C1153.67,-6259.96 696.87,-5887.1 489.22,-5460.55 -121.87,-4205.19 72.56,-3731.49 150.22,-2337.45 175.37,-1886.02 -9.23,-1687.28 263.22,-1326.45 783.11,-637.94 1879.45,-438.15 2372.17,-382.04"/>
<polygon fill="black" stroke="black" points="2372.71,-385.5 2382.25,-380.9 2371.92,-378.55 2372.71,-385.5"/>
</g>
<!-- Y11_Agecategory&#45;&gt;Y11_Q18 -->
<g id="edge48" class="edge">
<title>Y11_Agecategory&#45;&gt;Y11_Q18</title>
<path fill="none" stroke="black" d="M1451.04,-6383.67C1671.95,-6261.09 2315.29,-5887.29 2753.22,-5460.55 3153.35,-5070.65 3273.14,-4960 3500.22,-4449.55 3702.59,-3994.66 3769.37,-3842.3 3706.22,-3348.45 3660.7,-2992.44 3524.4,-2580.14 3474.12,-2435.99"/>
<polygon fill="black" stroke="black" points="3477.4,-2434.76 3470.79,-2426.48 3470.79,-2437.08 3477.4,-2434.76"/>
</g>
<!-- Y11_Agecategory&#45;&gt;Y11_Accommproblems -->
<g id="edge49" class="edge">
<title>Y11_Agecategory&#45;&gt;Y11_Accommproblems</title>
<path fill="none" stroke="black" d="M1471.2,-6384.5C1858.4,-6214.42 3286.71,-5528.28 3820.22,-4449.55 4003.53,-4078.91 4081.85,-2724.35 4096.59,-2436.86"/>
<polygon fill="black" stroke="black" points="4100.1,-2436.86 4097.11,-2426.69 4093.1,-2436.5 4100.1,-2436.86"/>
</g>
<!-- Y11_Agecategory&#45;&gt;Y11_Q40a -->
<g id="edge50" class="edge">
<title>Y11_Agecategory&#45;&gt;Y11_Q40a</title>
<path fill="none" stroke="black" d="M1363.72,-6382.41C1279.36,-5991.55 671.5,-3086.7 1071.22,-2337.45 1358.4,-1799.17 2093.59,-1508.03 2387.29,-1410.13"/>
<polygon fill="black" stroke="black" points="2388.73,-1413.34 2397.12,-1406.87 2386.53,-1406.69 2388.73,-1413.34"/>
</g>
<!-- Y11_Agecategory&#45;&gt;Y11_Q40c -->
<g id="edge51" class="edge">
<title>Y11_Agecategory&#45;&gt;Y11_Q40c</title>
<path fill="none" stroke="black" d="M1468.75,-6384.38C1734.69,-6265.72 2499.04,-5905.41 3032.22,-5460.55 3486.06,-5081.89 3594,-4957.5 3896.22,-4449.55 4024.06,-4234.69 4770.95,-2567.15 4672.22,-2337.45 4475.21,-1879.08 3941.75,-1536.14 3736.37,-1417.36"/>
<polygon fill="black" stroke="black" points="3737.84,-1414.17 3727.43,-1412.21 3734.35,-1420.23 3737.84,-1414.17"/>
</g>
<!-- Y11_Agecategory&#45;&gt;Y11_Q40d -->
<g id="edge52" class="edge">
<title>Y11_Agecategory&#45;&gt;Y11_Q40d</title>
<path fill="none" stroke="black" d="M1582.69,-6393.01C2027.44,-6312.61 3075.23,-6066.84 3686.22,-5460.55 3716.78,-5430.23 3705.4,-5410.17 3724.22,-5371.45 4153.1,-4489.63 4472.46,-4366.58 4786.22,-3437.55 4931.62,-3007.05 4904.35,-2879.67 4938.22,-2426.55 4968.38,-2023.18 4711.19,-1574.38 4616.41,-1424.15"/>
<polygon fill="black" stroke="black" points="4619.26,-1422.1 4610.94,-1415.53 4613.34,-1425.85 4619.26,-1422.1"/>
</g>
<!-- Y11_Agecategory&#45;&gt;Y11_Q40e -->
<g id="edge53" class="edge">
<title>Y11_Agecategory&#45;&gt;Y11_Q40e</title>
<path fill="none" stroke="black" d="M1320.01,-6382.89C1169.63,-6257.89 739.17,-5877.57 534.22,-5460.55 332.08,-5049.24 376.56,-4905.6 331.22,-4449.55 209.78,-3227.86 487.65,-1727.35 547.26,-1426.12"/>
<polygon fill="black" stroke="black" points="550.77,-1426.4 549.28,-1415.91 543.9,-1425.03 550.77,-1426.4"/>
</g>
<!-- Y11_Agecategory&#45;&gt;Y11_Q40f -->
<g id="edge54" class="edge">
<title>Y11_Agecategory&#45;&gt;Y11_Q40f</title>
<path fill="none" stroke="black" d="M1320.17,-6382.96C1171.06,-6258.51 747.48,-5880.25 568.22,-5460.55 198.73,-4595.44 360.1,-4286.55 430.22,-3348.45 464.1,-2895.33 411.34,-2758.48 582.22,-2337.45 742.45,-1942.69 1094.74,-1556.32 1224.75,-1421.89"/>
<polygon fill="black" stroke="black" points="1227.44,-1424.15 1231.89,-1414.53 1222.41,-1419.28 1227.44,-1424.15"/>
</g>
<!-- Y11_Agecategory&#45;&gt;Y11_Q40g -->
<g id="edge55" class="edge">
<title>Y11_Agecategory&#45;&gt;Y11_Q40g</title>
<path fill="none" stroke="black" d="M1332.8,-6382.75C1215.71,-6254.38 876.05,-5859.58 741.22,-5460.55 296.66,-4144.86 173.55,-3554.64 842.22,-2337.45 1113.43,-1843.78 1754.99,-1524.09 2004.99,-1414.37"/>
<polygon fill="black" stroke="black" points="2006.68,-1417.46 2014.44,-1410.25 2003.87,-1411.04 2006.68,-1417.46"/>
</g>
<!-- Y11_Agecategory&#45;&gt;Y11_RuralUrban -->
<g id="edge58" class="edge">
<title>Y11_Agecategory&#45;&gt;Y11_RuralUrban</title>
<path fill="none" stroke="black" d="M1385.82,-6382.31C1502.65,-5977.23 2395.44,-2881.56 2523.86,-2436.28"/>
<polygon fill="black" stroke="black" points="2527.25,-2437.14 2526.66,-2426.56 2520.53,-2435.2 2527.25,-2437.14"/>
</g>
<!-- Y11_Agecategory&#45;&gt;Y11_Q50d -->
<g id="edge59" class="edge">
<title>Y11_Agecategory&#45;&gt;Y11_Q50d</title>
<path fill="none" stroke="black" d="M1332.1,-6382.5C1214.03,-6254.2 875,-5861.21 758.22,-5460.55 409.95,-4265.56 1102.44,-2736.65 1248.09,-2435.73"/>
<polygon fill="black" stroke="black" points="1251.41,-2436.88 1252.63,-2426.36 1245.12,-2433.83 1251.41,-2436.88"/>
</g>
<!-- Y11_Agecategory&#45;&gt;Y11_Q53a -->
<g id="edge60" class="edge">
<title>Y11_Agecategory&#45;&gt;Y11_Q53a</title>
<path fill="none" stroke="black" d="M1349.49,-6382.56C1274.48,-6240.51 1049.57,-5775.6 1086.22,-5371.45 1168.78,-4461.16 1207.81,-4228.07 1456.22,-3348.45 1557.35,-2990.38 1739.46,-2580.16 1805.47,-2436.23"/>
<polygon fill="black" stroke="black" points="1808.84,-2437.28 1809.84,-2426.73 1802.48,-2434.36 1808.84,-2437.28"/>
</g>
<!-- Y11_Agecategory&#45;&gt;Y11_Q42 -->
<g id="edge47" class="edge">
<title>Y11_Agecategory&#45;&gt;Y11_Q42</title>
<path fill="none" stroke="black" d="M1411.55,-6382.64C1555.96,-6219.29 2066.81,-5641.43 2220.9,-5467.13"/>
<polygon fill="black" stroke="black" points="2223.54,-5469.44 2227.54,-5459.63 2218.29,-5464.8 2223.54,-5469.44"/>
</g>
<!-- Y11_Agecategory&#45;&gt;Y11_Q7 -->
<g id="edge56" class="edge">
<title>Y11_Agecategory&#45;&gt;Y11_Q7</title>
<path fill="none" stroke="black" d="M1428.21,-6382.94C1592.29,-6253.14 2089.09,-5850.58 2445.22,-5460.55 2771.69,-5103.01 3097.89,-4615.46 3200.91,-4457.59"/>
<polygon fill="black" stroke="black" points="3203.99,-4459.28 3206.51,-4448.99 3198.12,-4455.46 3203.99,-4459.28"/>
</g>
<!-- Y11_Agecategory&#45;&gt;Y11_EmploymentStatus -->
<g id="edge57" class="edge">
<title>Y11_Agecategory&#45;&gt;Y11_EmploymentStatus</title>
<path fill="none" stroke="black" d="M1396.25,-6382.4C1535.21,-6119.33 2261.02,-4745.26 2412.5,-4458.49"/>
<polygon fill="black" stroke="black" points="2415.65,-4460.01 2417.23,-4449.53 2409.46,-4456.74 2415.65,-4460.01"/>
</g>
<!-- Y11_HH2a -->
<g id="node20" class="node">
<title>Y11_HH2a</title>
<ellipse fill="none" stroke="black" cx="3423.22" cy="-6427" rx="202.47" ry="44.6"/>
<text text-anchor="middle" x="3423.22" y="-6414.5" font-family="Times,serif" font-size="50.00">Y11_HH2a</text>
</g>
<!-- Y11_HH2a&#45;&gt;Y11_Q57 -->
<g id="edge62" class="edge">
<title>Y11_HH2a&#45;&gt;Y11_Q57</title>
<path fill="none" stroke="black" d="M3447.05,-6382.53C3518.41,-6249.55 3729.79,-5834.54 3800.22,-5460.55 3952.86,-4650.02 3460.1,-3679.5 3332.58,-3446.23"/>
<polygon fill="black" stroke="black" points="3335.54,-3444.36 3327.66,-3437.28 3329.41,-3447.73 3335.54,-3444.36"/>
</g>
<!-- Y11_HH2a&#45;&gt;Y11_MWIndex -->
<g id="edge61" class="edge">
<title>Y11_HH2a&#45;&gt;Y11_MWIndex</title>
<path fill="none" stroke="black" d="M3490.72,-6384.87C3682.17,-6265.11 4235.3,-5897.34 4552.22,-5460.55 5386.99,-4310.07 5508.6,-3733.5 5241.22,-2337.45 5150.27,-1862.53 5175.62,-1673.82 4839.22,-1326.45 4258.56,-726.86 3242.65,-476.35 2817.28,-394.3"/>
<polygon fill="black" stroke="black" points="2817.83,-390.84 2807.35,-392.39 2816.51,-397.71 2817.83,-390.84"/>
</g>
<!-- Y11_HH2a&#45;&gt;Y11_Q18 -->
<g id="edge64" class="edge">
<title>Y11_HH2a&#45;&gt;Y11_Q18</title>
<path fill="none" stroke="black" d="M3446.09,-6382.52C3588.35,-6106.27 4335.87,-4568.33 4010.22,-3348.45 3907.19,-2962.47 3608.9,-2570.59 3497.68,-2433.8"/>
<polygon fill="black" stroke="black" points="3500.3,-2431.47 3491.26,-2425.93 3494.87,-2435.89 3500.3,-2431.47"/>
</g>
<!-- Y11_HH2a&#45;&gt;Y11_Accommproblems -->
<g id="edge65" class="edge">
<title>Y11_HH2a&#45;&gt;Y11_Accommproblems</title>
<path fill="none" stroke="black" d="M3467.83,-6383.43C3597.28,-6256.91 3974.45,-5866.65 4142.22,-5460.55 4501.83,-4590.09 4417.2,-4284.62 4314.22,-3348.45 4275.35,-2995.07 4158.74,-2581.83 4115.55,-2436.67"/>
<polygon fill="black" stroke="black" points="4118.78,-2435.27 4112.57,-2426.69 4112.07,-2437.27 4118.78,-2435.27"/>
</g>
<!-- Y11_HH2a&#45;&gt;Y11_Q40a -->
<g id="edge66" class="edge">
<title>Y11_HH2a&#45;&gt;Y11_Q40a</title>
<path fill="none" stroke="black" d="M3467.55,-6383.51C3597.38,-6256.47 3979.82,-5863.29 4173.22,-5460.55 4476.92,-4828.15 5013.98,-2927.32 4634.22,-2337.45 4191.69,-1650.05 3126.57,-1446.4 2696.24,-1391.03"/>
<polygon fill="black" stroke="black" points="2696.55,-1387.54 2686.19,-1389.75 2695.67,-1394.48 2696.55,-1387.54"/>
</g>
<!-- Y11_HH2a&#45;&gt;Y11_Q40c -->
<g id="edge67" class="edge">
<title>Y11_HH2a&#45;&gt;Y11_Q40c</title>
<path fill="none" stroke="black" d="M3492.51,-6385.11C3684.35,-6268 4225.32,-5910.66 4484.22,-5460.55 4801.63,-4908.71 4893.01,-2573.53 4900.22,-2426.55 4902.16,-2387 4917.65,-2373.01 4900.22,-2337.45 4654.94,-1837.09 4011.5,-1521.88 3758.52,-1413.86"/>
<polygon fill="black" stroke="black" points="3759.53,-1410.48 3748.96,-1409.79 3756.79,-1416.93 3759.53,-1410.48"/>
</g>
<!-- Y11_HH2a&#45;&gt;Y11_Q40d -->
<g id="edge68" class="edge">
<title>Y11_HH2a&#45;&gt;Y11_Q40d</title>
<path fill="none" stroke="black" d="M3494.57,-6385.19C3691.51,-6268.61 4246.15,-5913.18 4518.22,-5460.55 4885.25,-4849.94 5452.64,-3018.1 5242.22,-2337.45 5118.48,-1937.18 4765.41,-1554.92 4633.11,-1421.69"/>
<polygon fill="black" stroke="black" points="4635.39,-1419.02 4625.85,-1414.41 4630.43,-1423.96 4635.39,-1419.02"/>
</g>
<!-- Y11_HH2a&#45;&gt;Y11_Q40e -->
<g id="edge69" class="edge">
<title>Y11_HH2a&#45;&gt;Y11_Q40e</title>
<path fill="none" stroke="black" d="M3267.66,-6398.42C2878.9,-6321.57 1855.69,-6069.34 1289.22,-5460.55 962.88,-5109.82 654.64,-3903.72 544.22,-3437.55 440.01,-2997.54 455.6,-2878.02 430.22,-2426.55 408.55,-2040.9 508.01,-1580.44 544.91,-1425.69"/>
<polygon fill="black" stroke="black" points="548.42,-1426.06 547.35,-1415.52 541.62,-1424.42 548.42,-1426.06"/>
</g>
<!-- Y11_HH2a&#45;&gt;Y11_Q40f -->
<g id="edge70" class="edge">
<title>Y11_HH2a&#45;&gt;Y11_Q40f</title>
<path fill="none" stroke="black" d="M3259.4,-6400.8C2863.32,-6330.75 1849.87,-6095.26 1352.22,-5460.55 917.61,-4906.22 653.75,-3024.25 810.22,-2337.45 895.7,-1962.27 1146.13,-1562.85 1239.02,-1423.49"/>
<polygon fill="black" stroke="black" points="1242,-1425.33 1244.65,-1415.08 1236.18,-1421.44 1242,-1425.33"/>
</g>
<!-- Y11_HH2a&#45;&gt;Y11_Q40g -->
<g id="edge71" class="edge">
<title>Y11_HH2a&#45;&gt;Y11_Q40g</title>
<path fill="none" stroke="black" d="M3389.53,-6382.87C3180.66,-6115.06 2068.86,-4683.12 1993.22,-4449.55 1896.54,-4150.97 2073.11,-1811.22 2103.02,-1425.69"/>
<polygon fill="black" stroke="black" points="2106.51,-1425.88 2103.8,-1415.64 2099.53,-1425.34 2106.51,-1425.88"/>
</g>
<!-- Y11_HH2a&#45;&gt;Y11_RuralUrban -->
<g id="edge74" class="edge">
<title>Y11_HH2a&#45;&gt;Y11_RuralUrban</title>
<path fill="none" stroke="black" d="M3415.52,-6382.38C3366.63,-6106.76 3092.25,-4579.14 2801.22,-3348.45 2718.38,-2998.13 2597.93,-2582.18 2555.08,-2436.54"/>
<polygon fill="black" stroke="black" points="2558.31,-2435.13 2552.13,-2426.52 2551.6,-2437.1 2558.31,-2435.13"/>
</g>
<!-- Y11_HH2a&#45;&gt;Y11_Q50d -->
<g id="edge75" class="edge">
<title>Y11_HH2a&#45;&gt;Y11_Q50d</title>
<path fill="none" stroke="black" d="M3337.55,-6386.58C3103.64,-6274.82 2447.45,-5933.16 2085.22,-5460.55 1309.24,-4448.08 1273.28,-2758.81 1273.7,-2436.88"/>
<polygon fill="black" stroke="black" points="1277.2,-2436.89 1273.73,-2426.88 1270.2,-2436.87 1277.2,-2436.89"/>
</g>
<!-- Y11_HH2a&#45;&gt;Y11_Q53a -->
<g id="edge76" class="edge">
<title>Y11_HH2a&#45;&gt;Y11_Q53a</title>
<path fill="none" stroke="black" d="M3384.78,-6383C3166.87,-6138.24 2090.64,-4915.26 1922.22,-4449.55 1648.76,-3693.35 1783.28,-2679.05 1821.31,-2436.63"/>
<polygon fill="black" stroke="black" points="1824.78,-2437.09 1822.88,-2426.67 1817.86,-2436 1824.78,-2437.09"/>
</g>
<!-- Y11_HH2a&#45;&gt;Y11_Q42 -->
<g id="edge63" class="edge">
<title>Y11_HH2a&#45;&gt;Y11_Q42</title>
<path fill="none" stroke="black" d="M3374.57,-6383.61C3188.08,-6221.11 2519.35,-5638.42 2321.04,-5465.63"/>
<polygon fill="black" stroke="black" points="2323.18,-5462.86 2313.34,-5458.93 2318.58,-5468.13 2323.18,-5462.86"/>
</g>
<!-- Y11_HH2a&#45;&gt;Y11_Q7 -->
<g id="edge72" class="edge">
<title>Y11_HH2a&#45;&gt;Y11_Q7</title>
<path fill="none" stroke="black" d="M3435.77,-6382.37C3475.65,-6237.83 3593.45,-5761.63 3534.22,-5371.45 3479.7,-5012.25 3317.21,-4602.73 3257,-4459.1"/>
<polygon fill="black" stroke="black" points="3260.12,-4457.49 3253.02,-4449.63 3253.67,-4460.2 3260.12,-4457.49"/>
</g>
<!-- Y11_HH2a&#45;&gt;Y11_EmploymentStatus -->
<g id="edge73" class="edge">
<title>Y11_HH2a&#45;&gt;Y11_EmploymentStatus</title>
<path fill="none" stroke="black" d="M3408.02,-6382.38C3356.61,-6236.41 3182.11,-5752.73 2996.22,-5371.45 2820.42,-5010.85 2564.53,-4600.84 2473.71,-4458.17"/>
<polygon fill="black" stroke="black" points="2476.56,-4456.12 2468.23,-4449.57 2470.65,-4459.88 2476.56,-4456.12"/>
</g>
<!-- Y11_HHstructure -->
<g id="node21" class="node">
<title>Y11_HHstructure</title>
<ellipse fill="none" stroke="black" cx="4118.22" cy="-6427" rx="325.04" ry="44.6"/>
<text text-anchor="middle" x="4118.22" y="-6414.5" font-family="Times,serif" font-size="50.00">Y11_HHstructure</text>
</g>
<!-- Y11_HHstructure&#45;&gt;Y11_Q57 -->
<g id="edge78" class="edge">
<title>Y11_HHstructure&#45;&gt;Y11_Q57</title>
<path fill="none" stroke="black" d="M4117.44,-6382.42C4114.22,-6237.54 4098.59,-5759.26 4028.22,-5371.45 3944.9,-4912.23 3904.69,-4798.73 3744.22,-4360.45 3612.69,-4001.18 3404.75,-3589.56 3330.6,-3446.34"/>
<polygon fill="black" stroke="black" points="3333.63,-3444.56 3325.92,-3437.3 3327.41,-3447.79 3333.63,-3444.56"/>
</g>
<!-- Y11_HHstructure&#45;&gt;Y11_MWIndex -->
<g id="edge77" class="edge">
<title>Y11_HHstructure&#45;&gt;Y11_MWIndex</title>
<path fill="none" stroke="black" d="M4162.3,-6382.43C4290.76,-6253.2 4669.21,-5856.26 4882.22,-5460.55 5544.96,-4229.36 5586.1,-3697.41 5261.22,-2337.45 5150.05,-1872.07 5220.77,-1673.35 4891.22,-1326.45 4306.87,-711.32 3267.47,-470.07 2827.29,-392.41"/>
<polygon fill="black" stroke="black" points="2827.78,-388.94 2817.33,-390.66 2826.57,-395.84 2827.78,-388.94"/>
</g>
<!-- Y11_HHstructure&#45;&gt;Y11_Q18 -->
<g id="edge80" class="edge">
<title>Y11_HHstructure&#45;&gt;Y11_Q18</title>
<path fill="none" stroke="black" d="M4125.38,-6382.12C4169.41,-6101.86 4389.98,-4536.3 4029.22,-3348.45 3912.13,-2962.91 3610.1,-2570.75 3497.96,-2433.85"/>
<polygon fill="black" stroke="black" points="3500.54,-2431.48 3491.49,-2425.97 3495.14,-2435.92 3500.54,-2431.48"/>
</g>
<!-- Y11_HHstructure&#45;&gt;Y11_Accommproblems -->
<g id="edge81" class="edge">
<title>Y11_HHstructure&#45;&gt;Y11_Accommproblems</title>
<path fill="none" stroke="black" d="M4154.71,-6382.62C4260.92,-6253.13 4569.06,-5853.88 4674.22,-5460.55 4917.33,-4551.28 4747.23,-4261.87 4520.22,-3348.45 4429.06,-2981.63 4210.63,-2577.72 4129.89,-2435.79"/>
<polygon fill="black" stroke="black" points="4132.77,-2433.78 4124.78,-2426.82 4126.69,-2437.24 4132.77,-2433.78"/>
</g>
<!-- Y11_HHstructure&#45;&gt;Y11_Q40a -->
<g id="edge82" class="edge">
<title>Y11_HHstructure&#45;&gt;Y11_Q40a</title>
<path fill="none" stroke="black" d="M4154.72,-6382.47C4261.22,-6252.54 4572.12,-5852.23 4699.22,-5460.55 4913.45,-4800.39 5071.5,-2904.45 4671.22,-2337.45 4192.18,-1658.88 3122.16,-1449.93 2693.73,-1392.08"/>
<polygon fill="black" stroke="black" points="2694.1,-1388.6 2683.73,-1390.74 2693.17,-1395.54 2694.1,-1388.6"/>
</g>
<!-- Y11_HHstructure&#45;&gt;Y11_Q40c -->
<g id="edge83" class="edge">
<title>Y11_HHstructure&#45;&gt;Y11_Q40c</title>
<path fill="none" stroke="black" d="M4163.7,-6382.63C4293.74,-6255.45 4667.94,-5866.77 4826.22,-5460.55 5078.3,-4813.6 5255.11,-2944.57 4918.22,-2337.45 4644.9,-1844.89 4004.52,-1524.27 3755.66,-1414.35"/>
<polygon fill="black" stroke="black" points="3756.81,-1411.03 3746.25,-1410.21 3754,-1417.44 3756.81,-1411.03"/>
</g>
<!-- Y11_HHstructure&#45;&gt;Y11_Q40d -->
<g id="edge84" class="edge">
<title>Y11_HHstructure&#45;&gt;Y11_Q40d</title>
<path fill="none" stroke="black" d="M4163.13,-6382.68C4292.75,-6254.9 4669.9,-5863.16 4853.22,-5460.55 5417.52,-4221.24 5207.17,-3786.32 5280.22,-2426.55 5282.35,-2387.01 5292.42,-2375.13 5280.22,-2337.45 5148.97,-1931.88 4776.63,-1553.57 4636.48,-1421.51"/>
<polygon fill="black" stroke="black" points="4638.47,-1418.58 4628.78,-1414.29 4633.68,-1423.68 4638.47,-1418.58"/>
</g>
<!-- Y11_HHstructure&#45;&gt;Y11_Q40e -->
<g id="edge85" class="edge">
<title>Y11_HHstructure&#45;&gt;Y11_Q40e</title>
<path fill="none" stroke="black" d="M3950.97,-6388.77C3410.95,-6265.44 1727.18,-5855.65 1352.22,-5460.55 868.81,-4951.16 567.44,-3121.76 468.22,-2426.55 413.77,-2044.97 508.98,-1580.67 545.15,-1425.42"/>
<polygon fill="black" stroke="black" points="548.57,-1426.18 547.45,-1415.64 541.75,-1424.58 548.57,-1426.18"/>
</g>
<!-- Y11_HHstructure&#45;&gt;Y11_Q40f -->
<g id="edge86" class="edge">
<title>Y11_HHstructure&#45;&gt;Y11_Q40f</title>
<path fill="none" stroke="black" d="M3954.71,-6388.45C3578.55,-6294.43 2641.5,-6015.64 2085.22,-5460.55 1066.55,-4444.04 1070.5,-3860.93 954.22,-2426.55 921.86,-2027.29 1156.47,-1575.74 1243.02,-1424.48"/>
<polygon fill="black" stroke="black" points="1246.3,-1425.79 1248.25,-1415.38 1240.23,-1422.3 1246.3,-1425.79"/>
</g>
<!-- Y11_HHstructure&#45;&gt;Y11_Q40g -->
<g id="edge87" class="edge">
<title>Y11_HHstructure&#45;&gt;Y11_Q40g</title>
<path fill="none" stroke="black" d="M4130.02,-6382.41C4235.59,-5988.57 5002.84,-3042.43 4525.22,-2337.45 4251.93,-1934.06 2724.1,-1525.4 2248.54,-1406.42"/>
<polygon fill="black" stroke="black" points="2249.08,-1402.95 2238.53,-1403.92 2247.38,-1409.74 2249.08,-1402.95"/>
</g>
<!-- Y11_HHstructure&#45;&gt;Y11_RuralUrban -->
<g id="edge90" class="edge">
<title>Y11_HHstructure&#45;&gt;Y11_RuralUrban</title>
<path fill="none" stroke="black" d="M4104.09,-6382.35C4032.94,-6163.32 3704.88,-5162.88 3391.22,-4360.45 3088.52,-3586.03 2668.63,-2664.51 2563.72,-2436.14"/>
<polygon fill="black" stroke="black" points="2566.75,-2434.36 2559.39,-2426.73 2560.39,-2437.28 2566.75,-2434.36"/>
</g>
<!-- Y11_HHstructure&#45;&gt;Y11_Q50d -->
<g id="edge91" class="edge">
<title>Y11_HHstructure&#45;&gt;Y11_Q50d</title>
<path fill="none" stroke="black" d="M4045.8,-6383.56C3735.23,-6197.76 2503.72,-5421.82 1884.22,-4449.55 1432.9,-3741.21 1304.02,-2685.74 1279.15,-2436.91"/>
<polygon fill="black" stroke="black" points="1282.61,-2436.3 1278.14,-2426.69 1275.64,-2436.99 1282.61,-2436.3"/>
</g>
<!-- Y11_HHstructure&#45;&gt;Y11_Q53a -->
<g id="edge92" class="edge">
<title>Y11_HHstructure&#45;&gt;Y11_Q53a</title>
<path fill="none" stroke="black" d="M4061.95,-6383C3750.67,-6143.84 2244.57,-4969.67 1993.22,-4449.55 1814.38,-4079.45 1824.92,-2724.46 1829.27,-2436.88"/>
<polygon fill="black" stroke="black" points="1832.77,-2436.76 1829.42,-2426.71 1825.77,-2436.65 1832.77,-2436.76"/>
</g>
<!-- Y11_HHstructure&#45;&gt;Y11_Q42 -->
<g id="edge79" class="edge">
<title>Y11_HHstructure&#45;&gt;Y11_Q42</title>
<path fill="none" stroke="black" d="M4040.38,-6383.61C3739.39,-6219.72 2653.42,-5628.38 2346.52,-5461.27"/>
<polygon fill="black" stroke="black" points="2348.13,-5458.16 2337.67,-5456.45 2344.78,-5464.3 2348.13,-5458.16"/>
</g>
<!-- Y11_HHstructure&#45;&gt;Y11_Q7 -->
<g id="edge88" class="edge">
<title>Y11_HHstructure&#45;&gt;Y11_Q7</title>
<path fill="none" stroke="black" d="M4099.15,-6382.4C3984.07,-6119.46 3383.29,-4746.62 3257.38,-4458.91"/>
<polygon fill="black" stroke="black" points="3260.49,-4457.29 3253.28,-4449.53 3254.08,-4460.1 3260.49,-4457.29"/>
</g>
<!-- Y11_HHstructure&#45;&gt;Y11_EmploymentStatus -->
<g id="edge89" class="edge">
<title>Y11_HHstructure&#45;&gt;Y11_EmploymentStatus</title>
<path fill="none" stroke="black" d="M4082.01,-6382.4C3863.26,-6119.07 2719.79,-4742.55 2483.12,-4457.64"/>
<polygon fill="black" stroke="black" points="2485.47,-4454.99 2476.39,-4449.53 2480.09,-4459.46 2485.47,-4454.99"/>
</g>
<!-- Y11_Q32 -->
<g id="node22" class="node">
<title>Y11_Q32</title>
<ellipse fill="none" stroke="black" cx="4717.22" cy="-6427" rx="171.24" ry="44.6"/>
<text text-anchor="middle" x="4717.22" y="-6414.5" font-family="Times,serif" font-size="50.00">Y11_Q32</text>
</g>
<!-- Y11_Q32&#45;&gt;Y11_Q57 -->
<g id="edge110" class="edge">
<title>Y11_Q32&#45;&gt;Y11_Q57</title>
<path fill="none" stroke="black" d="M4705.84,-6382.3C4667.13,-6236.06 4533.82,-5751.65 4370.22,-5371.45 4027.11,-4574.07 3474.28,-3668.79 3335.58,-3445.68"/>
<polygon fill="black" stroke="black" points="3338.5,-3443.75 3330.25,-3437.11 3332.56,-3447.45 3338.5,-3443.75"/>
</g>
<!-- Y11_Q32&#45;&gt;Y11_MWIndex -->
<g id="edge109" class="edge">
<title>Y11_Q32&#45;&gt;Y11_MWIndex</title>
<path fill="none" stroke="black" d="M4747.68,-6382.89C4891.34,-6175.24 5494.22,-5253.3 5494.22,-4406 5494.22,-4406 5494.22,-4406 5494.22,-2381 5494.22,-1061.2 3440.25,-529.12 2805.7,-396.23"/>
<polygon fill="black" stroke="black" points="2806.05,-392.73 2795.54,-394.11 2804.62,-399.58 2806.05,-392.73"/>
</g>
<!-- Y11_Q32&#45;&gt;Y11_Q18 -->
<g id="edge112" class="edge">
<title>Y11_Q32&#45;&gt;Y11_Q18</title>
<path fill="none" stroke="black" d="M4724.12,-6382.23C4745.78,-6237.27 4807.72,-5759.89 4750.22,-5371.45 4611.02,-4431.01 4478.57,-4199.68 4055.22,-3348.45 3872.96,-2981.97 3592.19,-2575.6 3492.17,-2434.54"/>
<polygon fill="black" stroke="black" points="3494.77,-2432.15 3486.13,-2426.03 3489.06,-2436.21 3494.77,-2432.15"/>
</g>
<!-- Y11_Q32&#45;&gt;Y11_Accommproblems -->
<g id="edge113" class="edge">
<title>Y11_Q32&#45;&gt;Y11_Accommproblems</title>
<path fill="none" stroke="black" d="M4728.96,-6382.33C4766.37,-6238.62 4879.46,-5766.97 4864.22,-5371.45 4829.18,-4461.63 4839.22,-4208.81 4541.22,-3348.45 4416.21,-2987.53 4204.01,-2578.39 4127.66,-2435.53"/>
<polygon fill="black" stroke="black" points="4130.63,-2433.67 4122.83,-2426.5 4124.46,-2436.97 4130.63,-2433.67"/>
</g>
<!-- Y11_Q32&#45;&gt;Y11_Q40a -->
<g id="edge114" class="edge">
<title>Y11_Q32&#45;&gt;Y11_Q40a</title>
<path fill="none" stroke="black" d="M4734.25,-6382.58C4786.21,-6248.06 4943.6,-5825.38 5016.22,-5460.55 5108.12,-4998.9 5114.22,-4876.71 5114.22,-4406 5114.22,-4406 5114.22,-4406 5114.22,-3392 5114.22,-2890.1 5056.53,-2700.74 4710.22,-2337.45 4124.29,-1722.79 3078.8,-1475.07 2675.86,-1399.48"/>
<polygon fill="black" stroke="black" points="2676.35,-1396.01 2665.88,-1397.62 2675.07,-1402.89 2676.35,-1396.01"/>
</g>
<!-- Y11_Q32&#45;&gt;Y11_Q40c -->
<g id="edge115" class="edge">
<title>Y11_Q32&#45;&gt;Y11_Q40c</title>
<path fill="none" stroke="black" d="M4743.18,-6382.85C4820.92,-6250.77 5051.21,-5838.06 5128.22,-5460.55 5266.94,-4780.53 5458.19,-2948.02 5128.22,-2337.45 4833.45,-1792.01 4081.54,-1505.09 3781.08,-1409.22"/>
<polygon fill="black" stroke="black" points="3782.04,-1405.85 3771.45,-1406.17 3779.93,-1412.53 3782.04,-1405.85"/>
</g>
<!-- Y11_Q32&#45;&gt;Y11_Q40d -->
<g id="edge116" class="edge">
<title>Y11_Q32&#45;&gt;Y11_Q40d</title>
<path fill="none" stroke="black" d="M4745.06,-6382.83C4828.88,-6250.72 5080.73,-5837.9 5204.22,-5460.55 5352.02,-5008.95 5380.22,-4881.17 5380.22,-4406 5380.22,-4406 5380.22,-4406 5380.22,-3392 5380.22,-2923.19 5516.65,-2777.96 5356.22,-2337.45 5204.92,-1922 4796.61,-1550.53 4642.35,-1420.86"/>
<polygon fill="black" stroke="black" points="4644.23,-1417.87 4634.31,-1414.13 4639.73,-1423.23 4644.23,-1417.87"/>
</g>
<!-- Y11_Q32&#45;&gt;Y11_Q40e -->
<g id="edge117" class="edge">
<title>Y11_Q32&#45;&gt;Y11_Q40e</title>
<path fill="none" stroke="black" d="M4598.19,-6394.99C4138.3,-6273.31 2483.47,-5817.69 2085.22,-5460.55 759.35,-4271.5 580.92,-1819.29 560.59,-1425.8"/>
<polygon fill="black" stroke="black" points="564.07,-1425.36 560.07,-1415.55 557.08,-1425.72 564.07,-1425.36"/>
</g>
<!-- Y11_Q32&#45;&gt;Y11_Q40f -->
<g id="edge118" class="edge">
<title>Y11_Q32&#45;&gt;Y11_Q40f</title>
<path fill="none" stroke="black" d="M4632.81,-6388.17C4261.28,-6217.72 2753.37,-5484.23 1922.22,-4449.55 1311.36,-3689.09 1264.15,-3382.7 1071.22,-2426.55 993.79,-2042.79 1179.96,-1579.1 1249.39,-1424.78"/>
<polygon fill="black" stroke="black" points="1252.66,-1426.05 1253.6,-1415.5 1246.28,-1423.16 1252.66,-1426.05"/>
</g>
<!-- Y11_Q32&#45;&gt;Y11_Q40g -->
<g id="edge119" class="edge">
<title>Y11_Q32&#45;&gt;Y11_Q40g</title>
<path fill="none" stroke="black" d="M4732.22,-6382.61C4849.86,-6033.59 5593.2,-3663.03 4558.22,-2337.45 4254.31,-1948.2 2718.9,-1528.63 2246.04,-1406.9"/>
<polygon fill="black" stroke="black" points="2246.64,-1403.44 2236.09,-1404.34 2244.9,-1410.22 2246.64,-1403.44"/>
</g>
<!-- Y11_Q32&#45;&gt;Y11_RuralUrban -->
<g id="edge122" class="edge">
<title>Y11_Q32&#45;&gt;Y11_RuralUrban</title>
<path fill="none" stroke="black" d="M4707.36,-6382.29C4641.08,-6095.01 4240.01,-4454.94 3483.22,-3348.45 3209.92,-2948.86 2763.25,-2565.69 2600.77,-2432.49"/>
<polygon fill="black" stroke="black" points="2602.75,-2429.58 2592.79,-2425.96 2598.31,-2435 2602.75,-2429.58"/>
</g>
<!-- Y11_Q32&#45;&gt;Y11_Q50d -->
<g id="edge123" class="edge">
<title>Y11_Q32&#45;&gt;Y11_Q50d</title>
<path fill="none" stroke="black" d="M4694.38,-6382.8C4610.21,-6227.14 4302.01,-5687.43 3914.22,-5371.45 3180.08,-4773.25 2636.87,-5144.19 1993.22,-4449.55 1697.72,-4130.63 1355.8,-2729.72 1286.75,-2436.81"/>
<polygon fill="black" stroke="black" points="1290.1,-2435.79 1284.41,-2426.86 1283.29,-2437.4 1290.1,-2435.79"/>
</g>
<!-- Y11_Q32&#45;&gt;Y11_Q53a -->
<g id="edge124" class="edge">
<title>Y11_Q32&#45;&gt;Y11_Q53a</title>
<path fill="none" stroke="black" d="M4698.57,-6382.45C4632.95,-6232.15 4401.12,-5724.96 4114.22,-5371.45 3725.61,-4892.62 3471.43,-4923.78 3077.22,-4449.55 2475.54,-3725.72 1969.68,-2681.09 1854.71,-2435.9"/>
<polygon fill="black" stroke="black" points="1857.72,-2434.08 1850.32,-2426.5 1851.38,-2437.04 1857.72,-2434.08"/>
</g>
<!-- Y11_Q32&#45;&gt;Y11_Q42 -->
<g id="edge111" class="edge">
<title>Y11_Q32&#45;&gt;Y11_Q42</title>
<path fill="none" stroke="black" d="M4627.41,-6389.04C4246.2,-6232.17 2763.32,-5621.97 2364.47,-5457.84"/>
<polygon fill="black" stroke="black" points="2365.55,-5454.5 2354.97,-5453.93 2362.89,-5460.97 2365.55,-5454.5"/>
</g>
<!-- Y11_Q32&#45;&gt;Y11_Q7 -->
<g id="edge120" class="edge">
<title>Y11_Q32&#45;&gt;Y11_Q7</title>
<path fill="none" stroke="black" d="M4709.37,-6382.26C4680.57,-6230.79 4569.86,-5718.95 4332.22,-5371.45 4035.53,-4937.59 3500.44,-4573.95 3306.72,-4450.78"/>
<polygon fill="black" stroke="black" points="3308.35,-4447.67 3298.03,-4445.27 3304.6,-4453.58 3308.35,-4447.67"/>
</g>
<!-- Y11_Q32&#45;&gt;Y11_EmploymentStatus -->
<g id="edge121" class="edge">
<title>Y11_Q32&#45;&gt;Y11_EmploymentStatus</title>
<path fill="none" stroke="black" d="M4699.57,-6382.55C4635.16,-6228.28 4399.01,-5698.55 4066.22,-5371.45 3589.9,-4903.27 2843.77,-4569.49 2557.47,-4452.17"/>
<polygon fill="black" stroke="black" points="2558.47,-4448.8 2547.89,-4448.26 2555.83,-4455.28 2558.47,-4448.8"/>
</g>
<!-- Y11_HHsize -->
<g id="node23" class="node">
<title>Y11_HHsize</title>
<ellipse fill="none" stroke="black" cx="2853.22" cy="-6427" rx="226.96" ry="44.6"/>
<text text-anchor="middle" x="2853.22" y="-6414.5" font-family="Times,serif" font-size="50.00">Y11_HHsize</text>
</g>
<!-- Y11_HHsize&#45;&gt;Y11_Q57 -->
<g id="edge126" class="edge">
<title>Y11_HHsize&#45;&gt;Y11_Q57</title>
<path fill="none" stroke="black" d="M2874.45,-6382.56C2974.8,-6174.51 3402.33,-5256.65 3538.22,-4449.55 3603.64,-4061.03 3403.89,-3600.17 3329.75,-3446.65"/>
<polygon fill="black" stroke="black" points="3332.78,-3444.88 3325.27,-3437.42 3326.49,-3447.94 3332.78,-3444.88"/>
</g>
<!-- Y11_HHsize&#45;&gt;Y11_MWIndex -->
<g id="edge125" class="edge">
<title>Y11_HHsize&#45;&gt;Y11_MWIndex</title>
<path fill="none" stroke="black" d="M2951.65,-6386.68C3209.71,-6278.7 3911.9,-5952.48 4289.22,-5460.55 4730.02,-4885.87 5367.65,-3046.76 5221.22,-2337.45 5122.29,-1858.22 5129.07,-1674.62 4785.22,-1326.45 4208.51,-742.49 3216.41,-482.36 2806.62,-395.99"/>
<polygon fill="black" stroke="black" points="2807.26,-392.54 2796.75,-393.91 2805.82,-399.39 2807.26,-392.54"/>
</g>
<!-- Y11_HHsize&#45;&gt;Y11_Q18 -->
<g id="edge128" class="edge">
<title>Y11_HHsize&#45;&gt;Y11_Q18</title>
<path fill="none" stroke="black" d="M2887.17,-6382.72C3044,-6179.8 3700.6,-5296.94 3934.22,-4449.55 4064.37,-3977.49 4091.39,-3823.4 3972.22,-3348.45 3876.6,-2967.31 3598.41,-2572.33 3494.76,-2434.27"/>
<polygon fill="black" stroke="black" points="3497.3,-2431.82 3488.48,-2425.94 3491.71,-2436.03 3497.3,-2431.82"/>
</g>
<!-- Y11_HHsize&#45;&gt;Y11_Accommproblems -->
<g id="edge129" class="edge">
<title>Y11_HHsize&#45;&gt;Y11_Accommproblems</title>
<path fill="none" stroke="black" d="M2895.99,-6383.08C3089.62,-6185.18 3885.06,-5332.58 4124.22,-4449.55 4334.02,-3674.95 4158.14,-2676.42 4110.36,-2436.51"/>
<polygon fill="black" stroke="black" points="4113.78,-2435.77 4108.38,-2426.65 4106.92,-2437.14 4113.78,-2435.77"/>
</g>
<!-- Y11_HHsize&#45;&gt;Y11_Q40a -->
<g id="edge130" class="edge">
<title>Y11_HHsize&#45;&gt;Y11_Q40a</title>
<path fill="none" stroke="black" d="M2805.99,-6383.25C2669.73,-6256.99 2273.63,-5868.96 2085.22,-5460.55 1514.04,-4222.35 1710.39,-3787.72 1629.22,-2426.55 1626.87,-2387.02 1614.9,-2374.37 1629.22,-2337.45 1797.98,-1902.53 2264.1,-1543.77 2441.47,-1419.13"/>
<polygon fill="black" stroke="black" points="2443.51,-1421.97 2449.7,-1413.37 2439.5,-1416.24 2443.51,-1421.97"/>
</g>
<!-- Y11_HHsize&#45;&gt;Y11_Q40c -->
<g id="edge131" class="edge">
<title>Y11_HHsize&#45;&gt;Y11_Q40c</title>
<path fill="none" stroke="black" d="M2898.61,-6383.03C3033.1,-6253.89 3435.75,-5853.82 3687.22,-5460.55 4459.85,-4252.27 4653.2,-3854.55 4786.22,-2426.55 4837.84,-1872.46 4064.44,-1524.51 3767.63,-1411.96"/>
<polygon fill="black" stroke="black" points="3768.72,-1408.64 3758.13,-1408.38 3766.25,-1415.18 3768.72,-1408.64"/>
</g>
<!-- Y11_HHsize&#45;&gt;Y11_Q40d -->
<g id="edge132" class="edge">
<title>Y11_HHsize&#45;&gt;Y11_Q40d</title>
<path fill="none" stroke="black" d="M2950.12,-6386.59C3204.02,-6278.37 3894.04,-5951.63 4256.22,-5460.55 4361.04,-5318.43 5177.59,-2601.12 5204.22,-2426.55 5271.37,-1986.5 4812.39,-1560.69 4643.16,-1420.32"/>
<polygon fill="black" stroke="black" points="4645.27,-1417.52 4635.33,-1413.85 4640.81,-1422.91 4645.27,-1417.52"/>
</g>
<!-- Y11_HHsize&#45;&gt;Y11_Q40e -->
<g id="edge133" class="edge">
<title>Y11_HHsize&#45;&gt;Y11_Q40e</title>
<path fill="none" stroke="black" d="M2752.93,-6386.94C2488.87,-6279.29 1767.19,-5953.29 1365.22,-5460.55 470.09,-4363.26 558.85,-3832.8 392.22,-2426.55 346.5,-2040.7 487,-1579.58 539.37,-1425.25"/>
<polygon fill="black" stroke="black" points="542.77,-1426.13 542.69,-1415.53 536.15,-1423.86 542.77,-1426.13"/>
</g>
<!-- Y11_HHsize&#45;&gt;Y11_Q40f -->
<g id="edge134" class="edge">
<title>Y11_HHsize&#45;&gt;Y11_Q40f</title>
<path fill="none" stroke="black" d="M2762.07,-6386.16C2516.27,-6274.57 1831.93,-5935.69 1439.22,-5460.55 1127.15,-5082.96 1160.51,-4912.45 1000.22,-4449.55 844.65,-4000.25 525.02,-2793.88 658.22,-2337.45 773.19,-1943.53 1103.16,-1557.26 1226.74,-1422.34"/>
<polygon fill="black" stroke="black" points="1229.68,-1424.31 1233.88,-1414.58 1224.53,-1419.57 1229.68,-1424.31"/>
</g>
<!-- Y11_HHsize&#45;&gt;Y11_Q40g -->
<g id="edge135" class="edge">
<title>Y11_HHsize&#45;&gt;Y11_Q40g</title>
<path fill="none" stroke="black" d="M2758.67,-6386.31C2511.05,-6277.41 1839.21,-5949.16 1497.22,-5460.55 1229.94,-5078.66 1297.5,-4908.89 1218.22,-4449.55 1138.21,-3985.91 883.55,-2768.89 1071.22,-2337.45 1271.96,-1876 1813.99,-1535.26 2023.23,-1417.2"/>
<polygon fill="black" stroke="black" points="2025.03,-1420.2 2032.04,-1412.25 2021.61,-1414.1 2025.03,-1420.2"/>
</g>
<!-- Y11_HHsize&#45;&gt;Y11_RuralUrban -->
<g id="edge138" class="edge">
<title>Y11_HHsize&#45;&gt;Y11_RuralUrban</title>
<path fill="none" stroke="black" d="M2857.02,-6382.34C2875.4,-6164.29 2952.33,-5171.44 2903.22,-4360.45 2875.84,-3908.19 2862.58,-3793.99 2780.22,-3348.45 2715.21,-2996.75 2597.73,-2582.48 2555.17,-2436.86"/>
<polygon fill="black" stroke="black" points="2558.41,-2435.45 2552.24,-2426.84 2551.69,-2437.42 2558.41,-2435.45"/>
</g>
<!-- Y11_HHsize&#45;&gt;Y11_Q50d -->
<g id="edge139" class="edge">
<title>Y11_HHsize&#45;&gt;Y11_Q50d</title>
<path fill="none" stroke="black" d="M2756.36,-6386.63C2507.48,-6279.88 1844.44,-5959.03 1548.22,-5460.55 1064.43,-4646.41 1262.3,-4295.48 1266.22,-3348.45 1267.66,-3001.02 1272.02,-2583.28 1273.62,-2436.85"/>
<polygon fill="black" stroke="black" points="1277.12,-2436.82 1273.73,-2426.78 1270.12,-2436.74 1277.12,-2436.82"/>
</g>
<!-- Y11_HHsize&#45;&gt;Y11_Q53a -->
<g id="edge140" class="edge">
<title>Y11_HHsize&#45;&gt;Y11_Q53a</title>
<path fill="none" stroke="black" d="M2751.9,-6386.95C2497.31,-6282.56 1833.16,-5969.82 1580.22,-5460.55 1301.68,-4899.72 1739.76,-2799.35 1818.45,-2436.55"/>
<polygon fill="black" stroke="black" points="1821.91,-2437.09 1820.62,-2426.57 1815.07,-2435.6 1821.91,-2437.09"/>
</g>
<!-- Y11_HHsize&#45;&gt;Y11_Q42 -->
<g id="edge127" class="edge">
<title>Y11_HHsize&#45;&gt;Y11_Q42</title>
<path fill="none" stroke="black" d="M2827.96,-6382.64C2733.11,-6219.88 2398.44,-5645.6 2295.55,-5469.04"/>
<polygon fill="black" stroke="black" points="2298.45,-5467.07 2290.4,-5460.19 2292.41,-5470.6 2298.45,-5467.07"/>
</g>
<!-- Y11_HHsize&#45;&gt;Y11_Q7 -->
<g id="edge136" class="edge">
<title>Y11_HHsize&#45;&gt;Y11_Q7</title>
<path fill="none" stroke="black" d="M2867.28,-6382.25C2910.28,-6246.81 3041.28,-5821.74 3110.22,-5460.55 3182.65,-5081.09 3219.59,-4616.23 3230.61,-4460.06"/>
<polygon fill="black" stroke="black" points="3234.13,-4460.01 3231.33,-4449.79 3227.14,-4459.52 3234.13,-4460.01"/>
</g>
<!-- Y11_HHsize&#45;&gt;Y11_EmploymentStatus -->
<g id="edge137" class="edge">
<title>Y11_HHsize&#45;&gt;Y11_EmploymentStatus</title>
<path fill="none" stroke="black" d="M2844.31,-6382.4C2790.61,-6119.73 2510.45,-4749.46 2451.23,-4459.81"/>
<polygon fill="black" stroke="black" points="2454.65,-4459.06 2449.21,-4449.97 2447.79,-4460.46 2454.65,-4459.06"/>
</g>
</g>
</svg>
