<?xml version="1.0" encoding="utf-8" standalone="no"?>
<!DOCTYPE svg PUBLIC "-//W3C//DTD SVG 1.1//EN"
  "http://www.w3.org/Graphics/SVG/1.1/DTD/svg11.dtd">
<svg xmlns:xlink="http://www.w3.org/1999/xlink" width="619.698937pt" height="387.848625pt" viewBox="0 0 619.698937 387.848625" xmlns="http://www.w3.org/2000/svg" version="1.1">
 <metadata>
  <rdf:RDF xmlns:dc="http://purl.org/dc/elements/1.1/" xmlns:cc="http://creativecommons.org/ns#" xmlns:rdf="http://www.w3.org/1999/02/22-rdf-syntax-ns#">
   <cc:Work>
    <dc:type rdf:resource="http://purl.org/dc/dcmitype/StillImage"/>
    <dc:date>2025-09-02T20:06:09.771265</dc:date>
    <dc:format>image/svg+xml</dc:format>
    <dc:creator>
     <cc:Agent>
      <dc:title>Matplotlib v3.10.3, https://matplotlib.org/</dc:title>
     </cc:Agent>
    </dc:creator>
   </cc:Work>
  </rdf:RDF>
 </metadata>
 <defs>
  <style type="text/css">*{stroke-linejoin: round; stroke-linecap: butt}</style>
 </defs>
 <g id="figure_1">
  <g id="patch_1">
   <path d="M 0 387.848625 
L 619.698937 387.848625 
L 619.698937 0 
L 0 0 
z
" style="fill: #ffffff"/>
  </g>
  <g id="axes_1">
   <g id="patch_2">
    <path d="M 43.36675 339.84 
L 601.36675 339.84 
L 601.36675 7.2 
L 43.36675 7.2 
z
" style="fill: #e5e5e5"/>
   </g>
   <g id="matplotlib.axis_1">
    <g id="xtick_1">
     <g id="line2d_1">
      <path d="M 43.36675 339.84 
L 43.36675 7.2 
" clip-path="url(#p70d9f2b8e1)" style="fill: none; stroke: #ffffff; stroke-width: 0.8; stroke-linecap: square"/>
     </g>
     <g id="line2d_2">
      <defs>
       <path id="mffa069f7e2" d="M 0 0 
L 0 3.5 
" style="stroke: #555555; stroke-width: 0.8"/>
      </defs>
      <g>
       <use xlink:href="#mffa069f7e2" x="43.36675" y="339.84" style="fill: #555555; stroke: #555555; stroke-width: 0.8"/>
      </g>
     </g>
     <g id="text_1">
      <!-- 0.0 -->
      <g style="fill: #555555" transform="translate(32.234563 357.477812) scale(0.14 -0.14)">
       <defs>
        <path id="DejaVuSans-30" d="M 2034 4250 
Q 1547 4250 1301 3770 
Q 1056 3291 1056 2328 
Q 1056 1369 1301 889 
Q 1547 409 2034 409 
Q 2525 409 2770 889 
Q 3016 1369 3016 2328 
Q 3016 3291 2770 3770 
Q 2525 4250 2034 4250 
z
M 2034 4750 
Q 2819 4750 3233 4129 
Q 3647 3509 3647 2328 
Q 3647 1150 3233 529 
Q 2819 -91 2034 -91 
Q 1250 -91 836 529 
Q 422 1150 422 2328 
Q 422 3509 836 4129 
Q 1250 4750 2034 4750 
z
" transform="scale(0.015625)"/>
        <path id="DejaVuSans-2e" d="M 684 794 
L 1344 794 
L 1344 0 
L 684 0 
L 684 794 
z
" transform="scale(0.015625)"/>
       </defs>
       <use xlink:href="#DejaVuSans-30"/>
       <use xlink:href="#DejaVuSans-2e" transform="translate(63.623047 0)"/>
       <use xlink:href="#DejaVuSans-30" transform="translate(95.410156 0)"/>
      </g>
     </g>
    </g>
    <g id="xtick_2">
     <g id="line2d_3">
      <path d="M 154.96675 339.84 
L 154.96675 7.2 
" clip-path="url(#p70d9f2b8e1)" style="fill: none; stroke: #ffffff; stroke-width: 0.8; stroke-linecap: square"/>
     </g>
     <g id="line2d_4">
      <g>
       <use xlink:href="#mffa069f7e2" x="154.96675" y="339.84" style="fill: #555555; stroke: #555555; stroke-width: 0.8"/>
      </g>
     </g>
     <g id="text_2">
      <!-- 0.2 -->
      <g style="fill: #555555" transform="translate(143.834563 357.477812) scale(0.14 -0.14)">
       <defs>
        <path id="DejaVuSans-32" d="M 1228 531 
L 3431 531 
L 3431 0 
L 469 0 
L 469 531 
Q 828 903 1448 1529 
Q 2069 2156 2228 2338 
Q 2531 2678 2651 2914 
Q 2772 3150 2772 3378 
Q 2772 3750 2511 3984 
Q 2250 4219 1831 4219 
Q 1534 4219 1204 4116 
Q 875 4013 500 3803 
L 500 4441 
Q 881 4594 1212 4672 
Q 1544 4750 1819 4750 
Q 2544 4750 2975 4387 
Q 3406 4025 3406 3419 
Q 3406 3131 3298 2873 
Q 3191 2616 2906 2266 
Q 2828 2175 2409 1742 
Q 1991 1309 1228 531 
z
" transform="scale(0.015625)"/>
       </defs>
       <use xlink:href="#DejaVuSans-30"/>
       <use xlink:href="#DejaVuSans-2e" transform="translate(63.623047 0)"/>
       <use xlink:href="#DejaVuSans-32" transform="translate(95.410156 0)"/>
      </g>
     </g>
    </g>
    <g id="xtick_3">
     <g id="line2d_5">
      <path d="M 266.56675 339.84 
L 266.56675 7.2 
" clip-path="url(#p70d9f2b8e1)" style="fill: none; stroke: #ffffff; stroke-width: 0.8; stroke-linecap: square"/>
     </g>
     <g id="line2d_6">
      <g>
       <use xlink:href="#mffa069f7e2" x="266.56675" y="339.84" style="fill: #555555; stroke: #555555; stroke-width: 0.8"/>
      </g>
     </g>
     <g id="text_3">
      <!-- 0.4 -->
      <g style="fill: #555555" transform="translate(255.434563 357.477812) scale(0.14 -0.14)">
       <defs>
        <path id="DejaVuSans-34" d="M 2419 4116 
L 825 1625 
L 2419 1625 
L 2419 4116 
z
M 2253 4666 
L 3047 4666 
L 3047 1625 
L 3713 1625 
L 3713 1100 
L 3047 1100 
L 3047 0 
L 2419 0 
L 2419 1100 
L 313 1100 
L 313 1709 
L 2253 4666 
z
" transform="scale(0.015625)"/>
       </defs>
       <use xlink:href="#DejaVuSans-30"/>
       <use xlink:href="#DejaVuSans-2e" transform="translate(63.623047 0)"/>
       <use xlink:href="#DejaVuSans-34" transform="translate(95.410156 0)"/>
      </g>
     </g>
    </g>
    <g id="xtick_4">
     <g id="line2d_7">
      <path d="M 378.16675 339.84 
L 378.16675 7.2 
" clip-path="url(#p70d9f2b8e1)" style="fill: none; stroke: #ffffff; stroke-width: 0.8; stroke-linecap: square"/>
     </g>
     <g id="line2d_8">
      <g>
       <use xlink:href="#mffa069f7e2" x="378.16675" y="339.84" style="fill: #555555; stroke: #555555; stroke-width: 0.8"/>
      </g>
     </g>
     <g id="text_4">
      <!-- 0.6 -->
      <g style="fill: #555555" transform="translate(367.034563 357.477812) scale(0.14 -0.14)">
       <defs>
        <path id="DejaVuSans-36" d="M 2113 2584 
Q 1688 2584 1439 2293 
Q 1191 2003 1191 1497 
Q 1191 994 1439 701 
Q 1688 409 2113 409 
Q 2538 409 2786 701 
Q 3034 994 3034 1497 
Q 3034 2003 2786 2293 
Q 2538 2584 2113 2584 
z
M 3366 4563 
L 3366 3988 
Q 3128 4100 2886 4159 
Q 2644 4219 2406 4219 
Q 1781 4219 1451 3797 
Q 1122 3375 1075 2522 
Q 1259 2794 1537 2939 
Q 1816 3084 2150 3084 
Q 2853 3084 3261 2657 
Q 3669 2231 3669 1497 
Q 3669 778 3244 343 
Q 2819 -91 2113 -91 
Q 1303 -91 875 529 
Q 447 1150 447 2328 
Q 447 3434 972 4092 
Q 1497 4750 2381 4750 
Q 2619 4750 2861 4703 
Q 3103 4656 3366 4563 
z
" transform="scale(0.015625)"/>
       </defs>
       <use xlink:href="#DejaVuSans-30"/>
       <use xlink:href="#DejaVuSans-2e" transform="translate(63.623047 0)"/>
       <use xlink:href="#DejaVuSans-36" transform="translate(95.410156 0)"/>
      </g>
     </g>
    </g>
    <g id="xtick_5">
     <g id="line2d_9">
      <path d="M 489.76675 339.84 
L 489.76675 7.2 
" clip-path="url(#p70d9f2b8e1)" style="fill: none; stroke: #ffffff; stroke-width: 0.8; stroke-linecap: square"/>
     </g>
     <g id="line2d_10">
      <g>
       <use xlink:href="#mffa069f7e2" x="489.76675" y="339.84" style="fill: #555555; stroke: #555555; stroke-width: 0.8"/>
      </g>
     </g>
     <g id="text_5">
      <!-- 0.8 -->
      <g style="fill: #555555" transform="translate(478.634563 357.477812) scale(0.14 -0.14)">
       <defs>
        <path id="DejaVuSans-38" d="M 2034 2216 
Q 1584 2216 1326 1975 
Q 1069 1734 1069 1313 
Q 1069 891 1326 650 
Q 1584 409 2034 409 
Q 2484 409 2743 651 
Q 3003 894 3003 1313 
Q 3003 1734 2745 1975 
Q 2488 2216 2034 2216 
z
M 1403 2484 
Q 997 2584 770 2862 
Q 544 3141 544 3541 
Q 544 4100 942 4425 
Q 1341 4750 2034 4750 
Q 2731 4750 3128 4425 
Q 3525 4100 3525 3541 
Q 3525 3141 3298 2862 
Q 3072 2584 2669 2484 
Q 3125 2378 3379 2068 
Q 3634 1759 3634 1313 
Q 3634 634 3220 271 
Q 2806 -91 2034 -91 
Q 1263 -91 848 271 
Q 434 634 434 1313 
Q 434 1759 690 2068 
Q 947 2378 1403 2484 
z
M 1172 3481 
Q 1172 3119 1398 2916 
Q 1625 2713 2034 2713 
Q 2441 2713 2670 2916 
Q 2900 3119 2900 3481 
Q 2900 3844 2670 4047 
Q 2441 4250 2034 4250 
Q 1625 4250 1398 4047 
Q 1172 3844 1172 3481 
z
" transform="scale(0.015625)"/>
       </defs>
       <use xlink:href="#DejaVuSans-30"/>
       <use xlink:href="#DejaVuSans-2e" transform="translate(63.623047 0)"/>
       <use xlink:href="#DejaVuSans-38" transform="translate(95.410156 0)"/>
      </g>
     </g>
    </g>
    <g id="xtick_6">
     <g id="line2d_11">
      <path d="M 601.36675 339.84 
L 601.36675 7.2 
" clip-path="url(#p70d9f2b8e1)" style="fill: none; stroke: #ffffff; stroke-width: 0.8; stroke-linecap: square"/>
     </g>
     <g id="line2d_12">
      <g>
       <use xlink:href="#mffa069f7e2" x="601.36675" y="339.84" style="fill: #555555; stroke: #555555; stroke-width: 0.8"/>
      </g>
     </g>
     <g id="text_6">
      <!-- 1.0 -->
      <g style="fill: #555555" transform="translate(590.234563 357.477812) scale(0.14 -0.14)">
       <defs>
        <path id="DejaVuSans-31" d="M 794 531 
L 1825 531 
L 1825 4091 
L 703 3866 
L 703 4441 
L 1819 4666 
L 2450 4666 
L 2450 531 
L 3481 531 
L 3481 0 
L 794 0 
L 794 531 
z
" transform="scale(0.015625)"/>
       </defs>
       <use xlink:href="#DejaVuSans-31"/>
       <use xlink:href="#DejaVuSans-2e" transform="translate(63.623047 0)"/>
       <use xlink:href="#DejaVuSans-30" transform="translate(95.410156 0)"/>
      </g>
     </g>
    </g>
    <g id="text_7">
     <!-- Propensity Score -->
     <g style="fill: #555555" transform="translate(252.052188 377.15475) scale(0.168 -0.168)">
      <defs>
       <path id="DejaVuSans-50" d="M 1259 4147 
L 1259 2394 
L 2053 2394 
Q 2494 2394 2734 2622 
Q 2975 2850 2975 3272 
Q 2975 3691 2734 3919 
Q 2494 4147 2053 4147 
L 1259 4147 
z
M 628 4666 
L 2053 4666 
Q 2838 4666 3239 4311 
Q 3641 3956 3641 3272 
Q 3641 2581 3239 2228 
Q 2838 1875 2053 1875 
L 1259 1875 
L 1259 0 
L 628 0 
L 628 4666 
z
" transform="scale(0.015625)"/>
       <path id="DejaVuSans-72" d="M 2631 2963 
Q 2534 3019 2420 3045 
Q 2306 3072 2169 3072 
Q 1681 3072 1420 2755 
Q 1159 2438 1159 1844 
L 1159 0 
L 581 0 
L 581 3500 
L 1159 3500 
L 1159 2956 
Q 1341 3275 1631 3429 
Q 1922 3584 2338 3584 
Q 2397 3584 2469 3576 
Q 2541 3569 2628 3553 
L 2631 2963 
z
" transform="scale(0.015625)"/>
       <path id="DejaVuSans-6f" d="M 1959 3097 
Q 1497 3097 1228 2736 
Q 959 2375 959 1747 
Q 959 1119 1226 758 
Q 1494 397 1959 397 
Q 2419 397 2687 759 
Q 2956 1122 2956 1747 
Q 2956 2369 2687 2733 
Q 2419 3097 1959 3097 
z
M 1959 3584 
Q 2709 3584 3137 3096 
Q 3566 2609 3566 1747 
Q 3566 888 3137 398 
Q 2709 -91 1959 -91 
Q 1206 -91 779 398 
Q 353 888 353 1747 
Q 353 2609 779 3096 
Q 1206 3584 1959 3584 
z
" transform="scale(0.015625)"/>
       <path id="DejaVuSans-70" d="M 1159 525 
L 1159 -1331 
L 581 -1331 
L 581 3500 
L 1159 3500 
L 1159 2969 
Q 1341 3281 1617 3432 
Q 1894 3584 2278 3584 
Q 2916 3584 3314 3078 
Q 3713 2572 3713 1747 
Q 3713 922 3314 415 
Q 2916 -91 2278 -91 
Q 1894 -91 1617 61 
Q 1341 213 1159 525 
z
M 3116 1747 
Q 3116 2381 2855 2742 
Q 2594 3103 2138 3103 
Q 1681 3103 1420 2742 
Q 1159 2381 1159 1747 
Q 1159 1113 1420 752 
Q 1681 391 2138 391 
Q 2594 391 2855 752 
Q 3116 1113 3116 1747 
z
" transform="scale(0.015625)"/>
       <path id="DejaVuSans-65" d="M 3597 1894 
L 3597 1613 
L 953 1613 
Q 991 1019 1311 708 
Q 1631 397 2203 397 
Q 2534 397 2845 478 
Q 3156 559 3463 722 
L 3463 178 
Q 3153 47 2828 -22 
Q 2503 -91 2169 -91 
Q 1331 -91 842 396 
Q 353 884 353 1716 
Q 353 2575 817 3079 
Q 1281 3584 2069 3584 
Q 2775 3584 3186 3129 
Q 3597 2675 3597 1894 
z
M 3022 2063 
Q 3016 2534 2758 2815 
Q 2500 3097 2075 3097 
Q 1594 3097 1305 2825 
Q 1016 2553 972 2059 
L 3022 2063 
z
" transform="scale(0.015625)"/>
       <path id="DejaVuSans-6e" d="M 3513 2113 
L 3513 0 
L 2938 0 
L 2938 2094 
Q 2938 2591 2744 2837 
Q 2550 3084 2163 3084 
Q 1697 3084 1428 2787 
Q 1159 2491 1159 1978 
L 1159 0 
L 581 0 
L 581 3500 
L 1159 3500 
L 1159 2956 
Q 1366 3272 1645 3428 
Q 1925 3584 2291 3584 
Q 2894 3584 3203 3211 
Q 3513 2838 3513 2113 
z
" transform="scale(0.015625)"/>
       <path id="DejaVuSans-73" d="M 2834 3397 
L 2834 2853 
Q 2591 2978 2328 3040 
Q 2066 3103 1784 3103 
Q 1356 3103 1142 2972 
Q 928 2841 928 2578 
Q 928 2378 1081 2264 
Q 1234 2150 1697 2047 
L 1894 2003 
Q 2506 1872 2764 1633 
Q 3022 1394 3022 966 
Q 3022 478 2636 193 
Q 2250 -91 1575 -91 
Q 1294 -91 989 -36 
Q 684 19 347 128 
L 347 722 
Q 666 556 975 473 
Q 1284 391 1588 391 
Q 1994 391 2212 530 
Q 2431 669 2431 922 
Q 2431 1156 2273 1281 
Q 2116 1406 1581 1522 
L 1381 1569 
Q 847 1681 609 1914 
Q 372 2147 372 2553 
Q 372 3047 722 3315 
Q 1072 3584 1716 3584 
Q 2034 3584 2315 3537 
Q 2597 3491 2834 3397 
z
" transform="scale(0.015625)"/>
       <path id="DejaVuSans-69" d="M 603 3500 
L 1178 3500 
L 1178 0 
L 603 0 
L 603 3500 
z
M 603 4863 
L 1178 4863 
L 1178 4134 
L 603 4134 
L 603 4863 
z
" transform="scale(0.015625)"/>
       <path id="DejaVuSans-74" d="M 1172 4494 
L 1172 3500 
L 2356 3500 
L 2356 3053 
L 1172 3053 
L 1172 1153 
Q 1172 725 1289 603 
Q 1406 481 1766 481 
L 2356 481 
L 2356 0 
L 1766 0 
Q 1100 0 847 248 
Q 594 497 594 1153 
L 594 3053 
L 172 3053 
L 172 3500 
L 594 3500 
L 594 4494 
L 1172 4494 
z
" transform="scale(0.015625)"/>
       <path id="DejaVuSans-79" d="M 2059 -325 
Q 1816 -950 1584 -1140 
Q 1353 -1331 966 -1331 
L 506 -1331 
L 506 -850 
L 844 -850 
Q 1081 -850 1212 -737 
Q 1344 -625 1503 -206 
L 1606 56 
L 191 3500 
L 800 3500 
L 1894 763 
L 2988 3500 
L 3597 3500 
L 2059 -325 
z
" transform="scale(0.015625)"/>
       <path id="DejaVuSans-20" transform="scale(0.015625)"/>
       <path id="DejaVuSans-53" d="M 3425 4513 
L 3425 3897 
Q 3066 4069 2747 4153 
Q 2428 4238 2131 4238 
Q 1616 4238 1336 4038 
Q 1056 3838 1056 3469 
Q 1056 3159 1242 3001 
Q 1428 2844 1947 2747 
L 2328 2669 
Q 3034 2534 3370 2195 
Q 3706 1856 3706 1288 
Q 3706 609 3251 259 
Q 2797 -91 1919 -91 
Q 1588 -91 1214 -16 
Q 841 59 441 206 
L 441 856 
Q 825 641 1194 531 
Q 1563 422 1919 422 
Q 2459 422 2753 634 
Q 3047 847 3047 1241 
Q 3047 1584 2836 1778 
Q 2625 1972 2144 2069 
L 1759 2144 
Q 1053 2284 737 2584 
Q 422 2884 422 3419 
Q 422 4038 858 4394 
Q 1294 4750 2059 4750 
Q 2388 4750 2728 4690 
Q 3069 4631 3425 4513 
z
" transform="scale(0.015625)"/>
       <path id="DejaVuSans-63" d="M 3122 3366 
L 3122 2828 
Q 2878 2963 2633 3030 
Q 2388 3097 2138 3097 
Q 1578 3097 1268 2742 
Q 959 2388 959 1747 
Q 959 1106 1268 751 
Q 1578 397 2138 397 
Q 2388 397 2633 464 
Q 2878 531 3122 666 
L 3122 134 
Q 2881 22 2623 -34 
Q 2366 -91 2075 -91 
Q 1284 -91 818 406 
Q 353 903 353 1747 
Q 353 2603 823 3093 
Q 1294 3584 2113 3584 
Q 2378 3584 2631 3529 
Q 2884 3475 3122 3366 
z
" transform="scale(0.015625)"/>
      </defs>
      <use xlink:href="#DejaVuSans-50"/>
      <use xlink:href="#DejaVuSans-72" transform="translate(58.552734 0)"/>
      <use xlink:href="#DejaVuSans-6f" transform="translate(97.416016 0)"/>
      <use xlink:href="#DejaVuSans-70" transform="translate(158.597656 0)"/>
      <use xlink:href="#DejaVuSans-65" transform="translate(222.074219 0)"/>
      <use xlink:href="#DejaVuSans-6e" transform="translate(283.597656 0)"/>
      <use xlink:href="#DejaVuSans-73" transform="translate(346.976562 0)"/>
      <use xlink:href="#DejaVuSans-69" transform="translate(399.076172 0)"/>
      <use xlink:href="#DejaVuSans-74" transform="translate(426.859375 0)"/>
      <use xlink:href="#DejaVuSans-79" transform="translate(466.068359 0)"/>
      <use xlink:href="#DejaVuSans-20" transform="translate(525.248047 0)"/>
      <use xlink:href="#DejaVuSans-53" transform="translate(557.035156 0)"/>
      <use xlink:href="#DejaVuSans-63" transform="translate(620.511719 0)"/>
      <use xlink:href="#DejaVuSans-6f" transform="translate(675.492188 0)"/>
      <use xlink:href="#DejaVuSans-72" transform="translate(736.673828 0)"/>
      <use xlink:href="#DejaVuSans-65" transform="translate(775.537109 0)"/>
     </g>
    </g>
   </g>
   <g id="matplotlib.axis_2">
    <g id="ytick_1">
     <g id="line2d_13">
      <path d="M 43.36675 339.84 
L 601.36675 339.84 
" clip-path="url(#p70d9f2b8e1)" style="fill: none; stroke: #ffffff; stroke-width: 0.8; stroke-linecap: square"/>
     </g>
     <g id="line2d_14">
      <defs>
       <path id="md7d5405d95" d="M 0 0 
L -3.5 0 
" style="stroke: #555555; stroke-width: 0.8"/>
      </defs>
      <g>
       <use xlink:href="#md7d5405d95" x="43.36675" y="339.84" style="fill: #555555; stroke: #555555; stroke-width: 0.8"/>
      </g>
     </g>
     <g id="text_8">
      <!-- 0 -->
      <g style="fill: #555555" transform="translate(27.45925 345.158906) scale(0.14 -0.14)">
       <use xlink:href="#DejaVuSans-30"/>
      </g>
     </g>
    </g>
    <g id="ytick_2">
     <g id="line2d_15">
      <path d="M 43.36675 283.088619 
L 601.36675 283.088619 
" clip-path="url(#p70d9f2b8e1)" style="fill: none; stroke: #ffffff; stroke-width: 0.8; stroke-linecap: square"/>
     </g>
     <g id="line2d_16">
      <g>
       <use xlink:href="#md7d5405d95" x="43.36675" y="283.088619" style="fill: #555555; stroke: #555555; stroke-width: 0.8"/>
      </g>
     </g>
     <g id="text_9">
      <!-- 1 -->
      <g style="fill: #555555" transform="translate(27.45925 288.407525) scale(0.14 -0.14)">
       <use xlink:href="#DejaVuSans-31"/>
      </g>
     </g>
    </g>
    <g id="ytick_3">
     <g id="line2d_17">
      <path d="M 43.36675 226.337238 
L 601.36675 226.337238 
" clip-path="url(#p70d9f2b8e1)" style="fill: none; stroke: #ffffff; stroke-width: 0.8; stroke-linecap: square"/>
     </g>
     <g id="line2d_18">
      <g>
       <use xlink:href="#md7d5405d95" x="43.36675" y="226.337238" style="fill: #555555; stroke: #555555; stroke-width: 0.8"/>
      </g>
     </g>
     <g id="text_10">
      <!-- 2 -->
      <g style="fill: #555555" transform="translate(27.45925 231.656145) scale(0.14 -0.14)">
       <use xlink:href="#DejaVuSans-32"/>
      </g>
     </g>
    </g>
    <g id="ytick_4">
     <g id="line2d_19">
      <path d="M 43.36675 169.585858 
L 601.36675 169.585858 
" clip-path="url(#p70d9f2b8e1)" style="fill: none; stroke: #ffffff; stroke-width: 0.8; stroke-linecap: square"/>
     </g>
     <g id="line2d_20">
      <g>
       <use xlink:href="#md7d5405d95" x="43.36675" y="169.585858" style="fill: #555555; stroke: #555555; stroke-width: 0.8"/>
      </g>
     </g>
     <g id="text_11">
      <!-- 3 -->
      <g style="fill: #555555" transform="translate(27.45925 174.904764) scale(0.14 -0.14)">
       <defs>
        <path id="DejaVuSans-33" d="M 2597 2516 
Q 3050 2419 3304 2112 
Q 3559 1806 3559 1356 
Q 3559 666 3084 287 
Q 2609 -91 1734 -91 
Q 1441 -91 1130 -33 
Q 819 25 488 141 
L 488 750 
Q 750 597 1062 519 
Q 1375 441 1716 441 
Q 2309 441 2620 675 
Q 2931 909 2931 1356 
Q 2931 1769 2642 2001 
Q 2353 2234 1838 2234 
L 1294 2234 
L 1294 2753 
L 1863 2753 
Q 2328 2753 2575 2939 
Q 2822 3125 2822 3475 
Q 2822 3834 2567 4026 
Q 2313 4219 1838 4219 
Q 1578 4219 1281 4162 
Q 984 4106 628 3988 
L 628 4550 
Q 988 4650 1302 4700 
Q 1616 4750 1894 4750 
Q 2613 4750 3031 4423 
Q 3450 4097 3450 3541 
Q 3450 3153 3228 2886 
Q 3006 2619 2597 2516 
z
" transform="scale(0.015625)"/>
       </defs>
       <use xlink:href="#DejaVuSans-33"/>
      </g>
     </g>
    </g>
    <g id="ytick_5">
     <g id="line2d_21">
      <path d="M 43.36675 112.834477 
L 601.36675 112.834477 
" clip-path="url(#p70d9f2b8e1)" style="fill: none; stroke: #ffffff; stroke-width: 0.8; stroke-linecap: square"/>
     </g>
     <g id="line2d_22">
      <g>
       <use xlink:href="#md7d5405d95" x="43.36675" y="112.834477" style="fill: #555555; stroke: #555555; stroke-width: 0.8"/>
      </g>
     </g>
     <g id="text_12">
      <!-- 4 -->
      <g style="fill: #555555" transform="translate(27.45925 118.153383) scale(0.14 -0.14)">
       <use xlink:href="#DejaVuSans-34"/>
      </g>
     </g>
    </g>
    <g id="ytick_6">
     <g id="line2d_23">
      <path d="M 43.36675 56.083096 
L 601.36675 56.083096 
" clip-path="url(#p70d9f2b8e1)" style="fill: none; stroke: #ffffff; stroke-width: 0.8; stroke-linecap: square"/>
     </g>
     <g id="line2d_24">
      <g>
       <use xlink:href="#md7d5405d95" x="43.36675" y="56.083096" style="fill: #555555; stroke: #555555; stroke-width: 0.8"/>
      </g>
     </g>
     <g id="text_13">
      <!-- 5 -->
      <g style="fill: #555555" transform="translate(27.45925 61.402002) scale(0.14 -0.14)">
       <defs>
        <path id="DejaVuSans-35" d="M 691 4666 
L 3169 4666 
L 3169 4134 
L 1269 4134 
L 1269 2991 
Q 1406 3038 1543 3061 
Q 1681 3084 1819 3084 
Q 2600 3084 3056 2656 
Q 3513 2228 3513 1497 
Q 3513 744 3044 326 
Q 2575 -91 1722 -91 
Q 1428 -91 1123 -41 
Q 819 9 494 109 
L 494 744 
Q 775 591 1075 516 
Q 1375 441 1709 441 
Q 2250 441 2565 725 
Q 2881 1009 2881 1497 
Q 2881 1984 2565 2268 
Q 2250 2553 1709 2553 
Q 1456 2553 1204 2497 
Q 953 2441 691 2322 
L 691 4666 
z
" transform="scale(0.015625)"/>
       </defs>
       <use xlink:href="#DejaVuSans-35"/>
      </g>
     </g>
    </g>
    <g id="text_14">
     <!-- Density -->
     <g style="fill: #555555" transform="translate(19.965375 205.454437) rotate(-90) scale(0.168 -0.168)">
      <defs>
       <path id="DejaVuSans-44" d="M 1259 4147 
L 1259 519 
L 2022 519 
Q 2988 519 3436 956 
Q 3884 1394 3884 2338 
Q 3884 3275 3436 3711 
Q 2988 4147 2022 4147 
L 1259 4147 
z
M 628 4666 
L 1925 4666 
Q 3281 4666 3915 4102 
Q 4550 3538 4550 2338 
Q 4550 1131 3912 565 
Q 3275 0 1925 0 
L 628 0 
L 628 4666 
z
" transform="scale(0.015625)"/>
      </defs>
      <use xlink:href="#DejaVuSans-44"/>
      <use xlink:href="#DejaVuSans-65" transform="translate(77.001953 0)"/>
      <use xlink:href="#DejaVuSans-6e" transform="translate(138.525391 0)"/>
      <use xlink:href="#DejaVuSans-73" transform="translate(201.904297 0)"/>
      <use xlink:href="#DejaVuSans-69" transform="translate(254.003906 0)"/>
      <use xlink:href="#DejaVuSans-74" transform="translate(281.787109 0)"/>
      <use xlink:href="#DejaVuSans-79" transform="translate(320.996094 0)"/>
     </g>
    </g>
   </g>
   <g id="FillBetweenPolyCollection_1">
    <defs>
     <path id="me3b166f77b" d="M 180.355682 -48.017135 
L 180.355682 -48.008625 
L 181.917076 -48.008625 
L 183.478471 -48.008625 
L 185.039865 -48.008625 
L 186.60126 -48.008625 
L 188.162655 -48.008625 
L 189.724049 -48.008625 
L 191.285444 -48.008625 
L 192.846838 -48.008625 
L 194.408233 -48.008625 
L 195.969627 -48.008625 
L 197.531022 -48.008625 
L 199.092416 -48.008625 
L 200.653811 -48.008625 
L 202.215206 -48.008625 
L 203.7766 -48.008625 
L 205.337995 -48.008625 
L 206.899389 -48.008625 
L 208.460784 -48.008625 
L 210.022178 -48.008625 
L 211.583573 -48.008625 
L 213.144968 -48.008625 
L 214.706362 -48.008625 
L 216.267757 -48.008625 
L 217.829151 -48.008625 
L 219.390546 -48.008625 
L 220.95194 -48.008625 
L 222.513335 -48.008625 
L 224.074729 -48.008625 
L 225.636124 -48.008625 
L 227.197519 -48.008625 
L 228.758913 -48.008625 
L 230.320308 -48.008625 
L 231.881702 -48.008625 
L 233.443097 -48.008625 
L 235.004491 -48.008625 
L 236.565886 -48.008625 
L 238.12728 -48.008625 
L 239.688675 -48.008625 
L 241.25007 -48.008625 
L 242.811464 -48.008625 
L 244.372859 -48.008625 
L 245.934253 -48.008625 
L 247.495648 -48.008625 
L 249.057042 -48.008625 
L 250.618437 -48.008625 
L 252.179831 -48.008625 
L 253.741226 -48.008625 
L 255.302621 -48.008625 
L 256.864015 -48.008625 
L 258.42541 -48.008625 
L 259.986804 -48.008625 
L 261.548199 -48.008625 
L 263.109593 -48.008625 
L 264.670988 -48.008625 
L 266.232382 -48.008625 
L 267.793777 -48.008625 
L 269.355172 -48.008625 
L 270.916566 -48.008625 
L 272.477961 -48.008625 
L 274.039355 -48.008625 
L 275.60075 -48.008625 
L 277.162144 -48.008625 
L 278.723539 -48.008625 
L 280.284933 -48.008625 
L 281.846328 -48.008625 
L 283.407723 -48.008625 
L 284.969117 -48.008625 
L 286.530512 -48.008625 
L 288.091906 -48.008625 
L 289.653301 -48.008625 
L 291.214695 -48.008625 
L 292.77609 -48.008625 
L 294.337485 -48.008625 
L 295.898879 -48.008625 
L 297.460274 -48.008625 
L 299.021668 -48.008625 
L 300.583063 -48.008625 
L 302.144457 -48.008625 
L 303.705852 -48.008625 
L 305.267246 -48.008625 
L 306.828641 -48.008625 
L 308.390036 -48.008625 
L 309.95143 -48.008625 
L 311.512825 -48.008625 
L 313.074219 -48.008625 
L 314.635614 -48.008625 
L 316.197008 -48.008625 
L 317.758403 -48.008625 
L 319.319797 -48.008625 
L 320.881192 -48.008625 
L 322.442587 -48.008625 
L 324.003981 -48.008625 
L 325.565376 -48.008625 
L 327.12677 -48.008625 
L 328.688165 -48.008625 
L 330.249559 -48.008625 
L 331.810954 -48.008625 
L 333.372348 -48.008625 
L 334.933743 -48.008625 
L 336.495138 -48.008625 
L 338.056532 -48.008625 
L 339.617927 -48.008625 
L 341.179321 -48.008625 
L 342.740716 -48.008625 
L 344.30211 -48.008625 
L 345.863505 -48.008625 
L 347.424899 -48.008625 
L 348.986294 -48.008625 
L 350.547689 -48.008625 
L 352.109083 -48.008625 
L 353.670478 -48.008625 
L 355.231872 -48.008625 
L 356.793267 -48.008625 
L 358.354661 -48.008625 
L 359.916056 -48.008625 
L 361.47745 -48.008625 
L 363.038845 -48.008625 
L 364.60024 -48.008625 
L 366.161634 -48.008625 
L 367.723029 -48.008625 
L 369.284423 -48.008625 
L 370.845818 -48.008625 
L 372.407212 -48.008625 
L 373.968607 -48.008625 
L 375.530002 -48.008625 
L 377.091396 -48.008625 
L 378.652791 -48.008625 
L 380.214185 -48.008625 
L 381.77558 -48.008625 
L 383.336974 -48.008625 
L 384.898369 -48.008625 
L 386.459763 -48.008625 
L 388.021158 -48.008625 
L 389.582553 -48.008625 
L 391.143947 -48.008625 
L 392.705342 -48.008625 
L 394.266736 -48.008625 
L 395.828131 -48.008625 
L 397.389525 -48.008625 
L 398.95092 -48.008625 
L 400.512314 -48.008625 
L 402.073709 -48.008625 
L 403.635104 -48.008625 
L 405.196498 -48.008625 
L 406.757893 -48.008625 
L 408.319287 -48.008625 
L 409.880682 -48.008625 
L 411.442076 -48.008625 
L 413.003471 -48.008625 
L 414.564865 -48.008625 
L 416.12626 -48.008625 
L 417.687655 -48.008625 
L 419.249049 -48.008625 
L 420.810444 -48.008625 
L 422.371838 -48.008625 
L 423.933233 -48.008625 
L 425.494627 -48.008625 
L 427.056022 -48.008625 
L 428.617416 -48.008625 
L 430.178811 -48.008625 
L 431.740206 -48.008625 
L 433.3016 -48.008625 
L 434.862995 -48.008625 
L 436.424389 -48.008625 
L 437.985784 -48.008625 
L 439.547178 -48.008625 
L 441.108573 -48.008625 
L 442.669967 -48.008625 
L 444.231362 -48.008625 
L 445.792757 -48.008625 
L 447.354151 -48.008625 
L 448.915546 -48.008625 
L 450.47694 -48.008625 
L 452.038335 -48.008625 
L 453.599729 -48.008625 
L 455.161124 -48.008625 
L 456.722519 -48.008625 
L 458.283913 -48.008625 
L 459.845308 -48.008625 
L 461.406702 -48.008625 
L 462.968097 -48.008625 
L 464.529491 -48.008625 
L 466.090886 -48.008625 
L 467.65228 -48.008625 
L 469.213675 -48.008625 
L 470.77507 -48.008625 
L 472.336464 -48.008625 
L 473.897859 -48.008625 
L 475.459253 -48.008625 
L 477.020648 -48.008625 
L 478.582042 -48.008625 
L 480.143437 -48.008625 
L 481.704831 -48.008625 
L 483.266226 -48.008625 
L 484.827621 -48.008625 
L 486.389015 -48.008625 
L 487.95041 -48.008625 
L 489.511804 -48.008625 
L 491.073199 -48.008625 
L 491.073199 -48.012424 
L 491.073199 -48.012424 
L 489.511804 -48.021818 
L 487.95041 -48.046563 
L 486.389015 -48.099379 
L 484.827621 -48.190477 
L 483.266226 -48.31707 
L 481.704831 -48.458557 
L 480.143437 -48.58717 
L 478.582042 -48.690521 
L 477.020648 -48.7891 
L 475.459253 -48.932295 
L 473.897859 -49.169139 
L 472.336464 -49.51022 
L 470.77507 -49.914009 
L 469.213675 -50.315873 
L 467.65228 -50.670162 
L 466.090886 -50.96058 
L 464.529491 -51.188528 
L 462.968097 -51.385464 
L 461.406702 -51.633014 
L 459.845308 -52.017993 
L 458.283913 -52.535199 
L 456.722519 -53.071891 
L 455.161124 -53.538882 
L 453.599729 -54.003121 
L 452.038335 -54.63788 
L 450.47694 -55.533427 
L 448.915546 -56.596133 
L 447.354151 -57.649971 
L 445.792757 -58.605787 
L 444.231362 -59.510442 
L 442.669967 -60.462691 
L 441.108573 -61.51675 
L 439.547178 -62.654134 
L 437.985784 -63.838893 
L 436.424389 -65.132108 
L 434.862995 -66.732523 
L 433.3016 -68.798379 
L 431.740206 -71.186022 
L 430.178811 -73.452435 
L 428.617416 -75.189482 
L 427.056022 -76.344039 
L 425.494627 -77.231315 
L 423.933233 -78.320252 
L 422.371838 -80.014082 
L 420.810444 -82.516883 
L 419.249049 -85.795698 
L 417.687655 -89.681329 
L 416.12626 -94.077647 
L 414.564865 -99.060889 
L 413.003471 -104.682801 
L 411.442076 -110.655333 
L 409.880682 -116.332471 
L 408.319287 -121.119323 
L 406.757893 -124.937695 
L 405.196498 -128.278219 
L 403.635104 -131.778765 
L 402.073709 -135.715268 
L 400.512314 -139.859327 
L 398.95092 -143.844535 
L 397.389525 -147.724248 
L 395.828131 -152.162066 
L 394.266736 -158.013467 
L 392.705342 -165.696956 
L 391.143947 -174.937503 
L 389.582553 -184.989964 
L 388.021158 -195.032571 
L 386.459763 -204.457699 
L 384.898369 -212.9063 
L 383.336974 -220.016799 
L 381.77558 -225.193567 
L 380.214185 -227.785955 
L 378.652791 -227.564509 
L 377.091396 -225.038447 
L 375.530002 -221.451913 
L 373.968607 -218.517168 
L 372.407212 -217.813175 
L 370.845818 -219.996618 
L 369.284423 -224.470365 
L 367.723029 -229.933001 
L 366.161634 -235.308466 
L 364.60024 -240.179024 
L 363.038845 -244.515741 
L 361.47745 -248.250664 
L 359.916056 -251.203132 
L 358.354661 -253.356403 
L 356.793267 -255.12439 
L 355.231872 -257.255842 
L 353.670478 -260.342928 
L 352.109083 -264.327376 
L 350.547689 -268.492946 
L 348.986294 -271.991243 
L 347.424899 -274.448772 
L 345.863505 -276.248115 
L 344.30211 -278.450935 
L 342.740716 -282.390168 
L 341.179321 -288.879973 
L 339.617927 -297.412823 
L 338.056532 -306.160486 
L 336.495138 -313.033213 
L 334.933743 -316.935521 
L 333.372348 -318.145801 
L 331.810954 -317.634218 
L 330.249559 -316.041772 
L 328.688165 -313.241505 
L 327.12677 -308.869029 
L 325.565376 -303.282399 
L 324.003981 -297.87331 
L 322.442587 -294.244247 
L 320.881192 -293.036345 
L 319.319797 -293.643687 
L 317.758403 -295.031869 
L 316.197008 -296.612886 
L 314.635614 -298.210255 
L 313.074219 -299.487571 
L 311.512825 -300.00908 
L 309.95143 -300.103046 
L 308.390036 -301.228599 
L 306.828641 -304.919533 
L 305.267246 -311.242182 
L 303.705852 -318.340686 
L 302.144457 -323.289921 
L 300.583063 -323.355009 
L 299.021668 -317.119512 
L 297.460274 -305.34152 
L 295.898879 -290.953061 
L 294.337485 -277.723956 
L 292.77609 -268.359199 
L 291.214695 -263.457267 
L 289.653301 -261.808138 
L 288.091906 -261.336546 
L 286.530512 -259.955014 
L 284.969117 -256.194932 
L 283.407723 -249.652348 
L 281.846328 -240.989552 
L 280.284933 -231.30542 
L 278.723539 -221.338128 
L 277.162144 -211.242705 
L 275.60075 -201.008374 
L 274.039355 -190.86982 
L 272.477961 -181.27868 
L 270.916566 -172.608902 
L 269.355172 -164.902113 
L 267.793777 -157.790698 
L 266.232382 -150.677066 
L 264.670988 -143.118246 
L 263.109593 -135.141359 
L 261.548199 -127.262855 
L 259.986804 -120.238708 
L 258.42541 -114.679532 
L 256.864015 -110.695651 
L 255.302621 -107.807606 
L 253.741226 -105.220925 
L 252.179831 -102.250691 
L 250.618437 -98.612758 
L 249.057042 -94.488229 
L 247.495648 -90.37506 
L 245.934253 -86.784323 
L 244.372859 -83.971928 
L 242.811464 -81.908006 
L 241.25007 -80.442253 
L 239.688675 -79.452548 
L 238.12728 -78.881159 
L 236.565886 -78.695524 
L 235.004491 -78.785592 
L 233.443097 -78.851582 
L 231.881702 -78.454261 
L 230.320308 -77.270867 
L 228.758913 -75.306622 
L 227.197519 -72.831737 
L 225.636124 -70.153609 
L 224.074729 -67.488944 
L 222.513335 -64.991717 
L 220.95194 -62.784908 
L 219.390546 -60.917276 
L 217.829151 -59.340474 
L 216.267757 -57.979957 
L 214.706362 -56.80756 
L 213.144968 -55.808799 
L 211.583573 -54.908159 
L 210.022178 -53.985479 
L 208.460784 -52.978675 
L 206.899389 -51.951762 
L 205.337995 -51.063188 
L 203.7766 -50.475014 
L 202.215206 -50.268388 
L 200.653811 -50.400954 
L 199.092416 -50.718514 
L 197.531022 -51.017543 
L 195.969627 -51.12945 
L 194.408233 -50.978879 
L 192.846838 -50.587621 
L 191.285444 -50.040255 
L 189.724049 -49.446016 
L 188.162655 -48.90882 
L 186.60126 -48.499731 
L 185.039865 -48.238616 
L 183.478471 -48.099988 
L 181.917076 -48.039136 
L 180.355682 -48.017135 
z
" style="stroke: #e24a33; stroke-width: 0.5"/>
    </defs>
    <g clip-path="url(#p70d9f2b8e1)">
     <use xlink:href="#me3b166f77b" x="0" y="387.848625" style="fill: #e24a33; fill-opacity: 0.25; stroke: #e24a33; stroke-width: 0.5"/>
    </g>
   </g>
   <g id="FillBetweenPolyCollection_2">
    <defs>
     <path id="mdca8395caf" d="M 168.28224 -48.010219 
L 168.28224 -48.008625 
L 169.895551 -48.008625 
L 171.508861 -48.008625 
L 173.122172 -48.008625 
L 174.735482 -48.008625 
L 176.348793 -48.008625 
L 177.962103 -48.008625 
L 179.575414 -48.008625 
L 181.188724 -48.008625 
L 182.802035 -48.008625 
L 184.415345 -48.008625 
L 186.028656 -48.008625 
L 187.641966 -48.008625 
L 189.255277 -48.008625 
L 190.868587 -48.008625 
L 192.481898 -48.008625 
L 194.095208 -48.008625 
L 195.708519 -48.008625 
L 197.321829 -48.008625 
L 198.93514 -48.008625 
L 200.54845 -48.008625 
L 202.161761 -48.008625 
L 203.775072 -48.008625 
L 205.388382 -48.008625 
L 207.001693 -48.008625 
L 208.615003 -48.008625 
L 210.228314 -48.008625 
L 211.841624 -48.008625 
L 213.454935 -48.008625 
L 215.068245 -48.008625 
L 216.681556 -48.008625 
L 218.294866 -48.008625 
L 219.908177 -48.008625 
L 221.521487 -48.008625 
L 223.134798 -48.008625 
L 224.748108 -48.008625 
L 226.361419 -48.008625 
L 227.974729 -48.008625 
L 229.58804 -48.008625 
L 231.20135 -48.008625 
L 232.814661 -48.008625 
L 234.427971 -48.008625 
L 236.041282 -48.008625 
L 237.654593 -48.008625 
L 239.267903 -48.008625 
L 240.881214 -48.008625 
L 242.494524 -48.008625 
L 244.107835 -48.008625 
L 245.721145 -48.008625 
L 247.334456 -48.008625 
L 248.947766 -48.008625 
L 250.561077 -48.008625 
L 252.174387 -48.008625 
L 253.787698 -48.008625 
L 255.401008 -48.008625 
L 257.014319 -48.008625 
L 258.627629 -48.008625 
L 260.24094 -48.008625 
L 261.85425 -48.008625 
L 263.467561 -48.008625 
L 265.080871 -48.008625 
L 266.694182 -48.008625 
L 268.307492 -48.008625 
L 269.920803 -48.008625 
L 271.534113 -48.008625 
L 273.147424 -48.008625 
L 274.760735 -48.008625 
L 276.374045 -48.008625 
L 277.987356 -48.008625 
L 279.600666 -48.008625 
L 281.213977 -48.008625 
L 282.827287 -48.008625 
L 284.440598 -48.008625 
L 286.053908 -48.008625 
L 287.667219 -48.008625 
L 289.280529 -48.008625 
L 290.89384 -48.008625 
L 292.50715 -48.008625 
L 294.120461 -48.008625 
L 295.733771 -48.008625 
L 297.347082 -48.008625 
L 298.960392 -48.008625 
L 300.573703 -48.008625 
L 302.187013 -48.008625 
L 303.800324 -48.008625 
L 305.413634 -48.008625 
L 307.026945 -48.008625 
L 308.640256 -48.008625 
L 310.253566 -48.008625 
L 311.866877 -48.008625 
L 313.480187 -48.008625 
L 315.093498 -48.008625 
L 316.706808 -48.008625 
L 318.320119 -48.008625 
L 319.933429 -48.008625 
L 321.54674 -48.008625 
L 323.16005 -48.008625 
L 324.773361 -48.008625 
L 326.386671 -48.008625 
L 327.999982 -48.008625 
L 329.613292 -48.008625 
L 331.226603 -48.008625 
L 332.839913 -48.008625 
L 334.453224 -48.008625 
L 336.066534 -48.008625 
L 337.679845 -48.008625 
L 339.293155 -48.008625 
L 340.906466 -48.008625 
L 342.519777 -48.008625 
L 344.133087 -48.008625 
L 345.746398 -48.008625 
L 347.359708 -48.008625 
L 348.973019 -48.008625 
L 350.586329 -48.008625 
L 352.19964 -48.008625 
L 353.81295 -48.008625 
L 355.426261 -48.008625 
L 357.039571 -48.008625 
L 358.652882 -48.008625 
L 360.266192 -48.008625 
L 361.879503 -48.008625 
L 363.492813 -48.008625 
L 365.106124 -48.008625 
L 366.719434 -48.008625 
L 368.332745 -48.008625 
L 369.946055 -48.008625 
L 371.559366 -48.008625 
L 373.172676 -48.008625 
L 374.785987 -48.008625 
L 376.399298 -48.008625 
L 378.012608 -48.008625 
L 379.625919 -48.008625 
L 381.239229 -48.008625 
L 382.85254 -48.008625 
L 384.46585 -48.008625 
L 386.079161 -48.008625 
L 387.692471 -48.008625 
L 389.305782 -48.008625 
L 390.919092 -48.008625 
L 392.532403 -48.008625 
L 394.145713 -48.008625 
L 395.759024 -48.008625 
L 397.372334 -48.008625 
L 398.985645 -48.008625 
L 400.598955 -48.008625 
L 402.212266 -48.008625 
L 403.825576 -48.008625 
L 405.438887 -48.008625 
L 407.052197 -48.008625 
L 408.665508 -48.008625 
L 410.278819 -48.008625 
L 411.892129 -48.008625 
L 413.50544 -48.008625 
L 415.11875 -48.008625 
L 416.732061 -48.008625 
L 418.345371 -48.008625 
L 419.958682 -48.008625 
L 421.571992 -48.008625 
L 423.185303 -48.008625 
L 424.798613 -48.008625 
L 426.411924 -48.008625 
L 428.025234 -48.008625 
L 429.638545 -48.008625 
L 431.251855 -48.008625 
L 432.865166 -48.008625 
L 434.478476 -48.008625 
L 436.091787 -48.008625 
L 437.705097 -48.008625 
L 439.318408 -48.008625 
L 440.931718 -48.008625 
L 442.545029 -48.008625 
L 444.15834 -48.008625 
L 445.77165 -48.008625 
L 447.384961 -48.008625 
L 448.998271 -48.008625 
L 450.611582 -48.008625 
L 452.224892 -48.008625 
L 453.838203 -48.008625 
L 455.451513 -48.008625 
L 457.064824 -48.008625 
L 458.678134 -48.008625 
L 460.291445 -48.008625 
L 461.904755 -48.008625 
L 463.518066 -48.008625 
L 465.131376 -48.008625 
L 466.744687 -48.008625 
L 468.357997 -48.008625 
L 469.971308 -48.008625 
L 471.584618 -48.008625 
L 473.197929 -48.008625 
L 474.811239 -48.008625 
L 476.42455 -48.008625 
L 478.037861 -48.008625 
L 479.651171 -48.008625 
L 481.264482 -48.008625 
L 482.877792 -48.008625 
L 484.491103 -48.008625 
L 486.104413 -48.008625 
L 487.717724 -48.008625 
L 489.331034 -48.008625 
L 489.331034 -48.010228 
L 489.331034 -48.010228 
L 487.717724 -48.016037 
L 486.104413 -48.034192 
L 484.491103 -48.075537 
L 482.877792 -48.145479 
L 481.264482 -48.237505 
L 479.651171 -48.339924 
L 478.037861 -48.449845 
L 476.42455 -48.585392 
L 474.811239 -48.782767 
L 473.197929 -49.051054 
L 471.584618 -49.327522 
L 469.971308 -49.530362 
L 468.357997 -49.666563 
L 466.744687 -49.842816 
L 465.131376 -50.166928 
L 463.518066 -50.662399 
L 461.904755 -51.253472 
L 460.291445 -51.811909 
L 458.678134 -52.263584 
L 457.064824 -52.673533 
L 455.451513 -53.1776 
L 453.838203 -53.817267 
L 452.224892 -54.491719 
L 450.611582 -55.050986 
L 448.998271 -55.361721 
L 447.384961 -55.328915 
L 445.77165 -54.976938 
L 444.15834 -54.524914 
L 442.545029 -54.305464 
L 440.931718 -54.557562 
L 439.318408 -55.281384 
L 437.705097 -56.290373 
L 436.091787 -57.386422 
L 434.478476 -58.436359 
L 432.865166 -59.349479 
L 431.251855 -60.142428 
L 429.638545 -60.96998 
L 428.025234 -61.960675 
L 426.411924 -63.137429 
L 424.798613 -64.571023 
L 423.185303 -66.367571 
L 421.571992 -68.372344 
L 419.958682 -70.170582 
L 418.345371 -71.603822 
L 416.732061 -73.10701 
L 415.11875 -75.317872 
L 413.50544 -78.381939 
L 411.892129 -81.756304 
L 410.278819 -84.688703 
L 408.665508 -86.788862 
L 407.052197 -88.203288 
L 405.438887 -89.572116 
L 403.825576 -91.870736 
L 402.212266 -95.828618 
L 400.598955 -101.321301 
L 398.985645 -107.533477 
L 397.372334 -113.57425 
L 395.759024 -118.852079 
L 394.145713 -123.339408 
L 392.532403 -127.670816 
L 390.919092 -132.527832 
L 389.305782 -137.811683 
L 387.692471 -142.896369 
L 386.079161 -147.608384 
L 384.46585 -152.118286 
L 382.85254 -156.042897 
L 381.239229 -159.007624 
L 379.625919 -162.050435 
L 378.012608 -166.856767 
L 376.399298 -173.363618 
L 374.785987 -179.52706 
L 373.172676 -183.732107 
L 371.559366 -186.219232 
L 369.946055 -188.077515 
L 368.332745 -190.105957 
L 366.719434 -192.592943 
L 365.106124 -195.059971 
L 363.492813 -196.414906 
L 361.879503 -196.16482 
L 360.266192 -195.129613 
L 358.652882 -194.452679 
L 357.039571 -194.444632 
L 355.426261 -195.00491 
L 353.81295 -196.627709 
L 352.19964 -199.962927 
L 350.586329 -204.510052 
L 348.973019 -208.870231 
L 347.359708 -212.625534 
L 345.746398 -217.252012 
L 344.133087 -224.890961 
L 342.519777 -236.333433 
L 340.906466 -249.527554 
L 339.293155 -259.900231 
L 337.679845 -263.73195 
L 336.066534 -261.897071 
L 334.453224 -259.13942 
L 332.839913 -259.622065 
L 331.226603 -263.950086 
L 329.613292 -269.815499 
L 327.999982 -274.538992 
L 326.386671 -277.042139 
L 324.773361 -278.016604 
L 323.16005 -278.957825 
L 321.54674 -280.974676 
L 319.933429 -284.147154 
L 318.320119 -288.208235 
L 316.706808 -293.471385 
L 315.093498 -300.477759 
L 313.480187 -309.003603 
L 311.866877 -317.707467 
L 310.253566 -324.789294 
L 308.640256 -329.44001 
L 307.026945 -333.044544 
L 305.413634 -338.487268 
L 303.800324 -347.386744 
L 302.187013 -357.777888 
L 300.573703 -364.808625 
L 298.960392 -364.656781 
L 297.347082 -358.875471 
L 295.733771 -353.633803 
L 294.120461 -353.242112 
L 292.50715 -356.197861 
L 290.89384 -357.880667 
L 289.280529 -354.611202 
L 287.667219 -345.410254 
L 286.053908 -332.049321 
L 284.440598 -317.752313 
L 282.827287 -305.463351 
L 281.213977 -296.692549 
L 279.600666 -290.795484 
L 277.987356 -285.420008 
L 276.374045 -278.398848 
L 274.760735 -268.89899 
L 273.147424 -256.853072 
L 271.534113 -242.720628 
L 269.920803 -228.169517 
L 268.307492 -215.383241 
L 266.694182 -205.09369 
L 265.080871 -196.372803 
L 263.467561 -188.345958 
L 261.85425 -181.248511 
L 260.24094 -175.936015 
L 258.627629 -172.72501 
L 257.014319 -170.634139 
L 255.401008 -167.840997 
L 253.787698 -162.983304 
L 252.174387 -155.792388 
L 250.561077 -146.635359 
L 248.947766 -136.208191 
L 247.334456 -125.767341 
L 245.721145 -117.003588 
L 244.107835 -111.28139 
L 242.494524 -108.810999 
L 240.881214 -108.519841 
L 239.267903 -108.899747 
L 237.654593 -109.016656 
L 236.041282 -108.683791 
L 234.427971 -107.881027 
L 232.814661 -106.314464 
L 231.20135 -103.594396 
L 229.58804 -99.631099 
L 227.974729 -94.814541 
L 226.361419 -89.95002 
L 224.748108 -85.906093 
L 223.134798 -83.112553 
L 221.521487 -81.358999 
L 219.908177 -80.053131 
L 218.294866 -78.606486 
L 216.681556 -76.640576 
L 215.068245 -74.105516 
L 213.454935 -71.311908 
L 211.841624 -68.613095 
L 210.228314 -66.065853 
L 208.615003 -63.638141 
L 207.001693 -61.54261 
L 205.388382 -60.024441 
L 203.775072 -58.969894 
L 202.161761 -58.019683 
L 200.54845 -56.983091 
L 198.93514 -55.922682 
L 197.321829 -54.916498 
L 195.708519 -53.920778 
L 194.095208 -52.856953 
L 192.481898 -51.768806 
L 190.868587 -50.851253 
L 189.255277 -50.259372 
L 187.641966 -49.915295 
L 186.028656 -49.605262 
L 184.415345 -49.233473 
L 182.802035 -48.869494 
L 181.188724 -48.595329 
L 179.575414 -48.418273 
L 177.962103 -48.302939 
L 176.348793 -48.214066 
L 174.735482 -48.13567 
L 173.122172 -48.072683 
L 171.508861 -48.033602 
L 169.895551 -48.015949 
L 168.28224 -48.010219 
z
" style="stroke: #348abd; stroke-width: 0.5"/>
    </defs>
    <g clip-path="url(#p70d9f2b8e1)">
     <use xlink:href="#mdca8395caf" x="0" y="387.848625" style="fill: #348abd; fill-opacity: 0.25; stroke: #348abd; stroke-width: 0.5"/>
    </g>
   </g>
   <g id="patch_3">
    <path d="M 43.36675 339.84 
L 43.36675 7.2 
" style="fill: none; stroke: #ffffff; stroke-linejoin: miter; stroke-linecap: square"/>
   </g>
   <g id="patch_4">
    <path d="M 601.36675 339.84 
L 601.36675 7.2 
" style="fill: none; stroke: #ffffff; stroke-linejoin: miter; stroke-linecap: square"/>
   </g>
   <g id="patch_5">
    <path d="M 43.36675 339.84 
L 601.36675 339.84 
" style="fill: none; stroke: #ffffff; stroke-linejoin: miter; stroke-linecap: square"/>
   </g>
   <g id="patch_6">
    <path d="M 43.36675 7.2 
L 601.36675 7.2 
" style="fill: none; stroke: #ffffff; stroke-linejoin: miter; stroke-linecap: square"/>
   </g>
   <g id="legend_1">
    <g id="patch_7">
     <path d="M 494.656125 59.49875 
L 591.56675 59.49875 
Q 594.36675 59.49875 594.36675 56.69875 
L 594.36675 17 
Q 594.36675 14.2 591.56675 14.2 
L 494.656125 14.2 
Q 491.856125 14.2 491.856125 17 
L 491.856125 56.69875 
Q 491.856125 59.49875 494.656125 59.49875 
z
" style="fill: #e5e5e5; opacity: 0.8; stroke: #cccccc; stroke-width: 0.5; stroke-linejoin: miter"/>
    </g>
    <g id="patch_8">
     <path d="M 497.456125 30.437812 
L 525.456125 30.437812 
L 525.456125 20.637812 
L 497.456125 20.637812 
z
" style="fill: #e24a33; fill-opacity: 0.25; stroke: #e24a33; stroke-width: 0.5; stroke-linejoin: miter"/>
    </g>
    <g id="text_15">
     <!-- Treated -->
     <g transform="translate(536.656125 30.437812) scale(0.14 -0.14)">
      <defs>
       <path id="DejaVuSans-54" d="M -19 4666 
L 3928 4666 
L 3928 4134 
L 2272 4134 
L 2272 0 
L 1638 0 
L 1638 4134 
L -19 4134 
L -19 4666 
z
" transform="scale(0.015625)"/>
       <path id="DejaVuSans-61" d="M 2194 1759 
Q 1497 1759 1228 1600 
Q 959 1441 959 1056 
Q 959 750 1161 570 
Q 1363 391 1709 391 
Q 2188 391 2477 730 
Q 2766 1069 2766 1631 
L 2766 1759 
L 2194 1759 
z
M 3341 1997 
L 3341 0 
L 2766 0 
L 2766 531 
Q 2569 213 2275 61 
Q 1981 -91 1556 -91 
Q 1019 -91 701 211 
Q 384 513 384 1019 
Q 384 1609 779 1909 
Q 1175 2209 1959 2209 
L 2766 2209 
L 2766 2266 
Q 2766 2663 2505 2880 
Q 2244 3097 1772 3097 
Q 1472 3097 1187 3025 
Q 903 2953 641 2809 
L 641 3341 
Q 956 3463 1253 3523 
Q 1550 3584 1831 3584 
Q 2591 3584 2966 3190 
Q 3341 2797 3341 1997 
z
" transform="scale(0.015625)"/>
       <path id="DejaVuSans-64" d="M 2906 2969 
L 2906 4863 
L 3481 4863 
L 3481 0 
L 2906 0 
L 2906 525 
Q 2725 213 2448 61 
Q 2172 -91 1784 -91 
Q 1150 -91 751 415 
Q 353 922 353 1747 
Q 353 2572 751 3078 
Q 1150 3584 1784 3584 
Q 2172 3584 2448 3432 
Q 2725 3281 2906 2969 
z
M 947 1747 
Q 947 1113 1208 752 
Q 1469 391 1925 391 
Q 2381 391 2643 752 
Q 2906 1113 2906 1747 
Q 2906 2381 2643 2742 
Q 2381 3103 1925 3103 
Q 1469 3103 1208 2742 
Q 947 2381 947 1747 
z
" transform="scale(0.015625)"/>
      </defs>
      <use xlink:href="#DejaVuSans-54"/>
      <use xlink:href="#DejaVuSans-72" transform="translate(46.333984 0)"/>
      <use xlink:href="#DejaVuSans-65" transform="translate(85.197266 0)"/>
      <use xlink:href="#DejaVuSans-61" transform="translate(146.720703 0)"/>
      <use xlink:href="#DejaVuSans-74" transform="translate(208 0)"/>
      <use xlink:href="#DejaVuSans-65" transform="translate(247.208984 0)"/>
      <use xlink:href="#DejaVuSans-64" transform="translate(308.732422 0)"/>
     </g>
    </g>
    <g id="patch_9">
     <path d="M 497.456125 50.987187 
L 525.456125 50.987187 
L 525.456125 41.187187 
L 497.456125 41.187187 
z
" style="fill: #348abd; fill-opacity: 0.25; stroke: #348abd; stroke-width: 0.5; stroke-linejoin: miter"/>
    </g>
    <g id="text_16">
     <!-- Control -->
     <g transform="translate(536.656125 50.987187) scale(0.14 -0.14)">
      <defs>
       <path id="DejaVuSans-43" d="M 4122 4306 
L 4122 3641 
Q 3803 3938 3442 4084 
Q 3081 4231 2675 4231 
Q 1875 4231 1450 3742 
Q 1025 3253 1025 2328 
Q 1025 1406 1450 917 
Q 1875 428 2675 428 
Q 3081 428 3442 575 
Q 3803 722 4122 1019 
L 4122 359 
Q 3791 134 3420 21 
Q 3050 -91 2638 -91 
Q 1578 -91 968 557 
Q 359 1206 359 2328 
Q 359 3453 968 4101 
Q 1578 4750 2638 4750 
Q 3056 4750 3426 4639 
Q 3797 4528 4122 4306 
z
" transform="scale(0.015625)"/>
       <path id="DejaVuSans-6c" d="M 603 4863 
L 1178 4863 
L 1178 0 
L 603 0 
L 603 4863 
z
" transform="scale(0.015625)"/>
      </defs>
      <use xlink:href="#DejaVuSans-43"/>
      <use xlink:href="#DejaVuSans-6f" transform="translate(69.824219 0)"/>
      <use xlink:href="#DejaVuSans-6e" transform="translate(131.005859 0)"/>
      <use xlink:href="#DejaVuSans-74" transform="translate(194.384766 0)"/>
      <use xlink:href="#DejaVuSans-72" transform="translate(233.59375 0)"/>
      <use xlink:href="#DejaVuSans-6f" transform="translate(272.457031 0)"/>
      <use xlink:href="#DejaVuSans-6c" transform="translate(333.638672 0)"/>
     </g>
    </g>
   </g>
  </g>
 </g>
 <defs>
  <clipPath id="p70d9f2b8e1">
   <rect x="43.36675" y="7.2" width="558" height="332.64"/>
  </clipPath>
 </defs>
</svg>
