<?xml version="1.0" encoding="utf-8" standalone="no"?>
<!DOCTYPE svg PUBLIC "-//W3C//DTD SVG 1.1//EN"
  "http://www.w3.org/Graphics/SVG/1.1/DTD/svg11.dtd">
<svg xmlns:xlink="http://www.w3.org/1999/xlink" width="432pt" height="288pt" viewBox="0 0 432 288" xmlns="http://www.w3.org/2000/svg" version="1.1">
 <metadata>
  <rdf:RDF xmlns:dc="http://purl.org/dc/elements/1.1/" xmlns:cc="http://creativecommons.org/ns#" xmlns:rdf="http://www.w3.org/1999/02/22-rdf-syntax-ns#">
   <cc:Work>
    <dc:type rdf:resource="http://purl.org/dc/dcmitype/StillImage"/>
    <dc:date>2025-08-28T06:38:28.306820</dc:date>
    <dc:format>image/svg+xml</dc:format>
    <dc:creator>
     <cc:Agent>
      <dc:title>Matplotlib v3.10.3, https://matplotlib.org/</dc:title>
     </cc:Agent>
    </dc:creator>
   </cc:Work>
  </rdf:RDF>
 </metadata>
 <defs>
  <style type="text/css">*{stroke-linejoin: round; stroke-linecap: butt}</style>
 </defs>
 <g id="figure_1">
  <g id="patch_1">
   <path d="M 0 288 
L 432 288 
L 432 0 
L 0 0 
z
" style="fill: #ffffff"/>
  </g>
  <g id="axes_1">
   <g id="patch_2">
    <path d="M 47.72 246.04 
L 421.2 246.04 
L 421.2 26.88 
L 47.72 26.88 
z
" style="fill: #ffffff"/>
   </g>
   <g id="FillBetweenPolyCollection_1">
    <defs>
     <path id="mfe1681c958" d="M 64.696364 -41.975077 
L 64.696364 -41.96 
L 66.402531 -41.96 
L 68.108698 -41.96 
L 69.814865 -41.96 
L 71.521032 -41.96 
L 73.2272 -41.96 
L 74.933367 -41.96 
L 76.639534 -41.96 
L 78.345701 -41.96 
L 80.051868 -41.96 
L 81.758036 -41.96 
L 83.464203 -41.96 
L 85.17037 -41.96 
L 86.876537 -41.96 
L 88.582704 -41.96 
L 90.288872 -41.96 
L 91.995039 -41.96 
L 93.701206 -41.96 
L 95.407373 -41.96 
L 97.11354 -41.96 
L 98.819708 -41.96 
L 100.525875 -41.96 
L 102.232042 -41.96 
L 103.938209 -41.96 
L 105.644376 -41.96 
L 107.350544 -41.96 
L 109.056711 -41.96 
L 110.762878 -41.96 
L 112.469045 -41.96 
L 114.175212 -41.96 
L 115.88138 -41.96 
L 117.587547 -41.96 
L 119.293714 -41.96 
L 120.999881 -41.96 
L 122.706048 -41.96 
L 124.412216 -41.96 
L 126.118383 -41.96 
L 127.82455 -41.96 
L 129.530717 -41.96 
L 131.236884 -41.96 
L 132.943052 -41.96 
L 134.649219 -41.96 
L 136.355386 -41.96 
L 138.061553 -41.96 
L 139.76772 -41.96 
L 141.473888 -41.96 
L 143.180055 -41.96 
L 144.886222 -41.96 
L 146.592389 -41.96 
L 148.298556 -41.96 
L 150.004724 -41.96 
L 151.710891 -41.96 
L 153.417058 -41.96 
L 155.123225 -41.96 
L 156.829392 -41.96 
L 158.53556 -41.96 
L 160.241727 -41.96 
L 161.947894 -41.96 
L 163.654061 -41.96 
L 165.360228 -41.96 
L 167.066396 -41.96 
L 168.772563 -41.96 
L 170.47873 -41.96 
L 172.184897 -41.96 
L 173.891064 -41.96 
L 175.597232 -41.96 
L 177.303399 -41.96 
L 179.009566 -41.96 
L 180.715733 -41.96 
L 182.4219 -41.96 
L 184.128068 -41.96 
L 185.834235 -41.96 
L 187.540402 -41.96 
L 189.246569 -41.96 
L 190.952736 -41.96 
L 192.658904 -41.96 
L 194.365071 -41.96 
L 196.071238 -41.96 
L 197.777405 -41.96 
L 199.483572 -41.96 
L 201.18974 -41.96 
L 202.895907 -41.96 
L 204.602074 -41.96 
L 206.308241 -41.96 
L 208.014408 -41.96 
L 209.720576 -41.96 
L 211.426743 -41.96 
L 213.13291 -41.96 
L 214.839077 -41.96 
L 216.545244 -41.96 
L 218.251412 -41.96 
L 219.957579 -41.96 
L 221.663746 -41.96 
L 223.369913 -41.96 
L 225.07608 -41.96 
L 226.782248 -41.96 
L 228.488415 -41.96 
L 230.194582 -41.96 
L 231.900749 -41.96 
L 233.606916 -41.96 
L 235.313084 -41.96 
L 237.019251 -41.96 
L 238.725418 -41.96 
L 240.431585 -41.96 
L 242.137752 -41.96 
L 243.84392 -41.96 
L 245.550087 -41.96 
L 247.256254 -41.96 
L 248.962421 -41.96 
L 250.668588 -41.96 
L 252.374756 -41.96 
L 254.080923 -41.96 
L 255.78709 -41.96 
L 257.493257 -41.96 
L 259.199424 -41.96 
L 260.905592 -41.96 
L 262.611759 -41.96 
L 264.317926 -41.96 
L 266.024093 -41.96 
L 267.73026 -41.96 
L 269.436428 -41.96 
L 271.142595 -41.96 
L 272.848762 -41.96 
L 274.554929 -41.96 
L 276.261096 -41.96 
L 277.967264 -41.96 
L 279.673431 -41.96 
L 281.379598 -41.96 
L 283.085765 -41.96 
L 284.791932 -41.96 
L 286.4981 -41.96 
L 288.204267 -41.96 
L 289.910434 -41.96 
L 291.616601 -41.96 
L 293.322768 -41.96 
L 295.028936 -41.96 
L 296.735103 -41.96 
L 298.44127 -41.96 
L 300.147437 -41.96 
L 301.853604 -41.96 
L 303.559772 -41.96 
L 305.265939 -41.96 
L 306.972106 -41.96 
L 308.678273 -41.96 
L 310.38444 -41.96 
L 312.090608 -41.96 
L 313.796775 -41.96 
L 315.502942 -41.96 
L 317.209109 -41.96 
L 318.915276 -41.96 
L 320.621444 -41.96 
L 322.327611 -41.96 
L 324.033778 -41.96 
L 325.739945 -41.96 
L 327.446112 -41.96 
L 329.15228 -41.96 
L 330.858447 -41.96 
L 332.564614 -41.96 
L 334.270781 -41.96 
L 335.976948 -41.96 
L 337.683116 -41.96 
L 339.389283 -41.96 
L 341.09545 -41.96 
L 342.801617 -41.96 
L 344.507784 -41.96 
L 346.213952 -41.96 
L 347.920119 -41.96 
L 349.626286 -41.96 
L 351.332453 -41.96 
L 353.03862 -41.96 
L 354.744788 -41.96 
L 356.450955 -41.96 
L 358.157122 -41.96 
L 359.863289 -41.96 
L 361.569456 -41.96 
L 363.275624 -41.96 
L 364.981791 -41.96 
L 366.687958 -41.96 
L 368.394125 -41.96 
L 370.100292 -41.96 
L 371.80646 -41.96 
L 373.512627 -41.96 
L 375.218794 -41.96 
L 376.924961 -41.96 
L 378.631128 -41.96 
L 380.337296 -41.96 
L 382.043463 -41.96 
L 383.74963 -41.96 
L 385.455797 -41.96 
L 387.161964 -41.96 
L 388.868132 -41.96 
L 390.574299 -41.96 
L 392.280466 -41.96 
L 393.986633 -41.96 
L 395.6928 -41.96 
L 397.398968 -41.96 
L 399.105135 -41.96 
L 400.811302 -41.96 
L 402.517469 -41.96 
L 404.223636 -41.96 
L 404.223636 -41.964834 
L 404.223636 -41.964834 
L 402.517469 -41.968345 
L 400.811302 -41.974054 
L 399.105135 -41.983093 
L 397.398968 -41.99704 
L 395.6928 -42.01801 
L 393.986633 -42.048742 
L 392.280466 -42.092668 
L 390.574299 -42.153923 
L 388.868132 -42.237324 
L 387.161964 -42.348278 
L 385.455797 -42.492666 
L 383.74963 -42.676705 
L 382.043463 -42.906839 
L 380.337296 -43.189715 
L 378.631128 -43.532264 
L 376.924961 -43.941931 
L 375.218794 -44.426999 
L 373.512627 -44.996963 
L 371.80646 -45.662821 
L 370.100292 -46.437152 
L 368.394125 -47.333857 
L 366.687958 -48.36749 
L 364.981791 -49.552207 
L 363.275624 -50.900479 
L 361.569456 -52.421798 
L 359.863289 -54.121671 
L 358.157122 -56.001175 
L 356.450955 -58.057236 
L 354.744788 -60.283617 
L 353.03862 -62.672439 
L 351.332453 -65.215868 
L 349.626286 -67.907545 
L 347.920119 -70.743353 
L 346.213952 -73.721293 
L 344.507784 -76.840436 
L 342.801617 -80.099169 
L 341.09545 -83.493148 
L 339.389283 -87.013432 
L 337.683116 -90.645274 
L 335.976948 -94.367849 
L 334.270781 -98.155023 
L 332.564614 -101.977048 
L 330.858447 -105.80288 
L 329.15228 -109.602786 
L 327.446112 -113.350874 
L 325.739945 -117.027315 
L 324.033778 -120.62007 
L 322.327611 -124.126069 
L 320.621444 -127.551782 
L 318.915276 -130.913118 
L 317.209109 -134.23453 
L 315.502942 -137.547187 
L 313.796775 -140.886105 
L 312.090608 -144.286295 
L 310.38444 -147.778173 
L 308.678273 -151.382789 
L 306.972106 -155.107605 
L 305.265939 -158.943687 
L 303.559772 -162.865006 
L 301.853604 -166.830269 
L 300.147437 -170.78718 
L 298.44127 -174.678519 
L 296.735103 -178.448999 
L 295.028936 -182.051661 
L 293.322768 -185.452622 
L 291.616601 -188.633405 
L 289.910434 -191.590573 
L 288.204267 -194.333013 
L 286.4981 -196.877655 
L 284.791932 -199.244654 
L 283.085765 -201.45304 
L 281.379598 -203.517554 
L 279.673431 -205.447045 
L 277.967264 -207.244384 
L 276.261096 -208.907589 
L 274.554929 -210.431729 
L 272.848762 -211.811168 
L 271.142595 -213.041849 
L 269.436428 -214.123378 
L 267.73026 -215.060766 
L 266.024093 -215.865656 
L 264.317926 -216.55682 
L 262.611759 -217.159668 
L 260.905592 -217.70456 
L 259.199424 -218.223853 
L 257.493257 -218.74789 
L 255.78709 -219.300439 
L 254.080923 -219.894349 
L 252.374756 -220.528308 
L 250.668588 -221.185526 
L 248.962421 -221.83483 
L 247.256254 -222.434232 
L 245.550087 -222.936478 
L 243.84392 -223.29566 
L 242.137752 -223.473706 
L 240.431585 -223.445583 
L 238.725418 -223.202277 
L 237.019251 -222.751116 
L 235.313084 -222.113514 
L 233.606916 -221.320702 
L 231.900749 -220.40838 
L 230.194582 -219.411294 
L 228.488415 -218.3587 
L 226.782248 -217.271376 
L 225.07608 -216.160512 
L 223.369913 -215.02844 
L 221.663746 -213.870908 
L 219.957579 -212.68034 
L 218.251412 -211.449465 
L 216.545244 -210.174655 
L 214.839077 -208.858335 
L 213.13291 -207.509993 
L 211.426743 -206.145489 
L 209.720576 -204.784631 
L 208.014408 -203.447332 
L 206.308241 -202.148984 
L 204.602074 -200.89591 
L 202.895907 -199.68188 
L 201.18974 -198.486543 
L 199.483572 -197.276295 
L 197.777405 -196.007643 
L 196.071238 -194.632577 
L 194.365071 -193.105044 
L 192.658904 -191.387372 
L 190.952736 -189.455497 
L 189.246569 -187.302153 
L 187.540402 -184.93755 
L 185.834235 -182.387623 
L 184.128068 -179.690294 
L 182.4219 -176.890492 
L 180.715733 -174.034751 
L 179.009566 -171.166126 
L 177.303399 -168.319999 
L 175.597232 -165.521121 
L 173.891064 -162.782046 
L 172.184897 -160.102963 
L 170.47873 -157.472807 
L 168.772563 -154.871475 
L 167.066396 -152.272873 
L 165.360228 -149.648482 
L 163.654061 -146.971066 
L 161.947894 -144.218109 
L 160.241727 -141.3746 
L 158.53556 -138.434879 
L 156.829392 -135.403341 
L 155.123225 -132.294021 
L 153.417058 -129.129183 
L 151.710891 -125.937213 
L 150.004724 -122.750133 
L 148.298556 -119.601079 
L 146.592389 -116.521973 
L 144.886222 -113.541543 
L 143.180055 -110.683697 
L 141.473888 -107.966221 
L 139.76772 -105.399732 
L 138.061553 -102.986884 
L 136.355386 -100.721879 
L 134.649219 -98.590437 
L 132.943052 -96.570375 
L 131.236884 -94.632953 
L 129.530717 -92.744988 
L 127.82455 -90.871653 
L 126.118383 -88.979648 
L 124.412216 -87.040367 
L 122.706048 -85.032607 
L 120.999881 -82.944394 
L 119.293714 -80.773678 
L 117.587547 -78.527784 
L 115.88138 -76.221774 
L 114.175212 -73.876037 
L 112.469045 -71.513569 
L 110.762878 -69.157428 
L 109.056711 -66.82878 
L 107.350544 -64.545805 
L 105.644376 -62.323509 
L 103.938209 -60.174295 
L 102.232042 -58.108992 
L 100.525875 -56.137945 
L 98.819708 -54.271834 
L 97.11354 -52.521956 
L 95.407373 -50.899884 
L 93.701206 -49.416604 
L 91.995039 -48.081313 
L 90.288872 -46.900188 
L 88.582704 -45.875384 
L 86.876537 -45.004481 
L 85.17037 -44.280473 
L 83.464203 -43.692285 
L 81.758036 -43.225708 
L 80.051868 -42.864575 
L 78.345701 -42.591986 
L 76.639534 -42.391423 
L 74.933367 -42.247633 
L 73.2272 -42.147214 
L 71.521032 -42.078917 
L 69.814865 -42.033691 
L 68.108698 -42.004538 
L 66.402531 -41.986246 
L 64.696364 -41.975077 
z
" style="stroke: #1f77b4"/>
    </defs>
    <g clip-path="url(#p71dc7c689c)">
     <use xlink:href="#mfe1681c958" x="0" y="288" style="fill: #1f77b4; fill-opacity: 0.4; stroke: #1f77b4"/>
    </g>
   </g>
   <g id="FillBetweenPolyCollection_2">
    <defs>
     <path id="m719f45956a" d="M 66.713632 -42.012508 
L 66.713632 -41.96 
L 68.3481 -41.96 
L 69.982569 -41.96 
L 71.617037 -41.96 
L 73.251506 -41.96 
L 74.885974 -41.96 
L 76.520443 -41.96 
L 78.154911 -41.96 
L 79.789379 -41.96 
L 81.423848 -41.96 
L 83.058316 -41.96 
L 84.692785 -41.96 
L 86.327253 -41.96 
L 87.961721 -41.96 
L 89.59619 -41.96 
L 91.230658 -41.96 
L 92.865127 -41.96 
L 94.499595 -41.96 
L 96.134064 -41.96 
L 97.768532 -41.96 
L 99.403 -41.96 
L 101.037469 -41.96 
L 102.671937 -41.96 
L 104.306406 -41.96 
L 105.940874 -41.96 
L 107.575343 -41.96 
L 109.209811 -41.96 
L 110.844279 -41.96 
L 112.478748 -41.96 
L 114.113216 -41.96 
L 115.747685 -41.96 
L 117.382153 -41.96 
L 119.016622 -41.96 
L 120.65109 -41.96 
L 122.285558 -41.96 
L 123.920027 -41.96 
L 125.554495 -41.96 
L 127.188964 -41.96 
L 128.823432 -41.96 
L 130.4579 -41.96 
L 132.092369 -41.96 
L 133.726837 -41.96 
L 135.361306 -41.96 
L 136.995774 -41.96 
L 138.630243 -41.96 
L 140.264711 -41.96 
L 141.899179 -41.96 
L 143.533648 -41.96 
L 145.168116 -41.96 
L 146.802585 -41.96 
L 148.437053 -41.96 
L 150.071522 -41.96 
L 151.70599 -41.96 
L 153.340458 -41.96 
L 154.974927 -41.96 
L 156.609395 -41.96 
L 158.243864 -41.96 
L 159.878332 -41.96 
L 161.512801 -41.96 
L 163.147269 -41.96 
L 164.781737 -41.96 
L 166.416206 -41.96 
L 168.050674 -41.96 
L 169.685143 -41.96 
L 171.319611 -41.96 
L 172.954079 -41.96 
L 174.588548 -41.96 
L 176.223016 -41.96 
L 177.857485 -41.96 
L 179.491953 -41.96 
L 181.126422 -41.96 
L 182.76089 -41.96 
L 184.395358 -41.96 
L 186.029827 -41.96 
L 187.664295 -41.96 
L 189.298764 -41.96 
L 190.933232 -41.96 
L 192.567701 -41.96 
L 194.202169 -41.96 
L 195.836637 -41.96 
L 197.471106 -41.96 
L 199.105574 -41.96 
L 200.740043 -41.96 
L 202.374511 -41.96 
L 204.00898 -41.96 
L 205.643448 -41.96 
L 207.277916 -41.96 
L 208.912385 -41.96 
L 210.546853 -41.96 
L 212.181322 -41.96 
L 213.81579 -41.96 
L 215.450258 -41.96 
L 217.084727 -41.96 
L 218.719195 -41.96 
L 220.353664 -41.96 
L 221.988132 -41.96 
L 223.622601 -41.96 
L 225.257069 -41.96 
L 226.891537 -41.96 
L 228.526006 -41.96 
L 230.160474 -41.96 
L 231.794943 -41.96 
L 233.429411 -41.96 
L 235.06388 -41.96 
L 236.698348 -41.96 
L 238.332816 -41.96 
L 239.967285 -41.96 
L 241.601753 -41.96 
L 243.236222 -41.96 
L 244.87069 -41.96 
L 246.505158 -41.96 
L 248.139627 -41.96 
L 249.774095 -41.96 
L 251.408564 -41.96 
L 253.043032 -41.96 
L 254.677501 -41.96 
L 256.311969 -41.96 
L 257.946437 -41.96 
L 259.580906 -41.96 
L 261.215374 -41.96 
L 262.849843 -41.96 
L 264.484311 -41.96 
L 266.11878 -41.96 
L 267.753248 -41.96 
L 269.387716 -41.96 
L 271.022185 -41.96 
L 272.656653 -41.96 
L 274.291122 -41.96 
L 275.92559 -41.96 
L 277.560059 -41.96 
L 279.194527 -41.96 
L 280.828995 -41.96 
L 282.463464 -41.96 
L 284.097932 -41.96 
L 285.732401 -41.96 
L 287.366869 -41.96 
L 289.001337 -41.96 
L 290.635806 -41.96 
L 292.270274 -41.96 
L 293.904743 -41.96 
L 295.539211 -41.96 
L 297.17368 -41.96 
L 298.808148 -41.96 
L 300.442616 -41.96 
L 302.077085 -41.96 
L 303.711553 -41.96 
L 305.346022 -41.96 
L 306.98049 -41.96 
L 308.614959 -41.96 
L 310.249427 -41.96 
L 311.883895 -41.96 
L 313.518364 -41.96 
L 315.152832 -41.96 
L 316.787301 -41.96 
L 318.421769 -41.96 
L 320.056238 -41.96 
L 321.690706 -41.96 
L 323.325174 -41.96 
L 324.959643 -41.96 
L 326.594111 -41.96 
L 328.22858 -41.96 
L 329.863048 -41.96 
L 331.497516 -41.96 
L 333.131985 -41.96 
L 334.766453 -41.96 
L 336.400922 -41.96 
L 338.03539 -41.96 
L 339.669859 -41.96 
L 341.304327 -41.96 
L 342.938795 -41.96 
L 344.573264 -41.96 
L 346.207732 -41.96 
L 347.842201 -41.96 
L 349.476669 -41.96 
L 351.111138 -41.96 
L 352.745606 -41.96 
L 354.380074 -41.96 
L 356.014543 -41.96 
L 357.649011 -41.96 
L 359.28348 -41.96 
L 360.917948 -41.96 
L 362.552417 -41.96 
L 364.186885 -41.96 
L 365.821353 -41.96 
L 367.455822 -41.96 
L 369.09029 -41.96 
L 370.724759 -41.96 
L 372.359227 -41.96 
L 373.993695 -41.96 
L 375.628164 -41.96 
L 377.262632 -41.96 
L 378.897101 -41.96 
L 380.531569 -41.96 
L 382.166038 -41.96 
L 383.800506 -41.96 
L 385.434974 -41.96 
L 387.069443 -41.96 
L 388.703911 -41.96 
L 390.33838 -41.96 
L 391.972848 -41.96 
L 391.972848 -41.962171 
L 391.972848 -41.962171 
L 390.33838 -41.963917 
L 388.703911 -41.966836 
L 387.069443 -41.971546 
L 385.434974 -41.978886 
L 383.800506 -41.989946 
L 382.166038 -42.006069 
L 380.531569 -42.028847 
L 378.897101 -42.060087 
L 377.262632 -42.101778 
L 375.628164 -42.156055 
L 373.993695 -42.225193 
L 372.359227 -42.311624 
L 370.724759 -42.417964 
L 369.09029 -42.547025 
L 367.455822 -42.701752 
L 365.821353 -42.885049 
L 364.186885 -43.099471 
L 362.552417 -43.346816 
L 360.917948 -43.627688 
L 359.28348 -43.94117 
L 357.649011 -44.284741 
L 356.014543 -44.654525 
L 354.380074 -45.04591 
L 352.745606 -45.454471 
L 351.111138 -45.877065 
L 349.476669 -46.312907 
L 347.842201 -46.76447 
L 346.207732 -47.23804 
L 344.573264 -47.743857 
L 342.938795 -48.295755 
L 341.304327 -48.910298 
L 339.669859 -49.605392 
L 338.03539 -50.398464 
L 336.400922 -51.304319 
L 334.766453 -52.332949 
L 333.131985 -53.487622 
L 331.497516 -54.763629 
L 329.863048 -56.148034 
L 328.22858 -57.620619 
L 326.594111 -59.156001 
L 324.959643 -60.726651 
L 323.325174 -62.306304 
L 321.690706 -63.873116 
L 320.056238 -65.411906 
L 318.421769 -66.914975 
L 316.787301 -68.381296 
L 315.152832 -69.814285 
L 313.518364 -71.218723 
L 311.883895 -72.597739 
L 310.249427 -73.950736 
L 308.614959 -75.272966 
L 306.98049 -76.556977 
L 305.346022 -77.795575 
L 303.711553 -78.985504 
L 302.077085 -80.130765 
L 300.442616 -81.244617 
L 298.808148 -82.349639 
L 297.17368 -83.475767 
L 295.539211 -84.656732 
L 293.904743 -85.925632 
L 292.270274 -87.310526 
L 290.635806 -88.830794 
L 289.001337 -90.494796 
L 287.366869 -92.299057 
L 285.732401 -94.228958 
L 284.097932 -96.260689 
L 282.463464 -98.36413 
L 280.828995 -100.506223 
L 279.194527 -102.654446 
L 277.560059 -104.780008 
L 275.92559 -106.860512 
L 274.291122 -108.881885 
L 272.656653 -110.839454 
L 271.022185 -112.738072 
L 269.387716 -114.591214 
L 267.753248 -116.419012 
L 266.11878 -118.245337 
L 264.484311 -120.094199 
L 262.849843 -121.98601 
L 261.215374 -123.934382 
L 259.580906 -125.944143 
L 257.946437 -128.011016 
L 256.311969 -130.122995 
L 254.677501 -132.262945 
L 253.043032 -134.411616 
L 251.408564 -136.550135 
L 249.774095 -138.661321 
L 248.139627 -140.729715 
L 246.505158 -142.740792 
L 244.87069 -144.680292 
L 243.236222 -146.534641 
L 241.601753 -148.293029 
L 239.967285 -149.950966 
L 238.332816 -151.514386 
L 236.698348 -153.002793 
L 235.06388 -154.449973 
L 233.429411 -155.901354 
L 231.794943 -157.408068 
L 230.160474 -159.0189 
L 228.526006 -160.772029 
L 226.891537 -162.688746 
L 225.257069 -164.770793 
L 223.622601 -167.002011 
L 221.988132 -169.353735 
L 220.353664 -171.79238 
L 218.719195 -174.2871 
L 217.084727 -176.815571 
L 215.450258 -179.366569 
L 213.81579 -181.939072 
L 212.181322 -184.538515 
L 210.546853 -187.171555 
L 208.912385 -189.840872 
L 207.277916 -192.54127 
L 205.643448 -195.257802 
L 204.00898 -197.96599 
L 202.374511 -200.633686 
L 200.740043 -203.223925 
L 199.105574 -205.698146 
L 197.471106 -208.019442 
L 195.836637 -210.155752 
L 194.202169 -212.08306 
L 192.567701 -213.788604 
L 190.933232 -215.273798 
L 189.298764 -216.556299 
L 187.664295 -217.670457 
L 186.029827 -218.665528 
L 184.395358 -219.601433 
L 182.76089 -220.542503 
L 181.126422 -221.550242 
L 179.491953 -222.676462 
L 177.857485 -223.958145 
L 176.223016 -225.414866 
L 174.588548 -227.048997 
L 172.954079 -228.84815 
L 171.319611 -230.788876 
L 169.685143 -232.840461 
L 168.050674 -234.967866 
L 166.416206 -237.133291 
L 164.781737 -239.29635 
L 163.147269 -241.413342 
L 161.512801 -243.436401 
L 159.878332 -245.313378 
L 158.243864 -246.989161 
L 156.609395 -248.408702 
L 154.974927 -249.521487 
L 153.340458 -250.286629 
L 151.70599 -250.677371 
L 150.071522 -250.68381 
L 148.437053 -250.312962 
L 146.802585 -249.586069 
L 145.168116 -248.533796 
L 143.533648 -247.190645 
L 141.899179 -245.590111 
L 140.264711 -243.761829 
L 138.630243 -241.731252 
L 136.995774 -239.52155 
L 135.361306 -237.156666 
L 133.726837 -234.66413 
L 132.092369 -232.076272 
L 130.4579 -229.42901 
L 128.823432 -226.758049 
L 127.188964 -224.093064 
L 125.554495 -221.450924 
L 123.920027 -218.829275 
L 122.285558 -216.201679 
L 120.65109 -213.515217 
L 119.016622 -210.690985 
L 117.382153 -207.627451 
L 115.747685 -204.206304 
L 114.113216 -200.300228 
L 112.478748 -195.782037 
L 110.844279 -190.534706 
L 109.209811 -184.461951 
L 107.575343 -177.498985 
L 105.940874 -169.622904 
L 104.306406 -160.861776 
L 102.671937 -151.301103 
L 101.037469 -141.086047 
L 99.403 -130.417907 
L 97.768532 -119.543919 
L 96.134064 -108.740485 
L 94.499595 -98.29129 
L 92.865127 -88.463008 
L 91.230658 -79.482095 
L 89.59619 -71.516234 
L 87.961721 -64.663252 
L 86.327253 -58.94889 
L 84.692785 -54.333149 
L 83.058316 -50.723384 
L 81.423848 -47.991335 
L 79.789379 -45.99099 
L 78.154911 -44.57459 
L 76.520443 -43.604955 
L 74.885974 -42.963349 
L 73.251506 -42.553075 
L 71.617037 -42.299593 
L 69.982569 -42.148299 
L 68.3481 -42.061075 
L 66.713632 -42.012508 
z
" style="stroke: #ff7f0e"/>
    </defs>
    <g clip-path="url(#p71dc7c689c)">
     <use xlink:href="#m719f45956a" x="0" y="288" style="fill: #ff7f0e; fill-opacity: 0.4; stroke: #ff7f0e"/>
    </g>
   </g>
   <g id="matplotlib.axis_1">
    <g id="xtick_1">
     <g id="line2d_1">
      <defs>
       <path id="m5cbebfaa39" d="M 0 0 
L 0 3.5 
" style="stroke: #000000; stroke-width: 0.8"/>
      </defs>
      <g>
       <use xlink:href="#m5cbebfaa39" x="90.486641" y="246.04" style="stroke: #000000; stroke-width: 0.8"/>
      </g>
     </g>
     <g id="text_1">
      <!-- 0.0 -->
      <g transform="translate(82.535078 260.638438) scale(0.1 -0.1)">
       <defs>
        <path id="DejaVuSans-30" d="M 2034 4250 
Q 1547 4250 1301 3770 
Q 1056 3291 1056 2328 
Q 1056 1369 1301 889 
Q 1547 409 2034 409 
Q 2525 409 2770 889 
Q 3016 1369 3016 2328 
Q 3016 3291 2770 3770 
Q 2525 4250 2034 4250 
z
M 2034 4750 
Q 2819 4750 3233 4129 
Q 3647 3509 3647 2328 
Q 3647 1150 3233 529 
Q 2819 -91 2034 -91 
Q 1250 -91 836 529 
Q 422 1150 422 2328 
Q 422 3509 836 4129 
Q 1250 4750 2034 4750 
z
" transform="scale(0.015625)"/>
        <path id="DejaVuSans-2e" d="M 684 794 
L 1344 794 
L 1344 0 
L 684 0 
L 684 794 
z
" transform="scale(0.015625)"/>
       </defs>
       <use xlink:href="#DejaVuSans-30"/>
       <use xlink:href="#DejaVuSans-2e" transform="translate(63.623047 0)"/>
       <use xlink:href="#DejaVuSans-30" transform="translate(95.410156 0)"/>
      </g>
     </g>
    </g>
    <g id="xtick_2">
     <g id="line2d_2">
      <g>
       <use xlink:href="#m5cbebfaa39" x="159.431333" y="246.04" style="stroke: #000000; stroke-width: 0.8"/>
      </g>
     </g>
     <g id="text_2">
      <!-- 0.2 -->
      <g transform="translate(151.47977 260.638438) scale(0.1 -0.1)">
       <defs>
        <path id="DejaVuSans-32" d="M 1228 531 
L 3431 531 
L 3431 0 
L 469 0 
L 469 531 
Q 828 903 1448 1529 
Q 2069 2156 2228 2338 
Q 2531 2678 2651 2914 
Q 2772 3150 2772 3378 
Q 2772 3750 2511 3984 
Q 2250 4219 1831 4219 
Q 1534 4219 1204 4116 
Q 875 4013 500 3803 
L 500 4441 
Q 881 4594 1212 4672 
Q 1544 4750 1819 4750 
Q 2544 4750 2975 4387 
Q 3406 4025 3406 3419 
Q 3406 3131 3298 2873 
Q 3191 2616 2906 2266 
Q 2828 2175 2409 1742 
Q 1991 1309 1228 531 
z
" transform="scale(0.015625)"/>
       </defs>
       <use xlink:href="#DejaVuSans-30"/>
       <use xlink:href="#DejaVuSans-2e" transform="translate(63.623047 0)"/>
       <use xlink:href="#DejaVuSans-32" transform="translate(95.410156 0)"/>
      </g>
     </g>
    </g>
    <g id="xtick_3">
     <g id="line2d_3">
      <g>
       <use xlink:href="#m5cbebfaa39" x="228.376024" y="246.04" style="stroke: #000000; stroke-width: 0.8"/>
      </g>
     </g>
     <g id="text_3">
      <!-- 0.4 -->
      <g transform="translate(220.424462 260.638438) scale(0.1 -0.1)">
       <defs>
        <path id="DejaVuSans-34" d="M 2419 4116 
L 825 1625 
L 2419 1625 
L 2419 4116 
z
M 2253 4666 
L 3047 4666 
L 3047 1625 
L 3713 1625 
L 3713 1100 
L 3047 1100 
L 3047 0 
L 2419 0 
L 2419 1100 
L 313 1100 
L 313 1709 
L 2253 4666 
z
" transform="scale(0.015625)"/>
       </defs>
       <use xlink:href="#DejaVuSans-30"/>
       <use xlink:href="#DejaVuSans-2e" transform="translate(63.623047 0)"/>
       <use xlink:href="#DejaVuSans-34" transform="translate(95.410156 0)"/>
      </g>
     </g>
    </g>
    <g id="xtick_4">
     <g id="line2d_4">
      <g>
       <use xlink:href="#m5cbebfaa39" x="297.320716" y="246.04" style="stroke: #000000; stroke-width: 0.8"/>
      </g>
     </g>
     <g id="text_4">
      <!-- 0.6 -->
      <g transform="translate(289.369154 260.638438) scale(0.1 -0.1)">
       <defs>
        <path id="DejaVuSans-36" d="M 2113 2584 
Q 1688 2584 1439 2293 
Q 1191 2003 1191 1497 
Q 1191 994 1439 701 
Q 1688 409 2113 409 
Q 2538 409 2786 701 
Q 3034 994 3034 1497 
Q 3034 2003 2786 2293 
Q 2538 2584 2113 2584 
z
M 3366 4563 
L 3366 3988 
Q 3128 4100 2886 4159 
Q 2644 4219 2406 4219 
Q 1781 4219 1451 3797 
Q 1122 3375 1075 2522 
Q 1259 2794 1537 2939 
Q 1816 3084 2150 3084 
Q 2853 3084 3261 2657 
Q 3669 2231 3669 1497 
Q 3669 778 3244 343 
Q 2819 -91 2113 -91 
Q 1303 -91 875 529 
Q 447 1150 447 2328 
Q 447 3434 972 4092 
Q 1497 4750 2381 4750 
Q 2619 4750 2861 4703 
Q 3103 4656 3366 4563 
z
" transform="scale(0.015625)"/>
       </defs>
       <use xlink:href="#DejaVuSans-30"/>
       <use xlink:href="#DejaVuSans-2e" transform="translate(63.623047 0)"/>
       <use xlink:href="#DejaVuSans-36" transform="translate(95.410156 0)"/>
      </g>
     </g>
    </g>
    <g id="xtick_5">
     <g id="line2d_5">
      <g>
       <use xlink:href="#m5cbebfaa39" x="366.265408" y="246.04" style="stroke: #000000; stroke-width: 0.8"/>
      </g>
     </g>
     <g id="text_5">
      <!-- 0.8 -->
      <g transform="translate(358.313846 260.638438) scale(0.1 -0.1)">
       <defs>
        <path id="DejaVuSans-38" d="M 2034 2216 
Q 1584 2216 1326 1975 
Q 1069 1734 1069 1313 
Q 1069 891 1326 650 
Q 1584 409 2034 409 
Q 2484 409 2743 651 
Q 3003 894 3003 1313 
Q 3003 1734 2745 1975 
Q 2488 2216 2034 2216 
z
M 1403 2484 
Q 997 2584 770 2862 
Q 544 3141 544 3541 
Q 544 4100 942 4425 
Q 1341 4750 2034 4750 
Q 2731 4750 3128 4425 
Q 3525 4100 3525 3541 
Q 3525 3141 3298 2862 
Q 3072 2584 2669 2484 
Q 3125 2378 3379 2068 
Q 3634 1759 3634 1313 
Q 3634 634 3220 271 
Q 2806 -91 2034 -91 
Q 1263 -91 848 271 
Q 434 634 434 1313 
Q 434 1759 690 2068 
Q 947 2378 1403 2484 
z
M 1172 3481 
Q 1172 3119 1398 2916 
Q 1625 2713 2034 2713 
Q 2441 2713 2670 2916 
Q 2900 3119 2900 3481 
Q 2900 3844 2670 4047 
Q 2441 4250 2034 4250 
Q 1625 4250 1398 4047 
Q 1172 3844 1172 3481 
z
" transform="scale(0.015625)"/>
       </defs>
       <use xlink:href="#DejaVuSans-30"/>
       <use xlink:href="#DejaVuSans-2e" transform="translate(63.623047 0)"/>
       <use xlink:href="#DejaVuSans-38" transform="translate(95.410156 0)"/>
      </g>
     </g>
    </g>
    <g id="text_6">
     <!-- Propensity -->
     <g transform="translate(208.1975 274.316562) scale(0.1 -0.1)">
      <defs>
       <path id="DejaVuSans-50" d="M 1259 4147 
L 1259 2394 
L 2053 2394 
Q 2494 2394 2734 2622 
Q 2975 2850 2975 3272 
Q 2975 3691 2734 3919 
Q 2494 4147 2053 4147 
L 1259 4147 
z
M 628 4666 
L 2053 4666 
Q 2838 4666 3239 4311 
Q 3641 3956 3641 3272 
Q 3641 2581 3239 2228 
Q 2838 1875 2053 1875 
L 1259 1875 
L 1259 0 
L 628 0 
L 628 4666 
z
" transform="scale(0.015625)"/>
       <path id="DejaVuSans-72" d="M 2631 2963 
Q 2534 3019 2420 3045 
Q 2306 3072 2169 3072 
Q 1681 3072 1420 2755 
Q 1159 2438 1159 1844 
L 1159 0 
L 581 0 
L 581 3500 
L 1159 3500 
L 1159 2956 
Q 1341 3275 1631 3429 
Q 1922 3584 2338 3584 
Q 2397 3584 2469 3576 
Q 2541 3569 2628 3553 
L 2631 2963 
z
" transform="scale(0.015625)"/>
       <path id="DejaVuSans-6f" d="M 1959 3097 
Q 1497 3097 1228 2736 
Q 959 2375 959 1747 
Q 959 1119 1226 758 
Q 1494 397 1959 397 
Q 2419 397 2687 759 
Q 2956 1122 2956 1747 
Q 2956 2369 2687 2733 
Q 2419 3097 1959 3097 
z
M 1959 3584 
Q 2709 3584 3137 3096 
Q 3566 2609 3566 1747 
Q 3566 888 3137 398 
Q 2709 -91 1959 -91 
Q 1206 -91 779 398 
Q 353 888 353 1747 
Q 353 2609 779 3096 
Q 1206 3584 1959 3584 
z
" transform="scale(0.015625)"/>
       <path id="DejaVuSans-70" d="M 1159 525 
L 1159 -1331 
L 581 -1331 
L 581 3500 
L 1159 3500 
L 1159 2969 
Q 1341 3281 1617 3432 
Q 1894 3584 2278 3584 
Q 2916 3584 3314 3078 
Q 3713 2572 3713 1747 
Q 3713 922 3314 415 
Q 2916 -91 2278 -91 
Q 1894 -91 1617 61 
Q 1341 213 1159 525 
z
M 3116 1747 
Q 3116 2381 2855 2742 
Q 2594 3103 2138 3103 
Q 1681 3103 1420 2742 
Q 1159 2381 1159 1747 
Q 1159 1113 1420 752 
Q 1681 391 2138 391 
Q 2594 391 2855 752 
Q 3116 1113 3116 1747 
z
" transform="scale(0.015625)"/>
       <path id="DejaVuSans-65" d="M 3597 1894 
L 3597 1613 
L 953 1613 
Q 991 1019 1311 708 
Q 1631 397 2203 397 
Q 2534 397 2845 478 
Q 3156 559 3463 722 
L 3463 178 
Q 3153 47 2828 -22 
Q 2503 -91 2169 -91 
Q 1331 -91 842 396 
Q 353 884 353 1716 
Q 353 2575 817 3079 
Q 1281 3584 2069 3584 
Q 2775 3584 3186 3129 
Q 3597 2675 3597 1894 
z
M 3022 2063 
Q 3016 2534 2758 2815 
Q 2500 3097 2075 3097 
Q 1594 3097 1305 2825 
Q 1016 2553 972 2059 
L 3022 2063 
z
" transform="scale(0.015625)"/>
       <path id="DejaVuSans-6e" d="M 3513 2113 
L 3513 0 
L 2938 0 
L 2938 2094 
Q 2938 2591 2744 2837 
Q 2550 3084 2163 3084 
Q 1697 3084 1428 2787 
Q 1159 2491 1159 1978 
L 1159 0 
L 581 0 
L 581 3500 
L 1159 3500 
L 1159 2956 
Q 1366 3272 1645 3428 
Q 1925 3584 2291 3584 
Q 2894 3584 3203 3211 
Q 3513 2838 3513 2113 
z
" transform="scale(0.015625)"/>
       <path id="DejaVuSans-73" d="M 2834 3397 
L 2834 2853 
Q 2591 2978 2328 3040 
Q 2066 3103 1784 3103 
Q 1356 3103 1142 2972 
Q 928 2841 928 2578 
Q 928 2378 1081 2264 
Q 1234 2150 1697 2047 
L 1894 2003 
Q 2506 1872 2764 1633 
Q 3022 1394 3022 966 
Q 3022 478 2636 193 
Q 2250 -91 1575 -91 
Q 1294 -91 989 -36 
Q 684 19 347 128 
L 347 722 
Q 666 556 975 473 
Q 1284 391 1588 391 
Q 1994 391 2212 530 
Q 2431 669 2431 922 
Q 2431 1156 2273 1281 
Q 2116 1406 1581 1522 
L 1381 1569 
Q 847 1681 609 1914 
Q 372 2147 372 2553 
Q 372 3047 722 3315 
Q 1072 3584 1716 3584 
Q 2034 3584 2315 3537 
Q 2597 3491 2834 3397 
z
" transform="scale(0.015625)"/>
       <path id="DejaVuSans-69" d="M 603 3500 
L 1178 3500 
L 1178 0 
L 603 0 
L 603 3500 
z
M 603 4863 
L 1178 4863 
L 1178 4134 
L 603 4134 
L 603 4863 
z
" transform="scale(0.015625)"/>
       <path id="DejaVuSans-74" d="M 1172 4494 
L 1172 3500 
L 2356 3500 
L 2356 3053 
L 1172 3053 
L 1172 1153 
Q 1172 725 1289 603 
Q 1406 481 1766 481 
L 2356 481 
L 2356 0 
L 1766 0 
Q 1100 0 847 248 
Q 594 497 594 1153 
L 594 3053 
L 172 3053 
L 172 3500 
L 594 3500 
L 594 4494 
L 1172 4494 
z
" transform="scale(0.015625)"/>
       <path id="DejaVuSans-79" d="M 2059 -325 
Q 1816 -950 1584 -1140 
Q 1353 -1331 966 -1331 
L 506 -1331 
L 506 -850 
L 844 -850 
Q 1081 -850 1212 -737 
Q 1344 -625 1503 -206 
L 1606 56 
L 191 3500 
L 800 3500 
L 1894 763 
L 2988 3500 
L 3597 3500 
L 2059 -325 
z
" transform="scale(0.015625)"/>
      </defs>
      <use xlink:href="#DejaVuSans-50"/>
      <use xlink:href="#DejaVuSans-72" transform="translate(58.552734 0)"/>
      <use xlink:href="#DejaVuSans-6f" transform="translate(97.416016 0)"/>
      <use xlink:href="#DejaVuSans-70" transform="translate(158.597656 0)"/>
      <use xlink:href="#DejaVuSans-65" transform="translate(222.074219 0)"/>
      <use xlink:href="#DejaVuSans-6e" transform="translate(283.597656 0)"/>
      <use xlink:href="#DejaVuSans-73" transform="translate(346.976562 0)"/>
      <use xlink:href="#DejaVuSans-69" transform="translate(399.076172 0)"/>
      <use xlink:href="#DejaVuSans-74" transform="translate(426.859375 0)"/>
      <use xlink:href="#DejaVuSans-79" transform="translate(466.068359 0)"/>
     </g>
    </g>
   </g>
   <g id="matplotlib.axis_2">
    <g id="ytick_1">
     <g id="line2d_6">
      <defs>
       <path id="mee799d01a2" d="M 0 0 
L -3.5 0 
" style="stroke: #000000; stroke-width: 0.8"/>
      </defs>
      <g>
       <use xlink:href="#mee799d01a2" x="47.72" y="246.04" style="stroke: #000000; stroke-width: 0.8"/>
      </g>
     </g>
     <g id="text_7">
      <!-- 0.0 -->
      <g transform="translate(24.816875 249.839219) scale(0.1 -0.1)">
       <use xlink:href="#DejaVuSans-30"/>
       <use xlink:href="#DejaVuSans-2e" transform="translate(63.623047 0)"/>
       <use xlink:href="#DejaVuSans-30" transform="translate(95.410156 0)"/>
      </g>
     </g>
    </g>
    <g id="ytick_2">
     <g id="line2d_7">
      <g>
       <use xlink:href="#mee799d01a2" x="47.72" y="203.458023" style="stroke: #000000; stroke-width: 0.8"/>
      </g>
     </g>
     <g id="text_8">
      <!-- 0.5 -->
      <g transform="translate(24.816875 207.257242) scale(0.1 -0.1)">
       <defs>
        <path id="DejaVuSans-35" d="M 691 4666 
L 3169 4666 
L 3169 4134 
L 1269 4134 
L 1269 2991 
Q 1406 3038 1543 3061 
Q 1681 3084 1819 3084 
Q 2600 3084 3056 2656 
Q 3513 2228 3513 1497 
Q 3513 744 3044 326 
Q 2575 -91 1722 -91 
Q 1428 -91 1123 -41 
Q 819 9 494 109 
L 494 744 
Q 775 591 1075 516 
Q 1375 441 1709 441 
Q 2250 441 2565 725 
Q 2881 1009 2881 1497 
Q 2881 1984 2565 2268 
Q 2250 2553 1709 2553 
Q 1456 2553 1204 2497 
Q 953 2441 691 2322 
L 691 4666 
z
" transform="scale(0.015625)"/>
       </defs>
       <use xlink:href="#DejaVuSans-30"/>
       <use xlink:href="#DejaVuSans-2e" transform="translate(63.623047 0)"/>
       <use xlink:href="#DejaVuSans-35" transform="translate(95.410156 0)"/>
      </g>
     </g>
    </g>
    <g id="ytick_3">
     <g id="line2d_8">
      <g>
       <use xlink:href="#mee799d01a2" x="47.72" y="160.876046" style="stroke: #000000; stroke-width: 0.8"/>
      </g>
     </g>
     <g id="text_9">
      <!-- 1.0 -->
      <g transform="translate(24.816875 164.675264) scale(0.1 -0.1)">
       <defs>
        <path id="DejaVuSans-31" d="M 794 531 
L 1825 531 
L 1825 4091 
L 703 3866 
L 703 4441 
L 1819 4666 
L 2450 4666 
L 2450 531 
L 3481 531 
L 3481 0 
L 794 0 
L 794 531 
z
" transform="scale(0.015625)"/>
       </defs>
       <use xlink:href="#DejaVuSans-31"/>
       <use xlink:href="#DejaVuSans-2e" transform="translate(63.623047 0)"/>
       <use xlink:href="#DejaVuSans-30" transform="translate(95.410156 0)"/>
      </g>
     </g>
    </g>
    <g id="ytick_4">
     <g id="line2d_9">
      <g>
       <use xlink:href="#mee799d01a2" x="47.72" y="118.294068" style="stroke: #000000; stroke-width: 0.8"/>
      </g>
     </g>
     <g id="text_10">
      <!-- 1.5 -->
      <g transform="translate(24.816875 122.093287) scale(0.1 -0.1)">
       <use xlink:href="#DejaVuSans-31"/>
       <use xlink:href="#DejaVuSans-2e" transform="translate(63.623047 0)"/>
       <use xlink:href="#DejaVuSans-35" transform="translate(95.410156 0)"/>
      </g>
     </g>
    </g>
    <g id="ytick_5">
     <g id="line2d_10">
      <g>
       <use xlink:href="#mee799d01a2" x="47.72" y="75.712091" style="stroke: #000000; stroke-width: 0.8"/>
      </g>
     </g>
     <g id="text_11">
      <!-- 2.0 -->
      <g transform="translate(24.816875 79.51131) scale(0.1 -0.1)">
       <use xlink:href="#DejaVuSans-32"/>
       <use xlink:href="#DejaVuSans-2e" transform="translate(63.623047 0)"/>
       <use xlink:href="#DejaVuSans-30" transform="translate(95.410156 0)"/>
      </g>
     </g>
    </g>
    <g id="ytick_6">
     <g id="line2d_11">
      <g>
       <use xlink:href="#mee799d01a2" x="47.72" y="33.130114" style="stroke: #000000; stroke-width: 0.8"/>
      </g>
     </g>
     <g id="text_12">
      <!-- 2.5 -->
      <g transform="translate(24.816875 36.929333) scale(0.1 -0.1)">
       <use xlink:href="#DejaVuSans-32"/>
       <use xlink:href="#DejaVuSans-2e" transform="translate(63.623047 0)"/>
       <use xlink:href="#DejaVuSans-35" transform="translate(95.410156 0)"/>
      </g>
     </g>
    </g>
    <g id="text_13">
     <!-- Density -->
     <g transform="translate(18.737188 155.468594) rotate(-90) scale(0.1 -0.1)">
      <defs>
       <path id="DejaVuSans-44" d="M 1259 4147 
L 1259 519 
L 2022 519 
Q 2988 519 3436 956 
Q 3884 1394 3884 2338 
Q 3884 3275 3436 3711 
Q 2988 4147 2022 4147 
L 1259 4147 
z
M 628 4666 
L 1925 4666 
Q 3281 4666 3915 4102 
Q 4550 3538 4550 2338 
Q 4550 1131 3912 565 
Q 3275 0 1925 0 
L 628 0 
L 628 4666 
z
" transform="scale(0.015625)"/>
      </defs>
      <use xlink:href="#DejaVuSans-44"/>
      <use xlink:href="#DejaVuSans-65" transform="translate(77.001953 0)"/>
      <use xlink:href="#DejaVuSans-6e" transform="translate(138.525391 0)"/>
      <use xlink:href="#DejaVuSans-73" transform="translate(201.904297 0)"/>
      <use xlink:href="#DejaVuSans-69" transform="translate(254.003906 0)"/>
      <use xlink:href="#DejaVuSans-74" transform="translate(281.787109 0)"/>
      <use xlink:href="#DejaVuSans-79" transform="translate(320.996094 0)"/>
     </g>
    </g>
   </g>
   <g id="patch_3">
    <path d="M 47.72 246.04 
L 47.72 26.88 
" style="fill: none; stroke: #000000; stroke-width: 0.8; stroke-linejoin: miter; stroke-linecap: square"/>
   </g>
   <g id="patch_4">
    <path d="M 421.2 246.04 
L 421.2 26.88 
" style="fill: none; stroke: #000000; stroke-width: 0.8; stroke-linejoin: miter; stroke-linecap: square"/>
   </g>
   <g id="patch_5">
    <path d="M 47.72 246.04 
L 421.2 246.04 
" style="fill: none; stroke: #000000; stroke-width: 0.8; stroke-linejoin: miter; stroke-linecap: square"/>
   </g>
   <g id="patch_6">
    <path d="M 47.72 26.88 
L 421.2 26.88 
" style="fill: none; stroke: #000000; stroke-width: 0.8; stroke-linejoin: miter; stroke-linecap: square"/>
   </g>
   <g id="text_14">
    <!-- Propensity overlap -->
    <g transform="translate(178.504375 20.88) scale(0.12 -0.12)">
     <defs>
      <path id="DejaVuSans-20" transform="scale(0.015625)"/>
      <path id="DejaVuSans-76" d="M 191 3500 
L 800 3500 
L 1894 563 
L 2988 3500 
L 3597 3500 
L 2284 0 
L 1503 0 
L 191 3500 
z
" transform="scale(0.015625)"/>
      <path id="DejaVuSans-6c" d="M 603 4863 
L 1178 4863 
L 1178 0 
L 603 0 
L 603 4863 
z
" transform="scale(0.015625)"/>
      <path id="DejaVuSans-61" d="M 2194 1759 
Q 1497 1759 1228 1600 
Q 959 1441 959 1056 
Q 959 750 1161 570 
Q 1363 391 1709 391 
Q 2188 391 2477 730 
Q 2766 1069 2766 1631 
L 2766 1759 
L 2194 1759 
z
M 3341 1997 
L 3341 0 
L 2766 0 
L 2766 531 
Q 2569 213 2275 61 
Q 1981 -91 1556 -91 
Q 1019 -91 701 211 
Q 384 513 384 1019 
Q 384 1609 779 1909 
Q 1175 2209 1959 2209 
L 2766 2209 
L 2766 2266 
Q 2766 2663 2505 2880 
Q 2244 3097 1772 3097 
Q 1472 3097 1187 3025 
Q 903 2953 641 2809 
L 641 3341 
Q 956 3463 1253 3523 
Q 1550 3584 1831 3584 
Q 2591 3584 2966 3190 
Q 3341 2797 3341 1997 
z
" transform="scale(0.015625)"/>
     </defs>
     <use xlink:href="#DejaVuSans-50"/>
     <use xlink:href="#DejaVuSans-72" transform="translate(58.552734 0)"/>
     <use xlink:href="#DejaVuSans-6f" transform="translate(97.416016 0)"/>
     <use xlink:href="#DejaVuSans-70" transform="translate(158.597656 0)"/>
     <use xlink:href="#DejaVuSans-65" transform="translate(222.074219 0)"/>
     <use xlink:href="#DejaVuSans-6e" transform="translate(283.597656 0)"/>
     <use xlink:href="#DejaVuSans-73" transform="translate(346.976562 0)"/>
     <use xlink:href="#DejaVuSans-69" transform="translate(399.076172 0)"/>
     <use xlink:href="#DejaVuSans-74" transform="translate(426.859375 0)"/>
     <use xlink:href="#DejaVuSans-79" transform="translate(466.068359 0)"/>
     <use xlink:href="#DejaVuSans-20" transform="translate(525.248047 0)"/>
     <use xlink:href="#DejaVuSans-6f" transform="translate(557.035156 0)"/>
     <use xlink:href="#DejaVuSans-76" transform="translate(618.216797 0)"/>
     <use xlink:href="#DejaVuSans-65" transform="translate(677.396484 0)"/>
     <use xlink:href="#DejaVuSans-72" transform="translate(738.919922 0)"/>
     <use xlink:href="#DejaVuSans-6c" transform="translate(780.033203 0)"/>
     <use xlink:href="#DejaVuSans-61" transform="translate(807.816406 0)"/>
     <use xlink:href="#DejaVuSans-70" transform="translate(869.095703 0)"/>
    </g>
   </g>
   <g id="legend_1">
    <g id="patch_7">
     <path d="M 361.35 64.23625 
L 414.2 64.23625 
Q 416.2 64.23625 416.2 62.23625 
L 416.2 33.88 
Q 416.2 31.88 414.2 31.88 
L 361.35 31.88 
Q 359.35 31.88 359.35 33.88 
L 359.35 62.23625 
Q 359.35 64.23625 361.35 64.23625 
z
" style="fill: #ffffff; opacity: 0.8; stroke: #cccccc; stroke-linejoin: miter"/>
    </g>
    <g id="patch_8">
     <path d="M 363.35 43.478438 
L 383.35 43.478438 
L 383.35 36.478438 
L 363.35 36.478438 
z
" style="fill: #1f77b4; fill-opacity: 0.4; stroke: #1f77b4; stroke-linejoin: miter"/>
    </g>
    <g id="text_15">
     <!-- T=1 -->
     <g transform="translate(391.35 43.478438) scale(0.1 -0.1)">
      <defs>
       <path id="DejaVuSans-54" d="M -19 4666 
L 3928 4666 
L 3928 4134 
L 2272 4134 
L 2272 0 
L 1638 0 
L 1638 4134 
L -19 4134 
L -19 4666 
z
" transform="scale(0.015625)"/>
       <path id="DejaVuSans-3d" d="M 678 2906 
L 4684 2906 
L 4684 2381 
L 678 2381 
L 678 2906 
z
M 678 1631 
L 4684 1631 
L 4684 1100 
L 678 1100 
L 678 1631 
z
" transform="scale(0.015625)"/>
      </defs>
      <use xlink:href="#DejaVuSans-54"/>
      <use xlink:href="#DejaVuSans-3d" transform="translate(61.083984 0)"/>
      <use xlink:href="#DejaVuSans-31" transform="translate(144.873047 0)"/>
     </g>
    </g>
    <g id="patch_9">
     <path d="M 363.35 58.156563 
L 383.35 58.156563 
L 383.35 51.156563 
L 363.35 51.156563 
z
" style="fill: #ff7f0e; fill-opacity: 0.4; stroke: #ff7f0e; stroke-linejoin: miter"/>
    </g>
    <g id="text_16">
     <!-- T=0 -->
     <g transform="translate(391.35 58.156563) scale(0.1 -0.1)">
      <use xlink:href="#DejaVuSans-54"/>
      <use xlink:href="#DejaVuSans-3d" transform="translate(61.083984 0)"/>
      <use xlink:href="#DejaVuSans-30" transform="translate(144.873047 0)"/>
     </g>
    </g>
   </g>
  </g>
 </g>
 <defs>
  <clipPath id="p71dc7c689c">
   <rect x="47.72" y="26.88" width="373.48" height="219.16"/>
  </clipPath>
 </defs>
</svg>
