<?xml version="1.0" encoding="utf-8" standalone="no"?>
<!DOCTYPE svg PUBLIC "-//W3C//DTD SVG 1.1//EN"
  "http://www.w3.org/Graphics/SVG/1.1/DTD/svg11.dtd">
<svg xmlns:xlink="http://www.w3.org/1999/xlink" width="619.698937pt" height="387.848625pt" viewBox="0 0 619.698937 387.848625" xmlns="http://www.w3.org/2000/svg" version="1.1">
 <metadata>
  <rdf:RDF xmlns:dc="http://purl.org/dc/elements/1.1/" xmlns:cc="http://creativecommons.org/ns#" xmlns:rdf="http://www.w3.org/1999/02/22-rdf-syntax-ns#">
   <cc:Work>
    <dc:type rdf:resource="http://purl.org/dc/dcmitype/StillImage"/>
    <dc:date>2025-08-28T11:16:36.619360</dc:date>
    <dc:format>image/svg+xml</dc:format>
    <dc:creator>
     <cc:Agent>
      <dc:title>Matplotlib v3.10.3, https://matplotlib.org/</dc:title>
     </cc:Agent>
    </dc:creator>
   </cc:Work>
  </rdf:RDF>
 </metadata>
 <defs>
  <style type="text/css">*{stroke-linejoin: round; stroke-linecap: butt}</style>
 </defs>
 <g id="figure_1">
  <g id="patch_1">
   <path d="M 0 387.848625 
L 619.698937 387.848625 
L 619.698937 0 
L 0 0 
z
" style="fill: #ffffff"/>
  </g>
  <g id="axes_1">
   <g id="patch_2">
    <path d="M 43.36675 339.84 
L 601.36675 339.84 
L 601.36675 7.2 
L 43.36675 7.2 
z
" style="fill: #e5e5e5"/>
   </g>
   <g id="matplotlib.axis_1">
    <g id="xtick_1">
     <g id="line2d_1">
      <path d="M 43.36675 339.84 
L 43.36675 7.2 
" clip-path="url(#p00128b6e66)" style="fill: none; stroke: #ffffff; stroke-width: 0.8; stroke-linecap: square"/>
     </g>
     <g id="line2d_2">
      <defs>
       <path id="m2693e0ed10" d="M 0 0 
L 0 3.5 
" style="stroke: #555555; stroke-width: 0.8"/>
      </defs>
      <g>
       <use xlink:href="#m2693e0ed10" x="43.36675" y="339.84" style="fill: #555555; stroke: #555555; stroke-width: 0.8"/>
      </g>
     </g>
     <g id="text_1">
      <!-- 0.0 -->
      <g style="fill: #555555" transform="translate(32.234563 357.477813) scale(0.14 -0.14)">
       <defs>
        <path id="DejaVuSans-30" d="M 2034 4250 
Q 1547 4250 1301 3770 
Q 1056 3291 1056 2328 
Q 1056 1369 1301 889 
Q 1547 409 2034 409 
Q 2525 409 2770 889 
Q 3016 1369 3016 2328 
Q 3016 3291 2770 3770 
Q 2525 4250 2034 4250 
z
M 2034 4750 
Q 2819 4750 3233 4129 
Q 3647 3509 3647 2328 
Q 3647 1150 3233 529 
Q 2819 -91 2034 -91 
Q 1250 -91 836 529 
Q 422 1150 422 2328 
Q 422 3509 836 4129 
Q 1250 4750 2034 4750 
z
" transform="scale(0.015625)"/>
        <path id="DejaVuSans-2e" d="M 684 794 
L 1344 794 
L 1344 0 
L 684 0 
L 684 794 
z
" transform="scale(0.015625)"/>
       </defs>
       <use xlink:href="#DejaVuSans-30"/>
       <use xlink:href="#DejaVuSans-2e" transform="translate(63.623047 0)"/>
       <use xlink:href="#DejaVuSans-30" transform="translate(95.410156 0)"/>
      </g>
     </g>
    </g>
    <g id="xtick_2">
     <g id="line2d_3">
      <path d="M 154.96675 339.84 
L 154.96675 7.2 
" clip-path="url(#p00128b6e66)" style="fill: none; stroke: #ffffff; stroke-width: 0.8; stroke-linecap: square"/>
     </g>
     <g id="line2d_4">
      <g>
       <use xlink:href="#m2693e0ed10" x="154.96675" y="339.84" style="fill: #555555; stroke: #555555; stroke-width: 0.8"/>
      </g>
     </g>
     <g id="text_2">
      <!-- 0.2 -->
      <g style="fill: #555555" transform="translate(143.834563 357.477813) scale(0.14 -0.14)">
       <defs>
        <path id="DejaVuSans-32" d="M 1228 531 
L 3431 531 
L 3431 0 
L 469 0 
L 469 531 
Q 828 903 1448 1529 
Q 2069 2156 2228 2338 
Q 2531 2678 2651 2914 
Q 2772 3150 2772 3378 
Q 2772 3750 2511 3984 
Q 2250 4219 1831 4219 
Q 1534 4219 1204 4116 
Q 875 4013 500 3803 
L 500 4441 
Q 881 4594 1212 4672 
Q 1544 4750 1819 4750 
Q 2544 4750 2975 4387 
Q 3406 4025 3406 3419 
Q 3406 3131 3298 2873 
Q 3191 2616 2906 2266 
Q 2828 2175 2409 1742 
Q 1991 1309 1228 531 
z
" transform="scale(0.015625)"/>
       </defs>
       <use xlink:href="#DejaVuSans-30"/>
       <use xlink:href="#DejaVuSans-2e" transform="translate(63.623047 0)"/>
       <use xlink:href="#DejaVuSans-32" transform="translate(95.410156 0)"/>
      </g>
     </g>
    </g>
    <g id="xtick_3">
     <g id="line2d_5">
      <path d="M 266.56675 339.84 
L 266.56675 7.2 
" clip-path="url(#p00128b6e66)" style="fill: none; stroke: #ffffff; stroke-width: 0.8; stroke-linecap: square"/>
     </g>
     <g id="line2d_6">
      <g>
       <use xlink:href="#m2693e0ed10" x="266.56675" y="339.84" style="fill: #555555; stroke: #555555; stroke-width: 0.8"/>
      </g>
     </g>
     <g id="text_3">
      <!-- 0.4 -->
      <g style="fill: #555555" transform="translate(255.434563 357.477813) scale(0.14 -0.14)">
       <defs>
        <path id="DejaVuSans-34" d="M 2419 4116 
L 825 1625 
L 2419 1625 
L 2419 4116 
z
M 2253 4666 
L 3047 4666 
L 3047 1625 
L 3713 1625 
L 3713 1100 
L 3047 1100 
L 3047 0 
L 2419 0 
L 2419 1100 
L 313 1100 
L 313 1709 
L 2253 4666 
z
" transform="scale(0.015625)"/>
       </defs>
       <use xlink:href="#DejaVuSans-30"/>
       <use xlink:href="#DejaVuSans-2e" transform="translate(63.623047 0)"/>
       <use xlink:href="#DejaVuSans-34" transform="translate(95.410156 0)"/>
      </g>
     </g>
    </g>
    <g id="xtick_4">
     <g id="line2d_7">
      <path d="M 378.16675 339.84 
L 378.16675 7.2 
" clip-path="url(#p00128b6e66)" style="fill: none; stroke: #ffffff; stroke-width: 0.8; stroke-linecap: square"/>
     </g>
     <g id="line2d_8">
      <g>
       <use xlink:href="#m2693e0ed10" x="378.16675" y="339.84" style="fill: #555555; stroke: #555555; stroke-width: 0.8"/>
      </g>
     </g>
     <g id="text_4">
      <!-- 0.6 -->
      <g style="fill: #555555" transform="translate(367.034563 357.477813) scale(0.14 -0.14)">
       <defs>
        <path id="DejaVuSans-36" d="M 2113 2584 
Q 1688 2584 1439 2293 
Q 1191 2003 1191 1497 
Q 1191 994 1439 701 
Q 1688 409 2113 409 
Q 2538 409 2786 701 
Q 3034 994 3034 1497 
Q 3034 2003 2786 2293 
Q 2538 2584 2113 2584 
z
M 3366 4563 
L 3366 3988 
Q 3128 4100 2886 4159 
Q 2644 4219 2406 4219 
Q 1781 4219 1451 3797 
Q 1122 3375 1075 2522 
Q 1259 2794 1537 2939 
Q 1816 3084 2150 3084 
Q 2853 3084 3261 2657 
Q 3669 2231 3669 1497 
Q 3669 778 3244 343 
Q 2819 -91 2113 -91 
Q 1303 -91 875 529 
Q 447 1150 447 2328 
Q 447 3434 972 4092 
Q 1497 4750 2381 4750 
Q 2619 4750 2861 4703 
Q 3103 4656 3366 4563 
z
" transform="scale(0.015625)"/>
       </defs>
       <use xlink:href="#DejaVuSans-30"/>
       <use xlink:href="#DejaVuSans-2e" transform="translate(63.623047 0)"/>
       <use xlink:href="#DejaVuSans-36" transform="translate(95.410156 0)"/>
      </g>
     </g>
    </g>
    <g id="xtick_5">
     <g id="line2d_9">
      <path d="M 489.76675 339.84 
L 489.76675 7.2 
" clip-path="url(#p00128b6e66)" style="fill: none; stroke: #ffffff; stroke-width: 0.8; stroke-linecap: square"/>
     </g>
     <g id="line2d_10">
      <g>
       <use xlink:href="#m2693e0ed10" x="489.76675" y="339.84" style="fill: #555555; stroke: #555555; stroke-width: 0.8"/>
      </g>
     </g>
     <g id="text_5">
      <!-- 0.8 -->
      <g style="fill: #555555" transform="translate(478.634563 357.477813) scale(0.14 -0.14)">
       <defs>
        <path id="DejaVuSans-38" d="M 2034 2216 
Q 1584 2216 1326 1975 
Q 1069 1734 1069 1313 
Q 1069 891 1326 650 
Q 1584 409 2034 409 
Q 2484 409 2743 651 
Q 3003 894 3003 1313 
Q 3003 1734 2745 1975 
Q 2488 2216 2034 2216 
z
M 1403 2484 
Q 997 2584 770 2862 
Q 544 3141 544 3541 
Q 544 4100 942 4425 
Q 1341 4750 2034 4750 
Q 2731 4750 3128 4425 
Q 3525 4100 3525 3541 
Q 3525 3141 3298 2862 
Q 3072 2584 2669 2484 
Q 3125 2378 3379 2068 
Q 3634 1759 3634 1313 
Q 3634 634 3220 271 
Q 2806 -91 2034 -91 
Q 1263 -91 848 271 
Q 434 634 434 1313 
Q 434 1759 690 2068 
Q 947 2378 1403 2484 
z
M 1172 3481 
Q 1172 3119 1398 2916 
Q 1625 2713 2034 2713 
Q 2441 2713 2670 2916 
Q 2900 3119 2900 3481 
Q 2900 3844 2670 4047 
Q 2441 4250 2034 4250 
Q 1625 4250 1398 4047 
Q 1172 3844 1172 3481 
z
" transform="scale(0.015625)"/>
       </defs>
       <use xlink:href="#DejaVuSans-30"/>
       <use xlink:href="#DejaVuSans-2e" transform="translate(63.623047 0)"/>
       <use xlink:href="#DejaVuSans-38" transform="translate(95.410156 0)"/>
      </g>
     </g>
    </g>
    <g id="xtick_6">
     <g id="line2d_11">
      <path d="M 601.36675 339.84 
L 601.36675 7.2 
" clip-path="url(#p00128b6e66)" style="fill: none; stroke: #ffffff; stroke-width: 0.8; stroke-linecap: square"/>
     </g>
     <g id="line2d_12">
      <g>
       <use xlink:href="#m2693e0ed10" x="601.36675" y="339.84" style="fill: #555555; stroke: #555555; stroke-width: 0.8"/>
      </g>
     </g>
     <g id="text_6">
      <!-- 1.0 -->
      <g style="fill: #555555" transform="translate(590.234563 357.477813) scale(0.14 -0.14)">
       <defs>
        <path id="DejaVuSans-31" d="M 794 531 
L 1825 531 
L 1825 4091 
L 703 3866 
L 703 4441 
L 1819 4666 
L 2450 4666 
L 2450 531 
L 3481 531 
L 3481 0 
L 794 0 
L 794 531 
z
" transform="scale(0.015625)"/>
       </defs>
       <use xlink:href="#DejaVuSans-31"/>
       <use xlink:href="#DejaVuSans-2e" transform="translate(63.623047 0)"/>
       <use xlink:href="#DejaVuSans-30" transform="translate(95.410156 0)"/>
      </g>
     </g>
    </g>
    <g id="text_7">
     <!-- Propensity Score -->
     <g style="fill: #555555" transform="translate(252.052188 377.15475) scale(0.168 -0.168)">
      <defs>
       <path id="DejaVuSans-50" d="M 1259 4147 
L 1259 2394 
L 2053 2394 
Q 2494 2394 2734 2622 
Q 2975 2850 2975 3272 
Q 2975 3691 2734 3919 
Q 2494 4147 2053 4147 
L 1259 4147 
z
M 628 4666 
L 2053 4666 
Q 2838 4666 3239 4311 
Q 3641 3956 3641 3272 
Q 3641 2581 3239 2228 
Q 2838 1875 2053 1875 
L 1259 1875 
L 1259 0 
L 628 0 
L 628 4666 
z
" transform="scale(0.015625)"/>
       <path id="DejaVuSans-72" d="M 2631 2963 
Q 2534 3019 2420 3045 
Q 2306 3072 2169 3072 
Q 1681 3072 1420 2755 
Q 1159 2438 1159 1844 
L 1159 0 
L 581 0 
L 581 3500 
L 1159 3500 
L 1159 2956 
Q 1341 3275 1631 3429 
Q 1922 3584 2338 3584 
Q 2397 3584 2469 3576 
Q 2541 3569 2628 3553 
L 2631 2963 
z
" transform="scale(0.015625)"/>
       <path id="DejaVuSans-6f" d="M 1959 3097 
Q 1497 3097 1228 2736 
Q 959 2375 959 1747 
Q 959 1119 1226 758 
Q 1494 397 1959 397 
Q 2419 397 2687 759 
Q 2956 1122 2956 1747 
Q 2956 2369 2687 2733 
Q 2419 3097 1959 3097 
z
M 1959 3584 
Q 2709 3584 3137 3096 
Q 3566 2609 3566 1747 
Q 3566 888 3137 398 
Q 2709 -91 1959 -91 
Q 1206 -91 779 398 
Q 353 888 353 1747 
Q 353 2609 779 3096 
Q 1206 3584 1959 3584 
z
" transform="scale(0.015625)"/>
       <path id="DejaVuSans-70" d="M 1159 525 
L 1159 -1331 
L 581 -1331 
L 581 3500 
L 1159 3500 
L 1159 2969 
Q 1341 3281 1617 3432 
Q 1894 3584 2278 3584 
Q 2916 3584 3314 3078 
Q 3713 2572 3713 1747 
Q 3713 922 3314 415 
Q 2916 -91 2278 -91 
Q 1894 -91 1617 61 
Q 1341 213 1159 525 
z
M 3116 1747 
Q 3116 2381 2855 2742 
Q 2594 3103 2138 3103 
Q 1681 3103 1420 2742 
Q 1159 2381 1159 1747 
Q 1159 1113 1420 752 
Q 1681 391 2138 391 
Q 2594 391 2855 752 
Q 3116 1113 3116 1747 
z
" transform="scale(0.015625)"/>
       <path id="DejaVuSans-65" d="M 3597 1894 
L 3597 1613 
L 953 1613 
Q 991 1019 1311 708 
Q 1631 397 2203 397 
Q 2534 397 2845 478 
Q 3156 559 3463 722 
L 3463 178 
Q 3153 47 2828 -22 
Q 2503 -91 2169 -91 
Q 1331 -91 842 396 
Q 353 884 353 1716 
Q 353 2575 817 3079 
Q 1281 3584 2069 3584 
Q 2775 3584 3186 3129 
Q 3597 2675 3597 1894 
z
M 3022 2063 
Q 3016 2534 2758 2815 
Q 2500 3097 2075 3097 
Q 1594 3097 1305 2825 
Q 1016 2553 972 2059 
L 3022 2063 
z
" transform="scale(0.015625)"/>
       <path id="DejaVuSans-6e" d="M 3513 2113 
L 3513 0 
L 2938 0 
L 2938 2094 
Q 2938 2591 2744 2837 
Q 2550 3084 2163 3084 
Q 1697 3084 1428 2787 
Q 1159 2491 1159 1978 
L 1159 0 
L 581 0 
L 581 3500 
L 1159 3500 
L 1159 2956 
Q 1366 3272 1645 3428 
Q 1925 3584 2291 3584 
Q 2894 3584 3203 3211 
Q 3513 2838 3513 2113 
z
" transform="scale(0.015625)"/>
       <path id="DejaVuSans-73" d="M 2834 3397 
L 2834 2853 
Q 2591 2978 2328 3040 
Q 2066 3103 1784 3103 
Q 1356 3103 1142 2972 
Q 928 2841 928 2578 
Q 928 2378 1081 2264 
Q 1234 2150 1697 2047 
L 1894 2003 
Q 2506 1872 2764 1633 
Q 3022 1394 3022 966 
Q 3022 478 2636 193 
Q 2250 -91 1575 -91 
Q 1294 -91 989 -36 
Q 684 19 347 128 
L 347 722 
Q 666 556 975 473 
Q 1284 391 1588 391 
Q 1994 391 2212 530 
Q 2431 669 2431 922 
Q 2431 1156 2273 1281 
Q 2116 1406 1581 1522 
L 1381 1569 
Q 847 1681 609 1914 
Q 372 2147 372 2553 
Q 372 3047 722 3315 
Q 1072 3584 1716 3584 
Q 2034 3584 2315 3537 
Q 2597 3491 2834 3397 
z
" transform="scale(0.015625)"/>
       <path id="DejaVuSans-69" d="M 603 3500 
L 1178 3500 
L 1178 0 
L 603 0 
L 603 3500 
z
M 603 4863 
L 1178 4863 
L 1178 4134 
L 603 4134 
L 603 4863 
z
" transform="scale(0.015625)"/>
       <path id="DejaVuSans-74" d="M 1172 4494 
L 1172 3500 
L 2356 3500 
L 2356 3053 
L 1172 3053 
L 1172 1153 
Q 1172 725 1289 603 
Q 1406 481 1766 481 
L 2356 481 
L 2356 0 
L 1766 0 
Q 1100 0 847 248 
Q 594 497 594 1153 
L 594 3053 
L 172 3053 
L 172 3500 
L 594 3500 
L 594 4494 
L 1172 4494 
z
" transform="scale(0.015625)"/>
       <path id="DejaVuSans-79" d="M 2059 -325 
Q 1816 -950 1584 -1140 
Q 1353 -1331 966 -1331 
L 506 -1331 
L 506 -850 
L 844 -850 
Q 1081 -850 1212 -737 
Q 1344 -625 1503 -206 
L 1606 56 
L 191 3500 
L 800 3500 
L 1894 763 
L 2988 3500 
L 3597 3500 
L 2059 -325 
z
" transform="scale(0.015625)"/>
       <path id="DejaVuSans-20" transform="scale(0.015625)"/>
       <path id="DejaVuSans-53" d="M 3425 4513 
L 3425 3897 
Q 3066 4069 2747 4153 
Q 2428 4238 2131 4238 
Q 1616 4238 1336 4038 
Q 1056 3838 1056 3469 
Q 1056 3159 1242 3001 
Q 1428 2844 1947 2747 
L 2328 2669 
Q 3034 2534 3370 2195 
Q 3706 1856 3706 1288 
Q 3706 609 3251 259 
Q 2797 -91 1919 -91 
Q 1588 -91 1214 -16 
Q 841 59 441 206 
L 441 856 
Q 825 641 1194 531 
Q 1563 422 1919 422 
Q 2459 422 2753 634 
Q 3047 847 3047 1241 
Q 3047 1584 2836 1778 
Q 2625 1972 2144 2069 
L 1759 2144 
Q 1053 2284 737 2584 
Q 422 2884 422 3419 
Q 422 4038 858 4394 
Q 1294 4750 2059 4750 
Q 2388 4750 2728 4690 
Q 3069 4631 3425 4513 
z
" transform="scale(0.015625)"/>
       <path id="DejaVuSans-63" d="M 3122 3366 
L 3122 2828 
Q 2878 2963 2633 3030 
Q 2388 3097 2138 3097 
Q 1578 3097 1268 2742 
Q 959 2388 959 1747 
Q 959 1106 1268 751 
Q 1578 397 2138 397 
Q 2388 397 2633 464 
Q 2878 531 3122 666 
L 3122 134 
Q 2881 22 2623 -34 
Q 2366 -91 2075 -91 
Q 1284 -91 818 406 
Q 353 903 353 1747 
Q 353 2603 823 3093 
Q 1294 3584 2113 3584 
Q 2378 3584 2631 3529 
Q 2884 3475 3122 3366 
z
" transform="scale(0.015625)"/>
      </defs>
      <use xlink:href="#DejaVuSans-50"/>
      <use xlink:href="#DejaVuSans-72" transform="translate(58.552734 0)"/>
      <use xlink:href="#DejaVuSans-6f" transform="translate(97.416016 0)"/>
      <use xlink:href="#DejaVuSans-70" transform="translate(158.597656 0)"/>
      <use xlink:href="#DejaVuSans-65" transform="translate(222.074219 0)"/>
      <use xlink:href="#DejaVuSans-6e" transform="translate(283.597656 0)"/>
      <use xlink:href="#DejaVuSans-73" transform="translate(346.976562 0)"/>
      <use xlink:href="#DejaVuSans-69" transform="translate(399.076172 0)"/>
      <use xlink:href="#DejaVuSans-74" transform="translate(426.859375 0)"/>
      <use xlink:href="#DejaVuSans-79" transform="translate(466.068359 0)"/>
      <use xlink:href="#DejaVuSans-20" transform="translate(525.248047 0)"/>
      <use xlink:href="#DejaVuSans-53" transform="translate(557.035156 0)"/>
      <use xlink:href="#DejaVuSans-63" transform="translate(620.511719 0)"/>
      <use xlink:href="#DejaVuSans-6f" transform="translate(675.492188 0)"/>
      <use xlink:href="#DejaVuSans-72" transform="translate(736.673828 0)"/>
      <use xlink:href="#DejaVuSans-65" transform="translate(775.537109 0)"/>
     </g>
    </g>
   </g>
   <g id="matplotlib.axis_2">
    <g id="ytick_1">
     <g id="line2d_13">
      <path d="M 43.36675 339.84 
L 601.36675 339.84 
" clip-path="url(#p00128b6e66)" style="fill: none; stroke: #ffffff; stroke-width: 0.8; stroke-linecap: square"/>
     </g>
     <g id="line2d_14">
      <defs>
       <path id="m04647c5e9e" d="M 0 0 
L -3.5 0 
" style="stroke: #555555; stroke-width: 0.8"/>
      </defs>
      <g>
       <use xlink:href="#m04647c5e9e" x="43.36675" y="339.84" style="fill: #555555; stroke: #555555; stroke-width: 0.8"/>
      </g>
     </g>
     <g id="text_8">
      <!-- 0 -->
      <g style="fill: #555555" transform="translate(27.45925 345.158906) scale(0.14 -0.14)">
       <use xlink:href="#DejaVuSans-30"/>
      </g>
     </g>
    </g>
    <g id="ytick_2">
     <g id="line2d_15">
      <path d="M 43.36675 283.080316 
L 601.36675 283.080316 
" clip-path="url(#p00128b6e66)" style="fill: none; stroke: #ffffff; stroke-width: 0.8; stroke-linecap: square"/>
     </g>
     <g id="line2d_16">
      <g>
       <use xlink:href="#m04647c5e9e" x="43.36675" y="283.080316" style="fill: #555555; stroke: #555555; stroke-width: 0.8"/>
      </g>
     </g>
     <g id="text_9">
      <!-- 1 -->
      <g style="fill: #555555" transform="translate(27.45925 288.399223) scale(0.14 -0.14)">
       <use xlink:href="#DejaVuSans-31"/>
      </g>
     </g>
    </g>
    <g id="ytick_3">
     <g id="line2d_17">
      <path d="M 43.36675 226.320633 
L 601.36675 226.320633 
" clip-path="url(#p00128b6e66)" style="fill: none; stroke: #ffffff; stroke-width: 0.8; stroke-linecap: square"/>
     </g>
     <g id="line2d_18">
      <g>
       <use xlink:href="#m04647c5e9e" x="43.36675" y="226.320633" style="fill: #555555; stroke: #555555; stroke-width: 0.8"/>
      </g>
     </g>
     <g id="text_10">
      <!-- 2 -->
      <g style="fill: #555555" transform="translate(27.45925 231.639539) scale(0.14 -0.14)">
       <use xlink:href="#DejaVuSans-32"/>
      </g>
     </g>
    </g>
    <g id="ytick_4">
     <g id="line2d_19">
      <path d="M 43.36675 169.560949 
L 601.36675 169.560949 
" clip-path="url(#p00128b6e66)" style="fill: none; stroke: #ffffff; stroke-width: 0.8; stroke-linecap: square"/>
     </g>
     <g id="line2d_20">
      <g>
       <use xlink:href="#m04647c5e9e" x="43.36675" y="169.560949" style="fill: #555555; stroke: #555555; stroke-width: 0.8"/>
      </g>
     </g>
     <g id="text_11">
      <!-- 3 -->
      <g style="fill: #555555" transform="translate(27.45925 174.879856) scale(0.14 -0.14)">
       <defs>
        <path id="DejaVuSans-33" d="M 2597 2516 
Q 3050 2419 3304 2112 
Q 3559 1806 3559 1356 
Q 3559 666 3084 287 
Q 2609 -91 1734 -91 
Q 1441 -91 1130 -33 
Q 819 25 488 141 
L 488 750 
Q 750 597 1062 519 
Q 1375 441 1716 441 
Q 2309 441 2620 675 
Q 2931 909 2931 1356 
Q 2931 1769 2642 2001 
Q 2353 2234 1838 2234 
L 1294 2234 
L 1294 2753 
L 1863 2753 
Q 2328 2753 2575 2939 
Q 2822 3125 2822 3475 
Q 2822 3834 2567 4026 
Q 2313 4219 1838 4219 
Q 1578 4219 1281 4162 
Q 984 4106 628 3988 
L 628 4550 
Q 988 4650 1302 4700 
Q 1616 4750 1894 4750 
Q 2613 4750 3031 4423 
Q 3450 4097 3450 3541 
Q 3450 3153 3228 2886 
Q 3006 2619 2597 2516 
z
" transform="scale(0.015625)"/>
       </defs>
       <use xlink:href="#DejaVuSans-33"/>
      </g>
     </g>
    </g>
    <g id="ytick_5">
     <g id="line2d_21">
      <path d="M 43.36675 112.801266 
L 601.36675 112.801266 
" clip-path="url(#p00128b6e66)" style="fill: none; stroke: #ffffff; stroke-width: 0.8; stroke-linecap: square"/>
     </g>
     <g id="line2d_22">
      <g>
       <use xlink:href="#m04647c5e9e" x="43.36675" y="112.801266" style="fill: #555555; stroke: #555555; stroke-width: 0.8"/>
      </g>
     </g>
     <g id="text_12">
      <!-- 4 -->
      <g style="fill: #555555" transform="translate(27.45925 118.120172) scale(0.14 -0.14)">
       <use xlink:href="#DejaVuSans-34"/>
      </g>
     </g>
    </g>
    <g id="ytick_6">
     <g id="line2d_23">
      <path d="M 43.36675 56.041582 
L 601.36675 56.041582 
" clip-path="url(#p00128b6e66)" style="fill: none; stroke: #ffffff; stroke-width: 0.8; stroke-linecap: square"/>
     </g>
     <g id="line2d_24">
      <g>
       <use xlink:href="#m04647c5e9e" x="43.36675" y="56.041582" style="fill: #555555; stroke: #555555; stroke-width: 0.8"/>
      </g>
     </g>
     <g id="text_13">
      <!-- 5 -->
      <g style="fill: #555555" transform="translate(27.45925 61.360489) scale(0.14 -0.14)">
       <defs>
        <path id="DejaVuSans-35" d="M 691 4666 
L 3169 4666 
L 3169 4134 
L 1269 4134 
L 1269 2991 
Q 1406 3038 1543 3061 
Q 1681 3084 1819 3084 
Q 2600 3084 3056 2656 
Q 3513 2228 3513 1497 
Q 3513 744 3044 326 
Q 2575 -91 1722 -91 
Q 1428 -91 1123 -41 
Q 819 9 494 109 
L 494 744 
Q 775 591 1075 516 
Q 1375 441 1709 441 
Q 2250 441 2565 725 
Q 2881 1009 2881 1497 
Q 2881 1984 2565 2268 
Q 2250 2553 1709 2553 
Q 1456 2553 1204 2497 
Q 953 2441 691 2322 
L 691 4666 
z
" transform="scale(0.015625)"/>
       </defs>
       <use xlink:href="#DejaVuSans-35"/>
      </g>
     </g>
    </g>
    <g id="text_14">
     <!-- Density -->
     <g style="fill: #555555" transform="translate(19.965375 205.454438) rotate(-90) scale(0.168 -0.168)">
      <defs>
       <path id="DejaVuSans-44" d="M 1259 4147 
L 1259 519 
L 2022 519 
Q 2988 519 3436 956 
Q 3884 1394 3884 2338 
Q 3884 3275 3436 3711 
Q 2988 4147 2022 4147 
L 1259 4147 
z
M 628 4666 
L 1925 4666 
Q 3281 4666 3915 4102 
Q 4550 3538 4550 2338 
Q 4550 1131 3912 565 
Q 3275 0 1925 0 
L 628 0 
L 628 4666 
z
" transform="scale(0.015625)"/>
      </defs>
      <use xlink:href="#DejaVuSans-44"/>
      <use xlink:href="#DejaVuSans-65" transform="translate(77.001953 0)"/>
      <use xlink:href="#DejaVuSans-6e" transform="translate(138.525391 0)"/>
      <use xlink:href="#DejaVuSans-73" transform="translate(201.904297 0)"/>
      <use xlink:href="#DejaVuSans-69" transform="translate(254.003906 0)"/>
      <use xlink:href="#DejaVuSans-74" transform="translate(281.787109 0)"/>
      <use xlink:href="#DejaVuSans-79" transform="translate(320.996094 0)"/>
     </g>
    </g>
   </g>
   <g id="FillBetweenPolyCollection_1">
    <defs>
     <path id="mec0c0b4490" d="M 180.307449 -48.017127 
L 180.307449 -48.008625 
L 181.86925 -48.008625 
L 183.431051 -48.008625 
L 184.992853 -48.008625 
L 186.554654 -48.008625 
L 188.116456 -48.008625 
L 189.678257 -48.008625 
L 191.240059 -48.008625 
L 192.80186 -48.008625 
L 194.363662 -48.008625 
L 195.925463 -48.008625 
L 197.487265 -48.008625 
L 199.049066 -48.008625 
L 200.610868 -48.008625 
L 202.172669 -48.008625 
L 203.73447 -48.008625 
L 205.296272 -48.008625 
L 206.858073 -48.008625 
L 208.419875 -48.008625 
L 209.981676 -48.008625 
L 211.543478 -48.008625 
L 213.105279 -48.008625 
L 214.667081 -48.008625 
L 216.228882 -48.008625 
L 217.790684 -48.008625 
L 219.352485 -48.008625 
L 220.914287 -48.008625 
L 222.476088 -48.008625 
L 224.03789 -48.008625 
L 225.599691 -48.008625 
L 227.161492 -48.008625 
L 228.723294 -48.008625 
L 230.285095 -48.008625 
L 231.846897 -48.008625 
L 233.408698 -48.008625 
L 234.9705 -48.008625 
L 236.532301 -48.008625 
L 238.094103 -48.008625 
L 239.655904 -48.008625 
L 241.217706 -48.008625 
L 242.779507 -48.008625 
L 244.341309 -48.008625 
L 245.90311 -48.008625 
L 247.464911 -48.008625 
L 249.026713 -48.008625 
L 250.588514 -48.008625 
L 252.150316 -48.008625 
L 253.712117 -48.008625 
L 255.273919 -48.008625 
L 256.83572 -48.008625 
L 258.397522 -48.008625 
L 259.959323 -48.008625 
L 261.521125 -48.008625 
L 263.082926 -48.008625 
L 264.644728 -48.008625 
L 266.206529 -48.008625 
L 267.76833 -48.008625 
L 269.330132 -48.008625 
L 270.891933 -48.008625 
L 272.453735 -48.008625 
L 274.015536 -48.008625 
L 275.577338 -48.008625 
L 277.139139 -48.008625 
L 278.700941 -48.008625 
L 280.262742 -48.008625 
L 281.824544 -48.008625 
L 283.386345 -48.008625 
L 284.948147 -48.008625 
L 286.509948 -48.008625 
L 288.07175 -48.008625 
L 289.633551 -48.008625 
L 291.195352 -48.008625 
L 292.757154 -48.008625 
L 294.318955 -48.008625 
L 295.880757 -48.008625 
L 297.442558 -48.008625 
L 299.00436 -48.008625 
L 300.566161 -48.008625 
L 302.127963 -48.008625 
L 303.689764 -48.008625 
L 305.251566 -48.008625 
L 306.813367 -48.008625 
L 308.375169 -48.008625 
L 309.93697 -48.008625 
L 311.498771 -48.008625 
L 313.060573 -48.008625 
L 314.622374 -48.008625 
L 316.184176 -48.008625 
L 317.745977 -48.008625 
L 319.307779 -48.008625 
L 320.86958 -48.008625 
L 322.431382 -48.008625 
L 323.993183 -48.008625 
L 325.554985 -48.008625 
L 327.116786 -48.008625 
L 328.678588 -48.008625 
L 330.240389 -48.008625 
L 331.802191 -48.008625 
L 333.363992 -48.008625 
L 334.925793 -48.008625 
L 336.487595 -48.008625 
L 338.049396 -48.008625 
L 339.611198 -48.008625 
L 341.172999 -48.008625 
L 342.734801 -48.008625 
L 344.296602 -48.008625 
L 345.858404 -48.008625 
L 347.420205 -48.008625 
L 348.982007 -48.008625 
L 350.543808 -48.008625 
L 352.10561 -48.008625 
L 353.667411 -48.008625 
L 355.229212 -48.008625 
L 356.791014 -48.008625 
L 358.352815 -48.008625 
L 359.914617 -48.008625 
L 361.476418 -48.008625 
L 363.03822 -48.008625 
L 364.600021 -48.008625 
L 366.161823 -48.008625 
L 367.723624 -48.008625 
L 369.285426 -48.008625 
L 370.847227 -48.008625 
L 372.409029 -48.008625 
L 373.97083 -48.008625 
L 375.532631 -48.008625 
L 377.094433 -48.008625 
L 378.656234 -48.008625 
L 380.218036 -48.008625 
L 381.779837 -48.008625 
L 383.341639 -48.008625 
L 384.90344 -48.008625 
L 386.465242 -48.008625 
L 388.027043 -48.008625 
L 389.588845 -48.008625 
L 391.150646 -48.008625 
L 392.712448 -48.008625 
L 394.274249 -48.008625 
L 395.836051 -48.008625 
L 397.397852 -48.008625 
L 398.959653 -48.008625 
L 400.521455 -48.008625 
L 402.083256 -48.008625 
L 403.645058 -48.008625 
L 405.206859 -48.008625 
L 406.768661 -48.008625 
L 408.330462 -48.008625 
L 409.892264 -48.008625 
L 411.454065 -48.008625 
L 413.015867 -48.008625 
L 414.577668 -48.008625 
L 416.13947 -48.008625 
L 417.701271 -48.008625 
L 419.263072 -48.008625 
L 420.824874 -48.008625 
L 422.386675 -48.008625 
L 423.948477 -48.008625 
L 425.510278 -48.008625 
L 427.07208 -48.008625 
L 428.633881 -48.008625 
L 430.195683 -48.008625 
L 431.757484 -48.008625 
L 433.319286 -48.008625 
L 434.881087 -48.008625 
L 436.442889 -48.008625 
L 438.00469 -48.008625 
L 439.566491 -48.008625 
L 441.128293 -48.008625 
L 442.690094 -48.008625 
L 444.251896 -48.008625 
L 445.813697 -48.008625 
L 447.375499 -48.008625 
L 448.9373 -48.008625 
L 450.499102 -48.008625 
L 452.060903 -48.008625 
L 453.622705 -48.008625 
L 455.184506 -48.008625 
L 456.746308 -48.008625 
L 458.308109 -48.008625 
L 459.869911 -48.008625 
L 461.431712 -48.008625 
L 462.993513 -48.008625 
L 464.555315 -48.008625 
L 466.117116 -48.008625 
L 467.678918 -48.008625 
L 469.240719 -48.008625 
L 470.802521 -48.008625 
L 472.364322 -48.008625 
L 473.926124 -48.008625 
L 475.487925 -48.008625 
L 477.049727 -48.008625 
L 478.611528 -48.008625 
L 480.17333 -48.008625 
L 481.735131 -48.008625 
L 483.296932 -48.008625 
L 484.858734 -48.008625 
L 486.420535 -48.008625 
L 487.982337 -48.008625 
L 489.544138 -48.008625 
L 491.10594 -48.008625 
L 491.10594 -48.012424 
L 491.10594 -48.012424 
L 489.544138 -48.021818 
L 487.982337 -48.046562 
L 486.420535 -48.099364 
L 484.858734 -48.190398 
L 483.296932 -48.316817 
L 481.735131 -48.457974 
L 480.17333 -48.586123 
L 478.611528 -48.688964 
L 477.049727 -48.787101 
L 475.487925 -48.930039 
L 473.926124 -49.166939 
L 472.364322 -49.508455 
L 470.802521 -49.912952 
L 469.240719 -50.315472 
L 467.678918 -50.669895 
L 466.117116 -50.959441 
L 464.555315 -51.185219 
L 462.993513 -51.378907 
L 461.431712 -51.623223 
L 459.869911 -52.00686 
L 458.308109 -52.526109 
L 456.746308 -53.067614 
L 455.184506 -53.539273 
L 453.622705 -54.005046 
L 452.060903 -54.637417 
L 450.499102 -55.527791 
L 448.9373 -56.583847 
L 447.375499 -57.630734 
L 445.813697 -58.581442 
L 444.251896 -59.485504 
L 442.690094 -60.442495 
L 441.128293 -61.504625 
L 439.566491 -62.650237 
L 438.00469 -63.840396 
L 436.442889 -65.133366 
L 434.881087 -66.726331 
L 433.319286 -68.779446 
L 431.757484 -71.154259 
L 430.195683 -73.413197 
L 428.633881 -75.151221 
L 427.07208 -76.31524 
L 425.510278 -77.217219 
L 423.948477 -78.320011 
L 422.386675 -80.020245 
L 420.824874 -82.518372 
L 419.263072 -85.783248 
L 417.701271 -89.652651 
L 416.13947 -94.038898 
L 414.577668 -99.022592 
L 413.015867 -104.652599 
L 411.454065 -110.633094 
L 409.892264 -116.311464 
L 408.330462 -121.092249 
L 406.768661 -124.902864 
L 405.206859 -128.241162 
L 403.645058 -131.747325 
L 402.083256 -135.690932 
L 400.521455 -139.832273 
L 398.959653 -143.799557 
L 397.397852 -147.655552 
L 395.836051 -152.083372 
L 394.274249 -157.950419 
L 392.712448 -165.665739 
L 391.150646 -174.929635 
L 389.588845 -184.978495 
L 388.027043 -194.993791 
L 386.465242 -204.388475 
L 384.90344 -212.823926 
L 383.341639 -219.945961 
L 381.779837 -225.155122 
L 380.218036 -227.794769 
L 378.656234 -227.628816 
L 377.094433 -225.152315 
L 375.532631 -221.587894 
L 373.97083 -218.634348 
L 372.409029 -217.881547 
L 370.847227 -220.019122 
L 369.285426 -224.482729 
L 367.723624 -229.980334 
L 366.161823 -235.418416 
L 364.600021 -240.352639 
L 363.03822 -244.735614 
L 361.476418 -248.489165 
L 359.914617 -251.425513 
L 358.352815 -253.531945 
L 356.791014 -255.24902 
L 355.229212 -257.364207 
L 353.667411 -260.487828 
L 352.10561 -264.536832 
L 350.543808 -268.743963 
L 348.982007 -272.228558 
L 347.420205 -274.633208 
L 345.858404 -276.388343 
L 344.296602 -278.588658 
L 342.734801 -282.554342 
L 341.172999 -289.054052 
L 339.611198 -297.54557 
L 338.049396 -306.209775 
L 336.487595 -313.000889 
L 334.925793 -316.862058 
L 333.363992 -318.075895 
L 331.802191 -317.588699 
L 330.240389 -316.014361 
L 328.678588 -313.21309 
L 327.116786 -308.826385 
L 325.554985 -303.231935 
L 323.993183 -297.840888 
L 322.431382 -294.259299 
L 320.86958 -293.114818 
L 319.307779 -293.786726 
L 317.745977 -295.234173 
L 316.184176 -296.857971 
L 314.622374 -298.453037 
L 313.060573 -299.658847 
L 311.498771 -300.059262 
L 309.93697 -300.04507 
L 308.375169 -301.129061 
L 306.813367 -304.846401 
L 305.251566 -311.222725 
L 303.689764 -318.358187 
L 302.127963 -323.302004 
L 300.566161 -323.311932 
L 299.00436 -316.984736 
L 297.442558 -305.119033 
L 295.880757 -290.700127 
L 294.318955 -277.521833 
L 292.757154 -268.253631 
L 291.195352 -263.421293 
L 289.633551 -261.765726 
L 288.07175 -261.225315 
L 286.509948 -259.767015 
L 284.948147 -255.962499 
L 283.386345 -249.405617 
L 281.824544 -240.731744 
L 280.262742 -231.021968 
L 278.700941 -221.023081 
L 277.139139 -210.917162 
L 275.577338 -200.716143 
L 274.015536 -190.654899 
L 272.453735 -181.161379 
L 270.891933 -172.573303 
L 269.330132 -164.899713 
L 267.76833 -157.761882 
L 266.206529 -150.582654 
L 264.644728 -142.959494 
L 263.082926 -134.951644 
L 261.521125 -127.080411 
L 259.959323 -120.085715 
L 258.397522 -114.56021 
L 256.83572 -110.605434 
L 255.273919 -107.74109 
L 253.712117 -105.174802 
L 252.150316 -102.223964 
L 250.588514 -98.605872 
L 249.026713 -94.500577 
L 247.464911 -90.400845 
L 245.90311 -86.810095 
L 244.341309 -83.980869 
L 242.779507 -81.890602 
L 241.217706 -80.403837 
L 239.655904 -79.408914 
L 238.094103 -78.846523 
L 236.532301 -78.674883 
L 234.9705 -78.77573 
L 233.408698 -78.845583 
L 231.846897 -78.445546 
L 230.285095 -77.256365 
L 228.723294 -75.28734 
L 227.161492 -72.809467 
L 225.599691 -70.127562 
L 224.03789 -67.456901 
L 222.476088 -64.954145 
L 220.914287 -62.746474 
L 219.352485 -60.884101 
L 217.790684 -59.316525 
L 216.228882 -57.965245 
L 214.667081 -56.798064 
L 213.105279 -55.79851 
L 211.543478 -54.893445 
L 209.981676 -53.968216 
L 208.419875 -52.964101 
L 206.858073 -51.943215 
L 205.296272 -51.059848 
L 203.73447 -50.47425 
L 202.172669 -50.268614 
L 200.610868 -50.401707 
L 199.049066 -50.718947 
L 197.487265 -51.016026 
L 195.925463 -51.124837 
L 194.363662 -50.971731 
L 192.80186 -50.579907 
L 191.240059 -50.033928 
L 189.678257 -49.441917 
L 188.116456 -48.906678 
L 186.554654 -48.498811 
L 184.992853 -48.238285 
L 183.431051 -48.099883 
L 181.86925 -48.039105 
L 180.307449 -48.017127 
z
" style="stroke: #e24a33; stroke-width: 0.5"/>
    </defs>
    <g clip-path="url(#p00128b6e66)">
     <use xlink:href="#mec0c0b4490" x="0" y="387.848625" style="fill: #e24a33; fill-opacity: 0.25; stroke: #e24a33; stroke-width: 0.5"/>
    </g>
   </g>
   <g id="FillBetweenPolyCollection_2">
    <defs>
     <path id="m4149d6216b" d="M 168.213355 -48.010219 
L 168.213355 -48.008625 
L 169.827193 -48.008625 
L 171.441032 -48.008625 
L 173.05487 -48.008625 
L 174.668708 -48.008625 
L 176.282546 -48.008625 
L 177.896385 -48.008625 
L 179.510223 -48.008625 
L 181.124061 -48.008625 
L 182.7379 -48.008625 
L 184.351738 -48.008625 
L 185.965576 -48.008625 
L 187.579414 -48.008625 
L 189.193253 -48.008625 
L 190.807091 -48.008625 
L 192.420929 -48.008625 
L 194.034768 -48.008625 
L 195.648606 -48.008625 
L 197.262444 -48.008625 
L 198.876282 -48.008625 
L 200.490121 -48.008625 
L 202.103959 -48.008625 
L 203.717797 -48.008625 
L 205.331636 -48.008625 
L 206.945474 -48.008625 
L 208.559312 -48.008625 
L 210.173151 -48.008625 
L 211.786989 -48.008625 
L 213.400827 -48.008625 
L 215.014665 -48.008625 
L 216.628504 -48.008625 
L 218.242342 -48.008625 
L 219.85618 -48.008625 
L 221.470019 -48.008625 
L 223.083857 -48.008625 
L 224.697695 -48.008625 
L 226.311533 -48.008625 
L 227.925372 -48.008625 
L 229.53921 -48.008625 
L 231.153048 -48.008625 
L 232.766887 -48.008625 
L 234.380725 -48.008625 
L 235.994563 -48.008625 
L 237.608401 -48.008625 
L 239.22224 -48.008625 
L 240.836078 -48.008625 
L 242.449916 -48.008625 
L 244.063755 -48.008625 
L 245.677593 -48.008625 
L 247.291431 -48.008625 
L 248.905269 -48.008625 
L 250.519108 -48.008625 
L 252.132946 -48.008625 
L 253.746784 -48.008625 
L 255.360623 -48.008625 
L 256.974461 -48.008625 
L 258.588299 -48.008625 
L 260.202137 -48.008625 
L 261.815976 -48.008625 
L 263.429814 -48.008625 
L 265.043652 -48.008625 
L 266.657491 -48.008625 
L 268.271329 -48.008625 
L 269.885167 -48.008625 
L 271.499005 -48.008625 
L 273.112844 -48.008625 
L 274.726682 -48.008625 
L 276.34052 -48.008625 
L 277.954359 -48.008625 
L 279.568197 -48.008625 
L 281.182035 -48.008625 
L 282.795873 -48.008625 
L 284.409712 -48.008625 
L 286.02355 -48.008625 
L 287.637388 -48.008625 
L 289.251227 -48.008625 
L 290.865065 -48.008625 
L 292.478903 -48.008625 
L 294.092742 -48.008625 
L 295.70658 -48.008625 
L 297.320418 -48.008625 
L 298.934256 -48.008625 
L 300.548095 -48.008625 
L 302.161933 -48.008625 
L 303.775771 -48.008625 
L 305.38961 -48.008625 
L 307.003448 -48.008625 
L 308.617286 -48.008625 
L 310.231124 -48.008625 
L 311.844963 -48.008625 
L 313.458801 -48.008625 
L 315.072639 -48.008625 
L 316.686478 -48.008625 
L 318.300316 -48.008625 
L 319.914154 -48.008625 
L 321.527992 -48.008625 
L 323.141831 -48.008625 
L 324.755669 -48.008625 
L 326.369507 -48.008625 
L 327.983346 -48.008625 
L 329.597184 -48.008625 
L 331.211022 -48.008625 
L 332.82486 -48.008625 
L 334.438699 -48.008625 
L 336.052537 -48.008625 
L 337.666375 -48.008625 
L 339.280214 -48.008625 
L 340.894052 -48.008625 
L 342.50789 -48.008625 
L 344.121728 -48.008625 
L 345.735567 -48.008625 
L 347.349405 -48.008625 
L 348.963243 -48.008625 
L 350.577082 -48.008625 
L 352.19092 -48.008625 
L 353.804758 -48.008625 
L 355.418596 -48.008625 
L 357.032435 -48.008625 
L 358.646273 -48.008625 
L 360.260111 -48.008625 
L 361.87395 -48.008625 
L 363.487788 -48.008625 
L 365.101626 -48.008625 
L 366.715464 -48.008625 
L 368.329303 -48.008625 
L 369.943141 -48.008625 
L 371.556979 -48.008625 
L 373.170818 -48.008625 
L 374.784656 -48.008625 
L 376.398494 -48.008625 
L 378.012332 -48.008625 
L 379.626171 -48.008625 
L 381.240009 -48.008625 
L 382.853847 -48.008625 
L 384.467686 -48.008625 
L 386.081524 -48.008625 
L 387.695362 -48.008625 
L 389.309201 -48.008625 
L 390.923039 -48.008625 
L 392.536877 -48.008625 
L 394.150715 -48.008625 
L 395.764554 -48.008625 
L 397.378392 -48.008625 
L 398.99223 -48.008625 
L 400.606069 -48.008625 
L 402.219907 -48.008625 
L 403.833745 -48.008625 
L 405.447583 -48.008625 
L 407.061422 -48.008625 
L 408.67526 -48.008625 
L 410.289098 -48.008625 
L 411.902937 -48.008625 
L 413.516775 -48.008625 
L 415.130613 -48.008625 
L 416.744451 -48.008625 
L 418.35829 -48.008625 
L 419.972128 -48.008625 
L 421.585966 -48.008625 
L 423.199805 -48.008625 
L 424.813643 -48.008625 
L 426.427481 -48.008625 
L 428.041319 -48.008625 
L 429.655158 -48.008625 
L 431.268996 -48.008625 
L 432.882834 -48.008625 
L 434.496673 -48.008625 
L 436.110511 -48.008625 
L 437.724349 -48.008625 
L 439.338187 -48.008625 
L 440.952026 -48.008625 
L 442.565864 -48.008625 
L 444.179702 -48.008625 
L 445.793541 -48.008625 
L 447.407379 -48.008625 
L 449.021217 -48.008625 
L 450.635055 -48.008625 
L 452.248894 -48.008625 
L 453.862732 -48.008625 
L 455.47657 -48.008625 
L 457.090409 -48.008625 
L 458.704247 -48.008625 
L 460.318085 -48.008625 
L 461.931923 -48.008625 
L 463.545762 -48.008625 
L 465.1596 -48.008625 
L 466.773438 -48.008625 
L 468.387277 -48.008625 
L 470.001115 -48.008625 
L 471.614953 -48.008625 
L 473.228791 -48.008625 
L 474.84263 -48.008625 
L 476.456468 -48.008625 
L 478.070306 -48.008625 
L 479.684145 -48.008625 
L 481.297983 -48.008625 
L 482.911821 -48.008625 
L 484.52566 -48.008625 
L 486.139498 -48.008625 
L 487.753336 -48.008625 
L 489.367174 -48.008625 
L 489.367174 -48.010228 
L 489.367174 -48.010228 
L 487.753336 -48.016038 
L 486.139498 -48.034199 
L 484.52566 -48.075542 
L 482.911821 -48.14543 
L 481.297983 -48.23728 
L 479.684145 -48.339335 
L 478.070306 -48.448592 
L 476.456468 -48.583066 
L 474.84263 -48.779375 
L 473.228791 -49.047734 
L 471.614953 -49.325926 
L 470.001115 -49.530587 
L 468.387277 -49.666334 
L 466.773438 -49.83935 
L 465.1596 -50.159155 
L 463.545762 -50.651564 
L 461.931923 -51.242097 
L 460.318085 -51.801615 
L 458.704247 -52.254071 
L 457.090409 -52.664074 
L 455.47657 -53.168511 
L 453.862732 -53.809855 
L 452.248894 -54.487481 
L 450.635055 -55.050174 
L 449.021217 -55.362636 
L 447.407379 -55.328674 
L 445.793541 -54.97249 
L 444.179702 -54.515036 
L 442.565864 -54.292506 
L 440.952026 -54.544744 
L 439.338187 -55.268747 
L 437.724349 -56.276747 
L 436.110511 -57.37454 
L 434.496673 -58.431412 
L 432.882834 -59.351021 
L 431.268996 -60.141044 
L 429.655158 -60.955834 
L 428.041319 -61.934867 
L 426.427481 -63.1109 
L 424.813643 -64.552688 
L 423.199805 -66.35925 
L 421.585966 -68.37405 
L 419.972128 -70.181754 
L 418.35829 -71.61827 
L 416.744451 -73.114353 
L 415.130613 -75.312351 
L 413.516775 -78.36567 
L 411.902937 -81.733907 
L 410.289098 -84.663922 
L 408.67526 -86.766994 
L 407.061422 -88.190447 
L 405.447583 -89.567385 
L 403.833745 -91.862558 
L 402.219907 -95.805592 
L 400.606069 -101.286313 
L 398.99223 -107.500379 
L 397.378392 -113.549606 
L 395.764554 -118.829236 
L 394.150715 -123.314179 
L 392.536877 -127.650619 
L 390.923039 -132.515613 
L 389.309201 -137.792252 
L 387.695362 -142.854719 
L 386.081524 -147.55882 
L 384.467686 -152.098553 
L 382.853847 -156.072957 
L 381.240009 -159.071719 
L 379.626171 -162.126941 
L 378.012332 -166.934666 
L 376.398494 -173.422479 
L 374.784656 -179.54378 
L 373.170818 -183.713098 
L 371.556979 -186.191966 
L 369.943141 -188.061288 
L 368.329303 -190.114909 
L 366.715464 -192.642884 
L 365.101626 -195.15023 
L 363.487788 -196.523909 
L 361.87395 -196.273736 
L 360.260111 -195.232755 
L 358.646273 -194.548797 
L 357.032435 -194.541412 
L 355.418596 -195.129117 
L 353.804758 -196.808456 
L 352.19092 -200.195631 
L 350.577082 -204.747102 
L 348.963243 -209.065 
L 347.349405 -212.790151 
L 345.735567 -217.458009 
L 344.121728 -225.198289 
L 342.50789 -236.709084 
L 340.894052 -249.835696 
L 339.280214 -260.001835 
L 337.666375 -263.617581 
L 336.052537 -261.698766 
L 334.438699 -258.999981 
L 332.82486 -259.586725 
L 331.211022 -263.987018 
L 329.597184 -269.886652 
L 327.983346 -274.624941 
L 326.369507 -277.132907 
L 324.755669 -278.111421 
L 323.141831 -279.069138 
L 321.527992 -281.121271 
L 319.914154 -284.346779 
L 318.300316 -288.478172 
L 316.686478 -293.825515 
L 315.072639 -300.900286 
L 313.458801 -309.416709 
L 311.844963 -317.997759 
L 310.231124 -324.890303 
L 308.617286 -329.386116 
L 307.003448 -332.96495 
L 305.38961 -338.531241 
L 303.775771 -347.581671 
L 302.161933 -357.968844 
L 300.548095 -364.808625 
L 298.934256 -364.454822 
L 297.320418 -358.658187 
L 295.70658 -353.605943 
L 294.092742 -353.443577 
L 292.478903 -356.470464 
L 290.865065 -357.972958 
L 289.251227 -354.34863 
L 287.637388 -344.828962 
L 286.02355 -331.363573 
L 284.409712 -317.174636 
L 282.795873 -305.072242 
L 281.182035 -296.432431 
L 279.568197 -290.537249 
L 277.954359 -285.056258 
L 276.34052 -277.937644 
L 274.726682 -268.452388 
L 273.112844 -256.527051 
L 271.499005 -242.533964 
L 269.885167 -228.062611 
L 268.271329 -215.273218 
L 266.657491 -204.926344 
L 265.043652 -196.145501 
L 263.429814 -188.090713 
L 261.815976 -180.997367 
L 260.202137 -175.702174 
L 258.588299 -172.507408 
L 256.974461 -170.430513 
L 255.360623 -167.653151 
L 253.746784 -162.81542 
L 252.132946 -155.65027 
L 250.519108 -146.523464 
L 248.905269 -136.123763 
L 247.291431 -125.704149 
L 245.677593 -116.964369 
L 244.063755 -111.273632 
L 242.449916 -108.827355 
L 240.836078 -108.538056 
L 239.22224 -108.903077 
L 237.608401 -109.005384 
L 235.994563 -108.667146 
L 234.380725 -107.858456 
L 232.766887 -106.267756 
L 231.153048 -103.506934 
L 229.53921 -99.514492 
L 227.925372 -94.704594 
L 226.311533 -89.871106 
L 224.697695 -85.849877 
L 223.083857 -83.056007 
L 221.470019 -81.290728 
L 219.85618 -79.977984 
L 218.242342 -78.533237 
L 216.628504 -76.571273 
L 215.014665 -74.038243 
L 213.400827 -71.247379 
L 211.786989 -68.55219 
L 210.173151 -66.008305 
L 208.559312 -63.588504 
L 206.945474 -61.50877 
L 205.331636 -60.006483 
L 203.717797 -58.956528 
L 202.103959 -57.998953 
L 200.490121 -56.952984 
L 198.876282 -55.888779 
L 197.262444 -54.883533 
L 195.648606 -53.890009 
L 194.034768 -52.829027 
L 192.420929 -51.745652 
L 190.807091 -50.83482 
L 189.193253 -50.249444 
L 187.579414 -49.909333 
L 185.965576 -49.600695 
L 184.351738 -49.229541 
L 182.7379 -48.866592 
L 181.124061 -48.593571 
L 179.510223 -48.4173 
L 177.896385 -48.302422 
L 176.282546 -48.213843 
L 174.668708 -48.135616 
L 173.05487 -48.072687 
L 171.441032 -48.033609 
L 169.827193 -48.015951 
L 168.213355 -48.010219 
z
" style="stroke: #348abd; stroke-width: 0.5"/>
    </defs>
    <g clip-path="url(#p00128b6e66)">
     <use xlink:href="#m4149d6216b" x="0" y="387.848625" style="fill: #348abd; fill-opacity: 0.25; stroke: #348abd; stroke-width: 0.5"/>
    </g>
   </g>
   <g id="patch_3">
    <path d="M 43.36675 339.84 
L 43.36675 7.2 
" style="fill: none; stroke: #ffffff; stroke-linejoin: miter; stroke-linecap: square"/>
   </g>
   <g id="patch_4">
    <path d="M 601.36675 339.84 
L 601.36675 7.2 
" style="fill: none; stroke: #ffffff; stroke-linejoin: miter; stroke-linecap: square"/>
   </g>
   <g id="patch_5">
    <path d="M 43.36675 339.84 
L 601.36675 339.84 
" style="fill: none; stroke: #ffffff; stroke-linejoin: miter; stroke-linecap: square"/>
   </g>
   <g id="patch_6">
    <path d="M 43.36675 7.2 
L 601.36675 7.2 
" style="fill: none; stroke: #ffffff; stroke-linejoin: miter; stroke-linecap: square"/>
   </g>
   <g id="legend_1">
    <g id="patch_7">
     <path d="M 494.656125 59.49875 
L 591.56675 59.49875 
Q 594.36675 59.49875 594.36675 56.69875 
L 594.36675 17 
Q 594.36675 14.2 591.56675 14.2 
L 494.656125 14.2 
Q 491.856125 14.2 491.856125 17 
L 491.856125 56.69875 
Q 491.856125 59.49875 494.656125 59.49875 
z
" style="fill: #e5e5e5; opacity: 0.8; stroke: #cccccc; stroke-width: 0.5; stroke-linejoin: miter"/>
    </g>
    <g id="patch_8">
     <path d="M 497.456125 30.437812 
L 525.456125 30.437812 
L 525.456125 20.637812 
L 497.456125 20.637812 
z
" style="fill: #e24a33; fill-opacity: 0.25; stroke: #e24a33; stroke-width: 0.5; stroke-linejoin: miter"/>
    </g>
    <g id="text_15">
     <!-- Treated -->
     <g transform="translate(536.656125 30.437812) scale(0.14 -0.14)">
      <defs>
       <path id="DejaVuSans-54" d="M -19 4666 
L 3928 4666 
L 3928 4134 
L 2272 4134 
L 2272 0 
L 1638 0 
L 1638 4134 
L -19 4134 
L -19 4666 
z
" transform="scale(0.015625)"/>
       <path id="DejaVuSans-61" d="M 2194 1759 
Q 1497 1759 1228 1600 
Q 959 1441 959 1056 
Q 959 750 1161 570 
Q 1363 391 1709 391 
Q 2188 391 2477 730 
Q 2766 1069 2766 1631 
L 2766 1759 
L 2194 1759 
z
M 3341 1997 
L 3341 0 
L 2766 0 
L 2766 531 
Q 2569 213 2275 61 
Q 1981 -91 1556 -91 
Q 1019 -91 701 211 
Q 384 513 384 1019 
Q 384 1609 779 1909 
Q 1175 2209 1959 2209 
L 2766 2209 
L 2766 2266 
Q 2766 2663 2505 2880 
Q 2244 3097 1772 3097 
Q 1472 3097 1187 3025 
Q 903 2953 641 2809 
L 641 3341 
Q 956 3463 1253 3523 
Q 1550 3584 1831 3584 
Q 2591 3584 2966 3190 
Q 3341 2797 3341 1997 
z
" transform="scale(0.015625)"/>
       <path id="DejaVuSans-64" d="M 2906 2969 
L 2906 4863 
L 3481 4863 
L 3481 0 
L 2906 0 
L 2906 525 
Q 2725 213 2448 61 
Q 2172 -91 1784 -91 
Q 1150 -91 751 415 
Q 353 922 353 1747 
Q 353 2572 751 3078 
Q 1150 3584 1784 3584 
Q 2172 3584 2448 3432 
Q 2725 3281 2906 2969 
z
M 947 1747 
Q 947 1113 1208 752 
Q 1469 391 1925 391 
Q 2381 391 2643 752 
Q 2906 1113 2906 1747 
Q 2906 2381 2643 2742 
Q 2381 3103 1925 3103 
Q 1469 3103 1208 2742 
Q 947 2381 947 1747 
z
" transform="scale(0.015625)"/>
      </defs>
      <use xlink:href="#DejaVuSans-54"/>
      <use xlink:href="#DejaVuSans-72" transform="translate(46.333984 0)"/>
      <use xlink:href="#DejaVuSans-65" transform="translate(85.197266 0)"/>
      <use xlink:href="#DejaVuSans-61" transform="translate(146.720703 0)"/>
      <use xlink:href="#DejaVuSans-74" transform="translate(208 0)"/>
      <use xlink:href="#DejaVuSans-65" transform="translate(247.208984 0)"/>
      <use xlink:href="#DejaVuSans-64" transform="translate(308.732422 0)"/>
     </g>
    </g>
    <g id="patch_9">
     <path d="M 497.456125 50.987187 
L 525.456125 50.987187 
L 525.456125 41.187187 
L 497.456125 41.187187 
z
" style="fill: #348abd; fill-opacity: 0.25; stroke: #348abd; stroke-width: 0.5; stroke-linejoin: miter"/>
    </g>
    <g id="text_16">
     <!-- Control -->
     <g transform="translate(536.656125 50.987187) scale(0.14 -0.14)">
      <defs>
       <path id="DejaVuSans-43" d="M 4122 4306 
L 4122 3641 
Q 3803 3938 3442 4084 
Q 3081 4231 2675 4231 
Q 1875 4231 1450 3742 
Q 1025 3253 1025 2328 
Q 1025 1406 1450 917 
Q 1875 428 2675 428 
Q 3081 428 3442 575 
Q 3803 722 4122 1019 
L 4122 359 
Q 3791 134 3420 21 
Q 3050 -91 2638 -91 
Q 1578 -91 968 557 
Q 359 1206 359 2328 
Q 359 3453 968 4101 
Q 1578 4750 2638 4750 
Q 3056 4750 3426 4639 
Q 3797 4528 4122 4306 
z
" transform="scale(0.015625)"/>
       <path id="DejaVuSans-6c" d="M 603 4863 
L 1178 4863 
L 1178 0 
L 603 0 
L 603 4863 
z
" transform="scale(0.015625)"/>
      </defs>
      <use xlink:href="#DejaVuSans-43"/>
      <use xlink:href="#DejaVuSans-6f" transform="translate(69.824219 0)"/>
      <use xlink:href="#DejaVuSans-6e" transform="translate(131.005859 0)"/>
      <use xlink:href="#DejaVuSans-74" transform="translate(194.384766 0)"/>
      <use xlink:href="#DejaVuSans-72" transform="translate(233.59375 0)"/>
      <use xlink:href="#DejaVuSans-6f" transform="translate(272.457031 0)"/>
      <use xlink:href="#DejaVuSans-6c" transform="translate(333.638672 0)"/>
     </g>
    </g>
   </g>
  </g>
 </g>
 <defs>
  <clipPath id="p00128b6e66">
   <rect x="43.36675" y="7.2" width="558" height="332.64"/>
  </clipPath>
 </defs>
</svg>
