<?xml version="1.0" encoding="utf-8" standalone="no"?>
<!DOCTYPE svg PUBLIC "-//W3C//DTD SVG 1.1//EN"
  "http://www.w3.org/Graphics/SVG/1.1/DTD/svg11.dtd">
<svg xmlns:xlink="http://www.w3.org/1999/xlink" width="619.698937pt" height="387.848625pt" viewBox="0 0 619.698937 387.848625" xmlns="http://www.w3.org/2000/svg" version="1.1">
 <metadata>
  <rdf:RDF xmlns:dc="http://purl.org/dc/elements/1.1/" xmlns:cc="http://creativecommons.org/ns#" xmlns:rdf="http://www.w3.org/1999/02/22-rdf-syntax-ns#">
   <cc:Work>
    <dc:type rdf:resource="http://purl.org/dc/dcmitype/StillImage"/>
    <dc:date>2025-08-28T09:53:43.338878</dc:date>
    <dc:format>image/svg+xml</dc:format>
    <dc:creator>
     <cc:Agent>
      <dc:title>Matplotlib v3.10.3, https://matplotlib.org/</dc:title>
     </cc:Agent>
    </dc:creator>
   </cc:Work>
  </rdf:RDF>
 </metadata>
 <defs>
  <style type="text/css">*{stroke-linejoin: round; stroke-linecap: butt}</style>
 </defs>
 <g id="figure_1">
  <g id="patch_1">
   <path d="M 0 387.848625 
L 619.698937 387.848625 
L 619.698937 0 
L 0 0 
z
" style="fill: #ffffff"/>
  </g>
  <g id="axes_1">
   <g id="patch_2">
    <path d="M 43.36675 339.84 
L 601.36675 339.84 
L 601.36675 7.2 
L 43.36675 7.2 
z
" style="fill: #e5e5e5"/>
   </g>
   <g id="matplotlib.axis_1">
    <g id="xtick_1">
     <g id="line2d_1">
      <path d="M 43.36675 339.84 
L 43.36675 7.2 
" clip-path="url(#p4e5f8adf6c)" style="fill: none; stroke: #ffffff; stroke-width: 0.8; stroke-linecap: square"/>
     </g>
     <g id="line2d_2">
      <defs>
       <path id="m8926455e79" d="M 0 0 
L 0 3.5 
" style="stroke: #555555; stroke-width: 0.8"/>
      </defs>
      <g>
       <use xlink:href="#m8926455e79" x="43.36675" y="339.84" style="fill: #555555; stroke: #555555; stroke-width: 0.8"/>
      </g>
     </g>
     <g id="text_1">
      <!-- 0.0 -->
      <g style="fill: #555555" transform="translate(32.234563 357.477812) scale(0.14 -0.14)">
       <defs>
        <path id="DejaVuSans-30" d="M 2034 4250 
Q 1547 4250 1301 3770 
Q 1056 3291 1056 2328 
Q 1056 1369 1301 889 
Q 1547 409 2034 409 
Q 2525 409 2770 889 
Q 3016 1369 3016 2328 
Q 3016 3291 2770 3770 
Q 2525 4250 2034 4250 
z
M 2034 4750 
Q 2819 4750 3233 4129 
Q 3647 3509 3647 2328 
Q 3647 1150 3233 529 
Q 2819 -91 2034 -91 
Q 1250 -91 836 529 
Q 422 1150 422 2328 
Q 422 3509 836 4129 
Q 1250 4750 2034 4750 
z
" transform="scale(0.015625)"/>
        <path id="DejaVuSans-2e" d="M 684 794 
L 1344 794 
L 1344 0 
L 684 0 
L 684 794 
z
" transform="scale(0.015625)"/>
       </defs>
       <use xlink:href="#DejaVuSans-30"/>
       <use xlink:href="#DejaVuSans-2e" transform="translate(63.623047 0)"/>
       <use xlink:href="#DejaVuSans-30" transform="translate(95.410156 0)"/>
      </g>
     </g>
    </g>
    <g id="xtick_2">
     <g id="line2d_3">
      <path d="M 154.96675 339.84 
L 154.96675 7.2 
" clip-path="url(#p4e5f8adf6c)" style="fill: none; stroke: #ffffff; stroke-width: 0.8; stroke-linecap: square"/>
     </g>
     <g id="line2d_4">
      <g>
       <use xlink:href="#m8926455e79" x="154.96675" y="339.84" style="fill: #555555; stroke: #555555; stroke-width: 0.8"/>
      </g>
     </g>
     <g id="text_2">
      <!-- 0.2 -->
      <g style="fill: #555555" transform="translate(143.834563 357.477812) scale(0.14 -0.14)">
       <defs>
        <path id="DejaVuSans-32" d="M 1228 531 
L 3431 531 
L 3431 0 
L 469 0 
L 469 531 
Q 828 903 1448 1529 
Q 2069 2156 2228 2338 
Q 2531 2678 2651 2914 
Q 2772 3150 2772 3378 
Q 2772 3750 2511 3984 
Q 2250 4219 1831 4219 
Q 1534 4219 1204 4116 
Q 875 4013 500 3803 
L 500 4441 
Q 881 4594 1212 4672 
Q 1544 4750 1819 4750 
Q 2544 4750 2975 4387 
Q 3406 4025 3406 3419 
Q 3406 3131 3298 2873 
Q 3191 2616 2906 2266 
Q 2828 2175 2409 1742 
Q 1991 1309 1228 531 
z
" transform="scale(0.015625)"/>
       </defs>
       <use xlink:href="#DejaVuSans-30"/>
       <use xlink:href="#DejaVuSans-2e" transform="translate(63.623047 0)"/>
       <use xlink:href="#DejaVuSans-32" transform="translate(95.410156 0)"/>
      </g>
     </g>
    </g>
    <g id="xtick_3">
     <g id="line2d_5">
      <path d="M 266.56675 339.84 
L 266.56675 7.2 
" clip-path="url(#p4e5f8adf6c)" style="fill: none; stroke: #ffffff; stroke-width: 0.8; stroke-linecap: square"/>
     </g>
     <g id="line2d_6">
      <g>
       <use xlink:href="#m8926455e79" x="266.56675" y="339.84" style="fill: #555555; stroke: #555555; stroke-width: 0.8"/>
      </g>
     </g>
     <g id="text_3">
      <!-- 0.4 -->
      <g style="fill: #555555" transform="translate(255.434563 357.477812) scale(0.14 -0.14)">
       <defs>
        <path id="DejaVuSans-34" d="M 2419 4116 
L 825 1625 
L 2419 1625 
L 2419 4116 
z
M 2253 4666 
L 3047 4666 
L 3047 1625 
L 3713 1625 
L 3713 1100 
L 3047 1100 
L 3047 0 
L 2419 0 
L 2419 1100 
L 313 1100 
L 313 1709 
L 2253 4666 
z
" transform="scale(0.015625)"/>
       </defs>
       <use xlink:href="#DejaVuSans-30"/>
       <use xlink:href="#DejaVuSans-2e" transform="translate(63.623047 0)"/>
       <use xlink:href="#DejaVuSans-34" transform="translate(95.410156 0)"/>
      </g>
     </g>
    </g>
    <g id="xtick_4">
     <g id="line2d_7">
      <path d="M 378.16675 339.84 
L 378.16675 7.2 
" clip-path="url(#p4e5f8adf6c)" style="fill: none; stroke: #ffffff; stroke-width: 0.8; stroke-linecap: square"/>
     </g>
     <g id="line2d_8">
      <g>
       <use xlink:href="#m8926455e79" x="378.16675" y="339.84" style="fill: #555555; stroke: #555555; stroke-width: 0.8"/>
      </g>
     </g>
     <g id="text_4">
      <!-- 0.6 -->
      <g style="fill: #555555" transform="translate(367.034563 357.477812) scale(0.14 -0.14)">
       <defs>
        <path id="DejaVuSans-36" d="M 2113 2584 
Q 1688 2584 1439 2293 
Q 1191 2003 1191 1497 
Q 1191 994 1439 701 
Q 1688 409 2113 409 
Q 2538 409 2786 701 
Q 3034 994 3034 1497 
Q 3034 2003 2786 2293 
Q 2538 2584 2113 2584 
z
M 3366 4563 
L 3366 3988 
Q 3128 4100 2886 4159 
Q 2644 4219 2406 4219 
Q 1781 4219 1451 3797 
Q 1122 3375 1075 2522 
Q 1259 2794 1537 2939 
Q 1816 3084 2150 3084 
Q 2853 3084 3261 2657 
Q 3669 2231 3669 1497 
Q 3669 778 3244 343 
Q 2819 -91 2113 -91 
Q 1303 -91 875 529 
Q 447 1150 447 2328 
Q 447 3434 972 4092 
Q 1497 4750 2381 4750 
Q 2619 4750 2861 4703 
Q 3103 4656 3366 4563 
z
" transform="scale(0.015625)"/>
       </defs>
       <use xlink:href="#DejaVuSans-30"/>
       <use xlink:href="#DejaVuSans-2e" transform="translate(63.623047 0)"/>
       <use xlink:href="#DejaVuSans-36" transform="translate(95.410156 0)"/>
      </g>
     </g>
    </g>
    <g id="xtick_5">
     <g id="line2d_9">
      <path d="M 489.76675 339.84 
L 489.76675 7.2 
" clip-path="url(#p4e5f8adf6c)" style="fill: none; stroke: #ffffff; stroke-width: 0.8; stroke-linecap: square"/>
     </g>
     <g id="line2d_10">
      <g>
       <use xlink:href="#m8926455e79" x="489.76675" y="339.84" style="fill: #555555; stroke: #555555; stroke-width: 0.8"/>
      </g>
     </g>
     <g id="text_5">
      <!-- 0.8 -->
      <g style="fill: #555555" transform="translate(478.634563 357.477812) scale(0.14 -0.14)">
       <defs>
        <path id="DejaVuSans-38" d="M 2034 2216 
Q 1584 2216 1326 1975 
Q 1069 1734 1069 1313 
Q 1069 891 1326 650 
Q 1584 409 2034 409 
Q 2484 409 2743 651 
Q 3003 894 3003 1313 
Q 3003 1734 2745 1975 
Q 2488 2216 2034 2216 
z
M 1403 2484 
Q 997 2584 770 2862 
Q 544 3141 544 3541 
Q 544 4100 942 4425 
Q 1341 4750 2034 4750 
Q 2731 4750 3128 4425 
Q 3525 4100 3525 3541 
Q 3525 3141 3298 2862 
Q 3072 2584 2669 2484 
Q 3125 2378 3379 2068 
Q 3634 1759 3634 1313 
Q 3634 634 3220 271 
Q 2806 -91 2034 -91 
Q 1263 -91 848 271 
Q 434 634 434 1313 
Q 434 1759 690 2068 
Q 947 2378 1403 2484 
z
M 1172 3481 
Q 1172 3119 1398 2916 
Q 1625 2713 2034 2713 
Q 2441 2713 2670 2916 
Q 2900 3119 2900 3481 
Q 2900 3844 2670 4047 
Q 2441 4250 2034 4250 
Q 1625 4250 1398 4047 
Q 1172 3844 1172 3481 
z
" transform="scale(0.015625)"/>
       </defs>
       <use xlink:href="#DejaVuSans-30"/>
       <use xlink:href="#DejaVuSans-2e" transform="translate(63.623047 0)"/>
       <use xlink:href="#DejaVuSans-38" transform="translate(95.410156 0)"/>
      </g>
     </g>
    </g>
    <g id="xtick_6">
     <g id="line2d_11">
      <path d="M 601.36675 339.84 
L 601.36675 7.2 
" clip-path="url(#p4e5f8adf6c)" style="fill: none; stroke: #ffffff; stroke-width: 0.8; stroke-linecap: square"/>
     </g>
     <g id="line2d_12">
      <g>
       <use xlink:href="#m8926455e79" x="601.36675" y="339.84" style="fill: #555555; stroke: #555555; stroke-width: 0.8"/>
      </g>
     </g>
     <g id="text_6">
      <!-- 1.0 -->
      <g style="fill: #555555" transform="translate(590.234563 357.477812) scale(0.14 -0.14)">
       <defs>
        <path id="DejaVuSans-31" d="M 794 531 
L 1825 531 
L 1825 4091 
L 703 3866 
L 703 4441 
L 1819 4666 
L 2450 4666 
L 2450 531 
L 3481 531 
L 3481 0 
L 794 0 
L 794 531 
z
" transform="scale(0.015625)"/>
       </defs>
       <use xlink:href="#DejaVuSans-31"/>
       <use xlink:href="#DejaVuSans-2e" transform="translate(63.623047 0)"/>
       <use xlink:href="#DejaVuSans-30" transform="translate(95.410156 0)"/>
      </g>
     </g>
    </g>
    <g id="text_7">
     <!-- Propensity Score -->
     <g style="fill: #555555" transform="translate(252.052188 377.15475) scale(0.168 -0.168)">
      <defs>
       <path id="DejaVuSans-50" d="M 1259 4147 
L 1259 2394 
L 2053 2394 
Q 2494 2394 2734 2622 
Q 2975 2850 2975 3272 
Q 2975 3691 2734 3919 
Q 2494 4147 2053 4147 
L 1259 4147 
z
M 628 4666 
L 2053 4666 
Q 2838 4666 3239 4311 
Q 3641 3956 3641 3272 
Q 3641 2581 3239 2228 
Q 2838 1875 2053 1875 
L 1259 1875 
L 1259 0 
L 628 0 
L 628 4666 
z
" transform="scale(0.015625)"/>
       <path id="DejaVuSans-72" d="M 2631 2963 
Q 2534 3019 2420 3045 
Q 2306 3072 2169 3072 
Q 1681 3072 1420 2755 
Q 1159 2438 1159 1844 
L 1159 0 
L 581 0 
L 581 3500 
L 1159 3500 
L 1159 2956 
Q 1341 3275 1631 3429 
Q 1922 3584 2338 3584 
Q 2397 3584 2469 3576 
Q 2541 3569 2628 3553 
L 2631 2963 
z
" transform="scale(0.015625)"/>
       <path id="DejaVuSans-6f" d="M 1959 3097 
Q 1497 3097 1228 2736 
Q 959 2375 959 1747 
Q 959 1119 1226 758 
Q 1494 397 1959 397 
Q 2419 397 2687 759 
Q 2956 1122 2956 1747 
Q 2956 2369 2687 2733 
Q 2419 3097 1959 3097 
z
M 1959 3584 
Q 2709 3584 3137 3096 
Q 3566 2609 3566 1747 
Q 3566 888 3137 398 
Q 2709 -91 1959 -91 
Q 1206 -91 779 398 
Q 353 888 353 1747 
Q 353 2609 779 3096 
Q 1206 3584 1959 3584 
z
" transform="scale(0.015625)"/>
       <path id="DejaVuSans-70" d="M 1159 525 
L 1159 -1331 
L 581 -1331 
L 581 3500 
L 1159 3500 
L 1159 2969 
Q 1341 3281 1617 3432 
Q 1894 3584 2278 3584 
Q 2916 3584 3314 3078 
Q 3713 2572 3713 1747 
Q 3713 922 3314 415 
Q 2916 -91 2278 -91 
Q 1894 -91 1617 61 
Q 1341 213 1159 525 
z
M 3116 1747 
Q 3116 2381 2855 2742 
Q 2594 3103 2138 3103 
Q 1681 3103 1420 2742 
Q 1159 2381 1159 1747 
Q 1159 1113 1420 752 
Q 1681 391 2138 391 
Q 2594 391 2855 752 
Q 3116 1113 3116 1747 
z
" transform="scale(0.015625)"/>
       <path id="DejaVuSans-65" d="M 3597 1894 
L 3597 1613 
L 953 1613 
Q 991 1019 1311 708 
Q 1631 397 2203 397 
Q 2534 397 2845 478 
Q 3156 559 3463 722 
L 3463 178 
Q 3153 47 2828 -22 
Q 2503 -91 2169 -91 
Q 1331 -91 842 396 
Q 353 884 353 1716 
Q 353 2575 817 3079 
Q 1281 3584 2069 3584 
Q 2775 3584 3186 3129 
Q 3597 2675 3597 1894 
z
M 3022 2063 
Q 3016 2534 2758 2815 
Q 2500 3097 2075 3097 
Q 1594 3097 1305 2825 
Q 1016 2553 972 2059 
L 3022 2063 
z
" transform="scale(0.015625)"/>
       <path id="DejaVuSans-6e" d="M 3513 2113 
L 3513 0 
L 2938 0 
L 2938 2094 
Q 2938 2591 2744 2837 
Q 2550 3084 2163 3084 
Q 1697 3084 1428 2787 
Q 1159 2491 1159 1978 
L 1159 0 
L 581 0 
L 581 3500 
L 1159 3500 
L 1159 2956 
Q 1366 3272 1645 3428 
Q 1925 3584 2291 3584 
Q 2894 3584 3203 3211 
Q 3513 2838 3513 2113 
z
" transform="scale(0.015625)"/>
       <path id="DejaVuSans-73" d="M 2834 3397 
L 2834 2853 
Q 2591 2978 2328 3040 
Q 2066 3103 1784 3103 
Q 1356 3103 1142 2972 
Q 928 2841 928 2578 
Q 928 2378 1081 2264 
Q 1234 2150 1697 2047 
L 1894 2003 
Q 2506 1872 2764 1633 
Q 3022 1394 3022 966 
Q 3022 478 2636 193 
Q 2250 -91 1575 -91 
Q 1294 -91 989 -36 
Q 684 19 347 128 
L 347 722 
Q 666 556 975 473 
Q 1284 391 1588 391 
Q 1994 391 2212 530 
Q 2431 669 2431 922 
Q 2431 1156 2273 1281 
Q 2116 1406 1581 1522 
L 1381 1569 
Q 847 1681 609 1914 
Q 372 2147 372 2553 
Q 372 3047 722 3315 
Q 1072 3584 1716 3584 
Q 2034 3584 2315 3537 
Q 2597 3491 2834 3397 
z
" transform="scale(0.015625)"/>
       <path id="DejaVuSans-69" d="M 603 3500 
L 1178 3500 
L 1178 0 
L 603 0 
L 603 3500 
z
M 603 4863 
L 1178 4863 
L 1178 4134 
L 603 4134 
L 603 4863 
z
" transform="scale(0.015625)"/>
       <path id="DejaVuSans-74" d="M 1172 4494 
L 1172 3500 
L 2356 3500 
L 2356 3053 
L 1172 3053 
L 1172 1153 
Q 1172 725 1289 603 
Q 1406 481 1766 481 
L 2356 481 
L 2356 0 
L 1766 0 
Q 1100 0 847 248 
Q 594 497 594 1153 
L 594 3053 
L 172 3053 
L 172 3500 
L 594 3500 
L 594 4494 
L 1172 4494 
z
" transform="scale(0.015625)"/>
       <path id="DejaVuSans-79" d="M 2059 -325 
Q 1816 -950 1584 -1140 
Q 1353 -1331 966 -1331 
L 506 -1331 
L 506 -850 
L 844 -850 
Q 1081 -850 1212 -737 
Q 1344 -625 1503 -206 
L 1606 56 
L 191 3500 
L 800 3500 
L 1894 763 
L 2988 3500 
L 3597 3500 
L 2059 -325 
z
" transform="scale(0.015625)"/>
       <path id="DejaVuSans-20" transform="scale(0.015625)"/>
       <path id="DejaVuSans-53" d="M 3425 4513 
L 3425 3897 
Q 3066 4069 2747 4153 
Q 2428 4238 2131 4238 
Q 1616 4238 1336 4038 
Q 1056 3838 1056 3469 
Q 1056 3159 1242 3001 
Q 1428 2844 1947 2747 
L 2328 2669 
Q 3034 2534 3370 2195 
Q 3706 1856 3706 1288 
Q 3706 609 3251 259 
Q 2797 -91 1919 -91 
Q 1588 -91 1214 -16 
Q 841 59 441 206 
L 441 856 
Q 825 641 1194 531 
Q 1563 422 1919 422 
Q 2459 422 2753 634 
Q 3047 847 3047 1241 
Q 3047 1584 2836 1778 
Q 2625 1972 2144 2069 
L 1759 2144 
Q 1053 2284 737 2584 
Q 422 2884 422 3419 
Q 422 4038 858 4394 
Q 1294 4750 2059 4750 
Q 2388 4750 2728 4690 
Q 3069 4631 3425 4513 
z
" transform="scale(0.015625)"/>
       <path id="DejaVuSans-63" d="M 3122 3366 
L 3122 2828 
Q 2878 2963 2633 3030 
Q 2388 3097 2138 3097 
Q 1578 3097 1268 2742 
Q 959 2388 959 1747 
Q 959 1106 1268 751 
Q 1578 397 2138 397 
Q 2388 397 2633 464 
Q 2878 531 3122 666 
L 3122 134 
Q 2881 22 2623 -34 
Q 2366 -91 2075 -91 
Q 1284 -91 818 406 
Q 353 903 353 1747 
Q 353 2603 823 3093 
Q 1294 3584 2113 3584 
Q 2378 3584 2631 3529 
Q 2884 3475 3122 3366 
z
" transform="scale(0.015625)"/>
      </defs>
      <use xlink:href="#DejaVuSans-50"/>
      <use xlink:href="#DejaVuSans-72" transform="translate(58.552734 0)"/>
      <use xlink:href="#DejaVuSans-6f" transform="translate(97.416016 0)"/>
      <use xlink:href="#DejaVuSans-70" transform="translate(158.597656 0)"/>
      <use xlink:href="#DejaVuSans-65" transform="translate(222.074219 0)"/>
      <use xlink:href="#DejaVuSans-6e" transform="translate(283.597656 0)"/>
      <use xlink:href="#DejaVuSans-73" transform="translate(346.976562 0)"/>
      <use xlink:href="#DejaVuSans-69" transform="translate(399.076172 0)"/>
      <use xlink:href="#DejaVuSans-74" transform="translate(426.859375 0)"/>
      <use xlink:href="#DejaVuSans-79" transform="translate(466.068359 0)"/>
      <use xlink:href="#DejaVuSans-20" transform="translate(525.248047 0)"/>
      <use xlink:href="#DejaVuSans-53" transform="translate(557.035156 0)"/>
      <use xlink:href="#DejaVuSans-63" transform="translate(620.511719 0)"/>
      <use xlink:href="#DejaVuSans-6f" transform="translate(675.492188 0)"/>
      <use xlink:href="#DejaVuSans-72" transform="translate(736.673828 0)"/>
      <use xlink:href="#DejaVuSans-65" transform="translate(775.537109 0)"/>
     </g>
    </g>
   </g>
   <g id="matplotlib.axis_2">
    <g id="ytick_1">
     <g id="line2d_13">
      <path d="M 43.36675 339.84 
L 601.36675 339.84 
" clip-path="url(#p4e5f8adf6c)" style="fill: none; stroke: #ffffff; stroke-width: 0.8; stroke-linecap: square"/>
     </g>
     <g id="line2d_14">
      <defs>
       <path id="m58f7d90658" d="M 0 0 
L -3.5 0 
" style="stroke: #555555; stroke-width: 0.8"/>
      </defs>
      <g>
       <use xlink:href="#m58f7d90658" x="43.36675" y="339.84" style="fill: #555555; stroke: #555555; stroke-width: 0.8"/>
      </g>
     </g>
     <g id="text_8">
      <!-- 0 -->
      <g style="fill: #555555" transform="translate(27.45925 345.158906) scale(0.14 -0.14)">
       <use xlink:href="#DejaVuSans-30"/>
      </g>
     </g>
    </g>
    <g id="ytick_2">
     <g id="line2d_15">
      <path d="M 43.36675 283.090042 
L 601.36675 283.090042 
" clip-path="url(#p4e5f8adf6c)" style="fill: none; stroke: #ffffff; stroke-width: 0.8; stroke-linecap: square"/>
     </g>
     <g id="line2d_16">
      <g>
       <use xlink:href="#m58f7d90658" x="43.36675" y="283.090042" style="fill: #555555; stroke: #555555; stroke-width: 0.8"/>
      </g>
     </g>
     <g id="text_9">
      <!-- 1 -->
      <g style="fill: #555555" transform="translate(27.45925 288.408948) scale(0.14 -0.14)">
       <use xlink:href="#DejaVuSans-31"/>
      </g>
     </g>
    </g>
    <g id="ytick_3">
     <g id="line2d_17">
      <path d="M 43.36675 226.340083 
L 601.36675 226.340083 
" clip-path="url(#p4e5f8adf6c)" style="fill: none; stroke: #ffffff; stroke-width: 0.8; stroke-linecap: square"/>
     </g>
     <g id="line2d_18">
      <g>
       <use xlink:href="#m58f7d90658" x="43.36675" y="226.340083" style="fill: #555555; stroke: #555555; stroke-width: 0.8"/>
      </g>
     </g>
     <g id="text_10">
      <!-- 2 -->
      <g style="fill: #555555" transform="translate(27.45925 231.65899) scale(0.14 -0.14)">
       <use xlink:href="#DejaVuSans-32"/>
      </g>
     </g>
    </g>
    <g id="ytick_4">
     <g id="line2d_19">
      <path d="M 43.36675 169.590125 
L 601.36675 169.590125 
" clip-path="url(#p4e5f8adf6c)" style="fill: none; stroke: #ffffff; stroke-width: 0.8; stroke-linecap: square"/>
     </g>
     <g id="line2d_20">
      <g>
       <use xlink:href="#m58f7d90658" x="43.36675" y="169.590125" style="fill: #555555; stroke: #555555; stroke-width: 0.8"/>
      </g>
     </g>
     <g id="text_11">
      <!-- 3 -->
      <g style="fill: #555555" transform="translate(27.45925 174.909031) scale(0.14 -0.14)">
       <defs>
        <path id="DejaVuSans-33" d="M 2597 2516 
Q 3050 2419 3304 2112 
Q 3559 1806 3559 1356 
Q 3559 666 3084 287 
Q 2609 -91 1734 -91 
Q 1441 -91 1130 -33 
Q 819 25 488 141 
L 488 750 
Q 750 597 1062 519 
Q 1375 441 1716 441 
Q 2309 441 2620 675 
Q 2931 909 2931 1356 
Q 2931 1769 2642 2001 
Q 2353 2234 1838 2234 
L 1294 2234 
L 1294 2753 
L 1863 2753 
Q 2328 2753 2575 2939 
Q 2822 3125 2822 3475 
Q 2822 3834 2567 4026 
Q 2313 4219 1838 4219 
Q 1578 4219 1281 4162 
Q 984 4106 628 3988 
L 628 4550 
Q 988 4650 1302 4700 
Q 1616 4750 1894 4750 
Q 2613 4750 3031 4423 
Q 3450 4097 3450 3541 
Q 3450 3153 3228 2886 
Q 3006 2619 2597 2516 
z
" transform="scale(0.015625)"/>
       </defs>
       <use xlink:href="#DejaVuSans-33"/>
      </g>
     </g>
    </g>
    <g id="ytick_5">
     <g id="line2d_21">
      <path d="M 43.36675 112.840167 
L 601.36675 112.840167 
" clip-path="url(#p4e5f8adf6c)" style="fill: none; stroke: #ffffff; stroke-width: 0.8; stroke-linecap: square"/>
     </g>
     <g id="line2d_22">
      <g>
       <use xlink:href="#m58f7d90658" x="43.36675" y="112.840167" style="fill: #555555; stroke: #555555; stroke-width: 0.8"/>
      </g>
     </g>
     <g id="text_12">
      <!-- 4 -->
      <g style="fill: #555555" transform="translate(27.45925 118.159073) scale(0.14 -0.14)">
       <use xlink:href="#DejaVuSans-34"/>
      </g>
     </g>
    </g>
    <g id="ytick_6">
     <g id="line2d_23">
      <path d="M 43.36675 56.090208 
L 601.36675 56.090208 
" clip-path="url(#p4e5f8adf6c)" style="fill: none; stroke: #ffffff; stroke-width: 0.8; stroke-linecap: square"/>
     </g>
     <g id="line2d_24">
      <g>
       <use xlink:href="#m58f7d90658" x="43.36675" y="56.090208" style="fill: #555555; stroke: #555555; stroke-width: 0.8"/>
      </g>
     </g>
     <g id="text_13">
      <!-- 5 -->
      <g style="fill: #555555" transform="translate(27.45925 61.409115) scale(0.14 -0.14)">
       <defs>
        <path id="DejaVuSans-35" d="M 691 4666 
L 3169 4666 
L 3169 4134 
L 1269 4134 
L 1269 2991 
Q 1406 3038 1543 3061 
Q 1681 3084 1819 3084 
Q 2600 3084 3056 2656 
Q 3513 2228 3513 1497 
Q 3513 744 3044 326 
Q 2575 -91 1722 -91 
Q 1428 -91 1123 -41 
Q 819 9 494 109 
L 494 744 
Q 775 591 1075 516 
Q 1375 441 1709 441 
Q 2250 441 2565 725 
Q 2881 1009 2881 1497 
Q 2881 1984 2565 2268 
Q 2250 2553 1709 2553 
Q 1456 2553 1204 2497 
Q 953 2441 691 2322 
L 691 4666 
z
" transform="scale(0.015625)"/>
       </defs>
       <use xlink:href="#DejaVuSans-35"/>
      </g>
     </g>
    </g>
    <g id="text_14">
     <!-- Density -->
     <g style="fill: #555555" transform="translate(19.965375 205.454437) rotate(-90) scale(0.168 -0.168)">
      <defs>
       <path id="DejaVuSans-44" d="M 1259 4147 
L 1259 519 
L 2022 519 
Q 2988 519 3436 956 
Q 3884 1394 3884 2338 
Q 3884 3275 3436 3711 
Q 2988 4147 2022 4147 
L 1259 4147 
z
M 628 4666 
L 1925 4666 
Q 3281 4666 3915 4102 
Q 4550 3538 4550 2338 
Q 4550 1131 3912 565 
Q 3275 0 1925 0 
L 628 0 
L 628 4666 
z
" transform="scale(0.015625)"/>
      </defs>
      <use xlink:href="#DejaVuSans-44"/>
      <use xlink:href="#DejaVuSans-65" transform="translate(77.001953 0)"/>
      <use xlink:href="#DejaVuSans-6e" transform="translate(138.525391 0)"/>
      <use xlink:href="#DejaVuSans-73" transform="translate(201.904297 0)"/>
      <use xlink:href="#DejaVuSans-69" transform="translate(254.003906 0)"/>
      <use xlink:href="#DejaVuSans-74" transform="translate(281.787109 0)"/>
      <use xlink:href="#DejaVuSans-79" transform="translate(320.996094 0)"/>
     </g>
    </g>
   </g>
   <g id="FillBetweenPolyCollection_1">
    <defs>
     <path id="m1a0278ad2a" d="M 180.29184 -48.017121 
L 180.29184 -48.008625 
L 181.854153 -48.008625 
L 183.416467 -48.008625 
L 184.97878 -48.008625 
L 186.541093 -48.008625 
L 188.103406 -48.008625 
L 189.665719 -48.008625 
L 191.228032 -48.008625 
L 192.790345 -48.008625 
L 194.352658 -48.008625 
L 195.914972 -48.008625 
L 197.477285 -48.008625 
L 199.039598 -48.008625 
L 200.601911 -48.008625 
L 202.164224 -48.008625 
L 203.726537 -48.008625 
L 205.28885 -48.008625 
L 206.851164 -48.008625 
L 208.413477 -48.008625 
L 209.97579 -48.008625 
L 211.538103 -48.008625 
L 213.100416 -48.008625 
L 214.662729 -48.008625 
L 216.225042 -48.008625 
L 217.787355 -48.008625 
L 219.349669 -48.008625 
L 220.911982 -48.008625 
L 222.474295 -48.008625 
L 224.036608 -48.008625 
L 225.598921 -48.008625 
L 227.161234 -48.008625 
L 228.723547 -48.008625 
L 230.285861 -48.008625 
L 231.848174 -48.008625 
L 233.410487 -48.008625 
L 234.9728 -48.008625 
L 236.535113 -48.008625 
L 238.097426 -48.008625 
L 239.659739 -48.008625 
L 241.222052 -48.008625 
L 242.784366 -48.008625 
L 244.346679 -48.008625 
L 245.908992 -48.008625 
L 247.471305 -48.008625 
L 249.033618 -48.008625 
L 250.595931 -48.008625 
L 252.158244 -48.008625 
L 253.720558 -48.008625 
L 255.282871 -48.008625 
L 256.845184 -48.008625 
L 258.407497 -48.008625 
L 259.96981 -48.008625 
L 261.532123 -48.008625 
L 263.094436 -48.008625 
L 264.656749 -48.008625 
L 266.219063 -48.008625 
L 267.781376 -48.008625 
L 269.343689 -48.008625 
L 270.906002 -48.008625 
L 272.468315 -48.008625 
L 274.030628 -48.008625 
L 275.592941 -48.008625 
L 277.155255 -48.008625 
L 278.717568 -48.008625 
L 280.279881 -48.008625 
L 281.842194 -48.008625 
L 283.404507 -48.008625 
L 284.96682 -48.008625 
L 286.529133 -48.008625 
L 288.091447 -48.008625 
L 289.65376 -48.008625 
L 291.216073 -48.008625 
L 292.778386 -48.008625 
L 294.340699 -48.008625 
L 295.903012 -48.008625 
L 297.465325 -48.008625 
L 299.027638 -48.008625 
L 300.589952 -48.008625 
L 302.152265 -48.008625 
L 303.714578 -48.008625 
L 305.276891 -48.008625 
L 306.839204 -48.008625 
L 308.401517 -48.008625 
L 309.96383 -48.008625 
L 311.526144 -48.008625 
L 313.088457 -48.008625 
L 314.65077 -48.008625 
L 316.213083 -48.008625 
L 317.775396 -48.008625 
L 319.337709 -48.008625 
L 320.900022 -48.008625 
L 322.462335 -48.008625 
L 324.024649 -48.008625 
L 325.586962 -48.008625 
L 327.149275 -48.008625 
L 328.711588 -48.008625 
L 330.273901 -48.008625 
L 331.836214 -48.008625 
L 333.398527 -48.008625 
L 334.960841 -48.008625 
L 336.523154 -48.008625 
L 338.085467 -48.008625 
L 339.64778 -48.008625 
L 341.210093 -48.008625 
L 342.772406 -48.008625 
L 344.334719 -48.008625 
L 345.897032 -48.008625 
L 347.459346 -48.008625 
L 349.021659 -48.008625 
L 350.583972 -48.008625 
L 352.146285 -48.008625 
L 353.708598 -48.008625 
L 355.270911 -48.008625 
L 356.833224 -48.008625 
L 358.395538 -48.008625 
L 359.957851 -48.008625 
L 361.520164 -48.008625 
L 363.082477 -48.008625 
L 364.64479 -48.008625 
L 366.207103 -48.008625 
L 367.769416 -48.008625 
L 369.33173 -48.008625 
L 370.894043 -48.008625 
L 372.456356 -48.008625 
L 374.018669 -48.008625 
L 375.580982 -48.008625 
L 377.143295 -48.008625 
L 378.705608 -48.008625 
L 380.267921 -48.008625 
L 381.830235 -48.008625 
L 383.392548 -48.008625 
L 384.954861 -48.008625 
L 386.517174 -48.008625 
L 388.079487 -48.008625 
L 389.6418 -48.008625 
L 391.204113 -48.008625 
L 392.766427 -48.008625 
L 394.32874 -48.008625 
L 395.891053 -48.008625 
L 397.453366 -48.008625 
L 399.015679 -48.008625 
L 400.577992 -48.008625 
L 402.140305 -48.008625 
L 403.702618 -48.008625 
L 405.264932 -48.008625 
L 406.827245 -48.008625 
L 408.389558 -48.008625 
L 409.951871 -48.008625 
L 411.514184 -48.008625 
L 413.076497 -48.008625 
L 414.63881 -48.008625 
L 416.201124 -48.008625 
L 417.763437 -48.008625 
L 419.32575 -48.008625 
L 420.888063 -48.008625 
L 422.450376 -48.008625 
L 424.012689 -48.008625 
L 425.575002 -48.008625 
L 427.137315 -48.008625 
L 428.699629 -48.008625 
L 430.261942 -48.008625 
L 431.824255 -48.008625 
L 433.386568 -48.008625 
L 434.948881 -48.008625 
L 436.511194 -48.008625 
L 438.073507 -48.008625 
L 439.635821 -48.008625 
L 441.198134 -48.008625 
L 442.760447 -48.008625 
L 444.32276 -48.008625 
L 445.885073 -48.008625 
L 447.447386 -48.008625 
L 449.009699 -48.008625 
L 450.572012 -48.008625 
L 452.134326 -48.008625 
L 453.696639 -48.008625 
L 455.258952 -48.008625 
L 456.821265 -48.008625 
L 458.383578 -48.008625 
L 459.945891 -48.008625 
L 461.508204 -48.008625 
L 463.070518 -48.008625 
L 464.632831 -48.008625 
L 466.195144 -48.008625 
L 467.757457 -48.008625 
L 469.31977 -48.008625 
L 470.882083 -48.008625 
L 472.444396 -48.008625 
L 474.00671 -48.008625 
L 475.569023 -48.008625 
L 477.131336 -48.008625 
L 478.693649 -48.008625 
L 480.255962 -48.008625 
L 481.818275 -48.008625 
L 483.380588 -48.008625 
L 484.942901 -48.008625 
L 486.505215 -48.008625 
L 488.067528 -48.008625 
L 489.629841 -48.008625 
L 491.192154 -48.008625 
L 491.192154 -48.01242 
L 491.192154 -48.01242 
L 489.629841 -48.021805 
L 488.067528 -48.046517 
L 486.505215 -48.099228 
L 484.942901 -48.190047 
L 483.380588 -48.316066 
L 481.818275 -48.456647 
L 480.255962 -48.584141 
L 478.693649 -48.686295 
L 477.131336 -48.783537 
L 475.569023 -48.92509 
L 474.00671 -49.160156 
L 472.444396 -49.499935 
L 470.882083 -49.903406 
L 469.31977 -50.305744 
L 467.757457 -50.660556 
L 466.195144 -50.950629 
L 464.632831 -51.176075 
L 463.070518 -51.366928 
L 461.508204 -51.605566 
L 459.945891 -51.983905 
L 458.383578 -52.503132 
L 456.821265 -53.050552 
L 455.258952 -53.527941 
L 453.696639 -53.992224 
L 452.134326 -54.616146 
L 450.572012 -55.498841 
L 449.009699 -56.554665 
L 447.447386 -57.607244 
L 445.885073 -58.562113 
L 444.32276 -59.463774 
L 442.760447 -60.413926 
L 441.198134 -61.470891 
L 439.635821 -62.616163 
L 438.073507 -63.806551 
L 436.511194 -65.091319 
L 434.948881 -66.664126 
L 433.386568 -68.695578 
L 431.824255 -71.065476 
L 430.261942 -73.344145 
L 428.699629 -75.114499 
L 427.137315 -76.302141 
L 425.575002 -77.206053 
L 424.012689 -78.290261 
L 422.450376 -79.960647 
L 420.888063 -82.428577 
L 419.32575 -85.672747 
L 417.763437 -89.536626 
L 416.201124 -93.930711 
L 414.63881 -98.927235 
L 413.076497 -104.565851 
L 411.514184 -110.546542 
L 409.951871 -116.219178 
L 408.389558 -120.992931 
L 406.827245 -124.794984 
L 405.264932 -128.118617 
L 403.702618 -131.606197 
L 402.140305 -135.542358 
L 400.577992 -139.700723 
L 399.015679 -143.699054 
L 397.453366 -147.567682 
L 395.891053 -151.964437 
L 394.32874 -157.760732 
L 392.766427 -165.390053 
L 391.204113 -174.575566 
L 389.6418 -184.566538 
L 388.079487 -194.55161 
L 386.517174 -203.949161 
L 384.954861 -212.425958 
L 383.392548 -219.631392 
L 381.830235 -224.95869 
L 380.267921 -227.727707 
L 378.705608 -227.674763 
L 377.143295 -225.278417 
L 375.580982 -221.752125 
L 374.018669 -218.781298 
L 372.456356 -217.945658 
L 370.894043 -219.949399 
L 369.33173 -224.270911 
L 367.769416 -229.663787 
L 366.207103 -235.05667 
L 364.64479 -240.002224 
L 363.082477 -244.437635 
L 361.520164 -248.263072 
L 359.957851 -251.264026 
L 358.395538 -253.403563 
L 356.833224 -255.113141 
L 355.270911 -257.193333 
L 353.708598 -260.282193 
L 352.146285 -264.318535 
L 350.583972 -268.538005 
L 349.021659 -272.055145 
L 347.459346 -274.515681 
L 345.897032 -276.350121 
L 344.334719 -278.628992 
L 342.772406 -282.635574 
L 341.210093 -289.12698 
L 339.64778 -297.587875 
L 338.085467 -306.234108 
L 336.523154 -313.03009 
L 334.960841 -316.908309 
L 333.398527 -318.145206 
L 331.836214 -317.68979 
L 330.273901 -316.147106 
L 328.711588 -313.350716 
L 327.149275 -308.923071 
L 325.586962 -303.253883 
L 324.024649 -297.786414 
L 322.462335 -294.14878 
L 320.900022 -292.967212 
L 319.337709 -293.60763 
L 317.775396 -295.020249 
L 316.213083 -296.606279 
L 314.65077 -298.166442 
L 313.088457 -299.347536 
L 311.526144 -299.739902 
L 309.96383 -299.738469 
L 308.401517 -300.860758 
L 306.839204 -304.650658 
L 305.276891 -311.137325 
L 303.714578 -318.40098 
L 302.152265 -323.445922 
L 300.589952 -323.486778 
L 299.027638 -317.112201 
L 297.465325 -305.157771 
L 295.903012 -290.665623 
L 294.340699 -277.461009 
L 292.778386 -268.194765 
L 291.216073 -263.348548 
L 289.65376 -261.642314 
L 288.091447 -261.037307 
L 286.529133 -259.545101 
L 284.96682 -255.767259 
L 283.404507 -249.290778 
L 281.842194 -240.709762 
L 280.279881 -231.054164 
L 278.717568 -221.044127 
L 277.155255 -210.879886 
L 275.592941 -200.62325 
L 274.030628 -190.552077 
L 272.468315 -181.099851 
L 270.906002 -172.57576 
L 269.343689 -164.955164 
L 267.781376 -157.8451 
L 266.219063 -150.67553 
L 264.656749 -143.0573 
L 263.094436 -135.054237 
L 261.532123 -127.180446 
L 259.96981 -120.166652 
L 258.407497 -114.607265 
L 256.845184 -110.618734 
L 255.282871 -107.736257 
L 253.720558 -105.170626 
L 252.158244 -102.231742 
L 250.595931 -98.629062 
L 249.033618 -94.538701 
L 247.471305 -90.451032 
L 245.908992 -86.867333 
L 244.346679 -84.039186 
L 242.784366 -81.945146 
L 241.222052 -80.453291 
L 239.659739 -79.455555 
L 238.097426 -78.890996 
L 236.535113 -78.710364 
L 234.9728 -78.791053 
L 233.410487 -78.83677 
L 231.848174 -78.4223 
L 230.285861 -77.235296 
L 228.723547 -75.280256 
L 227.161234 -72.818965 
L 225.598921 -70.150475 
L 224.036608 -67.488078 
L 222.474295 -64.9873 
L 220.911982 -62.774923 
L 219.349669 -60.903134 
L 217.787355 -59.325319 
L 216.225042 -57.966439 
L 214.662729 -56.795874 
L 213.100416 -55.797002 
L 211.538103 -54.89526 
L 209.97579 -53.973664 
L 208.413477 -52.971177 
L 206.851164 -51.948971 
L 205.28885 -51.062248 
L 203.726537 -50.47309 
L 202.164224 -50.265145 
L 200.601911 -50.397803 
L 199.039598 -50.716482 
L 197.477285 -51.01628 
L 195.914972 -51.127828 
L 194.352658 -50.976155 
L 192.790345 -50.584033 
L 191.228032 -50.036697 
L 189.665719 -49.443282 
L 188.103406 -48.907146 
L 186.541093 -48.498892 
L 184.97878 -48.238262 
L 183.416467 -48.099856 
L 181.854153 -48.039091 
L 180.29184 -48.017121 
z
" style="stroke: #e24a33; stroke-width: 0.5"/>
    </defs>
    <g clip-path="url(#p4e5f8adf6c)">
     <use xlink:href="#m1a0278ad2a" x="0" y="387.848625" style="fill: #e24a33; fill-opacity: 0.25; stroke: #e24a33; stroke-width: 0.5"/>
    </g>
   </g>
   <g id="FillBetweenPolyCollection_2">
    <defs>
     <path id="me0fa3f6445" d="M 168.149856 -48.010217 
L 168.149856 -48.008625 
L 169.764348 -48.008625 
L 171.37884 -48.008625 
L 172.993332 -48.008625 
L 174.607823 -48.008625 
L 176.222315 -48.008625 
L 177.836807 -48.008625 
L 179.451299 -48.008625 
L 181.065791 -48.008625 
L 182.680282 -48.008625 
L 184.294774 -48.008625 
L 185.909266 -48.008625 
L 187.523758 -48.008625 
L 189.13825 -48.008625 
L 190.752742 -48.008625 
L 192.367233 -48.008625 
L 193.981725 -48.008625 
L 195.596217 -48.008625 
L 197.210709 -48.008625 
L 198.825201 -48.008625 
L 200.439692 -48.008625 
L 202.054184 -48.008625 
L 203.668676 -48.008625 
L 205.283168 -48.008625 
L 206.89766 -48.008625 
L 208.512152 -48.008625 
L 210.126643 -48.008625 
L 211.741135 -48.008625 
L 213.355627 -48.008625 
L 214.970119 -48.008625 
L 216.584611 -48.008625 
L 218.199102 -48.008625 
L 219.813594 -48.008625 
L 221.428086 -48.008625 
L 223.042578 -48.008625 
L 224.65707 -48.008625 
L 226.271562 -48.008625 
L 227.886053 -48.008625 
L 229.500545 -48.008625 
L 231.115037 -48.008625 
L 232.729529 -48.008625 
L 234.344021 -48.008625 
L 235.958512 -48.008625 
L 237.573004 -48.008625 
L 239.187496 -48.008625 
L 240.801988 -48.008625 
L 242.41648 -48.008625 
L 244.030972 -48.008625 
L 245.645463 -48.008625 
L 247.259955 -48.008625 
L 248.874447 -48.008625 
L 250.488939 -48.008625 
L 252.103431 -48.008625 
L 253.717922 -48.008625 
L 255.332414 -48.008625 
L 256.946906 -48.008625 
L 258.561398 -48.008625 
L 260.17589 -48.008625 
L 261.790382 -48.008625 
L 263.404873 -48.008625 
L 265.019365 -48.008625 
L 266.633857 -48.008625 
L 268.248349 -48.008625 
L 269.862841 -48.008625 
L 271.477332 -48.008625 
L 273.091824 -48.008625 
L 274.706316 -48.008625 
L 276.320808 -48.008625 
L 277.9353 -48.008625 
L 279.549792 -48.008625 
L 281.164283 -48.008625 
L 282.778775 -48.008625 
L 284.393267 -48.008625 
L 286.007759 -48.008625 
L 287.622251 -48.008625 
L 289.236742 -48.008625 
L 290.851234 -48.008625 
L 292.465726 -48.008625 
L 294.080218 -48.008625 
L 295.69471 -48.008625 
L 297.309202 -48.008625 
L 298.923693 -48.008625 
L 300.538185 -48.008625 
L 302.152677 -48.008625 
L 303.767169 -48.008625 
L 305.381661 -48.008625 
L 306.996152 -48.008625 
L 308.610644 -48.008625 
L 310.225136 -48.008625 
L 311.839628 -48.008625 
L 313.45412 -48.008625 
L 315.068612 -48.008625 
L 316.683103 -48.008625 
L 318.297595 -48.008625 
L 319.912087 -48.008625 
L 321.526579 -48.008625 
L 323.141071 -48.008625 
L 324.755562 -48.008625 
L 326.370054 -48.008625 
L 327.984546 -48.008625 
L 329.599038 -48.008625 
L 331.21353 -48.008625 
L 332.828022 -48.008625 
L 334.442513 -48.008625 
L 336.057005 -48.008625 
L 337.671497 -48.008625 
L 339.285989 -48.008625 
L 340.900481 -48.008625 
L 342.514972 -48.008625 
L 344.129464 -48.008625 
L 345.743956 -48.008625 
L 347.358448 -48.008625 
L 348.97294 -48.008625 
L 350.587432 -48.008625 
L 352.201923 -48.008625 
L 353.816415 -48.008625 
L 355.430907 -48.008625 
L 357.045399 -48.008625 
L 358.659891 -48.008625 
L 360.274382 -48.008625 
L 361.888874 -48.008625 
L 363.503366 -48.008625 
L 365.117858 -48.008625 
L 366.73235 -48.008625 
L 368.346842 -48.008625 
L 369.961333 -48.008625 
L 371.575825 -48.008625 
L 373.190317 -48.008625 
L 374.804809 -48.008625 
L 376.419301 -48.008625 
L 378.033792 -48.008625 
L 379.648284 -48.008625 
L 381.262776 -48.008625 
L 382.877268 -48.008625 
L 384.49176 -48.008625 
L 386.106252 -48.008625 
L 387.720743 -48.008625 
L 389.335235 -48.008625 
L 390.949727 -48.008625 
L 392.564219 -48.008625 
L 394.178711 -48.008625 
L 395.793202 -48.008625 
L 397.407694 -48.008625 
L 399.022186 -48.008625 
L 400.636678 -48.008625 
L 402.25117 -48.008625 
L 403.865662 -48.008625 
L 405.480153 -48.008625 
L 407.094645 -48.008625 
L 408.709137 -48.008625 
L 410.323629 -48.008625 
L 411.938121 -48.008625 
L 413.552612 -48.008625 
L 415.167104 -48.008625 
L 416.781596 -48.008625 
L 418.396088 -48.008625 
L 420.01058 -48.008625 
L 421.625072 -48.008625 
L 423.239563 -48.008625 
L 424.854055 -48.008625 
L 426.468547 -48.008625 
L 428.083039 -48.008625 
L 429.697531 -48.008625 
L 431.312022 -48.008625 
L 432.926514 -48.008625 
L 434.541006 -48.008625 
L 436.155498 -48.008625 
L 437.76999 -48.008625 
L 439.384482 -48.008625 
L 440.998973 -48.008625 
L 442.613465 -48.008625 
L 444.227957 -48.008625 
L 445.842449 -48.008625 
L 447.456941 -48.008625 
L 449.071432 -48.008625 
L 450.685924 -48.008625 
L 452.300416 -48.008625 
L 453.914908 -48.008625 
L 455.5294 -48.008625 
L 457.143892 -48.008625 
L 458.758383 -48.008625 
L 460.372875 -48.008625 
L 461.987367 -48.008625 
L 463.601859 -48.008625 
L 465.216351 -48.008625 
L 466.830842 -48.008625 
L 468.445334 -48.008625 
L 470.059826 -48.008625 
L 471.674318 -48.008625 
L 473.28881 -48.008625 
L 474.903302 -48.008625 
L 476.517793 -48.008625 
L 478.132285 -48.008625 
L 479.746777 -48.008625 
L 481.361269 -48.008625 
L 482.975761 -48.008625 
L 484.590252 -48.008625 
L 486.204744 -48.008625 
L 487.819236 -48.008625 
L 489.433728 -48.008625 
L 489.433728 -48.010227 
L 489.433728 -48.010227 
L 487.819236 -48.016036 
L 486.204744 -48.034193 
L 484.590252 -48.075524 
L 482.975761 -48.145372 
L 481.361269 -48.237151 
L 479.746777 -48.339137 
L 478.132285 -48.448311 
L 476.517793 -48.582433 
L 474.903302 -48.777623 
L 473.28881 -49.04388 
L 471.674318 -49.31969 
L 470.059826 -49.523152 
L 468.445334 -49.660077 
L 466.830842 -49.83619 
L 465.216351 -50.157768 
L 463.601859 -50.646699 
L 461.987367 -51.229149 
L 460.372875 -51.781492 
L 458.758383 -52.231597 
L 457.143892 -52.642943 
L 455.5294 -53.149666 
L 453.914908 -53.793856 
L 452.300416 -54.475843 
L 450.685924 -55.043171 
L 449.071432 -55.358294 
L 447.456941 -55.325843 
L 445.842449 -54.972516 
L 444.227957 -54.519122 
L 442.613465 -54.299463 
L 440.998973 -54.551337 
L 439.384482 -55.271049 
L 437.76999 -56.272267 
L 436.155498 -57.363229 
L 434.541006 -58.413962 
L 432.926514 -59.327442 
L 431.312022 -60.111687 
L 429.697531 -60.924016 
L 428.083039 -61.90822 
L 426.468547 -63.096746 
L 424.854055 -64.550159 
L 423.239563 -66.36 
L 421.625072 -68.373581 
L 420.01058 -70.184554 
L 418.396088 -71.625594 
L 416.781596 -73.113188 
L 415.167104 -75.286483 
L 413.552612 -78.313458 
L 411.938121 -81.670235 
L 410.323629 -84.61068 
L 408.709137 -86.74077 
L 407.094645 -88.191794 
L 405.480153 -89.580688 
L 403.865662 -91.86769 
L 402.25117 -95.791032 
L 400.636678 -101.253744 
L 399.022186 -107.457664 
L 397.407694 -113.50006 
L 395.793202 -118.768723 
L 394.178711 -123.236094 
L 392.564219 -127.554232 
L 390.949727 -132.409902 
L 389.335235 -137.681661 
L 387.720743 -142.722396 
L 386.106252 -147.382006 
L 384.49176 -151.88443 
L 382.877268 -155.865647 
L 381.262776 -158.914318 
L 379.648284 -162.024783 
L 378.033792 -166.86964 
L 376.419301 -173.394177 
L 374.804809 -179.572473 
L 373.190317 -183.795825 
L 371.575825 -186.273597 
L 369.961333 -188.070232 
L 368.346842 -190.027316 
L 366.73235 -192.499188 
L 365.117858 -195.010682 
L 363.503366 -196.415773 
L 361.888874 -196.177556 
L 360.274382 -195.115634 
L 358.659891 -194.408527 
L 357.045399 -194.406715 
L 355.430907 -195.019869 
L 353.816415 -196.718282 
L 352.201923 -200.110889 
L 350.587432 -204.666224 
L 348.97294 -209.012519 
L 347.358448 -212.819559 
L 345.743956 -217.616207 
L 344.129464 -225.476779 
L 342.514972 -237.034948 
L 340.900481 -250.10636 
L 339.285989 -260.148675 
L 337.671497 -263.655823 
L 336.057005 -261.696522 
L 334.442513 -259.013413 
L 332.828022 -259.651241 
L 331.21353 -264.114471 
L 329.599038 -270.03358 
L 327.984546 -274.717315 
L 326.370054 -277.142734 
L 324.755562 -278.070823 
L 323.141071 -279.013148 
L 321.526579 -281.054156 
L 319.912087 -284.253598 
L 318.297595 -288.334233 
L 316.683103 -293.606855 
L 315.068612 -300.621012 
L 313.45412 -309.148063 
L 311.839628 -317.809883 
L 310.225136 -324.773412 
L 308.610644 -329.270944 
L 306.996152 -332.838663 
L 305.381661 -338.483215 
L 303.767169 -347.674374 
L 302.152677 -358.103562 
L 300.538185 -364.808625 
L 298.923693 -364.267245 
L 297.309202 -358.407719 
L 295.69471 -353.461287 
L 294.080218 -353.466415 
L 292.465726 -356.574449 
L 290.851234 -357.995406 
L 289.236742 -354.158163 
L 287.622251 -344.396786 
L 286.007759 -330.774436 
L 284.393267 -316.573992 
L 282.778775 -304.584204 
L 281.164283 -296.101372 
L 279.549792 -290.303805 
L 277.9353 -284.788974 
L 276.320808 -277.539506 
L 274.706316 -267.95261 
L 273.091824 -256.047348 
L 271.477332 -242.172503 
L 269.862841 -227.829595 
L 268.248349 -215.115677 
L 266.633857 -204.781254 
L 265.019365 -195.977903 
L 263.404873 -187.908915 
L 261.790382 -180.836093 
L 260.17589 -175.583234 
L 258.561398 -172.420661 
L 256.946906 -170.351848 
L 255.332414 -167.565391 
L 253.717922 -162.712658 
L 252.103431 -155.535516 
L 250.488939 -146.404821 
L 248.874447 -136.016836 
L 247.259955 -125.635276 
L 245.645463 -116.952152 
L 244.030972 -111.303436 
L 242.41648 -108.85952 
L 240.801988 -108.546878 
L 239.187496 -108.899359 
L 237.573004 -109.014829 
L 235.958512 -108.693054 
L 234.344021 -107.876262 
L 232.729529 -106.254783 
L 231.115037 -103.463773 
L 229.500545 -99.45418 
L 227.886053 -94.636366 
L 226.271562 -89.801791 
L 224.65707 -85.789126 
L 223.042578 -83.011237 
L 221.428086 -81.259827 
L 219.813594 -79.949958 
L 218.199102 -78.495462 
L 216.584611 -76.518592 
L 214.970119 -73.977419 
L 213.355627 -71.189623 
L 211.741135 -68.501361 
L 210.126643 -65.961015 
L 208.512152 -63.544193 
L 206.89766 -61.473162 
L 205.283168 -59.984061 
L 203.668676 -58.944367 
L 202.054184 -57.99029 
L 200.439692 -56.94344 
L 198.825201 -55.876966 
L 197.210709 -54.868785 
L 195.596217 -53.872661 
L 193.981725 -52.811904 
L 192.367233 -51.732682 
L 190.752742 -50.827486 
L 189.13825 -50.24526 
L 187.523758 -49.904338 
L 185.909266 -49.593492 
L 184.294774 -49.222018 
L 182.680282 -48.860766 
L 181.065791 -48.589557 
L 179.451299 -48.414432 
L 177.836807 -48.300472 
L 176.222315 -48.212777 
L 174.607823 -48.135185 
L 172.993332 -48.07256 
L 171.37884 -48.033581 
L 169.764348 -48.015945 
L 168.149856 -48.010217 
z
" style="stroke: #348abd; stroke-width: 0.5"/>
    </defs>
    <g clip-path="url(#p4e5f8adf6c)">
     <use xlink:href="#me0fa3f6445" x="0" y="387.848625" style="fill: #348abd; fill-opacity: 0.25; stroke: #348abd; stroke-width: 0.5"/>
    </g>
   </g>
   <g id="patch_3">
    <path d="M 43.36675 339.84 
L 43.36675 7.2 
" style="fill: none; stroke: #ffffff; stroke-linejoin: miter; stroke-linecap: square"/>
   </g>
   <g id="patch_4">
    <path d="M 601.36675 339.84 
L 601.36675 7.2 
" style="fill: none; stroke: #ffffff; stroke-linejoin: miter; stroke-linecap: square"/>
   </g>
   <g id="patch_5">
    <path d="M 43.36675 339.84 
L 601.36675 339.84 
" style="fill: none; stroke: #ffffff; stroke-linejoin: miter; stroke-linecap: square"/>
   </g>
   <g id="patch_6">
    <path d="M 43.36675 7.2 
L 601.36675 7.2 
" style="fill: none; stroke: #ffffff; stroke-linejoin: miter; stroke-linecap: square"/>
   </g>
   <g id="legend_1">
    <g id="patch_7">
     <path d="M 494.656125 59.49875 
L 591.56675 59.49875 
Q 594.36675 59.49875 594.36675 56.69875 
L 594.36675 17 
Q 594.36675 14.2 591.56675 14.2 
L 494.656125 14.2 
Q 491.856125 14.2 491.856125 17 
L 491.856125 56.69875 
Q 491.856125 59.49875 494.656125 59.49875 
z
" style="fill: #e5e5e5; opacity: 0.8; stroke: #cccccc; stroke-width: 0.5; stroke-linejoin: miter"/>
    </g>
    <g id="patch_8">
     <path d="M 497.456125 30.437812 
L 525.456125 30.437812 
L 525.456125 20.637812 
L 497.456125 20.637812 
z
" style="fill: #e24a33; fill-opacity: 0.25; stroke: #e24a33; stroke-width: 0.5; stroke-linejoin: miter"/>
    </g>
    <g id="text_15">
     <!-- Treated -->
     <g transform="translate(536.656125 30.437812) scale(0.14 -0.14)">
      <defs>
       <path id="DejaVuSans-54" d="M -19 4666 
L 3928 4666 
L 3928 4134 
L 2272 4134 
L 2272 0 
L 1638 0 
L 1638 4134 
L -19 4134 
L -19 4666 
z
" transform="scale(0.015625)"/>
       <path id="DejaVuSans-61" d="M 2194 1759 
Q 1497 1759 1228 1600 
Q 959 1441 959 1056 
Q 959 750 1161 570 
Q 1363 391 1709 391 
Q 2188 391 2477 730 
Q 2766 1069 2766 1631 
L 2766 1759 
L 2194 1759 
z
M 3341 1997 
L 3341 0 
L 2766 0 
L 2766 531 
Q 2569 213 2275 61 
Q 1981 -91 1556 -91 
Q 1019 -91 701 211 
Q 384 513 384 1019 
Q 384 1609 779 1909 
Q 1175 2209 1959 2209 
L 2766 2209 
L 2766 2266 
Q 2766 2663 2505 2880 
Q 2244 3097 1772 3097 
Q 1472 3097 1187 3025 
Q 903 2953 641 2809 
L 641 3341 
Q 956 3463 1253 3523 
Q 1550 3584 1831 3584 
Q 2591 3584 2966 3190 
Q 3341 2797 3341 1997 
z
" transform="scale(0.015625)"/>
       <path id="DejaVuSans-64" d="M 2906 2969 
L 2906 4863 
L 3481 4863 
L 3481 0 
L 2906 0 
L 2906 525 
Q 2725 213 2448 61 
Q 2172 -91 1784 -91 
Q 1150 -91 751 415 
Q 353 922 353 1747 
Q 353 2572 751 3078 
Q 1150 3584 1784 3584 
Q 2172 3584 2448 3432 
Q 2725 3281 2906 2969 
z
M 947 1747 
Q 947 1113 1208 752 
Q 1469 391 1925 391 
Q 2381 391 2643 752 
Q 2906 1113 2906 1747 
Q 2906 2381 2643 2742 
Q 2381 3103 1925 3103 
Q 1469 3103 1208 2742 
Q 947 2381 947 1747 
z
" transform="scale(0.015625)"/>
      </defs>
      <use xlink:href="#DejaVuSans-54"/>
      <use xlink:href="#DejaVuSans-72" transform="translate(46.333984 0)"/>
      <use xlink:href="#DejaVuSans-65" transform="translate(85.197266 0)"/>
      <use xlink:href="#DejaVuSans-61" transform="translate(146.720703 0)"/>
      <use xlink:href="#DejaVuSans-74" transform="translate(208 0)"/>
      <use xlink:href="#DejaVuSans-65" transform="translate(247.208984 0)"/>
      <use xlink:href="#DejaVuSans-64" transform="translate(308.732422 0)"/>
     </g>
    </g>
    <g id="patch_9">
     <path d="M 497.456125 50.987187 
L 525.456125 50.987187 
L 525.456125 41.187187 
L 497.456125 41.187187 
z
" style="fill: #348abd; fill-opacity: 0.25; stroke: #348abd; stroke-width: 0.5; stroke-linejoin: miter"/>
    </g>
    <g id="text_16">
     <!-- Control -->
     <g transform="translate(536.656125 50.987187) scale(0.14 -0.14)">
      <defs>
       <path id="DejaVuSans-43" d="M 4122 4306 
L 4122 3641 
Q 3803 3938 3442 4084 
Q 3081 4231 2675 4231 
Q 1875 4231 1450 3742 
Q 1025 3253 1025 2328 
Q 1025 1406 1450 917 
Q 1875 428 2675 428 
Q 3081 428 3442 575 
Q 3803 722 4122 1019 
L 4122 359 
Q 3791 134 3420 21 
Q 3050 -91 2638 -91 
Q 1578 -91 968 557 
Q 359 1206 359 2328 
Q 359 3453 968 4101 
Q 1578 4750 2638 4750 
Q 3056 4750 3426 4639 
Q 3797 4528 4122 4306 
z
" transform="scale(0.015625)"/>
       <path id="DejaVuSans-6c" d="M 603 4863 
L 1178 4863 
L 1178 0 
L 603 0 
L 603 4863 
z
" transform="scale(0.015625)"/>
      </defs>
      <use xlink:href="#DejaVuSans-43"/>
      <use xlink:href="#DejaVuSans-6f" transform="translate(69.824219 0)"/>
      <use xlink:href="#DejaVuSans-6e" transform="translate(131.005859 0)"/>
      <use xlink:href="#DejaVuSans-74" transform="translate(194.384766 0)"/>
      <use xlink:href="#DejaVuSans-72" transform="translate(233.59375 0)"/>
      <use xlink:href="#DejaVuSans-6f" transform="translate(272.457031 0)"/>
      <use xlink:href="#DejaVuSans-6c" transform="translate(333.638672 0)"/>
     </g>
    </g>
   </g>
  </g>
 </g>
 <defs>
  <clipPath id="p4e5f8adf6c">
   <rect x="43.36675" y="7.2" width="558" height="332.64"/>
  </clipPath>
 </defs>
</svg>
