<?xml version="1.0" encoding="utf-8" standalone="no"?>
<!DOCTYPE svg PUBLIC "-//W3C//DTD SVG 1.1//EN"
  "http://www.w3.org/Graphics/SVG/1.1/DTD/svg11.dtd">
<svg xmlns:xlink="http://www.w3.org/1999/xlink" width="619.698937pt" height="387.848625pt" viewBox="0 0 619.698937 387.848625" xmlns="http://www.w3.org/2000/svg" version="1.1">
 <metadata>
  <rdf:RDF xmlns:dc="http://purl.org/dc/elements/1.1/" xmlns:cc="http://creativecommons.org/ns#" xmlns:rdf="http://www.w3.org/1999/02/22-rdf-syntax-ns#">
   <cc:Work>
    <dc:type rdf:resource="http://purl.org/dc/dcmitype/StillImage"/>
    <dc:date>2025-09-01T16:24:30.156753</dc:date>
    <dc:format>image/svg+xml</dc:format>
    <dc:creator>
     <cc:Agent>
      <dc:title>Matplotlib v3.10.3, https://matplotlib.org/</dc:title>
     </cc:Agent>
    </dc:creator>
   </cc:Work>
  </rdf:RDF>
 </metadata>
 <defs>
  <style type="text/css">*{stroke-linejoin: round; stroke-linecap: butt}</style>
 </defs>
 <g id="figure_1">
  <g id="patch_1">
   <path d="M 0 387.848625 
L 619.698937 387.848625 
L 619.698937 0 
L 0 0 
z
" style="fill: #ffffff"/>
  </g>
  <g id="axes_1">
   <g id="patch_2">
    <path d="M 43.36675 339.84 
L 601.36675 339.84 
L 601.36675 7.2 
L 43.36675 7.2 
z
" style="fill: #e5e5e5"/>
   </g>
   <g id="matplotlib.axis_1">
    <g id="xtick_1">
     <g id="line2d_1">
      <path d="M 43.36675 339.84 
L 43.36675 7.2 
" clip-path="url(#pd02526347f)" style="fill: none; stroke: #ffffff; stroke-width: 0.8; stroke-linecap: square"/>
     </g>
     <g id="line2d_2">
      <defs>
       <path id="m8bd1edee91" d="M 0 0 
L 0 3.5 
" style="stroke: #555555; stroke-width: 0.8"/>
      </defs>
      <g>
       <use xlink:href="#m8bd1edee91" x="43.36675" y="339.84" style="fill: #555555; stroke: #555555; stroke-width: 0.8"/>
      </g>
     </g>
     <g id="text_1">
      <!-- 0.0 -->
      <g style="fill: #555555" transform="translate(32.234563 357.477812) scale(0.14 -0.14)">
       <defs>
        <path id="DejaVuSans-30" d="M 2034 4250 
Q 1547 4250 1301 3770 
Q 1056 3291 1056 2328 
Q 1056 1369 1301 889 
Q 1547 409 2034 409 
Q 2525 409 2770 889 
Q 3016 1369 3016 2328 
Q 3016 3291 2770 3770 
Q 2525 4250 2034 4250 
z
M 2034 4750 
Q 2819 4750 3233 4129 
Q 3647 3509 3647 2328 
Q 3647 1150 3233 529 
Q 2819 -91 2034 -91 
Q 1250 -91 836 529 
Q 422 1150 422 2328 
Q 422 3509 836 4129 
Q 1250 4750 2034 4750 
z
" transform="scale(0.015625)"/>
        <path id="DejaVuSans-2e" d="M 684 794 
L 1344 794 
L 1344 0 
L 684 0 
L 684 794 
z
" transform="scale(0.015625)"/>
       </defs>
       <use xlink:href="#DejaVuSans-30"/>
       <use xlink:href="#DejaVuSans-2e" transform="translate(63.623047 0)"/>
       <use xlink:href="#DejaVuSans-30" transform="translate(95.410156 0)"/>
      </g>
     </g>
    </g>
    <g id="xtick_2">
     <g id="line2d_3">
      <path d="M 154.96675 339.84 
L 154.96675 7.2 
" clip-path="url(#pd02526347f)" style="fill: none; stroke: #ffffff; stroke-width: 0.8; stroke-linecap: square"/>
     </g>
     <g id="line2d_4">
      <g>
       <use xlink:href="#m8bd1edee91" x="154.96675" y="339.84" style="fill: #555555; stroke: #555555; stroke-width: 0.8"/>
      </g>
     </g>
     <g id="text_2">
      <!-- 0.2 -->
      <g style="fill: #555555" transform="translate(143.834563 357.477812) scale(0.14 -0.14)">
       <defs>
        <path id="DejaVuSans-32" d="M 1228 531 
L 3431 531 
L 3431 0 
L 469 0 
L 469 531 
Q 828 903 1448 1529 
Q 2069 2156 2228 2338 
Q 2531 2678 2651 2914 
Q 2772 3150 2772 3378 
Q 2772 3750 2511 3984 
Q 2250 4219 1831 4219 
Q 1534 4219 1204 4116 
Q 875 4013 500 3803 
L 500 4441 
Q 881 4594 1212 4672 
Q 1544 4750 1819 4750 
Q 2544 4750 2975 4387 
Q 3406 4025 3406 3419 
Q 3406 3131 3298 2873 
Q 3191 2616 2906 2266 
Q 2828 2175 2409 1742 
Q 1991 1309 1228 531 
z
" transform="scale(0.015625)"/>
       </defs>
       <use xlink:href="#DejaVuSans-30"/>
       <use xlink:href="#DejaVuSans-2e" transform="translate(63.623047 0)"/>
       <use xlink:href="#DejaVuSans-32" transform="translate(95.410156 0)"/>
      </g>
     </g>
    </g>
    <g id="xtick_3">
     <g id="line2d_5">
      <path d="M 266.56675 339.84 
L 266.56675 7.2 
" clip-path="url(#pd02526347f)" style="fill: none; stroke: #ffffff; stroke-width: 0.8; stroke-linecap: square"/>
     </g>
     <g id="line2d_6">
      <g>
       <use xlink:href="#m8bd1edee91" x="266.56675" y="339.84" style="fill: #555555; stroke: #555555; stroke-width: 0.8"/>
      </g>
     </g>
     <g id="text_3">
      <!-- 0.4 -->
      <g style="fill: #555555" transform="translate(255.434563 357.477812) scale(0.14 -0.14)">
       <defs>
        <path id="DejaVuSans-34" d="M 2419 4116 
L 825 1625 
L 2419 1625 
L 2419 4116 
z
M 2253 4666 
L 3047 4666 
L 3047 1625 
L 3713 1625 
L 3713 1100 
L 3047 1100 
L 3047 0 
L 2419 0 
L 2419 1100 
L 313 1100 
L 313 1709 
L 2253 4666 
z
" transform="scale(0.015625)"/>
       </defs>
       <use xlink:href="#DejaVuSans-30"/>
       <use xlink:href="#DejaVuSans-2e" transform="translate(63.623047 0)"/>
       <use xlink:href="#DejaVuSans-34" transform="translate(95.410156 0)"/>
      </g>
     </g>
    </g>
    <g id="xtick_4">
     <g id="line2d_7">
      <path d="M 378.16675 339.84 
L 378.16675 7.2 
" clip-path="url(#pd02526347f)" style="fill: none; stroke: #ffffff; stroke-width: 0.8; stroke-linecap: square"/>
     </g>
     <g id="line2d_8">
      <g>
       <use xlink:href="#m8bd1edee91" x="378.16675" y="339.84" style="fill: #555555; stroke: #555555; stroke-width: 0.8"/>
      </g>
     </g>
     <g id="text_4">
      <!-- 0.6 -->
      <g style="fill: #555555" transform="translate(367.034563 357.477812) scale(0.14 -0.14)">
       <defs>
        <path id="DejaVuSans-36" d="M 2113 2584 
Q 1688 2584 1439 2293 
Q 1191 2003 1191 1497 
Q 1191 994 1439 701 
Q 1688 409 2113 409 
Q 2538 409 2786 701 
Q 3034 994 3034 1497 
Q 3034 2003 2786 2293 
Q 2538 2584 2113 2584 
z
M 3366 4563 
L 3366 3988 
Q 3128 4100 2886 4159 
Q 2644 4219 2406 4219 
Q 1781 4219 1451 3797 
Q 1122 3375 1075 2522 
Q 1259 2794 1537 2939 
Q 1816 3084 2150 3084 
Q 2853 3084 3261 2657 
Q 3669 2231 3669 1497 
Q 3669 778 3244 343 
Q 2819 -91 2113 -91 
Q 1303 -91 875 529 
Q 447 1150 447 2328 
Q 447 3434 972 4092 
Q 1497 4750 2381 4750 
Q 2619 4750 2861 4703 
Q 3103 4656 3366 4563 
z
" transform="scale(0.015625)"/>
       </defs>
       <use xlink:href="#DejaVuSans-30"/>
       <use xlink:href="#DejaVuSans-2e" transform="translate(63.623047 0)"/>
       <use xlink:href="#DejaVuSans-36" transform="translate(95.410156 0)"/>
      </g>
     </g>
    </g>
    <g id="xtick_5">
     <g id="line2d_9">
      <path d="M 489.76675 339.84 
L 489.76675 7.2 
" clip-path="url(#pd02526347f)" style="fill: none; stroke: #ffffff; stroke-width: 0.8; stroke-linecap: square"/>
     </g>
     <g id="line2d_10">
      <g>
       <use xlink:href="#m8bd1edee91" x="489.76675" y="339.84" style="fill: #555555; stroke: #555555; stroke-width: 0.8"/>
      </g>
     </g>
     <g id="text_5">
      <!-- 0.8 -->
      <g style="fill: #555555" transform="translate(478.634563 357.477812) scale(0.14 -0.14)">
       <defs>
        <path id="DejaVuSans-38" d="M 2034 2216 
Q 1584 2216 1326 1975 
Q 1069 1734 1069 1313 
Q 1069 891 1326 650 
Q 1584 409 2034 409 
Q 2484 409 2743 651 
Q 3003 894 3003 1313 
Q 3003 1734 2745 1975 
Q 2488 2216 2034 2216 
z
M 1403 2484 
Q 997 2584 770 2862 
Q 544 3141 544 3541 
Q 544 4100 942 4425 
Q 1341 4750 2034 4750 
Q 2731 4750 3128 4425 
Q 3525 4100 3525 3541 
Q 3525 3141 3298 2862 
Q 3072 2584 2669 2484 
Q 3125 2378 3379 2068 
Q 3634 1759 3634 1313 
Q 3634 634 3220 271 
Q 2806 -91 2034 -91 
Q 1263 -91 848 271 
Q 434 634 434 1313 
Q 434 1759 690 2068 
Q 947 2378 1403 2484 
z
M 1172 3481 
Q 1172 3119 1398 2916 
Q 1625 2713 2034 2713 
Q 2441 2713 2670 2916 
Q 2900 3119 2900 3481 
Q 2900 3844 2670 4047 
Q 2441 4250 2034 4250 
Q 1625 4250 1398 4047 
Q 1172 3844 1172 3481 
z
" transform="scale(0.015625)"/>
       </defs>
       <use xlink:href="#DejaVuSans-30"/>
       <use xlink:href="#DejaVuSans-2e" transform="translate(63.623047 0)"/>
       <use xlink:href="#DejaVuSans-38" transform="translate(95.410156 0)"/>
      </g>
     </g>
    </g>
    <g id="xtick_6">
     <g id="line2d_11">
      <path d="M 601.36675 339.84 
L 601.36675 7.2 
" clip-path="url(#pd02526347f)" style="fill: none; stroke: #ffffff; stroke-width: 0.8; stroke-linecap: square"/>
     </g>
     <g id="line2d_12">
      <g>
       <use xlink:href="#m8bd1edee91" x="601.36675" y="339.84" style="fill: #555555; stroke: #555555; stroke-width: 0.8"/>
      </g>
     </g>
     <g id="text_6">
      <!-- 1.0 -->
      <g style="fill: #555555" transform="translate(590.234563 357.477812) scale(0.14 -0.14)">
       <defs>
        <path id="DejaVuSans-31" d="M 794 531 
L 1825 531 
L 1825 4091 
L 703 3866 
L 703 4441 
L 1819 4666 
L 2450 4666 
L 2450 531 
L 3481 531 
L 3481 0 
L 794 0 
L 794 531 
z
" transform="scale(0.015625)"/>
       </defs>
       <use xlink:href="#DejaVuSans-31"/>
       <use xlink:href="#DejaVuSans-2e" transform="translate(63.623047 0)"/>
       <use xlink:href="#DejaVuSans-30" transform="translate(95.410156 0)"/>
      </g>
     </g>
    </g>
    <g id="text_7">
     <!-- Propensity Score -->
     <g style="fill: #555555" transform="translate(252.052188 377.15475) scale(0.168 -0.168)">
      <defs>
       <path id="DejaVuSans-50" d="M 1259 4147 
L 1259 2394 
L 2053 2394 
Q 2494 2394 2734 2622 
Q 2975 2850 2975 3272 
Q 2975 3691 2734 3919 
Q 2494 4147 2053 4147 
L 1259 4147 
z
M 628 4666 
L 2053 4666 
Q 2838 4666 3239 4311 
Q 3641 3956 3641 3272 
Q 3641 2581 3239 2228 
Q 2838 1875 2053 1875 
L 1259 1875 
L 1259 0 
L 628 0 
L 628 4666 
z
" transform="scale(0.015625)"/>
       <path id="DejaVuSans-72" d="M 2631 2963 
Q 2534 3019 2420 3045 
Q 2306 3072 2169 3072 
Q 1681 3072 1420 2755 
Q 1159 2438 1159 1844 
L 1159 0 
L 581 0 
L 581 3500 
L 1159 3500 
L 1159 2956 
Q 1341 3275 1631 3429 
Q 1922 3584 2338 3584 
Q 2397 3584 2469 3576 
Q 2541 3569 2628 3553 
L 2631 2963 
z
" transform="scale(0.015625)"/>
       <path id="DejaVuSans-6f" d="M 1959 3097 
Q 1497 3097 1228 2736 
Q 959 2375 959 1747 
Q 959 1119 1226 758 
Q 1494 397 1959 397 
Q 2419 397 2687 759 
Q 2956 1122 2956 1747 
Q 2956 2369 2687 2733 
Q 2419 3097 1959 3097 
z
M 1959 3584 
Q 2709 3584 3137 3096 
Q 3566 2609 3566 1747 
Q 3566 888 3137 398 
Q 2709 -91 1959 -91 
Q 1206 -91 779 398 
Q 353 888 353 1747 
Q 353 2609 779 3096 
Q 1206 3584 1959 3584 
z
" transform="scale(0.015625)"/>
       <path id="DejaVuSans-70" d="M 1159 525 
L 1159 -1331 
L 581 -1331 
L 581 3500 
L 1159 3500 
L 1159 2969 
Q 1341 3281 1617 3432 
Q 1894 3584 2278 3584 
Q 2916 3584 3314 3078 
Q 3713 2572 3713 1747 
Q 3713 922 3314 415 
Q 2916 -91 2278 -91 
Q 1894 -91 1617 61 
Q 1341 213 1159 525 
z
M 3116 1747 
Q 3116 2381 2855 2742 
Q 2594 3103 2138 3103 
Q 1681 3103 1420 2742 
Q 1159 2381 1159 1747 
Q 1159 1113 1420 752 
Q 1681 391 2138 391 
Q 2594 391 2855 752 
Q 3116 1113 3116 1747 
z
" transform="scale(0.015625)"/>
       <path id="DejaVuSans-65" d="M 3597 1894 
L 3597 1613 
L 953 1613 
Q 991 1019 1311 708 
Q 1631 397 2203 397 
Q 2534 397 2845 478 
Q 3156 559 3463 722 
L 3463 178 
Q 3153 47 2828 -22 
Q 2503 -91 2169 -91 
Q 1331 -91 842 396 
Q 353 884 353 1716 
Q 353 2575 817 3079 
Q 1281 3584 2069 3584 
Q 2775 3584 3186 3129 
Q 3597 2675 3597 1894 
z
M 3022 2063 
Q 3016 2534 2758 2815 
Q 2500 3097 2075 3097 
Q 1594 3097 1305 2825 
Q 1016 2553 972 2059 
L 3022 2063 
z
" transform="scale(0.015625)"/>
       <path id="DejaVuSans-6e" d="M 3513 2113 
L 3513 0 
L 2938 0 
L 2938 2094 
Q 2938 2591 2744 2837 
Q 2550 3084 2163 3084 
Q 1697 3084 1428 2787 
Q 1159 2491 1159 1978 
L 1159 0 
L 581 0 
L 581 3500 
L 1159 3500 
L 1159 2956 
Q 1366 3272 1645 3428 
Q 1925 3584 2291 3584 
Q 2894 3584 3203 3211 
Q 3513 2838 3513 2113 
z
" transform="scale(0.015625)"/>
       <path id="DejaVuSans-73" d="M 2834 3397 
L 2834 2853 
Q 2591 2978 2328 3040 
Q 2066 3103 1784 3103 
Q 1356 3103 1142 2972 
Q 928 2841 928 2578 
Q 928 2378 1081 2264 
Q 1234 2150 1697 2047 
L 1894 2003 
Q 2506 1872 2764 1633 
Q 3022 1394 3022 966 
Q 3022 478 2636 193 
Q 2250 -91 1575 -91 
Q 1294 -91 989 -36 
Q 684 19 347 128 
L 347 722 
Q 666 556 975 473 
Q 1284 391 1588 391 
Q 1994 391 2212 530 
Q 2431 669 2431 922 
Q 2431 1156 2273 1281 
Q 2116 1406 1581 1522 
L 1381 1569 
Q 847 1681 609 1914 
Q 372 2147 372 2553 
Q 372 3047 722 3315 
Q 1072 3584 1716 3584 
Q 2034 3584 2315 3537 
Q 2597 3491 2834 3397 
z
" transform="scale(0.015625)"/>
       <path id="DejaVuSans-69" d="M 603 3500 
L 1178 3500 
L 1178 0 
L 603 0 
L 603 3500 
z
M 603 4863 
L 1178 4863 
L 1178 4134 
L 603 4134 
L 603 4863 
z
" transform="scale(0.015625)"/>
       <path id="DejaVuSans-74" d="M 1172 4494 
L 1172 3500 
L 2356 3500 
L 2356 3053 
L 1172 3053 
L 1172 1153 
Q 1172 725 1289 603 
Q 1406 481 1766 481 
L 2356 481 
L 2356 0 
L 1766 0 
Q 1100 0 847 248 
Q 594 497 594 1153 
L 594 3053 
L 172 3053 
L 172 3500 
L 594 3500 
L 594 4494 
L 1172 4494 
z
" transform="scale(0.015625)"/>
       <path id="DejaVuSans-79" d="M 2059 -325 
Q 1816 -950 1584 -1140 
Q 1353 -1331 966 -1331 
L 506 -1331 
L 506 -850 
L 844 -850 
Q 1081 -850 1212 -737 
Q 1344 -625 1503 -206 
L 1606 56 
L 191 3500 
L 800 3500 
L 1894 763 
L 2988 3500 
L 3597 3500 
L 2059 -325 
z
" transform="scale(0.015625)"/>
       <path id="DejaVuSans-20" transform="scale(0.015625)"/>
       <path id="DejaVuSans-53" d="M 3425 4513 
L 3425 3897 
Q 3066 4069 2747 4153 
Q 2428 4238 2131 4238 
Q 1616 4238 1336 4038 
Q 1056 3838 1056 3469 
Q 1056 3159 1242 3001 
Q 1428 2844 1947 2747 
L 2328 2669 
Q 3034 2534 3370 2195 
Q 3706 1856 3706 1288 
Q 3706 609 3251 259 
Q 2797 -91 1919 -91 
Q 1588 -91 1214 -16 
Q 841 59 441 206 
L 441 856 
Q 825 641 1194 531 
Q 1563 422 1919 422 
Q 2459 422 2753 634 
Q 3047 847 3047 1241 
Q 3047 1584 2836 1778 
Q 2625 1972 2144 2069 
L 1759 2144 
Q 1053 2284 737 2584 
Q 422 2884 422 3419 
Q 422 4038 858 4394 
Q 1294 4750 2059 4750 
Q 2388 4750 2728 4690 
Q 3069 4631 3425 4513 
z
" transform="scale(0.015625)"/>
       <path id="DejaVuSans-63" d="M 3122 3366 
L 3122 2828 
Q 2878 2963 2633 3030 
Q 2388 3097 2138 3097 
Q 1578 3097 1268 2742 
Q 959 2388 959 1747 
Q 959 1106 1268 751 
Q 1578 397 2138 397 
Q 2388 397 2633 464 
Q 2878 531 3122 666 
L 3122 134 
Q 2881 22 2623 -34 
Q 2366 -91 2075 -91 
Q 1284 -91 818 406 
Q 353 903 353 1747 
Q 353 2603 823 3093 
Q 1294 3584 2113 3584 
Q 2378 3584 2631 3529 
Q 2884 3475 3122 3366 
z
" transform="scale(0.015625)"/>
      </defs>
      <use xlink:href="#DejaVuSans-50"/>
      <use xlink:href="#DejaVuSans-72" transform="translate(58.552734 0)"/>
      <use xlink:href="#DejaVuSans-6f" transform="translate(97.416016 0)"/>
      <use xlink:href="#DejaVuSans-70" transform="translate(158.597656 0)"/>
      <use xlink:href="#DejaVuSans-65" transform="translate(222.074219 0)"/>
      <use xlink:href="#DejaVuSans-6e" transform="translate(283.597656 0)"/>
      <use xlink:href="#DejaVuSans-73" transform="translate(346.976562 0)"/>
      <use xlink:href="#DejaVuSans-69" transform="translate(399.076172 0)"/>
      <use xlink:href="#DejaVuSans-74" transform="translate(426.859375 0)"/>
      <use xlink:href="#DejaVuSans-79" transform="translate(466.068359 0)"/>
      <use xlink:href="#DejaVuSans-20" transform="translate(525.248047 0)"/>
      <use xlink:href="#DejaVuSans-53" transform="translate(557.035156 0)"/>
      <use xlink:href="#DejaVuSans-63" transform="translate(620.511719 0)"/>
      <use xlink:href="#DejaVuSans-6f" transform="translate(675.492188 0)"/>
      <use xlink:href="#DejaVuSans-72" transform="translate(736.673828 0)"/>
      <use xlink:href="#DejaVuSans-65" transform="translate(775.537109 0)"/>
     </g>
    </g>
   </g>
   <g id="matplotlib.axis_2">
    <g id="ytick_1">
     <g id="line2d_13">
      <path d="M 43.36675 339.84 
L 601.36675 339.84 
" clip-path="url(#pd02526347f)" style="fill: none; stroke: #ffffff; stroke-width: 0.8; stroke-linecap: square"/>
     </g>
     <g id="line2d_14">
      <defs>
       <path id="m5592fbcfcb" d="M 0 0 
L -3.5 0 
" style="stroke: #555555; stroke-width: 0.8"/>
      </defs>
      <g>
       <use xlink:href="#m5592fbcfcb" x="43.36675" y="339.84" style="fill: #555555; stroke: #555555; stroke-width: 0.8"/>
      </g>
     </g>
     <g id="text_8">
      <!-- 0 -->
      <g style="fill: #555555" transform="translate(27.45925 345.158906) scale(0.14 -0.14)">
       <use xlink:href="#DejaVuSans-30"/>
      </g>
     </g>
    </g>
    <g id="ytick_2">
     <g id="line2d_15">
      <path d="M 43.36675 282.969118 
L 601.36675 282.969118 
" clip-path="url(#pd02526347f)" style="fill: none; stroke: #ffffff; stroke-width: 0.8; stroke-linecap: square"/>
     </g>
     <g id="line2d_16">
      <g>
       <use xlink:href="#m5592fbcfcb" x="43.36675" y="282.969118" style="fill: #555555; stroke: #555555; stroke-width: 0.8"/>
      </g>
     </g>
     <g id="text_9">
      <!-- 1 -->
      <g style="fill: #555555" transform="translate(27.45925 288.288024) scale(0.14 -0.14)">
       <use xlink:href="#DejaVuSans-31"/>
      </g>
     </g>
    </g>
    <g id="ytick_3">
     <g id="line2d_17">
      <path d="M 43.36675 226.098236 
L 601.36675 226.098236 
" clip-path="url(#pd02526347f)" style="fill: none; stroke: #ffffff; stroke-width: 0.8; stroke-linecap: square"/>
     </g>
     <g id="line2d_18">
      <g>
       <use xlink:href="#m5592fbcfcb" x="43.36675" y="226.098236" style="fill: #555555; stroke: #555555; stroke-width: 0.8"/>
      </g>
     </g>
     <g id="text_10">
      <!-- 2 -->
      <g style="fill: #555555" transform="translate(27.45925 231.417143) scale(0.14 -0.14)">
       <use xlink:href="#DejaVuSans-32"/>
      </g>
     </g>
    </g>
    <g id="ytick_4">
     <g id="line2d_19">
      <path d="M 43.36675 169.227354 
L 601.36675 169.227354 
" clip-path="url(#pd02526347f)" style="fill: none; stroke: #ffffff; stroke-width: 0.8; stroke-linecap: square"/>
     </g>
     <g id="line2d_20">
      <g>
       <use xlink:href="#m5592fbcfcb" x="43.36675" y="169.227354" style="fill: #555555; stroke: #555555; stroke-width: 0.8"/>
      </g>
     </g>
     <g id="text_11">
      <!-- 3 -->
      <g style="fill: #555555" transform="translate(27.45925 174.546261) scale(0.14 -0.14)">
       <defs>
        <path id="DejaVuSans-33" d="M 2597 2516 
Q 3050 2419 3304 2112 
Q 3559 1806 3559 1356 
Q 3559 666 3084 287 
Q 2609 -91 1734 -91 
Q 1441 -91 1130 -33 
Q 819 25 488 141 
L 488 750 
Q 750 597 1062 519 
Q 1375 441 1716 441 
Q 2309 441 2620 675 
Q 2931 909 2931 1356 
Q 2931 1769 2642 2001 
Q 2353 2234 1838 2234 
L 1294 2234 
L 1294 2753 
L 1863 2753 
Q 2328 2753 2575 2939 
Q 2822 3125 2822 3475 
Q 2822 3834 2567 4026 
Q 2313 4219 1838 4219 
Q 1578 4219 1281 4162 
Q 984 4106 628 3988 
L 628 4550 
Q 988 4650 1302 4700 
Q 1616 4750 1894 4750 
Q 2613 4750 3031 4423 
Q 3450 4097 3450 3541 
Q 3450 3153 3228 2886 
Q 3006 2619 2597 2516 
z
" transform="scale(0.015625)"/>
       </defs>
       <use xlink:href="#DejaVuSans-33"/>
      </g>
     </g>
    </g>
    <g id="ytick_5">
     <g id="line2d_21">
      <path d="M 43.36675 112.356473 
L 601.36675 112.356473 
" clip-path="url(#pd02526347f)" style="fill: none; stroke: #ffffff; stroke-width: 0.8; stroke-linecap: square"/>
     </g>
     <g id="line2d_22">
      <g>
       <use xlink:href="#m5592fbcfcb" x="43.36675" y="112.356473" style="fill: #555555; stroke: #555555; stroke-width: 0.8"/>
      </g>
     </g>
     <g id="text_12">
      <!-- 4 -->
      <g style="fill: #555555" transform="translate(27.45925 117.675379) scale(0.14 -0.14)">
       <use xlink:href="#DejaVuSans-34"/>
      </g>
     </g>
    </g>
    <g id="ytick_6">
     <g id="line2d_23">
      <path d="M 43.36675 55.485591 
L 601.36675 55.485591 
" clip-path="url(#pd02526347f)" style="fill: none; stroke: #ffffff; stroke-width: 0.8; stroke-linecap: square"/>
     </g>
     <g id="line2d_24">
      <g>
       <use xlink:href="#m5592fbcfcb" x="43.36675" y="55.485591" style="fill: #555555; stroke: #555555; stroke-width: 0.8"/>
      </g>
     </g>
     <g id="text_13">
      <!-- 5 -->
      <g style="fill: #555555" transform="translate(27.45925 60.804497) scale(0.14 -0.14)">
       <defs>
        <path id="DejaVuSans-35" d="M 691 4666 
L 3169 4666 
L 3169 4134 
L 1269 4134 
L 1269 2991 
Q 1406 3038 1543 3061 
Q 1681 3084 1819 3084 
Q 2600 3084 3056 2656 
Q 3513 2228 3513 1497 
Q 3513 744 3044 326 
Q 2575 -91 1722 -91 
Q 1428 -91 1123 -41 
Q 819 9 494 109 
L 494 744 
Q 775 591 1075 516 
Q 1375 441 1709 441 
Q 2250 441 2565 725 
Q 2881 1009 2881 1497 
Q 2881 1984 2565 2268 
Q 2250 2553 1709 2553 
Q 1456 2553 1204 2497 
Q 953 2441 691 2322 
L 691 4666 
z
" transform="scale(0.015625)"/>
       </defs>
       <use xlink:href="#DejaVuSans-35"/>
      </g>
     </g>
    </g>
    <g id="text_14">
     <!-- Density -->
     <g style="fill: #555555" transform="translate(19.965375 205.454437) rotate(-90) scale(0.168 -0.168)">
      <defs>
       <path id="DejaVuSans-44" d="M 1259 4147 
L 1259 519 
L 2022 519 
Q 2988 519 3436 956 
Q 3884 1394 3884 2338 
Q 3884 3275 3436 3711 
Q 2988 4147 2022 4147 
L 1259 4147 
z
M 628 4666 
L 1925 4666 
Q 3281 4666 3915 4102 
Q 4550 3538 4550 2338 
Q 4550 1131 3912 565 
Q 3275 0 1925 0 
L 628 0 
L 628 4666 
z
" transform="scale(0.015625)"/>
      </defs>
      <use xlink:href="#DejaVuSans-44"/>
      <use xlink:href="#DejaVuSans-65" transform="translate(77.001953 0)"/>
      <use xlink:href="#DejaVuSans-6e" transform="translate(138.525391 0)"/>
      <use xlink:href="#DejaVuSans-73" transform="translate(201.904297 0)"/>
      <use xlink:href="#DejaVuSans-69" transform="translate(254.003906 0)"/>
      <use xlink:href="#DejaVuSans-74" transform="translate(281.787109 0)"/>
      <use xlink:href="#DejaVuSans-79" transform="translate(320.996094 0)"/>
     </g>
    </g>
   </g>
   <g id="FillBetweenPolyCollection_1">
    <defs>
     <path id="m78f43d77cd" d="M 180.034924 -48.017096 
L 180.034924 -48.008625 
L 181.598718 -48.008625 
L 183.162513 -48.008625 
L 184.726307 -48.008625 
L 186.290101 -48.008625 
L 187.853895 -48.008625 
L 189.41769 -48.008625 
L 190.981484 -48.008625 
L 192.545278 -48.008625 
L 194.109072 -48.008625 
L 195.672867 -48.008625 
L 197.236661 -48.008625 
L 198.800455 -48.008625 
L 200.364249 -48.008625 
L 201.928043 -48.008625 
L 203.491838 -48.008625 
L 205.055632 -48.008625 
L 206.619426 -48.008625 
L 208.18322 -48.008625 
L 209.747015 -48.008625 
L 211.310809 -48.008625 
L 212.874603 -48.008625 
L 214.438397 -48.008625 
L 216.002191 -48.008625 
L 217.565986 -48.008625 
L 219.12978 -48.008625 
L 220.693574 -48.008625 
L 222.257368 -48.008625 
L 223.821163 -48.008625 
L 225.384957 -48.008625 
L 226.948751 -48.008625 
L 228.512545 -48.008625 
L 230.07634 -48.008625 
L 231.640134 -48.008625 
L 233.203928 -48.008625 
L 234.767722 -48.008625 
L 236.331516 -48.008625 
L 237.895311 -48.008625 
L 239.459105 -48.008625 
L 241.022899 -48.008625 
L 242.586693 -48.008625 
L 244.150488 -48.008625 
L 245.714282 -48.008625 
L 247.278076 -48.008625 
L 248.84187 -48.008625 
L 250.405665 -48.008625 
L 251.969459 -48.008625 
L 253.533253 -48.008625 
L 255.097047 -48.008625 
L 256.660841 -48.008625 
L 258.224636 -48.008625 
L 259.78843 -48.008625 
L 261.352224 -48.008625 
L 262.916018 -48.008625 
L 264.479813 -48.008625 
L 266.043607 -48.008625 
L 267.607401 -48.008625 
L 269.171195 -48.008625 
L 270.73499 -48.008625 
L 272.298784 -48.008625 
L 273.862578 -48.008625 
L 275.426372 -48.008625 
L 276.990166 -48.008625 
L 278.553961 -48.008625 
L 280.117755 -48.008625 
L 281.681549 -48.008625 
L 283.245343 -48.008625 
L 284.809138 -48.008625 
L 286.372932 -48.008625 
L 287.936726 -48.008625 
L 289.50052 -48.008625 
L 291.064315 -48.008625 
L 292.628109 -48.008625 
L 294.191903 -48.008625 
L 295.755697 -48.008625 
L 297.319491 -48.008625 
L 298.883286 -48.008625 
L 300.44708 -48.008625 
L 302.010874 -48.008625 
L 303.574668 -48.008625 
L 305.138463 -48.008625 
L 306.702257 -48.008625 
L 308.266051 -48.008625 
L 309.829845 -48.008625 
L 311.39364 -48.008625 
L 312.957434 -48.008625 
L 314.521228 -48.008625 
L 316.085022 -48.008625 
L 317.648816 -48.008625 
L 319.212611 -48.008625 
L 320.776405 -48.008625 
L 322.340199 -48.008625 
L 323.903993 -48.008625 
L 325.467788 -48.008625 
L 327.031582 -48.008625 
L 328.595376 -48.008625 
L 330.15917 -48.008625 
L 331.722964 -48.008625 
L 333.286759 -48.008625 
L 334.850553 -48.008625 
L 336.414347 -48.008625 
L 337.978141 -48.008625 
L 339.541936 -48.008625 
L 341.10573 -48.008625 
L 342.669524 -48.008625 
L 344.233318 -48.008625 
L 345.797113 -48.008625 
L 347.360907 -48.008625 
L 348.924701 -48.008625 
L 350.488495 -48.008625 
L 352.052289 -48.008625 
L 353.616084 -48.008625 
L 355.179878 -48.008625 
L 356.743672 -48.008625 
L 358.307466 -48.008625 
L 359.871261 -48.008625 
L 361.435055 -48.008625 
L 362.998849 -48.008625 
L 364.562643 -48.008625 
L 366.126438 -48.008625 
L 367.690232 -48.008625 
L 369.254026 -48.008625 
L 370.81782 -48.008625 
L 372.381614 -48.008625 
L 373.945409 -48.008625 
L 375.509203 -48.008625 
L 377.072997 -48.008625 
L 378.636791 -48.008625 
L 380.200586 -48.008625 
L 381.76438 -48.008625 
L 383.328174 -48.008625 
L 384.891968 -48.008625 
L 386.455763 -48.008625 
L 388.019557 -48.008625 
L 389.583351 -48.008625 
L 391.147145 -48.008625 
L 392.710939 -48.008625 
L 394.274734 -48.008625 
L 395.838528 -48.008625 
L 397.402322 -48.008625 
L 398.966116 -48.008625 
L 400.529911 -48.008625 
L 402.093705 -48.008625 
L 403.657499 -48.008625 
L 405.221293 -48.008625 
L 406.785088 -48.008625 
L 408.348882 -48.008625 
L 409.912676 -48.008625 
L 411.47647 -48.008625 
L 413.040264 -48.008625 
L 414.604059 -48.008625 
L 416.167853 -48.008625 
L 417.731647 -48.008625 
L 419.295441 -48.008625 
L 420.859236 -48.008625 
L 422.42303 -48.008625 
L 423.986824 -48.008625 
L 425.550618 -48.008625 
L 427.114413 -48.008625 
L 428.678207 -48.008625 
L 430.242001 -48.008625 
L 431.805795 -48.008625 
L 433.369589 -48.008625 
L 434.933384 -48.008625 
L 436.497178 -48.008625 
L 438.060972 -48.008625 
L 439.624766 -48.008625 
L 441.188561 -48.008625 
L 442.752355 -48.008625 
L 444.316149 -48.008625 
L 445.879943 -48.008625 
L 447.443737 -48.008625 
L 449.007532 -48.008625 
L 450.571326 -48.008625 
L 452.13512 -48.008625 
L 453.698914 -48.008625 
L 455.262709 -48.008625 
L 456.826503 -48.008625 
L 458.390297 -48.008625 
L 459.954091 -48.008625 
L 461.517886 -48.008625 
L 463.08168 -48.008625 
L 464.645474 -48.008625 
L 466.209268 -48.008625 
L 467.773062 -48.008625 
L 469.336857 -48.008625 
L 470.900651 -48.008625 
L 472.464445 -48.008625 
L 474.028239 -48.008625 
L 475.592034 -48.008625 
L 477.155828 -48.008625 
L 478.719622 -48.008625 
L 480.283416 -48.008625 
L 481.847211 -48.008625 
L 483.411005 -48.008625 
L 484.974799 -48.008625 
L 486.538593 -48.008625 
L 488.102387 -48.008625 
L 489.666182 -48.008625 
L 491.229976 -48.008625 
L 491.229976 -48.012426 
L 491.229976 -48.012426 
L 489.666182 -48.021825 
L 488.102387 -48.046582 
L 486.538593 -48.099396 
L 484.974799 -48.190405 
L 483.411005 -48.316704 
L 481.847211 -48.457626 
L 480.283416 -48.585559 
L 478.719622 -48.688586 
L 477.155828 -48.78791 
L 475.592034 -48.93358 
L 474.028239 -49.174709 
L 472.464445 -49.520971 
L 470.900651 -49.929245 
L 469.336857 -50.333447 
L 467.773062 -50.687014 
L 466.209268 -50.973371 
L 464.645474 -51.194995 
L 463.08168 -51.386204 
L 461.517886 -51.631691 
L 459.954091 -52.018996 
L 458.390297 -52.541074 
L 456.826503 -53.083434 
L 455.262709 -53.557216 
L 453.698914 -54.030036 
L 452.13512 -54.67256 
L 450.571326 -55.568738 
L 449.007532 -56.62032 
L 447.443737 -57.655273 
L 445.879943 -58.596957 
L 444.316149 -59.503599 
L 442.752355 -60.474316 
L 441.188561 -61.553267 
L 439.624766 -62.711027 
L 438.060972 -63.907947 
L 436.497178 -65.208343 
L 434.933384 -66.813281 
L 433.369589 -68.875584 
L 431.805795 -71.243369 
L 430.242001 -73.477181 
L 428.678207 -75.189637 
L 427.114413 -76.350561 
L 425.550618 -77.280119 
L 423.986824 -78.430577 
L 422.42303 -80.179437 
L 420.859236 -82.709678 
L 419.295441 -85.981146 
L 417.731647 -89.837918 
L 416.167853 -94.213384 
L 414.604059 -99.207296 
L 413.040264 -104.865634 
L 411.47647 -110.868342 
L 409.912676 -116.541639 
L 408.348882 -121.295783 
L 406.785088 -125.08914 
L 405.221293 -128.447477 
L 403.657499 -132.005505 
L 402.093705 -135.992635 
L 400.529911 -140.13027 
L 398.966116 -144.051437 
L 397.402322 -147.869696 
L 395.838528 -152.318246 
L 394.274734 -158.266964 
L 392.710939 -166.082806 
L 391.147145 -175.420518 
L 389.583351 -185.496986 
L 388.019557 -195.498652 
L 386.455763 -204.850585 
L 384.891968 -213.21612 
L 383.328174 -220.231098 
L 381.76438 -225.297006 
L 380.200586 -227.789049 
L 378.636791 -227.515636 
L 377.072997 -224.992246 
L 375.509203 -221.430646 
L 373.945409 -218.510575 
L 372.381614 -217.812531 
L 370.81782 -220.026903 
L 369.254026 -224.593997 
L 367.690232 -230.219592 
L 366.126438 -235.788644 
L 364.562643 -240.818841 
L 362.998849 -245.231618 
L 361.435055 -248.945838 
L 359.871261 -251.800225 
L 358.307466 -253.824646 
L 356.743672 -255.500351 
L 355.179878 -257.63468 
L 353.616084 -260.825144 
L 352.052289 -264.950471 
L 350.488495 -269.2066 
L 348.924701 -272.707163 
L 347.360907 -275.129728 
L 345.797113 -276.957116 
L 344.233318 -279.30587 
L 342.669524 -283.447466 
L 341.10573 -290.044974 
L 339.541936 -298.472215 
L 337.978141 -306.923882 
L 336.414347 -313.453357 
L 334.850553 -317.100325 
L 333.286759 -318.177533 
L 331.722964 -317.606224 
L 330.15917 -315.968178 
L 328.595376 -313.123818 
L 327.031582 -308.7581 
L 325.467788 -303.301119 
L 323.903993 -298.15791 
L 322.340199 -294.838454 
L 320.776405 -293.845662 
L 319.212611 -294.510763 
L 317.648816 -295.855067 
L 316.085022 -297.37396 
L 314.521228 -298.89521 
L 312.957434 -300.031462 
L 311.39364 -300.359766 
L 309.829845 -300.316089 
L 308.266051 -301.443222 
L 306.702257 -305.226492 
L 305.138463 -311.599167 
L 303.574668 -318.611177 
L 302.010874 -323.324297 
L 300.44708 -323.036729 
L 298.883286 -316.405711 
L 297.319491 -304.323102 
L 295.755697 -289.865071 
L 294.191903 -276.84498 
L 292.628109 -267.857147 
L 291.064315 -263.303628 
L 289.50052 -261.825028 
L 287.936726 -261.328148 
L 286.372932 -259.809155 
L 284.809138 -255.888955 
L 283.245343 -249.203427 
L 281.681549 -240.420961 
L 280.117755 -230.647008 
L 278.553961 -220.637494 
L 276.990166 -210.562541 
L 275.426372 -200.40175 
L 273.862578 -190.35387 
L 272.298784 -180.836929 
L 270.73499 -172.215238 
L 269.171195 -164.530518 
L 267.607401 -157.406615 
L 266.043607 -150.243 
L 264.479813 -142.62224 
L 262.916018 -134.614449 
L 261.352224 -126.76109 
L 259.78843 -119.808013 
L 258.224636 -114.334904 
L 256.660841 -110.424055 
L 255.097047 -107.583503 
L 253.533253 -105.021212 
L 251.969459 -102.063888 
L 250.405665 -98.443367 
L 248.84187 -94.353911 
L 247.278076 -90.291798 
L 245.714282 -86.746894 
L 244.150488 -83.949447 
L 242.586693 -81.86311 
L 241.022899 -80.357463 
L 239.459105 -79.340624 
L 237.895311 -78.773522 
L 236.331516 -78.619512 
L 234.767722 -78.745101 
L 233.203928 -78.824409 
L 231.640134 -78.410497 
L 230.07634 -77.196526 
L 228.512545 -75.208711 
L 226.948751 -72.722737 
L 225.384957 -70.037721 
L 223.821163 -67.365854 
L 222.257368 -64.86775 
L 220.693574 -62.673608 
L 219.12978 -60.829401 
L 217.565986 -59.277374 
L 216.002191 -57.935691 
L 214.438397 -56.772881 
L 212.874603 -55.773809 
L 211.310809 -54.866934 
L 209.747015 -53.940641 
L 208.18322 -52.93922 
L 206.619426 -51.925281 
L 205.055632 -51.051133 
L 203.491838 -50.474485 
L 201.928043 -50.275457 
L 200.364249 -50.411008 
L 198.800455 -50.725333 
L 197.236661 -51.014852 
L 195.672867 -51.114689 
L 194.109072 -50.955226 
L 192.545278 -50.561878 
L 190.981484 -50.018608 
L 189.41769 -49.431273 
L 187.853895 -48.900505 
L 186.290101 -48.495802 
L 184.726307 -48.237049 
L 183.162513 -48.099456 
L 181.598718 -48.038981 
L 180.034924 -48.017096 
z
" style="stroke: #e24a33; stroke-width: 0.5"/>
    </defs>
    <g clip-path="url(#pd02526347f)">
     <use xlink:href="#m78f43d77cd" x="0" y="387.848625" style="fill: #e24a33; fill-opacity: 0.25; stroke: #e24a33; stroke-width: 0.5"/>
    </g>
   </g>
   <g id="FillBetweenPolyCollection_2">
    <defs>
     <path id="m0f6217d961" d="M 168.008735 -48.010221 
L 168.008735 -48.008625 
L 169.624262 -48.008625 
L 171.239789 -48.008625 
L 172.855316 -48.008625 
L 174.470843 -48.008625 
L 176.08637 -48.008625 
L 177.701897 -48.008625 
L 179.317424 -48.008625 
L 180.932951 -48.008625 
L 182.548478 -48.008625 
L 184.164005 -48.008625 
L 185.779532 -48.008625 
L 187.395059 -48.008625 
L 189.010586 -48.008625 
L 190.626113 -48.008625 
L 192.24164 -48.008625 
L 193.857167 -48.008625 
L 195.472694 -48.008625 
L 197.088221 -48.008625 
L 198.703748 -48.008625 
L 200.319275 -48.008625 
L 201.934802 -48.008625 
L 203.550329 -48.008625 
L 205.165856 -48.008625 
L 206.781383 -48.008625 
L 208.39691 -48.008625 
L 210.012437 -48.008625 
L 211.627964 -48.008625 
L 213.243491 -48.008625 
L 214.859018 -48.008625 
L 216.474545 -48.008625 
L 218.090072 -48.008625 
L 219.705599 -48.008625 
L 221.321126 -48.008625 
L 222.936653 -48.008625 
L 224.55218 -48.008625 
L 226.167707 -48.008625 
L 227.783234 -48.008625 
L 229.398761 -48.008625 
L 231.014288 -48.008625 
L 232.629815 -48.008625 
L 234.245342 -48.008625 
L 235.860869 -48.008625 
L 237.476396 -48.008625 
L 239.091923 -48.008625 
L 240.70745 -48.008625 
L 242.322977 -48.008625 
L 243.938504 -48.008625 
L 245.554031 -48.008625 
L 247.169558 -48.008625 
L 248.785085 -48.008625 
L 250.400612 -48.008625 
L 252.016139 -48.008625 
L 253.631666 -48.008625 
L 255.247193 -48.008625 
L 256.86272 -48.008625 
L 258.478247 -48.008625 
L 260.093774 -48.008625 
L 261.709301 -48.008625 
L 263.324828 -48.008625 
L 264.940355 -48.008625 
L 266.555882 -48.008625 
L 268.171409 -48.008625 
L 269.786936 -48.008625 
L 271.402463 -48.008625 
L 273.01799 -48.008625 
L 274.633517 -48.008625 
L 276.249044 -48.008625 
L 277.864571 -48.008625 
L 279.480098 -48.008625 
L 281.095625 -48.008625 
L 282.711152 -48.008625 
L 284.326679 -48.008625 
L 285.942206 -48.008625 
L 287.557733 -48.008625 
L 289.17326 -48.008625 
L 290.788787 -48.008625 
L 292.404314 -48.008625 
L 294.019841 -48.008625 
L 295.635368 -48.008625 
L 297.250895 -48.008625 
L 298.866422 -48.008625 
L 300.481949 -48.008625 
L 302.097475 -48.008625 
L 303.713002 -48.008625 
L 305.328529 -48.008625 
L 306.944056 -48.008625 
L 308.559583 -48.008625 
L 310.17511 -48.008625 
L 311.790637 -48.008625 
L 313.406164 -48.008625 
L 315.021691 -48.008625 
L 316.637218 -48.008625 
L 318.252745 -48.008625 
L 319.868272 -48.008625 
L 321.483799 -48.008625 
L 323.099326 -48.008625 
L 324.714853 -48.008625 
L 326.33038 -48.008625 
L 327.945907 -48.008625 
L 329.561434 -48.008625 
L 331.176961 -48.008625 
L 332.792488 -48.008625 
L 334.408015 -48.008625 
L 336.023542 -48.008625 
L 337.639069 -48.008625 
L 339.254596 -48.008625 
L 340.870123 -48.008625 
L 342.48565 -48.008625 
L 344.101177 -48.008625 
L 345.716704 -48.008625 
L 347.332231 -48.008625 
L 348.947758 -48.008625 
L 350.563285 -48.008625 
L 352.178812 -48.008625 
L 353.794339 -48.008625 
L 355.409866 -48.008625 
L 357.025393 -48.008625 
L 358.64092 -48.008625 
L 360.256447 -48.008625 
L 361.871974 -48.008625 
L 363.487501 -48.008625 
L 365.103028 -48.008625 
L 366.718555 -48.008625 
L 368.334082 -48.008625 
L 369.949609 -48.008625 
L 371.565136 -48.008625 
L 373.180663 -48.008625 
L 374.79619 -48.008625 
L 376.411717 -48.008625 
L 378.027244 -48.008625 
L 379.642771 -48.008625 
L 381.258298 -48.008625 
L 382.873825 -48.008625 
L 384.489352 -48.008625 
L 386.104879 -48.008625 
L 387.720406 -48.008625 
L 389.335933 -48.008625 
L 390.95146 -48.008625 
L 392.566987 -48.008625 
L 394.182514 -48.008625 
L 395.798041 -48.008625 
L 397.413568 -48.008625 
L 399.029095 -48.008625 
L 400.644622 -48.008625 
L 402.260149 -48.008625 
L 403.875676 -48.008625 
L 405.491203 -48.008625 
L 407.10673 -48.008625 
L 408.722257 -48.008625 
L 410.337784 -48.008625 
L 411.953311 -48.008625 
L 413.568838 -48.008625 
L 415.184365 -48.008625 
L 416.799892 -48.008625 
L 418.415419 -48.008625 
L 420.030946 -48.008625 
L 421.646473 -48.008625 
L 423.262 -48.008625 
L 424.877527 -48.008625 
L 426.493054 -48.008625 
L 428.108581 -48.008625 
L 429.724108 -48.008625 
L 431.339635 -48.008625 
L 432.955162 -48.008625 
L 434.570689 -48.008625 
L 436.186216 -48.008625 
L 437.801743 -48.008625 
L 439.41727 -48.008625 
L 441.032797 -48.008625 
L 442.648324 -48.008625 
L 444.263851 -48.008625 
L 445.879378 -48.008625 
L 447.494905 -48.008625 
L 449.110432 -48.008625 
L 450.725959 -48.008625 
L 452.341486 -48.008625 
L 453.957013 -48.008625 
L 455.57254 -48.008625 
L 457.188067 -48.008625 
L 458.803594 -48.008625 
L 460.419121 -48.008625 
L 462.034648 -48.008625 
L 463.650175 -48.008625 
L 465.265702 -48.008625 
L 466.881229 -48.008625 
L 468.496756 -48.008625 
L 470.112283 -48.008625 
L 471.72781 -48.008625 
L 473.343337 -48.008625 
L 474.958864 -48.008625 
L 476.574391 -48.008625 
L 478.189918 -48.008625 
L 479.805445 -48.008625 
L 481.420972 -48.008625 
L 483.036499 -48.008625 
L 484.652026 -48.008625 
L 486.267553 -48.008625 
L 487.88308 -48.008625 
L 489.498607 -48.008625 
L 489.498607 -48.01023 
L 489.498607 -48.01023 
L 487.88308 -48.016049 
L 486.267553 -48.034247 
L 484.652026 -48.075724 
L 483.036499 -48.145954 
L 481.420972 -48.238391 
L 479.805445 -48.341046 
L 478.189918 -48.450553 
L 476.574391 -48.58502 
L 474.958864 -48.781916 
L 473.343337 -49.052328 
L 471.72781 -49.333376 
L 470.112283 -49.539241 
L 468.496756 -49.672986 
L 466.881229 -49.842535 
L 465.265702 -50.161046 
L 463.650175 -50.656271 
L 462.034648 -51.25153 
L 460.419121 -51.813681 
L 458.803594 -52.266513 
L 457.188067 -52.678051 
L 455.57254 -53.185837 
L 453.957013 -53.829269 
L 452.341486 -54.505946 
L 450.725959 -55.065682 
L 449.110432 -55.374315 
L 447.494905 -55.335233 
L 445.879378 -54.972027 
L 444.263851 -54.507871 
L 442.648324 -54.28377 
L 441.032797 -54.542163 
L 439.41727 -55.277207 
L 437.801743 -56.295874 
L 436.186216 -57.401473 
L 434.570689 -58.463813 
L 432.955162 -59.386798 
L 431.339635 -60.176085 
L 429.724108 -60.983225 
L 428.108581 -61.950415 
L 426.493054 -63.120294 
L 424.877527 -64.567823 
L 423.262 -66.386624 
L 421.646473 -68.411273 
L 420.030946 -70.22586 
L 418.415419 -71.674609 
L 416.799892 -73.194832 
L 415.184365 -75.422131 
L 413.568838 -78.492525 
L 411.953311 -81.853654 
L 410.337784 -84.75524 
L 408.722257 -86.822438 
L 407.10673 -88.222591 
L 405.491203 -89.607433 
L 403.875676 -91.941059 
L 402.260149 -95.928778 
L 400.644622 -101.437643 
L 399.029095 -107.659631 
L 397.413568 -113.701185 
L 395.798041 -118.965071 
L 394.182514 -123.444643 
L 392.566987 -127.800467 
L 390.95146 -132.692515 
L 389.335933 -137.97545 
L 387.720406 -143.033454 
L 386.104879 -147.757594 
L 384.489352 -152.332689 
L 382.873825 -156.302686 
L 381.258298 -159.24737 
L 379.642771 -162.259153 
L 378.027244 -167.060112 
L 376.411717 -173.523775 
L 374.79619 -179.572568 
L 373.180663 -183.673563 
L 371.565136 -186.145221 
L 369.949609 -188.062195 
L 368.334082 -190.176377 
L 366.718555 -192.744525 
L 365.103028 -195.259846 
L 363.487501 -196.619498 
L 361.871974 -196.355376 
L 360.256447 -195.310961 
L 358.64092 -194.629173 
L 357.025393 -194.631884 
L 355.409866 -195.257355 
L 353.794339 -197.018995 
L 352.178812 -200.509552 
L 350.563285 -205.12347 
L 348.947758 -209.437652 
L 347.332231 -213.155084 
L 345.716704 -217.896333 
L 344.101177 -225.792852 
L 342.48565 -237.429658 
L 340.870123 -250.512177 
L 339.254596 -260.441775 
L 337.639069 -263.761519 
L 336.023542 -261.654997 
L 334.408015 -258.951755 
L 332.792488 -259.672463 
L 331.176961 -264.226991 
L 329.561434 -270.200311 
L 327.945907 -274.924874 
L 326.33038 -277.401482 
L 324.714853 -278.402451 
L 323.099326 -279.453658 
L 321.483799 -281.625787 
L 319.868272 -284.954153 
L 318.252745 -289.177952 
L 316.637218 -294.606738 
L 315.021691 -301.696611 
L 313.406164 -310.111211 
L 311.790637 -318.492765 
L 310.17511 -325.173217 
L 308.559583 -329.543389 
L 306.944056 -333.122409 
L 305.328529 -338.76098 
L 303.713002 -347.859222 
L 302.097475 -358.184292 
L 300.481949 -364.808625 
L 298.866422 -364.173004 
L 297.250895 -358.243216 
L 295.635368 -353.319468 
L 294.019841 -353.425397 
L 292.404314 -356.652396 
L 290.788787 -358.163756 
L 289.17326 -354.403396 
L 287.557733 -344.78709 
L 285.942206 -331.372133 
L 284.326679 -317.281499 
L 282.711152 -305.181602 
L 281.095625 -296.437184 
L 279.480098 -290.430536 
L 277.864571 -284.938103 
L 276.249044 -277.920156 
L 274.633517 -268.543455 
L 273.01799 -256.641368 
L 271.402463 -242.608815 
L 269.786936 -228.10129 
L 268.171409 -215.294062 
L 266.555882 -204.937522 
L 264.940355 -196.160642 
L 263.324828 -188.116037 
L 261.709301 -181.008049 
L 260.093774 -175.668798 
L 258.478247 -172.438636 
L 256.86272 -170.364797 
L 255.247193 -167.620422 
L 253.631666 -162.821776 
L 252.016139 -155.685994 
L 250.400612 -146.57817 
L 248.785085 -136.197389 
L 247.169558 -125.795643 
L 245.554031 -117.054111 
L 243.938504 -111.335025 
L 242.322977 -108.852366 
L 240.70745 -108.537292 
L 239.091923 -108.883186 
L 237.476396 -108.960055 
L 235.860869 -108.596297 
L 234.245342 -107.784794 
L 232.629815 -106.224237 
L 231.014288 -103.513833 
L 229.398761 -99.571147 
L 227.783234 -94.794308 
L 226.167707 -89.968346 
L 224.55218 -85.927027 
L 222.936653 -83.09387 
L 221.321126 -81.290558 
L 219.705599 -79.963143 
L 218.090072 -78.534266 
L 216.474545 -76.603509 
L 214.859018 -74.09287 
L 213.243491 -71.307688 
L 211.627964 -68.613874 
L 210.012437 -66.07532 
L 208.39691 -63.656143 
L 206.781383 -61.564822 
L 205.165856 -60.046012 
L 203.550329 -58.984425 
L 201.934802 -58.020595 
L 200.319275 -56.969522 
L 198.703748 -55.899603 
L 197.088221 -54.890216 
L 195.472694 -53.897463 
L 193.857167 -52.841421 
L 192.24164 -51.761844 
L 190.626113 -50.850239 
L 189.010586 -50.261967 
L 187.395059 -49.920845 
L 185.779532 -49.612711 
L 184.164005 -49.240456 
L 182.548478 -48.874541 
L 180.932951 -48.598976 
L 179.317424 -48.421365 
L 177.701897 -48.305425 
L 176.08637 -48.215631 
L 174.470843 -48.136407 
L 172.855316 -48.072945 
L 171.239789 -48.033673 
L 169.624262 -48.015964 
L 168.008735 -48.010221 
z
" style="stroke: #348abd; stroke-width: 0.5"/>
    </defs>
    <g clip-path="url(#pd02526347f)">
     <use xlink:href="#m0f6217d961" x="0" y="387.848625" style="fill: #348abd; fill-opacity: 0.25; stroke: #348abd; stroke-width: 0.5"/>
    </g>
   </g>
   <g id="patch_3">
    <path d="M 43.36675 339.84 
L 43.36675 7.2 
" style="fill: none; stroke: #ffffff; stroke-linejoin: miter; stroke-linecap: square"/>
   </g>
   <g id="patch_4">
    <path d="M 601.36675 339.84 
L 601.36675 7.2 
" style="fill: none; stroke: #ffffff; stroke-linejoin: miter; stroke-linecap: square"/>
   </g>
   <g id="patch_5">
    <path d="M 43.36675 339.84 
L 601.36675 339.84 
" style="fill: none; stroke: #ffffff; stroke-linejoin: miter; stroke-linecap: square"/>
   </g>
   <g id="patch_6">
    <path d="M 43.36675 7.2 
L 601.36675 7.2 
" style="fill: none; stroke: #ffffff; stroke-linejoin: miter; stroke-linecap: square"/>
   </g>
   <g id="legend_1">
    <g id="patch_7">
     <path d="M 494.656125 59.49875 
L 591.56675 59.49875 
Q 594.36675 59.49875 594.36675 56.69875 
L 594.36675 17 
Q 594.36675 14.2 591.56675 14.2 
L 494.656125 14.2 
Q 491.856125 14.2 491.856125 17 
L 491.856125 56.69875 
Q 491.856125 59.49875 494.656125 59.49875 
z
" style="fill: #e5e5e5; opacity: 0.8; stroke: #cccccc; stroke-width: 0.5; stroke-linejoin: miter"/>
    </g>
    <g id="patch_8">
     <path d="M 497.456125 30.437812 
L 525.456125 30.437812 
L 525.456125 20.637812 
L 497.456125 20.637812 
z
" style="fill: #e24a33; fill-opacity: 0.25; stroke: #e24a33; stroke-width: 0.5; stroke-linejoin: miter"/>
    </g>
    <g id="text_15">
     <!-- Treated -->
     <g transform="translate(536.656125 30.437812) scale(0.14 -0.14)">
      <defs>
       <path id="DejaVuSans-54" d="M -19 4666 
L 3928 4666 
L 3928 4134 
L 2272 4134 
L 2272 0 
L 1638 0 
L 1638 4134 
L -19 4134 
L -19 4666 
z
" transform="scale(0.015625)"/>
       <path id="DejaVuSans-61" d="M 2194 1759 
Q 1497 1759 1228 1600 
Q 959 1441 959 1056 
Q 959 750 1161 570 
Q 1363 391 1709 391 
Q 2188 391 2477 730 
Q 2766 1069 2766 1631 
L 2766 1759 
L 2194 1759 
z
M 3341 1997 
L 3341 0 
L 2766 0 
L 2766 531 
Q 2569 213 2275 61 
Q 1981 -91 1556 -91 
Q 1019 -91 701 211 
Q 384 513 384 1019 
Q 384 1609 779 1909 
Q 1175 2209 1959 2209 
L 2766 2209 
L 2766 2266 
Q 2766 2663 2505 2880 
Q 2244 3097 1772 3097 
Q 1472 3097 1187 3025 
Q 903 2953 641 2809 
L 641 3341 
Q 956 3463 1253 3523 
Q 1550 3584 1831 3584 
Q 2591 3584 2966 3190 
Q 3341 2797 3341 1997 
z
" transform="scale(0.015625)"/>
       <path id="DejaVuSans-64" d="M 2906 2969 
L 2906 4863 
L 3481 4863 
L 3481 0 
L 2906 0 
L 2906 525 
Q 2725 213 2448 61 
Q 2172 -91 1784 -91 
Q 1150 -91 751 415 
Q 353 922 353 1747 
Q 353 2572 751 3078 
Q 1150 3584 1784 3584 
Q 2172 3584 2448 3432 
Q 2725 3281 2906 2969 
z
M 947 1747 
Q 947 1113 1208 752 
Q 1469 391 1925 391 
Q 2381 391 2643 752 
Q 2906 1113 2906 1747 
Q 2906 2381 2643 2742 
Q 2381 3103 1925 3103 
Q 1469 3103 1208 2742 
Q 947 2381 947 1747 
z
" transform="scale(0.015625)"/>
      </defs>
      <use xlink:href="#DejaVuSans-54"/>
      <use xlink:href="#DejaVuSans-72" transform="translate(46.333984 0)"/>
      <use xlink:href="#DejaVuSans-65" transform="translate(85.197266 0)"/>
      <use xlink:href="#DejaVuSans-61" transform="translate(146.720703 0)"/>
      <use xlink:href="#DejaVuSans-74" transform="translate(208 0)"/>
      <use xlink:href="#DejaVuSans-65" transform="translate(247.208984 0)"/>
      <use xlink:href="#DejaVuSans-64" transform="translate(308.732422 0)"/>
     </g>
    </g>
    <g id="patch_9">
     <path d="M 497.456125 50.987187 
L 525.456125 50.987187 
L 525.456125 41.187187 
L 497.456125 41.187187 
z
" style="fill: #348abd; fill-opacity: 0.25; stroke: #348abd; stroke-width: 0.5; stroke-linejoin: miter"/>
    </g>
    <g id="text_16">
     <!-- Control -->
     <g transform="translate(536.656125 50.987187) scale(0.14 -0.14)">
      <defs>
       <path id="DejaVuSans-43" d="M 4122 4306 
L 4122 3641 
Q 3803 3938 3442 4084 
Q 3081 4231 2675 4231 
Q 1875 4231 1450 3742 
Q 1025 3253 1025 2328 
Q 1025 1406 1450 917 
Q 1875 428 2675 428 
Q 3081 428 3442 575 
Q 3803 722 4122 1019 
L 4122 359 
Q 3791 134 3420 21 
Q 3050 -91 2638 -91 
Q 1578 -91 968 557 
Q 359 1206 359 2328 
Q 359 3453 968 4101 
Q 1578 4750 2638 4750 
Q 3056 4750 3426 4639 
Q 3797 4528 4122 4306 
z
" transform="scale(0.015625)"/>
       <path id="DejaVuSans-6c" d="M 603 4863 
L 1178 4863 
L 1178 0 
L 603 0 
L 603 4863 
z
" transform="scale(0.015625)"/>
      </defs>
      <use xlink:href="#DejaVuSans-43"/>
      <use xlink:href="#DejaVuSans-6f" transform="translate(69.824219 0)"/>
      <use xlink:href="#DejaVuSans-6e" transform="translate(131.005859 0)"/>
      <use xlink:href="#DejaVuSans-74" transform="translate(194.384766 0)"/>
      <use xlink:href="#DejaVuSans-72" transform="translate(233.59375 0)"/>
      <use xlink:href="#DejaVuSans-6f" transform="translate(272.457031 0)"/>
      <use xlink:href="#DejaVuSans-6c" transform="translate(333.638672 0)"/>
     </g>
    </g>
   </g>
  </g>
 </g>
 <defs>
  <clipPath id="pd02526347f">
   <rect x="43.36675" y="7.2" width="558" height="332.64"/>
  </clipPath>
 </defs>
</svg>
